<?xml version="1.0"?>
    
<!--********* Copyright (c) 2024 Pareto Softare, LLC DBA Simplemaps.com ***************************************
************* Free for Commercial Use, full terms at  https://simplemaps.com/resources/svg-license ************
************* Attribution is appreciated! https://simplemaps.com *******************************************-->

<svg baseprofile="tiny" fill="#6f9c76" height="1000" stroke="#ffffff" stroke-linecap="round" stroke-linejoin="round" stroke-width=".5" version="1.2" viewbox="0 0 1000 1000" width="1000" xmlns="http://www.w3.org/2000/svg">
 <g id="features">
  <path d="M136.8 613l-0.7-1.1-0.8 0-1 0.4-1.4 0.1-1.1-0.4-1.1-0.4-2-1.3-1.5-0.4-0.5-0.1-0.4-0.5-1.4-1.5-1 0.2-0.8 0.6-0.8 0-1-1.7-0.6-2.5-0.1-5.1-0.4-2.5-1.7-3.2-2.3-2.6-5.3-4.8-1.4-2.1-0.6-2.5-0.3-5.5 0.1-5-0.2-2.4-0.7-2-1-1.3-1.3-1.3-2.6-2.2-1.1-0.4-3.4-0.4-0.1 0 1.1-1.8 1.1-3.8 0.7-1.5 0.3-0.1 1.1-0.2 0.4-0.1 3.6-3.3 2-1.4 1.8-0.7 1.9-0.3 1.7-0.7 1.5-1.7 0.3-1-0.3-0.5-0.5-0.2-0.2-0.4 0.2-0.7 0.4-0.4 2.8-1.7 0.8-0.9 1.7-3.8 6.7-7.2 0.9-1.5 1.3-3.7 0.6-1 1-0.6 2.4-0.2 1.2-0.3 3.8-2 1.1-0.9 1.1-1.4 0.8-1.1-1.7-2.4-0.4-1.2 0.2-2.1-0.1-4 0.2-1.4 0.6-1.2 1.7-2.2 2.2-1.1 7.4-3 1.5-2.3-0.7-1.9-1.5-1-3.5-1.4-2.6-3-1.5-0.9-1.9 0.7-2.1-0.7-0.7-0.1-0.8 0.3-1.2 1-0.8 0.3-1.7 0-1.5-0.6-1.5-0.8-1.2-1.1-2.3-2.9-1.5-3.7-2.7-7.1-2.8-7.1-2.8-7-2.9-7.1-0.8-2-0.3-2 0.6-2.1 4.2-6.5 0.4-1.3 0.1-1.4 0.4-1.3 0.8-1.3 0.7-0.3 1.8-0.6 0.5-0.3 0-0.6-0.8-2.1 0.4-1.1 1.1-1.4 1.2-1.1 2.2-0.8 0.9-2.6 1.3-0.1 1.6 0.1 1-0.8 0.1-1.3-1.5-1.5-1.6-2.4-1.1-1-3.9-2.9-1.1-1.1-3.8-5.9-1.1-1-1.4-1.3-0.4-1.2 0.3-1.3 1-2.6 0.2-0.5-0.3-5.6 0.1-1.1 0.6-0.9 1.5-0.9 3.6-1.1 1.1-0.6 0.9-2 0.4-8.7 0.8-1.3 1.3-0.1 1.5 0.3 1.5 0 0.4-0.7-0.2-3.2 0.2-1.1 0.4-0.3 1.1-0.3 0.5-0.3 2.6-3 1.2-0.9 4.3-2.4 1.3-1.3-0.3-1.3-0.9-1.4-0.5-1.2 0-2.6 0.1-1.3 0.3-1.2 1.7-1.2 2.2-0.6 4.4-0.6 1.3-1.3-0.3-2.4-1.6-4.6-0.4-2.3-0.4-1-0.7-1-3.5-2.4-0.9-1.2-0.4-2.2 0-2.4-0.2-2.3-1.2-1.8-0.8-2.6-0.1-0.9 0.2-1.1 0.3-0.8 0-0.8-0.7-1-3.5-2.9-1.4-1.9 0.9-1.6 0.9 0 2 0.3 0.7-0.1 0.6-0.8 0-0.8-0.1-0.8 0.2-0.9 0.5-0.8 1.4-1.5 0.5-0.9 0.6-1.6 0.4-1.7-0.2-1.5 0.7-13.3-0.9-5.3-0.2-2.7 0.5-8-0.1-1-0.8-6.6 0-2.9 0.3-1.6 2.1-1.6 0.7-1.6 0.8-1.3 1.5 0.2 0.8-1.9 1-1.4 1.4-0.9 5.4-1.5 0.5-0.6 1.5-3-0.6-0.8-2.2-0.5-0.6-0.7 0.1-1.1 0.6-1 0.9-0.7 2-1.1 0.9-0.8 0.8-1 0.5-1.1 0.4-1.3 0.4-0.6 0.7-0.3-0.4-0.6 0.8 0.1 2.1 0.1 0.7-0.1 0.4-0.3 0.8-0.9 0.3-0.2 1.3-3.6 0.7-1 1.6-0.3 1.1 0.6 1 0.7 1.1 0.4 1.3-0.2 0.8-0.5 1.3-2 3-7.7 1.4-2.1 7.8-4.1 1.7-1.8 0.5-2.3 0.5-4.9 1.1-1.8 2-1 4.9-0.7 1.8-0.9 1.4 0.1 1.6-0.3 1.6-0.6 1.1-0.8 1-1.5 0.5-1.7 0-0.4 1.2 0.3 67.6 31.9-0.5 1.2-0.2 1.3 0.1 4.1 0.2 0.9 0.5 1-0.1 1.1-0.8 1.4-1.7 2.4 1 2.9 0.3 1.4-0.1 1.7-3.7 15.6-3.2 7.7-0.9 0.3-1.1-0.1-1.3 0.2-1.1 1.1-2.6 4.7-0.5 0.4-1.2 0.7-0.5 0.4-0.3 0.6-0.3 1.4-0.3 0.6-5.3 6.3-2.3 1.8-1 1.2-2.8 4.3-1.1 2.3 0.1 2.3 1.1 6.2 1.1 1.8 0 1.3-0.5 1.1-2.8 3.6-1.3 2.1-0.8 0.9-1 0.7-0.9 0.9-0.6 1.3-0.8 2.8 0 1.3 0.9 1.8-0.2 1.3-0.6 1.1-0.6 0.8-0.5 1-1.8 8.1 0 1.1 0.9 3 0 0.8 0.7 5.3-0.2 4.1 0.6 2.2 0.1 1.1-0.3 1.1-0.8 1-2.1 0.9-0.8 0.7-0.2 1.2 0.1 1.3 0.4 1.4 0.9 2.4 0.2 0.3 0.4 0.4 0.2 0.2 0.1 0.4 0 0.9 0 0.4 0.3 0.7 1.5 1.4 0.8 1.2 0.4 1.3-0.1 1.4-0.6 1.3-0.4 0.6-1.1 0.9-0.5 0.6-0.3 0.7-0.2 0.5 0.3 0.5 1.8 4.2 1.3 1.8 3.2 3 0.5 1 0.4 1.5 0 2.8-0.3 2.6-0.3 1.4-0.2 1.4 0.1 1.1 0.2 1.4 0.8 2.5 1 1.2 0.9 0.6 1 0.7 0.6 0.4 0.7 0.2 0.9 0.1 1.5-0.2 0.8 0 0.8 0.1 0.8 0.6 0.7 0.9 1.2 2.5 0.6 0.9 0.8 0.9 1.6 1.8 1.8 2.7 4.2 8.5 0.2 0.9 0 0.8-0.5 2.9 0 0.7 0.1 0.7 0.2 0.7 0.5 0.8 0.7 0.7 0.9 0.6 1.4 0.6 0.4 0.3 0.6 0.6 1.4 2.4 13.2 12.5 2.7 2.8-5.5 4.7-2.4 3-2 2.2 0.1 0.2 0.3 0.2 0.3 0.2 0.3 0.3 0.1 0.4-0.2 1.1-0.3 0.7-0.6 0.7-0.5 0.8-0.2 0.8 0.1 0.8 0.2 1.6 0 1.8-0.6 5 0.1 0.7 0.2 0.5 1.2 1.5 1 1.8 1.9 2.1 0.7 1.2 0.2 1.5-0.2 1 0.1 0.5 2.1 0.7 0.3 0.3 0.5 0.9 1.4 1.8 0.4 1-0.3 8.5-0.9 3.4 0.1 1.8 0.8 1.8 1.9 3.5 0.6 2-0.1 5.2 0.1 0.9 0.4 3.2 0.1 1.1-0.2 1.1-0.9 1.4-1.5 1.2-1.8 1-1.5 0.5-4 0.5-1.6 0.8-1.3 1.9-1.2 2.3-0.5 1.2-0.1 1.4 0.2 1.4-0.1 0.6-0.2 0.8-1.2 1.5-0.3 0.6-0.5 1.4-0.2 1.4 0.3 1.3 1 0.9 3.1 1.3 0.7 1.1 1 1.1 0.8 1.2 0.5 0.9 0.4 1.1 0.9 5-0.2 2.1 0.1 0.9 0.2 0.7 0.5 0.9 0.5 0.6 1 3.7-1.3 2.6 0.3 0.7 0.4 0.8 0.6 0.6 0.4 0.6 0.2 1-0.5 0.6-0.8 0.6-8.5 4.5-1.5-1.4-0.2-0.3-1.6-1.8-1.1-1.7-0.8-1.8-0.5-0.8-0.4-0.6-0.6-0.6-0.9-0.8-0.4-0.2-0.5-0.2-0.8-0.1-0.7-0.1-0.5 0.1-8.6 2.4-1.4 0.6-7.8 4.6-8 5.8-1.6 1.2-10.9 6.9-1.3 0.9-0.2 0.4-0.1 0.5 0.1 1 0.2 0.5 0.2 0.5 0.6 1 0.4 1 0.1 0.3 0 0.5-0.1 0.4-0.2 0.7-0.1 0.5-0.4 0.7-0.5 0.5-1.4 0.9-0.8 0.2-0.9-0.1-0.3-0.1-0.4-0.1-12.9-9.8-1.5-0.7-2.2-0.8-5.2-2.6-2-0.7-10.3-0.4-7.9 0.6-2.1 0.6-4.2 1.9-0.6 0.4-3.7 3.2-5.8 7.4-2.3 2.1-5.6 4.3-3.4 1.9-8.7 2.3-4.8 2.5-0.6 0.2z" id="BOL" name="La Paz">
  </path>
  <path d="M136.8 613l0.6-0.2 4.8-2.5 8.7-2.3 3.4-1.9 5.6-4.3 2.3-2.1 5.8-7.4 3.7-3.2 0.6-0.4 4.2-1.9 2.1-0.6 7.9-0.6 10.3 0.4 2 0.7 5.2 2.6 2.2 0.8 1.5 0.7 12.9 9.8 0.4 0.1 0.3 0.1 0.9 0.1 0.8-0.2 1.4-0.9 0.5-0.5 0.4-0.7 0.1-0.5 0.2-0.7 0.1-0.4 0-0.5-0.1-0.3-0.4-1-0.6-1-0.2-0.5-0.2-0.5-0.1-1 0.1-0.5 0.2-0.4 1.3-0.9 10.9-6.9 1.6-1.2 8-5.8 7.8-4.6 1.4-0.6 8.6-2.4 0.5-0.1 0.7 0.1 0.8 0.1 0.5 0.2 0.4 0.2 0.9 0.8 0.6 0.6 0.4 0.6 0.5 0.8 0.8 1.8 1.1 1.7 1.6 1.8 0.2 0.3 1.5 1.4 10.8 8.3 1.2 1.2 3.4 4.3 5 7.8 3.7 8.8-0.6 1.4-0.6 0.6-0.7 0.5-0.8 0.4-4.5 1.5-0.5 1.1-0.4 6.4 0.1 1.6 0.3 0.8 0.4 0.8 0.5 0.5 0.6 0.5 2.3 1 0.8 0.2 0.8 0 1.7-0.4 1.7 0 0.7 0.2 1.4 0.5 0.6 0.1 1.5 0 1.5 0.5-1.5 1.7-1.9 1.2-3 1.5-1.7 1.1-1.4 0.7-0.7 0.6-0.2 0.5-0.1 0.4 0.2 2.3-0.1 1.1-0.1 0.9-0.6 3-0.1 0.8 0.1 0.9 0 0.3 0.1 0.1 0.8 1.3 2.3 5 0.5 0.9 0.4 0.4 0.8 0.6 5.5 4.4 1.9 1.2 5.9 2.1 4.1 0.4 3.4 1.4 1 0.8 0.8 0.8 0.3 0.7 3 9.3 0.1 0.4 2.5 4.8 3.3 4.4 4.9 5.7 1.2 2.2-0.1 0.7-0.3 0.6-0.7 0.5-0.7 0.4-2 0.4-8 0.6-13.9 1-1.6 0.6-2.7 1.6-7.9 7.2-4.8 3.7-2.6 1.5-13.7 6.2-20.1 8.7-20.5 8.9-8.9 3.1-3.4-0.1-6.1-1.2-30.1-10.1-18.7-6.8-0.2-0.1 2.9-4.5 1.4-2 1-0.9 2.6-1.2 0.6-0.5-0.5-1.3-1.2-1.4-1.3-1.3-7.1-5.2-2.3-0.9-1.8-1.1-2.4-4.1-1.5-1.6-6.2-5.5-2.1-1.5-3.1-1.1-0.9-0.6-0.7-1-1.6-3.6-1.2-2.2-0.8-1-1-0.6 1.9-2.7 0.6-1.3 0-1.5-0.2-0.8-3.7-7.7 0-0.1 0-0.1 0.5-0.9 0.1-1-0.1-0.9-0.5-0.9-1.5-2.8-0.6-3.4 0-3.6 0.5-3.3 0-1.6-0.5-1.4-2.3-4.1-0.3-1.1 0.2-3.8-0.1-0.6-1-3-0.1-0.6 0-0.7-0.2-1.6-0.7-1.1-2-2.2-0.9-3.2 1.9-2.1 2.4-1.9 0.5-3z" id="BOO" name="Oruro">
  </path>
  <path d="M170.1 719.1l0.2 0.1 18.7 6.8 30.1 10.1 6.1 1.2 3.4 0.1 8.9-3.1 20.5-8.9 20.1-8.7 13.7-6.2 2.6-1.5 4.8-3.7 7.9-7.2 2.7-1.6 1.6-0.6 13.9-1 8-0.6 2-0.4 0.7-0.4 0.7-0.5 0.3-0.6 0.1-0.7-1.2-2.2-4.9-5.7-3.3-4.4-2.5-4.8-0.1-0.4-3-9.3-0.3-0.7-0.8-0.8-1-0.8-3.4-1.4-4.1-0.4-5.9-2.1-1.9-1.2-5.5-4.4-0.8-0.6-0.4-0.4-0.5-0.9-2.3-5-0.8-1.3-0.1-0.1 0-0.3-0.1-0.9 0.1-0.8 0.6-3 0.1-0.9 0.1-1.1-0.2-2.3 0.1-0.4 0.2-0.5 0.7-0.6 1.4-0.7 1.7-1.1 3-1.5 1.9-1.2 1.5-1.7-1.5-0.5-1.5 0-0.6-0.1-1.4-0.5-0.7-0.2-1.7 0-1.7 0.4-0.8 0-0.8-0.2-2.3-1-0.6-0.5-0.5-0.5-0.4-0.8-0.3-0.8-0.1-1.6 0.4-6.4 0.5-1.1 4.5-1.5 0.8-0.4 0.7-0.5 0.6-0.6 0.6-1.4 4.5-0.8 1.4-0.1 0.7 0 0.5 0.2 2.6 0.3 3.9-0.2 3.4 0.6 0.7 0 0.6-0.1 0.7-0.4 3.8-3.2 1.5-1.1 5.3-3.8 0.8-0.3 1.8-0.4 2.7-0.1 2.2 0.2 0.8 0.1 0.7 0.2 1.3 0 0.4 1.4 0.8 1.7 1 1.5 0.7 0.7 0.8 0.1 0.6 0.5 0.4 0.7 0.5 1.7 0.6 0.1 4.3-1.1 1.5 0.1 1.1 1.8 4 2.2 4.1 3.5 0.5 1.2 1.2 1 2.3 1.4 1.6 1.9 0.7 1.3 0.8 2 0.9 1 1.2 0.8 1.1 0.6 2.4 1.9 2.8 5 2.1 2.1 0.3 0.2 1 0.2 0.4 0.1 0.4 0.3 0.5 0.7 2.3 1.2 0.7 0.2 0.2 0.2 0.2 0.7-2.1 0.5-1-0.2-1.5-0.7-5-1.6-0.6-0.3-0.1-0.1-0.2-0.1-0.3 0.1-0.4 0.1-1.8 0.9-0.4 0.1-0.4 0-0.4-0.1-0.3-0.3-0.2-0.3-0.1-0.4-0.2-0.3-0.2-0.3-0.3-0.2-0.4-0.2-0.4-0.1-2 0.1-0.4 0-0.4-0.2-0.3-0.3-0.4-0.1-0.8-0.1-0.2-0.2-0.2-0.2-0.2-0.6-0.1-0.2-0.3-0.1-0.4 0-0.3 0.2-0.4 0.2-0.2 0.3-0.1 0.6 0.3 2.5 0 0.6 0.1 0.4 0.3 0.4 0.6 0.8 0.4 0.4 0.5 0.3 1.4 0.6 0.7 0.5 0.2 0.5 0.1 0.8-0.5 3.3 0.2 2.9 1.4 7.5-0.1 0.3-0.3 0.7-0.5 0.6-1.5 1.3-0.3 0.3-0.2 0.4-0.2 0.3-0.1 0.5 0 0.4 0.2 0.4 0.5 0.3 0.4 0 0.3 0 0.3-0.1 7.2-3.6 1.3-0.5 2.9-0.7 0.3 0 0.4 0.1 0.4 0.1 0.3 0.2 0.4 0.2 0.2 0.4 0.2 0.4 0.1 0.7-0.1 0.7-0.2 0.8-0.7 1.2-0.5 0.6-0.4 0.4-1 0.6-2.4 2.1-0.1 0.2-0.2 0.4 0 0.6 0.1 0.7 0.2 0.4 0.1 0.2 0.6 0.5 0.5 0.5 0.2 0.3 0.2 0.4 0.1 0.4 0.1 0.4 0.1 0.9 0.1 0.8 0.1 0.3 0 0.3-0.2 0.4-0.8 0.8-0.5 0.5-1.7 2.7-1.1 1.9-0.1 0.4-0.2 0.2 0 0.3 0 0.2 0 0.2 1.2 3.4 1 1.8 2.2 1.4 0.4 0.4 0.4 0.6 0.3 0.9 0.2 1.8 0.4 0.9 1 0.9 1.7 1.3 1.5 2.2 0.7 0.8 3.3 2.2 0.9 1 1.1 0.7 2.9 0.6 1.1 0.6 1.1 0.8 4 2.3 1.6 0.5 1.3-0.4 0.5-0.3 0.2 0.1 0.2 0.3 0.2 0.2 1.5 0 5.1-1.7 2-0.2 1.7 0.5 1.1 0.9 1.1 1.4 0.7 1.6 0.3 1.5 0.2-0.1 0.5 0.5 0.4 0.5 0.2 0.5 0.1 0.6-0.1 0.6-0.4 1.1-0.2 1.5 0.1 1.4 0.4 1.3 0.7 1.3 5.5 7.4 1.4 2.8 0.5 1.4-0.6 0.9-2.2 3.2-5.1 5.4-12.4 7-1.1 0.3-6.8 0.6-1.4 0.4-2 0.3-1.3 0.5-0.3 0.2-1.3 1-1.1 1.1-0.3 0.2-0.3 0.2-0.7 0.2-0.3 0.2-0.3 0.4 0 1.5 0.1 0.4 0.3 1.2-0.3 1.2-1.7 2.4-0.4 0.6-0.4 0.6-0.3 0.7-0.7 2.3-0.1 0.7 0.1 2.5 0.2 1.4 4.6 18.6-5 12.1-0.3 1-0.8 4.1-0.5 1.2-1.8 2.9-0.4 8.9-2.8 9.8-0.1 1.5 0 0.9 0.1 0.8 0.3 0.7 0 0.4-0.7 7.4 0.1 1.8 0.1 0.3 1.1 2.7 9.3 10.1 5.4 4.1 0 2.3 0 0.6-0.2 0.9-1.1 3-0.9 1.6-0.9 1-0.3 0.2-0.2 0.5-0.1 0.7-0.2 2-0.2 0.6-0.4 0.6-0.6 0.6-0.5 1.1-0.6 3.2 0.7 0.4 0.3 0.2 0.3 0.3 0.3 0.3 0.3 0.5 0.4 0.6 0.7 0.6 0.5 0.5 1 1.7 1.7 3.2 0.8 1.2 0.5 0.5 0.3 0.2 0.6 2.2 1.8 8.4 0.1 0.2-1.2 0-17.5 0.2-3.5-0.4-4.6-0.6-0.6 0-0.3 0.3-0.3 0.3-0.5 0.3-9.2 1-2-0.6-1.9-1.4-8.4-10-1.5-0.8-6-1.1-0.4-0.4-0.8-3.4-2-2.2-2.8-1.5-5.6-1.8-1.2 0.4-3.1 11.7-0.6 6.6-0.3 1-0.4 0.9-0.2 0.1-0.2-0.2-0.9 0.1-0.5 0.4-0.6 0.5-0.4 0.7-0.2 0.7-1.6 1.2-8.8 2.6-7.6 2.1-0.3 0.3-0.2 0.6-0.2 0.4-0.3 0.1-1.1-0.3-1.3-0.2-0.7-0.2-0.7-0.1-0.9 0.4-1.5 1.3-0.9 1.4-0.5 1.7-0.7 5.3-0.5 1.6-0.9 1-0.1 0.6 0.4 2.1-0.1 0.7-0.7 0.5-7.4 2.4-1.8 0.9-1.3 1.4-0.6 1-0.9 0.6-1 0.2-1.4-0.1-1.2 0 0.6 6.7-0.2 1.5-0.7 1.1-5 4-1.9 2.3-3.4 5.7-20.8 4.5-2.4 0.5-4.6 0.3-10.2-0.6-2.1-0.7-0.5-0.5-1.5-2.2-0.3 0-2.5-0.5-0.7-1.1-0.3-1.8 0-5.5 2.1-10.6 0-1.4-2-4-0.6-3.6-0.5-1.5-2.6-4.7-0.4-1.4 0-1.4 1.1-4.5 0-1.4-0.6-1.7-1.9-2.7-0.2-0.7 0.2-0.7 0.8-1.2 0.3-0.6-0.3-1.6-0.8-1.7-1.1-1.5-1.3-0.9-3.2-3.1-1.6-1.5-0.6-0.8-0.3-1.1-0.7-11.6-1.4-5.5-4.1-7.5-0.5-2.4 0.3-17.3-0.9-3.1-13.8-22.9-1-1-1.5-0.4-2.7 0.1-1-0.1-1.4-0.9-1.5-0.9-1.1-3-0.1-9.1 0.5-1.6 1-1.5 4.5-3.9 0.1-1.3-2-1.6-1.7-0.7-3.1-2-6.7-3.3-1.5-1.1-1.4-1.5-1.4-1.9-1-2.2-0.2-2.2 0.7-1.8 1.5-1.2 3.8-1.3-2.6-4.7-0.8-2.3 0.1-2.8 0.3-2-0.2-0.7-2.1-0.4-2-1.3-0.3-1.4 1.2-1.2 8-2.5 2.1-0.2 0.9 0.2 0.7 0.2 0.6-0.1 0.6-0.7 0.3-0.7 0.6-2.4 0-1.4 1.4-3.2 0.2-1-0.1-0.5-0.3-0.4-0.3-0.9 0-2.1-0.1-0.5-0.5-1-0.6-0.4-2.1-0.9-1.1-0.8-2.1-2.2-3.2-2.5-0.4-0.9 0.1-1.3 0.9-1.4 2.7-2.4 1.2-1.3 3.6-5.4z" id="BOP" name="Potosí">
  </path>
  <path d="M393 897.6l1.2 0-0.1-0.2-1.8-8.4-0.6-2.2-0.3-0.2-0.5-0.5-0.8-1.2-1.7-3.2-1-1.7-0.5-0.5-0.7-0.6-0.4-0.6-0.3-0.5-0.3-0.3-0.3-0.3-0.3-0.2-0.7-0.4 0.6-3.2 0.5-1.1 0.6-0.6 0.4-0.6 0.2-0.6 0.2-2 0.1-0.7 0.2-0.5 0.3-0.2 0.9-1 0.9-1.6 1.1-3 0.2-0.9 0-0.6 0-2.3 0.3-4.1 1.8-14.2-0.1-1.4 0-2.9 0.1-0.7 1.1-3.9 0.8-12.9 0.2-0.4 0.2-0.5 0.4-0.5 0.4-0.2 0.3 0 0.3 0.2 0.6 0.4 0.3 0.2 1.2 0.3 0.4 0.1 0.4-0.1 0.8-0.3 0.4-0.1 0.4 0 0.3 0.1 0.5 0.5 2.1 2.5 0.1 0.1 0.1 0 0.3 0 0.5-0.1 0.4 0 0.1 0.1 0.4 0.5 0.2 0.2 0.3 0 0.3-0.1 0.6-0.2 0.4-0.1 0.4 0.1 0.2 0.2 0.6 0.4 0.2 0.2 0.4 0.1 0.4 0.1 0.8-0.1 0.4 0 0.3 0.2 0.3 0.2 0.2 0.3 0.1 0.3 0.1 0.4 0.1 0.4 0.3 0.2 0.7 0.2 0.4 0.2 0.3 0.2 0.2 0.2 0.2 0.3 0.1 0.3 0.2 0.3 0.3 0.2 0.3 0.2 1 0.5 0.2 0.2 0.3 0.2 0.2 0.3 0.3 0.2 0.3 0 0.8-0.3 1.2-0.4 1.1-0.5 0.5-0.5 0.2-0.4 0.2-0.8 0.1-0.4 0.5-1 0.1-0.4 0-0.4 0-0.8 0.1-0.9 0.4-1.1 1-1.5 0.5-1 0.7-1 0.5-0.3 0.5-0.2 0.3 0.1 0.4 0.1 0.8 0.5 0.4 0.1 0.4 0.1 0.8 0 0.4 0.1 0.3 0.1 0.2 0.2 0.2 0.3 0.4 1.1 0.2 0.3 0.2 0.2 1.2 0.7 0.3 0.3 0.5 0.4 0.2 0.4 1.3 1.5 0.2 0.3 1.6 3.6 0.2 0.3 0.2 0.3 0.3 0.2 0.3 0.2 0.4 0.1 0.6-0.1 2.1-0.5 1.2-0.1 0.4 0 0.9 0.1 0.3 0.2 0.6 0.4 2.4 2 2.4 1.1 1.2 0.2 4-0.4 0.8 0.1 1.8 0.5 0.5 0.1 0.5-0.1 0.3-0.2 0.3-0.3 0.4-0.3 0.2-0.3 0.3-0.4 0.1-0.3 0.1-0.4 0.1-0.4 0.1-1.4-0.1-0.4-0.3-1 0-0.4 0.3-0.6 0.1-0.3 0.1-0.4 0.1-0.4 0.5-0.6 0.2-0.5 0.1-0.4 0-0.4-0.4-4.2 0.1-1.7 0.1-0.7 0.1-0.4 0.5-1.2 0.4 0.2 0.8 0.9 0.9 0.6 0.8-0.1 1-0.3 1.4 0 1.3 0.3 0.6 0.5 0.2 1.3 0.6 0.4 1.9 0 0.4-0.1 0.7-0.2 0.5 0.2-0.5 0.8-0.1 0.7 0.4 0.8 1.3 1.2 0 0.2 1.4 0 6.1 0.2 105.2 0.1-0.2 4.6-2.2 7.3-2.1 7.3-2.3 7.9-2.4 8.2-2.3 7.5-3 10.3-2.4 8-2.9 9.7-1.7 6.3-1.9 6.7-1.5 3.6-0.6-0.2-0.2-0.5 0-0.7-0.3-0.6-0.8-0.8-2.8-2.1-3.1-1.5-1-1-0.5-1.2 0-2.3-0.4-0.9 0.2-0.5 0-0.7-0.4-2.7-0.2-0.7-1-0.2-2.8-0.6-9.8 0.6-20.7-0.1-20.7-0.2-2.6 0.5-1 0.6-3.1 2.7-0.7-0.3-2.7-2.5-1.4-0.6-6.1-0.4-1.8 0.3-0.9 0.5-0.2 0.2-0.1 0.4-0.6 1.6-0.2 1.4-0.3 0.5-0.5 0.6-0.5 0.2-0.4 0.2-0.4 0.2-0.6 1.2-1 4-2 5.2-0.5 0.8-1.4 0.7-0.5 0.6-4.8 12.8-1.6 2.3-3.4 3.3-1 1.7-2.8 10.7-0.1 5.1-0.6 1.4-1.5 5.5 0.1 0.9-1.2-0.6-0.3-3.3-0.8-1 0.5-1.7-0.2-1.9-0.9-1.6-1.4-0.7-0.7-0.6-1.8-3.8-0.6-0.5-0.6-0.2-0.4-0.4-0.2-1.1 0.1-0.8 0.3-1.4 0-0.7 0.3-0.8 0.5-0.6 0.5-0.7 0.1-1.1-3.6-3.6-1-1.3-0.4-1.7-0.2-0.4-1.2-0.8-0.4-0.5 0.1-0.7 0.5-1.4-0.1-0.8-0.9-0.8-1.4-0.9-0.8-1.3 0.6-1.6 0.9-1.1 0.4-1 0-1.1-0.6-1.5-0.6-0.8-1.7-2.2-0.6-0.4-1.4-0.3-1.4-0.8-1.3-0.9-1.4-0.2-0.5-0.2-0.6 0.1-1.2 0.5-0.6 0.1-2.6-0.6-4.6-2.6-12.4-2.9-11.2 0.1z" id="BOT" name="Tarija">
  </path>
  <path d="M589.3 782.6l-0.1 0-70.7 0.3-0.7-0.2-0.5-0.2-0.5-0.9-2.1-4.9-0.8-1.4-0.9-0.7-0.6 0.3-0.4 0.5-0.8 1.2-0.4 0.5-0.9 0.7-0.3 0.2-0.6 0.2-1.3 0.3-0.6 0.1-0.6 0.4-0.4 0.6-1.2 1.6-0.4 0.5-0.3 0.2-0.6 0.1-0.7 0-2.9-0.7-4.2 0-1.5-0.2-0.8-3-2.8-28.3-0.1-0.2-0.8-1.9-0.3-0.7-2.8-48.4 0.2-4.2 1.6-11.6-0.6-1.1-4.2 0.4-1.4 0-1.7-0.6-0.8 0-0.8 0.6-0.8 1.5-0.6 5.1-0.3 0.9-0.4 0.8-0.7 0.6-0.8 0.5-1 0.2-1.2 0.1-1.2 0-1-0.4-0.6-0.5-0.4-0.8-0.1-0.8-2.7-9.6-0.4-0.6-0.5-0.1-0.4-0.1-0.5-0.1-0.8-0.8-0.5-0.8-0.6-0.6-1-0.3-1.9-0.2-1-0.2-0.8-0.4-0.5-0.8-0.2-0.9-0.1-1-0.1-0.9-1-1.6-1.3-0.8-1.4-0.8-1.3-1.1-0.5-0.8-0.5-1.9-0.3-0.9-1-1.8-0.2-0.9 0-1.2 0.2-1 0-0.9-0.2-0.8-0.7-0.9-0.7-0.7 1.2-2.1 1.7-1.9 0.2-0.6 0-0.4-0.4-1.1-0.1-0.5 0-0.7 0.1-2.8-0.1-0.5 0-0.3-0.1 0-0.2-0.3-0.2-0.2-0.3-0.2-1.5-0.8-0.6-0.5-1.1-1.1-1-0.7-0.7-0.4-1.2-0.4-0.2-0.1-0.4-0.3-0.3-0.5-0.5-0.8-0.2-0.6 0-0.5 0.1-1.1-0.2-0.4-0.8-0.7-0.1-0.3 0-0.4 0.2-0.5 0.1-0.5 0-0.7-0.2-0.5-0.4-0.3-0.8-0.6-1-1.8-0.7-2.8-1.1-1.8-1.3-1.8-0.9-1.7-0.6-0.8-0.4-0.5-0.9-0.5-0.5-0.5-1-1.1-1.2-3.4-2.2-4.2-0.9-1.3-3-3.2-0.4-0.7-0.3-1.3 0.5-1.9 0.9-1.2 1.5-1.2 5.4-5.5 1.4-1.6 10.4-15.6 0.3-0.7 0.1-0.7-0.1-1.5 0.1-0.7 0.2-0.8 0.5-0.5 2.5-1.7 0.8-0.3 0.6 0 1.3 0.1 0.6 0 1.4-0.4 0.6 0 0.8 0.2 1.2-0.1 1-0.1 0.5-1.3 0.4-1.3-0.3-1.3-0.6-1.1-0.6-1.7-0.3-0.6-0.4-0.4-3-2.5-5.6-6.5-2.2-1.7-0.6-0.3-1.8-0.6-3.8-2.3-1-0.8-4.2-4.4-0.6-0.5-0.7-0.3-1.4-0.5-1.6-0.9-6.2-6.7-1-1.6-1.4-5.5-0.1-1.3-0.2-0.7-0.4-0.6-1-1.2-0.3-0.7 0.1-0.8 0.8-1.3 0.3-1.6 2.4-3.9 0.2-0.5-0.2-0.7-0.5-0.3-0.6-0.2-0.5-0.5-0.3-1 0.2-1.1 0.4-1.1 0.6-1 0.6-0.7 1.5-1 0.6-0.7 0.4-1.9 0-0.2 0.1-0.1 2.1-4.8 0.1-1-0.2-0.7-0.6-0.8-0.1-0.6 0.1-0.6 1.2-2-1.6-0.1 0.2-0.8 1.4-1.9 0.2-1.3-0.2-1.2 0-1.3 0.5-1.3-0.6-1.5 0.3-1.3 0.5-1.1 0.3-1.1-0.3-1-1.3-1.8-0.3-1.4 0-2.4 0.1-0.4 0.3-0.4 0.1-0.4 0-0.9-0.4-1.4-0.8-1.3-0.9-1.1-1.1-0.9 0.9-0.6 0.9-0.1 0.9 0.3 0.9 0.4 0.1-1.1-0.4-0.8-1.5-1.3 1.8-0.1 0.8-0.1 0.4-1.5 86.7 4.6 1.4-0.1 0.2-0.2-0.7-0.3-0.7-0.3-2.3-0.6-0.8-0.3-0.6-0.5-1.7-1.9-0.6-0.9-0.4-1.3-0.2-1.1 0-1.6-0.2-0.7-0.3-0.7-1.4-1.8-0.8-1.6-0.7-0.9-0.6-0.6-0.4-0.3-2.2-1-0.7-0.4-2-1.7-0.6-0.4-0.8 0-0.7-0.2-0.8-0.5-3.1-3.2-0.4-0.9-0.4-3.3-0.3-0.9-0.9-1.1-0.8-0.6-1.7-0.6-0.6-0.4-0.6-0.7-7-10.8-2.4-6.8-2.1-3.3-0.4-1.1-0.8-3.3 0.4-1.6 0.4-1 0.2-1.3 0.1-1.9-0.4-3.5 0-7.9-1.5-6.5 3.1-1.4 22.7-6.7 36.7-21.3 58.3-33.7 35.2-20.4 0.3 0 1.8 1.7 0.7 0.4 3.1 0.7 3-0.3 2.8-1.1 4.5-2.3 1 0 1 0.5 2.4 0.4 1.3 0.8 0.8 0.3 0.7 0 1.5-0.4 4.4 0.1 0.6-0.4 0.4-1.3 1-0.7 2.8-0.4 0.2-0.2 0.8-0.5 0.9-0.2 0.4 0.7 0 2.7 1.2 1.4 2.9 0.5 3.2 0.2 2.2 0.5 1.2 1.2 0.5 0.3 4.5 1.9 5 4 4.8 3.8 2.3 1.2 1.5 0.4 0.5 0.2 0.2 0.3 0.4 0.8 0.2 0.3 0.6 0.3 5 1.2 1.2 0.7 0.5 1.2 0.1 1.9 0.4 1.8 0.6 1.8 0.6 1.4 0.6 0.6 1.4 1.2 0.1 0.4-0.3 0.7 0.4 0.4 0.7 0.3 0.4 0.3 0.1 0.6 0 0.4-0.6 1.3-0.8 3.1-0.7 1.5-1.2 1-1.6 0.5-0.4 0.3-0.4 0.9-0.2 1.6-0.1 1.5 0.2 0.9 0.9 1.6 0 1.7-0.2 1.8 0 1.9 0.7 1.2 3.6 3 0.5 1.1 1 4.3 2.2 4.8 0.3 2.9-2 0.7 1.1 2.2 3.2 2.2 0.8 1.5 0.2 4.1 0.3 5.6 0.2 5.6 0.3 5.6 0.2 5.6 0.3 4.4-0.4 0.8-7.5 0.1-12.7 0.1 3.5 3.1 4.5 5.5 7.1 8.6 6.1 7.2 0.9 1.5 0.5 1.7 0.9 10.2 1.2 13.8 0.9 10.1 0.4 7.4 0.5 7.7 1.2 3 2.1 0.6 4.5 0.1 12.6 0.5 12.5 0.4 12.6 0.5 12.5 0.4 12.5 0.5 12.6 0.5 12.5 0.4 12.6 0.5 4.7 0.1 1.5-0.1 1.3-0.7 0.5-0.7 1-1.7 0.4-0.3 2.9 0.1 0.7 0.6 0.3 6.6-0.3 1-1.5 1.3-0.1 1.2 1.3 2.5-0.8 2.5-6.6 7.5-1.1 2.1-0.5 2.3 0.2 3 1.4 5.2 0.2 2.7-0.2 0.5-0.5 1.2-0.2 0.6 0 0.9 0.7 3.4 1.1 2.1 0.4 1.2 0.4 4.8 0.3 1.1 0.7 1.2 0.4 1.5 0.1 6.2 0.3 2.6 1.2 2 2.5 1.4 2.1 0.3 0.6 0.2 0.7 0.4 1.1 1 0.7 0.4 0.5 0.1 1.1 0.2 0.6 0.3 0.7 1 1.1 2.3 1 0.8 0.9 0.2 0.8 0.1 0.7 0.2 0.8 0.6 1.8 2 0.8 0.5 2.3 1 0.8 0.5 2.8 2.4 1.9 0.8 2.5 0.6 2.5 0.2 1.9-0.6 1.5-0.2 1.2 0.1 1.4 0.6 0.9 1 0.7 1.5 0.2 1.7-0.1 1.7 0.1 1.1 0 2.7 0.1 1.2 0.5 1.3 0.7 0.9 0.9 0.8 0.9 0.7 1.1 0.4-0.6 2.2 0.2 0.8 1.2 1.5 1 1.7-0.2 1.2-2 0.2 6.1 10.7 3.4 8.5 2.3 4.2 2.6 1.5 1.3 0 1.1 0.2 0.6 0.6-0.1 1.6-4.5 0-1.2 0.3-0.9 0.8-1 3.4-3.1 9.9-3.1 9.9-3.1 10-3.1 9.9-0.8 2.4 2.7 0.2 0.7 0.6 0.3 1.3 0.3 4.2 0.4 3-3.7 0.3-1.1 0.7-1.5 3.2-2.1 4.3-4.5 9.5-4.5 9.5-2 4.3-0.8 1.8-1.8 3.8-1.8 3.8-0.8 1.7-2.3 4.9 0.5 2 5 4.6 5.3 4.9 6.6 6.1-0.6 0.9-0.8 1.1-0.9 1-1.5 0.7-1.6-0.4-1.1-0.1-0.5 0.3-0.1 0.6-0.5 0.6-0.6 0.4-0.8 0.1-1.7 0.7-2 3-1.7 0.7-0.5 0.2-0.8 1.2-0.3 0.4-0.8 0.5-2.8 1-0.1-1.8 1-3.7 0.1-1.5-0.1-2.9 0.2-1.6-0.2-2.2-1.2-4-0.1-2.2 0.2-2.4-0.2-1-0.7-0.8-2.6-1.6-6.2-3.8-6.1-3.8-6.1-3.9-6.2-3.8-6.1-3.8-6.2-3.8-6.1-3.9-6.1-3.8-3.4-2-1.8-1.4-2-1.4-1.3-0.3-5.4 0-12.4 0.2-12.4 0.2-12.4 0.1-12.4 0.2-5.4 0.1-9.9 2.1-22.3 4.9-22.3 4.8-22.3 4.9-22.3 4.8-1.4 0.3-3.1 0.4-3.1 0.5-1.4 0.2-5.9 0.9-1 0.5-0.6 0.8-1.2 3.4-1.8 5.2-1.9 5.1-1.8 5.2-1.9 5.1-0.9 1.8-0.8 1.8-0.4 0.9-0.5 0.9-0.8 1.8-1.1 1.7-1.1 1.7-1.1 1.7-1.1 1.6-2.9 4.3-3 4.3-2.9 4.3-3 4.2-1.3 2z" id="BOS" name="Santa Cruz">
  </path>
  <path d="M390.1 857.7l-5.4-4.1-9.3-10.1-1.1-2.7-0.1-0.3-0.1-1.8 0.7-7.4 0-0.4-0.3-0.7-0.1-0.8 0-0.9 0.1-1.5 2.8-9.8 0.4-8.9 1.8-2.9 0.5-1.2 0.8-4.1 0.3-1 5-12.1-4.6-18.6-0.2-1.4-0.1-2.5 0.1-0.7 0.7-2.3 0.3-0.7 0.4-0.6 0.4-0.6 1.7-2.4 0.3-1.2-0.3-1.2-0.1-0.4 0-1.5 0.3-0.4 0.3-0.2 0.7-0.2 0.3-0.2 0.3-0.2 1.1-1.1 1.3-1 0.3-0.2 1.3-0.5 2-0.3 1.4-0.4 6.8-0.6 1.1-0.3 12.4-7 5.1-5.4 2.2-3.2 0.6-0.9-0.5-1.4-1.4-2.8-5.5-7.4-0.7-1.3-0.4-1.3-0.1-1.4 0.2-1.5 0.4-1.1 0.1-0.6-0.1-0.6-0.2-0.5-0.4-0.5-0.5-0.5-0.2 0.1-0.3-1.5-0.7-1.6-1.1-1.4-1.1-0.9-1.7-0.5-2 0.2-5.1 1.7-1.5 0-0.2-0.2-0.2-0.3-0.2-0.1-0.5 0.3-1.3 0.4-1.6-0.5-4-2.3-1.1-0.8-1.1-0.6-2.9-0.6-1.1-0.7-0.9-1-3.3-2.2-0.7-0.8-1.5-2.2-1.7-1.3-1-0.9-0.4-0.9-0.2-1.8-0.3-0.9-0.4-0.6-0.4-0.4-2.2-1.4-1-1.8-1.2-3.4 0-0.2 0-0.2 0-0.3 0.2-0.2 0.1-0.4 1.1-1.9 1.7-2.7 0.5-0.5 0.8-0.8 0.2-0.4 0-0.3-0.1-0.3-0.1-0.8-0.1-0.9-0.1-0.4-0.1-0.4-0.2-0.4-0.2-0.3-0.5-0.5-0.6-0.5-0.1-0.2-0.2-0.4-0.1-0.7 0-0.6 0.2-0.4 0.1-0.2 2.4-2.1 1-0.6 0.4-0.4 0.5-0.6 0.7-1.2 0.2-0.8 0.1-0.7-0.1-0.7-0.2-0.4-0.2-0.4-0.4-0.2-0.3-0.2-0.4-0.1-0.4-0.1-0.3 0-2.9 0.7-1.3 0.5-7.2 3.6-0.3 0.1-0.3 0-0.4 0-0.5-0.3-0.2-0.4 0-0.4 0.1-0.5 0.2-0.3 0.2-0.4 0.3-0.3 1.5-1.3 0.5-0.6 0.3-0.7 0.1-0.3-1.4-7.5-0.2-2.9 0.5-3.3-0.1-0.8-0.2-0.5-0.7-0.5-1.4-0.6-0.5-0.3-0.4-0.4-0.6-0.8-0.3-0.4-0.1-0.4 0-0.6-0.3-2.5 0.1-0.6 0.2-0.3 0.4-0.2 0.3-0.2 0.4 0 0.3 0.1 0.1 0.2 0.2 0.6 0.2 0.2 0.2 0.2 0.8 0.1 0.4 0.1 0.3 0.3 0.4 0.2 0.4 0 2-0.1 0.4 0.1 0.4 0.2 0.3 0.2 0.2 0.3 0.2 0.3 0.1 0.4 0.2 0.3 0.3 0.3 0.4 0.1 0.4 0 0.4-0.1 1.8-0.9 0.4-0.1 0.3-0.1 0.2 0.1 0.1 0.1 0.6 0.3 5 1.6 1.5 0.7 1 0.2 2.1-0.5 0.2 0.7 0 0.5 0.3 0.8 0.6 0 0.7-0.2 0.7 0.2 0.4 2.3 0.5 0.7 0.6 0.8 0.7 0.6 0.8 0.3 0.7 0.7 0.2 1.7 0 1.9 0.2 1.4 0.8 1 1.2 0.2 2.5-0.5 1.2 0.1 1.2 0.6 3 2 0.9 0.3 0.9 0 0.8-0.8 0.4-0.9 0.4-2 0.5-1 0.6-0.8 1.6-1.4 2.4-1.7 3.6-1.7 4.7-1.4 1.5-0.1 1.2 0.3 0.5 0.5 0.8 1.2 0.4 0.5 1.3 0.5 3.2 0 1.2 0.8 0.8 1.5 0.6 0.7 0.8 0.2 0.1 0.3 0.9 2.1 0.6 0.6 1.3 1 0.5 0.6 1.1 1.4 0.6 0.4 0.9 0.1 3.3 0 1.1-0.1 0.8-0.3 4.5-3.7 1.5-0.5 1.4 0.5 0.3 0.5 0.6 1.7 0.4 0.5 0.6 0.6 0.7 0.7 0.7 0.9 0.2 0.8 0 0.9-0.2 1 0 1.2 0.2 0.9 1 1.8 0.3 0.9 0.5 1.9 0.5 0.8 1.3 1.1 1.4 0.8 1.3 0.8 1 1.6 0.1 0.9 0.1 1 0.2 0.9 0.5 0.8 0.8 0.4 1 0.2 1.9 0.2 1 0.3 0.6 0.6 0.5 0.8 0.8 0.8 0.5 0.1 0.4 0.1 0.5 0.1 0.4 0.6 2.7 9.6 0.1 0.8 0.4 0.8 0.6 0.5 1 0.4 1.2 0 1.2-0.1 1-0.2 0.8-0.5 0.7-0.6 0.4-0.8 0.3-0.9 0.6-5.1 0.8-1.5 0.8-0.6 0.8 0 1.7 0.6 1.4 0 4.2-0.4 0.6 1.1-1.6 11.6-0.2 4.2 2.8 48.4 0.3 0.7 0.8 1.9 0.1 0.2 2.8 28.3 0.8 3 1.5 0.2 4.2 0 2.9 0.7 0.7 0 0.6-0.1 0.3-0.2 0.4-0.5 1.2-1.6 0.4-0.6 0.6-0.4 0.6-0.1 1.3-0.3 0.6-0.2 0.3-0.2 0.9-0.7 0.4-0.5 0.8-1.2 0.4-0.5 0.6-0.3 0.9 0.7 0.8 1.4 2.1 4.9 0.5 0.9 0.5 0.2 0.7 0.2 70.7-0.3 0.1 0-1.5 2.1-2.4 3.7-0.5 1.8 0 6.4 0.1 6.2 0.1 6.8 0.1 10.3-105.2-0.1-6.1-0.2-1.4 0 0-0.2-1.3-1.2-0.4-0.8 0.1-0.7 0.5-0.8-0.5-0.2-0.7 0.2-0.4 0.1-1.9 0-0.6-0.4-0.2-1.3-0.6-0.5-1.3-0.3-1.4 0-1 0.3-0.8 0.1-0.9-0.6-0.8-0.9-0.4-0.2-0.5 1.2-0.1 0.4-0.1 0.7-0.1 1.7 0.4 4.2 0 0.4-0.1 0.4-0.2 0.5-0.5 0.6-0.1 0.4-0.1 0.4-0.1 0.3-0.3 0.6 0 0.4 0.3 1 0.1 0.4-0.1 1.4-0.1 0.4-0.1 0.4-0.1 0.3-0.3 0.4-0.2 0.3-0.4 0.3-0.3 0.3-0.3 0.2-0.5 0.1-0.5-0.1-1.8-0.5-0.8-0.1-4 0.4-1.2-0.2-2.4-1.1-2.4-2-0.6-0.4-0.3-0.2-0.9-0.1-0.4 0-1.2 0.1-2.1 0.5-0.6 0.1-0.4-0.1-0.3-0.2-0.3-0.2-0.2-0.3-0.2-0.3-1.6-3.6-0.2-0.3-1.3-1.5-0.2-0.4-0.5-0.4-0.3-0.3-1.2-0.7-0.2-0.2-0.2-0.3-0.4-1.1-0.2-0.3-0.2-0.2-0.3-0.1-0.4-0.1-0.8 0-0.4-0.1-0.4-0.1-0.8-0.5-0.4-0.1-0.3-0.1-0.5 0.2-0.5 0.3-0.7 1-0.5 1-1 1.5-0.4 1.1-0.1 0.9 0 0.8 0 0.4-0.1 0.4-0.5 1-0.1 0.4-0.2 0.8-0.2 0.4-0.5 0.5-1.1 0.5-1.2 0.4-0.8 0.3-0.3 0-0.3-0.2-0.2-0.3-0.3-0.2-0.2-0.2-1-0.5-0.3-0.2-0.3-0.2-0.2-0.3-0.1-0.3-0.2-0.3-0.2-0.2-0.3-0.2-0.4-0.2-0.7-0.2-0.3-0.2-0.1-0.4-0.1-0.4-0.1-0.3-0.2-0.3-0.3-0.2-0.3-0.2-0.4 0-0.8 0.1-0.4-0.1-0.4-0.1-0.2-0.2-0.6-0.4-0.2-0.2-0.4-0.1-0.4 0.1-0.6 0.2-0.3 0.1-0.3 0-0.2-0.2-0.4-0.5-0.1-0.1-0.4 0-0.5 0.1-0.3 0-0.1 0-0.1-0.1-2.1-2.5-0.5-0.5-0.3-0.1-0.4 0-0.4 0.1-0.8 0.3-0.4 0.1-0.4-0.1-1.2-0.3-0.3-0.2-0.6-0.4-0.3-0.2-0.3 0-0.4 0.2-0.4 0.5-0.2 0.5-0.2 0.4-0.8 12.9-1.1 3.9-0.1 0.7 0 2.9 0.1 1.4-1.8 14.2-0.3 4.1z" id="BOH" name="Chuquisaca">
  </path>
  <path d="M278.6 226.8l-67.6-31.9-1.2-0.3 0 0.4-0.5 1.7-1 1.5-1.1 0.8-1.6 0.6-1.6 0.3-1.4-0.1-1.8 0.9-4.9 0.7-2 1-1.1 1.8-0.5 4.9-0.5 2.3-1.7 1.8-7.8 4.1-1.4 2.1-3 7.7-1.3 2-0.8 0.5-1.3 0.2-1.1-0.4-1-0.7-1.1-0.6-1.6 0.3-0.7 1-1.3 3.6-0.3 0.2-0.8 0.9-0.4 0.3-0.7 0.1-2.1-0.1-0.8-0.1-1.6-2.9-6.9-12.2-6.8-12.2-6.9-12.2-6.9-12.2-6.8-12.2-6.9-12.2-6.9-12.1-6.9-12.2-0.2-0.4-0.2-0.4-0.3-0.4-0.2-0.4-0.2-0.4-0.3-0.5-0.2-0.4-0.2-0.4 4.9 0.2 2.6-0.2 4.4-1.1 2.2 0.3 2.2 0.6 2.4 0.4 3.7-0.1 5.2 0.6 2.4 0.5 2.3-0.2 1 0.2 4.9 2.1 0.3 0.1 0.6 0 0.3-0.1 1.5 0 3.1 0.8 1.6 0.2 1.7-0.4 1.8-0.7 1.8-0.3 1.9 0.6 1.2 0.5-1.1 1.6-0.8 1.6-0.4 1.7 0.3 2.8 0.2 0.6 0.5 0.4 1.2 0 9.4-1.9 1.8-1 3.4-2.4 2.9-1 1.1-0.2 1.1 0 1.1 0.2 0.9-0.2 2.1-2 1.2-0.6 3.1-0.3 1.2-0.5 1.3-1 1.3-1.3 1.1-1.4 0.9-1.4 1.7-4 0.9-1.3 3.7-4 2.4-4.3 0.9-1.1 1.5-1.1 2.1-1 1.1-0.4 1.1-0.1 1.8 0.3 7.9-0.4 1 0.2 0.9 0.3 1.3 0.7 2.6 2 1.2 0.6 2.3-0.6 1.1-2 0.6-2.4 0.7-2 0.7-0.7 2-1.7 0.8-1 1.3-2.1 0.8-0.9 1-0.9 1.3-0.4 2.3-1.1 2.7-0.9 1.4-0.9 1.1-1.1 0.9-1.2 0.3-0.8 0-0.5 0.2-0.5 0.7-0.6 0.6-0.2 3-0.1 0.7-0.1 0.7-0.2 0.5-0.4 0.1-0.7-0.4-1.4 0.1-0.6 1-0.5 1.5-0.3 2.7-0.1 1.2 0.2 2.6 0.7 1.1 0 0.8-0.5 0.5-0.7 0.4-0.8 0.5-0.5 0.7-0.2 1.3-0.1 0.7-0.1 3.1-1.8 10.6-10.9 8.7-6.7 1.2-0.7 5.4-2.1 0.7-0.4 0.3-0.5 0.2-0.8 0.2-0.7 0.4-0.5 0.7-0.2 7.8-1.4 4 0.3 1.3-0.2 1.3-0.4 2.8-1.6 1-0.4 6.5-1 1.2-0.4 2-1.4 1.2-0.5 3.6-0.3 0.3 0.1 0.2 0.3 0.3 0.2 0.4 0.1 0.3-0.3 0.4-0.8 0.3-0.2 1-0.2 0.4 0.1 0.8 0.3 1.7 1 0.9 0.2 1.2-0.2 3-1.9 1.2-0.3 1.2-0.1 0.9 0.1 2.7 0.6 0.8 0.1 0.8-0.5 1.1-1.1 0.1 0.5 0.3 0.5 0.3 0.6 0.4 0.2 0.7-0.1 0.2-0.6-0.1-0.7 0.1-0.5 0.6-1.3 0.4-0.3 0.4 0.9 0.1 0.6 0.2 0.5 0.3 0.4 0.6 0.2 2.5-1 1-0.1-0.2 1.6-0.3 0.8 0.3 0.2 0.6-0.1 0.5 0.1 0.2 0 0.7-0.3 0.3 0 0.4 0.2 0.6 0.7 0.3 0.3 2 1.3 0.9 0.5 1.2 0.2 0.8 0 0.3-0.3 0.2-0.5 0.3-0.5 0.1-0.2 0.1-0.6 0.1-0.3 0.3-0.2 0.8-0.1 0.3-0.1 0.7-0.9 0.7-1 0.2-0.6 0.3-1 0.4-0.6 3-2.5 0.9-1 0.6-0.1 1.8 0 1.2 0.4 1.8 1.6 0.9 2.1 0.2 0.2 0.9 3 0.6 0.7 0.9 0.8 0.8 0.9 0.4 1-0.3 1.6-1.4 2.7-0.6 1.5-0.2 2.7 0.3 2.7 0.5 2.6 1.3 3.4 0.2 1.5 0.2 2.9 0.1 0.6 0.7 1.6 0.1 0.7-0.2 0.6-1.1 1.8-0.7 3.2-0.8 1.6-2.5 1.2-0.9 1.3-0.7 1.5-0.3 1.2-0.1 0-3.4 0.6-1.1 0.3-0.9 0.8-1.2 1.2-1 1.5-0.5 1.3-0.5 0.6-5.7 2.8-1.3 0.9-1.3 1.3-1.4 0.7-1.4-0.2-1.4-0.5-1.4-0.3-1.6 0.5-0.1 1.1 0.4 1.3 0.3 1.5 0.1 1.7-0.1 1.3-0.6 1.1-1.6 1.2-2.8 1.1-1.8 0.4-0.8-0.4-0.3-0.6-0.8-1-0.9-0.9-0.7-0.4-0.8 0.5-0.9 1.3-0.5 1.2 0.6 0.6 1.3 0.3 1 1 0.8 1.2 0.3 1.2-0.9 1.9-2.3-0.1-2.8-1-2.5-0.4-1.5 0.6-2.8 2.2-2.1 0.6 0 0.5 0.4 0.4 0.5 0.3 0.7 0 1.3-0.6 0.7 0.2 0.5 1-0.5 1.4-0.8 1.5-0.8 2.7-0.8 1.3-1.1 0.6-1-0.7-0.6 0.9-0.7 2 0 2.4-0.4 2.2-1.5 1.4-1.1-0.1-1.2-0.4-0.8 0.3-0.2 1.6 0.6 2.4 0 1.1-0.5 1.3-2.4 3-0.6 1.1-0.2 1.5 0.5 0.9 0.7 0.6 0.4 0.9-0.7 1.3-3.6 0.8-0.2 1.4-0.3 1.4-2.1 0.5-4.5 0.5-3.6 2.2-1.7 0.6-4.5-0.5-6 0.4-1.5 0.6-0.6 1.3-0.1 1.7 0.2 1.6-0.3 1.3-1.5 1.8-0.4 1.3 0.4 3.3-0.1 1.5-0.9 1.3-1.1 0.5-2.2 0-1.1 0.3-1 0.8-0.7 1.2-0.9 0.8-1.2 0.1-1.2-0.2-1.3 0.1-0.9 0.5 0 1.3 0.8 1.1 0.8 0.7 0.3 1-0.8 1.5-0.8 0.9-1.1 0.7-1.2 0.3-1.2-0.1-1.1 0.3-0.2 1.3 0.3 1.7 0.5 1.1 0.5 0.2 0.4-0.2 0.4-0.2 0.2-0.1 0.4 0.4 1 1.1 1.4 2.5 0.9 3.3 0.4 3.4-0.3 2.8-1 3.1-0.1 1.4 0.4 1.7 0.2 1.6-0.7 1.5-0.8 1.5-0.5 1.5 0.2 1.3 0.5 1.1 0.2 1.1-0.5 1.3-1 1.5z" id="BON" name="Pando">
  </path>
  <path d="M288.1 452l-2.7-2.8-13.2-12.5-1.4-2.4-0.6-0.6-0.4-0.3-1.4-0.6-0.9-0.6-0.7-0.7-0.5-0.8-0.2-0.7-0.1-0.7 0-0.7 0.5-2.9 0-0.8-0.2-0.9-4.2-8.5-1.8-2.7-1.6-1.8-0.8-0.9-0.6-0.9-1.2-2.5-0.7-0.9-0.8-0.6-0.8-0.1-0.8 0-1.5 0.2-0.9-0.1-0.7-0.2-0.6-0.4-1-0.7-0.9-0.6-1-1.2-0.8-2.5-0.2-1.4-0.1-1.1 0.2-1.4 0.3-1.4 0.3-2.6 0-2.8-0.4-1.5-0.5-1-3.2-3-1.3-1.8-1.8-4.2-0.3-0.5 0.2-0.5 0.3-0.7 0.5-0.6 1.1-0.9 0.4-0.6 0.6-1.3 0.1-1.4-0.4-1.3-0.8-1.2-1.5-1.4-0.3-0.7 0-0.4 0-0.9-0.1-0.4-0.2-0.2-0.4-0.4-0.2-0.3-0.9-2.4-0.4-1.4-0.1-1.3 0.2-1.2 0.8-0.7 2.1-0.9 0.8-1 0.3-1.1-0.1-1.1-0.6-2.2 0.2-4.1-0.7-5.3 0-0.8-0.9-3 0-1.1 1.8-8.1 0.5-1 0.6-0.8 0.6-1.1 0.2-1.3-0.9-1.8 0-1.3 0.8-2.8 0.6-1.3 0.9-0.9 1-0.7 0.8-0.9 1.3-2.1 2.8-3.6 0.5-1.1 0-1.3-1.1-1.8-1.1-6.2-0.1-2.3 1.1-2.3 2.8-4.3 1-1.2 2.3-1.8 5.3-6.3 0.3-0.6 0.3-1.4 0.3-0.6 0.5-0.4 1.2-0.7 0.5-0.4 2.6-4.7 1.1-1.1 1.3-0.2 1.1 0.1 0.9-0.3 3.2-7.7 3.7-15.6 0.1-1.7-0.3-1.4-1-2.9 1.7-2.4 0.8-1.4 0.1-1.1-0.5-1-0.2-0.9-0.1-4.1 0.2-1.3 0.5-1.2 1-1.5 0.5-1.3-0.2-1.1-0.5-1.1-0.2-1.3 0.5-1.5 0.8-1.5 0.7-1.5-0.2-1.6-0.4-1.7 0.1-1.4 1-3.1 0.3-2.8-0.4-3.4-0.9-3.3-1.4-2.5-1-1.1-0.4-0.4-0.2 0.1-0.4 0.2-0.4 0.2-0.5-0.2-0.5-1.1-0.3-1.7 0.2-1.3 1.1-0.3 1.2 0.1 1.2-0.3 1.1-0.7 0.8-0.9 0.8-1.5-0.3-1-0.8-0.7-0.8-1.1 0-1.3 0.9-0.5 1.3-0.1 1.2 0.2 1.2-0.1 0.9-0.8 0.7-1.2 1-0.8 1.1-0.3 2.2 0 1.1-0.5 0.9-1.3 0.1-1.5-0.4-3.3 0.4-1.3 1.5-1.8 0.3-1.3-0.2-1.6 0.1-1.7 0.6-1.3 1.5-0.6 6-0.4 4.5 0.5 1.7-0.6 3.6-2.2 4.5-0.5 2.1-0.5 0.3-1.4 0.2-1.4 3.6-0.8 0.7-1.3-0.4-0.9-0.7-0.6-0.5-0.9 0.2-1.5 0.6-1.1 2.4-3 0.5-1.3 0-1.1-0.6-2.4 0.2-1.6 0.8-0.3 1.2 0.4 1.1 0.1 1.5-1.4 0.4-2.2 0-2.4 0.7-2 0.6-0.9 1 0.7 1.1-0.6 0.8-1.3 0.8-2.7 0.8-1.5 0.5-1.4-0.5-1-0.7-0.2-1.3 0.6-0.7 0-0.5-0.3-0.4-0.4 0-0.5 2.1-0.6 2.8-2.2 1.5-0.6 2.5 0.4 2.8 1 2.3 0.1 0.9-1.9-0.3-1.2-0.8-1.2-1-1-1.3-0.3-0.6-0.6 0.5-1.2 0.9-1.3 0.8-0.5 0.7 0.4 0.9 0.9 0.8 1 0.3 0.6 0.8 0.4 1.8-0.4 2.8-1.1 1.6-1.2 0.6-1.1 0.1-1.3-0.1-1.7-0.3-1.5-0.4-1.3 0.1-1.1 1.6-0.5 1.4 0.3 1.4 0.5 1.4 0.2 1.4-0.7 1.3-1.3 1.3-0.9 5.7-2.8 0.5-0.6 0.5-1.3 1-1.5 1.2-1.2 0.9-0.8 1.1-0.3 3.4-0.6 0.1 0 0.1 0.5 0.1 0.2 0.3 0.3-1.6 2.8-0.9 0.9-1.6 0.4 0 0.4 0.7 1.2 0.2 0.5-0.1 0.3-0.3 0.6-0.1 0.4 0.1 0.6 0.2 0.7 0.2 0.6 0.2 0.2 0.2 0.7-0.4 3.3 0 1 1.1 1.3 1.2 0.7 0.9 1 0.4 1.9-0.1 1.2-0.5 2.5-1 3.1 0.4 0.8 2.6 0.7 1.1 0.8 1 1.1 0.6 1 0.4 5.7 0.2 0.4 0.3 0.4 0.4 0.5 0 0.8-0.3 0.6-0.4 0.4-0.5 0.4-0.6 0.4-1 1.6-0.1 1.2 0.4 1.2 0.2 1.4-0.5 1.2-2.5 2-1 1.1-0.2 1.7 0.8 1 1.1 0.8 0.6 0.9-0.4 1-0.9 0.6-0.6 0.7 0.1 1.6 0.8 1.3 1.4 1 1.2 0.7 0.6 0.4-0.3 0.9-1.1 1.3-0.4 0.8-0.1 0.7 0.1 0.5 2.2 5.8 1.8 1.9 2.3-0.6 1.6 0.9 0.7 0.6 0.5 0.8 0 0.7-0.5 1.2 0 0.9 0.2 0.9 0.4 0.2 0.4 0 0.8 0.3 1.4 1 0.5 0.6-1.6 0.5-0.2 0.6 0.3 1.6-0.1 0.7-0.6 1-0.1 0.7 0 2.4 0.4 0.9 0.9 1 1.2 0.9 0.8 0.3 0.5-0.7 0.4-3.2 0.3-0.9 0.4-0.5 0.9-0.3 0.2 0.6-0.2 1.6 0.9 0.9 1.2 0.5 1.1 0.6 0.6 2.2 0.8 1.5 0.3 0.7 0.1 0.7-0.1 1.3 0 0.7 0.4 1.4 0.3 0.6 0.7 0.4 0.2 0 0.7 0.3 0.4 0.7 0.1 0.8-0.3 0.7-0.9 1.3-0.1 1.2 0.5 1.1 0.7 0.8 1 0.5 1 0.3 2.8 0.1 1.4 0.3 1.4 0.5 1.4 0.2 1.4-0.6 0.8 0.4 1.2 0.3 1.1 0.4 0.5 1 0.3 1.4 0.8 1.2 2.1 2.3-0.5 0.9 0.3 0.8 0.8 0.3 0.8-0.2 0.1-0.6 0.3-1.7 0.2-0.4 1.1-0.2 0.2 0.4 0.3 1.1 0 0.6-0.4 0.8 0 0.5 0.2 0.3 0.5 0.6 0.2 0.2 0.6 0.7 1.6 1 3.2 1.4 0.8 0.1 1.7 0 0.4 0.1 1.1 0.9 1.3 0.7 0.1-0.2 0-0.2 0.1-0.1 1 0.1 0.3 0.1 1.1 1 0.2 0.5 0.1 0.8-0.1 1.5-0.3 1.4-1.2 2.7 0.2 1.2 0.4 0.3 1.4 0.5 0.6 0.3 0.6 0.7 0.8 1.4 0.5 0.7 0.8 0.9 1.1 0.8 1.2 0.6 1.6 0.2 2.6-0.5 1 0.3 0.7 2.1 0.6 0.2 0.6-0.2 0.4-0.1 0.4-0.3 0.7-0.8 0.7-0.2 1.4-0.2 1.1 0.4 1 0.6 1.8 2 0.7 0.2 0.7-0.7 0.9-1.4 1 1.2 4 0.1 1.4 2 1.3-0.2 2-0.8 0.9 0.3 0.6 0.6 0.7 0.5 1.2 0 0.8-0.7 0.4-0.6 0.4-0.6 2.2-2.8 0.1-0.4 1.1-0.1 2-0.7 0.9-0.1 9.5 1.4 0.2 0.1 3.5 1.9 2.8 2.3 1.1 0.5 1.4 0.3 0.9 0 0.7 0.1 0.7 0.3 0.6 0.5 0.5 0.7 0.1 0.7 0.1 0.6 0.2 0.7 0.6 0.5 0.5 0.2 0.5 0.2 0.2 0.8 0.3 0.4 2.5 1.9 1.4 0.4 0.8 0.3 1.9 1.5 0.8 0.3 4.7 0 0.7-0.2 0.3-0.5 0.6-0.6 1.4-1 0.3 0 0.8 0.1 0.3-0.1 0.3-0.3 0.3-0.7 0.3-0.3 1.8-0.8 0.2-0.2 0.7 0.2 1.3 0.6 2 0.5 0.7 0.9 0.5 2.4 0.2 0.5 0.5 0.3 0.2 0.4-0.5 0.8-0.1 0.4 0.1 0.4 0.2 0.3 1.5 1.2 0.7 0.9 0.3 0.6 0.2 1.5 0.5 1.3 0.8 1 0.8 0.6 0.7 0.3 0.6 0 0.6-0.1 0.6-0.4 0.6-0.2 0.3 0.4 0.2 0.7 3.5 4.5 0.2 0.4 0.3 0.3 0.7 0.2 0.7 0 0.5 0.1 0.3 0.4 0.1 0.6 0.3 1.1 0.9 0.9 1.1 0.8 1.3 0.7 0.1-1.4 0.7-0.3 1.1 0 1.3-0.2 0.8-0.5 0.7-0.6 0.8-0.1 1.3 0.8 0.6 0.5 0.4 0.6 0.3 0.6 0.1 1.6 0.3 0.3 5.7 2.5 4.1-0.1 1.3 0.2 0.9 0.6 1.8 2.2 0.2 0.3 0.1 0.7 0.2 0.1 0.9 0 0.2 0 1.2 0.7 0.5 0.2 3.1 0.4 0.8-0.1 0.8-0.7 1.3 0.6 1.1-0.3 1-0.5 2.4-0.6 0.7-0.1 0.7 0.2 1.8 1.2 0.1-1.6 0.6 0.2 1.5 1.8 0.7 0.3 0.6-0.2 0.4 0.1 0.1 1 0 4.5 0.2 1.2 0.7 0.9 1.4 1.1 2.9 3.2 0.9 0.5 0.1 0.2 1 1.6 0.4 0.3 1.4 0.7 1.2 0.7 3.2 3.2 0.6 0.5 1.3 0.6 0.5 0.5 0.3 0.5 1.3 4.6 0.8 0.6 1.5 0.3 1.3-0.3 1.3-0.4 1.3-0.3 1.3 0.6 1.2-0.8 1.5-0.6 1.7-0.4 4.7-0.4 0.2 0.1-35.2 20.4-58.3 33.7-36.7 21.3-22.7 6.7-3.1 1.4 1.5 6.5 0 7.9 0.4 3.5-0.1 1.9-0.2 1.3-0.4 1-0.4 1.6 0.8 3.3 0.4 1.1 2.1 3.3 2.4 6.8 7 10.8 0.6 0.7 0.6 0.4 1.7 0.6 0.8 0.6 0.9 1.1 0.3 0.9 0.4 3.3 0.4 0.9 3.1 3.2 0.8 0.5 0.7 0.2 0.8 0 0.6 0.4 2 1.7 0.7 0.4 2.2 1 0.4 0.3 0.6 0.6 0.7 0.9 0.8 1.6 1.4 1.8 0.3 0.7 0.2 0.7 0 1.6 0.2 1.1 0.4 1.3 0.6 0.9 1.7 1.9 0.6 0.5 0.8 0.3 2.3 0.6 0.7 0.3 0.7 0.3-0.2 0.2-1.4 0.1-86.7-4.6-0.8-0.1-0.9-0.4-6.5 1.4-25.1 3-2 1.3-3.2 5.5-2 4.5-0.2 0.9 0 2.2-3.6 11.1-1 1.9-0.9 1.2-6.3 3-23 6.7-2.1 0.2-3.3-0.2-6.9-1.5-5.1-1.7-3.3-1.5-6.5-4.4-1.4-1.1-10.8-11.6-3.8-5.1-0.4-0.7-0.7-2-1-3-0.7-1.3-18.5-18.6z" id="BOB" name="El Beni">
  </path>
  <path d="M274.5 579.2l8.5-4.5 0.8-0.6 0.5-0.6-0.2-1-0.4-0.6-0.6-0.6-0.4-0.8-0.3-0.7 1.3-2.6-1-3.7-0.5-0.6-0.5-0.9-0.2-0.7-0.1-0.9 0.2-2.1-0.9-5-0.4-1.1-0.5-0.9-0.8-1.2-1-1.1-0.7-1.1-3.1-1.3-1-0.9-0.3-1.3 0.2-1.4 0.5-1.4 0.3-0.6 1.2-1.5 0.2-0.8 0.1-0.6-0.2-1.4 0.1-1.4 0.5-1.2 1.2-2.3 1.3-1.9 1.6-0.8 4-0.5 1.5-0.5 1.8-1 1.5-1.2 0.9-1.4 0.2-1.1-0.1-1.1-0.4-3.2-0.1-0.9 0.1-5.2-0.6-2-1.9-3.5-0.8-1.8-0.1-1.8 0.9-3.4 0.3-8.5-0.4-1-1.4-1.8-0.5-0.9-0.3-0.3-2.1-0.7-0.1-0.5 0.2-1-0.2-1.5-0.7-1.2-1.9-2.1-1-1.8-1.2-1.5-0.2-0.5-0.1-0.7 0.6-5 0-1.8-0.2-1.6-0.1-0.8 0.2-0.8 0.5-0.8 0.6-0.7 0.3-0.7 0.2-1.1-0.1-0.4-0.3-0.3-0.3-0.2-0.3-0.2-0.1-0.2 2-2.2 2.4-3 5.5-4.7 18.5 18.6 0.7 1.3 1 3 0.7 2 0.4 0.7 3.8 5.1 10.8 11.6 1.4 1.1 6.5 4.4 3.3 1.5 5.1 1.7 6.9 1.5 3.3 0.2 2.1-0.2 23-6.7 6.3-3 0.9-1.2 1-1.9 3.6-11.1 0-2.2 0.2-0.9 2-4.5 3.2-5.5 2-1.3 25.1-3 6.5-1.4 0.9 0.4 0.8 0.1-0.4 1.5-0.8 0.1-1.8 0.1 1.5 1.3 0.4 0.8-0.1 1.1-0.9-0.4-0.9-0.3-0.9 0.1-0.9 0.6 1.1 0.9 0.9 1.1 0.8 1.3 0.4 1.4 0 0.9-0.1 0.4-0.3 0.4-0.1 0.4 0 2.4 0.3 1.4 1.3 1.8 0.3 1-0.3 1.1-0.5 1.1-0.3 1.3 0.6 1.5-0.5 1.3 0 1.3 0.2 1.2-0.2 1.3-1.4 1.9-0.2 0.8 1.6 0.1-1.2 2-0.1 0.6 0.1 0.6 0.6 0.8 0.2 0.7-0.1 1-2.1 4.8-0.1 0.1 0 0.2-0.4 1.9-0.6 0.7-1.5 1-0.6 0.7-0.6 1-0.4 1.1-0.2 1.1 0.3 1 0.5 0.5 0.6 0.2 0.5 0.3 0.2 0.7-0.2 0.5-2.4 3.9-0.3 1.6-0.8 1.3-0.1 0.8 0.3 0.7 1 1.2 0.4 0.6 0.2 0.7 0.1 1.3 1.4 5.5 1 1.6 6.2 6.7 1.6 0.9 1.4 0.5 0.7 0.3 0.6 0.5 4.2 4.4 1 0.8 3.8 2.3 1.8 0.6 0.6 0.3 2.2 1.7 5.6 6.5 3 2.5 0.4 0.4 0.3 0.6 0.6 1.7 0.6 1.1 0.3 1.3-0.4 1.3-0.5 1.3-1 0.1-1.2 0.1-0.8-0.2-0.6 0-1.4 0.4-0.6 0-1.3-0.1-0.6 0-0.8 0.3-2.5 1.7-0.5 0.5-0.2 0.8-0.1 0.7 0.1 1.5-0.1 0.7-0.3 0.7-10.4 15.6-1.4 1.6-5.4 5.5-1.5 1.2-0.9 1.2-0.5 1.9 0.3 1.3 0.4 0.7 3 3.2 0.9 1.3 2.2 4.2 1.2 3.4 1 1.1 0.5 0.5 0.9 0.5 0.4 0.5 0.6 0.8 0.9 1.7 1.3 1.8 1.1 1.8 0.7 2.8 1 1.8 0.8 0.6 0.4 0.3 0.2 0.5 0 0.7-0.1 0.5-0.2 0.5 0 0.4 0.1 0.3 0.8 0.7 0.2 0.4-0.1 1.1 0 0.5 0.2 0.6 0.5 0.8 0.3 0.5 0.4 0.3 0.2 0.1 1.2 0.4 0.7 0.4 1 0.7 1.1 1.1 0.6 0.5 1.5 0.8 0.3 0.2 0.2 0.2 0.2 0.3 0.1 0 0 0.3 0.1 0.5-0.1 2.8 0 0.7 0.1 0.5 0.4 1.1 0 0.4-0.2 0.6-1.7 1.9-1.2 2.1-0.6-0.6-0.4-0.5-0.6-1.7-0.3-0.5-1.4-0.5-1.5 0.5-4.5 3.7-0.8 0.3-1.1 0.1-3.3 0-0.9-0.1-0.6-0.4-1.1-1.4-0.5-0.6-1.3-1-0.6-0.6-0.9-2.1-0.1-0.3-0.8-0.2-0.6-0.7-0.8-1.5-1.2-0.8-3.2 0-1.3-0.5-0.4-0.5-0.8-1.2-0.5-0.5-1.2-0.3-1.5 0.1-4.7 1.4-3.6 1.7-2.4 1.7-1.6 1.4-0.6 0.8-0.5 1-0.4 2-0.4 0.9-0.8 0.8-0.9 0-0.9-0.3-3-2-1.2-0.6-1.2-0.1-2.5 0.5-1.2-0.2-0.8-1-0.2-1.4 0-1.9-0.2-1.7-0.7-0.7-0.8-0.3-0.7-0.6-0.6-0.8-0.5-0.7-0.4-2.3-0.7-0.2-0.7 0.2-0.6 0-0.3-0.8 0-0.5-0.2-0.7-0.2-0.7-0.2-0.2-0.7-0.2-2.3-1.2-0.5-0.7-0.4-0.3-0.4-0.1-1-0.2-0.3-0.2-2.1-2.1-2.8-5-2.4-1.9-1.1-0.6-1.2-0.8-0.9-1-0.8-2-0.7-1.3-1.6-1.9-2.3-1.4-1.2-1-0.5-1.2-4.1-3.5-4-2.2-1.1-1.8-1.5-0.1-4.3 1.1-0.6-0.1-0.5-1.7-0.4-0.7-0.6-0.5-0.8-0.1-0.7-0.7-1-1.5-0.8-1.7-0.4-1.4-1.3 0-0.7-0.2-0.8-0.1-2.2-0.2-2.7 0.1-1.8 0.4-0.8 0.3-5.3 3.8-1.5 1.1-3.8 3.2-0.7 0.4-0.6 0.1-0.7 0-3.4-0.6-3.9 0.2-2.6-0.3-0.5-0.2-0.7 0-1.4 0.1-4.5 0.8-3.7-8.8-5-7.8-3.4-4.3-1.2-1.2-10.8-8.3z" id="BOC" name="Cochabamba">
  </path>
 </g>
 <g id="points">
  <circle class="-22.23638588765449|-69.05645068916371" cx="138.5" cy="907.4" id="0">
  </circle>
  <circle class="-16.94941142777493|-62.95603494700188" cx="540.2" cy="537.7" id="1">
  </circle>
  <circle class="-10.34069335292549|-58.07570235327242" cx="861.5" cy="89.6" id="2">
  </circle>
 </g>
 <g id="label_points">
  <circle class="La Paz" cx="196.4" cy="443.6" id="BOL">
  </circle>
  <circle class="Oruro" cx="226.1" cy="663.5" id="BOO">
  </circle>
  <circle class="Potosí" cx="282.5" cy="805.4" id="BOP">
  </circle>
  <circle class="Tarija" cx="481.2" cy="855.3" id="BOT">
  </circle>
  <circle class="Santa Cruz" cx="607.2" cy="577" id="BOS">
  </circle>
  <circle class="Chuquisaca" cx="449" cy="770.1" id="BOH">
  </circle>
  <circle class="Pando" cx="249" cy="152.4" id="BON">
  </circle>
  <circle class="El Beni" cx="376.9" cy="328.7" id="BOB">
  </circle>
  <circle class="Cochabamba" cx="372.7" cy="555.3" id="BOC">
  </circle>
 </g>
</svg>