<?xml version="1.0"?>
    
<!--********* Copyright (c) 2024 Pareto Softare, LLC DBA Simplemaps.com ***************************************
************* Free for Commercial Use, full terms at  https://simplemaps.com/resources/svg-license ************
************* Attribution is appreciated! https://simplemaps.com *******************************************-->

<svg baseprofile="tiny" fill="#6f9c76" height="686" stroke="#ffffff" stroke-linecap="round" stroke-linejoin="round" stroke-width=".5" version="1.2" viewbox="0 0 1000 686" width="1000" xmlns="http://www.w3.org/2000/svg">
 <g id="features">
  <path d="M110.6 107l0.2-4.2-0.8-4.6-2.2-7.3 4.7 1.1 4.5 2.3-1-5.2-4.4-10.2 0.3-2.5 0-2-6.6-0.4-0.9-2.8 2.7-4.1 3.9-4.3 1.1-0.8 1.3-0.2 2.7 0 1.7-0.7 2.7-3.3 1.5-1.3 3-1.2 2.1-0.6 2.2-1 2.8-2.6-1.6-3.3-0.3-2.9 1.3-2.1 3.2-0.8 1.9 0.3 2.9 1.3 1.9 0.3 0.8-0.6 1.8-2.4 0.9-0.6 25.3-1.9 6.5 0.9 6.3 2.3 23.6 12.3 6.9 1.4 6.6-2.6 5 3.7 3.5 1.6 11 0.4 0.5-0.1 1.6 8.9 5 7.6 7.7 2.2 7.4 3-2.8 7.7-2.1 7.9 0.7 8.6 0.6 8.7-6-0.6-1.6 5.6 1.6 9.5-2.9 9.1-4.2-1.5-3.7 2.6-7.7-0.8-7.8-4.5-5.2 0.7-4.8 2.5-8 0.7-7.5-2.9-4.3-3.1-3.3 4.1-10.1-4.8-9.4-6.2-3.8-6.9-6.2-1.7-25.9 3.2-24-10.2-2.8-0.7z" id="DO15" name="Monte Cristi">
  </path>
  <path d="M110.6 107l2.8 0.7 24 10.2 25.9-3.2 6.2 1.7 3.8 6.9 9.4 6.2 10.1 4.8-5.7 9.6-3.1 11.1 0.6 5.9-1.9 5.5-3 16.6-12.1 5.4 2.5 5.7 4.2 4.6-4.3 4.4-5 3.1-5.9-2-6-1.6-3.1 3.6-1.8 4.8-5.2 1.9-5 3-4.1 3.9-16-7.8-8.2-8.3-1-1.1-4.4-6.2-1.2-5.2 1.6-1.7 6.7-3.8 2.3-1.8 3.1-8 1.4-1.5 2.8-6 0.2-11.7-3-20.5-6.9-16.4-1.1-6 0.4-6.8z" id="DO05" name="Dajabón">
  </path>
  <path d="M133.9 219.8l4.1-3.9 5-3 5.2-1.9 1.8-4.8 3.1-3.6 6 1.6 5.9 2 5-3.1 4.3-4.4 10.2 6.6 7.6 10.2 11.1 5.6 10.8 5.8-1.7 7.9-0.5 8-7.8 6-9.4 0.5-7.7-4.7-8.4-1.3-5 9.4-2.9 11.1-3.9 8.3-7.6 2.2-7 0.7-5.4 5-6.2 13-2 14.1 4.2 5.5-2.9 12.7 5.6 3.6 5 4.4 1.7 6 0 6.4 4.6 4.9 6.7 1.6 2.8 7.4-3.5 8.3-15.5-3.3-15.8-1.3-16.7-2.6-13.7-1.6 6.6-4.1 3.5-2.9 2.9-4.9 1.7-4.4 1.2-4.8 0.4-4.9-2-10.2-0.2-10.6-1.4-4.8-1.8-2.4-5.7-5.2-2.2-2.7-3.5-7.3-2.3-1.9-5.8-0.2-6.1 2.1-4.4 0.7-0.8-4.5 4.3-2.9 12.7-3.4 3.2-2 10.7-11.9 7.4-10.4 3.7-3.4 8.4-6 3.1-4.6 1.3-4.5 1.1-15.6-3.1-1.6z" id="DO07" name="La Estrelleta">
  </path>
  <path d="M101 359.1l13.7 1.6 16.7 2.6 15.8 1.3 15.5 3.3-8 2.2-7.9 2.6-1.2 2.8 0.4 3.4-1.7 5.8-2.7 5.5 6.9 22.7 25.3 10 9.5 4.3 8.9 5.5 9.6 2.4 9.5-3.7 11.8 0.7 6.4 12.1 6.9 5.7 8.9-0.6-8.2 10.9-13 3.5-12.5-4.2-10.9 2.3 3.6 14.9 3.9 14.3-5.7 0.8-6.3-1.8-4.5 4.9-1.1 7-7.3-6.2-7.1-6.7-8.6-3.4-9-2.3-21-10.4-20.4-11.6-0.6-0.2 0.2-0.3 2.9-5-0.6-0.7-2.2-2.1-3.6-2.3-13.2-5-9.4-6.3-2-2.3-3.7-5.5-2.1-1.9-9.6-2.4-3.7-2.1-1.5-4.8 0.9-2.8 1.9-1.1 1.3-1.4-0.6-3.9-1.6-2.5-22.4-23-2.1-4.2 4.2-3.2 9.2-2 18.5 3.4 9.6-3.2 3.2-3.5 5.1-8.7 3.4-3.8 0.6-0.4 1.7-1z" id="DO10" name="Independencia">
  </path>
  <path d="M116.6 461.1l0.6 0.2 20.4 11.6 21 10.4 9 2.3 8.6 3.4 7.1 6.7 7.3 6.2 7.6 4.4 0.3 10.6 0.3 4.8-0.5 4.6-1.4 2.8-2.4 1-2.6 0.9-1.7 2.3 5.3 13.3 12.2 10.1 6.2-1.5 7.4 0.3 4 9.1 0 10.1 0.1 0.6-0.2-0.2-0.4 1.9-0.4 0.7-0.9 0.8 1.7 0-1 2.2-1.3 1.6-1.6 1.1-1.9 0.4-0.9 1.1-1.7 5.1-0.9 1.9-3 4.4-8.3 24.3-2.6 4.8-10.2 14.3-2.5-1.1-2.1-2.1-0.1-1-2.4-2.1-17-28.1-4.1-4.5-8.4-3.3-19.7 2.7-8.4-2.1 2.4-1.8 7.8-8.2 1.7-3.3-0.3-5.6-1.1-3.9-3.8-7.4-2.7-4.1-0.5-1.5-0.1-3.1 1.6-9.9-1.8-4.5-4.3-5-9-7.5-13.9-5.3 3-7.8 0.9-4.5-0.6-7.6 0.2-4.3-0.6-2.9-2.6-7.4-0.4-2.5 0.7-5.1 1.9-4.9 11-18.9z m48.7 194l-4.1-2.4-0.1-5.6 2.3-6.5 2.8-5.1 3.4 1.9 3.6 2.6 6.3 6.1-3.8 1.2-6.2 6.3-4.2 1.5z" id="DO16" name="Pedernales">
  </path>
  <path d="M871.7 493.2l12.8-0.4 3.3 1.2 2.5 3.4 2.8 5.1 1.8 4.7-0.4 2-3.8-0.8-7.9-3.7-4.2-0.8-4.4 0.5-7.6 2.5-4.2 0.5-8.7-2.3-6.2-5.6-4-7-2.1-6.4 3.6-1.1 4.4 0.9 4.2 2.1 3.7 2.6 2.9 1.1 11.5 1.5z m-29.9-211.1l2 1.4 2.3 1.3 4.4 0.3 2.5 1 28.7 26.8 10.6 12.8 14.9 11.4 10.6 7.5 3.1 1.4 1.6 1 11.1 10.8 14.1 8.6 6.8 10.4-1.3 10.3-23.2 35.4-1.7 1.4-1.6 1.8-0.7 2.5 0.4 9-0.4 2.6-2.8 4.4-4.1 2.1-5.1 0.6-5.9 0-4.5-1.5-9.8-6.5-3.5-1.1-4.1 2.8 0.6 4.2 1.3 4.9-2.1 5.1-3 4.1-1.9 4.7-3.8 15.1-1.4 2.7-2.8 1-20.9 1.7-4.2-1.5-0.6-9.6-6-12.5-8.2-12.3-7.3-8.4-7.8-5.4-4.9-2.1 4.4-10.6 4.3-11.8 3.4-7.6-0.3-8.1-5.2-6.5-6.2-5.6-4.8-8.7-4.1-9.4-1.8-5.4 0.9-5.6 5.5-3.3 6.6-1.1 12.7-10 5.1-14.8-6.7-12.9 1.9-10.9 1.4-2.9-0.2-3.5 7.1-5.5 4.6-6z" id="DO11" name="La Altagracia">
  </path>
  <path d="M841.8 282.1l-4.6 6-7.1 5.5 0.2 3.5-1.4 2.9-1.9 10.9 6.7 12.9-5.1 14.8-12.7 10-6.6 1.1-5.5 3.3-0.9 5.6 1.8 5.4-10.8 4.3-6.2 12-9.5 12.1-12.4 7.7 1.9-6.8 1.2-6-7.2-0.8-7.8 1.1-7-5.2-6-6.6-4-1.1-4.2 0.4-3.3-2-3.3-2.4 3-9.6 4.3-10 1.1-11.1-3.9-10.5-14.1-14.7-8.9-18.2 14-2.5 20.3 4.8-6.8-12.3 1.2-14.2 0-0.1 0.2-1 9.5 2.6 3.9-0.3 4.6-2.6-1.5-1.9-3.1-1.9 0-2.5 4.4-1.3 3.8 3.5 5.2 8.5 3.4 2 3.7 1.1 3.2 1.4 1.7 2.8 3-2.4 6-2.8 2.8-2.1-1.9-2.1 0.9-0.5 2.3-0.1 2.1-0.7 2.6-2.7 0.7-1.1 1-0.1 8.9 0.5 5.1 1.1 4.7 1.6 4.1 2.3 0.5 0.7 0 1 0.2 1 1 0.9 5 1.8 0.5-0.1 8.8 1.8 5.5 0.3 2.3 0.8 0.4 0.3z" id="DO08" name="El Seybo">
  </path>
  <path d="M736.5 271.3l-0.2 1 0 0.1-1.2 14.2 6.8 12.3-20.3-4.8-14 2.5 8.9 18.2 14.1 14.7 3.9 10.5-1.1 11.1-4.3 10-3 9.6-8.4 5.9-4 9.7-5.3 6.9-7 8.3-3.8-8.6-3.4-8.6-5.7-8.6-5.6-8.6-1.7-10.7-1.4-10.8-4.5-8.2 0.1-9.1 4.4-6 5.1-5.4 5.1-3.2 4.7-3.2-4.6-4.7-8.9-1.1-12.1-6.7-12.4-6.1-14.1-7.2-11.4-10.2 3.3-7.5 1.5-7.9-0.8-7 0.2-1.9 3.1 2.2 13.6-2.1 4.7 1.7 5.9-1.9 11.6 4.6 6.1-0.7-1.5-1.3-2-1.2-2.3-0.9-2.8-0.3 0-1.8 13.2-0.7 3.9 0.7 4.3 3.2 3.4 8 4.2 3.2 4.2 1.1 8.5 1.1 23 6.2z" id="DO30" name="Hato Mayor">
  </path>
  <path d="M635.4 250.2l-0.2 1.9 0.8 7-1.5 7.9-3.3 7.5-7.2-5.4-7.8-4.5-7.1-5.3-7-5.4 4.9-4.6 0.8-8.2 3.4-4.2 3.9-2.6 6.5-4.4 0-7.1-14.9-3.5-12.1 5.7-1.6-6.1 1.5-6.5 2.3-6.5 0.9-7.1 0.5-1.3 1 0.9 8.4 3.5 5-0.8 9.6-3.7 4.9-0.9 11.2-0.4 4.9-1.1 5-2 7.3-4.9 2.9-0.7 2.5 0.6 5.2 2.6 3.3 0.6 6-1.5 2.6-0.3 1.4 0 1.3 0.4 1 0.8 0.4 1.5 0.8 1.2 1.7-0.4 2.7-1.7 14.3 5.8 4.3 3.1 2.8-5.7 4.5-4.2 11.2-6.2 7.2-2.2 1.7 3-1.9 6.3-3.6 7.4 4.9 1.8 5.6 0 5.4-1.4 4.5-2.4 1.4 5.8-3.2 4.5-4.4 4.1-2.3 4.5-1 4.7-2.9 4.3-4.3 3.1-5.4 1.3-19.4-3.5-21.2 1.6-5-1.4-9.2-4.6-31.5-3.9-3.5 0.9-1.4 3.5-0.8 12.5-1.8 10.6 0.8 4 2.3 1.7z" id="DO20" name="Samaná">
  </path>
  <path d="M598.2 197.5l-0.5 1.3-0.9 7.1-2.3 6.5-1.5 6.5 1.6 6.1-17.1-3.3-16.6-7.8-17-4.3-12-10.2-3.3-6.1-7.5-0.9-8.6-6.3-3.1-11.1-0.7-9-2.9-8.2-8.4-5.8-8.7-5.3 0.7-7.5 1.5-6.7 5.2-0.4 5.8 0.4 12.2-7.1 4.6-13.6-0.1-1.6 8.1-8.8 4.7-2.2 13.7 0.3 6.7-0.7 3 0.4 3.8 2.2 8.4 9 2.6 6.1-0.1 6.6-4 14.4 4.9 2.1 1.9 4.7-0.1 11.9 0.6 5.2 1.6 4.2 16.4 24.7 7.4 7.2z" id="DO14" name="María Trinidad Sánchez">
  </path>
  <path d="M518.6 110.2l0.1 1.6-4.6 13.6-12.2 7.1-5.8-0.4-5.2 0.4-1.5 6.7-0.7 7.5-2.7-0.5-2.6 0-5.7-9.2-7.1-6.3-7.4 4.3-5.1 7.4-5.8 4-2.9-7-4.1-2-4.5-1.7-8.2 10.2 0.1 17.5-1 14.7-5.3 15.4-7 1.3-4.9-12.5-5.1 1.1-5.5 2.2-7.8-0.8-5.9-4.4 3.6-2.8 3.9-2.9 0-5.8-0.7-5.9 1.4-6.6 3.4-5.6 3.7-4.2 1-5.3 5.5-12.2 2-13.9 1.9-5.2 3.9-3.5 3.2 0 3.1 0.8 4.4-0.6 4.4-1.2 4.4 0.1 4.1-1.3 3.7-7 2.6-7.4 9.1 9.6 4.1 2.9 4.5 2.3 5 1.5 11.3 1.2 9.1 3.3 16.5 3.3 3.7-0.1 2.5-0.9 2.2-1.9 0.9-0.9z" id="DO09" name="Espaillat">
  </path>
  <path d="M261.8 80l-7.4-3-7.7-2.2-5-7.6-1.6-8.9 2.4-0.7 0.6-2 0.2-2.7 1.3-2.7 2.9-1.1 2.1 2.4 2.7 6.9 1.9-1.2 1.5-1.3 1-1.4 0.7-1.8-2.1-0.6-0.5-0.4 0-0.6-0.8-1.8 3.9 1.5 3.2-0.2 3.3-0.8 4-0.5 2.5-2 4.6-8.6 3-2 3.8-0.9 8-4 4.3-0.6 4 1 3.8 2.3 2.1 3.3-1.3 4.2 4.8 1.9 1.8 0-1.2-4-0.6-1.5 11.9 1.9 3.5-0.3 7.3-1.8 2.8 0.2 3.1 2 10.8 13.1 0.9 2.5-1.3 2.4 9.3 0.1 3.6 1.7 9.4 8 9 4.6 9.5 3.3 11 1.7 14.9 0.1 1.2-0.7 1.3-1.8 3-2.1 3.4-1.7 2.4-0.8 9.7 3.1 15 16-2.6 7.4-3.7 7-4.1 1.3-4.4-0.1-4.4 1.2-4.4 0.6-3.1-0.8-3.2 0-3.9 3.5-1.9 5.2-2 13.9-5.5 12.2-15-4.7-7.3-11.8-5.1-12.5-13.2-5.9-0.9 15.4-11 0.5-5.5-4.9-5.6-4.7-6.8-2-7.7-1.8-10.4-1.4-9.3-4.7-8.3-6.7-10.1-3.2-6.6-1.7-5.5-4.2-8-4-8.4-3z" id="DO18" name="Puerto Plata">
  </path>
  <path d="M190.6 501.9l1.1-7 4.5-4.9 6.3 1.8 5.7-0.8-3.9-14.3-3.6-14.9 10.9-2.3 12.5 4.2 13-3.5 8.2-10.9 0.7-8.5 4.3-6.8 4.2-2.6 3.9-2.8 2.9-4.3 3.9-3.2 7.6-2.8 6.4-4.7 3.8-6.4 3.3-6.7 4.9 6.2 2.5 4.2 0.8 8.3-5 6.5-7.6 6.6 1.2 2.9 1.2 3.1 2.3 1.7 3.1 1.2 8 2.3 7.2 1.7-0.6 3.8 0.8 5.5 1.9 8.4-3.7 6.2-1.6-2.1-1.3-2.6-1.6-2.3-2.5-2-2.7-1.1-10.7-2.3-4.9-0.1-3.9 1.5-1.5 4-0.6 2.2-2.2 3.8-0.5 2.9 0.5 3.3 1.2 1.8 1.6 1.7 1.8 2.9 4 14.1 1.3 2.4 0 3.1-4.8 7.3-4.1 10.5-23.3 34.2-2.1 5.9-1 2.1-2.3 1.6-5 2.6-3 2.6-2.2 2.5-1.7 3.1-1.5 4.3-1.8-0.6-0.7-0.4-0.8-0.7-0.1-0.6 0-10.1-4-9.1-7.4-0.3-6.2 1.5-12.2-10.1-5.3-13.3 1.7-2.3 2.6-0.9 2.4-1 1.4-2.8 0.5-4.6-0.3-4.8-0.3-10.6-7.6-4.4z" id="DO04" name="Barahona">
  </path>
  <path d="M303.3 469.1l3.7-6.2-1.9-8.4-0.8-5.5 0.6-3.8-7.2-1.7-8-2.3-3.1-1.2-2.3-1.7-1.2-3.1-1.2-2.9 7.6-6.6 5-6.5-0.8-8.3-2.5-4.2 5.2-2 0.1-4.6-6.6-4.4-7.8-1.4-15.4-5.4-11.7-11.9 10.8-2.9 6.6-9.7 4-1.6 4.7-2.2-0.6-3.3-1.6-2.9 2.5-3.5 0.3-3.3-1.5-9.8 8-2.6 2.1 4.5 3.6 1.5 3.3-3.2 2-4.5 0.1-13.4 1.6-12.9 3-6.6 6.1-4.2 3.5-3.4 1-5 5.1-2.6 2.1-5.6 13 8.9 2.8 24.1 10.5 14.3 15.1 7.7 9.3 11.4-3.5 14.9 7.1 14.1 5.2 13.2 3.6 2.2 1.9 3.9 4.3 4.1 5.7 2 8.2 5.4 8 4.1 5.1 8.9 5.5 10.8 1.6 4.8-2.4 4.8-1.9 7 0.6 7.4-8.9 10.2-13.8 2.6-3.2-2.1-1.1-2.4 0.6-2.6 1.5-1.2 1.6-0.9 1.3-1.8 1.2-5.2 0.1-5.5-0.6-4.8-1.4-3.1-5.4-6.8-3.3-2.4-5.7-2.2-4.9-1.2-6.2-0.4-5.2 1.4-2.3 4.5 0.9 5.5-0.6 2.2-7.4 7.2-2 1.3-2.7 0.8-2.8-0.1-5.2-1.6-2.2-0.2-2 0.7-3.4 2.5-2.3 0.5-3.1-0.4-1.1 0.7-2.5 2.3-0.7 0.9-1.5 3.3-0.3 1.1-0.7 1-3.3 1.1-1.2 0.6-6.6 7.9-3.5 2.1-5.8 0.7-2.4-0.9z" id="DO02" name="Azua">
  </path>
  <path d="M398.7 466.6l13.8-2.6 8.9-10.2-0.6-7.4 1.9-7 2.4-4.8-1.6-4.8 6.7-9.9 12-3.6 6.2-4.3 5.3-5.7 12 5.2 9.7 9.4 7.9 3.7-0.5 6.3-6.4 3.7-1.2 6.8 4.5 5.8 5 5.8 1.7 3.3 1.9 3.3 3.2 3.2 3.2 2.7 1 5.9 1.5 5-5.3 0.1-4.6 0.8-3.1 1.7-4.3-2.7-4.7-0.9-31.6 0.1-5.3 1.7-10.2 5.7-5.7 1.3-17.1 0-4-1.6-0.3-2.3 1.7-1.7 2.4-1.5 1.1-1.6-0.7-2.8-1.7-1.6-1.7-1-1.9-2.5-1.5-1z" id="DO17" name="Peravia">
  </path>
  <path d="M497.2 476.4l-1.5-5-1-5.9-3.2-2.7-3.2-3.2-1.9-3.3-1.7-3.3-5-5.8-4.5-5.8 1.2-6.8 6.4-3.7 0.5-6.3-7.9-3.7-9.7-9.4-12-5.2-3.7-7.8-1.8-8.4 2.7-9.2-1-9.2 0.8-11.3 4.7-10.6 9.1 0.2 3.3-9.9 3.5-7.5 8.5-4 4 5.2 4.3 5 6.4 3.6 6 4.4 0.2 11.7 6.7 10.8-2.2 5.8-1.2 6.4 2.7 9.3 4.6 8.3 6 4.5 4.6 5.6 0.7 4.5 2.8 3 5.6-0.1 5.5 0.2 3.2 4.6 0.2 5.7 0.9 1.6-3.1 1.6-5.5 4.9-4.2 6.6-1.6 7.8-1.3 2.1-5.7 3-1.3 1.9-1 2.9-8.3 7.7-6 7-3.4 2.9-1.5-0.7-0.7 0z" id="DO21" name="San Cristóbal">
  </path>
  <path d="M540.8 428.7l-0.9-1.6-0.2-5.7-3.2-4.6-5.5-0.2-5.6 0.1-2.8-3-0.7-4.5-4.6-5.6-6-4.5-4.6-8.3-2.7-9.3 1.2-6.4 2.2-5.8-6.7-10.8-0.2-11.7 7 2.5 4.5 8.2 7.8 2.9 8.1 2.2 11.7 2.3 10.5-4.8 0.7-2.4 1.1-2.4 2.9-1 3.1-0.1 5.8 0.2 5.7 0.3 6.7 5.3 5.6 6.4 3.4 4.5 1.4 5.2 5.2 5 2 7.4 11.3-12 14.4-5.3 5.4-1.2 4.6-3 8.4-1.8 8.9 3.4-3.1 3.4-1.4 4 1.4 0.1 1.3-0.6 1.1 6.5-0.5 6.6-5 6.6-4 6.8 9.8 10.5 14.5 2.9-1.6 8.3-0.9 6.9-12.8-8.9-5.5-3-3.6-0.4-1.5 2.4 0.1 3 0.4 2.9-0.7 2.4-2.2 0.7-3.4 0-3.2-0.6-1.4-0.9-4.2-7.1-1.9-1.9-1.9-0.6-38-4.2-6.9 0.3 0.4-7.7-6.9-1.1-4.7 1.3-4.7-0.5-3-4.8-3-4.3-6.6 3.8-0.7 7.4 5.5 8.1-1.4 9.4-3.1 1.1-2.6 1.3z" id="DO32" name="Santo Domingo">
  </path>
  <path d="M546.5 426.3l1.4-9.4-5.5-8.1 0.7-7.4 6.6-3.8 3 4.3 3 4.8 4.7 0.5 4.7-1.3 6.9 1.1-0.4 7.7-1.1 0-4 1.2-7.7 3.8-6.4 4.4-2.4 1.1-3.5 1.1z" id="DO01" name="Distrito Nacional">
  </path>
  <path d="M726.1 370.7l3.3 2.4 3.3 2 4.2-0.4 4 1.1 6 6.6 7 5.2 7.8-1.1 7.2 0.8-1.2 6-1.9 6.8-3.9 6.5-3.2 7 1.6 3.4 3 2.5 3.1 7.5 1.2 7.3-4.6-0.8-10.9-3.7-4.9-0.8-4.2-1.4-7.2-6.1-5.4-1.4-4.8 1-4.8 1.6-4.9 0.4-5-3-5.1 4.8-32.1 2.5-9.6 3.5-5.1 0.1-0.7-0.4 0.9-6.9 1.6-8.3-14.5-2.9-9.8-10.5 4-6.8 5-6.6 0.5-6.6-1.1-6.5-1.3 0.6-1.4-0.1 1.4-4 3.1-3.4 14-24.8 14.7-15.5-0.1 9.1 4.5 8.2 1.4 10.8 1.7 10.7 5.6 8.6 5.7 8.6 3.4 8.6 3.8 8.6 7-8.3 5.3-6.9 4-9.7 8.4-5.9z" id="DO23" name="San Pedro de Macorís">
  </path>
  <path d="M804.7 364l4.1 9.4 4.8 8.7 6.2 5.6 5.2 6.5 0.3 8.1-3.4 7.6-4.3 11.8-4.4 10.6-5.3-2.3-10.4-1.4-11.9 4.9-18 0.8-1.2-7.3-3.1-7.5-3-2.5-1.6-3.4 3.2-7 3.9-6.5 12.4-7.7 9.5-12.1 6.2-12 10.8-4.3z" id="DO12" name="La Romana">
  </path>
  <path d="M249.3 136.5l2.9-9.1-1.6-9.5 1.6-5.6 6 0.6-0.6-8.7-0.7-8.6 2.1-7.9 2.8-7.7 8.4 3 8 4 5.5 4.2 6.6 1.7 10.1 3.2 8.3 6.7 9.3 4.7 10.4 1.4-1.6 8.7-3.6 8-6.3 0.9-6.2-4.4 0.5 5.3 1.9 4.7 3.6 1.7 3.7 2.3-0.2 7.2-1.8 7.5 5.7 4.3-1 4.7-10.9 0-10.2-4.4-2.2 2.8-2.3 3.4-3.6 0.5-3.6-0.8-7.2-3.1-6.8-3.8-18.2-3.3-8.8-14.6z" id="DO27" name="Valverde">
  </path>
  <path d="M192.8 134.3l3.3-4.1 4.3 3.1 7.5 2.9 8-0.7 4.8-2.5 5.2-0.7 7.8 4.5 7.7 0.8 3.7-2.6 4.2 1.5 8.8 14.6 18.2 3.3-3.3 4.4-0.5 5.2 3.3 2.4 2.1 2.5-9.5 3.3-8.9 4.2-4.7 0.3-4.6-0.5-3.8 2.5-3.1 3.6-4.5 3.7-3.5 4.8-0.8 7.9-0.7 8.1 0.9 5.5 4.1 3.9 0.3 7.9-1.3 8.2-13.1-0.1-10.7-5.3-10.8-5.8-11.1-5.6-7.6-10.2-10.2-6.6-4.2-4.6-2.5-5.7 12.1-5.4 3-16.6 1.9-5.5-0.6-5.9 3.1-11.1 5.7-9.6z" id="DO26" name="Santiago Rodríguez">
  </path>
  <path d="M390.2 180.4l5.9 4.4 7.8 0.8 5.5-2.2 5.1-1.1 4.9 12.5 7-1.3 3.6 8.8 5 8.3 6.9 6.7 10.1 0.7 8 12.4 12.3 8.1 0.5 0.7 0.4 0.7-5.5 2.1-6 3.1-9.8 4.7-7 8.1-1.8-6.8-6-3.5-4.8 1.7-2.7 4.9-11.7 3.2-5.2 9.6-0.2 17.9-14.8 12.2-2.2 18 14.5 17.1-3.5 11.5-6.5 8.3-5.2 4.8-3.8 4.2-10.9-0.1-11.2 0.2 3.5-14.9-9.3-11.4-15.1-7.7-10.5-14.3-2.8-24.1-13-8.9-2.1-5.6-4.1-4.2 1.1-5.8-1.8-5.5 7.2-3.6 8.1-3.5 15.4-7.5 12.9-9.8 3-7.1 5.4-0.3 6.4 1.3-0.7-7.5 1.8-8.9-3.9-6.9-7.6-2.1-5.9-4.6 1.7-5.3 6.2-1.7 12.4-6.6 13-4.2z" id="DO13" name="La Vega">
  </path>
  <path d="M426.4 193.5l5.3-15.4 1-14.7-0.1-17.5 8.2-10.2 4.5 1.7 4.1 2 2.9 7 5.8-4 5.1-7.4 7.4-4.3 7.1 6.3 5.7 9.2-1.5 6.7-2 8.4-7 6-10.4 5.1-4.8 11-2 12.3-3.5 11.2-0.2 11.1-10.1-0.7-6.9-6.7-5-8.3-3.6-8.8z" id="DO19" name="Hermanas">
  </path>
  <path d="M594.6 225l12.1-5.7 14.9 3.5 0 7.1-6.5 4.4-3.9 2.6-3.4 4.2-0.8 8.2-4.9 4.6-16.2-0.6-13.2 1.6-0.5 2.9-0.4 4-3.7 5-6.6-0.2 2.2-7.3 0.9-6.9-5.3-3.4-6.1-1.9-8-0.6-7.6 0-5.8-1.9-5.6-2.6-6.4-2.9-7-0.5-10.8-1.3-11 0.2-5 0.9-5.2-0.9-4.8-1.4-4.6 1.6 0.8-0.3 0.1 1.1-12.3-8.1-8-12.4 0.2-11.1 3.5-11.2 2-12.3 4.8-11 10.4-5.1 7-6 2-8.4 1.5-6.7 2.6 0 2.7 0.5 8.7 5.3 8.4 5.8 2.9 8.2 0.7 9 3.1 11.1 8.6 6.3 7.5 0.9 3.3 6.1 12 10.2 17 4.3 16.6 7.8 17.1 3.3z" id="DO06" name="Duarte">
  </path>
  <path d="M406.5 141.3l-1 5.3-3.7 4.2-3.4 5.6-1.4 6.6 0.7 5.9 0 5.8-3.9 2.9-3.6 2.8-13 4.2-12.4 6.6-6.2 1.7-1.7 5.3 5.9 4.6 7.6 2.1 3.9 6.9-1.8 8.9 0.7 7.5-6.4-1.3-5.4 0.3-3 7.1-12.9 9.8-15.4 7.5-8.1 3.5-7.2 3.6 1.8 5.5-1.1 5.8-6.4-2-6.4-2-6 1.3-5.7 2.8-11.1-3.5-11-7.1-4.7-4.2-0.8-6.5-2.1-3.9-4.1-2.1-10.1-5-9.3-5.5 1.3-8.2-0.3-7.9-4.1-3.9-0.9-5.5 0.7-8.1 0.8-7.9 3.5-4.8 4.5-3.7 3.1-3.6 3.8-2.5 4.6 0.5 4.7-0.3 8.9-4.2 9.5-3.3-2.1-2.5-3.3-2.4 0.5-5.2 3.3-4.4 6.8 3.8 7.2 3.1 3.6 0.8 3.6-0.5 2.3-3.4 2.2-2.8 10.2 4.4 10.9 0 1-4.7-5.7-4.3 1.8-7.5 0.2-7.2-3.7-2.3-3.6-1.7-1.9-4.7-0.5-5.3 6.2 4.4 6.3-0.9 3.6-8 1.6-8.7 7.7 1.8 6.8 2 5.6 4.7 5.5 4.9 11-0.5 0.9-15.4 13.2 5.9 5.1 12.5 7.3 11.8 15 4.7z" id="DO25" name="Santiago">
  </path>
  <path d="M245.3 449.3l-8.9 0.6-6.9-5.7-6.4-12.1-11.8-0.7-9.5 3.7-9.6-2.4-8.9-5.5-9.5-4.3-25.3-10-6.9-22.7 2.7-5.5 1.7-5.8-0.4-3.4 1.2-2.8 7.9-2.6 8-2.2 11.6 4.3 12.3 2.5 11 5.6 12.1 1 5.3-3.5 5.7-1.9 6.8 0.7 6.8-1.1 11.7-3.6 9 5.1 11.7 11.9 15.4 5.4 7.8 1.4 6.6 4.4-0.1 4.6-5.2 2-4.9-6.2-3.3 6.7-3.8 6.4-6.4 4.7-7.6 2.8-3.9 3.2-2.9 4.3-3.9 2.8-4.2 2.6-4.3 6.8-0.7 8.5z" id="DO03" name="Bahoruco">
  </path>
  <path d="M162.7 367.9l3.5-8.3-2.8-7.4-6.7-1.6-4.6-4.9 0-6.4-1.7-6-5-4.4-5.6-3.6 2.9-12.7-4.2-5.5 2-14.1 6.2-13 5.4-5 7-0.7 7.6-2.2 3.9-8.3 2.9-11.1 5-9.4 8.4 1.3 7.7 4.7 9.4-0.5 7.8-6 0.5-8 1.7-7.9 10.7 5.3 13.1 0.1 9.3 5.5 10.1 5 4.1 2.1 2.1 3.9 0.8 6.5 4.7 4.2 11 7.1 11.1 3.5 5.7-2.8 6-1.3 6.4 2 6.4 2 4.1 4.2 2.1 5.6-2.1 5.6-5.1 2.6-1 5-3.5 3.4-6.1 4.2-3 6.6-1.6 12.9-0.1 13.4-2 4.5-3.3 3.2-3.6-1.5-2.1-4.5-8 2.6 1.5 9.8-0.3 3.3-2.5 3.5 1.6 2.9 0.6 3.3-4.7 2.2-4 1.6-6.6 9.7-10.8 2.9-9-5.1-11.7 3.6-6.8 1.1-6.8-0.7-5.7 1.9-5.3 3.5-12.1-1-11-5.6-12.3-2.5-11.6-4.3z" id="DO22" name="San Juan">
  </path>
  <path d="M479.8 328.6l-8.5 4-3.5 7.5-3.3 9.9-9.1-0.2-6.4-4.4-6.6-2.7-5.9 2.2-6.2 0.6-9.9-7.3-10.4-6-14.5-17.1 2.2-18 14.8-12.2 0.2-17.9 5.2-9.6 11.7-3.2 2.7-4.9 4.8-1.7 6 3.5 1.8 6.8 2.8 6.2 2.3 6.1 1.1 7 6.3 3 2.2 2.9 0.8 3.9 3.9 5.1 5.2 3.8 10.6 7.6 6.4 11.2-5.1 5.7-1.6 8.2z" id="DO28" name="Monseñor Nouel">
  </path>
  <path d="M444.9 257.9l7-8.1 9.8-4.7 6-3.1 5.5-2.1-0.4-0.7-0.5-0.7-0.1-1.1-0.8 0.3 4.6-1.6 4.8 1.4 5.2 0.9 5-0.9 11-0.2 10.8 1.3 7 0.5 6.4 2.9 5.6 2.6 5.8 1.9 7.6 0 8 0.6 6.1 1.9 5.3 3.4-0.9 6.9-2.2 7.3-3.7 16.7-4.3 17-6.9 5.4-8-4-5-0.9-3 4.6-4.4-0.7-5.2-1.1-6.5 1.6-4.7 4.3-10.5 2.5-12.8 2.7-6.4-11.2-10.6-7.6-5.2-3.8-3.9-5.1-0.8-3.9-2.2-2.9-6.3-3-1.1-7-2.3-6.1-2.8-6.2z" id="DO24" name="Sánchez Ramírez">
  </path>
  <path d="M423.5 429.8l-5.5-10.8-5.1-8.9-8-4.1-8.2-5.4-5.7-2-4.3-4.1-1.9-3.9-3.6-2.2-5.2-13.2-7.1-14.1 11.2-0.2 10.9 0.1 3.8-4.2 5.2-4.8 6.5-8.3 3.5-11.5 10.4 6 9.9 7.3 6.2-0.6 5.9-2.2 6.6 2.7 6.4 4.4-4.7 10.6-0.8 11.3 1 9.2-2.7 9.2 1.8 8.4 3.7 7.8-5.3 5.7-6.2 4.3-12 3.6-6.7 9.9z" id="DO31" name="San José de Ocoa">
  </path>
  <path d="M631.2 274.5l11.4 10.2 14.1 7.2 12.4 6.1 12.1 6.7 8.9 1.1 4.6 4.7-4.7 3.2-5.1 3.2-5.1 5.4-4.4 6-14.7 15.5-14 24.8-8.9-3.4-8.4 1.8-4.6 3-5.4 1.2-14.4 5.3-11.3 12-2-7.4-5.2-5-1.4-5.2-3.4-4.5-5.6-6.4-6.7-5.3-5.7-0.3-5.8-0.2-3.1 0.1-2.9 1-1.1 2.4-0.7 2.4-10.5 4.8-11.7-2.3-8.1-2.2-7.8-2.9-4.5-8.2-7-2.5-6-4.4-6.4-3.6-4.3-5-4-5.2 1.6-8.2 5.1-5.7 12.8-2.7 10.5-2.5 4.7-4.3 6.5-1.6 5.2 1.1 4.4 0.7 3-4.6 5 0.9 8 4 6.9-5.4 4.3-17 3.7-16.7 6.6 0.2 3.7-5 0.4-4 0.5-2.9 13.2-1.6 16.2 0.6 7 5.4 7.1 5.3 7.8 4.5 7.2 5.4z" id="DO29" name="Monte Plata">
  </path>
 </g>
 <g id="points">
  <circle class="17.66516557568335|-71.82577586601813" cx="90.9" cy="624.1" id="0">
  </circle>
  <circle class="18.622017730612857|-69.98515839759276" cx="545.5" cy="375.4" id="1">
  </circle>
  <circle class="19.81808292427474|-68.51266442285245" cx="909.1" cy="62.6" id="2">
  </circle>
 </g>
 <g id="label_points">
  <circle class="Monte Cristi" cx="194.6" cy="89.9" id="DO15">
  </circle>
  <circle class="Dajabón" cx="151.6" cy="160.2" id="DO05">
  </circle>
  <circle class="La Estrelleta" cx="152.2" cy="252.1" id="DO07">
  </circle>
  <circle class="Independencia" cx="113" cy="410.4" id="DO10">
  </circle>
  <circle class="Pedernales" cx="164.1" cy="554.8" id="DO16">
  </circle>
  <circle class="La Altagracia" cx="879" cy="383.8" id="DO11">
  </circle>
  <circle class="El Seybo" cx="774" cy="324.9" id="DO08">
  </circle>
  <circle class="Hato Mayor" cx="706.4" cy="345.9" id="DO30">
  </circle>
  <circle class="Samaná" cx="684.9" cy="209.7" id="DO20">
  </circle>
  <circle class="María Trinidad Sánchez" cx="540.3" cy="160.9" id="DO14">
  </circle>
  <circle class="Espaillat" cx="450.7" cy="119.9" id="DO09">
  </circle>
  <circle class="Puerto Plata" cx="319.3" cy="74" id="DO18">
  </circle>
  <circle class="Barahona" cx="242.1" cy="496.5" id="DO04">
  </circle>
  <circle class="Azua" cx="334.6" cy="385" id="DO02">
  </circle>
  <circle class="Peravia" cx="449.7" cy="447.8" id="DO17">
  </circle>
  <circle class="San Cristóbal" cx="477.6" cy="386.9" id="DO21">
  </circle>
  <circle class="Santo Domingo" cx="564" cy="380.3" id="DO32">
  </circle>
  <circle class="Distrito Nacional" cx="554.2" cy="413.5" id="DO01">
  </circle>
  <circle class="San Pedro de Macorís" cx="676.5" cy="399.3" id="DO23">
  </circle>
  <circle class="La Romana" cx="798.2" cy="403.7" id="DO12">
  </circle>
  <circle class="Valverde" cx="283.1" cy="124.5" id="DO27">
  </circle>
  <circle class="Santiago Rodríguez" cx="212.9" cy="170.4" id="DO26">
  </circle>
  <circle class="La Vega" cx="378" cy="265.1" id="DO13">
  </circle>
  <circle class="Hermanas" cx="448.5" cy="164.6" id="DO19">
  </circle>
  <circle class="Duarte" cx="486.1" cy="204.6" id="DO06">
  </circle>
  <circle class="Santiago" cx="312.9" cy="206.2" id="DO25">
  </circle>
  <circle class="Bahoruco" cx="212.1" cy="405.6" id="DO03">
  </circle>
  <circle class="San Juan" cx="216.7" cy="313.9" id="DO22">
  </circle>
  <circle class="Monseñor Nouel" cx="437.8" cy="309.3" id="DO28">
  </circle>
  <circle class="Sánchez Ramírez" cx="501.2" cy="274.4" id="DO24">
  </circle>
  <circle class="San José de Ocoa" cx="419.5" cy="377.7" id="DO31">
  </circle>
  <circle class="Monte Plata" cx="600.5" cy="317.6" id="DO29">
  </circle>
 </g>
</svg>