<?xml version="1.0"?>
    
<!--********* Copyright (c) 2024 Pareto Softare, LLC DBA Simplemaps.com ***************************************
************* Free for Commercial Use, full terms at  https://simplemaps.com/resources/svg-license ************
************* Attribution is appreciated! https://simplemaps.com *******************************************-->

<svg baseprofile="tiny" fill="#6f9c76" height="398" stroke="#ffffff" stroke-linecap="round" stroke-linejoin="round" stroke-width=".5" version="1.2" viewbox="0 0 1000 398" width="1000" xmlns="http://www.w3.org/2000/svg">
 <g id="features">
  <path d="M778.5 44l-1 0.8-0.1 0.4 0 0.8 0.2 0.9 0 1.7-0.3 1.2-1.3 2.1-0.4 1-0.2 3.1 0.2 1 0.4 1 0.2 0.2 0.7 0.6 0.5-0.1 0.9 0.5 1 1.1 0.8 0.6 0.3 0.1-0.1 2.1 0.1 1-0.1 0.8-0.3 0.6-0.5 0.4-0.4 0.3-0.4 0.1-1 0.1-0.5 0.1-0.5 0.3-0.1 0.3 0.1 0.5 1.6 2.9 0.2 0.6 0.4 1.6 0.3 0.6 0.3 0.5 1.4 1.8 0.5 0.9 0 0.8-0.1 0.7-0.3 0.4-0.4 0.3-0.5 0.2-0.8 0.1-0.6 0-0.8-0.1-0.5 0-0.5 0.2-1.7 1.3-0.5 0.4-0.7 1.1-1.8 1.9-1.8 2.4-0.9 1-0.9 0.7-0.4 0.2-0.4 0-0.3-0.1-0.5-0.3-0.8-0.8-0.3-0.3-0.5-0.2-0.5 0-0.6-0.1-1.1-0.2-0.6-0.2-1.9-0.2-1.6-0.6-0.6 0.1-0.7 0.2-1 0.6-0.6 0.6-0.7 0.7-0.3 0.4-0.2 0.4 0 0.3 0 0.3-0.1 0.1-0.6 0.4-1.1 1.2-1.8 2.8-0.3 0.4-0.2 0.2-0.3 0-1 0-0.8-1.1-0.3-0.2-0.5-0.2-5.7-1.2-1.4 0-1.3-0.1-0.8 0-0.6 0.2-1.6 1-0.5 0.3-0.7 0.3-0.5 0.3-1.1 0.9-0.8 0.5-1.1 0.5-0.5 0.3-0.3 0.4 0 0.4 0.2 0.3 1.4 1 0.5 0.4 0.4 0.4 0.1 0.4 0.1 0.3-0.2 0.3-0.7 1-0.6 1.6-0.7 1.3-1.1 2.6-0.3 0.6-0.8 0.7-0.7 0.4-1.4 0.3-0.5 0.3-1 0.3-0.1 0.3 0.1 0.3 0.6 0.8 0.2 0.1 0.1 0 0.2 0 0.2 0 0.2 0.1 0.1 0.2 0 0.3-0.3 0.2-0.2 0.2-0.2 0.2-0.1 0-0.5-0.5-0.5-0.2-0.5-0.3-1.6-0.4-3.3-0.4-1.2-0.3-1.1 0.1-0.9-1.4-0.1-0.3 0-0.5 0-0.1-0.2-0.5 0-0.2 0-0.2 0.1-0.2 0.1-0.2 0.1-0.1 0.1-0.1 0.1-0.1 0.2 0 0.1-0.1 0.1-0.1 0.1-0.2 0-0.2 0.1-0.4 0.1-0.2 0.1-0.2 1.4-1.6 0.1-0.1-0.1-0.1-0.1 0-0.1-0.1-0.4 0-0.3-0.1-0.5-0.2-1-1-0.4-0.4-0.2-0.2-0.2 0-0.3 0.1-0.5 0.3-0.1 0.1-0.2 0-0.1 0-0.1-0.2-0.1-0.3-0.1-0.9-0.1-0.2-0.1-0.1-0.3 0-0.2 0.1-0.2 0.1-0.1 0.1-0.2 0.1-0.2-0.1-0.3-0.1-0.6-0.6-0.2-0.2-0.1-0.2 0.1-0.1 1-1.5 0.2-0.4 0.3-0.4 0.3-0.2 0.4-0.3 0.3-0.3 0.1-0.2 0.1-0.2 0-0.1-0.1-0.1-0.1-0.2-0.2-0.2-2.6-1.5-0.1-0.2-0.2-0.2-0.1-0.2 0-0.2 0-0.2 0-0.2 0.1-0.2 0.1-0.2 0.2-0.3 0.5-0.5 0.1-0.1 0-0.1 0-0.1 0-0.1-0.1-0.2-0.1-0.1-0.4-0.5-0.6-0.4-0.2-0.1-0.3-0.2-0.3 0-0.4 0.1-0.7 0.3-0.3 0.2-0.3 0.2-1.1 1.2-0.6 0.4-0.3 0.2-0.7 0.3-1 0.2-0.9 0-1.9-0.1-0.1 0.1-0.2 0-0.1 0.1-0.1 0.1 0 0.1-0.1 0.6-0.3 0.6-0.2 0.5-0.2 0.2-0.2 0.2-0.2 0.2-0.2 0.2-0.4 0.3-0.1 0.1-0.3 0-0.3 0-0.4-0.1-0.4-0.1-0.4-0.2-0.7-0.9-1.3-3.3 0.3-0.7 0.1-0.4-0.1-0.7-0.3-0.5-0.7-0.7-1.3-2.1-0.4-1.1-0.2-1.1 0.2-1.2 0.4-0.6 0.4-0.5 0.5-0.9 0.1-1.1-0.3-1.1-0.4-1-0.3-1.5-0.5-0.7-0.8-0.4-1-0.1-0.7-0.3-0.4-0.6-0.3-0.9-0.2-0.8 0-2.3 0.6-2.3 1.1-1.9 1.6-1.3 1 0.4 0.8 0.1 1.8-0.1 0.8-0.3 1-0.9 0.8-0.3 0.7-0.1 1.4-0.5 1.7-0.3 1-0.8 0.7-0.2 0.4-0.2 1.7-1.3 0.3-0.4 0.7-1 0.4-0.4 1.3-0.6 3.3-1 1.4-1 0.3 0.6 0 0.4-1.1 3.4 0.3 0.8 0.4 0.5 0.6 0.4 0.6 0.6 0.7 1.5 0.4 0.4-0.9-2.5-0.7-0.5-0.2-0.4 0-0.3 0.3-0.5 0-0.3-0.1-1.4 0.2-1 0.4-0.8 1-0.5 2.3 0.7 2.6-1.5 3.7-3.3 1.1-0.3 3.9 0.3 0.4-0.1 1.3-0.5 0.5-0.1 1.5 0 0.7-0.1 0.6-0.3 1.3 0.6 1.5-0.2 1.5-0.5 1.4-0.3 1-0.5 4.1-5.5 0.8-0.4 1.3 0.5 1.1 0.8 0.7 1.2 0.3 1.3 0.2 1.5 1-0.5 0.6-0.8 0.2-1.1 0.2-2.3 0.3-0.7 0.5-0.5 0.6-0.8 0.1 0.5 0.3 0.2 0.5 0 0.5-0.3 0.5-0.5 0.1-0.4 0-0.4 0.2-0.6 0.9-1 0.9-0.1 2.2 0.8-0.4-0.8-0.9-0.3-1.2-0.1-0.8-0.3-0.4-0.8 0.2-0.7 0.5-0.7 2-2 0.3-0.7 0-0.8-0.2-0.7 0.1-0.6 3.2 2.1 1.1 1.6 1.6 1.3 0.6 0.9 0.5 1.2 0.8 1.1 1.1 0.8 1.2 0.4 0.9-0.1 0.7-0.2 0.6 0.1 0 1.1 0.3 0.5 1.1 1.2 0.3 0.9 0.8-0.5 0.8 0 3 0.7 0.4 0.3z m-23-10.2l0 0.5 0.1 0.4 0.3 0.6 0 1.9-0.2 2.2-0.8 1.4-1.3-0.6-0.5 0.6-0.6 0.5-1.1-0.8-0.8-0.9-0.2-1 0.8-1.2 4.3-3.6z" id="ECE" name="Esmeraldas">
  </path>
  <path d="M780.4 61l-0.3-0.1-0.8-0.6-1-1.1-0.9-0.5-0.5 0.1-0.7-0.6-0.2-0.2-0.4-1-0.2-1 0.2-3.1 0.4-1 1.3-2.1 0.3-1.2 0-1.7-0.2-0.9 0-0.8 0.1-0.4 1-0.8 0.6 0.4 5.1 5.7 1.3 1 1 0.5 3.2 0.8 1.1 0.6 7.1 5.4 2.2 1.1 3.9 0.1 3.7 1.4 0.6 0 0.2-0.1 0.3 0 0.5 0.5 0.2 0.6 0 0.6 0.1 0.6 0.6 0.5 1.2 0.5 1.2 0.2 1.1 0 1.1-0.2 4.3-1.6 1.3 0 1.7 1.3 0.3 3.9 1.2 1.7 3.5 2.4 2 0.8 1.6-0.2-0.2 0.2-1.9 1.5-0.9 0.2-1.1-0.4-0.3-0.1-1.5 0-0.5-0.1-0.8-0.2-0.5-0.1-0.3 0-0.3 0-0.1 0.2-0.2 0.2-0.1 0.6 0.1 0.3 0.1 0.3 0.6 0.5 0.3 0.2 0.1 0.3 0.1 0.3 0 0.2-0.2 0.3-0.4 0.4-2 1.5-0.4 0.4-3.8 4.8-0.4 0.7-0.3 0.7-0.1 0.9 0 0.5 0.2 0.7-0.3 0.7-1.2 1.3-1.3-0.6-0.9-1.2-0.7-0.5-2.5-1.4-2.2-1.5-2.5-1.4-1.9-0.5-0.9-0.1-1.1-0.2-0.7-0.5-0.4-0.3-2-0.4-0.6-0.8-0.3-1-0.1-1 0.1-1.5 0-0.5-1.2-3.1-2.1-2.7-1.4-2.5-1.3-1.5-1.7-1.5-2.4-1.6-1-0.9-0.4-0.2-0.7-0.2-2-0.2-1-0.3-0.8-0.4z" id="ECC" name="Carchi">
  </path>
  <path d="M814.4 89.5l1.2-1.3 0.3-0.7-0.2-0.7 0-0.5 0.1-0.9 0.3-0.7 0.4-0.7 3.8-4.8 0.4-0.4 2-1.5 0.4-0.4 0.2-0.3 0-0.2-0.1-0.3-0.1-0.3-0.3-0.2-0.6-0.5-0.1-0.3-0.1-0.3 0.1-0.6 0.2-0.2 0.1-0.2 0.3 0 0.3 0 0.5 0.1 0.8 0.2 0.5 0.1 1.5 0 0.3 0.1 1.1 0.4 0.9-0.2 1.9-1.5 0.2-0.2 0.2-0.1 2.3 0.6 0.7 2.6 0.4 5.7 0.4 1.8 0.3 1.7 0.5 1.3 1.5 1.2 1.9 0.7 5.8 1.1 1 0.4 0.8 0.4 0.8 0.3 1.2-0.1 2.7-1 1-0.2 0.7 0.2 1.1 0.3 2.1 2.3 1.6 0.5 2.2 0.1 0.7 0.1 0.9 0.3 0.5 0.4 1.2 1.2 0.9 0.7 0.8 0.3 0.8 0 3.8-0.6 0.7 0.1 1.9 0.9 0.8-0.1-0.1-2.1 0.6-0.3 1.9 0.5 2.7 0.3 0.7 0.3 0.9 0.6 1.4 1.3 1.1 0.4 0.8-0.1 1.4-0.8 5.3-0.6 1-0.6-0.6-3.6 0.2-4.1-0.1-0.3 0.6 0.1 1.1-0.1 0.6-0.1 0.5-0.2 1.3-1.6 0.3-0.3 0.3-0.1 1-0.8 0.6-0.1 0.6 0.2 1.5 1.6 1 0.7 1.1 0.4 1.1 0.3 1.4 0.1 1.2-0.1 0.6 0.1 0.4 0.2 0.3 0.5 0.3 1.5 0.3 0.4 1 0 1.4-0.5 1.2-0.1 0.5 0.8 0.3 0.6 3.6 4.6 0.3 0.7 0.2 1 0.6 0.9 1.3 1.3 3.3 2 0.5 0.7 2.2 1.6 1.5 0.9 0.9 0.3 1 0.3 1.2 0.1 1.3-0.1 2.3-0.5 1-0.2 1.1 0.4 0.9 0.8 0.7 0.7 0.5 0.4 1 0.3 2.5 2.3 3.2 1.9 1.3 0.5 1 0.7 3.1 0.6 3.4 1.3 1 0.6-0.6 0.8-1.3 0.9-0.7 0.3-0.7 0.2-0.8 0.1-1.9-0.3-0.5 0.1-1.4 0.9-1.4-0.1-3.8-2.1-0.8-0.1-0.7-0.1-1 0.1-0.8-0.1-1-0.4-1-0.3-0.8 0.3-0.3 0.9 0.3 1.2 0.5 1.1 0.5 0.6 0.5 0.1 1.2-0.1 0.5 0.1 0.7 0.3 1.1 1.1 0.7 0.4 1.1 0.3 0.9 0.6 0.6 0.8 1.7 6.1 1 2.3 1.6 2.1 1 1 0.6 0.4 0.6 0 0.6 0 0.3 0.2 0.3 0.3 2.1 1.6 0.2 0.3 0.3 0.6 0.2 0.3 0.3 0 0.5-0.3 0.2 0.1 0.6 1 0.2 1-0.1 2.1 0 0.5 0.1 0.4 0.1 0.4-0.1 0.5-0.5 0.5-0.8 0-0.2-0.1-0.1-0.3 0.1-0.7 0-0.1-0.2-0.1-0.3 0.1-0.5 0.1-0.6 0-1.9-0.6-0.8-0.4-0.6 0-0.4-0.1-0.3-0.4-0.2-0.5-0.1-0.5-0.2-0.4-0.3-0.2-0.8 0-0.5-0.2-0.6-0.3-0.6-0.2-2.5-0.1-0.3 0.1-0.5 0-1.7-0.6-0.7-0.5-0.3-0.3-0.2-0.4-0.2-0.3-0.1-0.6-0.1-0.3-0.2-0.1-0.5 0.3-0.2-0.1-0.2-0.3-0.1-0.3-0.3-0.3-0.7-0.4-1.1-0.5-0.7-0.4-0.5-0.2-0.5 0.1-0.5 0.2-0.8 0.2-0.6 0-0.7-0.3-0.3-0.4-0.5-0.8-0.3-0.3-0.5-0.4-0.4-0.1-0.5 0.2-0.6 0.2-0.6 0.1-1.3 0-0.5 0.1-0.5 0.2-0.5 0-0.6-0.1-0.6-0.5-0.8-0.4-1-0.3-1.7 0-0.9 0.2-0.7 0.4-0.1 0.5-0.1 0.9 0.6 4.4 0.2 0.7 0.3 0.4 0.1 0.2-0.1 0.2-0.3 0.2-0.6-0.1-1.3-0.1-1.2-0.3-1.2-0.7-2.3-1.6-1-0.5-0.3-0.3-0.2-1.3-0.3-0.7-0.3-0.6-0.3-0.3-5.1-0.3-4.2 0.4-0.5 0.1-1.1 0.6-1.8 0.5-0.5 0.2-2.1 1.6-1.3 0.6-0.6-0.5-0.4-0.8-0.9-0.2-2.1 0-1-0.5-2.8-2.1-1.2-1.6-1.3 0.4-1.2 0.7-0.6-0.8-0.2-0.5-0.5-0.5-3.1-2.2-0.6-0.5-0.3-0.4-0.1-0.3-0.6-0.8-0.5-0.6-1-1.5-0.1-0.3 0-0.5-0.1-0.2-0.2-0.3-1.7-1.4-5.5-6.6-0.5-0.9-0.4-0.5-0.8-0.5-0.7-0.2-1.4 0.3-0.9 0.3-0.7 0.4-0.7 0.4-0.8 0.4-1.1 0.2-1.4 0-3-0.9-0.9-0.1-0.9 0.1-0.6 0.3-0.6 0.1-0.7-0.1-1.6-1.1-1.4-0.8-0.9-0.3-0.8-0.2-0.8 0.6-1.4 1.7-0.4 0.7-0.6 1.1-0.3 0.5-0.4 0.3-0.3 0.2-0.6 0-1-0.1-2.5-0.6-0.5-0.2-0.1-0.3 0-0.4 0.1-0.3 0.1-0.4 0-0.2 0-0.3-0.2-0.5 0-0.2 0.1-0.3 0.1-0.3 0.1-0.3-0.1-0.2-0.1-0.3-0.2-0.4-0.2-0.5-0.2-0.4-0.4-0.2-0.6 0.3-0.7 0.5-0.3 0.1-0.2 0.1-0.2 0.2-0.2 0.3-0.3 0.3-0.5 0.2-1 0.1-0.6 0.4-1.1 1.2-0.6 0.4-0.4 0.1-0.6-0.4-0.7-0.3-1.5-0.4-5.4-0.1-1-0.2-0.7-0.5-0.4-1-0.3-1.8 0-0.5 0.1-0.3 0-0.1 0.1-0.1 0.1-0.1 0-0.2 0-0.1 0-0.1 0-0.1-0.5-0.3-2.4-0.6-0.6-0.2-0.3-0.2 0-0.1-0.1-0.1-0.1-0.6-0.1-0.5-0.2-0.3-0.3-0.3-0.8-0.4-0.2-0.1-0.2-0.1-0.3 0-0.7-0.3-1.5-0.7-0.1 0-0.2 0-0.1 0-0.1 0-0.6-0.2-0.6-0.2-0.2-0.1-0.1-0.1-0.1-0.1 0-0.1 0.1 0 1.3-2.3 1.9-2 0.8-0.5 0.3-0.1 0.2-0.1 0.3-0.1 0.2-0.2 0.2-0.3 1-1.4 0.7-0.8 0.2-0.1 0.2-0.2 0-0.2-0.1-0.2-0.1-0.1-0.2-0.1-0.1 0-0.1 0-0.1 0-0.1-0.1-0.1-0.1 0-0.1 0-0.4 0.3-0.7 1.7-2.2z" id="ECU" name="Sucumbios">
  </path>
  <path d="M842.3 111.4l0.8-0.6 0.8 0.2 0.9 0.3 1.4 0.8 1.6 1.1 0.7 0.1 0.6-0.1 0.6-0.3 0.9-0.1 0.9 0.1 3 0.9 1.4 0 1.1-0.2 0.8-0.4 0.7-0.4 0.7-0.4 0.9-0.3 1.4-0.3 0.7 0.2 0.8 0.5 0.4 0.5 0.5 0.9 5.5 6.6 1.7 1.4 0.2 0.3 0.1 0.2 0 0.5 0.1 0.3 1 1.5 0.5 0.6 0.6 0.8 0.1 0.3 0.3 0.4 0.6 0.5 3.1 2.2 0.5 0.5 0.2 0.5 0.6 0.8 1.2-0.7 1.3-0.4 1.2 1.6 2.8 2.1 1 0.5 2.1 0 0.9 0.2 0.4 0.8 0.6 0.5 1.3-0.6 2.1-1.6 0.5-0.2 1.8-0.5 1.1-0.6 0.5-0.1 4.2-0.4 5.1 0.3 0.3 0.3 0.3 0.6 0.3 0.7 0.2 1.3 0.3 0.3 1 0.5 2.3 1.6 1.2 0.7 1.2 0.3 1.3 0.1 0.6 0.1 0.3-0.2 0.1-0.2-0.1-0.2-0.3-0.4-0.2-0.7-0.6-4.4 0.1-0.9 0.1-0.5 0.7-0.4 0.9-0.2 1.7 0 1 0.3 0.8 0.4 0.6 0.5 0.6 0.1 0.5 0 0.5-0.2 0.5-0.1 1.3 0 0.6-0.1 0.6-0.2 0.5-0.2 0.4 0.1 0.5 0.4 0.3 0.3 0.5 0.8 0.3 0.4 0.7 0.3 0.6 0 0.8-0.2 0.5-0.2 0.5-0.1 0.5 0.2 0.7 0.4 1.1 0.5 0.7 0.4 0.3 0.3 0.1 0.3 0.2 0.3 0.2 0.1 0.5-0.3 0.2 0.1 0.1 0.3 0.1 0.6 0.2 0.3 0.2 0.4 0.3 0.3 0.7 0.5 1.7 0.6 0.5 0 0.3-0.1 2.5 0.1 0.6 0.2 0.6 0.3 0.5 0.2 0.8 0 0.3 0.2 0.2 0.4 0.1 0.5 0.2 0.5 0.3 0.4 0.4 0.1 0.6 0 0.8 0.4 1.9 0.6 0.6 0 0.5-0.1 0.3-0.1 0.2 0.1 0 0.1-0.1 0.7 0.1 0.3 0.2 0.1 0.8 0-0.6 0.3-0.6 0.4-0.3 0.6 0.1 0.6 0.2 1 0 0.5-0.1 0.6-0.3 0.9 0 0.7 2.4 8.2 0 0.5-0.1 0.9 0.1 0.5 0.4 0.6 0.5 0.5 0.4 0.5 0 0.4-0.4 0-2.6 0-2.3 0.3-1.2 0-0.6-0.5-0.3-0.5-0.7-0.9-1.6-1.4-0.3 0.5-0.7 2.7-1.6 6.4-1.6 6.3-1.7 6.4-1.6 6.4-0.8 3.2-0.7 1.8-0.4 0.5-0.6-1-0.2-1.2-0.4-0.5-0.4-0.2-0.4 0-0.6-0.2-0.3-0.4-0.4-0.1-0.3 0-0.3-0.4-1.6-0.6-0.5-0.1-0.3-0.2-0.1-0.2-0.1-0.3-0.1 0-0.2 0.1-0.3 0.3-0.3 0.1-0.2-0.2-0.2-0.4-0.5-0.7-0.4-0.8-0.2-0.2-0.1-0.4-0.3-0.2-0.7 0-0.7-0.2-0.8-0.1-0.3-0.1-0.2-0.2-0.2-0.2-0.4-0.2-0.4-0.1-0.3 0-0.4 0.1-0.1-0.1 0-0.1-0.1-0.4-0.4-0.8-0.3-0.2-1.4-0.4-0.2-0.2-0.1-0.3 0.2-0.2 0-0.3-0.2 0-0.2 0-0.4 0.1-0.2 0.1 0 0.2 0.1 0.3-0.1 0.2-0.2 0.1-0.3 0.1-0.5-0.1-1 0-0.9-0.1-0.7-0.4-0.4-0.4-0.3-0.1-0.6 0-0.3-0.2-0.3-0.4-0.4-0.4-0.6-0.2-0.7-0.1-0.5-0.3-0.4-0.1-0.2 0-0.1 0.2-0.3 0-0.1-0.1 0-0.3 0-0.3-0.1-0.3-0.2-0.3-0.1-0.1-0.2 0.1-0.1 0.2-0.3 0.1-0.6 0-0.9-0.5-0.6 0-0.3 0.1 0 0.2-0.2 0-0.1-0.2-0.1-0.1-0.2 0-0.2 0.2-0.5 0.5-0.2 0.2-0.2 0.2-0.1 0-0.4 0-0.2 0-0.4 0-0.1-0.1-0.3-0.3-0.3 0-1 0.2-0.4-0.3-0.3 0-0.3 0.1-0.2 0.2-0.3 0.1-0.3-0.1-0.1-0.2-0.1-0.2-0.2 0-0.2 0.2-0.1 0.3-0.3 0.2-0.2-0.1-0.2 0-0.1 0.1-0.1 0.1-0.4 0.2-0.2 0.2-0.1 0.2-0.2 0.2-0.1-0.1 0-0.4-0.2-0.1-0.5-0.2-0.8-0.1-1.3-0.3-0.8-0.2-0.3-0.1 0-0.2 0.2-0.2-0.1-0.2-0.2-0.3-0.2-0.2-0.2-0.1-0.3 0-0.4 0-0.4-0.2-0.3-0.3-0.3 0-0.4 0.1-0.3 0.2-0.7 0.1-0.5-0.1-0.6 0.1-0.2-0.1 0-0.2 0-0.3 0-0.1-0.2 0-0.2 0.2-0.4 0-0.3-0.1-0.3-0.4-0.1-0.4 0-0.3-0.2-0.2-0.2-0.3-0.5-0.4-0.3-0.3-0.2-0.4-0.5-0.6-0.3-0.8-0.1-1.2 0-2.1 0.2-0.7 0-0.8-0.2-0.7-0.7-0.7-0.7-0.4-1-0.3-0.9-0.1-0.8 0.1-1.4 0.4-1 0.2-0.2 0.2-0.5 0.6-0.2 0.2-0.5 0.1-0.6 0.1-1 0.3-1.1 0.2-1.4 0-0.4 0.1-0.7 0.4-0.5 0.1-0.8-0.2-0.6-0.3-0.5-0.1-0.3 0.1-1 0.9-0.4 0.5-0.1 0.6-0.1 0.6-0.2 0.6-0.3 0.4-1 0-5.2-2.1-4.4-1-0.6-0.3-0.4-0.6-0.3-1.5-0.2-0.5-0.1-0.3 0.1-0.4 1.1-1.2 0.5-1.2-0.5-0.6-0.3-0.3-0.2-0.4 0.1-0.4 0.9-0.8 0.4-0.6 0-0.3-0.3-0.3-0.7-0.2-2.3-0.3-0.9-0.4-2.5-1.7-0.5-0.2-0.4-0.2-0.6-0.2-0.3-0.5-0.2-0.9 0.1-0.8 0.4-0.9 0.6-0.9 2.6-2.5 0.5-0.6 0.2-0.6-0.1-0.3-0.4-0.3-0.8 0-0.7 0.5-0.7 0.3-2.4 2.3-1.3 2.6-0.8 0.9-0.4 0.2-2 0.7-8.5 4.1-0.6 0.5-1.1 0.2-0.1 0.2-0.9 0.4-1.1 0.2-1.3 0.1-1.2-0.2-0.7-0.4 0-0.5 0.5-0.5 0.5-0.6 0.4-0.7 1.3-3.1 0.1-0.8-0.4-1.7 0-0.8 0.4-1 0.4-0.9 0.4-0.6 0.7-1.1 0.2-0.5-0.1-0.7-0.4-1.4-0.3-0.5-0.4-0.4-0.8-0.5-0.2-0.3-0.6-1.2-1.5-1.9-0.6-0.5-0.6-0.3-0.5-0.1-0.7-0.4-0.1-0.4 0-0.5 0.3-0.4 0.6-0.4 1.7-1 0.3-0.4 0.3-0.4-0.1-0.7 0-0.4 0.2-0.4 0.5-0.1 0.7 0.2 2.3 1.5 1.2 0.5 1.4 0.5 1 0.1 0.7-0.1 0.6-0.2 0.5-0.4 1.3-2.2 0.6-1.3 0.2-0.4 0.3-0.2 0.3 0 0.7 0.2 0.2-0.1 0.2-0.3-0.1-0.9 0.1-0.4 0.1-0.4 1.7-0.7 0.6-0.3 0.4-0.4 0.2-0.5 0-0.9 0.1-0.3 0.2-0.3 0.4-0.3 0.1-0.5 0.1-0.8-0.5-1 0-0.2 0.2-0.3 0-0.3 0.1-0.4-0.2-0.4-0.6-1-0.7-0.9-0.4-0.5-0.3-0.6 0-0.5 0.2-0.8 0.1-1.5 0.2-0.5-0.6-3.9z" id="ECD" name="Orellana">
  </path>
  <path d="M935.4 192l-0.9 1.1-2.9 2.7-2.2 2.6-2.7 3.1-2.7 3.2-2.7 3.1-2.7 3.2-2.7 3.1-2.7 3.2-2.7 3.1-2.8 3.2-3.2 2.5-3.2 2.4-3.2 2.5-3.3 2.5-3.2 2.5-3.2 2.4-3.3 2.5-3.2 2.5-3.1 2.4-2.4 1.4-0.8-0.2-1.1 0.5-1.1 0.4-2.3-1.1-1.9-0.4-0.7-0.4-0.8-0.7-0.7 0-1.6 0.5-2.4 0.1-2.3-0.7-1.8-1.2-1.3-1.5-0.7-1.9-0.1-0.2-0.1-0.5-0.4-0.4-0.4-0.2-0.5-0.8-1.9-2.3-1-1.8-0.6-0.8-0.8-0.3-0.9-0.3-12.5-8-14.9-6.4-1.9-0.4-0.9-0.4-0.7-0.6-0.3-0.9-0.2-0.9-0.4-0.8-0.7-0.7-1-0.3-2.2-0.6-0.9-0.5-0.5-0.6-0.2-0.8-0.1-1.6-0.3-0.8-0.8-1.3-0.2-0.8 0-1.1-0.1-0.5-1-1.6-0.7-3.6-0.7-1.2-0.8-0.6-1-0.1-2.5 0.6-0.8 0.1-0.7-0.6-0.5-1.3-0.5-1.8-1.6-4.3-0.5-0.8-0.7-0.8-0.7-0.8-1.3-1.1-2.4-0.5 1.3-1.2 1.5-2.8 0.2-0.8 0.2-0.8-0.1-5.9 2.7 0.2 1.5-0.1 3.9-0.7 1.3 0 0.8 0.2 0.6 0.2 0.5 0.3 0.5 0.1 0.4-0.3 0.3-0.8 0.2-0.2 0.3 0 0.4 0.2 0.5 0.2 0.7 0.2 0.8-0.2 1.3-0.6 2.1-1.5 0.6-0.2 1.1-0.5 0.7-0.1 1-0.6 0.6-0.3 0.7-0.1 0.7-0.1 0.7-0.1 0.8 0.2 0.5 0 0.6 0 0.7-0.3 0.7-0.2 2.6-0.2 4.8-2.2 0.7-0.4 0.6-0.2 1.8 0 1.5-0.3 5.2-1.6 1.2-0.7 0.6-0.4 0.6-0.2 0.8-0.2 9-0.6-1.1 1.2-0.1 0.4 0.1 0.3 0.2 0.5 0.3 1.5 0.4 0.6 0.6 0.3 4.4 1 5.2 2.1 1 0 0.3-0.4 0.2-0.6 0.1-0.6 0.1-0.6 0.4-0.5 1-0.9 0.3-0.1 0.5 0.1 0.6 0.3 0.8 0.2 0.5-0.1 0.7-0.4 0.4-0.1 1.4 0 1.1-0.2 1-0.3 0.6-0.1 0.5-0.1 0.2-0.2 0.5-0.6 0.2-0.2 1-0.2 1.4-0.4 0.8-0.1 0.9 0.1 1 0.3 0.7 0.4 0.7 0.7 0.2 0.7 0 0.8-0.2 0.7 0 2.1 0.1 1.2 0.3 0.8 0.5 0.6 0.2 0.4 0.3 0.3 0.5 0.4 0.2 0.3 0.2 0.2 0 0.3 0.1 0.4 0.3 0.4 0.3 0.1 0.4 0 0.2-0.2 0.2 0 0 0.1 0 0.3 0 0.2 0.2 0.1 0.6-0.1 0.5 0.1 0.7-0.1 0.3-0.2 0.4-0.1 0.3 0 0.3 0.3 0.4 0.2 0.4 0 0.3 0 0.2 0.1 0.2 0.2 0.2 0.3 0.1 0.2-0.2 0.2 0 0.2 0.3 0.1 0.8 0.2 1.3 0.3 0.8 0.1 0.5 0.2 0.2 0.1 0 0.4 0.1 0.1 0.2-0.2 0.1-0.2 0.2-0.2 0.4-0.2 0.1-0.1 0.1-0.1 0.2 0 0.2 0.1 0.3-0.2 0.1-0.3 0.2-0.2 0.2 0 0.1 0.2 0.1 0.2 0.3 0.1 0.3-0.1 0.2-0.2 0.3-0.1 0.3 0 0.4 0.3 1-0.2 0.3 0 0.3 0.3 0.1 0.1 0.4 0 0.2 0 0.4 0 0.1 0 0.2-0.2 0.2-0.2 0.5-0.5 0.2-0.2 0.2 0 0.1 0.1 0.1 0.2 0.2 0 0-0.2 0.3-0.1 0.6 0 0.9 0.5 0.6 0 0.3-0.1 0.1-0.2 0.2-0.1 0.1 0.1 0.2 0.3 0.1 0.3 0 0.3 0 0.3 0.1 0.1 0.3 0 0.1-0.2 0.2 0 0.4 0.1 0.5 0.3 0.7 0.1 0.6 0.2 0.4 0.4 0.3 0.4 0.3 0.2 0.6 0 0.3 0.1 0.4 0.4 0.7 0.4 0.9 0.1 1 0 0.5 0.1 0.3-0.1 0.2-0.1 0.1-0.2-0.1-0.3 0-0.2 0.2-0.1 0.4-0.1 0.2 0 0.2 0 0 0.3-0.2 0.2 0.1 0.3 0.2 0.2 1.4 0.4 0.3 0.2 0.4 0.8 0.1 0.4 0 0.1 0.1 0.1 0.4-0.1 0.3 0 0.4 0.1 0.4 0.2 0.2 0.2 0.2 0.2 0.3 0.1 0.8 0.1 0.7 0.2 0.7 0 0.3 0.2 0.1 0.4 0.2 0.2 0.4 0.8 0.5 0.7 0.2 0.4 0.2 0.2 0.3-0.1 0.3-0.3 0.2-0.1 0.1 0 0.1 0.3 0.1 0.2 0.3 0.2 0.5 0.1 1.6 0.6 0.3 0.4 0.3 0 0.4 0.1 0.3 0.4 0.6 0.2 0.4 0 0.4 0.2 0.4 0.5 0.2 1.2 0.6 1z" id="ECY" name="Pastaza">
  </path>
  <path d="M876.4 247.2l-0.8 0.5-5 1.7-6.8 2.4-6.8 2.4-6.8 2.4-6.8 2.4-6.8 2.4-6.8 2.4-6.9 2.3-6.8 2.4-1.5 0.5-2.1 0.8-1 0.5-4 3.5-5.4 7.3-2.7 2.2-0.7 0.8-1.7 3.2-0.7 1-1.9 1.5-0.7 0.7 0 1.2 0.6 1 0.9 0.6 0.7 0.8 0.1 1.5-0.5 1.1-0.8 0.4-1 0.2-0.9 0.7-0.7 0.3-0.5-1-0.8-3.4-0.4-0.9-0.6-0.5-2.4-0.7-1.1-0.1-0.9 0.3-0.6 1 0 0.3 0.4 1.1-0.1 0.6-0.4 2.3-0.7 2.2-6.8 0-4 0.7-1 0-2.1-0.2-0.7 0.1-0.5 0.1-0.3 0.2-0.2 0.3-0.5 1-0.2 0.3-0.4 0.3-0.4-0.1-0.9-0.4-0.6-0.2-1.8-0.3-2.3-0.6-1.5-0.2-0.6-0.3-0.3-0.3 0-0.4-0.2-0.3-0.2-0.3-0.4-0.4-0.3-0.4-0.2-0.3-0.2-0.4-0.1-0.5 0-0.9-0.3-0.8 0-0.4 0.1-0.3 0.2-0.4 0.2-0.3 0.6-0.5 0.3-0.3 0.1-0.3 0-0.4-0.1-0.4-0.4-0.4-4.5-3.2-0.3-0.9 0.1-0.4 0.3-0.6 6.7-5.3 1.1-1.1 2-0.6 1.8-1 1.4-1.1 1.4-1.6 0.5-0.9 0.2-1-0.1-0.8 0-0.9 0.2-0.8 1.3-2.7 0.2-0.6 0.3-0.9 2.6-4.2 0.3-0.8 0-0.5-0.2-0.5-0.4-0.6-0.5-0.5-0.3-0.4-0.2-0.4 0.1-0.4 1.7-3.1 0.5-0.6 0.5-0.5 6-3 0.6-0.5 0.2-0.5 0-0.5-0.1-0.4-0.2-0.5-0.4-0.4-1.7-1.2-0.3-0.2-0.5 0-0.5 0.2-0.5 0.2-0.6 0.5-0.3 0.6-0.2 0.6-0.1 0.6-0.2 0.3-0.4 0-0.5-0.2-0.4-0.4-0.2-0.5-0.1-0.6 0.3-1.6 0.4 0.2 0.2 0 0.2 0 0.1-0.1 0.3-0.1 0.5-0.7 1.3-2 0.2-0.4 0.1-0.4 0-0.7 0-0.5 0.3-1-0.1-3.1 0.1-0.6 0.1-0.5-0.4-0.6-0.8-0.6-3.3-1.5-0.8-0.4 0-0.6 1.9-1.3 0.3-0.5 0.2-0.7 0-0.6 0.3-0.8 0.5-0.5 0.9-0.7 0.3-0.4 0-0.3-0.2-0.3-0.1-0.3-0.2-2.1 0.4-1.5 0.5-0.9 0.8-0.6 0.8-0.4 0.7-0.5 0.1-0.4-0.5-1.1-0.2-0.6 0-1.3-0.2-0.7-0.4-0.5-0.4-0.3-0.4-0.4-0.2-0.4 0-0.7 0.2-0.6 1.4-2.3 2.2-2.4 0.2-0.7-0.4-1.6-0.2-1.3-0.2-0.5-0.3-0.3-0.3-0.3-0.2-0.5-0.2-0.8-0.1-1 0-1.1 0.1-0.6 0.3-0.5 0.3-0.3 0.3-0.4 0.4-0.3 0.4-0.6 0.4-0.5 0.5-0.4 1.3-0.7 0.5-0.4 0.4-0.5 0.2-0.5 0.1-0.6-0.1-0.5-0.5-1.5 0-0.8 0.1-0.4 0.5-0.9 0.9-1.2 0.6-0.4 1.1-0.6 0.7-0.2 1.9 0.3 1.3 0 0.8-0.3 0.9-0.4 0.5-0.4 1.1-1.1 2.4 0.5 1.3 1.1 0.7 0.8 0.7 0.8 0.5 0.8 1.6 4.3 0.5 1.8 0.5 1.3 0.7 0.6 0.8-0.1 2.5-0.6 1 0.1 0.8 0.6 0.7 1.2 0.7 3.6 1 1.6 0.1 0.5 0 1.1 0.2 0.8 0.8 1.3 0.3 0.8 0.1 1.6 0.2 0.8 0.5 0.6 0.9 0.5 2.2 0.6 1 0.3 0.7 0.7 0.4 0.8 0.2 0.9 0.3 0.9 0.7 0.6 0.9 0.4 1.9 0.4 14.9 6.4 12.5 8 0.9 0.3 0.8 0.3 0.6 0.8 1 1.8 1.9 2.3 0.5 0.8 0.4 0.2 0.4 0.4 0.1 0.5 0.1 0.2 0.7 1.9 1.3 1.5 1.8 1.2 2.3 0.7 2.4-0.1 1.6-0.5 0.7 0 0.8 0.7 0.7 0.4 1.9 0.4 2.3 1.1 1.1-0.4 1.1-0.5 0.8 0.2z" id="ECS" name="Morona Santiago">
  </path>
  <path d="M753.5 288.3l4.5 3.2 0.4 0.4 0.1 0.4 0 0.4-0.1 0.3-0.3 0.3-0.6 0.5-0.2 0.3-0.2 0.4-0.1 0.3 0 0.4 0.3 0.8 0 0.9 0.1 0.5 0.2 0.4 0.2 0.3 0.3 0.4 0.4 0.4 0.2 0.3 0.2 0.3 0 0.4 0.3 0.3 0.6 0.3 1.5 0.2 2.3 0.6 1.8 0.3 0.6 0.2 0.9 0.4 0.4 0.1 0.4-0.3 0.2-0.3 0.5-1 0.2-0.3 0.3-0.2 0.5-0.1 0.7-0.1 2.1 0.2 1 0 4-0.7 6.8 0-0.1 0.3-1 2.2-0.3 1.1-0.2 1 0.1 2 0.2 1.1 0 0.5-0.5 0.3-0.6 0.1-0.3 0.1 0 0.3 0 0.7 0.7 3.5-0.4 1-1.3 1.3-0.4 0.3-0.7 0.3-0.3 0.3-0.6 1-0.4 1.1-0.5 4 0 0.3-0.2 0.3-0.8 0.4-0.7 0.2-0.6 0.1-0.6 0.1-0.6 0.6-0.2 0.9 0 3.2-0.6 2.4-3.3 6.9-0.5 2.4-0.5 1.1-0.9 0.8-0.5 1.1 0.1 2.1 0.4 2 0.7 1 1.3 0.8-0.2 0.9-0.8 1-0.8 1.3-0.2 1 0.1 1.1-0.1 1-0.5 0.9-1.4 1-0.6 0.4-5 1.9-2.2 1.3-2.5 2.3-1 1.4-0.6 1.5 0 1.5 1.2 2.4 0.3 1.3-0.6 1.1-1.2 0.3-1.4 0-1.1 0.3-0.6 0.9-0.6 2.6-0.4 1.1-1.4 1.5-1.6 1.3-1-1-0.6-0.4-0.5-0.3-0.6 0-0.9 0.2-0.5 0-1-0.2-1.8-0.6-0.9-0.2-1.4 0-2.5 0.1-1.2-0.3-0.8-0.9-0.6-1.2-0.7-1-0.4-0.3-1.1-0.4-0.5-0.3-0.3-0.5-0.3-1.1-0.3-0.5-1-0.7-1.1-0.6-0.9-0.7-0.4-1.2-0.2-1 0.5-0.2 2.4-2.5 1.8-2.9 0.7-0.8 1.6-2.4 0.4-0.6 0.2-0.8 0.1-0.6-0.2-0.9-0.1-0.6 0.4-1.6 0.8-0.7 0.3-0.4 0.3-0.6 0.4-0.3 0.4-0.1 0.6 0.1 0.6 0.3 0.7 0.1 0.5 0.2 0.5 0.4 0.5 0.4 0.5 0 0.3-0.3 0.3-0.5 0.3-0.3 0.5-0.1 0.4-0.1 0.5-0.2 0.3-0.3 0.5-0.8 0.8-1.1 0.6-0.6 0.3-0.4 0.2-0.5 0.3-1.7 0.1-1.1-0.1-1.4-0.1-0.6 0.4-3.1-0.1-1.4 0.1-0.7-0.1-0.9 0-0.5-0.1-0.4-0.7-0.7-0.1-0.3-0.3-0.2-0.2-0.2-0.6-0.2-0.2-0.2-0.1-0.1-0.2-0.2-0.1-0.3-0.2-0.4 0-0.8 0.2-1.1 0.8-3.1 0-0.8-0.2-1.6-0.1-1.3 0.1-1.7 0.4-1.2 0.5-1.1 0.2-0.7 0-0.5-0.1-0.9-0.1-0.5-0.7-1.1-1-1.2-0.5-0.8-0.8-1.8-0.5-1-0.2-0.4-0.1-0.5 0.1-0.4 0.2-0.3 0.2-0.1 0.3 0 0.3 0 0.6 0 0.3-0.2 0.2-0.2 0.3-0.3 0-0.3 0-0.8 0.2-0.4 0.8-0.6 0.4-0.2 1.1-1.4 0.9-0.1 0.4-0.1 0.4-0.2 0.3-0.5 0.2-0.5 0.6-3.1-0.3-2 0-0.6 0.1-0.6 0.4-1 0-0.5-0.2-0.3-0.3-0.3-0.2-0.8-0.1-0.5 0.1-0.5 0.2-0.5 0.5-0.7 0.7-0.7 1-0.7 3-1.8 1.1-1z" id="ECZ" name="Zamora Chinchipe">
  </path>
  <path d="M744.7 305.3l-1.1 1.4-0.4 0.2-0.8 0.6-0.2 0.4 0 0.8 0 0.3-0.3 0.3-0.2 0.2-0.3 0.2-0.6 0-0.3 0-0.3 0-0.2 0.1-0.2 0.3-0.1 0.4 0.1 0.5 0.2 0.4 0.5 1 0.8 1.8 0.5 0.8 1 1.2 0.7 1.1 0.1 0.5 0.1 0.9 0 0.5-0.2 0.7-0.5 1.1-0.4 1.2-0.1 1.7 0.1 1.3 0.2 1.6 0 0.8-0.8 3.1-0.2 1.1 0 0.8 0.2 0.4 0.1 0.3 0.2 0.2 0.1 0.1 0.2 0.2 0.6 0.2 0.2 0.2 0.3 0.2 0.1 0.3 0.7 0.7 0.1 0.4 0 0.5 0.1 0.9-0.1 0.7 0.1 1.4-0.4 3.1 0.1 0.6 0.1 1.4-0.1 1.1-0.3 1.7-0.2 0.5-0.3 0.4-0.6 0.6-0.8 1.1-0.5 0.8-0.3 0.3-0.5 0.2-0.4 0.1-0.5 0.1-0.3 0.3-0.3 0.5-0.3 0.3-0.5 0-0.5-0.4-0.5-0.4-0.5-0.2-0.7-0.1-0.6-0.3-0.6-0.1-0.4 0.1-0.4 0.3-0.3 0.6-0.3 0.4-0.8 0.7-0.4 1.6 0.1 0.6 0.2 0.9-0.1 0.6-0.2 0.8-0.4 0.6-1.6 2.4-0.7 0.8-1.8 2.9-2.4 2.5-0.5 0.2-1.4-2.7-0.6-3.2-1.6-2.3 0-1.2 1.3-2.2 0.1-0.8-0.3-0.5-1.1-0.7-1.3 0-0.3-0.2-0.8-0.5-0.4-0.2-2.7-2.7-1.5-0.8-2 0.3-1.9 1.1-3.6 1.1-2-0.3-1.4-1.4-1.1-1.7-1.4-1.3-1.4-0.3-1.4 0-1.4-0.2-1.5-0.8-1-0.8-1.8-1.9-1-0.8-0.9-0.4-1.1-0.2-0.9-0.3-0.4-0.5-0.1 0-2.2 0.3-0.6 0.2-0.6 0.3-0.4 0.3-0.5 0.8-0.5 1.9-0.4 0.9-0.9 0.9-4.2 3.2-2.2 1.2-0.5 0.5-0.4 0-1 0-0.9-0.3-2.4-1.4-0.8-0.6-0.4-1.2 0.2-0.9 7.1-9.5 0.6-1.2-2.5 0.3-2.3 0.7-1.9-0.2-1.1-2.4 0-0.5 0.2-1.1 0-0.5-0.3-0.7-0.9-1.2-0.3-0.7 0.1-1 0.5-1.4 0.6-1.3 0.6-0.9 0.8-0.6 1-0.3 1.1 0 1.1 0 1.1 0.4 2.3 1.2 1 0.2 1.1-0.5 1-1.2 0.7-1.2 0.8-1 4.2-1.9 0.9-1 0-0.5 0.8 0 4-0.2 3.4-0.8 3.2-1.5 1.1-0.3 3.1-0.3 1 0 0.8 0.2 1.1 0.4 0.9 0.1 3.5-0.2 1.2-0.3 0.8-0.3 1.4-1.6 0.6-0.6 1.6-0.9 0.8-0.3 0.5-0.3 0.5-0.1 0.2 0.1 0.4 0.8 0.4 0.4 0.8 0.8 0.7 0.2 0.9 0.2 1.8-0.3 0.7 0.1 1.1 0.4 0.6 0.1 1 0.1 1-0.3 0.7-0.3 0.4-0.5 0.4-0.5 0.2-0.5 0.1-0.6-0.5-1.5 0.1-0.3 0.3-0.4 0.8-0.8 0.2-0.3 0.3-0.6 0.3-0.8 0.1-0.8-0.1-0.8-0.3-0.6-0.4-0.4-0.3-0.3-0.7-0.4-0.6-0.6-0.4-0.3-0.6-0.1-0.5 0.2-0.3 0.3-0.6 0.8-0.7 0.7-0.4 0.3-0.4 0.2-0.2-0.4-0.1-0.5 0.1-0.7 0.8-2.5-0.1-0.7 0.1-1.3 0.2-0.6 0.3-0.6 1.9-2.2 0.1-0.3 0.1-0.3 0-0.3-0.2-0.3-0.3-0.3-0.4-0.1-0.4-0.1-0.3-0.2-0.2-0.5-0.3-1-0.1-0.9 0.3-2.9 1.4 0.6 1.4 0.2 1.9 0 1.5-0.1 0.8 0 0.6 0.3 0.6 0.6 0.3 0.8 0 0.6 0 1 0.1 1.2 0.3 0.7 0.6 0.7 1.4 0.6 1.1 0 0.8-0.1 1.5-0.8 0.5-0.1 0.3 0.3 0.4 1.1 0.6 1.1 1.6 2.7 0.4 1 0 1.3 0.2 1.7 1 1.3z" id="ECL" name="Loja">
  </path>
  <path d="M725.4 288.6l-0.3 2.9 0.1 0.9 0.3 1 0.2 0.5 0.3 0.2 0.4 0.1 0.4 0.1 0.3 0.3 0.2 0.3 0 0.3-0.1 0.3-0.1 0.3-1.9 2.2-0.3 0.6-0.2 0.6-0.1 1.3 0.1 0.7-0.8 2.5-0.1 0.7 0.1 0.5 0.2 0.4 0.4-0.2 0.4-0.3 0.7-0.7 0.6-0.8 0.3-0.3 0.5-0.2 0.6 0.1 0.4 0.3 0.6 0.6 0.7 0.4 0.3 0.3 0.4 0.4 0.3 0.6 0.1 0.8-0.1 0.8-0.3 0.8-0.3 0.6-0.2 0.3-0.8 0.8-0.3 0.4-0.1 0.3 0.5 1.5-0.1 0.6-0.2 0.5-0.4 0.5-0.4 0.5-0.7 0.3-1 0.3-1-0.1-0.6-0.1-1.1-0.4-0.7-0.1-1.8 0.3-0.9-0.2-0.7-0.2-0.8-0.8-0.4-0.4-0.4-0.8-0.2-0.1-0.5 0.1-0.5 0.3-0.8 0.3-1.6 0.9-0.6 0.6-1.4 1.6-0.8 0.3-1.2 0.3-3.5 0.2-0.9-0.1-1.1-0.4-0.8-0.2-1 0-3.1 0.3-1.1 0.3-3.2 1.5-3.4 0.8-4 0.2-0.8 0 0-0.1-0.3-0.3-0.5-0.3-0.5-0.5-0.1-0.5 0-1-0.1-0.5-0.5-1.1-1.1-1.7-0.2-1.1 0.1-0.4 0.2-0.4 0.2-0.4-0.1-0.6-0.3-1 0-0.4 0-0.5 0-0.5 0.4-1.1 0.1-0.5-0.1-0.6-0.3-1.1 0-0.6-0.1-0.5-0.5-0.2-0.6-0.2-0.3-0.3 0-0.5 0.4-1.4 0.1-1.1 0-0.5-0.1-0.5-0.4-0.4-0.8-0.3-0.4-0.3-0.1-1.2 0.3-1.1 0.2-0.9-0.8-0.6-2.1-0.6-0.8-0.4-0.4-0.2-0.1-0.4-0.1-0.4 0.2-0.6 0.7-0.4 0.3-0.7 0.3-0.7 0.5-0.8-0.5 1.5-0.2 0.4 0.3 1.1 0.7-0.5 0.3-1.7 0.5-0.8 1.5 1.5 0.7-0.3 4-0.8 0.6 0.1 0.5 0.1 0.4 0 0.5-0.2 1.2-1.5 0.3-0.2 2-4.2 0.6-0.8 1.2 0.2 0.3 1.3-0.4 2.6 0.6-0.3 0.3-0.6 0.3-0.6 0.5-0.6 0.4-0.4 1.8-1 0.8-1 0.5-1.1 0.3-1.2 0.2-2.1 0.9-2 1.2-1.8 0.4 0 4.2 0.3 0.5 0.1 2.2 0.6 6.6 3.5 2.1 1.8 0.3 0.7 0.1 0.8-0.1 0.8-0.2 0.7-1.2 2.4-0.4 1.1-0.2 0.5-0.6 0.4-1 0.5-0.3 0.2-0.1 0.5 0.4 0.2 0.6 0.3 1.9 0 3.1-0.7 2-0.2 0.7 0 0.9 0.2 1.8 0.6z" id="ECO" name="El Oro">
  </path>
  <path d="M692.8 252.5l2.5 0.1 3.7 2.3 2.3 0.6-0.1 0.4-0.1 0.4-0.3 0.4-0.2 0.3-0.6 0.5-2.8 1.2-0.1 0.4-0.8 0.8-0.2 0.3-0.3 0.8-0.4 0.8-0.5 0.5-0.1 0-0.6 1-0.6 1.3-0.7 1.2-0.4 0.9-0.9 0.4-0.7 0.8 0.1 1.3-0.9 0.7-0.3 0.8-0.9 1.3-1.9-0.2-1.1 0.6-0.9 0.3-1.3-0.1-1.3-0.4-0.8-0.4-0.3-1.2 0.3-1.9 0.2-6.5 0.2-0.7 1.9-3.4 0.7-2.2 0.8-0.6 3.3-0.9 3-1.5 1.1-0.4z m16.2 21.8l-2.2-0.6-0.5-0.1-4.2-0.3-0.4 0 0.7-1.1 0.4-1.1-0.5-0.9 0.2-1.3 0.7-2.1 0.1-0.9 1.7-5.6 1.1-2 0.2-0.4 0.5-1.1 0.2-1.3 1.1-3.1 0.7-1 1.6-1.6 0.5-1 0-1.3-0.3-2.4-0.8-1.9-0.1-0.3-1.2 0-0.6 0-0.5-0.2-0.6-1-1.1-2.9-0.6-1.1-0.4-0.7-0.1-0.7 0.1-3.2-0.4-2.5 0-0.7 0.3-1.2 0.1-0.7-0.2-0.4-0.1-0.2-0.7-0.9-0.2-0.2-0.1-0.3-0.1-0.3-0.1-0.4 0-0.6 0.3-0.6 0.3-0.5 0.1-0.5-0.4-0.6 0.9-0.9 0.8-0.3 0.7-0.4 0.2-1.2 0.5-0.6 0.8-0.5 0.9-0.6 0.4-1.1-3.2 1.8-0.3 0.3-0.2 0.4 0 1-0.4 0.2-1.8 0.1-0.4 0.4 0 0.5-0.5 1.3-0.5 2.2 0 1.5 0.3 1.6 1.6 2.9 0.2 1.6-0.9 10.6-0.6 2.2-0.3 0.6-1.5 1.6-0.5 0.4-0.9 0.2-1.9 1.1-0.8 0.2-0.5-0.3-0.3-0.7-0.5-0.2-1.1 0.2-0.4-0.2-0.7-0.5-0.3-0.9 0.7-0.8 1.6-1.1 0.5-1.2 0.3-0.8 0.5-0.5 1.5-0.1 0.3 0.2 0.4 0.5 0.4 0.4 0.6 0 0.5-0.3 0.2-0.5 0-0.5-0.3-0.6-0.3 1.1-0.7-0.2-1.3-1.2-1.2 0.1-1 0.5-0.8 0.3-0.3-0.8 0.2-1.2 1-2.3 0.3-1.3 0.2-0.6 0.4-0.3 0.7-0.1 0.5-0.3 0.4-0.4 1.1-1.7-0.5 0.1-0.2 0.2-0.6 0.5-0.4 0.2-1.1-0.1-0.5 0.1-0.7 0.4-0.4 0.7-2.4 6-3.7 5.2-1.6 1.8-1.8 0.8-0.4 0.7-0.4 0.5-0.5 0.3-0.5 0-0.3-0.2-0.2-0.4-0.3-0.3-0.8-0.4-0.5 0.4-0.2 0.9 0.2 1.1 0.2 0.2 1.5 1.5 0.2 0.4 0 0.6-0.1 1.2-0.5 0.5-1.2-0.2-2.3-0.9-2.3-1.9-0.8-0.5-0.7-0.7-0.3-0.2-0.4-0.1-0.9-0.1-0.5-0.2-2.1-1.3-4.1-4.8 4-3.7 3.2-2.4 4.6-1.1 2.7-1.6 2.4-3.6 0.8-5.5 0.2-4.8-2.1-3.3-2-1.8-3.2-1.9-4.3-1-2.8-1.7-1.5-2.6-0.5-2.3 2.2 0 1.6-0.1 0.4-0.2 0.3-0.3 0.1-0.4 0.1-0.3 0.1-0.4 0-0.5 0.1-0.6 0.4-0.6 0.5-0.5 0.4-0.6 0.3-0.6 0.4-0.5 0.6-0.5 0.6-0.3 0.7-0.3 0.4-0.3 0.5-1 0.4-0.3 0.5-0.2 0.4 0.2 0.4 0.3 0.3 0.2 0.3-0.1 0.4-0.3 0.7-0.4 2.1 0.1 0.8-0.2 0.2-0.5-0.5-1.6-0.1-0.5 0-0.5 0.1-0.2-0.1-0.2-0.4-0.2-0.5-0.1-0.6-0.3-0.7-0.5-0.5-0.7-0.3-0.5 0-0.3 3.3-0.5 1.8-1.2 0.3-0.5 0-0.4-0.6-0.9-0.2-0.6-0.2-0.6 0-0.7 0.3-1.4 0.2-0.6 0.4-0.5 0.2-0.1 0.4-0.1 0.8-0.5 1.2-0.4 0.3-0.2 0.1-0.4-0.2-1.2 0.1-1.1 0.4-0.8 0.6-0.5 1.2-0.5 2.1-1.7 0.5-0.7 1.1-2.9 0.4-1.7 0.5-1 0.4-1.3 0.3-0.8 0.5-0.6 0.4-0.2 0.2 0.1-0.1 0.4-0.1 0.5 0.1 0.3 0.3 0.1 0.8 0 0.4 0 0.5 0.2 1-0.3 0.8-0.4 2.8-2.3 0.6-0.7 0.9-1.5 0.7-0.7 0.5-0.6 0.2-0.5 0.2-0.5 0-0.3 0-0.4 0.1-0.5 0.2-0.3 0.9-0.5 0.2-0.5 0.3-0.7 0.2-0.6 2.1-2.9 0.5-0.5 0.7-0.3 0.9-0.3 3.4-0.6 1.8-0.5 1.9-0.2 0.9 0 0.7 0.4 0.3 0.9-0.3 1.7-0.8 2.4 0 0.5 0.2 0.4 0 0.3-0.3 0.5-0.4 0.2-0.5 0.4-0.3 0.4-0.3 0.6-0.1 0.4-0.4 1.9-0.3 0.6-0.3 0.4-0.5 0.1-0.5 0.1-0.5 0.2-0.3 0.3-0.2 0.3-0.6 0.7-0.5 0.8-0.4 0.3-0.8 0.1-0.4 0.1-0.2 0.4-0.1 0.6-0.2 0.4-0.2 0.4-0.3 0.1-0.4 0.1-0.2 0.1-0.2 0.1-0.1 0.3-0.1 0.6-0.2 0.2-0.2 0.2-0.6 0.1-0.3 0.1-0.2 0.1-0.2 0.3 0 0.3 0 1.1-0.2 0.6-0.1 0.5-3 5.7-0.5 0.6-1 1-0.6 1-0.3 0.5-0.9 2.5-0.1 0.6-0.2 3.4 0 0.6 0.8 2.4-0.1 0.4-0.4 0.9 0 0.7 0.1 0.7 0.1 0.6 0.3 0.3 4.4 2.3 0.8 0.8 0.6 1.1 0.4 1.1 0.5 0.9 1.3 1.8 0.4 0.7 0.7 1.8 1.3 2.3 0.3 1.2 0.4 0.4 1.2 0.3 1.9-0.3 2.8-1 0.9-0.1 1.2 0.1 1.1 0.5 2.4 1.7 1.2 0.6 0.7 0.4 1.6 1.3 0.7 0.7 4 6.7 2.7 2.6 2.2 0.4 0.7 0 0.6 0 0.4-0.2 0.3-0.4 0.5-0.3 0.5 0 0.5 0.5 0.2 0.4-0.1 2.2-0.6 1.2-0.2 0.4-0.6 0.6-0.7 0.6-1.3 0.7-1.2 0.5-1.1 0.3-6.4 1.1-0.7 0.3-0.7 0.4-1.5 1.2-0.6 0.6-0.5 0.7 0 1.3-0.2 0.4 0 0.4 0.1 0.5 0.2 0.4 0 0.3-1.8 1.1-3.1 2.8 0.1 0.8 0.5 0.4 0.8 0.1 1.3-0.7 1.5-0.5 0.7 1.4 0.4 0.7-0.1 0.6-0.3 0.5-1.2 1.3-0.5 0.4-0.3 0.2-0.3 0.2-0.3 0.2-11.8 12.4-0.5 1.3-0.2 1.3 0.1 1 0.3 1.5 0.1 1.6 0 0.4-3 3.6-0.3 0.7-0.2 0.5-0.1 1z m-3.2-31.4l0.6 1.4 1.3 0.5 0.7 1.2-1.2 1.7-1.9 1-0.2 2.4-1.3 0.8-1.1-0.1-0.3-1.2 0.8-2.1 1.1-2.9 1.5-2.7z" id="ECG" name="Guayas">
  </path>
  <path d="M172.8 180.8l1.4 0.5 1.1 1.2 0.1 1.1-1.7 0.6-1.7-0.2-4.4-2 1.1-1.2 0.8 0.2 2.6 0 0.7-0.2z m-39-4.6l0.1 0.2 0.3 0.1 0.2 0.3 0.2 0.4-0.1 0.3-0.1 0.2-0.1 0.2-0.1 0.2-0.2 0.2-0.7 0.2-0.2 0.1-0.1 0.2 0.1 0.7 0 0.2-0.3 0.4-1.8 1.1-0.3 0-2-0.2-0.8-0.6-0.7-0.7-1.2-0.7 0.5-0.6 0.5-0.7 0.3-0.7 0.4-1.7 0.5-0.8 0.6-0.3 0.6 0.7 1-0.3 1.5 0.3 1.3 0.7 0.6 0.6z m58.1-30.8l0.7 0.4 0.7 0 0.7-0.3 0.6-0.3 0.2 2-1 2.2-1.6 2-1.6 1.2-1.9 0.6-0.3 0.3-0.1 0.6-0.7 1.5-1.1 1.7-0.7 0.8-0.8 0.5-0.8 0.3-0.8 0.1-1.9-0.1-0.6 0.2-1.1 0.8-0.7 0.2-0.6-0.2-1.1-0.7-0.5-0.3-2-0.3-0.4-0.2-0.1-0.5 0.3-0.6 0.7-0.8 0.4-0.4 2.2-1 0.7-0.6 0.6-1.9 0.5 0 2.3-0.6 0.6-0.6 0.8-1.7 0.5-0.6 1.5-1.4 0.3-0.5 0.4-0.3 1.9-0.7 0.6-0.6 0.9 0 1.6-0.5 0.7 0.3z m-47.9-8l0.6 0.6-0.1 1.2-0.7 2.3 0 0.7 0.3 0.7 0.1 0.6-0.1 0.2-0.5 1.2 0 0.3-0.9 0.3-0.6 0.9-0.6 1-0.7 0.8-0.4 0.3-0.3 0.1-2.7-0.1-0.2 0.2-0.3 1.1-0.7 0.5-1 0.2-1-0.1-1.9-0.6-1.1-0.2-0.4-0.3-0.2-0.3-0.3-0.1-0.4-0.4-1.2-1.6-0.5-0.6-0.7 0.1-1.1-0.2-0.9-0.5-0.6-0.5-0.1-0.7 0.1-2.6 0.3-1.5 0.6-1.3 0.8-1.1 0.9-0.9 0.5-0.4 1.5-0.6 0.6-0.2 0.6 0.1 1.2 0.2 0.4 0.1 0.5-0.1 0.6-0.5 0.4-0.1 5.1-0.6 1.2-0.6 0.3 0.1 0.3 0.2 0.3 0.2 0.3 0.3 0.1 0.5-0.1 0.6 0.1 0.6 0.4 0.2 0.5 0 1.1 0.3 0.6 0z m-65.5-4.6l-0.5 0.3-3.8 1.5-0.9 0.2-0.5 0-0.6-0.2-1.1-0.7-1-0.3-1.6-0.6-0.3-0.1-0.6 0.1-0.2 0-0.3-0.2 0-0.2 0.1-0.2-0.2-0.2-0.9-1-0.7-1.1-0.5-1.2-0.3-2.5-0.7-2 0.1-0.7 4.8 0.1 2-1 2.5-0.6 1.3-0.4 0.3 0 0.7 0.4 1.8 1.9 0.6 0.3 0.6 0.5 0.2 1.2-0.3 2 0 4.7z m45.3-9.1l0.7 0.4-0.3 1-1.2 1.7-0.4 1.2-1 0.3-1.2-0.2-2.3-0.7-3.8 0-1-0.3-1-0.6-1-0.3-1.2 0.5-0.8-1-0.3-1.4-0.6-1.1-1.3-0.3 2.3-3.1 0.1-0.7-0.3-1 0.4-1 0.9-0.6 1-0.2 0.4 0.2 0.2 0 0.2-0.2 1.1 0.7 3.7 1.3 1.3 0.2 1.8 0.7 2.8 3.1 1.5 1-0.2 0.1-0.2 0-0.3 0.3z m-13.3 24.1l0.5 0.3 0.3 0 0.2 0.2 0 0.8-0.2 0.3-1.3 0.6-0.5 0.2-1.7 5.3 0.2 1.4-0.1 0.9-1.2-0.3-0.6 0.9-1.4 1.5-0.6 0.9-0.9-0.4-0.9-0.1-1.7 0.1-1.1 0.3-1.7 1.3-6.2 2.1-1.2-0.3-0.8 0.2-4.9-0.7-6.1 0.1-1.1-0.3-0.9-0.8-0.2-0.6-0.1-0.6 0-1.2-0.2-0.6-0.5-0.2-0.6 0-0.6-0.2-1.4-2.1 0.5-2.5 1.5-2.3 1.6-1.6 6.4-4.1 0.2-0.4 0-0.4 0.2-0.2 0.9-0.1 1.3-0.6 1.9-0.5 0.7 0 0.6 0.2 0.3 0.2 0.2 0.2 0.3 0.2 1 0.3 0.5 0 0.6-0.2 0.3-0.3 0.5-0.8 0.3-0.2 0-0.5 0.5-1.2 0.8-0.8 0.8 0.3 0.6-0.9 0-0.8-0.4-0.7-0.6-0.6-0.8-0.3-1.6-0.5-0.6-0.3-1.3-1.2-1.3-1.7-1-1.9-0.5-1.8 0.1-1.6-0.2-0.6-0.6-0.5-0.5-0.1-0.7-0.1-0.3-0.1-0.2-0.3-0.5-0.8-3.3-1.8-1.3-1.4 0.1-1.7-1.1-0.6-0.7-1.2 0.1-1.1 1.3-0.4-1-1.4-0.3-0.8-0.2-1 0-1.8 0-0.5-0.3-0.9 0-0.5-0.5-1.8-1.2-0.9-1.7 0-1.8 0.7-1.9 1.3-1 0.2-1-0.6-1.1-1.5-0.2-0.3 0.1-0.5 0.3-0.3 0.4-0.1 3.7-2.1 1-1 0.4-2.2 1.3 0.4 1.1-0.3 1.1-0.5 1.7-0.5 0.4-0.4 0.3-0.5 0.4-0.4 0.7-0.2 1 0 0.5-0.2 0.9 0.8 0.4 1.3 0.2 1.1 0.2 0.5 0.7 0.5 0.7 2.4 0.5 0.5 0.3 0.2 0.8 1 0.3 0.3 1.2 0 0.5 0.1 0.4 0.2 0.4 1 0.1 1.3-0.2 2.5 1 6.1 0.6 0.9 2.3 2.1 0.2 0.2 0.1 0.3-0.1 0.7 0.2 0.6 0.4 0.2 0.4 0.1 0.2 0.2 5.5 3.5 0.4 0.6 0.1 0.5 0.3 0.4 0.7 0.8 0.3 0.1 0.8 0.2 0 0.3-0.1 0.4-0.1 0.2-0.1 0.2 0.5 2.1 0.2 2.2-0.3 1-1.5 1.3-0.4 0.8 1.2-0.8 0.3 0.5 0.1 1 0.2 0.8 2.3 0.5 1.1 0.6 0 1.2 0.7 0.1 0.6 0.3 0.5 0.4 0.4 0.7-0.4 0.7 0.8 0.3 1.9 1.9z m16.1-54.9l-0.5-0.2-0.6-0.4-0.4-0.5-0.2-0.4 0.1-1.2 0.9-0.9 1.2-0.6 1.1-0.2 1.3 0.4 1.3 0.6 1 0.8 0.5 1.1-0.3 0.8-1 0.9-1.2 0.7-1.2 0.2-0.6-0.2-0.7-0.7-0.7-0.2z m-15.4-20l2.2 1.2 0.7 2.4-0.9 1.8-2.4-1 0.4-1.1-0.4-2.4 0.4-0.9z m-55.3-39.7l0.2 0 0.2 0.5-0.1 0.2-0.2 0.3-0.3-0.2-0.2-0.3 0-0.3 0.4-0.2z m-0.2-0.5l0.3 0-0.2 0.2-0.1-0.2z m-10.2-14.3l0.3-0.3 0.3 0.2 0 0.5-0.4 0.1-0.2-0.5z m111.2 71.3l0.3 0 0.5 0 0.3 0.8 0 0.9-0.4 0.4 0-0.6-0.4-0.2-0.5 0.3 0 0.4-0.5-0.2-0.2-0.8 0.2-0.6 0.7-0.4z" id="ECW" name="Galápagos">
  </path>
  <path d="M668.1 208l0.5 2.3 1.5 2.6 2.8 1.7 4.3 1 3.2 1.9 2 1.8 2.1 3.3-0.2 4.8-0.8 5.5-2.4 3.6-2.7 1.6-4.6 1.1-3.2 2.4-4 3.7-1.7-2-4.4-4.2-1.8-0.5-1.6-0.8-1.7 0.1-2.9-1-1-0.4-2.3-2-1.1-0.5-0.9 0-0.6-0.1-0.5-0.5-0.3-1.8-0.4-0.9-0.9-1.2-0.7-0.8-2-1.6-0.3-0.3-0.2-0.6-0.1-0.5 0.2-0.3 0.4 0.1 0.2 0.2 0.1 0.3 0.2 0.2 1.4 0.3 0.6 0 0.3 0.2 0.3 0.9 0.7 0.8 1.3-0.1 2-0.7 2.7-2.2 2.2-1.1 1.9-2.1 0.4-3.2-0.8-1.7-0.4-1.7-0.2-0.4 0.3-0.6 0.6-0.1 0.7-0.4 0.2-1.3-0.2-1.4-1.5-5.8-0.8-2.2-0.3-1-0.5-0.9-0.5-0.6-0.7-1-0.3-0.8 1.5-0.3 1 0.1 0.4 0 0.8-0.3 3.9 0.2 1-0.2 1.9-0.6 1-0.1 1.6 0.3 0.7 0.4 0.3 0.5-0.1 0.5 0 0.3 0.1 0.3 0.7 0.7 0.2 0.4 0.1 0.5-0.2 1.6-0.1 0.3-0.6 1-0.2 0.5-0.1 0.5-0.1 0.5 0.1 0.5 0.5 0.6 0.8 0.4 1.2 0.3z" id="ECSE" name="Santa Elena">
  </path>
  <path d="M696.1 89.6l1.3 3.3 0.7 0.9 0.4 0.2 0.4 0.1 0.4 0.1 0.3 0 0.3 0 0.1-0.1 0.4-0.3 0.2-0.2 0.2-0.2 0.2-0.2 0.2-0.2 0.2-0.5 0.3-0.6 0.1-0.6 0-0.1 0.1-0.1 0.1-0.1 0.2 0 0.1-0.1 1.9 0.1 0.9 0 1-0.2 0.7-0.3 0.3-0.2 0.6-0.4 1.1-1.2 0.3-0.2 0.3-0.2 0.7-0.3 0.4-0.1 0.3 0 0.3 0.2 0.2 0.1 0.6 0.4 0.4 0.5 0.1 0.1 0.1 0.2 0 0.1 0 0.1 0 0.1-0.1 0.1-0.5 0.5-0.2 0.3-0.1 0.2-0.1 0.2 0 0.2 0 0.2 0 0.2 0.1 0.2 0.2 0.2 0.1 0.2 2.6 1.5 0.2 0.2 0.1 0.2 0.1 0.1 0 0.1-0.1 0.2-0.1 0.2-0.3 0.3-0.4 0.3-0.3 0.2-0.3 0.4-0.2 0.4-1 1.5-0.1 0.1 0.1 0.2 0.2 0.2 0.6 0.6 0.3 0.1 0.2 0.1 0.2-0.1 0.1-0.1 0.2-0.1 0.2-0.1 0.3 0 0.1 0.1 0.1 0.2 0.1 0.9 0.1 0.3 0.1 0.2 0.1 0 0.2 0 0.1-0.1 0.5-0.3 0.3-0.1 0.2 0 0.2 0.2 0.4 0.4 1 1 0.5 0.2 0.3 0.1 0.4 0 0.1 0.1 0.1 0 0.1 0.1-0.1 0.1-1.4 1.6-0.1 0.2-0.1 0.2-0.1 0.4 0 0.2-0.1 0.2-0.1 0.1-0.1 0.1-0.2 0-0.1 0.1-0.1 0.1-0.1 0.1-0.1 0.2-0.1 0.2 0 0.2 0 0.2 0.2 0.5 0 0.1 0 0.5 0.1 0.3 0.9 1.4-0.4 0.5-0.1 0.4-0.1 0.6 0.2 1.1 0.3 0.5 0.5 0.4 0.3 0.1 0.4 0.2 0.4 0.4 0.7 0.4 0.4 0.4 1.4 1.7 1.4 1.3 0.4 0.2 1.9 0.6 0.3 0 0.9 0 0.4 0 0.5 0.2 0.2 0.4-0.1 0.9 0.4 9.7-0.2 0.8-0.4 0.8-1.7 2.7-0.1 1.2-0.1 0.5-0.6 1.5-0.9 1.2-0.7 2.5-0.5 1.2-1.2 2.4-0.6 1.9-0.2 0.3-0.5 0.4-0.6 0.1-0.5 0.3-0.5 0.6-0.5 1-0.7 3.7-1.1 2.2-3.4 0.6-0.9 0.3-0.7 0.3-0.5 0.5-2.1 2.9-0.2 0.6-0.3 0.7-0.2 0.5-0.9 0.5-0.2 0.3-0.1 0.5 0 0.4 0 0.3-0.2 0.5-0.2 0.5-0.5 0.6-0.7 0.7-0.9 1.5-0.6 0.7-2.8 2.3-0.8 0.4-1 0.3-0.5-0.2-0.4 0-0.8 0-0.3-0.1-0.1-0.3 0.1-0.5 0.1-0.4-0.2-0.1-0.4 0.2-0.5 0.6-0.3 0.8-0.4 1.3-0.5 1-0.4 1.7-1.1 2.9-0.5 0.7-2.1 1.7-1.2 0.5-0.6 0.5-0.4 0.8-0.1 1.1 0.2 1.2-0.1 0.4-0.3 0.2-1.2 0.4-0.8 0.5-0.4 0.1-0.2 0.1-0.4 0.5-0.2 0.6-0.3 1.4 0 0.7 0.2 0.6 0.2 0.6 0.6 0.9 0 0.4-0.3 0.5-1.8 1.2-3.3 0.5 0 0.3 0.3 0.5 0.5 0.7 0.7 0.5 0.6 0.3 0.5 0.1 0.4 0.2 0.1 0.2-0.1 0.2 0 0.5 0.1 0.5 0.5 1.6-0.2 0.5-0.8 0.2-2.1-0.1-0.7 0.4-0.4 0.3-0.3 0.1-0.3-0.2-0.4-0.3-0.4-0.2-0.5 0.2-0.4 0.3-0.5 1-0.4 0.3-0.7 0.3-0.6 0.3-0.6 0.5-0.4 0.5-0.3 0.6-0.4 0.6-0.5 0.5-0.4 0.6-0.1 0.6 0 0.5-0.1 0.4-0.1 0.3-0.1 0.4-0.3 0.3-0.4 0.2-1.6 0.1-2.2 0-1.2-0.3-0.8-0.4-0.5-0.6-0.1-0.5 0.1-0.5 0.1-0.5 0.2-0.5 0.6-1 0.1-0.3 0.2-1.6-0.1-0.5-0.2-0.4-0.7-0.7-0.1-0.3 0-0.3 0.1-0.5-0.3-0.5-0.7-0.4-1.6-0.3-1 0.1-1.9 0.6-1 0.2-3.9-0.2-0.8 0.3-0.4 0-1-0.1-1.5 0.3-0.9-2.4-0.8-0.9-0.2-0.7-0.1-0.8 0.2-0.6 1.9-1.4-0.2-1.2 0-1.6 0.5-0.4 0.6-0.6 0.7-0.2 0.9 0 0.2-0.7 0-0.8 0.1-1 0.3-1-0.3-1.2 0.3-0.8 0.9-0.4-0.1-1.4-1.6-2.2-3.2-3.9-2.6-4.6-1.2-2.7-0.7-1.6 0.4-1.1 0.6-0.7 0.8-0.6 0.7-0.8 0.4-0.5 0.4-0.6 0.7-0.7 0.7-0.8 0.1-0.4 0.6-0.3 0.8 0.2 0.7 0 0.8-0.4 0.7-0.3 0.8 0.2 0.7-0.3 0.6-0.2-0.1 0.5 1 0.4 0.8 0.1 0.7-0.6 0.4-0.1 0.4-0.6 0.6-0.1 0.5 0.7 0.5 0.1 1 0.1 1.3-0.5 1.2-1 1.2-1.3 0.8-3.4 0.2-1 0.7-3.5 1-2.7 1.2-2.5 0.7-1.6 0.3-0.3 0.4-0.3 0.8-0.1 0.7-0.3 0.1 1.4 0.8 1.1 1.4 0.7 1.4 0.2 2.9 0 0-0.6-1.5-0.4-1.6-0.4-1.1 0-0.8-0.6-0.6-1.5-0.7-1.3-0.7-0.3-0.4-0.5-0.1-1.3-0.6-1.6-0.1-1.5-0.8-1.7-1-1.2-0.7-2.3 0.6-0.8 1.1-0.1 1.8-1.4 1.7-2.5 0.5-1 0.2-0.7 0.5-1.2 0.4-0.9 1.2-0.4 0.7-1.1 0.7-1.2 1 0.9 1.2-0.6 1.3-1 1.5-1.1 3.2-3.5 2.6-3.3 0.9-1.1 0.4-1.1 0.1-0.7 0.3-0.2 0.3-0.1 1.1-0.4 0.9-2 0.4-1.8 0.3-2.9 0-1.3-0.5-2.3-0.1-4.1 0.5-1.4 0-0.5 0.2-0.2 0.5 0.3 0.3 0.3 0.2 0.4 0.3 0.8 0.4 0 0-0.7 0.3-0.4z" id="ECM" name="Manabi">
  </path>
  <path d="M774.6 247.1l-0.3 1.6 0.1 0.6 0.2 0.5 0.4 0.4 0.5 0.2 0.4 0 0.2-0.3 0.1-0.6 0.2-0.6 0.3-0.6 0.6-0.5 0.5-0.2 0.5-0.2 0.5 0 0.3 0.2 1.7 1.2 0.4 0.4 0.2 0.5 0.1 0.4 0 0.5-0.2 0.5-0.6 0.5-6 3-0.5 0.5-0.5 0.6-1.7 3.1-0.1 0.4 0.2 0.4 0.3 0.4 0.5 0.5 0.4 0.6 0.2 0.5 0 0.5-0.3 0.8-2.6 4.2-0.3 0.9-0.2 0.6-1.3 2.7-0.2 0.8 0 0.9 0.1 0.8-0.2 1-0.5 0.9-1.4 1.6-1.4 1.1-1.8 1-2 0.6-1.1 1.1-6.7 5.3-0.3 0.6-0.1 0.4 0.3 0.9-1.1 1-3 1.8-1 0.7-0.7 0.7-0.5 0.7-0.2 0.5-0.1 0.5 0.1 0.5 0.2 0.8 0.3 0.3 0.2 0.3 0 0.5-0.4 1-0.1 0.6 0 0.6 0.3 2-0.6 3.1-0.2 0.5-0.3 0.5-0.4 0.2-0.4 0.1-0.9 0.1-1-1.3-0.2-1.7 0-1.3-0.4-1-1.6-2.7-0.6-1.1-0.4-1.1-0.3-0.3-0.5 0.1-1.5 0.8-0.8 0.1-1.1 0-1.4-0.6-0.6-0.7-0.3-0.7-0.1-1.2 0-1 0-0.6-0.3-0.8-0.6-0.6-0.6-0.3-0.8 0-1.5 0.1-1.9 0-1.4-0.2-1.4-0.6-1.8-0.6-0.9-0.2-0.7 0-2 0.2-3.1 0.7-1.9 0-0.6-0.3-0.4-0.2 0.1-0.5 0.3-0.2 1-0.5 0.6-0.4 0.2-0.5 0.4-1.1 1.2-2.4 0.2-0.7 0.1-0.8-0.1-0.8-0.3-0.7-2.1-1.8-6.6-3.5 0.1-1 0.2-0.5 0.3-0.7 3-3.6 0-0.4-0.1-1.6-0.3-1.5-0.1-1 0.2-1.3 0.5-1.3 11.8-12.4 0.3-0.2 0.3-0.2 0.3-0.2 0.5-0.4 1.2-1.3 0.3-0.5 0.1-0.6-0.4-0.7-0.7-1.4 1.8 0.1 0.9 0.5 0.6 0.7 1 2.1 0.5 0.6 0.7 0.3 1.4 0.1 0.9 0.6 0.4 0.5 0.3 0.6 0.3 0.6 0.5 0.6 4.8 5 0.7 0.5 0.6 0.2 0.6-0.4 0.1-0.4 0.1-0.5 0-0.5 0.3-0.3 0.5-0.3 1.1-0.5 0.4-0.3 0.3-0.4 0.1-0.4 0.2-0.4 0.3-0.2 0.4-0.1 0.6 0.3 0.7 0.4 0.8 0.7 0.7 0.8 1.6 2 1 0.7 1.2 1.2 0.3 0.5 0.2 0.6 0.3 1.3 0.3 0.6 0.8 0.3 2 0.2 0.8 0 0.6-0.1 0.5-0.2 0.4 0 0.5 0.1 0.3 0.1 0.3-0.1 0-0.3-0.1-0.9 0.1-0.5 0.2-0.4 1-1.3 0.2-0.3 0.1-0.4 0-0.4-0.2-0.5-0.1-0.6 0.1-0.5 0.4-0.6 0.4-0.4 0.6-0.2 0.7 0 1.1 0.2 0.4 0 0.5-0.3 0.7-0.5 1.1-0.9 0.5-0.4 1.3-0.3 0.6-0.2 0.8-0.6 0.3-0.7 0.1-0.6 0.3-0.6 0.5-0.6 2-1.4 0.8 0.1z" id="ECA" name="Azuay">
  </path>
  <path d="M773 233.5l0 0.6 0.8 0.4 3.3 1.5 0.8 0.6 0.4 0.6-0.1 0.5-0.1 0.6 0.1 3.1-0.3 1 0 0.5 0 0.7-0.1 0.4-0.2 0.4-1.3 2-0.5 0.7-0.3 0.1-0.1 0.1-0.2 0-0.2 0-0.4-0.2-0.8-0.1-2 1.4-0.5 0.6-0.3 0.6-0.1 0.6-0.3 0.7-0.8 0.6-0.6 0.2-1.3 0.3-0.5 0.4-1.1 0.9-0.7 0.5-0.5 0.3-0.4 0-1.1-0.2-0.7 0-0.6 0.2-0.4 0.4-0.4 0.6-0.1 0.5 0.1 0.6 0.2 0.5 0 0.4-0.1 0.4-0.2 0.3-1 1.3-0.2 0.4-0.1 0.5 0.1 0.9 0 0.3-0.3 0.1-0.3-0.1-0.5-0.1-0.4 0-0.5 0.2-0.6 0.1-0.8 0-2-0.2-0.8-0.3-0.3-0.6-0.3-1.3-0.2-0.6-0.3-0.5-1.2-1.2-1-0.7-1.6-2-0.7-0.8-0.8-0.7-0.7-0.4-0.6-0.3-0.4 0.1-0.3 0.2-0.2 0.4-0.1 0.4-0.3 0.4-0.4 0.3-1.1 0.5-0.5 0.3-0.3 0.3 0 0.5-0.1 0.5-0.1 0.4-0.6 0.4-0.6-0.2-0.7-0.5-4.8-5-0.5-0.6-0.3-0.6-0.3-0.6-0.4-0.5-0.9-0.6-1.4-0.1-0.7-0.3-0.5-0.6-1-2.1-0.6-0.7-0.9-0.5-1.8-0.1-1.5 0.5-1.3 0.7-0.8-0.1-0.5-0.4-0.1-0.8 3.1-2.8 1.8-1.1 0-0.3-0.2-0.4-0.1-0.5 0-0.4 0.2-0.4 0-1.3 0.5-0.7 0.6-0.6 1.5-1.2 0.7-0.4 0.7-0.3 6.4-1.1 1.1-0.3 1.2-0.5 1.3-0.7 0.7-0.6 0.6-0.6 0.2-0.4 0.6-1.2 0.2 1.5 0.1 0.3 0.4 0.5 0.3 0.2 0.3 0.2 0.3 0.1 0.2 0.3 0.3 0.8 0.3 0.4 0.3 0.2 0.5 0.4 0.5 0.4 1.8 2.4 0.8 0.8 0.8 0.5 1.1 0.5 1.1 0.7 0.7 0.3 1.2 0.2 1.6-0.2 1.7-0.4 1.9-0.9 0.9-0.8 1.2-1.2 1.4-0.5 2-0.5 6.8-0.8 1.1 0.5z" id="ECF" name="Cañar">
  </path>
  <path d="M798.1 175.1l0.1 5.9-0.2 0.8-0.2 0.8-1.5 2.8-1.3 1.2-1.1 1.1-0.5 0.4-0.9 0.4-0.8 0.3-1.3 0-1.9-0.3-0.7 0.2-1.1 0.6-0.6 0.4-0.9 1.2-0.4-0.5-0.2-1-0.2-0.3-0.4-0.2-0.7-0.2-0.6-0.4-0.6-0.2-1-0.3-0.7-0.3-1.3-0.9-0.7-0.3-0.6 0.1-0.5 0.5-0.4 0.9-0.5 0.6-0.6 0.2-0.9-0.2-0.8-0.1-1.1 0.2-0.9 0.3-1.3 0.2-1.4-0.1-2.9-0.6-1.3-0.5-1.1-0.6-1.6-1.2-0.8-0.4-0.7-0.2-0.7 0.1-0.7 0.3-1.8 1.1-1.1 0.4-0.5-0.7-0.6-0.8-1.3-1.9-0.2-0.7 0.6-2.7 0.4-1 0.7-1.6 0.2-0.9 0.1-2.1 0.2-0.7 1.1-2.1 1.6-0.6 1.5-1.3 1.3-0.4 1-0.2 1-0.1 2.5 0.6 1.4 0 0.9-0.2 0.8-0.4 1.3-1 0.6-0.2 1.4-0.1 0.5-0.2 0.4-0.3 0.2-0.4 0-0.8 0-0.3 0.6-0.5 0.6-0.1 0.5 0 0.4 0.2 0.4 0.2 0.3 0.3 0.4 0.3 0.7 0.3 1.3-0.1 0.7-0.3 0.5-0.6 0.6-1.1 0-0.9 0.1-0.6 0.2-0.5 0.3-0.6 0.2-0.4 1.6-1.4 1.1 1.9 1.4 1.6 0.5 1 0.2 0.8 0 2.5-0.1 0.8-0.1 0.5-0.5 1-0.2 0.6 0.2 0.2 0.3 0 1.9-1.1 0.7-0.2 0.7 0 1.2 0.3 0.4 0 0.9-0.2 0.6-0.1 0.2 0.2 0.2 0.3 0.1 0.5 0.3 0.1 0.6-0.1 0.3 0 0.2 0.3 0.5 1.1 0.9 0.3 1.8 0.2 0.4 0.4 0.2 0.5 0 1.3z" id="ECN" name="Napo">
  </path>
  <path d="M813.4 106.5l2.4 0.6 0.5 0.3 0 0.1 0 0.1 0 0.1 0 0.2-0.1 0.1-0.1 0.1 0 0.1-0.1 0.3 0 0.5 0.3 1.8 0.4 1 0.7 0.5 1 0.2 5.4 0.1 1.5 0.4 0.7 0.3 0.6 0.4 0.4-0.1 0.6-0.4 1.1-1.2 0.6-0.4 1-0.1 0.5-0.2 0.3-0.3 0.2-0.3 0.2-0.2 0.2-0.1 0.3-0.1 0.7-0.5 0.6-0.3 0.4 0.2 0.2 0.4 0.2 0.5 0.2 0.4 0.1 0.3 0.1 0.2-0.1 0.3-0.1 0.3-0.1 0.3 0 0.2 0.2 0.5 0 0.3 0 0.2-0.1 0.4-0.1 0.3 0 0.4 0.1 0.3 0.5 0.2 2.5 0.6 1 0.1 0.6 0 0.3-0.2 0.4-0.3 0.3-0.5 0.6-1.1 0.4-0.7 1.4-1.7 0.6 3.9-0.2 0.5-0.1 1.5-0.2 0.8 0 0.5 0.3 0.6 0.4 0.5 0.7 0.9 0.6 1 0.2 0.4-0.1 0.4 0 0.3-0.2 0.3 0 0.2 0.5 1-0.1 0.8-0.1 0.5-0.4 0.3-0.2 0.3-0.1 0.3 0 0.9-0.2 0.5-0.4 0.4-0.6 0.3-1.7 0.7-0.1 0.4-0.1 0.4 0.1 0.9-0.2 0.3-0.2 0.1-0.7-0.2-0.3 0-0.3 0.2-0.2 0.4-0.6 1.3-1.3 2.2-0.5 0.4-0.6 0.2-0.7 0.1-1-0.1-1.4-0.5-1.2-0.5-2.3-1.5-0.7-0.2-0.5 0.1-0.2 0.4 0 0.4 0.1 0.7-0.3 0.4-0.3 0.4-1.7 1-0.6 0.4-0.3 0.4 0 0.5 0.1 0.4 0.7 0.4 0.5 0.1 0.6 0.3 0.6 0.5 1.5 1.9 0.6 1.2 0.2 0.3 0.8 0.5 0.4 0.4 0.3 0.5 0.4 1.4 0.1 0.7-0.2 0.5-0.7 1.1-0.4 0.6-0.4 0.9-0.4 1 0 0.8 0.4 1.7-0.1 0.8-1.3 3.1-0.4 0.7-0.5 0.6-0.5 0.5 0 0.5 0.7 0.4 1.2 0.2 1.3-0.1 1.1-0.2 0.9-0.4 0.1-0.2 1.1-0.2 0.6-0.5 8.5-4.1 2-0.7 0.4-0.2 0.8-0.9 1.3-2.6 2.4-2.3 0.7-0.3 0.7-0.5 0.8 0 0.4 0.3 0.1 0.3-0.2 0.6-0.5 0.6-2.6 2.5-0.6 0.9-0.4 0.9-0.1 0.8 0.2 0.9 0.3 0.5 0.6 0.2 0.4 0.2 0.5 0.2 2.5 1.7 0.9 0.4 2.3 0.3 0.7 0.2 0.3 0.3 0 0.3-0.4 0.6-0.9 0.8-0.1 0.4 0.2 0.4 0.3 0.3 0.5 0.6-0.5 1.2-9 0.6-0.8 0.2-0.6 0.2-0.6 0.4-1.2 0.7-5.2 1.6-1.5 0.3-1.8 0-0.6 0.2-0.7 0.4-4.8 2.2-2.6 0.2-0.7 0.2-0.7 0.3-0.6 0-0.5 0-0.8-0.2-0.7 0.1-0.7 0.1-0.7 0.1-0.6 0.3-1 0.6-0.7 0.1-1.1 0.5-0.6 0.2-2.1 1.5-1.3 0.6-0.8 0.2-0.7-0.2-0.5-0.2-0.4-0.2-0.3 0-0.2 0.2-0.3 0.8-0.4 0.3-0.5-0.1-0.5-0.3-0.6-0.2-0.8-0.2-1.3 0-3.9 0.7-1.5 0.1-2.7-0.2 0-1.3-0.2-0.5-0.4-0.4-1.8-0.2-0.9-0.3-0.5-1.1-0.2-0.3-0.3 0-0.6 0.1-0.3-0.1-0.1-0.5-0.2-0.3-0.2-0.2-0.6 0.1-0.9 0.2-0.4 0-1.2-0.3-0.7 0-0.7 0.2-1.9 1.1-0.3 0-0.2-0.2 0.2-0.6 0.5-1 0.1-0.5 0.1-0.8 0-2.5-0.2-0.8-0.5-1-1.4-1.6-1.1-1.9-0.9-0.5-1.3-0.2-0.4-0.3-0.1-0.3 0.1-0.4 0.3-0.2 0.3-0.3 0.3-0.3 0.1-0.5 0-0.8 0.1-0.5 0.3-0.8 0.6-0.8 0.6-1.1 0.2-1.1-0.1-1.2-0.3-1.9-0.6-1.9 0-0.6 0.5-1.4 1.1-0.5 0.7-0.2 1.4-0.3 0.4-0.3 0.3-0.4 0.2-0.7 0.2-1.5 0.3-0.7 0.5-0.7 1-1 0.6-0.9 0.6-1.1 0-0.7 0-0.5 0.1-0.6 0.3-0.6 0.6-1.1 0.3-0.7 0.1-0.6-0.8-1.5 0.3-0.8 0.6-1 1.5-2 0.6-1.3 0.4-1.3 0.2-4.9-0.1-0.6 0.1-0.4 0.4-0.3 0.5-0.2 0.5-0.1 1.3-0.4 0.4 0 0.4 0.2 0.6 0.5 0.3 0.2 0.4-0.1 0.7-0.2 0.5-0.5 0.6-1.1 0.1-0.5 0.2-0.5 0.2-0.1 0.5 0.1 1.1 0.2 0.6 0 0.3-0.2 0.6-1 0.2-0.3 0.4-0.1 0.2-0.3 0.2-0.6 0.1-1.4 0.2-0.5 0.4-0.4 1.9-0.6 3.9-2 0.6-0.5 0.7-1.2z" id="ECT" name="Tungurahua">
  </path>
  <path d="M785.2 190.9l-0.5 0.9-0.1 0.4 0 0.8 0.5 1.5 0.1 0.5-0.1 0.6-0.2 0.5-0.4 0.5-0.5 0.4-1.3 0.7-0.5 0.4-0.4 0.5-0.4 0.6-0.4 0.3-0.3 0.4-0.3 0.3-0.3 0.5-0.1 0.6 0 1.1 0.1 1 0.2 0.8 0.2 0.5 0.3 0.3 0.3 0.3 0.2 0.5 0.2 1.3 0.4 1.6-0.2 0.7-2.2 2.4-1.4 2.3-0.2 0.6 0 0.7 0.2 0.4 0.4 0.4 0.4 0.3 0.4 0.5 0.2 0.7 0 1.3 0.2 0.6 0.5 1.1-0.1 0.4-0.7 0.5-0.8 0.4-0.8 0.6-0.5 0.9-0.4 1.5 0.2 2.1 0.1 0.3 0.2 0.3 0 0.3-0.3 0.4-0.9 0.7-0.5 0.5-0.3 0.8 0 0.6-0.2 0.7-0.3 0.5-1.9 1.3-1.1-0.5-6.8 0.8-2 0.5-1.4 0.5-1.2 1.2-0.9 0.8-1.9 0.9-1.7 0.4-1.6 0.2-1.2-0.2-0.7-0.3-1.1-0.7-1.1-0.5-0.8-0.5-0.8-0.8-1.8-2.4-0.5-0.4-0.5-0.4-0.3-0.2-0.3-0.4-0.3-0.8-0.2-0.3-0.3-0.1-0.3-0.2-0.3-0.2-0.4-0.5-0.1-0.3-0.2-1.5 2.9-1.5 1.9-2 1.1-1.5 0.2-0.6 0.1-0.6-0.1-0.6-0.3-0.5-0.1-0.5-0.1-0.7 1.4-6.9 0-0.6-0.3-1.2-0.2-1.7 0.2-2.4 0-1 0.2-0.5 0.3-0.4 0.5-0.4 0.6-0.4 2-0.2 0.7-0.2 1.9-1.7 1.1-1.7 0.6-1.4 0.2-1.5-0.1-1.8 0.1-1.2 0.2-1.3 0-0.9-0.3-0.7-0.9-1.4-0.3-0.7-0.1-0.5 0.1-1.1 1.1-0.4 1.8-1.1 0.7-0.3 0.7-0.1 0.7 0.2 0.8 0.4 1.6 1.2 1.1 0.6 1.3 0.5 2.9 0.6 1.4 0.1 1.3-0.2 0.9-0.3 1.1-0.2 0.8 0.1 0.9 0.2 0.6-0.2 0.5-0.6 0.4-0.9 0.5-0.5 0.6-0.1 0.7 0.3 1.3 0.9 0.7 0.3 1 0.3 0.6 0.2 0.6 0.4 0.7 0.2 0.4 0.2 0.2 0.3 0.2 1 0.4 0.5z" id="ECH" name="Chimborazo">
  </path>
  <path d="M743.2 227.6l0.1-2.2-0.2-0.4-0.5-0.5-0.5 0-0.5 0.3-0.3 0.4-0.4 0.2-0.6 0-0.7 0-2.2-0.4 0.9-1.7 0.4-1.8 0.4-0.9 0-0.5-0.4-0.7-1.8-3-1.8-2.3 0-0.5 0.2-0.4 0.7-0.5 0.2-0.3 0.9-3.6 0.5-1 0.2-0.8-0.3-0.6-0.4-0.6-0.4-0.7-0.2-0.7 0-0.6 0.2-1-0.1-0.5-1.6-2.4-0.6-1.2-0.4-0.5-0.4-0.2-0.3 0-0.3-0.1-0.2-0.3-0.3-0.1-0.4-0.1-0.3-0.1-0.2-0.3 0.1-0.3 0.3-0.2 0.5-0.3 0.4-0.4 1.5-1.7 0.3 0 0.3 0.1 0.3 0.2 0.2 0 0.3-0.2 0.3-0.5 0.2-0.5 0.3-0.8 0.1-0.7-0.3-0.7-0.5-0.4-1.7-1.1-0.8-0.8-0.4-0.9-0.3-1.2 0.1-4.2 0.1-0.5 0.3-0.4 0.2 0 0.3 0 0.3-0.1 0.3-0.3 0.1-0.3 0-0.3-1.6-1.1-0.5-1-0.4-0.2-0.3 0-0.3 0.3-0.7 1-0.4 0.4-0.5 0.2-0.4-0.1-0.1-0.3 0.1-0.7 0.8-1 1.3-2 1-1.4 2.6-1.2 2.5-0.2 4-2 1.2-0.3 1.6-0.2 0.7 0 0.8 0.1 0.3 0.3 0.3 0.4 0.3 0.4 1.7 1 1 0.5 1.3 0.4 1.2-0.1 0.9-0.3 1.5-1.2 0.9-0.5 0.7-0.1 1.5 0.5-1.1 2.1-0.2 0.7-0.1 2.1-0.2 0.9-0.7 1.6-0.4 1-0.6 2.7 0.2 0.7 1.3 1.9 0.6 0.8 0.5 0.7-0.1 1.1 0.1 0.5 0.3 0.7 0.9 1.4 0.3 0.7 0 0.9-0.2 1.3-0.1 1.2 0.1 1.8-0.2 1.5-0.6 1.4-1.1 1.7-1.9 1.7-0.7 0.2-2 0.2-0.6 0.4-0.5 0.4-0.3 0.4-0.2 0.5 0 1-0.2 2.4 0.2 1.7 0.3 1.2 0 0.6-1.4 6.9 0.1 0.7 0.1 0.5 0.3 0.5 0.1 0.6-0.1 0.6-0.2 0.6-1.1 1.5-1.9 2-2.9 1.5z" id="ECB" name="Bolivar">
  </path>
  <path d="M749.6 93.8l1 0 0.3 0 0.2-0.2 0.3-0.4 1.8-2.8 1.1-1.2 0.6-0.4 0.1-0.1 0-0.3 0-0.3 0.2-0.4 0.3-0.4 0.7-0.7 0.6-0.6 1-0.6 0.7-0.2 0.6-0.1 1.6 0.6 1.9 0.2 0.6 0.2 1.1 0.2 0.6 0.1 0.5 0 0.5 0.2 0.3 0.3 0.8 0.8 0.5 0.3 0.3 0.1 0.4 0 0.4-0.2 0.9-0.7 0.9-1 1.8-2.4 1.8-1.9 0.7-1.1 0.5-0.4 1.7-1.3 0.5-0.2 0.5 0 0.8 0.1 0.6 0 0.8-0.1 0.5-0.2 0.4-0.3 0.3-0.4 0.1-0.7 0-0.8-0.5-0.9-1.4-1.8-0.3-0.5-0.3-0.6-0.4-1.6-0.2-0.6-1.6-2.9-0.1-0.5 0.1-0.3 0.5-0.3 0.5-0.1 1-0.1 0.4-0.1 0.4-0.3 0.5-0.4 0.3-0.6 0.1-0.8-0.1-1 0.1-2.1 0.8 0.4 1 0.3 2 0.2 0.7 0.2 0.4 0.2 1 0.9 2.4 1.6 1.7 1.5 1.3 1.5 1.4 2.5 2.1 2.7 1.2 3.1 0 0.5-0.1 1.5 0.1 1 0.3 1 0.6 0.8 2 0.4 0.4 0.3 0.7 0.5 1.1 0.2 0.9 0.1 1.9 0.5 2.5 1.4 2.2 1.5 2.5 1.4 0.7 0.5 0.9 1.2 1.3 0.6-1.7 2.2-0.3 0.7 0 0.4 0 0.1 0.1 0.1 0.1 0.1 0.1 0 0.1 0 0.1 0 0.2 0.1 0.1 0.1 0.1 0.2 0 0.2-0.2 0.2-0.2 0.1-0.7 0.8-1 1.4-0.2 0.3-0.2 0.2-0.3 0.1-0.2 0.1-0.3 0.1-0.8 0.5-1.9 2-6.2-1.9-0.9-0.1-0.7 0.4-1.3 1-0.9 0.6-2.4 1.1-1.5 0.4-1.3 0-1.5-0.4-1-0.5-0.8-0.6-1.2-1-0.6-0.5-0.5 0-0.6 0.2-1 0.9-0.3 0.1-0.1-0.2 0-0.4 0.4-1 0-0.5-0.1-0.6-0.1-0.6-0.4-0.4-0.9-0.4-1.5-0.1-2.8 0.1-2.9 0.6-0.7-0.1-1.2 0.4-2.8 0.3-0.6 0.2-0.7 0.1-1.2 0-5.5-1.2-1.3-0.1-4.6 0.5-2.2 0.7-1.1 0.1-0.7 0.2-0.8 0-0.9-0.2-0.8-0.4-0.6-0.3-0.9-2.1z" id="ECI" name="Imbabura">
  </path>
  <path d="M783.2 160.4l-1.6 1.4-0.2 0.4-0.3 0.6-0.2 0.5-0.1 0.6 0 0.9-0.6 1.1-0.5 0.6-0.7 0.3-1.3 0.1-0.7-0.3-0.4-0.3-0.3-0.3-0.4-0.2-0.4-0.2-0.5 0-0.6 0.1-0.6 0.5 0 0.3 0 0.8-0.2 0.4-0.4 0.3-0.5 0.2-1.4 0.1-0.6 0.2-1.3 1-0.8 0.4-0.9 0.2-1.4 0-2.5-0.6-1 0.1-1 0.2-1.3 0.4-1.5 1.3-1.6 0.6-1.5-0.5-0.7 0.1-0.9 0.5-1.5 1.2-0.9 0.3-1.2 0.1-1.3-0.4-1-0.5-1.7-1-0.3-0.4-0.3-0.4-0.3-0.3-0.8-0.1-0.7 0-1.6 0.2-1.2 0.3-4 2-2.5 0.2-0.4-1.7-1.4-1.9-0.5-0.8 0-1.3 0.2-1.4 0.8-3.8-0.1-0.9 0-1 0.2-0.9 0.7-1.9 0.4-0.8 0.6-0.6 0.6-0.5 0.6-0.5 1.5-2.7 0.4-0.5 0.5-0.4 0.5-0.3 0.5-0.3 0.3-0.4 0.8-1.4 3.7-8.8 0.6-2.4 0.8 1.2 0.2 0.2 0.3 0.2 0.5 0.2 0.3-0.1 0.6-0.2 0.3-0.4 0.2-0.4 0.2-0.8 0.2-0.3 0.4-0.2 0.6-0.2 0.4-0.2 0.2-0.1 0-0.3-0.1-0.4-0.2-0.5-0.3-0.4-0.4-0.3-0.9-0.5-0.3-0.2-0.1-0.2 0-0.3 0.3-0.3 0.5-0.9 0.6-1.6 0.3-0.3 0.2-0.2 0.2-0.2 0.9-0.4 0.3-0.2 0.2-0.2 0.1-0.4 0.1-0.4 0.1-0.4 0.3-0.4 0.2-0.2 0.3-0.1 0.6-0.2 0.2-0.2 0.2-0.2 0.1-0.1 0.3-0.1 0.5 0.4 0.2 0.2 0 0.7 0.1 0.4 2.1 2.6 0.8 1.5 0.6 1 0.2 0.5 0.3 1.3 0.2 0.6 0.8 0.6 3.4 2.5 0.9 1.2 0.5 1.2 0.1 0.9 0.2 0.5 0.4 0.5 0.3 0.2 0.6-0.2 1.4-1 0.5-0.2 0.4-0.1 0.4-0.2 0.4-0.2 0.5-0.5 0.7-0.3 0.5-0.1 0.4 0.4 0.3 0.4 0.3 0.1 0.6-0.2 1.4-0.8 0.6 0 0.8 0 1.3 0.2 0.7-0.1 1.5 0.6 3.6 3.7-0.5 1.4 0 0.6 0.6 1.9 0.3 1.9 0.1 1.2-0.2 1.1-0.6 1.1-0.6 0.8-0.3 0.8-0.1 0.5 0 0.8-0.1 0.5-0.3 0.3-0.3 0.3-0.3 0.2-0.1 0.4 0.1 0.3 0.4 0.3 1.3 0.2 0.9 0.5z" id="ECX" name="Cotopaxi">
  </path>
  <path d="M737.4 225l-2.7-2.6-4-6.7-0.7-0.7-1.6-1.3-0.7-0.4-1.2-0.6-2.4-1.7-1.1-0.5-1.2-0.1-0.9 0.1-2.8 1-1.9 0.3-1.2-0.3-0.4-0.4-0.3-1.2-1.3-2.3-0.7-1.8-0.4-0.7-1.3-1.8-0.5-0.9-0.4-1.1-0.6-1.1-0.8-0.8-4.4-2.3-0.3-0.3-0.1-0.6-0.1-0.7 0-0.7 0.4-0.9 0.1-0.4-0.8-2.4 0-0.6 0.2-3.4 0.1-0.6 0.9-2.5 0.3-0.5 0.6-1 1-1 0.5-0.6 3-5.7 0.1-0.5 0.2-0.6 0-1.1 0-0.3 0.2-0.3 0.2-0.1 0.3-0.1 0.6-0.1 0.2-0.2 0.2-0.2 0.1-0.6 0.1-0.3 0.2-0.1 0.2-0.1 0.4-0.1 0.3-0.1 0.2-0.4 0.2-0.4 0.1-0.6 0.2-0.4 0.4-0.1 0.8-0.1 0.4-0.3 0.5-0.8 0.6-0.7 0.2-0.3 0.3-0.3 0.5-0.2 0.5-0.1 0.5-0.1 0.3-0.4 0.3-0.6 0.4-1.9 0.1-0.4 0.3-0.6 0.3-0.4 0.5-0.4 0.4-0.2 0.3-0.5 0-0.3-0.2-0.4 0-0.5 0.8-2.4 0.3-1.7-0.3-0.9-0.7-0.4-0.9 0-1.9 0.2-1.8 0.5 1.1-2.2 0.7-3.7 0.5-1 0.5-0.6 0.5-0.3 0.6-0.1 0.5-0.4 0.2-0.3 0.6-1.9 1.2-2.4 0.5-1.2 0.7-2.5 1.6 0.1 1.2 0.1 2.9-0.1 1.2 0.2 0.6 0.3-0.2 0.3-0.4 0.4-0.2 0.5 0.1 0.8 0.3 0.9 0.1 0.8-0.2 0.6-0.4 0.7-0.1 0.5 0.1 0.5 0.1 0.5 0.3 0.4 0.5 0.4 0.7 0.2 0.7 0.1 0.7 0 0.7-0.2 0.6-0.4 0.5-0.6 0.8-0.7 0.7-0.5 1.4-0.8 0.6-0.4 4-4 0.8-0.4 0.6-0.1 1 0.4-0.6 2.4-3.7 8.8-0.8 1.4-0.3 0.4-0.5 0.3-0.5 0.3-0.5 0.4-0.4 0.5-1.5 2.7-0.6 0.5-0.6 0.5-0.6 0.6-0.4 0.8-0.7 1.9-0.2 0.9 0 1 0.1 0.9-0.8 3.8-0.2 1.4 0 1.3 0.5 0.8 1.4 1.9 0.4 1.7-2.6 1.2-1 1.4-1.3 2-0.8 1-0.1 0.7 0.1 0.3 0.4 0.1 0.5-0.2 0.4-0.4 0.7-1 0.3-0.3 0.3 0 0.4 0.2 0.5 1 1.6 1.1 0 0.3-0.1 0.3-0.3 0.3-0.3 0.1-0.3 0-0.2 0-0.3 0.4-0.1 0.5-0.1 4.2 0.3 1.2 0.4 0.9 0.8 0.8 1.7 1.1 0.5 0.4 0.3 0.7-0.1 0.7-0.3 0.8-0.2 0.5-0.3 0.5-0.3 0.2-0.2 0-0.3-0.2-0.3-0.1-0.3 0-1.5 1.7-0.4 0.4-0.5 0.3-0.3 0.2-0.1 0.3 0.2 0.3 0.3 0.1 0.4 0.1 0.3 0.1 0.2 0.3 0.3 0.1 0.3 0 0.4 0.2 0.4 0.5 0.6 1.2 1.6 2.4 0.1 0.5-0.2 1 0 0.6 0.2 0.7 0.4 0.7 0.4 0.6 0.3 0.6-0.2 0.8-0.5 1-0.9 3.6-0.2 0.3-0.7 0.5-0.2 0.4 0 0.5 1.8 2.3 1.8 3 0.4 0.7 0 0.5-0.4 0.9-0.4 1.8-0.9 1.7z" id="ECR" name="Los Rios">
  </path>
  <path d="M730.5 105.7l1.1-2.6 0.7-1.3 0.6-1.6 0.7-1 0.2-0.3-0.1-0.3-0.1-0.4-0.4-0.4-0.5-0.4-1.4-1-0.2-0.3 0-0.4 0.3-0.4 0.5-0.3 1.1-0.5 0.8-0.5 1.1-0.9 0.5-0.3 0.7-0.3 0.5-0.3 1.6-1 0.6-0.2 0.8 0 1.3 0.1 1.4 0 5.7 1.2 0.5 0.2 0.3 0.2 0.8 1.1 0.9 2.1 0.6 0.3 0.8 0.4 0.9 0.2 0.8 0 0.7-0.2 1.1-0.1 2.2-0.7 4.6-0.5 1.3 0.1 5.5 1.2 1.2 0 0.7-0.1 0.6-0.2 2.8-0.3 1.2-0.4 0.7 0.1 2.9-0.6 2.8-0.1 1.5 0.1 0.9 0.4 0.4 0.4 0.1 0.6 0.1 0.6 0 0.5-0.4 1 0 0.4 0.1 0.2 0.3-0.1 1-0.9 0.6-0.2 0.5 0 0.6 0.5 1.2 1 0.8 0.6 1 0.5 1.5 0.4 1.3 0 1.5-0.4 2.4-1.1 0.9-0.6 1.3-1 0.7-0.4 0.9 0.1 6.2 1.9-1.3 2.3-0.1 0 0 0.1 0.1 0.1 0.1 0.1 0.2 0.1 0.6 0.2 0.6 0.2 0.1 0 0.1 0 0.2 0 0.1 0 1.5 0.7 0.7 0.3 0.3 0 0.2 0.1 0.2 0.1 0.8 0.4 0.3 0.3 0.2 0.3 0.1 0.5 0.1 0.6 0.1 0.1 0 0.1 0.3 0.2 0.6 0.2-0.7 1.2-0.6 0.5-3.9 2-1.9 0.6-0.4 0.4-0.2 0.5-0.1 1.4-0.2 0.6-0.2 0.3-0.4 0.1-0.2 0.3-0.6 1-0.3 0.2-0.6 0-1.1-0.2-0.5-0.1-0.2 0.1-0.2 0.5-0.1 0.5-0.6 1.1-0.5 0.5-0.7 0.2-0.4 0.1-0.3-0.2-0.6-0.5-0.4-0.2-0.4 0-1.3 0.4-0.5 0.1-0.5 0.2-0.4 0.3-0.1 0.4 0.1 0.6-0.2 4.9-0.4 1.3-0.6 1.3-1.5 2-0.6 1-0.3 0.8 0.8 1.5-0.1 0.6-0.3 0.7-0.6 1.1-0.3 0.6-0.1 0.6 0 0.5 0 0.7-0.6 1.1-0.6 0.9-1 1-0.5 0.7-0.3 0.7-0.2 1.5-0.2 0.7-0.3 0.4-0.4 0.3-1.4 0.3-0.7 0.2-1.1 0.5-3.6-3.7-1.5-0.6-0.7 0.1-1.3-0.2-0.8 0-0.6 0-1.4 0.8-0.6 0.2-0.3-0.1-0.3-0.4-0.4-0.4-0.5 0.1-0.7 0.3-0.5 0.5-0.4 0.2-0.4 0.2-0.4 0.1-0.5 0.2-1.4 1-0.6 0.2-0.3-0.2-0.4-0.5-0.2-0.5-0.1-0.9-0.5-1.2-0.9-1.2-3.4-2.5-0.8-0.6-0.2-0.6-0.3-1.3-0.2-0.5-0.6-1-0.8-1.5-2.1-2.6-0.1-0.4 0-0.7-0.2-0.2-0.5-0.4 1.7-2.6 6.9-0.7 1-3.8-2.8-3.1-5.1-2.7-1.7-1.7-9.6 0.3-0.4-4.5-11-0.3-2.9-2.2z" id="ECP" name="Pichincha">
  </path>
  <path d="M717.9 109l1.1-0.1 1.2 0.3 3.3 0.4 1.6 0.4 0.5 0.3 0.5 0.2 0.5 0.5 0.1 0 0.2-0.2 0.2-0.2 0.3-0.2 0-0.3-0.1-0.2-0.2-0.1-0.2 0-0.2 0-0.1 0-0.2-0.1-0.6-0.8-0.1-0.3 0.1-0.3 1-0.3 0.5-0.3 1.4-0.3 0.7-0.4 0.8-0.7 0.3-0.6 2.9 2.2 11 0.3 0.4 4.5 9.6-0.3 1.7 1.7 5.1 2.7 2.8 3.1-1 3.8-6.9 0.7-1.7 2.6-0.3 0.1-0.1 0.1-0.2 0.2-0.2 0.2-0.6 0.2-0.3 0.1-0.2 0.2-0.3 0.4-0.1 0.4-0.1 0.4-0.1 0.4-0.2 0.2-0.3 0.2-0.9 0.4-0.2 0.2-0.2 0.2-0.3 0.3-0.6 1.6-0.5 0.9-0.3 0.3 0 0.3 0.1 0.2 0.3 0.2 0.9 0.5 0.4 0.3 0.3 0.4 0.2 0.5 0.1 0.4 0 0.3-0.2 0.1-0.4 0.2-0.6 0.2-0.4 0.2-0.2 0.3-0.2 0.8-0.2 0.4-0.3 0.4-0.6 0.2-0.3 0.1-0.5-0.2-0.3-0.2-0.2-0.2-0.8-1.2-1-0.4-0.6 0.1-0.8 0.4-4 4-0.6 0.4-1.4 0.8-0.7 0.5-0.8 0.7-0.5 0.6-0.6 0.4-0.7 0.2-0.7 0-0.7-0.1-0.7-0.2-0.5-0.4-0.3-0.4-0.1-0.5-0.1-0.5 0.1-0.5 0.4-0.7 0.2-0.6-0.1-0.8-0.3-0.9-0.1-0.8 0.2-0.5 0.4-0.4 0.2-0.3-0.6-0.3-1.2-0.2-2.9 0.1-1.2-0.1-1.6-0.1 0.9-1.2 0.6-1.5 0.1-0.5 0.1-1.2 1.7-2.7 0.4-0.8 0.2-0.8-0.4-9.7 0.1-0.9-0.2-0.4-0.5-0.2-0.4 0-0.9 0-0.3 0-1.9-0.6-0.4-0.2-1.4-1.3-1.4-1.7-0.4-0.4-0.7-0.4-0.4-0.4-0.4-0.2-0.3-0.1-0.5-0.4-0.3-0.5-0.2-1.1 0.1-0.6 0.1-0.4 0.4-0.5z" id="ECSD" name="Santo Domingo de los Tsáchilas">
  </path>
 </g>
 <g id="points">
  <circle class="-4.677585246151541|-91.17236996218656" cx="90.9" cy="361.9" id="0">
  </circle>
  <circle class="-2.0072865878189567|-82.78020890747952" cx="545.5" cy="217" id="1">
  </circle>
  <circle class="1.330586735096773|-76.06648006371388" cx="909.1" cy="36.2" id="2">
  </circle>
 </g>
 <g id="label_points">
  <circle class="Esmeraldas" cx="738" cy="70.4" id="ECE">
  </circle>
  <circle class="Carchi" cx="804.9" cy="71.5" id="ECC">
  </circle>
  <circle class="Sucumbios" cx="888.1" cy="114.9" id="ECU">
  </circle>
  <circle class="Orellana" cx="901.5" cy="154.9" id="ECD">
  </circle>
  <circle class="Pastaza" cx="865.7" cy="202" id="ECY">
  </circle>
  <circle class="Morona Santiago" cx="807.6" cy="241.5" id="ECS">
  </circle>
  <circle class="Zamora Chinchipe" cx="757.8" cy="328.1" id="ECZ">
  </circle>
  <circle class="Loja" cx="718" cy="331.9" id="ECL">
  </circle>
  <circle class="El Oro" cx="703.9" cy="299" id="ECO">
  </circle>
  <circle class="Guayas" cx="695.5" cy="208.4" id="ECG">
  </circle>
  <circle class="Galápagos" cx="99.6" cy="150.5" id="ECW">
  </circle>
  <circle class="Santa Elena" cx="668.8" cy="227" id="ECSE">
  </circle>
  <circle class="Manabi" cx="699.7" cy="132" id="ECM">
  </circle>
  <circle class="Azuay" cx="740.5" cy="273.7" id="ECA">
  </circle>
  <circle class="Cañar" cx="756.2" cy="247.2" id="ECF">
  </circle>
  <circle class="Napo" cx="777.5" cy="176.7" id="ECN">
  </circle>
  <circle class="Tungurahua" cx="807.1" cy="151.2" id="ECT">
  </circle>
  <circle class="Chimborazo" cx="764.7" cy="211.9" id="ECH">
  </circle>
  <circle class="Bolivar" cx="747.2" cy="193.6" id="ECB">
  </circle>
  <circle class="Imbabura" cx="787.7" cy="85.8" id="ECI">
  </circle>
  <circle class="Cotopaxi" cx="755.9" cy="154.9" id="ECX">
  </circle>
  <circle class="Los Rios" cx="718.9" cy="190" id="ECR">
  </circle>
  <circle class="Pichincha" cx="778.9" cy="114.5" id="ECP">
  </circle>
  <circle class="Santo Domingo de los Tsáchilas" cx="740.2" cy="123.6" id="ECSD">
  </circle>
 </g>
</svg>