<?xml version="1.0"?>
    
<!--********* Copyright (c) 2024 Pareto Softare, LLC DBA Simplemaps.com ***************************************
************* Free for Commercial Use, full terms at  https://simplemaps.com/resources/svg-license ************
************* Attribution is appreciated! https://simplemaps.com *******************************************-->

<svg baseprofile="tiny" fill="#6f9c76" height="1000" stroke="#ffffff" stroke-linecap="round" stroke-linejoin="round" stroke-width=".5" version="1.2" viewbox="0 0 1000 1000" width="1000" xmlns="http://www.w3.org/2000/svg">
 <g id="features">
  <path d="M498.5 941.9l0.8-3 1.4-5.5 0-3.9-0.1-1.1-0.4-1.1-2.7-5-2.1-7.7-0.7-1.8-0.7-1-1-0.6-0.5-0.3-0.3-0.4-0.3-0.5-1.5-9.1-0.4-0.9-1.1-1.1-0.7-0.9-0.7-1.6-0.1-0.8-0.1-1.2 0.3-1.2 0.3-0.8 1.3-1 3.9-1.1 6 3.5 4.1 3.5 1.1 0.4 8.4 2.1 2.2 0.8 0.9 0 0.7-0.2 3.3-2.3 3.4-6.3 1.3-2.5 0.7-0.5 1.3-0.7 2.4-0.7 2.9-0.6 0.5-0.2 1.2-1.3 3.7-5.4 1.2-2.4 0.6-1.9 0.2-1.3 0-0.7-0.9-8.7 0.3-4.9-1.1-2.2-5.2-5.1-6.6-5.5-1.5-1.5-0.8-0.7-1.3-0.5-9.9-2.8-3.1-2.2 7.6-19 2.9-2.5 0.4-0.4 7.5-1.5 2.4 0.2 1 0.5 1.1 0.4 0.5-0.3 0.2-0.6-0.7-4.2 3-0.4 3.9-12.2 13.6-0.1 5.1-6.8 0.8-1 0.7-0.3 0.8-0.3 1.5-0.3 0.9-0.1 0.9 0.1 0.6 0.1 0.6 0.2 0.6 0.3 9.6 7.6 1.1-7.6 1.8-2.7 4.4-3 4.1-2.7 3.5-2.4 4.2-1.1 1.5 0.3 0.8 0.6 0.7 0.9 1.4 1.5 2.4 1.8 0.4 0.2 13.4-6.5 4.6-2.7 0.1-0.7 0-2.2-1.6-4.9 8.6 0.9 2.7 1 0.4 0.4 1.5 1.6 1.2 1.8 1.1 2 2.4 3.6 0.8 0.5 0.7 0.3 16.1-0.7 1.4 0.5 3 3.3 0.6 1.5-0.1 1-0.2 1.2-1 3-0.7 1.4-0.6 2.2-0.6 2.5-0.1 1.2 0 0.8 0.2 0.3 0.2 0.5 2.8 3.3 0.1 0.1-1.5 0.6-5.3 6.4-2.9 2.1-0.6-4.1-2.3-2.3-3.2-0.3-3 2.3-1.4 3.5 0.9 2.4 1.6 2.2 0.6 2.6-1.4 2.2-2.1 1.5-1.3 1.9 1.3 3.1 4.5 0.6 1.5 0.7 1.2 1.1 0.7 0.9 1.2 2.3 0.3 1.1 0.4 3.4 0.4 1.4 0.9 0.9 2.7 1.4 0.7 0.9 0 3.4-1.3 1.4-23 5.5-5.7 2.6-5.4 4.2-4.3 4.7-9.1 16.2-0.6 1.8 0.2 1.7 1.4 3.2 0.1 0.4 0 1.2-3.2 1.7-3.1-1.3-5.6-4.3-3.9-1.1-3.1 0.3-9.5 3.6-2.3 1.5-4.6 4.6-20.5 14.4-3.2 2.8-1.8 3.1-1.4 3.2-2 3.1-2.7 2.1-5.8 3.2-2.6 2.6-1.7 3.2-1.1 3.5-0.6 3.6 0.1 3.4 3.5 14.3-30.5-12.6z" id="GTJU" name="Jutiapa">
  </path>
  <path d="M657.9 801.9l-0.1-0.1-2.8-3.3-0.2-0.5-0.2-0.3 0-0.8 0.1-1.2 0.6-2.5 0.6-2.2 0.7-1.4 1-3 0.2-1.2 0.1-1-0.6-1.5-3-3.3-1.4-0.5-16.1 0.7-0.7-0.3-0.8-0.5-2.4-3.6-1.1-2-1.2-1.8-1.5-1.6-0.4-0.4-2.7-1-8.6-0.9-2.3 0.1-0.8-0.1 0.8-4.8 7.7-21.4-0.9-2.6-0.7-1.8-0.3-1.2 0.1-1.4 0.1-0.6 0.2-0.6 0.4-2.7 0.1-0.7-0.5-2.6-0.8-2.3-1.1-1.8-2.8-0.8-10.1 0.5 5-9.2 0.9-3.6-0.6-5.4 0.2-1.2 4.9-4.6 3.7-2.8 2.5 0.3 7.3 3.7 6.9 3.4 3.1 0.7 11.5 0.2 3.2-0.7 13-10.5 4.1-1.2 1.8 0.1 4.7 1.4 2.9 2 3.5 0 10.6-3.6 3.3 1.1 0.9 1.1 1.4 1 1.6-0.1 2.5-0.8 1.3-1.1 1-1.2 1.1-1.6 0.9-0.9 1.4-1 4.8-2.4 1.6-0.5 1.1-0.1 0.6 0.2 0.4 0.3 0.4 0.3 0.3 0.4 0.3 0.5 0.9 1.5 0.6 1.6 0.3 0.5 0.2 0.5 0.3 0.5 0.7 1.5 0 0.2-2 2.9-5.3 4.6-1.7 2.6-0.2 4.2 1 3.1 1.9 2.8 4.3 5.3 2 3.3 4 9.8 2.4 3 1.9 1.8 0.9 1.4 0.4 0.5 0.4 3.8-0.5 1.7-2.3 2.5-0.8 1.4 0.9 11.2-0.1 3.9-1 3.7-2.5 2.4-2.5 0.2-5.4-1.9-2.6-0.5-3.6 0.5-1.7 1.1-1 1.7-1.9 2.4-6.7 5.8-3 3.3-2.2 3.8-1.7 1.9-4.8 1.2-2.2 1.5-1.4 2.9-0.3 3.5 0.4 6.8-6.2-4.5-0.2 0.5-1.1 1.7-0.3-4.3-2.2 0.9-4.9 5-3.3 0.7-2.4-0.9-2.5-1.3-3.4-0.4-2.3 1z" id="GTCQ" name="Chiquimula">
  </path>
  <path d="M713.6 472.7l-0.1-0.1-0.2-0.1-1.1-0.9-5-0.7-19.7 0.4-2.5 2.5-1.3 3.7-0.4 1.5-0.3 0.7-0.4 0.8-0.8 0.8-2.5 1.5-6.5 1.6-2.5 1.2-1.7-0.1-3.7-2-4.5 0.9-5.7 2.6-0.3 0.1-0.1-0.3-0.5-11.5-0.2-0.6-0.9-0.4-1.4-0.1-3 0.2-1.3 0.2-0.9 0.4-0.4 0.3-0.5 0.3-0.6 0.2-0.6 0.1-0.8 0-13.3-1.7-1.5 0-2.5 2.1-0.5 0.3-0.5 0.2-1.2 0.3-2.9-0.2-1-0.3-1.2-0.6-4.4-3.1-3.4-2.9-0.6-0.3-5.1-2.4-0.6-0.2-0.6 0-0.8 0.6-1.2 0.6-0.6 0.1-1.9-0.1-0.6 0-0.6 0.2-0.4 0.3-0.3 0.4-0.9 1.3-0.3 0.3-0.2 0.2-0.4 0.2-1.2 0.3-7.2 0.4-3.3-0.5-0.9 0-0.8 0.1-0.6 0.1-0.7-0.2-0.8-0.7-1-2-0.3-1.1-0.6-1.3-2.8-3.8-0.7-1.4-0.6-0.9-0.6-0.3-1.2 0.2-2-0.2-3.7-2.6-1 1-0.5 0.2-2.4-0.5-3.7-2.8 0.6-1.5-0.1-0.5-0.4-0.3-0.6-0.4-0.3-0.6 0-0.1 0.1-0.1 0.1-0.4 0.2-0.5-0.1-0.6-0.3-0.4-0.4-0.3-1.6-0.7-0.5-0.1-0.3 0.1-0.1 0.7 0.5 1.7 0 0.4 0 0.3 0 0.1-0.1 0.1-0.4 0.2-1.7 0.4-0.6 0.3-0.7 0.1-0.5-0.1-0.8-1-0.3-0.1-0.6 0-1.2 0.3-0.8-0.2-0.6-0.7-0.2-0.8-0.5-0.6-1-0.2-2.3 0.3-1 0.6-0.5 0.5-0.2 0.5-0.1 0.3-0.4 0.3-1.4-0.2-36.4-11.7-43.7-6.7-5.8 0.6 0.8-1.2 1.5-3.1 0.6-1.9-1.2 0.5-0.6 0.2-0.4 0.2-0.7 0.8-1.6 0-0.9-3.8 5.2-4.4-2.7-2.6 0-1.4 4.7-1.9-1.4-2.3-6.3-3.5-0.8-4.3 1.5-3 2.7-2 2.5-1.3-2.9-1.1-2.1-1.7-0.4-2.2 2.5-2.7 0.9 0.9 0.7 0.4 2.7 0.3-0.8-1.1-1.3-2.5-0.8-1.2 1 0.1 0.3-0.3 0-0.6 0.2-0.6 1.3 0.9 1.7 0.5 1.4-0.6 0-2.3-1.4 0.5-3.1-1.1-2.1-1.6 1.5-0.9 3.9-1.2 3.2-3.1 1.2-3.6-1.8-2.9-1.4 0 0 1.7-1.5 0 0.6-3.2 2-1.1 2.9 0.2 3.3 0.9-2.5-4.2-0.3-1.2 0-3-0.4-3.2-1.3-0.3-1.9 0.9-2.4 0.3-1.2-0.5-1.6-1.1-2.2-1-6.8-0.8-0.5-1.3 0.3-1.9-1.2-2.5-1.2-1.2-2.1-1.5-2.4-0.7-5.1 2.5-1.3-2-1-4.7-2.1 0-5.5 1.6-1.2 0.6-1.2-0.7-3.1-0.6-3.4-0.2-2.6 0.8 1.1-2.1 1.9-1.6 1.5-1.7-0.2-2.4-2.4-1.5-3.3-0.2-1.9-0.8 1.8-3.4-0.8-3.6 1.4-3.8 0.7-3.2-2.9-1.8-0.6 1.5-0.7 0.8-1.2 0.3-1.7 0.4 0-1.4 2.8-5.3-3-8-14.4-21-3.1-2.5-7.7-3.9-3.2-2.6 0.8-2.7 0-1.5-3-1.7-2 1.7-2.5 0-14.7-4.6-4-2.3-6.2-6.3-4.4-2.2 3.4-3.7-0.5-1.8-2.9-0.5-3.8 0-0.3 1 0.8 2 0.2 2.1-2.1 0.9-1.2-0.6-2.6-3-1.3-1-8.2-2.9-2.5-2.3-1-4.6-1.2-2.4-7.5-9.2-0.9-2-1.1-4.2-1.1-1.4-2.3-0.5-5.1 0.6-2.2-0.9-7.6-8.4-2-3.1-0.9-2.2-1.1-4-0.9-1.6-1.9-1.1-4.4-1.2-0.9-1.4-0.4-3.5-1.2-4-1.9-3.6-2.3-2-5.9-0.3-5.7 0.9-4.3-0.7-1.8-5.4-3.3-1.8-6.6-1.3-5-2.3 0.9-3.6 1.1-0.2 0.5-0.1 94 0.7 0.1-61.7 0.1-61.8 1.8-1.9 4.4-1.2 9.2 0 47.1 0 47.1 0 47 0.1 47.1 0.1 47.1 0 47 0 47.1 0.1 47.1 0 0.9 48.6 1.2 62.2 0.3 63.9-3.6 58-3.9 62.8-1.9 23.1-3.3 46-5.5 51.5-0.4 10.8z" id="GTPE" name="Petén">
  </path>
  <path d="M99.1 573.3l1.3 4.6 3.7 4.7 3.2 1.2 0.5 3.3 2.1 23 2.4 1.9 11 0.5 0.5-0.7 7.3-8.4 2.9-1.9 7-0.6 6.5-4 3.6-2.3 1.4-0.5 1.5-0.1 1.8 0.9 7.3 4.6 4.6 0.3 11.6-3.3 3.3-0.1 0.2 0.9 1 3 3.1 5.5 3.5 4.9 4 4.3 4.2 3.6 2.1 1.5 2.2 2.1 1.1 2.9-1 4.2-1.4 1.4-7.4 6.1-3.9 4.2-4.1 6-2 6.6 2.6 6.2 4 3.4 0.9 3.6-1.3 9.5-0.8 2.2-1.8 2.4-6.3 6.1-1.6 0.8-1.7 1-0.3 0.6-0.3 0.9 0.2 1.6-0.4 2.1-1.9 2.7-1.4 8.3-1.7 2.9-0.3 0.5-5.8 12.3-0.2 0.7-0.5 0.8-0.8 0.8-2.8 2.1-1 1.1-0.5 0.8-2.8 5.1-2.1 1.3-1.9 0.8-2.1 0.2-6-0.4-13.5-1.4-18.8 5.4-4.6 0.9-2.5 1.3-5.8 4.7-7.4 8.5-0.8 1.4 0.3 0.6 0.6 0.7 1.9 0.7 1.1 0.3 12.7 1.3 1.8 0.4 0.5 0.3 2 3.8 5.1 15.1-6.4 1.6-1.9 0.9-2.3 2.6-0.9 0.6-0.8 0.4-0.6 0-0.6 0-0.7-0.1-1.1-0.4-2-0.4-2.2-0.2-1 0.2-0.7 0.3-1.9 1.8-1.9 1.3-1.1 0.5-1.1 0.1-2.2-0.5-0.9 0.1-0.6 0.2-0.3 0.6-18-13 4.3-0.7 3.9-4.7 4.7-13 4.6-8.6 0.8-3.4-0.2-4.1-3.8-10.9-0.1-1.6 0.3-3.3-0.2-1.7-1.9-5.5-0.5-1.8-0.2-4.7 1.1-2.6 4.4-5.2 2.4-6.7-0.6-13.8 0.7-7.3 2.6-2.5 2.6-0.8 2.8-0.3 2.8-1.2 2.2-2.6 4.3-9.8-27.8-36.3-1.6-3.6-0.1-4.1 1.4-3.9 4-6.9 10.4-18 6.8-11.7z" id="GTSM" name="San Marcos">
  </path>
  <path d="M99.1 573.3l8-13.9 16.9-29.4 16.9-29.3 14.8-25.6 10.4-18.2 4-6.9 4.8-8.4 2.6-3.3 3.4-1.7 9.7 0 29.6-0.1 29.5 0 29.5-0.1 29.5 0 28.3-0.1-26.3 52.5-2 4.1-14 28.5-0.5 0.7-4 3.9 0.3 1.5 0.2 0.3 0.2 0.6-0.4 0.4-0.8 0.3-1.8 0.1-0.9 0.2-0.9 1.3-5.8 4.1-0.7 0.1-1.3 0-0.7 0.1-0.6 0.2-0.5 0.2-2.6 2.3-0.9 0.3-0.8 0.1-0.7 0-0.6 0.4-0.5 0.9-0.3 2.7-0.5 2.1-1.3 2.5-0.7 1-0.5 1.3-0.2 0.8-0.3 5.2-1.2 2-0.4 1-0.2 0.6 0 0.7 0 0.7 0.1 1.4 0.1 0.6 0.2 0.6 0.5 1 0.3 0.5 0.2 0.5 0.7 0.9 4.3 5.2 0.3 0.7 0.2 0.7 0 2.8 0.3 1.3 0.9 2.1 1.2 1.9 1.3 1.5 4.1 3.8 0.8 0.2 1.2 0 6.3-0.7 2.7 0.5 5.9 2.8 0.5 4-1.9 8 0.3 1.2 1.2 3.3 1 4.5-3.3 0.8-1.8 0.2-5.3-1-1.9 0.1-4.9 1.6-9.3 1.7-1.7 1.2-0.9 1.9-5.6-0.4-2.5 0.4-5.1 2.4-3.4 2.4-9.2 2.2-2.2 0.6-1 0.5-0.8 0.8-2.8 4.2-1.3 2.5-0.2 0.6-0.4 5.6-0.2 0.6-0.9 0.6-0.8 0.3-7.2 0.4-4.2-5.1-0.7-2 0.1-2.2-1.6-1.3-14.4-3.8-1.1-2.9-2.2-2.1-2.1-1.5-4.2-3.6-4-4.3-3.5-4.9-3.1-5.5-1-3-0.2-0.9-3.3 0.1-11.6 3.3-4.6-0.3-7.3-4.6-1.8-0.9-1.5 0.1-1.4 0.5-3.6 2.3-6.5 4-7 0.6-2.9 1.9-7.3 8.4-0.5 0.7-11-0.5-2.4-1.9-2.1-23-0.5-3.3-3.2-1.2-3.7-4.7-1.3-4.6z" id="GTHU" name="Huehuetenango">
  </path>
  <path d="M337 436.3l1.2 0 29.6 0 29.5-0.1 29.5 0 19.2 0 4.2-0.5 3.8-1.4 2.6 1.3 1 1.7-0.4 2.1-1.8 2.5 1.3 2.4-1 2.1-2.1 0.9-2.6-1-0.4 1.2-0.8 0.9-0.3 1.1-1.3 0-2.5-1.6-4.2 2.6-2.2-1-1.5 0-0.8 1.4-0.7 0.1-1.5-1.5-0.5 0.8-0.3 0.7-0.2-0.1-0.4-1.4-0.8 1-1.4 1.2-0.7 0.7-2.8-1.5-1.9-1.8-2.2-1.3-3.6 0.2 0-1.7 1.1-0.3 1-0.6 1-0.4 0-1.7-1.5-0.9-1.2-0.1-1 0.9-0.7 1.8-1.5 0-3-3.2-5.5 1.2-9.1 5 1.5 3-1.9 1.3 0.1 1 0.4 1.1-0.8 1.9-1.5 0.9-1-0.9-0.7-1.5-0.5-0.7-2.4 1.1-3.4 2.8-2.9 0.7 0 1.6 0.9 0.8 1.9 2.1 1.5-1.5 0.4 0.7-0.1 0.4 0.2 0.2 1.1 0.2 0 1.5-2.1 1.6-1.7 3.2-2.1 7.4 5.4 0.6 1.3 3.8-2.3 4.3-5.2 2.1-0.9 1.3-2.8 7.8-5.8 7.4-1.4 3.2 2.8-0.3 2.5 0.3 2.1 1.1 1.4 2-1.1 0.4-0.9 0.9-1.1 0.3 0 1.4 3.2 2.4 1.2 0.8-2.9 2-0.8 2.6 1.7 2.1 7.9 1.4 9.1 2.6 2.6 1.4 1.7-1 2-0.4 2 0.4 1.7 1-0.7 0.2-0.7 0-0.3 0.3 0.1 1 4.1 2.7 2.1 2.8 0.2 3.2-1.9 3.6 3.3 2.3 2.1 4.6 1.5 4.6 1.1 2 1.4 1.3-1.5 2.6-2.3 2.4-1.2 0.6-6 5.4 0 1.5 1.8 2.4-2.6 1.4-8.6 0.8-2.9 1.5-0.9 3.5 0.5 4 1.1 3.1 4.4 4.3 6.7 2.7 33.6 5.2 3.4 1.9-0.1 4.5-2 5.1-2.1 3.7-1.4 2-8 11-7.1 0.6-25.1-1.1-35.5-8.4-1.7-0.9-1.4 24 16 20.7 19.3 12.2-0.1 1-1 4.8 3.9 4.1 1.4 1.2 1.4 1 1.6 1.4 1 2.1 2.4 5.7-2.9-1.1-7.7-1.6-6.3-2.2-3.6-0.5-11.1 0-10.2-3-3.3 0.1-3 0.5-2.5 0.5-13.9 0.4-3.9-0.8-3.6 2.2-3.7 1-2 1.1-0.4 0.2-0.5 0.4-1.3 2.2-4.9 13.7-1.5 1.3-5.7 2.8-3.6-1.2-1 0.6-0.8 3-0.2 0.5-0.3 0.4-0.4 0.4-0.4 0.3-0.5 0.2-0.7 0.1-0.6-0.1-0.6-0.6-0.4-1-0.4-2.4 0-1.2 0.2-0.9 0.3-0.5 1.8-1.9 0.6-1 0.6-1 0.1-0.6-0.4-0.7-1-0.7-2.5-1-1.1-0.3-0.9-0.1-0.6 0-0.6-0.2-1.4-0.9-2-3.7-1.1-2.9-2.6-1.3-6.8-5.3 0.5-1.4 1.2-3.7-0.1-1.4-0.6-1.2-3.5-2.5-1.5-2.4-1-4-0.6-1.1-0.4-0.6-3.9-2.9-2.2-1.5-0.4-0.4-0.3-0.5-0.1-0.7 0-0.7 0.2-1.7 0.5-1.5 0.7-1 1.7-1.4 1.1-0.4 0.9-0.3 2.3 0 0.6-0.5 0.5-0.8 0.2-2.3 0-1.1-1.4-2.5-1.5-0.5-0.3-3.1-2-3-1.1-4.3-1.5-0.7-5.9-6.1-0.7-1.5-2.9-1.5-1.1-3.4 0.1-4 1-6.2 0.9-1.9 1.7-1.2 9.3-1.7 4.9-1.6 1.9-0.1 5.3 1 1.8-0.2 3.3-0.8-1-4.5-1.2-3.3-0.3-1.2 1.9-8-0.5-4-5.9-2.8-2.7-0.5-6.3 0.7-1.2 0-0.8-0.2-4.1-3.8-1.3-1.5-1.2-1.9-0.9-2.1-0.3-1.3 0-2.8-0.2-0.7-0.3-0.7-4.3-5.2-0.7-0.9-0.2-0.5-0.3-0.5-0.5-1-0.2-0.6-0.1-0.6-0.1-1.4 0-0.7 0-0.7 0.2-0.6 0.4-1 1.2-2 0.3-5.2 0.2-0.8 0.5-1.3 0.7-1 1.3-2.5 0.5-2.1 0.3-2.7 0.5-0.9 0.6-0.4 0.7 0 0.8-0.1 0.9-0.3 2.6-2.3 0.5-0.2 0.6-0.2 0.7-0.1 1.3 0 0.7-0.1 5.8-4.1 0.9-1.3 0.9-0.2 1.8-0.1 0.8-0.3 0.4-0.4-0.2-0.6-0.2-0.3-0.3-1.5 4-3.9 0.5-0.7 14-28.5 2-4.1 26.3-52.5z" id="GTQC" name="Quiché">
  </path>
  <path d="M454.1 434.2l5.8-0.6 43.7 6.7 36.4 11.7 1.4 0.2 0.4-0.3 0.1-0.3 0.2-0.5 0.5-0.5 1-0.6 2.3-0.3 1 0.2 0.5 0.6 0.2 0.8 0.6 0.7 0.8 0.2 1.2-0.3 0.6 0 0.3 0.1 0.8 1 0.5 0.1 0.7-0.1 0.6-0.3 1.7-0.4 0.4-0.2 0.1-0.1 0-0.1 0-0.3 0-0.4-0.5-1.7 0.1-0.7 0.3-0.1 0.5 0.1 1.6 0.7 0.4 0.3 0.3 0.4 0.1 0.6-0.2 0.5-0.1 0.4-0.1 0.1 0 0.1 0.3 0.6 0.6 0.4 0.4 0.3 0.1 0.5-0.6 1.5 3.7 2.8 2.4 0.5 0.5-0.2 1-1 3.7 2.6 2 0.2 1.2-0.2 0.6 0.3 0.6 0.9 0.7 1.4 2.8 3.8 0.6 1.3 0.3 1.1 1 2 0.8 0.7 0.7 0.2 0.6-0.1 0.8-0.1 0.9 0 3.3 0.5 7.2-0.4 1.2-0.3 0.4-0.2 0.2-0.2 0.3-0.3 0.9-1.3 0.3-0.4 0.4-0.3 0.6-0.2 0.6 0 1.9 0.1 0.6-0.1 1.2-0.6 0.8-0.6 0.6 0 0.6 0.2 5.1 2.4 0.6 0.3 3.4 2.9 4.4 3.1 1.2 0.6 1 0.3 2.9 0.2 1.2-0.3 0.5-0.2 0.5-0.3 2.5-2.1 1.5 0 13.3 1.7 0.8 0 0.6-0.1 0.6-0.2 0.5-0.3 0.4-0.3 0.9-0.4 1.3-0.2 3-0.2 1.4 0.1 0.9 0.4 0.2 0.6 0.5 11.5 0.1 0.3 0.3-0.1 5.7-2.6 4.5-0.9 3.7 2 1.7 0.1 2.5-1.2 6.5-1.6-5.9 7.9-2.2 1.7-4.1 0.5-0.8 0.4-0.5 0.4-1.1 2-0.2 0.6-2.6 4.8-0.8 1.1-0.8 0.6-2.2 1-3.6 2.5-1.1 0.6-2.2 0.7-0.7 0.4-0.4 0.6-0.5 1.1-13.5 19.1-12 17.1-1.6 3.7 0.6 0.2 1 0.6 0.4 0.3 0.4 0.5 0.3 0.4 0.8 1.3 4.8 5.2 1.7 2.5 1.8 2.1 2.8 2.6 0.8 1.2 0.3 0.8-1.7 2.9-0.3 0.5-0.4 1.1-0.6 2.5-0.5 1-0.3 0.5-0.4 0.4-0.4 0.4-0.4 0.3-4.1 2-1.3 1-0.3 0.4-1.9 26 0 3.3 0.2 0.8 0.9 2.1 0.5 1 1.4 2 1.2 2.1 0.2 0.9 0 1.2-0.7 3.6-0.1 1.2 0.1 1 0.4 1.1 1 2.1 3.8 5.5-14.8 3.5-6.9-0.5-13.6 2.1-2.5-0.5-7.5-2.9-4.9-0.2-2.3 0.3-5.9 2.7-6.2 1.6-3.6 0.3-10.5-1.2 9.5-13.6 2.2-6.5 0.2-2.2-0.4-1.1-0.5-1-1-1.3-2.4-2.2-1.6-1-0.8-0.2-0.7-0.2-9.6 0.8-2 0.5-7 2.8-8.4 0.3-23.4-3.3-10.3-2.5-2.9-0.2-0.9 0.7-0.3 0.4-0.4 0.4-0.5 1-0.2 0.5-0.2 1.4-1.7 6.9-1.4 2.1-1.1 0.8-2.6 3.3-0.8 0.9-2.2 1.2-0.8 0.1-0.6-0.2-2.3-2.2-11.8-8.1-4.6-1.5-5.1 0.2-7.2-0.2-4.9 0-5-0.2 1.4-2 2.1-3.7 2-5.1 0.1-4.5-3.4-1.9-33.6-5.2-6.7-2.7-4.4-4.3-1.1-3.1-0.5-4 0.9-3.5 2.9-1.5 8.6-0.8 2.6-1.4-1.8-2.4 0-1.5 6-5.4 1.2-0.6 2.3-2.4 1.5-2.6-1.4-1.3-1.1-2-1.5-4.6-2.1-4.6-3.3-2.3 1.9-3.6-0.2-3.2-2.1-2.8-4.1-2.7-0.1-1 0.3-0.3 0.7 0 0.7-0.2-1.7-1-2-0.4-2 0.4-1.7 1-2.6-1.4-9.1-2.6-7.9-1.4-1.7-2.1 0.8-2.6 2.9-2-1.2-0.8-3.2-2.4 0-1.4 1.1-0.3 0.9-0.9 1.1-0.4-1.4-2-2.1-1.1-2.5-0.3-2.8 0.3 1.4-3.2 5.8-7.4 2.8-7.8 0.9-1.3 5.2-2.1 2.3-4.3-1.3-3.8-5.4-0.6 2.1-7.4 1.7-3.2 2.1-1.6 0-1.5-1.1-0.2-0.2-0.2 0.1-0.4-0.4-0.7-1.5 1.5-1.9-2.1-0.9-0.8 0-1.6 2.9-0.7 3.4-2.8 2.4-1.1 0.5 0.7 0.7 1.5 1 0.9 1.5-0.9 0.8-1.9-0.4-1.1-0.1-1 1.9-1.3-1.5-3 9.1-5 5.5-1.2 3 3.2 1.5 0 0.7-1.8 1-0.9 1.2 0.1 1.5 0.9 0 1.7-1 0.4-1 0.6-1.1 0.3 0 1.7 3.6-0.2 2.2 1.3 1.9 1.8 2.8 1.5 0.7-0.7 1.4-1.2 0.8-1 0.4 1.4 0.2 0.1 0.3-0.7 0.5-0.8 1.5 1.5 0.7-0.1 0.8-1.4 1.5 0 2.2 1 4.2-2.6 2.5 1.6 1.3 0 0.3-1.1 0.8-0.9 0.4-1.2 2.6 1 2.1-0.9 1-2.1-1.3-2.4 1.8-2.5 0.4-2.1-1-1.7-2.6-1.3 0.1-0.1z" id="GTAV" name="Alta Verapaz">
  </path>
  <path d="M679.3 482.8l2.5-1.5 0.8-0.8 0.4-0.8 0.3-0.7 0.4-1.5 1.3-3.7 2.5-2.5 19.7-0.4 5 0.7 1.1 0.9 0.2 0.1 0.1 0.1-0.1 2.8 1.8 2.9 0.5-0.7 2-1 2.5-0.8 1.9-0.1 4-1.7 16.3 0.8 6.2-1.1 6.8 0 19 4.9 8.1-3.2 3 1.4 7.2 6.1 7.4-1.8 9.5 2.1 7.3 4.3 0.8 4.7 4.9 0.8 21.5 13.6-2.6 10 0.4 1.5 5.8 0 2.4-0.9 0.6-1.9-0.2-1.6-0.5-0.3-0.1-0.9-0.7-0.8-0.7-1 0-1.7 1.1-0.3 2 0.2 1.9-0.3 0.9-2 0.8-3.6 1.9-2.4 2-1.9 1.2-2 0.3-3.4-1.6-5.3-0.2-3.4 1.5 0 0 2.3 0 0.7 1.4 0 2.5-1.7 6.3 1.2 3-1.2-4.9-4.6-2.8-2.1-4-1.8-1.6-2.2-1.4-2.6-1.5-1.9-9.2-5.2-2.6-3.3 3-3.6 3.3 1.9 6.1 2.7 2.4 1.5 6.3 6.5 4.5 2.6 11.2 9.5 22 10.4 7.3 6.6 2.3 1 9.4 8.3 7.4 3.2 0.2 0.1-2.5 0.9-0.7 2 0.2 2.4-1.4 3-1.4-1.7-3.7 1.6-3.1 1.8-3.4 1.2-4.5 0.1-1.2 1.7-6.5 11.2-10 9.8-14.6 11.5-7 5.6-18.7 14.5-18.6 14.5-18.6 14.5-18.4 14.3-27.1 21.1-7.4 3.5-21.8 7.3-6.5 3.4-1.4 1.1-0.1-0.1-0.6-0.4-1.6-0.7-0.9-0.7-4.2-5-0.4-1.3-1.3-6.2-0.3-3.5 0.2-2.1-0.1-1.4-1.7-7.1 0-1.4 0.2-0.9 2.7-1.1 0.9-0.6 0.4-0.4 0.3-0.4 0.6-1 0.1-0.5 0.3-1.5 0.5-5.5-0.1-1.4-0.2-0.7-0.3-0.6-0.5-0.8-1.1-1.2-0.7-0.6-0.6-0.4-5-2.7-2.1-0.5-6.6-0.7-5 1.1-3.1 1.6-5.5 4.2-25.1 10.1-25.4 8.6-3.2 0.7-8.7 1-3.8-5.5-1-2.1-0.4-1.1-0.1-1 0.1-1.2 0.7-3.6 0-1.2-0.2-0.9-1.2-2.1-1.4-2-0.5-1-0.9-2.1-0.2-0.8 0-3.3 1.9-26 0.3-0.4 1.3-1 4.1-2 0.4-0.3 0.4-0.4 0.4-0.4 0.3-0.5 0.5-1 0.6-2.5 0.4-1.1 0.3-0.5 1.7-2.9-0.3-0.8-0.8-1.2-2.8-2.6-1.8-2.1-1.7-2.5-4.8-5.2-0.8-1.3-0.3-0.4-0.4-0.5-0.4-0.3-1-0.6-0.6-0.2 1.6-3.7 12-17.1 13.5-19.1 0.5-1.1 0.4-0.6 0.7-0.4 2.2-0.7 1.1-0.6 3.6-2.5 2.2-1 0.8-0.6 0.8-1.1 2.6-4.8 0.2-0.6 1.1-2 0.5-0.4 0.8-0.4 4.1-0.5 2.2-1.7 5.9-7.9z" id="GTIZ" name="Izabal">
  </path>
  <path d="M723.6 693.4l0-0.2-0.7-1.5-0.3-0.5-0.2-0.5-0.3-0.5-0.6-1.6-0.9-1.5-0.3-0.5-0.3-0.4-0.4-0.3-0.4-0.3-0.6-0.2-1.1 0.1-1.6 0.5-4.8 2.4-1.4 1-0.9 0.9-1.1 1.6-1 1.2-1.3 1.1-2.5 0.8-1.6 0.1-1.4-1-0.9-1.1-3.3-1.1-10.6 3.6-3.5 0-2.9-2-4.7-1.4-1.8-0.1-4.1 1.2-13 10.5-3.2 0.7-11.5-0.2-3.1-0.7-6.9-3.4-7.3-3.7-2.5-0.3-3.7 2.8-4.9 4.6-0.2 1.2 0.6 5.4-0.9 3.6-5 9.2-2.5-0.7-3.4-0.5-5.7 0-0.7-0.1-1.2-1.4-1.8-2.6-3.4-6.5-2-2.8-1.3-2.3-0.6-0.8 1.7-3.7 4.8-5.4 2.7-1.2 4.6-0.2 1-0.2 0.9-0.3 0.4-1.1 0.4-4.4-0.5-0.7-1.1-0.6-2.7-0.4-2.6-1.4-1.7-2.4-9.5-13.1-0.5-1-0.2-0.9 0.8-0.3 1-0.2 10.4-0.2-0.2-3-9.5-14.4-8-11.4 5.9-2.7 2.3-0.3 4.9 0.2 7.5 2.9 2.5 0.5 13.6-2.1 6.9 0.5 14.8-3.5 8.7-1 3.2-0.7 25.4-8.6 25.1-10.1 5.5-4.2 3.1-1.6 5-1.1 6.6 0.7 2.1 0.5 5 2.7 0.6 0.4 0.7 0.6 1.1 1.2 0.5 0.8 0.3 0.6 0.2 0.7 0.1 1.4-0.5 5.5-0.3 1.5-0.1 0.5-0.6 1-0.3 0.4-0.4 0.4-0.9 0.6-2.7 1.1-0.2 0.9 0 1.4 1.7 7.1 0.1 1.4-0.2 2.1 0.3 3.5 1.3 6.2 0.4 1.3 4.2 5 0.9 0.7 1.6 0.7 0.6 0.4 0.1 0.1-3 2.5-2.5 4-3.4 10.2 4.1 3.9 0 5.9-2.6 6.2-1.7 2.4z" id="GTZA" name="Zacapa">
  </path>
  <path d="M87 787.6l0.3-0.6 0.6-0.2 0.9-0.1 2.2 0.5 1.1-0.1 1.1-0.5 1.9-1.3 1.9-1.8 0.7-0.3 1-0.2 2.2 0.2 2 0.4 1.1 0.4 0.7 0.1 0.6 0 0.6 0 0.8-0.4 0.9-0.6 2.3-2.6 1.9-0.9 6.4-1.6 1.7-1.2 1.1-0.5 0.6-0.1 0.9 0.2 12.5 5.5 2.5 0.3 6.2-0.5 8.9-2 6.7-10.1 2.1-2.4 0.5-1 0.5-1.4 0.7-3.2 0.8-2 0.9-2 3.9-5.8 0.9-2.1 1.9-6.1 1.4-2.2 7.7-3.8 2.9-3.2 1.6-1.4 0.9-0.6 0.6-0.3 0.6-0.3 0.9-0.1 0.8 0 0.5 0.3 0.4 0.5 0.2 0.5-0.3 2.7-3 7.3-0.6 3.9 0.5 0.6 1.1 0.5 2.7 0.5 1.2 0.4 1.7 0.1 2-1.9 0.6-1.5 0.5-0.3 0.7-0.4 1.2 0.4 1.3 0.8 0.6 0 0.8-0.3 1.6-1.8 1.1-1.5 0.2-0.5 1.2-1.9 0.7-0.8 0.6-0.2 0.8-0.1 2.3 0.6 1.2 0.5 1.2 0.3 0.7 0 1-0.3 1.3-0.7 4.4-2.9 1.3-0.4 2.6 0.2 3.4 1.4-6.5 5.7-4.8 5.5-0.6 0.9-0.6 1.4-0.2 0.6-0.1 2.5 0.2 2.8 0.1 2.2-8.5 17.3-0.1 1.4 0.1 0.7 0 0.7-1.7 12.9 0.2 1.4 0.3 1.1 0.5 1.1 2.7 4.9 0.1 1.6-1 14.4 0.2 2.9-0.1 1.5-0.2 1-2.5 3.6-2.6 8.2-1 6.5-0.5 7.3-0.2 1.4-0.2 0.5-6.2 9.1 1.3 8.8 0.2 1.8-22.3-13.9-31.2-22.9-30.3-27.4-24.1-17.6z" id="GTRE" name="Retalhuleu">
  </path>
  <path d="M194.9 869.4l-0.2-1.8-1.3-8.8 6.2-9.1 0.2-0.5 0.2-1.4 0.5-7.3 1-6.5 2.6-8.2 2.5-3.6 0.2-1 0.1-1.5-0.2-2.9 1-14.4-0.1-1.6-2.7-4.9-0.5-1.1-0.3-1.1-0.2-1.4 1.7-12.9 0-0.7-0.1-0.7 0.1-1.4 8.5-17.3-0.1-2.2-0.2-2.8 0.1-2.5 0.2-0.6 0.6-1.4 0.6-0.9 4.8-5.5 6.5-5.7 8.7-5.9 1.1 1.3 0.6 1 2.6 7.2 0.3 1.2 0 0.7-1 3.1-5.1 9.8 3.2 3 9.7 1.4 2.9 0.8 1.1-3.1 0.2-1.7-0.2-2.7 0.1-0.7 0.2-0.6 0.3-0.6 0.6-0.6 1-0.7 0.8-0.5 1.3-0.4 1.6 0.2 3.2 1.5 2.5 2.9 0.1 0.1 4.8-0.4 2.5-0.6 0.8 0.2 0.6 0.2 2.2 2.4 6.2 5.5 1 1.2 0.4 0.9 0.3 1.8 0.1 2.1-0.1 0.6-0.5 2.5 0 0.7 0.1 0.6 0.7 0.5 0.6 0.3 4.8-0.7 5.9-3.1 1.9-0.3 2.2 0.1 1.3 0.2 2.1 0.8 2.8 1.8 8.3 6.4 1.5 1.4 1.4 1.5 0.8 1 0.4 2.1-0.4 5 0 2.9-3.1 8.2-6 12.5-1.4 3.8-0.6 10.6-0.2 1.2-0.3 0.9-1 1.4-1.9 3.8-1.3 0.8-25-1.8-1.4-0.4 1.1-5.3-2.3-2.3-3.9 4.4-1.8 1-2.1 0.1-1.4-0.2-0.8-0.4-1.1-0.6-0.9-0.9-0.5-0.7-0.2-0.7 0-0.6 0-0.6 0.5-1.9-0.1-0.7-0.2-0.7-1-1.4-0.3-0.6-0.2-0.5 0-0.6 0.1-0.6 0.2-0.5 1.6-2.3 0-0.9-0.4-1.1-1.4-2.1-0.9-0.8-0.9-0.3-1.7 0.6-1 0.5-6.1 4.5-0.8 0.8-0.3 0.5-0.4 1-0.5 1.9 0 1.3 0.1 1.4 0.4 2 0.4 1.1 1 1.9 0.2 0.5 0.1 0.6-0.5 0.7-0.7 0.6-1.5 0.9-0.9 0.2-0.6-0.2-0.2-0.4-0.6-1.7-0.7-1.1-1.7-1.2-2.2 1.4-0.4 0.7-0.4 1.5-0.1 2.7 0.1 1.8 0.8 5.2 0.5 8.9-0.3 3.6-1.3 1.7-1.1 1.2-1 1.6-1.8 3.9-10.4 15.4-0.4 1.2-0.2 1 0.7 3.4 0.2 1.8-5-1.9-18.2-10.4-4.6-2.9z" id="GTSU" name="Suchitepéquez">
  </path>
  <path d="M217.7 882.7l5 1.9-0.2-1.8-0.7-3.4 0.2-1 0.4-1.2 10.4-15.4 1.8-3.9 1-1.6 1.1-1.2 1.3-1.7 0.3-3.6-0.5-8.9-0.8-5.2-0.1-1.8 0.1-2.7 0.4-1.5 0.4-0.7 2.2-1.4 1.7 1.2 0.7 1.1 0.6 1.7 0.2 0.4 0.6 0.2 0.9-0.2 1.5-0.9 0.7-0.6 0.5-0.7-0.1-0.6-0.2-0.5-1-1.9-0.4-1.1-0.4-2-0.1-1.4 0-1.3 0.5-1.9 0.4-1 0.3-0.5 0.8-0.8 6.1-4.5 1-0.5 1.7-0.6 0.9 0.3 0.9 0.8 1.4 2.1 0.4 1.1 0 0.9-1.6 2.3-0.2 0.5-0.1 0.6 0 0.6 0.2 0.5 0.3 0.6 1 1.4 0.2 0.7 0.1 0.7-0.5 1.9 0 0.6 0 0.6 0.2 0.7 0.5 0.7 0.9 0.9 1.1 0.6 0.8 0.4 1.4 0.2 2.1-0.1 1.8-1 3.9-4.4 2.3 2.3-1.1 5.3 1.4 0.4 25 1.8 1.3-0.8 1.9-3.8 1-1.4 0.3-0.9 0.2-1.2 0.6-10.6 1.4-3.8 6-12.5 3 2.2 0.6 0.5 1 0.5 0.9 0.2 2-0.2 1-0.3 0.7-0.3 2.9-1.7 0.5-0.2 0.6-0.1 0.7-0.1 0.9 0.3 1.1 0.7 2.1 1.9 1.3 0.9 1.2 0.5 1.5-0.1 0.8-0.3 0.6-0.4 1.1-1.2 0.8-0.7 0.6-0.1 0.5 0.4 0.6 0.8 0.4 3.6 0 1.8 0.2 0.7 0.3 0.6 0.6 0.6 1.5-0.7 4.1-8.3 1.3-3.2 0.3-0.6 1.4-1.9 4.5-4.2 5.7-4.6 6.3 5.5 1.8 1.8 0.2 0.6 0.1 0.6 1.6 3.5 2.7 4.4 1.4 1.6 1 0.7 5.6-4.9 1.5-1.7 0.3-0.4 1.1-2 1-1.3 0.5-0.4 0.4-0.3 1.8-1.1 3.1 0 1.3-0.7 1-1.7 1.5-0.4 0.8 0.6 0.3 0.5 2.4 5.1 13.7-5.4 2.8 8.2 3.1 2.8 1.8 0.6 2.8-0.1 0.6 0.1 0.5 0.2 0.9 3 1.4 11.3-0.1 7.3 0.6 2.7 2.6 6 1.4 4.8-3.2 3.1-1.3 2.5-0.7 2.4 0.1 1 0.3 0.7 0.5 0.2 0.9 0.3 2.9 0.6 1.3 0.1 1.4-0.1 0.7-0.1 3.3-1.2 0.8-0.1 1 0.2 1.8 0.9 0.6 0.7 0.1 0.7-2.7 3.4-3.4 3.3-1.4 0.9-0.6 0.2-3.9 0.6-1.5 0.7 0.1 3.1 0.7 1.4 0.4 0.5 3.1 2.9 0.4 0.9 0.1 0.7-0.2 0.5-0.7 0.9-0.8 0.7-2.8 1.6-1.1 1.1-1.6 3.1-0.7 2.2-0.5 0.3-0.6 0.3-2.4 0.4-2.4 0.6-0.9 1-0.5 1.1 0 27.4 0 2.4-2.3-0.4-14.8-1.4-16.6 1.6-2.5 0.8-24.4 1.5-28.6-0.5-26.1-2.9-32.3-6.4-50.4-22.4z" id="GTES" name="Escuintla">
  </path>
  <path d="M538.9 799.5l-3.9 12.2-3 0.4 0.7 4.2-0.2 0.6-0.5 0.3-1.1-0.4-1-0.5-2.4-0.2-7.5 1.5-0.4 0.4-2.9 2.5-7.6 19 3.1 2.2 9.9 2.8 1.3 0.5 0.8 0.7 1.5 1.5 6.6 5.5 5.2 5.1 1.1 2.2-0.3 4.9 0.9 8.7 0 0.7-0.2 1.3-0.6 1.9-1.2 2.4-3.7 5.4-1.2 1.3-0.5 0.2-2.9 0.6-2.4 0.7-1.3 0.7-0.7 0.5-1.3 2.5-3.4 6.3-3.3 2.3-0.7 0.2-0.9 0-2.2-0.8-8.4-2.1-1.1-0.4-4.1-3.5-6-3.5-3.9 1.1-1.3 1-0.3 0.8-0.3 1.2 0.1 1.2 0.1 0.8 0.7 1.6 0.7 0.9 1.1 1.1 0.4 0.9 1.5 9.1 0.3 0.5 0.3 0.4 0.5 0.3 1 0.6 0.7 1 0.7 1.8 2.1 7.7 2.7 5 0.4 1.1 0.1 1.1 0 3.9-1.4 5.5-0.8 3-1.1-0.4-33.3-15-21.2-8-17.2-4.1-10-1.6 0-2.4 0-27.4 0.5-1.1 0.9-1 2.4-0.6 2.4-0.4 0.6-0.3 0.5-0.3 0.7-2.2 1.6-3.1 1.1-1.1 2.8-1.6 0.8-0.7 0.7-0.9 0.2-0.5-0.1-0.7-0.4-0.9-3.1-2.9-0.4-0.5-0.7-1.4-0.1-3.1 1.5-0.7 3.9-0.6 0.6-0.2 1.4-0.9 3.4-3.3 2.7-3.4-0.1-0.7-0.6-0.7-1.8-0.9-1-0.2-0.8 0.1-3.3 1.2-0.7 0.1-1.4 0.1-1.3-0.1-2.9-0.6-0.9-0.3-0.5-0.2-0.3-0.7-0.1-1 0.7-2.4 1.3-2.5 3.2-3.1 6.1-2.2 1.6-1.1 4.1-3.8 4.1-2 1.7-0.6 1.3-0.3 0.5-0.2 0.4-0.3 1.8-2.1 0.7-0.6 0.6-0.4 0.6-0.2 0.5-0.3 0.4-0.3 0.4-0.3 1.1-1.3 0.3-2.7-1.2-10.4 4-10.1 8.8-13.9 3.6-1.7 0.9-0.1 1.6 0.5 0.6 0.6 0.4 0.6 0.3 2.7 0.2 0.6 0.2 0.5 0.4 0.4 1-0.3 1.4-0.8 4.1-3.8 1.2-1.3 1.7-0.6 1.9 0 2.5-1.2 2.7 2.8 0.5 0.6 0.8 0.6 0.5 0.3 2.9-0.4 2.8-0.5 23.5-4.5 1.1 5.2 1.9 3.1 7.7 6.3 5.6 4.3z" id="GTSR" name="Santa Rosa">
  </path>
  <path d="M317.2 712.6l5.7-2.8 1.5-1.3 4.9-13.7 1.3-2.2 0.5-0.4 0.4-0.2 2-1.1 3.7-1 3.6-2.2 3.9 0.8 13.9-0.4 2.5-0.5 3-0.5 3.3-0.1 10.2 3 11.1 0 3.6 0.5 6.3 2.2 7.7 1.6 2.9 1.1-0.6 3.4-0.1 0.6-0.2 0.6-0.3 0.6-0.4 0.6-0.7 0.6-1 0.7-2.4 0.8-1 0.6-3.2 2.6-1.1 0.4-0.9 0.1-0.5-0.2-0.6-0.1-0.6 0.1-0.5 0.3-0.9 0.6-0.9 0.8-1.2 2.2-2 6.6-3.9 6-3.4 6.2-0.6 2.7 1.2 6.4 0.7 2.1 0.7 4 0 1.3-0.1 1-0.6 1.1-1.3 1.6-2.8 6.2-5.4 4-9.7 10.7-4.6 9-1.2 6.1 0.2 1.3 0 0.2-5.7 4.6-4.5 4.2-1.4 1.9-0.3 0.6-1.3 3.2-4.1 8.3-1.5 0.7-0.6-0.6-0.3-0.6-0.2-0.7 0-1.8-0.4-3.6-0.6-0.8-0.5-0.4-0.6 0.1-0.8 0.7-1.1 1.2-0.6 0.4-0.8 0.3-1.5 0.1-1.2-0.5-1.3-0.9-2.1-1.9-1.1-0.7-0.9-0.3-0.7 0.1-0.6 0.1-0.5 0.2-2.9 1.7-0.7 0.3-1 0.3-2 0.2-0.9-0.2-1-0.5-0.6-0.5-3-2.2 3.1-8.2 0-2.9 0.4-5-0.4-2.1-0.8-1-1.4-1.5-1.5-1.4 1.8-17.6 0.1-5 0.6-2 1.7-2.4 4.4-10.6-0.4-4.8 0.1-0.7 1.5-4.3-3.5-16.6-0.5-1.5z" id="GTCM" name="Chimaltenango">
  </path>
  <path d="M410.7 791.8l-13.7 5.4-2.4-5.1-0.3-0.5-0.8-0.6-1.5 0.4-1 1.7-1.3 0.7-3.1 0-1.8 1.1-0.4 0.3-0.5 0.4-1 1.3-1.1 2-0.3 0.4-1.5 1.7-5.6 4.9-1-0.7-1.4-1.6-2.7-4.4-1.6-3.5-0.1-0.6-0.2-0.6-1.8-1.8-6.3-5.5 0-0.2-0.2-1.3 1.2-6.1 4.6-9 9.7-10.7 5.4-4 2.8-6.2 1.3-1.6 0.6-1.1 0.1-1 0-1.3-0.7-4-0.7-2.1-1.2-6.4 0.6-2.7 3.4-6.2 4.9 4.6 2.9 1.6 2 0.5 2 0.1 2.6-0.5 0.7 0 0.6 0.2 2.2 2 6.4 8.3 1.9 6.4 2.9 3.3 2.1 2.4 0.3 0.5 0.1 1.6-1.2 4.1 0.4 2.6-1.8 2-1.1 2.7-1.5 17.8-1.9 8.3z" id="GTSA" name="Sacatepéquez">
  </path>
  <path d="M429.1 838.7l-1.4-4.8-2.6-6-0.6-2.7 0.1-7.3-1.4-11.3-0.9-3-0.5-0.2-0.6-0.1-2.8 0.1-1.8-0.6-3.1-2.8-2.8-8.2 1.9-8.3 1.5-17.8 1.1-2.7 1.8-2-0.4-2.6 1.2-4.1-0.1-1.6-0.3-0.5-2.1-2.4-2.9-3.3-1.9-6.4-6.4-8.3-2.2-2-0.6-0.2-0.7 0-2.6 0.5-2-0.1-2-0.5-2.9-1.6-4.9-4.6 3.9-6 2-6.6 1.2-2.2 0.9-0.8 0.9-0.6 0.5-0.3 0.6-0.1 0.6 0.1 0.5 0.2 0.9-0.1 1.1-0.4 3.2-2.6 1-0.6 2.4-0.8 1-0.7 0.7-0.6 0.4-0.6 0.3-0.6 0.2-0.6 0.1-0.6 0.6-3.4 7.6 2.8 3.2-0.6 1.7 1.8 1.1 0.5 0.9-0.2 1-0.6 1.3 0 3.3 0.5 5.3-1.1 5.5-1.9 3.4-2 1.6 0 1.1 2 1.6 1 2 0.2 2.5-0.2 2.8-0.8 0.9-1.1 0.5-1.2 1.8-1.3 3.5-0.7 1.6 1.4 1 2.6-2.7 4.7-0.5 0.6-0.6 0.9 0 0.9 0.2 1.2 0.3 0.8 0.4 0.5 0.4 0.3 0.5 0.3 0.5 0.2 1.3 0.2 1.4-0.1 3-0.9 4.9-0.4 1.5 0.6 0.4 0.5 1 2 1.9 5.5 0.8 5.5-0.3 1.8-0.3 0.3-0.3 0.3-0.8 1.2-0.9 1.6-0.3 1 0.1 1 0.2 0.5 1 1.8 4.5 4.8 2 1.6 12.4 4.5 2.9 1.5 1.3 1.1 2.4 2.7 2.2 0.8-1.9 4.9-1 1.6-0.4 0.3-1.8 1.2-7 5.9-1.2 5.2-0.1 3.5-0.6 1.8-0.5 1-0.9 0.7-0.3 1.3-0.2 1.1-0.4 6.9-2.5 1.2-1.9 0-1.7 0.6-1.2 1.3-4.1 3.8-1.4 0.8-1 0.3-0.4-0.4-0.2-0.5-0.2-0.6-0.3-2.7-0.4-0.6-0.6-0.6-1.6-0.5-0.9 0.1-3.6 1.7-8.8 13.9-4 10.1 1.2 10.4-0.3 2.7-1.1 1.3-0.4 0.3-0.4 0.3-0.5 0.3-0.6 0.2-0.6 0.4-0.7 0.6-1.8 2.1-0.4 0.3-0.5 0.2-1.3 0.3-1.7 0.6-4.1 2-4.1 3.8-1.6 1.1-6.1 2.2z" id="GTGU" name="Guatemala">
  </path>
  <path d="M617.4 767.7l1.6 4.9 0 2.2-0.1 0.7-4.6 2.7-13.4 6.5-0.4-0.2-2.4-1.8-1.4-1.5-0.7-0.9-0.8-0.6-1.5-0.3-4.2 1.1-3.5 2.4-4.1 2.7-4.4 3-1.8 2.7-1.1 7.6-9.6-7.6-0.6-0.3-0.6-0.2-0.6-0.1-0.9-0.1-0.9 0.1-1.5 0.3-0.8 0.3-0.7 0.3-0.8 1-5.1 6.8-13.6 0.1-5.6-4.3-7.7-6.3-1.9-3.1-1.1-5.2-23.5 4.5-2.8 0.5-2.9 0.4-0.5-0.3-0.8-0.6-0.5-0.6-2.7-2.8 0.4-6.9 0.2-1.1 0.3-1.3 0.9-0.7 0.5-1 0.6-1.8 0.1-3.5 1.2-5.2 7-5.9 1.8-1.2 0.4-0.3 1-1.6 1.9-4.9 0.4-0.2 1.5-0.6 3.5-2 0.8-2.4 0.2-1.4 0.4-0.7 0.9-0.5 5.6-2.2 7.2-2.4 3.3 0.4 2.6 1.3 1.7 0.5 1-0.5 0.8-0.8 6.7-12.5 4.9-1.5 7.2-0.8 6.5-2.4 6.2-3.4 7.5-9.5 2.9-2.6 1.2-0.5 1.3-0.2 2.7-0.2 3.4 0.3-1.7 3.7 0.6 0.8 1.3 2.3 2 2.8 3.4 6.5 1.8 2.6 1.2 1.4 0.7 0.1 5.7 0 3.4 0.5 2.5 0.7 10.1-0.5 2.8 0.8 1.1 1.8 0.8 2.3 0.5 2.6-0.1 0.7-0.4 2.7-0.2 0.6-0.1 0.6-0.1 1.4 0.3 1.2 0.7 1.8 0.9 2.6-7.7 21.4-0.8 4.8 0.8 0.1 2.3-0.1z" id="GTJA" name="Jalapa">
  </path>
  <path d="M555.8 639.4l10.5 1.2 3.6-0.3 6.2-1.6 8 11.4 9.5 14.4 0.2 3-10.4 0.2-1 0.2-0.8 0.3 0.2 0.9 0.5 1 9.5 13.1 1.7 2.4 2.6 1.4 2.7 0.4 1.1 0.6 0.5 0.7-0.4 4.4-0.4 1.1-0.9 0.3-1 0.2-4.6 0.2-2.7 1.2-4.8 5.4-3.4-0.3-2.7 0.2-1.3 0.2-1.2 0.5-2.9 2.6-7.5 9.5-6.2 3.4-6.5 2.4-7.2 0.8-4.9 1.5-6.7 12.5-0.8 0.8-1 0.5-1.7-0.5-2.6-1.3-3.3-0.4-7.2 2.4-5.6 2.2-0.9 0.5-0.4 0.7-0.2 1.4-0.8 2.4-3.5 2-1.5 0.6-0.4 0.2-2.2-0.8-2.4-2.7-1.3-1.1-2.9-1.5-12.4-4.5-2-1.6-4.5-4.8-1-1.8-0.2-0.5-0.1-1 0.3-1 0.9-1.6 0.8-1.2 0.3-0.3 0.3-0.3 0.3-1.8-0.8-5.5-1.9-5.5-1-2-0.4-0.5-1.5-0.6-4.9 0.4-3 0.9-1.4 0.1-1.3-0.2-0.5-0.2-0.5-0.3-0.4-0.3-0.4-0.5-0.3-0.8-0.2-1.2 0-0.9 0.6-0.9 0.5-0.6 2.7-4.7 2.7 2.6 7.1 1.3 10.9-1.8 1-3.6 3.4-10.8 34-23.7 18.3-12.3 8.2-5.6 5.8-3.2z" id="GTPR" name="El Progreso">
  </path>
  <path d="M296.7 693.9l2.6 1.3 1.1 2.9 2 3.7 1.4 0.9 0.6 0.2 0.6 0 0.9 0.1 1.1 0.3 2.5 1 1 0.7 0.4 0.7-0.1 0.6-0.6 1-0.6 1-1.8 1.9-0.3 0.5-0.2 0.9 0 1.2 0.4 2.4 0.4 1 0.6 0.6 0.6 0.1 0.7-0.1 0.5-0.2 0.4-0.3 0.4-0.4 0.3-0.4 0.2-0.5 0.8-3 1-0.6 3.6 1.2 0.5 1.5 3.5 16.6-1.5 4.3-0.1 0.7 0.4 4.8-4.4 10.6-1.7 2.4-0.6 2-0.1 5-1.8 17.6-8.3-6.4-2.8-1.8-2.1-0.8-1.3-0.2-2.2-0.1-1.9 0.3-5.9 3.1-4.8 0.7-0.6-0.3-0.7-0.5-0.1-0.6 0-0.7 0.5-2.5 0.1-0.6-0.1-2.1-0.3-1.8-0.4-0.9-1-1.2-6.2-5.5-2.2-2.4-0.6-0.2-0.8-0.2-2.5 0.6-4.8 0.4-0.1-0.1-2.5-2.9-3.2-1.5-1.6-0.2-1.3 0.4-0.8 0.5-1 0.7-0.6 0.6-0.3 0.6-0.2 0.6-0.1 0.7 0.2 2.7-0.2 1.7-1.1 3.1-2.9-0.8-9.7-1.4-3.2-3 5.1-9.8 1-3.1 0-0.7-0.3-1.2-2.6-7.2-0.6-1-1.1-1.3 6.3-8.6 2.6-8.7 0.8-0.7 9.8-8.4 1.9-0.6 2.5-0.4 4.9 0.8 2 0.5 1.2 0.6 1.6 0.2 4.4-1.9 2.9 0 1.5 0.2 3.4 1.2 0.7 0.1 1.4 0 1.2-0.2 2.3-0.8 3-2.9 2.8-4.1 4.2-4.2z" id="GTSO" name="Sololá">
  </path>
  <path d="M118.2 778l-5.1-15.1-2-3.8-0.5-0.3-1.8-0.4-12.7-1.3-1.1-0.3-1.9-0.7-0.6-0.7-0.3-0.6 0.8-1.4 7.4-8.5 5.8-4.7 2.5-1.3 4.6-0.9 18.8-5.4 13.5 1.4 6 0.4 2.1-0.2 1.9-0.8 2.1-1.3 2.8-5.1 0.5-0.8 1-1.1 2.8-2.1 0.8-0.8 0.5-0.8 0.2-0.7 5.8-12.3 0.3-0.5 1.7-2.9 1.4-8.3 1.9-2.7 0.4-2.1-0.2-1.6 0.3-0.9 0.3-0.6 1.7-1 1.6-0.8 6.3-6.1 1.8-2.4 0.8-2.2 1.3-9.5-0.9-3.6-4-3.4-2.6-6.2 2-6.6 4.1-6 3.9-4.2 7.4-6.1 1.4-1.4 1-4.2 14.4 3.8 1.6 1.3-0.1 2.2 0.7 2 4.2 5.1-3.8 1.3-10.9 4.3-0.5 0.2-0.4 0.3-0.5 1.9 1.1 6.4 5.3 20.1 0.8 3.2 1.6 2.2 3.6 3.2 0 2.6-0.5 1.2 0 1.4 0.4 1.5 3.4 4 0.3 0.5 0.3 0.4 1.5 0.5 4.1-0.5 4.5-0.2 1.9 4.4 0.6 6.6 2.4 2.1 4.2 7.4-2.6 8.7-6.3 8.6-8.7 5.9-3.4-1.4-2.6-0.2-1.3 0.4-4.4 2.9-1.3 0.7-1 0.3-0.7 0-1.2-0.3-1.2-0.5-2.3-0.6-0.8 0.1-0.6 0.2-0.7 0.8-1.2 1.9-0.2 0.5-1.1 1.5-1.6 1.8-0.8 0.3-0.6 0-1.3-0.8-1.2-0.4-0.7 0.4-0.5 0.3-0.6 1.5-2 1.9-1.7-0.1-1.2-0.4-2.7-0.5-1.1-0.5-0.5-0.6 0.6-3.9 3-7.3 0.3-2.7-0.2-0.5-0.4-0.5-0.5-0.3-0.8 0-0.9 0.1-0.6 0.3-0.6 0.3-0.9 0.6-1.6 1.4-2.9 3.2-7.7 3.8-1.4 2.2-1.9 6.1-0.9 2.1-3.9 5.8-0.9 2-0.8 2-0.7 3.2-0.5 1.4-0.5 1-2.1 2.4-6.7 10.1-8.9 2-6.2 0.5-2.5-0.3-12.5-5.5-0.9-0.2-0.6 0.1-1.1 0.5-1.7 1.2z" id="GTQZ" name="Quezaltenango">
  </path>
  <path d="M409.2 695.4l-2.4-5.7-1-2.1-1.6-1.4-1.4-1-1.4-1.2-3.9-4.1 1-4.8 0.1-1-19.3-12.2-16-20.7 1.4-24 1.7 0.9 35.5 8.4 25.1 1.1 7.1-0.6 8-11 5 0.2 4.9 0 7.2 0.2 5.1-0.2 4.6 1.5 11.8 8.1 2.3 2.2 0.6 0.2 0.8-0.1 2.2-1.2 0.8-0.9 2.6-3.3 1.1-0.8 1.4-2.1 1.7-6.9 0.2-1.4 0.2-0.5 0.5-1 0.4-0.4 0.3-0.4 0.9-0.7 2.9 0.2 10.3 2.5 23.4 3.3 8.4-0.3 7-2.8 2-0.5 9.6-0.8 0.7 0.2 0.8 0.2 1.6 1 2.4 2.2 1 1.3 0.5 1 0.4 1.1-0.2 2.2-2.2 6.5-9.5 13.6-5.8 3.2-8.2 5.6-18.3 12.3-34 23.7-3.4 10.8-1 3.6-10.9 1.8-7.1-1.3-2.7-2.6-1-2.6-1.6-1.4-3.5 0.7-1.8 1.3-0.5 1.2-0.9 1.1-2.8 0.8-2.5 0.2-2-0.2-1.6-1-1.1-2-1.6 0-3.4 2-5.5 1.9-5.3 1.1-3.3-0.5-1.3 0-1 0.6-0.9 0.2-1.1-0.5-1.7-1.8-3.2 0.6-7.6-2.8z" id="GTBV" name="Baja Verapaz">
  </path>
  <path d="M224.8 639.5l7.2-0.4 0.8-0.3 0.9-0.6 0.2-0.6 0.4-5.6 0.2-0.6 1.3-2.5 2.8-4.2 0.8-0.8 1-0.5 2.2-0.6 9.2-2.2 3.4-2.4 5.1-2.4 2.5-0.4 5.6 0.4-1 6.2-0.1 4 1.1 3.4 2.9 1.5 0.7 1.5 5.9 6.1 1.5 0.7 1.1 4.3 2 3 0.3 3.1 1.5 0.5 1.4 2.5 0 1.1-0.2 2.3-0.5 0.8-0.6 0.5-2.3 0-0.9 0.3-1.1 0.4-1.7 1.4-0.7 1-0.5 1.5-0.2 1.7 0 0.7 0.1 0.7 0.3 0.5 0.4 0.4 2.2 1.5 3.9 2.9 0.4 0.6 0.6 1.1 1 4 1.5 2.4 3.5 2.5 0.6 1.2 0.1 1.4-1.2 3.7-0.5 1.4 6.8 5.3-4.2 4.2-2.8 4.1-3 2.9-2.3 0.8-1.2 0.2-1.4 0-0.7-0.1-3.4-1.2-1.5-0.2-2.9 0-4.4 1.9-1.6-0.2-1.2-0.6-2-0.5-4.9-0.8-2.5 0.4-1.9 0.6-9.8 8.4-0.8 0.7-4.2-7.4-2.4-2.1-0.6-6.6-1.9-4.4-4.5 0.2-4.1 0.5-1.5-0.5-0.3-0.4-0.3-0.5-3.4-4-0.4-1.5 0-1.4 0.5-1.2 0-2.6-3.6-3.2-1.6-2.2-0.8-3.2-5.3-20.1-1.1-6.4 0.5-1.9 0.4-0.3 0.5-0.2 10.9-4.3 3.8-1.3z" id="GTTO" name="Totonicapán">
  </path>
 </g>
 <g id="points">
  <circle class="13.935634792083246|-92.04499049911975" cx="112.1" cy="909.5" id="0">
  </circle>
  <circle class="15.56948107830178|-90.03233057976205" cx="543.1" cy="547.7" id="1">
  </circle>
  <circle class="17.611788936074955|-88.42220264427588" cx="887.9" cy="91.4" id="2">
  </circle>
 </g>
 <g id="label_points">
  <circle class="Jutiapa" cx="575.2" cy="840.6" id="GTJU">
  </circle>
  <circle class="Chiquimula" cx="677.9" cy="741.6" id="GTCQ">
  </circle>
  <circle class="Petén" cx="552" cy="220.2" id="GTPE">
  </circle>
  <circle class="San Marcos" cx="138.4" cy="683.1" id="GTSM">
  </circle>
  <circle class="Huehuetenango" cx="206.4" cy="524.3" id="GTHU">
  </circle>
  <circle class="Quiché" cx="345.5" cy="567.1" id="GTQC">
  </circle>
  <circle class="Alta Verapaz" cx="519.2" cy="529" id="GTAV">
  </circle>
  <circle class="Izabal" cx="756.1" cy="546.9" id="GTIZ">
  </circle>
  <circle class="Zacapa" cx="644.8" cy="668.6" id="GTZA">
  </circle>
  <circle class="Retalhuleu" cx="169.4" cy="808.3" id="GTRE">
  </circle>
  <circle class="Suchitepéquez" cx="237.8" cy="788.4" id="GTSU">
  </circle>
  <circle class="Escuintla" cx="339.7" cy="862" id="GTES">
  </circle>
  <circle class="Santa Rosa" cx="474.2" cy="855.7" id="GTSR">
  </circle>
  <circle class="Chimaltenango" cx="351.1" cy="739" id="GTCM">
  </circle>
  <circle class="Sacatepéquez" cx="393.7" cy="770" id="GTSA">
  </circle>
  <circle class="Guatemala" cx="450.4" cy="753.8" id="GTGU">
  </circle>
  <circle class="Jalapa" cx="566.4" cy="753.4" id="GTJA">
  </circle>
  <circle class="El Progreso" cx="541.8" cy="688.5" id="GTPR">
  </circle>
  <circle class="Sololá" cx="286.5" cy="733.6" id="GTSO">
  </circle>
  <circle class="Quezaltenango" cx="205.5" cy="711.4" id="GTQZ">
  </circle>
  <circle class="Baja Verapaz" cx="458.5" cy="654.8" id="GTBV">
  </circle>
  <circle class="Totonicapán" cx="247.9" cy="666.5" id="GTTO">
  </circle>
 </g>
</svg>