<?xml version="1.0"?>
    
<!--********* Copyright (c) 2024 Pareto Softare, LLC DBA Simplemaps.com ***************************************
************* Free for Commercial Use, full terms at  https://simplemaps.com/resources/svg-license ************
************* Attribution is appreciated! https://simplemaps.com *******************************************-->

<svg baseprofile="tiny" fill="#6f9c76" height="738" stroke="#ffffff" stroke-linecap="round" stroke-linejoin="round" stroke-width=".5" version="1.2" viewbox="0 0 1000 738" width="1000" xmlns="http://www.w3.org/2000/svg">
 <g id="features">
  <path d="M77.2 444.6l2.2-0.7 4.7-1.4 1.9-0.7 8.8 1.3 2.2 3.1 1.1 4.5 1.2 2.2 9.3 7.1 1 2-0.1 4 0.2 1.1 1.9 3.1 2.6 2.6 2.6 1.1 2 0.5 1.7 1.5 1.8 0.4 1.5-0.5 0.4-0.2-0.1-0.5-0.4-0.5 0-0.6-0.1-1.8 0.5-1.2 1.1-0.7 2.4-0.9 1.4-0.4 1.3-0.2 1.2 0 2.8 0.5 3.5-0.3 1.4 0.5 0.3 0.3 0.5 2.3-3.8 11.2-0.3 1.7-0.5 0.7-0.8 0.7-1.2 0.7-4.2 1.4-3.1-0.5-1-0.6-0.3 0-0.2 0.3-0.3 1.4 0 1.1 0 0.7 1.8 2.5-3.7 0.1-1.7-0.8-0.8-0.8-1.4-1.7-1 0-0.9 0.3-0.3 1.5-0.2 1.9-0.9 2.1-0.7 1.3-4.8 2.2-2.4 0.3-0.9 0.7-0.9 1-1.3 2.1-0.9 1-1 0.8-0.6 0.8-0.1 1.2 1.1 3.7 0.3 4.8-0.1 4.1-0.1-0.7-0.6-1.9-1.3-2.2-1.3-1.7-3.7-2.8-0.7-1.3-0.6-4.6-0.9-1.9-2.3-1.2-5-0.6-1.7-1.4 0.6-1.5 0.1-1.5-0.3-1.5-0.7-1.4-0.8-1.1-0.8-0.7-0.8-0.2-1.3 0.4-1.2 1.2-2.1 4.1-1.3 1.2-6.8-2-3.7-2.6-7.4-1.6-4.5-2.2-5.7-0.9-2.2-0.3-0.3-4.7 0.2-2.4 1-2 1.5-0.9 3.2-0.9 1.2-1.3 1.5-2.6 2-2.2 4.5-3.9 1.4-1.7 0.7-1.2 1.1-0.7 2.5-0.3 1.8 0.3 3.6 1.3 1.7-0.2 1.7-1.6 0.7-2.5 0.1-2.7-0.6-7.6 0.5-0.9 1.5-1.7 0.4-1.2-0.3-2.6-0.2-0.3z" id="HNOC" name="Ocotepeque">
  </path>
  <path d="M102.9 520l0.1-4.1-0.3-4.8-1.1-3.7 0.1-1.2 0.6-0.8 1-0.8 0.9-1 1.3-2.1 0.9-1 0.9-0.7 2.4-0.3 4.8-2.2 0.7-1.3 0.9-2.1 0.2-1.9 0.3-1.5 0.9-0.3 1 0 1.4 1.7 0.8 0.8 1.7 0.8 3.7-0.1-1.8-2.5 0-0.7 0-1.1 0.3-1.4 0.2-0.3 0.3 0 1 0.6 3.1 0.5 4.2-1.4 1.2-0.7 0.8-0.7 0.5-0.7 0.3-1.7 3.8-11.2-0.5-2.3-0.3-0.3-1.4-0.5-0.4-9.1-1.8-3.2-1-1.6-4.5-4.2-1.6-3.9 0-0.6 0.2-2.2 2.2-0.8 7.3 0.9 5.2-0.4 4.2-1.2 1.1-0.1 0.1-0.9 0-0.9-0.7-2.7-1.5-3.4-1-1.6-0.1-2.3 0.2-2 0.4-1.2 0.6-1.1 0.8-0.8 1.1-1.3 0.3-0.7-0.3-1.6 1.9-1.4 0.6-4-0.8-4.8 5.2-1.6 1.1-0.6 6.8 1.1 3.2 8.5 4 6.6 2.7 3.4 1.1-0.4 2.3-1.9 1.5-2.4 1.6-1.6 1.3-0.1 1.6 0.7 0.4 0.3 1.8 2.6 3.9-0.1 3 1.8-4.2 7.1 0.9 1 2.3 3.9 2.1 1.2 2.5 0.3 1.8-0.2 1 1.8-0.8 4.6-3.2 5.2 1.5 2.7 1.6 9.5-2.9 5.3-0.8 2.8-0.3 1.8-1.5 2.5-4 2.1-3.5 0.5-6.6-0.1-3.6 1.1-2.4 1.6-0.5 1.2 1 6.2 2.9 3.9 3 2.7 3.2 0.4 0.5 0.5 1 1.3 1.5 7.5-0.2 2.7-1.4 3.1-0.2 1.1 0.4 0.8 0.7 0.5 0.8 0.5 0.9 0.4 0.9 0.6 0.9 0.5 0.7 0.2 0.6 0.1 0.7-0.2 0.7 0 0.9 0 3.2 0.7 2.6 1.5 0.2 1.6-0.2 0.6 0 1.4 0 0.7 0.2 3.2 1 6.6-0.3 2.2-0.5 0.4-0.8 0.8-0.2 0.7-0.2 0.9 0 1.2-0.4 0.6-0.4 0.3-0.7 0.1-1.3 0.6-3.3 3-8.1 4.8-4.7 2.1-2.5 1.8-0.4 0.7-0.1 0.4-1.6 2.2-0.3 0.2 0-0.1 0.1-0.3 0.1-0.5-1.3-1.3-1.4-0.6-6.4-0.5-11.1-3.5-3.7-0.3-3.7 0.6-0.9 0.4 0-0.3 0.1-0.8-0.4-1.2-0.7-1-1-0.9-0.7-0.3-3.2-0.4-2.2-1.5 0-2.1 0.9-2.5 0.1-2.6-1-1.7-1.3 0.2-1.5 0.9-1.7 0.7-6.4-0.5-2.6 0.4-0.9-4.3-2.2-4.5-3.1-3.8-3.6-2.3-2.3-0.1-2 0.9-1.7 1-1.4 0.3-1.3-0.9-0.5-1.6-0.1-1.2z" id="HNLE" name="Lempira">
  </path>
  <path d="M171.9 556.2l0.3-0.2 1.6-2.2 0.1-0.4 0.4-0.7 2.5-1.8 4.7-2.1 8.1-4.8 3.3-3 1.3-0.6 0.7-0.1 0.4-0.3 0.4-0.6 0-1.2 0.2-0.9 0.2-0.7 0.8-0.8 0.5-0.4 0.3-2.2-1-6.6-0.2-3.2 0-0.7 0-1.4 0.2-0.6-0.2-1.6-2.6-1.5-3.2-0.7-0.9 0-0.7 0-0.7 0.2-0.6-0.1-0.7-0.2-0.9-0.5-0.9-0.6-0.9-0.4-0.8-0.5-0.7-0.5-0.4-0.8 0.2-1.1 1.4-3.1 0.2-2.7-1.5-7.5-1-1.3-0.5-0.5-3.2-0.4-3-2.7-2.9-3.9-1-6.2 0.5-1.2 2.4-1.6 3.6-1.1 6.6 0.1 3.5-0.5 4-2.1 1.5-2.5 0.3-1.8 0.8-2.8 2.9-5.3-1.6-9.5-1.5-2.7 11.4 0.8 8.5-0.9 6.4-0.6 4.9 1 4.3 0.4 1-0.7 2.7-1.6 2 2.8 0.8 0.3 1.4 0.5 1.1 0.1 5 1.3 2.5 1.8 2.7 1 1.3 1.8 1.2 2.3 0.2 0.6 0.1 1.5 0.3 1 1 1.8 1.1 1 3.5 1.7 0.9 0.8 0.6 0.6 0 1.5-0.1 1.5 1.7 1.6 4.7 6 1.1 2.1 0.1 0.5-0.1 0.5-0.1 0.4-0.6 0.5-6.5 4.8-1.8 1-1.8 0.8-1.5 0-1.1-0.2-1-0.4-0.8 0-0.4 0.8-0.3 2 0.6 4.6-2.4 4.5-0.8 1-1.4 1-1.7 0.6-0.9 0.8-0.5 1.9 0.1 1.1-1.2 2.1-6.1 0.2-5 4.2-2.4 2.4-1.3 3.2-1.2 1.7-0.4 0.4-4.2 2.1-1.5 1.5-8 8.8-0.9 0.9-0.5-0.2-0.4 0.4 0 0.7 0.9 1.5 1 1 1.3 2.9-1.3 7.5 0.2 0.3 0 0.1-0.3-0.1-2.2-0.3-1.5 0.6 0 0.5 0.1 3 0.3 0.5 1.3 1.2 0.3 0.4-0.7 2.1-1 0.2-1.2-0.2-1.8 0.7-0.9 1.1-0.6 1-0.5 0.9-1.2 1.1-1.6 0.5-1.7 0.2-1.6 0.6-1 1.8-1-0.4-1.1-0.3-1.2-0.2-0.9 0.1-0.5 0.5-0.1 0.9 0 0.9-0.2 0.4-1-0.1-2.4-0.9-1.4-0.1-5.8 1.3-2.7 1.2-2.7 1.6-3.9 0.2 1.3-2.1-0.1-2.4-1.6-3.9-0.4-1.5 0.3-2.2 0.5-1.8 0.1-1.8-0.7-1.6-0.2-0.4 0.6 0.1 0.2-0.1z" id="HNIN" name="Intibucá">
  </path>
  <path d="M212.6 553l0-0.1-0.2-0.3 1.3-7.5-1.3-2.9-1-1-0.9-1.5 0-0.7 0.4-0.4 0.5 0.2 0.9-0.9 8-8.8 1.5-1.5 4.2-2.1 0.4-0.4 1.2-1.7 1.3-3.2 2.4-2.4 5-4.2 6.1-0.2 1.2-2.1-0.1-1.1 0.5-1.9 0.9-0.8 1.7-0.6 1.4-1 0.8-1 2.4-4.5-0.6-4.6 0.3-2 0.4-0.8 0.8 0 1 0.4 1.1 0.2 1.5 0 1.8-0.8 1.8-1 6.5-4.8 1.5 2.2 2 2.1 5.7 1.6 0.2 0.3 1.3 1.5 0.4 0.1 4.5 0.9 1.6 0.9 2.9 1 1.6 0.2 1.2 0.3 6.5-2.7 0.7 0.5 1.8 3.9 0.4 1.2 0.5 2.9-1 1.6 1.2 1.2-0.5 1.9-1.4 1.8-0.6 0.5-1.3 0.5-2.3 0.5-2.2-0.3-1.9 1.5-1.4 0.6-3.1 1.2-1.8 0.4-2.3 0.3-3-0.2-5.4 1.3-0.9-0.3-0.2 0-0.4 0-0.3 0.3-0.5 1 0.5 3 5 2.1 2.1 2.4-0.8 2.4-0.3 0.6-0.2 0.7 0.2 0.6 0.5 0.6 2.4 0.9 1.5 0.3 1.7 0.6 1.6 1 2.5 2.2 1.6 0.8 1 1.4 0.9 1.5 0.1 5.1 3.8-3.7 1.9-1.4 5.2-0.5 2.7 19.7-0.3 2.9-1.1 5.3-0.4 1-0.4 0.6-1.1 3.5-4.1 5.2-3.1 0-3.6-2.4-6 0.3-2.2 0.4-2.3-2-0.9-0.5-2-0.8-0.8-0.5-1.2-1.7-1.4-4-1.4-1.1-2.2 0.1-1.4 1.2-1.2 1.6-1.5 1-1.4 0.1-2.8-0.6-1.5-0.1-1.1 0.4-1.9 1.4-0.7 0.4-1-0.3-2.1-1.4-0.8-0.2-0.4-0.1-2.1 0.6-6.7 3.4-1.2-3.8-2.4-2.8-2.7-2.5-2.1-2.5-2.1-5.6-1.7-1.4-3.8-0.2-7.6 0.9-2.4-0.1-3.5-0.7z" id="HNLP" name="La Paz">
  </path>
  <path d="M280.9 574.8l2.2-0.4 6-0.3 3.6 2.4 3.1 0 0 4.4-0.3 6.5 1.1 1.8 5.9 4 4.5 0.9 2.7-0.3 0.5 0.2 0.7 0.5 0.4 0.5 5.2 3.9 3.8 2.4 1.5 0.5 1.1-0.7 0.3 0.4 2.6 2.1 1.2 0.6 1 0.8 0.7 1-0.4 5.9 0.7 1.1 0.6 1.3 0.1 1 2.1 4.5 5.2 3.9-0.4 3.1 0.2 1.4 0.8 2.3 1.6 3.1 0.3 3.1-1.6 3.7-3 2.2 0 0.1-2.1-2-1-0.7-1.4-0.3-2.9 0.5-1.1-0.2-1.4-1.4-2.5 1.8-0.8 0.8-0.7 1.5-0.3 2 0.5 1.1 0.1 0.8-1.4 1.2-0.9 0.1-5.1-0.1-2.3 0.5-1.3 0.1-1.4-0.6 0-1 2.1 0 0-1-2.7-0.6-2.9-1-2.5-0.2-1.9 1.8-1 0 0.3-1.4 1.6-3.8-2-0.8-0.5-1.6 0.6-4.2-0.8-2.3-1.8 0.4-2.1 1.7-1.4 1.7 1.4 4.3-2.2 3.9-3.9 3-4.2 1.1-2.6-0.5-3.4-2.1-2.8-0.9-0.2-1.1 0-1-0.5-0.5-1.4 0-1-0.3-2.1-0.7 11.5-5.3 2.5-2.9 0.4-1.9-0.3-2-0.7-1.8-1.2-1.3-2.1-0.8-3.1 1-1.5-0.6-1.5-3.4 0.8-4.1 3.5-8.5 0.4-2.7-0.1-5.6 0.5-2.6 1.3-1.9 1.4-1.4 0.7-1.6-0.9-2.5 0.7-2.4 3-6.8 1.3-2.2-2.6-1.1-4.1-3.5z m19.6 83.3l0.4 1.1-0.2 2.3-1.6 2.2-3.2 0.5-1.7-0.2-0.7-0.3-0.6-0.5 0-0.9 1 0-0.5-0.8-0.9-1.7-0.6-0.8 2.4-0.7 1.9-0.3 4.3 0.1z m-1.1-11.8l1.5 0.4 3.9-0.8 2.2-0.1 0 1-2.6 1.1 1.8 6-2.2 2.1-6.8-2.2-3.1-1.9 0.4-2.6 1.9-2.8 1.3-0.9 1.7 0.7z" id="HNVA" name="Valle">
  </path>
  <path d="M681.9 439.9l-0.3 0.2-2 1.8-1.3 2.4-0.8 5.6-0.4 0.9-0.8 0.3-2.3 0.7 0.8 1.4 4.1 3-3.2 3-0.8 1.2 3.7 0-0.2 0.5-0.8 2-5.2 5.3-3.1 1.4-2.5-1.8-2.3-2.6-2.7-0.7-1.1 2.2-0.7 4.1-0.3 7.7-0.5 0.9-3.3 3.6-0.2 1 0.3 2.3-0.1 0.9-4 3.1 2.3 1.6 2.6 2.4 1.9 3 0.1 3.4-1.7 2.5-3 1.8-3.6 1.2-3.6 0.7-5.5 0-1.5 0.3-3.5 1.7-1.4 0.4-0.8 0.8-0.6 1-1 1.3-0.4 1.1-0.4 0.5-0.6 0.1-1.6-0.3-0.6 0.2-1.4 1.3-1.7 2.2-1.4 2.4-1.1 3.8-1.2 2.9-1.6 2.9-1.7 2.1-3.8 3-2.4 1.4-5.3 1.5-0.8 2-0.4 2.4-1.3 2-2.7 0.9-2.4 0.5-0.1-0.1-1.8-4.9-0.6-0.6-1.1-0.9-1.2-0.7-1.5-1.1-0.5-1.2-0.3-1.5 0-1.7-0.6-3.2-0.9-1.8-1.4-1.6-2.3-2-1.2-0.4-0.7 0.2-0.3 1.1-0.4 0.1-1-0.1-5.6-1.7-6.9-1.5-0.9 0.1-0.6 0.7-1.7 3.5-0.7 0.5-0.9 0.2-1.9-0.3-1.5-0.8-1.9-1.3-1.4-0.2-1.2 0.1-0.7 0.4-0.5 0.5-0.7 0.5-1.5 0.6-0.5 0.5-0.3 0.5-0.3 0.7-0.1 1.6-0.2 0.7-0.4 0.6-0.7 0.6-1.1 0.3-2 0.1-1-0.2-1.7-1.4-2.9-3.8-5.5-2.6-1.2-0.9-0.7-1.2-0.2-1.4-0.6-2-0.8-2-1.9-3-1.5-1.3-1.5-0.9-2.6-0.6-0.6 0-0.7 0.2-0.5 0.4-0.4 0.5-0.5 1.3-0.5 0.6-1.3 0-3.7-0.8-4.1-1.6-1-1.1-3.9-7.1-1.3-1.6-1.3-0.6-1.9-0.4-3.8-0.1-1.5 0.2-2.8 0.8-2.1 1.1-1.6 1-0.8 0.2-0.8 0.4-0.7 0.5-1.4 1.4-3.3 2-1.1 0.4-1.7 0.3-10.7-0.7-1.3-0.4-0.7-0.6-0.9-2.1-0.7-1-0.6-0.7-2.7-2.1-3.4-0.9-0.6-0.3-2.9-3-8.2-2.3-3.1-0.4-1 0.2-0.7-0.1-0.6-0.7-0.7-1.5-1.4-1.7-0.7-0.4-0.5-0.1-1.6 0.3-0.4 0.2-0.5 0.2-1.4 0.2-0.9-0.2-6.2-2.6 0.1-2.1-1.9-5.1-0.4-2.1-0.3-2.2-0.5-1.1-1.5-2.4-0.4-1.4-0.1-1.3 0.6-2.4 0.1-2.7-2.8-3.6-5-4.7-1.4-1.4-2.8-0.7-1.3-1.1-2-2.2-1.7-3.2-4.6-11.3-1.1-5.6-1.2-1.6-0.4-1.6-0.3-4.1-0.7-1.6-1-1.6-0.5-1.1-0.9-3.2 1.4-1.2 1.2-4.1 1.4-1.1-0.3-0.4-0.6-0.5-2.1-1.2-1.7-1.7-3.4-1.8-1.3-1.3-1.5-1.9-0.6-1-0.4-1.7 2.1-3.7 0.5-0.5 0.9-0.6 0.7 0.1 1.1 0.2 4.4-1.2 2.9-2.7 2.2-1.5 0.8-1.3 0.2-1.2 0-1 0.2-1 0.3-1 0.6-1.4 1.1-1.6 0.3-0.9-0.1-0.6-0.1-0.6 0.1-0.4 1.1-2.6-1.1-9.1 0.1-1.2 0.5-2.1 0.5-0.6 0.6-0.4 1-0.3 2.1-1.1 0.5-0.2 1.3-1 0.3-1.2 6.8-1.5 4.5 3.7 1.2 0.3 1.6 0.3 2.7 0 1.1-0.3 0.9-0.5 1.5-1.1 1.5-0.4 0.9-2.2 1.2-1.4 1.4-3.8 0.6-0.9 0.7-0.6 0.6 0.1 0.7 0.2 0.8 0 1.1-0.4 12.3-6.7 1.9-0.5 1.6 0 3.5 1.1 2.1 1.1 1.8 1.3 1.4 1.2 1.2 1.3 0.7 1 0.4 0.9 0.9 0.8 1.7 0.5 3.5 0.1 1.9-0.2 3.8-1.9 8.1-4.9 1.8-0.7 6.6-4.7 8.9 4.8 3.4 0.8 3.3-0.8 2.8-1.4 2.4-0.5 1.3-0.5 2.6-0.4 1.4 0.1 1.2 0.3 1.1 0.5 0.9 0 0.6-0.9 8.4-4.6 8.9-8.7 3.6-5.8 0.6-0.9 1-0.4 1 0.2 1 0.3 1.7 1.1 1.6 0.1 2.9-1.8 3.1-2.5 1.2-1.4 0.5-1.1-0.3-1.4 3.2-1.6 0.8 0.1 1 0.4 0.9 0.9 1.5 0.6 1.1-0.3 1.5-0.5 1.2-0.7 3.1 0.7 11.8 6.4 14.9 12.9 15.9 6.1 5.2 4.2 7.8 11.5 8.4 10.4 2.5 1.5 20.4 9 4.8 4.5 8.7 10.3 0 13.3 0 35.9 0 0.2z" id="HNOL" name="Olancho">
  </path>
  <path d="M681.9 439.9l0-0.2 0-35.9 0-13.3 0-139.1 7.2 2.4 14 6.4 17.6 5.3 8.4 2.9 2 1.6-0.9 1.8-1.8 2.8 0 2.4 0 3.8 3.1 3 2.8 0.4 3.6-1.2 0.5-3.1 0.4-1.4 1.4 0.2 1 1.8 2.6 1.8 3.7-0.5 3.5 0.4 7.1 0.9 1.3-1.6 2.3-0.9-3.1-1.3-3.7-0.9-11.5-1.9-4.3-1.9-3.7-1.8-1.3-2.4 5.9 1.2 20 3.8 13.1 1.4 8.7 0.4 3 1 7.9 6.7 10.7 8.7 15.8 13.5 15.4 13.3 8.6 7.2 11.1 6.8 2.7 1.6 2.7 1.2 5.1 0.9 1.3 0.7 1 1.4 0.1 1.2-1 0.8-2.1 0.3-2.6-1-5.5-4.4-4.1-1.4-2.8-2-1.4-0.6-4.4-0.1-1.9-0.4-1.7-1.7 0.7-0.2 0.6-0.5 0.7-0.2-1.3-1.9-4.8-5.4-1 0-1.6 0.8-1.9-1.2-2.1-1.7-1.9-0.9-3 0.3-1.3 1-1.1 1.3-2 1.4-1-0.6-4-1.5 1.9-1.6 0.7-1 0.4-0.9-0.7-0.4-1.6-0.3-1.7 0-1.1 0.2-0.4 1.6 0.9 2.6 1.7 2.8 1.9 2.2-0.4 0.3-0.1 0.1-0.2 0.2-0.3 0.5-1 0-4.4-8.5-1.6-1.8-1.6-0.3-2 0.4-2.5 0.8-1.7-0.1-2.5-0.6-1.7-0.2 1.1 3.4 0.9 1.2 2.7 1 0.1 1.2-0.5 1.7-0.3 1.8 1 0 0.4-2.3 2.9-1.4 1.4-4.2 1.3-0.4 1.4 0.8 2 5 2.3 4 0.9 3.4-3.1 1.4-1.6 1.7 1.1 3.8 2.5 4.2 2.5 2.6 3.8 2 3.1 0.8 1.4-1.4-1.4-4.5 1.9 1.6 1.8 2 0.6 2.4-1.2 2.4 2 2.5 2.9 0.4 7.1-0.9 0 1.1-1.4-0.1-1 0.3-1.6 0.8 0 0.9 1.2 2.6 1.8 2.4 2.4 1.7 3.1 0.7 2.6-0.4 3.4-0.8 3.3-1.4 2.2-1.6-1.8-1.8-6.2-3.3-1.1-1.1-0.5-1-0.6-0.7-1.3-0.3-1.6-0.1-11.1-4-1.9-1.2-3.3-4.9-1.7-1.3 1.3-1.1 1.4-0.8 3.2-1.2 13.1 5.8 2.1 3 0.8 1.6 2 1.5 2.5 1.1 4.1 0.9 1.7 1.2 1.5 1.7 1.3 1.9-1 0.7-1.2 1-0.8 0.4 0 0.9 2.4 0.5 2-1.4 1.6-0.2 1.1 4.4-0.3 5.6 0.3 1.5 1.1 1.1 1.1-0.1 0.7-1 0-2 1.1 0 1.3 2.9 1.2-0.7 2.4-4.4 2.3-1.3 3-0.9 5.2-0.7 0.7-0.7-0.3-3.5 0.2-1.2 1-0.6 0.9 0.1 1.1 0.3 9.4 1.9 2.5-0.5 0 0.9-0.9 0.9 0.1 0.6 0.5 0.7 0.3 1.1 0 4.5-0.7 2.3-1.7 1-1.7-0.7-0.8-2.6-0.5-0.7-1.3-0.5-1.5-0.3-1.2-0.1-0.9 0.6-0.8 1.4-0.9 2.2-0.7 0.8-0.6 0.5-0.5 0.7-0.2 1.6 0.3 1.4 0.9 0.3 1-0.5 0.8-0.7-0.8-1.2-0.1-1 0.3-0.9 0.6-1 1.1 0 0.3 3.7 1 2.7 1.8 1 2.8-1.2 0.8-0.9 1.4-2.2 0.8-0.9 1.2-0.8 6.5-2.3-0.1-0.6-0.6-1.6-0.6-0.9-0.9-0.7-0.8-0.9-0.6-1.5-0.5-2.2-1.1-2.8-1.8-1.8-2.7 1.4-4.3-2.6-2.2-0.5-2.5 1.2-0.9-1.1 0.3-0.5 0.6-1.5-2.4-0.4-6.3-2.3-1.3-0.9-1.5-1.8-3.1-0.9-2.2-1.4 0.9-2.8 2.3-1.1 2.3 1.2 2.1 2 1.7 1 1.6 0.6 15.7 8.2 19.7 7.5 7.5 5.5 1.7 2.9 2.4 9.7 2.5 6.1 3.9 5.7 4.5 3.6 17.9 7.2-1.9 0.3-4.9-0.3-2 0.4-3.9 1.8-6.4-0.1-0.6 0.1-1.8-0.7-1.1-0.8 0.1-0.8 1.8-0.8-6.5-0.7-2.5 0.2-2.2 1.4-0.7-2-1.6-0.9-1.8-0.8-1.9-1.4-1.4 2.6-2.2 2.5-3 1.8-3.4 0.4-1.3-0.8-1.8-2.7-0.8-0.8-1.9-0.3-1.5 0.2-0.5 0.7 1 1.5-0.8 1-0.2 0.9-0.1 2.3-1.4-1.3-0.8 0.6-0.2 1.8 0.4 2-0.8-0.4-2.2-0.6 0.4 0.5 0.4 1 0.2 0.6-2.1 0.6-3.6 2.9-3.6 1.3-0.7 1.7-0.3 2-0.6 1.8-1.1 0-1.2-1.5-2.7-0.8-3.3-0.2-2.8 0.4-2.8 1.3-0.5 1.7 1.3 4.3-1 0-0.6-1.3-1.1-0.7-1.5-0.2-1.8 0.1 0.3 2.4-3 1.2-8.2 0.5 1.1 1.7 0.7 0.8 1.1 0.7-2.7 0.1-2.9 0.9-2.6 1.5-1.7 1.6-0.9-1.1-0.5-0.4-0.6-0.2-1-0.4 0.7 1.4 0.2 0.7-1.9-0.5-2.3-2.6-1.8-1-0.7 3.5 0 1.4 0.7 1.2-14.4 0.8-2.5-0.3-0.3-1.2-0.7-0.4-2.5 0.1-1.5-0.2-0.6-0.5-0.4-0.7-3.3-2.2-1.1 0.1-1.6 1.3 1.7 3.6 1 1.4 1.3 1.2 0 1.2-1 0.6-0.6-0.1-0.7-0.3-1.2-0.2-1.3 0.2-0.8 0.7-0.6 0.7-0.8 0.5-3.6 1-2.1 0.2-1.8-0.7-3.5-3.8-1.1-0.9-1.3-0.8-2-0.7-1.9 0.2-0.8 1.8 0.8 7-0.8 3.4-2.9 1.5-1.7-0.1-3.5-0.8-2.2-0.2-1.1-0.8-1.1-3.9-1.4-1.5-1.9 2.9-2.1 3.8-2.6 3.3-5.5 1.9-3.8 2.2-1.6 0.4-2.2-0.6-1.5-1.3-1.6-0.9-2.2 0.7 0.5-3 0.5-1-10.6-0.4-3.3-0.7-5.7-2.4-2.8-0.3-2.7 1.6-2.2-5.2-1.5-2.5-3-2 0.2-2-0.4-1.8-2.9-0.4 0.1-0.3 1.1-1.5 0.4-0.4-2.1-3.6-3.2-2.4-3.8-1.1-3.8 0.2-8.7 1.6-2.4 1.4-6.7 6.4-2.6 1.9-2.3 1.6z" id="HNGD" name="Gracias a Dios">
  </path>
  <path d="M431.9 487.8l6.2 2.6 0.9 0.2 1.4-0.2 0.5-0.2 0.4-0.2 1.6-0.3 0.5 0.1 0.7 0.4 1.4 1.7 0.7 1.5 0.6 0.7 0.7 0.1 1-0.2 3.1 0.4 8.2 2.3 2.9 3 0.6 0.3 3.4 0.9 2.7 2.1 0.6 0.7 0.7 1 0.9 2.1 0.7 0.6 1.3 0.4 10.7 0.7 1.7-0.3 1.1-0.4 3.3-2 1.4-1.4 0.7-0.5 0.8-0.4 0.8-0.2 1.6-1 2.1-1.1 2.8-0.8 1.5-0.2 3.8 0.1 1.9 0.4 1.3 0.6 1.3 1.6 3.9 7.1 1 1.1 4.1 1.6 3.7 0.8 1.3 0 0.5-0.6 0.5-1.3 0.4-0.5 0.5-0.4 0.7-0.2 0.6 0 2.6 0.6 1.5 0.9 1.5 1.3 1.9 3 0.8 2 0.6 2 0.2 1.4 0.7 1.2 1.2 0.9 5.5 2.6 2.9 3.8 1.7 1.4 1 0.2 2-0.1 1.1-0.3 0.7-0.6 0.4-0.6 0.2-0.7 0.1-1.6 0.3-0.7 0.3-0.5 0.5-0.5 1.5-0.6 0.7-0.5 0.5-0.5 0.7-0.4 1.2-0.1 1.4 0.2 1.9 1.3 1.5 0.8 1.9 0.3 0.9-0.2 0.7-0.5 1.7-3.5 0.6-0.7 0.9-0.1 6.9 1.5 5.6 1.7 1 0.1 0.4-0.1 0.3-1.1 0.7-0.2 1.2 0.4 2.3 2 1.4 1.6 0.9 1.8 0.6 3.2 0 1.7 0.3 1.5 0.5 1.2 1.5 1.1 1.2 0.7 1.1 0.9 0.6 0.6 1.8 4.9 0.1 0.1-1.3 0.2-3.2 1-1.4 2.1-1.4 1.5-5.1 1.6 0.5 1.6-0.5 0.1-0.4 0-0.2 0.2 0.1 0.7-0.9 0-1.3-0.4-2.9 2.6-1.9 0.9-2.6-0.2-1.5-0.4-0.7 0.9-0.2 3.2-1.4 4.6-0.6 2.9 0.5 1.3 2.2 0.7 0.8 1.7-0.3 2.3-1.2 2.4-1 1-0.3 0.3-0.1-0.1-0.3-0.1-1.9-2.2-3-0.2-3.4 0.1-3.2-1.1-2.3-2.9-1.5-3.1-1.7-2.6-3.2-1.4-2 0.1-1.3 0.6-1.3 0.3-2.1-0.7-0.9-0.9-3.2-4.2-10.3-7.5-0.4-4 1.6-3.3 0-1.6-11.2 1.6-2 1.1-1.6 1.5-0.8 1.3-0.5 1.4-1.1 1.9-1.7 1.8-1.8 1-1.7 0.6-1.5 1.1-5 7.8-9.6 10.4-2.3 3.6-1.1 4.5-0.9 2.2-1.7 2-2.2 1-2.6 0.7-7.6 0.5-1-0.2-1.4-0.4-0.8-0.6-2.3-2.4-2.2 0.3-1.9 1-2.1 0.7-2.6-0.7-4.9-2.7-5.7 0.3-11.9 2.3-6.4-0.8-3 0.3-3.3 1.7-1.7 1.1-0.7 0.6-0.3 1-0.3 2-0.1 2.7-0.1 0-2.1 0.9-1.2 0.2-1 0.9-1.2 1.9-1 0.1-1.1 0-2.5 0.2-1.2 0.5-5.6 3.7-0.6-1.1-4.3 0.4-0.7-0.4-1-0.2-0.3 0.5-0.5 2.7-0.6 1.4-1.1 1.6-2.3 2.6-1.6 1.2-1.2 0.8-2.1 0.7-1.6 1.5-0.6 1.2-0.3 2.2-3.3 3.8-4.5 2.6-1 0.4-1.8-0.3-2.6-2-1.2-2.8-0.1-1.4-1.2-1-6.7-0.4-2.1-1.2-0.4-1.8-0.6-2.9-0.9-0.8-1.3-1.4-1.6-0.5-1-2 1.5-6.3 4.6-1.5 6.9 3 0.7 0.1 0.1-0.6 0.4-2.6 1.1-2.4 1.1-1.6 0.1-2.4-1.7-3.1-0.9-1.1-0.4-1.6-0.1-2.1 0.1-2.1 0.3-1.2 0.2-0.5 1-1.2 2.2 1 3.3 3 1.2 0.6 3.5 0.6 2.3 0 0.7-0.5 2.5-3.2 2.7-6.9 0.6-6.9-0.2-2.9 0.4-2 0.7-1.5 0.1-1.2-0.1-1.1-0.6-2.2 5 0.9 2.4-1.3 1.7-1.8 1.6-3 0.5-6-0.3-1.6-0.4-1-1.1-0.6-4-3-3.8-5.2-0.9-2.7 3.1-1.2 2 0 2.3 0.4 3.1-0.4 1.5-3-0.2-0.6-0.5-0.7-0.8-0.5-1.2-0.3-0.2-0.6 0.3-0.7 1.6-2.3 1.7-4.7 7.1-6.3 2.8-5 1.1-4.9 4.8-4.6 10.9-8.4z" id="HNEP" name="El Paraíso">
  </path>
  <path d="M334.9 642.7l0-0.1 3-2.2 1.6-3.7-0.3-3.1-1.6-3.1-0.8-2.3-0.2-1.4 0.4-3.1-5.2-3.9-2.1-4.5-0.1-1-0.6-1.3-0.7-1.1 0.4-5.9-0.7-1-1-0.8-1.2-0.6-2.6-2.1-0.3-0.4-0.6-2 0-2.1 0.8-3.3 0.4-3.9 0.4-1.7 1.6-0.5 2.9-0.1 1.7 0.5 1.6 0.4 0.7-0.2 0.8 0 0.6 0.2-0.1 0.6-1.1 2.5 0.3 2 2.8 2.7 2 1.9 5.9-0.7 1.7 0.9 1.5 0.7 5-0.6 7.2 2.6-1.5 6.3 1 2 1.6 0.5 1.3 1.4 0.9 0.8 0.6 2.9 0.4 1.8 2.1 1.2 6.7 0.4 1.2 1 0.1 1.4 1.2 2.8 2.6 2 1.8 0.3 1-0.4 4.5-2.6 3.3-3.8 0.3-2.2 0.6-1.2 1.6-1.5 2.1-0.7 1.2-0.8 1.6-1.2 2.3-2.6 1.1-1.6 0.6-1.4 0.5-2.7 0.3-0.5 1 0.2 0.7 0.4 4.3-0.4 0.6 1.1 5.6-3.7 1.2-0.5 2.5-0.2 1.1 0 1-0.1 1.2-1.9 1-0.9 1.2-0.2 2.1-0.9 0.1 0-0.4 8 0.2 1.3 0.6 0.8 0.6 0.4 1.3 1 0.5 1 0.1 2.4-0.9 4.8 0.1 2.5 4.7 18-0.2 2.4-1.9 4.1-0.2 2.2 0.5 1.4 0.9 0.5 1 0.2 0.9 0.9 1.1 1.9 0.3 0.9 0.9 4.3-0.3 2.3-1.2 2-2 1.8-1 0.8-1.1 0.7-1.3 0.3-1.4-0.4-8.4-4.2-2.5-0.2-2.4 0.7-1.9 1.3-7 6.1-1.2 1.5-1 2-1.1 4.2-0.2 0.4 0.3 0.9 1.1 2.4 0.2 0.3-1.2 7.9 0.3 1 0.9 0.3 0.5 0.6-0.4 1.4-0.7 0.8-2.1 1.1-0.9 0.6-3.4 5.4-1.7 1.8-3.7 2.4-3 1.4-0.8 2.5-1.7-0.1-3.4-2.1-2.1-0.2-33.5 2.1 0.1 0 1.4-1 0.4-1.9 1.1-1.5 1.5-1.1 2-0.7 0-0.9-4-0.2-2.9-0.6-2.2-1.2-1.9-2.2-0.9-1.5-0.3-0.8 0.3-2.4 0.9-0.3 4.5-0.7 1.5-0.5-8.5-2.2-4.7-0.5-2.8 0.8-0.9 0-0.4-5.8-2-5.9-2.8-5.2-2.8-3.8-0.9-2.3-0.2-0.2-0.4-0.6-0.8 0.1-1 0.2-0.7-0.2-1-1.4-0.5-1.2 0.2-1.2 1.3-1.4 1.2-0.8 2.5-1.2 1.3-1.1 2.9-4.1 1.1-1 1.9 0.4 2.3-0.5 4.7-1.9-0.2-1.2 0-0.9 0.2-1z" id="HNCH" name="Choluteca">
  </path>
  <path d="M176.2 322.2l10-7.9 6.7-6.7 4.4-7.6 0.9-1.1 3-0.1 2.4-0.8 2.1-1.2 2.5-1.1 0.9 1.1 1-2-0.1-1.6 0.4-1.4 1.7-0.6 0.9 0.3 6.6 4.8 3.6 1.1 3.8-1.7 8.5-9.1 3.6-2.3-0.8-2.4 1.4-0.5 5.8 0.8 8.5-5.1 1-2.1 0.4-1.5-0.9-0.7-1.6-0.4-1.3-1.1-0.6-1.1 0.5-0.5 6.2-0.1 2.4-0.8 2.4-1.7 4.3-1.4 12.5-0.9 2.7-0.7 0.8-2.2 1.2-0.3 0.4 3.6-0.8 1.4-1.4 0.9-1.6 1.5-0.9 1.4-1.3 3.7-1 1.5-2.3 2.4-0.8 1.3 0 1.6 2.2 2.6 0.6 2 1.2-0.3 0.9 0.7 0.5 1.4-0.1 1.7-0.9 1.6-1.3 0.7-2.1 0.6-4.4 3-0.8 1.4 2.6 0.6-2.1 2.5 2.4 2.7 3.8 3.1 2.2 3.5-0.3 0.5-1.1 3.9 0.1 0.5-0.9 0.5-1.1-0.1-0.8-0.3-0.5-0.1-0.9 2-0.6 2.5-0.8 2.1-1.5 1-1.6 2.9 0.5 2.1 1.3 1.8 0.7 2-0.4 2.7-1.1-0.2-1.6-1.2-1.6 0-1 1.4 1 0.8 1.8 1 1.5 1.4 0.5 2.1-0.6 1.3-2.1 1.8-3.6 6-1 1.2-0.6 0.5-0.6 0.3-1.4 1.1-0.8 0.5-2 0.5-0.7 0.4-0.2 0.5 0.1 0.4 0.2 0.5 0 0.6-0.4 0.7-1.7 1.8 0.2 1 0 1.1-0.2 1-0.4 1 0.3 1.6-1.3 2.2 0.7 1.1 0.5-0.1 0.9-0.4 0.4 0.2 0.1 0.2 0 1.8-0.5 2.2 0.2 1-0.5 1.5 0 0.6 0.7 0.5 3-0.9 2.7 0.3 1.6 0.3 2.2 1.7 0.6 0.7 0.4 0.7 0.1 0.6 0.4 0.7 0.8 0.1 2.2 0 0.6 0.3 0.5 0.5 0.5 0.1 1.7 0.1 0.4 0.6 0.4 1.4 0.8 0.4 0.7 0.1 2.3-0.5 4.3 4.3 0.2 1 0.5 1.6 0.2 1.2 0 0.7-0.2 0.6-0.6 0.4-0.3 1.1-0.2 0.9 0.8 6.8 0 5-0.7 3.2-2.4 2.2-6.7 4.9-2.7 1.3-3.2 0.8-0.6 0.4-3.2 3.3-2.1 2.8-11.5 8.3-1.6-1.1-1-1.4-0.8-2.5-0.3-6.2-1.1-3.5-4.6-4.2-3.2-0.1-0.7-0.2-0.4-2.5 1-6.3 0.8-1.3 2-6.8 1.8-2-0.6-1.1-1-0.4-1-0.9-1-0.5-3.3-1.2-4.2-2.7-1.7-2-1.1-2.5 0.8-2.9 6-6.4 0.8-2.4-2.9-0.9-1.9-1.2-1.1-0.9-3.2-6.5-1-14.7-0.5-0.7-3.6-0.7-1.5-0.7-2-1.4-2.2-1.8-4.3-2.6-0.9-1-0.7-1-0.3-0.8-0.1-0.9 0.1-1.1 0.3-1.8-0.1-0.8-0.2-1.4 0.1-1.3-0.2-0.6-1-0.8-2.1-1.2-13.7-4.3-7.8-1.2-8.3 3-0.1 0z" id="HNCR" name="Cortés">
  </path>
  <path d="M194.2 453.1l3.2-5.2 0.8-4.6-1-1.8-1.8 0.2-2.5-0.3-2.1-1.2-2.3-3.9-0.9-1 4.2-7.1-3-1.8-3.9 0.1-1.8-2.6-0.4-0.3-1.6-0.7-1.3 0.1-1.6 1.6-1.5 2.4-2.3 1.9-1.1 0.4-2.7-3.4-4-6.6-3.2-8.5-6.8-1.1-1.1 0.6-5.2 1.6-5.1 1-0.9-0.3-0.9-0.6-0.5-0.9-0.3-0.9-0.3-0.7-0.4-1.4 1.9-4.9 1.5-5.2 0.2-2.7 1.3-2.9 3.5-3.1 0.4-1.1-0.1-1.1-0.3-0.9-1.2-1.8-0.6-0.8-1-3.7 1.8-2.4-0.1-0.5-0.3-0.7-1.2-0.8-2.4-1.1-3-3.2-2.7-3.1 0.3-2.1 0.2-0.9-0.1-1.2-6.2-7.6-0.4-0.7 12.6-9.8 12.7-9.9 12.7-9.9 4.8-3.8 0.1 0 8.3-3 7.8 1.2 13.7 4.3 2.1 1.2 1 0.8 0.2 0.6-0.1 1.3 0.2 1.4 0.1 0.8-0.3 1.8-0.1 1.1 0.1 0.9 0.3 0.8 0.7 1 0.9 1 4.3 2.6 2.2 1.8 2 1.4 1.5 0.7 3.6 0.7 0.5 0.7 1 14.7 3.2 6.5 1.1 0.9 1.9 1.2 2.9 0.9-0.8 2.4-6 6.4-0.8 2.9 1.1 2.5 1.7 2 4.2 2.7 3.3 1.2 1 0.5 1 0.9 1 0.4 0.6 1.1-1.8 2-2 6.8-0.8 1.3-1 6.3 0.4 2.5 0.7 0.2 3.2 0.1 4.6 4.2 1.1 3.5 0.3 6.2-0.2 6.6-5.1 1-4.5 4.6-0.8 0.6-1.6 0.7-0.8 0.7-0.3 1.1-0.1 2.1 0.9 1.6 1.4 3.8-1.9 3.1-2.7 1.6-1 0.7-4.3-0.4-4.9-1-6.4 0.6-8.5 0.9-11.4-0.8z" id="HNSB" name="Santa Bárbara">
  </path>
  <path d="M77.2 444.6l-0.6-1-1.4-1.2-1.6-2.1-2.7-6.6-1.4-2.3-2.9-3.6-1.3-1.9-0.7-2.1 0.2-2.8 1.1-1.8 3.6-3.1 1.4-2 1.1-1.6 1.8-4.3 0-4-2.8-2.7 2.3-6.9 1.8-2.8 2-1.6 0.9-0.8 4.5-2.3 14.8-5 5.1-2.4 18.4-14.3 12.6-9.8 0.4 0.7 6.2 7.6 0.1 1.2-0.2 0.9-0.3 2.1 2.7 3.1 3 3.2 2.4 1.1 1.2 0.8 0.3 0.7 0.1 0.5-1.8 2.4 1 3.7 0.6 0.8 1.2 1.8 0.3 0.9 0.1 1.1-0.4 1.1-3.5 3.1-1.3 2.9-0.2 2.7-1.5 5.2-1.9 4.9 0.4 1.4 0.3 0.7 0.3 0.9 0.5 0.9 0.9 0.6 0.9 0.3 5.1-1 0.8 4.8-0.6 4-1.9 1.4 0.3 1.6-0.3 0.7-1.1 1.3-0.8 0.8-0.6 1.1-0.4 1.2-0.2 2 0.1 2.3 1 1.6 1.5 3.4 0.7 2.7 0 0.9-0.1 0.9-1.1 0.1-4.2 1.2-5.2 0.4-7.3-0.9-2.2 0.8-0.2 2.2 0 0.6 1.6 3.9 4.5 4.2 1 1.6 1.8 3.2 0.4 9.1-3.5 0.3-2.8-0.5-1.2 0-1.3 0.2-1.4 0.4-2.4 0.9-1.1 0.7-0.5 1.2 0.1 1.8 0 0.6 0.4 0.5 0.1 0.5-0.4 0.2-1.5 0.5-1.8-0.4-1.7-1.5-2-0.5-2.6-1.1-2.6-2.6-1.9-3.1-0.2-1.1 0.1-4-1-2-9.3-7.1-1.2-2.2-1.1-4.5-2.2-3.1-8.8-1.3-1.9 0.7-4.7 1.4-2.2 0.7z" id="HNCP" name="Copán">
  </path>
  <path d="M681.9 390.5l-8.7-10.3-4.8-4.5-20.4-9-2.5-1.5-8.4-10.4-7.8-11.5-5.2-4.2-15.9-6.1-14.9-12.9-11.8-6.4-3.1-0.7-1.2 0.7-1.5 0.5-1.1 0.3-1.5-0.6-0.9-0.9-1-0.4-0.8-0.1-3.2 1.6 0.3 1.4-0.5 1.1-1.2 1.4-3.1 2.5-2.9 1.8-1.6-0.1-1.7-1.1-1-0.3-1-0.2-1 0.4-0.6 0.9-3.6 5.8-8.9 8.7-8.4 4.6-0.6 0.9-0.9 0-1.1-0.5-1.2-0.3-1.4-0.1-2.6 0.4-1.3 0.5-2.4 0.5-2.8 1.4-3.3 0.8-3.4-0.8-8.9-4.8-0.3-4-0.9-2-0.1-0.8 0.9-6.7-0.3-2.1-0.4-1.2-0.4-0.4-0.7-0.1-0.3 0.2-0.3 0.4-0.1 0.2-0.2 0-0.2-0.2-0.4-0.2-0.3-0.2-0.5-0.1-0.4-0.1-0.4-0.3-0.5-0.6-0.4-0.4-0.4-0.2-0.4-0.2-0.3-0.1-0.9 0.1-3.7-1-7 0.3-1.5-0.1-0.7-0.3-0.3-0.6-1.7-2-4.4-3.5 3.2-1.9 3.5-1.4 1.4-1.4 0.6-1.9 0-3.4-0.3-3.5-0.3-0.5-0.5-0.5-1 0.1-0.5-0.1-0.8-0.4-1.4-0.5-0.4-0.8-1.7-3.7-1.3-1.3-2.1-1.8-0.9-1.1-0.5-1.2-0.2-2.2-0.2-0.9-0.3-0.8-0.1-0.5 0.1-0.4 0.3-0.1 1 0 0-1.3 3.4 2.2 2.2 0.6 3.6 0.2 2.9-0.4 2.4-1.2 13.9-8.6 3.6-4.1 1.6-1.3 5.1-2.1 5-1.2 20.9-0.8 1.8-0.5 1.5-0.7 5.7-4.2 3-3.4 1.4-3.7-2.4-3.1-9.2-1.3-4.4-1.1 0.7-1.7 3.8-0.4 11.3 2.3 7.8 1.5 5.4 0.6 6.9 2 6.9 1.8 2.3 0.4 1.7 0.8 0.3 1.7 0 2.1 0.4 1.7 1.1 0-0.1-1.1 0.3-0.4 0.4-0.3 0.4-0.3 2.4 0.1 1.3 1.9 2.6 2.1 3 2.3 6.5 2.7 11 3 7.6-0.7 10.9-1.1 15.7-0.4 8.4-3.6 10.6-7.7 7-4.2 11.1-0.3 0 139.1z" id="HNCL" name="Colón">
  </path>
  <path d="M275.3 291.9l2.1-0.6 1.3-0.7 0.9-1.6 0.1-1.7-0.5-1.4-0.9-0.7-1.2 0.3-0.6-2-2.2-2.6 0-1.6 0.8-1.3 2.3-2.4 1-1.5 1.3-3.7 0.9-1.4 1.6-1.5 1.4-0.9 0.8-1.4-0.4-3.6 0.9-0.3 2.6 0.3 2.4 0.9 6.5 3.9 2.5 0.2 0-0.9-1.5-1.5 1.5-1.7 5.1-3.1-2.8 3.8-1 2.4 1.2 1 0.8 1.1 13.7 12.4 4.4 1.9 4.7-0.9 0.8-0.9 1.5-2.4 0.6-0.7 1.5-0.2 3.7 0.2 0.8-0.6 0.9-2.6 2.2-1.3 2.9-0.3 15 3.5 13.2 4.6 13.5 1.5 15.5 3.6 5.2 0.4 5.6-0.6 8.9-2.6 2.6-0.5 0.4-0.4 2.5-1.9 0.5-0.3 0.8-0.7 1.8 0.7 1.8 1 0.7 0.5 6.2 0.5 28.5-2.5 4.8 0.2 4.5 1.8 0.3 0.2 0 1.3-1 0-0.3 0.1-0.1 0.4 0.1 0.5 0.3 0.8 0.2 0.9 0.2 2.2 0.5 1.2 0.9 1.1 2.1 1.8 1.3 1.3 1.7 3.7 0.4 0.8 1.4 0.5 0.8 0.4 0.5 0.1 1-0.1 0.5 0.5 0.3 0.5 0.3 3.5 0 3.4-0.6 1.9-1.4 1.4-3.5 1.4-3.2 1.9-3.1-1.4-4.1-0.7-3.6 0.5-1.1 0.2-0.9 0.4-1.3 0.2-1.2-0.1-1.6-0.6-1.4-0.2-5.3 0.3-5.3-1.5-2.5-0.4-1.7 0.3-3.1 1.1-3.1 1.3-6 3.4-3.7 1.3-3.2 0.8-4.5 0-2.2 0.2-2.7-0.6-1.8-2.4-10.4 2.8-6.6-0.2-2.6 0.5-5.5 4.8-2.4 2.7-1.4 1.1-2.6 1.5-9.5 3.5-4.4 3.1-1.5 1.3-0.7 0.5-6-0.1-10.4-2.5-1.5 0-1.4-0.2-1.3-1-1.7-0.6-1.1-0.2-1 0.3-0.7 0.6-0.9 0.2-0.6 0.6-0.9 0.4-0.7 0.2-0.9-0.1-0.8-0.2-2.1-1.1-1.3-0.8-0.9-0.7-1.1-1.4-0.9-1.6-0.8-3.8-0.1-1.9-0.2-1.6-2.5-1.7-1.4-0.1-0.7 0.3-5.7 3.2-2.1-0.2-6.2 1.6-6.5 0.6-2.2-1-5.8-6.5-0.5-0.7-0.4-0.9-0.8-4.7-0.2-2.2-1.3-5.3-1.6-2.8-2.4-1.3-10.7-7.4z" id="HNAT" name="Atlántida">
  </path>
  <path d="M407.9 230.3l0.9 0.9-1.3 2.5 0.4 1.7-2.8-0.1-2.2 0.6-4 1.6-3.4 2-2.2-1.7-2.7-1 1.2-1.7 6.5-3.2 3.8-0.8 2.1-0.4 2-0.5 1.7 0.1z m39.7-24l1-3.7 4.2-3.5 5.8-3.6 4.5-1.9 8.7-4.2 9.5-3.2 6.3-1.8 4.4-0.6 5.8 0.4 4.5 0.2 7.2 0.1-3 0.9-3.1 1.6-2.8-0.9-4.4 1.1-3.1-0.7-2.6 0.4-1 0.5-2 1.4-0.9 0.4-1.3 0-2.1 0.5-2.6 1.9-5.4 2.7-5.2 1.9-5.6 4-5 1.5-3.3 0.4-2.3 2.2-2.4 2.3-2.9 2.1-0.9-2.4z m101.4-26.9l2.3-4.1 1.6-2.1 4.9-2.2 2.7 1 2.2 1.9-0.7 1.8-3.2 0.4-0.8 2.2-1.9 2.6-2.9 0.2-1.9 2.2-7.5 5-0.6-1.3 1.5-2.7 2-3.8 2.3-1.1z m287.3-145.8l1.1 0.1 1.1 0.2 1 0.4 1 0.4-1.4 0.3-1.2 0-1-0.5-0.6-0.9z" id="HNIB" name="Islas de la Bahía">
  </path>
  <path d="M265.8 487l0.6-0.5 0.1-0.4 0.1-0.5-0.1-0.5-1.1-2.1-4.7-6-1.7-1.6 0.1-1.5 0-1.5-0.6-0.6-0.9-0.8-3.5-1.7-1.1-1-1-1.8-0.3-1-0.1-1.5-0.2-0.6-1.2-2.3-1.3-1.8-2.7-1-2.5-1.8-5-1.3-1.1-0.1-1.4-0.5-0.8-0.3-2-2.8 1.9-3.1-1.4-3.8-0.9-1.6 0.1-2.1 0.3-1.1 0.8-0.7 1.6-0.7 0.8-0.6 4.5-4.6 5.1-1 0.2-6.6 0.8 2.5 1 1.4 1.6 1.1 11.5-8.3 2.1-2.8 3.2-3.3 0.6-0.4 3.2-0.8 2.7-1.3 6.7-4.9 2.4-2.2 0.7-3.2 0-5 13.6-0.2 1.6 0.2 6.4-1.4 0.5-1.3 4.3-3.2 0.5-0.2 0.4-0.1 0.7 0.2 0.9 0.4 1.9 1.3 1.1 1.1 1.5 2.3 0.5 1.3 0.4 1.9 0.3 0.7 0.3 0.5 0.7 0.7 0.7 0.5 1.4 0.5 0.6 0.3 0.6 0.9 0.8 0.4 0.4 0.9 0.2 0.7-0.1 1.4 0 0.7 0.2 0.9 0.4 1.1 0.2 0.6 0.4 0.9 0 0.4 0 0.4 0 0.3 0.3 0.4 0.8 0.5 1.6 0.3 2.1 0 3.6-1.8 2.9-2.7 3.5 0.2 5.2 1.4 0.6 0.3 1.1 1 0.9 0.4 0.7-0.2 1-0.9 0.9 0.2 0.9 0.2 3.9 3.6 2.6 1.1 0.5 0.5 0.8 0.8 0.2 1.1 1.4 2.2-2.4 1.9-3 0.2-0.4 0.2-0.5 0.4-0.4 0.8-0.4 1.5-0.2 2.3 0.7 2.4 0.6 5.1-0.9 3.5-1.5 4.2-0.1 0.6 0.1 0.2 0 0.3-0.3 0.4-1.1 0.7-0.7 0.4-0.7 0.3-0.5 0.1-0.5 0.2-1.3 1-0.8 0.2-0.5 0.1-0.3 0.2-0.2 0.4-0.1 1-0.2 0.4-0.5 0.1-0.3-0.2-0.2-0.2-0.2-0.2-0.2 0.2-0.1 0.5 0.2 1.2 0.1 0.8 0 0.8-0.5 2.1-2.2 3.9-1.6-0.1-0.6-0.1-0.6-0.2-0.5-0.2-0.2-0.3-0.1-0.6-0.2-0.3-0.4 0-0.5 0-0.5 0-0.6-0.2-0.7-0.2-0.6-0.4-0.6-0.2-0.5-0.1-0.5 0.3-0.3 0.6 0.1 2.3-0.1 0.9-0.2 0.8-0.1 0.7-1.3 2.8-7.5 7.4 0.5 2.3 0.3 1.2 0.6 1.4 0.8 1.1 2.3 1.5 3.4 3.1 0.5 0.5 0.2 0.7 0 1.5-0.4 0.6-0.5 0.4 0.2 0.5 0.2 0.4 3.6 2.8 0.5 1.1-1.5 3.2-3.9 5.2-0.7 0.5-1.1 0.4-1.8-0.8-0.9-0.2-0.6 0-0.7 0.3-0.4 0.9-0.3 1.6 0.3 5.9 0.3 1.6 0.5 0.9 0.9 1 0.8 0.7 0.7 0.5 0.5 0.2 0.4 0.2 0.4 0.2 0.2 0.2 0.4 1 0.2 0.6 0 0.9-0.6 1-1 0.6-3.9 0.8-2.8 1.8-1.6 3.2-0.1 0.8-0.9 1.2-1.8 1.1-4.1 1.9-4.7 0.5-0.9 0-0.9 0.5-1.2 1-3 3.7-0.1 3.1-5.2 0.5-1.9 1.4-3.8 3.7-0.1-5.1-0.9-1.5-1-1.4-1.6-0.8-2.5-2.2-1.6-1-1.7-0.6-1.5-0.3-2.4-0.9-0.5-0.6-0.2-0.6 0.2-0.7 0.3-0.6 0.8-2.4-2.1-2.4-5-2.1-0.5-3 0.5-1 0.3-0.3 0.4 0 0.2 0 0.9 0.3 5.4-1.3 3 0.2 2.3-0.3 1.8-0.4 3.1-1.2 1.4-0.6 1.9-1.5 2.2 0.3 2.3-0.5 1.3-0.5 0.6-0.5 1.4-1.8 0.5-1.9-1.2-1.2 1-1.6-0.5-2.9-0.4-1.2-1.8-3.9-0.7-0.5-6.5 2.7-1.2-0.3-1.6-0.2-2.9-1-1.6-0.9-4.5-0.9-0.4-0.1-1.3-1.5-0.2-0.3-5.7-1.6-2-2.1-1.5-2.2z" id="HNCM" name="Comayagua">
  </path>
  <path d="M502.1 339l-6.6 4.7-1.8 0.7-8.1 4.9-3.8 1.9-1.9 0.2-3.5-0.1-1.7-0.5-0.9-0.8-0.4-0.9-0.7-1-1.2-1.3-1.4-1.2-1.8-1.3-2.1-1.1-3.5-1.1-1.6 0-1.9 0.5-12.3 6.7-1.1 0.4-0.8 0-0.7-0.2-0.6-0.1-0.7 0.6-0.6 0.9-1.4 3.8-1.2 1.4-0.9 2.2-1.5 0.4-1.5 1.1-0.9 0.5-1.1 0.3-2.7 0-1.6-0.3-1.2-0.3-4.5-3.7-6.8 1.5-0.3 1.2-1.3 1-0.5 0.2-2.1 1.1-1 0.3-0.6 0.4-0.5 0.6-0.5 2.1-0.1 1.2 1.1 9.1-1.1 2.6-0.1 0.4 0.1 0.6 0.1 0.6-0.3 0.9-1.1 1.6-0.6 1.4-0.3 1-0.2 1 0 1-0.2 1.2-0.8 1.3-2.2 1.5-2.9 2.7-4.4 1.2-1.1-0.2-0.7-0.1-0.9 0.6-0.5 0.5-2.1 3.7-4.9-1.1-7.8 0.4-2.2-0.7-1.2-0.6-1.7-0.3-1.4-0.1-7 0.9-2.6 2.2 0.1 1.6-0.2 3.1-0.2 0.9-0.4 0.8-3 2.5-1.4 2.2-0.9 2.1-2.9 4-3.9-3.6-0.9-0.2-0.9-0.2-1 0.9-0.7 0.2-0.9-0.4-1.1-1-0.6-0.3-5.2-1.4-3.5-0.2-2.9 2.7-3.6 1.8-2.1 0-1.6-0.3-0.8-0.5-0.3-0.4 0-0.3 0-0.4 0-0.4-0.4-0.9-0.2-0.6-0.4-1.1-0.2-0.9 0-0.7 0.1-1.4-0.2-0.7-0.4-0.9-0.8-0.4-0.6-0.9-0.6-0.3-1.4-0.5-0.7-0.5-0.7-0.7-0.3-0.5-0.3-0.7-0.4-1.9-0.5-1.3-1.5-2.3-1.1-1.1-1.9-1.3-0.9-0.4-0.7-0.2-0.4 0.1-0.5 0.2-4.3 3.2-0.5 1.3-6.4 1.4-1.6-0.2-13.6 0.2-0.8-6.8 0.2-0.9 0.3-1.1 0.6-0.4 0.2-0.6 0-0.7-0.2-1.2-0.5-1.6-0.2-1-4.3-4.3-2.3 0.5-0.7-0.1-0.8-0.4-0.4-1.4-0.4-0.6-1.7-0.1-0.5-0.1-0.5-0.5-0.6-0.3-2.2 0-0.8-0.1-0.4-0.7-0.1-0.6-0.4-0.7-0.6-0.7-2.2-1.7-1.6-0.3-2.7-0.3-3 0.9-0.7-0.5 0-0.6 0.5-1.5-0.2-1 0.5-2.2 0-1.8-0.1-0.2-0.4-0.2-0.9 0.4-0.5 0.1-0.7-1.1 1.3-2.2-0.3-1.6 0.4-1 0.2-1 0-1.1-0.2-1 1.7-1.8 0.4-0.7 0-0.6-0.2-0.5-0.1-0.4 0.2-0.5 0.7-0.4 2-0.5 0.8-0.5 1.4-1.1 0.6-0.3 0.6-0.5 1-1.2 3.6-6 2.1-1.8 0.6-1.3-0.5-2.1-1.5-1.4-1.8-1-1-0.8 1-1.4 1.6 0 1.6 1.2 1.1 0.2 0.4-2.7-0.7-2-1.3-1.8-0.5-2.1 1.6-2.9 1.5-1 0.8-2.1 0.6-2.5 0.9-2 0.5 0.1 0.8 0.3 1.1 0.1 0.9-0.5-0.1-0.5 1.1-3.9 0.3-0.5-2.2-3.5-3.8-3.1-2.4-2.7 2.1-2.5-2.6-0.6 0.8-1.4 4.4-3 10.7 7.4 2.4 1.3 1.6 2.8 1.3 5.3 0.2 2.2 0.8 4.7 0.4 0.9 0.5 0.7 5.8 6.5 2.2 1 6.5-0.6 6.2-1.6 2.1 0.2 5.7-3.2 0.7-0.3 1.4 0.1 2.5 1.7 0.2 1.6 0.1 1.9 0.8 3.8 0.9 1.6 1.1 1.4 0.9 0.7 1.3 0.8 2.1 1.1 0.8 0.2 0.9 0.1 0.7-0.2 0.9-0.4 0.6-0.6 0.9-0.2 0.7-0.6 1-0.3 1.1 0.2 1.7 0.6 1.3 1 1.4 0.2 1.5 0 10.4 2.5 6 0.1 0.7-0.5 1.5-1.3 4.4-3.1 9.5-3.5 2.6-1.5 1.4-1.1 2.4-2.7 5.5-4.8 2.6-0.5 6.6 0.2 10.4-2.8 1.8 2.4 2.7 0.6 2.2-0.2 4.5 0 3.2-0.8 3.7-1.3 6-3.4 3.1-1.3 3.1-1.1 1.7-0.3 2.5 0.4 5.3 1.5 5.3-0.3 1.4 0.2 1.6 0.6 1.2 0.1 1.3-0.2 0.9-0.4 1.1-0.2 3.6-0.5 4.1 0.7 3.1 1.4 4.4 3.5 1.7 2 0.3 0.6 0.7 0.3 1.5 0.1 7-0.3 3.7 1 0.9-0.1 0.3 0.1 0.4 0.2 0.4 0.2 0.4 0.4 0.5 0.6 0.4 0.3 0.4 0.1 0.5 0.1 0.3 0.2 0.4 0.2 0.2 0.2 0.2 0 0.1-0.2 0.3-0.4 0.3-0.2 0.7 0.1 0.4 0.4 0.4 1.2 0.3 2.1-0.9 6.7 0.1 0.8 0.9 2 0.3 4z" id="HNYO" name="Yoro">
  </path>
  <path d="M295.8 576.5l4.1-5.2 1.1-3.5 0.4-0.6 0.4-1 1.1-5.3 0.3-2.9-2.7-19.7 0.1-3.1 3-3.7 1.2-1 0.9-0.5 0.9 0 4.7-0.5 4.1-1.9 1.8-1.1 0.9-1.2 0.1-0.8 1.6-3.2 2.8-1.8 3.9-0.8 1-0.6 0.6-1 0-0.9-0.2-0.6-0.4-1-0.2-0.2-0.4-0.2-0.4-0.2-0.5-0.2-0.7-0.5-0.8-0.7-0.9-1-0.5-0.9-0.3-1.6-0.3-5.9 0.3-1.6 0.4-0.9 0.7-0.3 0.6 0 0.9 0.2 1.8 0.8 1.1-0.4 0.7-0.5 3.9-5.2 1.5-3.2-0.5-1.1-3.6-2.8-0.2-0.4-0.2-0.5 0.5-0.4 0.4-0.6 0-1.5-0.2-0.7-0.5-0.5-3.4-3.1-2.3-1.5-0.8-1.1-0.6-1.4-0.3-1.2-0.5-2.3 7.5-7.4 1.3-2.8 0.1-0.7 0.2-0.8 0.1-0.9-0.1-2.3 0.3-0.6 0.5-0.3 0.5 0.1 0.6 0.2 0.6 0.4 0.7 0.2 0.6 0.2 0.5 0 0.5 0 0.4 0 0.2 0.3 0.1 0.6 0.2 0.3 0.5 0.2 0.6 0.2 0.6 0.1 1.6 0.1 2.2-3.9 0.5-2.1 0-0.8-0.1-0.8-0.2-1.2 0.1-0.5 0.2-0.2 0.2 0.2 0.2 0.2 0.3 0.2 0.5-0.1 0.2-0.4 0.1-1 0.2-0.4 0.3-0.2 0.5-0.1 0.8-0.2 1.3-1 0.5-0.2 0.5-0.1 0.7-0.3 0.7-0.4 1.1-0.7 0.3-0.4 0-0.3-0.1-0.2 0.1-0.6 1.5-4.2 0.9-3.5-0.6-5.1-0.7-2.4 0.2-2.3 0.4-1.5 0.4-0.8 0.5-0.4 0.4-0.2 3-0.2 2.4-1.9-1.4-2.2-0.2-1.1-0.8-0.8-0.5-0.5-2.6-1.1 2.9-4 0.9-2.1 1.4-2.2 3-2.5 0.4-0.8 0.2-0.9 0.2-3.1-0.1-1.6 2.6-2.2 7-0.9 1.4 0.1 1.7 0.3 1.2 0.6 2.2 0.7 7.8-0.4 4.9 1.1 0.4 1.7 0.6 1 1.5 1.9 1.3 1.3 3.4 1.8 1.7 1.7 2.1 1.2 0.6 0.5 0.3 0.4-1.4 1.1-1.2 4.1-1.4 1.2 0.9 3.2 0.5 1.1 1 1.6 0.7 1.6 0.3 4.1 0.4 1.6 1.2 1.6 1.1 5.6 4.6 11.3 1.7 3.2 2 2.2 1.3 1.1 2.8 0.7 1.4 1.4 5 4.7 2.8 3.6-0.1 2.7-0.6 2.4 0.1 1.3 0.4 1.4 1.5 2.4 0.5 1.1 0.3 2.2 0.4 2.1 1.9 5.1-0.1 2.1-10.9 8.4-4.8 4.6-1.1 4.9-2.8 5-7.1 6.3-1.7 4.7-1.6 2.3-0.3 0.7 0.2 0.6 1.2 0.3 0.8 0.5 0.5 0.7 0.2 0.6-1.5 3-3.1 0.4-2.3-0.4-2 0-3.1 1.2 0.9 2.7 3.8 5.2 4 3 1.1 0.6 0.4 1 0.3 1.6-0.5 6-1.6 3-1.7 1.8-2.4 1.3-5-0.9 0.6 2.2 0.1 1.1-0.1 1.2-0.7 1.5-0.4 2 0.2 2.9-0.6 6.9-2.7 6.9-2.5 3.2-0.7 0.5-2.3 0-3.5-0.6-1.2-0.6-3.3-3-2.2-1-1 1.2-0.2 0.5-0.3 1.2-0.1 2.1 0.1 2.1 0.4 1.6 0.9 1.1 1.7 3.1-0.1 2.4-1.1 1.6-1.1 2.4-0.4 2.6-0.1 0.6-0.7-0.1-6.9-3-4.6 1.5-7.2-2.6-5 0.6-1.5-0.7-1.7-0.9-5.9 0.7-2-1.9-2.8-2.7-0.3-2 1.1-2.5 0.1-0.6-0.6-0.2-0.8 0-0.7 0.2-1.6-0.4-1.7-0.5-2.9 0.1-1.6 0.5-0.4 1.7-0.4 3.9-0.8 3.3 0 2.1 0.6 2-1.1 0.7-1.5-0.5-3.8-2.4-5.2-3.9-0.4-0.5-0.7-0.5-0.5-0.2-2.7 0.3-4.5-0.9-5.9-4-1.1-1.8 0.3-6.5 0-4.4z" id="HNFM" name="Francisco Morazán">
  </path>
 </g>
 <g id="points">
  <circle class="13.201720861306262|-89.05212390571458" cx="90.9" cy="671.4" id="0">
  </circle>
  <circle class="14.977268528991422|-85.93545051679216" cx="545.5" cy="404.4" id="1">
  </circle>
  <circle class="17.19670311359787|-83.44211180565422" cx="909.1" cy="67.5" id="2">
  </circle>
 </g>
 <g id="label_points">
  <circle class="Ocotepeque" cx="92.3" cy="474.7" id="HNOC">
  </circle>
  <circle class="Lempira" cx="152.8" cy="512.2" id="HNLE">
  </circle>
  <circle class="Intibucá" cx="214.4" cy="494.3" id="HNIN">
  </circle>
  <circle class="La Paz" cx="253" cy="539.6" id="HNLP">
  </circle>
  <circle class="Valle" cx="300.4" cy="612.7" id="HNVA">
  </circle>
  <circle class="Olancho" cx="558.2" cy="423.5" id="HNOL">
  </circle>
  <circle class="Gracias a Dios" cx="754.6" cy="376.5" id="HNGD">
  </circle>
  <circle class="El Paraíso" cx="445.7" cy="539" id="HNEP">
  </circle>
  <circle class="Choluteca" cx="367.6" cy="660.5" id="HNCH">
  </circle>
  <circle class="Cortés" cx="240.2" cy="321" id="HNCR">
  </circle>
  <circle class="Santa Bárbara" cx="188.8" cy="379.9" id="HNSB">
  </circle>
  <circle class="Copán" cx="110.1" cy="412.6" id="HNCP">
  </circle>
  <circle class="Colón" cx="627.2" cy="304.7" id="HNCL">
  </circle>
  <circle class="Atlántida" cx="352.5" cy="305.2" id="HNAT">
  </circle>
  <circle class="Islas de la Bahía" cx="472.6" cy="192.2" id="HNIB">
  </circle>
  <circle class="Comayagua" cx="292.8" cy="447.6" id="HNCM">
  </circle>
  <circle class="Yoro" cx="341.4" cy="371.6" id="HNYO">
  </circle>
  <circle class="Francisco Morazán" cx="376.5" cy="483.4" id="HNFM">
  </circle>
 </g>
</svg>