<?xml version="1.0"?>
    
<!--********* Copyright (c) 2024 Pareto Softare, LLC DBA Simplemaps.com ***************************************
************* Free for Commercial Use, full terms at  https://simplemaps.com/resources/svg-license ************
************* Attribution is appreciated! https://simplemaps.com *******************************************-->

<svg baseprofile="tiny" fill="#6f9c76" height="766" stroke="#ffffff" stroke-linecap="round" stroke-linejoin="round" stroke-width=".5" version="1.2" viewbox="0 0 1000 766" width="1000" xmlns="http://www.w3.org/2000/svg">
 <g id="features">
  <path d="M919.3 309.3l-0.1 0-10.8 1.4-11.3-1-5.9 0.4-7.3-1.4-8.6-1.2-6-5-11.8-5.4-11.3-6.8-5.3-17.4-16.1-16.4-6-1.7-5.8-1.7 3.1-4.9 1-9-5.4-8.8-3.3-10-4.3-8-0.9-8 1.2-4.3-0.2-4.6 3.8-2.6 5.2-1.1 6.8-10 1.4-13.1 1.2-2.5 1.5-3.2 2.2 1 4.3 3.2 2.9 0.7 2.5-1.1 1.6-2.6 2-2.4 3.7-1 6.1-4.7 9 0.1 15.6 4.6 8.6 1.1 2.3 1.8-2 4.2-2.7 1.8-3.8 0.7-8.9-0.2 3.3 6.2 5.5 0.7 6-1.7 4.8-0.8 5.7 4.9 3.6 2.2 1.6-1.1 1.7-4.6-0.7-2.4-7.1-1.9-2.2-2.1-1.2-2.9 0.6-3.4 2.4-2.1 3.7 0.2 8.2 1.9 13.4 0.3 2.8 9.3 1.2 6-0.4 5.4-0.5 8.9 1.5 7.7 8.9 21.2 3.8 26.4-0.2 15.1-3.7 7.8-1.7 1.9-4.1 10.4-3 2.4-8.6 4.9-2.1 2.1 1.6 6.7 5.7 8.1 1.3 1.4z" id="HTNE" name="Nord-Est">
  </path>
  <path d="M846.2 290.3l11.3 6.8 11.8 5.4 6 5 8.6 1.2 7.3 1.4 5.9-0.4 11.3 1 10.8-1.4 0.1 0 10.6 10.8 20.6 10 4 2-1.4 20.1-1.6 5.8-4.1 6-10.8 7.8-4.8 4.3-9.5 13.5-13.9 15.3-4.2 2.6-16.3 4.5-5.5 3.7 0.9 5.8 5.7-0.8 8-2.8 7.4 0.3 2.9 2.4 4.6 9.5 2.9 3.4 7.3 6.8 2.3 3 1.8 6.2 0.3 13.7 2.6 13.2-0.5 6.4-1.5 6.2-2.2 5.7-3.8 6.3-4.5 3.6-8.6 5.4-2.2 1.3-0.1-0.1-2.1-2.6-12.1-7.2-13.3-3.5-10.7-3.9-10.9-3.8-25.7 4.7-25.2 8.2-24.4-8.4-19.2-19-9.5-6.6-10.9-2.8-10.4-6.6-8.4-11.2 15-0.9 15.1 1.8 7.5-4.3 1.2-10.4 4.4-10.9-0.9-9-2-16.9 4.4-17.1-2.1-10-0.7-8.2 3-7.2-8.6-8.6 1.8-24.4 14.6-20.6 9.4 3.3 7 7 2.9 4.4 6.2-0.6 22.1-13.8 23-11.8z" id="HTCE" name="Centre">
  </path>
  <path d="M722.9 448.5l8.4 11.2 10.4 6.6 10.9 2.8 9.5 6.6 19.2 19 24.4 8.4 25.2-8.2 25.7-4.7 10.9 3.8 10.7 3.9 13.3 3.5 12.1 7.2 2.1 2.6 0.1 0.1-0.8 0.5-4.3 4.9-6.6 11.2-4.1 4.5-12.4 4.3-24-4.5-11.8 2.5-5.5 4.2 2.8 5.5 28.9 29.7 2 3.1 0.8 5.1-1.7 1.8-2.4 1.4-1.2 3.7 1.9 6.2 4.8 2.7 12.5 3.1 2.7 2.4 4.8 7.2 2.6 3 12 8 17.2 6.5 4.5 3 3 2.6 0.6 1-3.7 6.5-0.3 0-27.9 4.9-16.5-10.3-21.5-1.7-26.8 0.4-27.6-6.3-27.7-5.7-27.2 1.7-26.4-1.6-4.4-5-3.9-5.3-9.2 0.7-6.1-3.1-8.4-4.1-11.5-0.8-10.5 5-7.9 9.5-3.2 2.5-3.9 0.1-7.8 3.4-7.4 0.9-4.2 0.5-3.7 3.1-6.1 0.8-6.2 0.2-3.7 3.2-3.5 3.4-5.5-0.8-5-2.8-0.9 4.8-1.7 4.2-3.9 3.1-2.5 4.7-10.5-2.7-10.9-3.6-5.4 3.2-3.6 3.9-6.8-3.5-3.6-5.3-4.8-0.2-4.9-0.4-8.5 1.9-6.8 0.9-3.8-7.4-4.6-6.1-5-6.3-2.4-8.2-5.5-5.5-7.9-0.4-0.8-9 5-8.4-0.2-4-1.8-3.8 22.5-4 27.6 6.7-1.7 5.5 6.1-1.2 8.6-3 5.6-0.1 4.6 2 22.7 3.9 12.3-2.8 8.7-7.4 6.3-10.4 5.4-11.8 7.7-9.6 10.1-2.2 53.3 4.7 1.9-0.7 0.8-1.6 0.5-1.6 1.1-0.7 2 0.4 0.9 0.9 0.7 0.8 1 0.4 6.6 7.5 3.1 1.7 5.6-1.5 2.6-5.6 0.7-7.9-0.5-20.5 0.5-3.7 2.2-4.6 2.5-2.7 1.1-2.5-1.7-4.1-2.8-2-14.6-7.2-3.9-0.6-7.8-0.3-3.7-1.1-6.5-5.6-5.7-7-6.2-4.9-7.8 0.9-10.9-6.6-2.7-3.1-2.7-6.4-16.3-25.5-4.5-4.6-6.4-5.2-6.7-4.3-5.5-1.8-5.1-2.6 4.5-5.7 5.3-3.9 20.4 0.7 24.1 3.5 7.5 0.8 7.9-0.3 3.4 4.8 3.2 5.2 8 3.5 8.4 3.4 8.6 6.3 7.4 7.7z m-284.9-3.8l-6-4.3-1.7-1.5-2.3-2.9-2.1-3.5-1-3.7 1.1-3.7 3.9-4.4 5.6-3.8 6.5-2.5 6.9-1 7.5 0.9 44.3 18.6 21.9 7.2 24.3 12.3 22.6 9.6 9.3 11.5 2.4 7.2 1.2 8.7-0.9 8.5-3.8 6.7-3.4 1.4-2.2-2.1-2.9-6-2.7-2.4-2.5-0.7-7.1-0.4-28.5-6.4-9.7-0.7-10.2-2.6-28.1-18.2-28.4-7.7-7.6-5-6.4-9.1z" id="HTOU" name="Ouest">
  </path>
  <path d="M928.4 641.4l-0.2 0.3-14.2 24.4-2.5 6.4-0.9 6.6 0.5 3.1 3.4 9.7 0.8 3.7-0.2 5.6 0.7 9.7-1.2 5.8-3.8 10.2-5.2-3.6-22.3-29.1-9.7-8.8-11.2-7-25.1-8.6-10.4-5.5-10.4-4-12.4 0-25.4 4.3-33.2-0.3-46.5 0.6-25 4.6-6.5-3.4-3.8-1.5-1.7 1.3 2.1 13-3 3.3-3.7 0-8.7-3.3-4.9-0.9-37.5 3.4-7.7-0.5 0.6 1.6 1 3.8 0.6 1.5-4.7-0.3-1.9-0.5-2.3-1.7-8.8 5.7-17.6-1.7-8.6 3.3-8.4-4.9-11.3-4.4-12.1-3.2-7.2-0.8 0.3-1.6-1-5.9-0.7-5.9-0.6-7.3-0.1-7.4 4.1-9.5 1.3-10 4.6 6.1 3.8 7.4 6.8-0.9 8.5-1.9 4.9 0.4 4.8 0.2 3.6 5.3 6.8 3.5 3.6-3.9 5.4-3.2 10.9 3.6 10.5 2.7 2.5-4.7 3.9-3.1 1.7-4.2 0.9-4.8 5 2.8 5.5 0.8 3.5-3.4 3.7-3.2 6.2-0.2 6.1-0.8 3.7-3.1 4.2-0.5 7.4-0.9 7.8-3.4 3.9-0.1 3.2-2.5 7.9-9.5 10.5-5 11.5 0.8 8.4 4.1 6.1 3.1 9.2-0.7 3.9 5.3 4.4 5 26.4 1.6 27.2-1.7 27.7 5.7 27.6 6.3 26.8-0.4 21.5 1.7 16.5 10.3 27.9-4.9 0.3 0z" id="HTSE" name="Sud-Est">
  </path>
  <path d="M319.9 708.5l5.3 0.3 6.3 1.3 4.6 2.7 0 4.8-4 2.5-6.5 0.7-12.4-0.7-5.6-1.2-4.8-3-8.1-7.4 1.1-3.4 1.4-1.4 1.8 0.5 2.1 2.1 3.6-2.5 1.8 0.9 1.2 2.3 2.2 1.5 10 0z m196.6-42.6l0.7 5.9 1 5.9-0.3 1.6-26.4-2.9-8.4 0.4-2.7-0.4-9.3-6-2.8-0.9-42.3-6.9-19.1 2-2.9-0.8 1.7-4.4 4.2-1.7 11.5 0.1 0-2.1-21.3-2.3-25.8 0.2-7.5 2.1-10.3 6.1-3.9 0.8-2.5-1.3-2.8-6.2-2.3-1.9-4.3 2.6-2.3 6.6-2.3 4.9-4.4-2.4-2 0-3.7 2.4-3.2-1.7-1.4-4.4 1.6-5.5-4.5 1.4-4 8.8-4.6 3.6 0.3-4.6 1-4 3.1-7.7-2.5 2.1-3.6 4.7-2.6 2.6-0.3-0.8-1.8-0.7-3.4-0.8-1.2 0.6 0.1 1.3 0.4 1.5-0.3 1.2-14 11.2-22.8 10.6-5.8 5.7-5.5 9.2 13.4 14.3 2 5.3 1.6 6.6-0.7 2.5-4.3 1.1-21.1-0.1-3.1-0.5-3.1-1.5-2.3-2.4-1.2-4.9-20.4-29.4-1-0.8-2.5-1-1.1-0.7-1.1-1.3-0.3-1-0.1-1-0.9-1.5-5.9-5.6-30.9-22.7-5.6-2.8-9.7-1.6-4.1-1.7-3.5-2.5-1.4-3.2-0.7-3.6-1.8-1.1-2.7-0.2-3.4-0.8-8.2-3.3-2.7-1.5-2.1 2.5-6-2.2-6.4 2.7-6.8 4.2-7 2.1-5.8-1.2-7.3-2.9-6.2-3.5-2.6-2.8-2.8-3.7-11.9-6.1-2.2-4.9 1.2-0.6 7.7-0.8 8.8 1.7 17.7-1.8 17.4-3.7 32-6.6 32.4-2.6 13.4 3.3 13.3 4.5 15.2 4.4 15.2 1.2-0.6-8 4.4-6.6 7.4-0.2 7.4 0 10.2-2.8 10.2-2.9 10.3 1.5 10.6-0.5 6.4 3.2 5.4 1.8 7.2-6.1 10.3-1.4 8.7 0.8 5.6 4.8 4.6 5.7 7.1 3.6-2.9 5.8-3.2 7.2 16.2 4.1 20.3-3.2 10.1-1 10.1 0.3 11.4-3 10-4 16.6 2.3 16.9-0.4 8.4 1.1 8 0.9 7.3-2.2 7.7 2.1 12.1 9.9 10.2 9.5 2.6 14.6 8.1 11.1z" id="HTSD" name="Sud">
  </path>
  <path d="M266.4 528.8l7.6-3.6 10.4 0.9 8 4.5 0.1 7.4-7.3 4.5-10.2-0.1-7.9-4.5-0.7-9.1z m4 68.6l-10.2 2.9-10.2 2.8-7.4 0-7.4 0.2-4.4 6.6 0.6 8-15.2-1.2-15.2-4.4-13.3-4.5-13.4-3.3-32.4 2.6-32 6.6-17.4 3.7-17.7 1.8-8.8-1.7-7.7 0.8-1.2 0.6-0.6-1.3-0.7-6.6-2.1-4.6-8.2-10.5 11-16.3-0.9-1.3-1.4-3.3 5.8-4.2 3.8-15.5 4.7-3.5 0.9-1.7-0.6-4-1.2-4.2-1.3-2.6-0.8-3.6 2.5-3.1 10.8-6.3 14.2-5.8 6-1.1 7.4 1.9 3.2-0.2 1.4-2.7 1.6-2.3 3.5-1.1 3.8-0.2 17.9 1 12.7 2.8 41.7 18.6 18.4 0.8 0.6 0.5 2.1 2.4 0.4 0.7 0.8 2.6 1.7-0.2 2.3-1.1 2-0.3 9.2 4.9 4.1 1.5 14.4 0.5 3.4 0.7 3.7 1.6 6.9 5.9 2 1.2 3.3 0.3 1.6-1 1-1.2 1.7-0.6 3.2 0.5 4 2 2.8 0 2-0.9 0.8-0.6-2.6 5.5-5.6 6.4 1.6 4.7 5.2 2.4-7.1 8.1-5.7 12.9z" id="HTGA" name="Grand'Anse">
  </path>
  <path d="M568.1 35.3l9.2-0.5 6.2 0.9 5.5 2.4 7.2 4.3 30.2 12 12.9 8.1-3.7 8-5.1-2.3-27.1-3.7-12.5-5-15.5-3.5-5.3-2.4-3.6 0.7-3.8 1.4-3.5 0.6-6.7-1.3-7.8-2.6-7.1-3.6-4.5-4.3 1.4 0 0.9-0.4 1.8-1.7 14.8-4.9 16.1-2.2z m-86.2 155.8l-0.4-0.1-1.6 0.8-1.5 1.7-2.1 1.6-3.4 0.8-4.7-1.2-7.1-3-6.9-3.8-4.3-3.8-6.4 6.3-13.7 1.8-30.4-1.5-6-1.6-3.6-0.4-2.2-1.4-5.7-6.4-3.1-1.4-4.4-3-1.7-6.8-0.6-7.1-1-4 11.4-18.3 1.7-3.8 3.1-0.1 16.7-7.8 0-2.6-17.6 0 5.1-3.9 6.1-0.6 6.5 0.5 6.4-0.4 38.9-17.9 11.4-8.3 6.4-8.9 3.8 4.6 3.6 1.3 9.1-1.1 4.6 0.7 8.4 3.1 4.5 0.6 3.8 0 2.1-0.4 6.4-1.7 4.7-0.6 4.9 0.4 4.4 1.7 3.4 3.2 2.3-5.3 6-3.3 7.3-0.7 6.2 2.3 8.5-3.5 10.2-2.7 10.6-1.3 9.9 0.5 32.5 7.7 8.1 5 6.6 3.2 18.9 5.9 1.2 1.4-2.6 1.8-3.2 4.8-2 4.1-2.7 2.1-3.5 3.3-4.2 3.7-3.4-0.4-3.1-2-5.1-1.4-4.5 1.3-1 4 0 2.1-9.7-1.4-7.8 5.7-5.3 3-6.7 1.8-19.8 17-24.1 4.3-13-2.5-13.2-1-12.8-3.2-12.3 1.2-15 15.9-2.6 18.5 0.3 0.9z" id="HTNO" name="Nord-Ouest">
  </path>
  <path d="M824.1 163l-1.5 3.2-1.2 2.5-1.4 13.1-6.8 10-5.2 1.1-3.8 2.6 0.2 4.6-1.2 4.3 0.9 8 4.3 8 3.3 10 5.4 8.8-1 9-3.1 4.9 5.8 1.7 6 1.7 16.1 16.4 5.3 17.4-23 11.8-22.1 13.8-6.2 0.6-2.9-4.4-7-7-9.4-3.3-3.3-9.1-5.3-9.7-1.6-9.6 1.7-9.3-5.4-12.1-12.8-6.3-12.3-11.5-1.5-21.5-6.2-3.1-4.6-2.4-5.5 0.5-5.9 5.6-6.3-0.2-0.1 8.8-9.5 3.1-11.4-4.8-9.7-7.8-8.8-8.7-5.3-13.8-4.4-13.5-7.7-3.3-4-5.9 3-11.4-6.6-4.9-6.9 0.9-0.9-7.6-6.6-5.1-3.8-8.2 0-2.1 1-4 4.5-1.3 5.1 1.4 3.1 2 3.4 0.4 4.2-3.7 3.5-3.3 2.7-2.1 2-4.1 3.2-4.8 2.6-1.8 6.6 8.3 8.5 5.8 8.9 3.2 4.9-3.2 5.8 3.1 9.7 3.8 9 2.3 4-1.2 2 5.4 15.4 14.4 0 2.1-1.5-0.7-5-1.4 4 9.9 1.4 1.5 5.7 1.2 1.2-0.4-1.2-3 4.2-4.8-1.1 0-2.1 0.1-1-0.1 0.1-0.4 0.6-1.4 0.8-1.1 0.5 0.6 0-2.1-0.8-1.1-1.2-3.5 2 0 4.7 2.6 6.5 0.6 5.8-1.9 2.6-5 3.2-3.3 6.3-0.2 4.3 3.6-2.7 8.2 5.4 3.2 5.2 0.6 12.6-2.2 1.1 0.1 1.8 0.4 2.2 1.5 4.6 4.7 3.1 0.9 11 0 2.6 0.8 1.4 1.6 1 1.5 0.8 0.5z" id="HTND" name="Nord">
  </path>
  <path d="M775.6 301.8l-14.6 20.6-1.8 24.4 8.6 8.6-3 7.2 0.7 8.2 2.1 10-4.4 17.1 2 16.9 0.9 9-4.4 10.9-1.2 10.4-7.5 4.3-15.1-1.8-15 0.9-7.4-7.7-8.6-6.3-8.4-3.4-8-3.5-3.2-5.2-3.4-4.8-7.9 0.3-7.5-0.8-24.1-3.5-20.4-0.7-5.3 3.9-4.5 5.7-0.8-0.4-33.5-36.3-1.5-8.6 13.5-5.5 12.2-0.8 6.8-2.3 3-4.9-1.9-6.4-4.7-3.3-5.8-2.2-5.3-3.1-3.3-4.3-7.7-13.6-2-5.4 2.2-1.6 0.2-0.6-0.3-0.6 0.2-1.8 3.2-3 3.5-7.7 2.1-3.2 3.5-1.7 5-1 5.2-0.2 3.7 0.6-4.6-9.1-3.3-1.8-6.4-0.6-3.8-2.9-1.2-6.6 0.5-7 1.4-4.3 2 2.1 2.6 1.9 3.1 0.9 3.2-0.5 3.5-2.5 0.1-2.5-1.1-2.8-0.5-7.8-0.8-1.4 0.7 0.2 4.6 0.9 1.6 1 2.2 1.9 3.1 1.6 4 0.1-6.2-12.3-3.2-1.8-16.5-1.1-4.2-3-2.8-4.6-4.2-5.1-6-4.4-20.3-9.3-16.9-10.5-6.1-1.5-5.2-2.4-11.2-9.7-2.2-0.5-3.2 1.5-19.7-7.4-3.3-0.3-6.3-1.6-3.2-0.3-0.3-0.9 2.6-18.5 15-15.9 12.3-1.2 12.8 3.2 13.2 1 13 2.5 24.1-4.3 19.8-17 6.7-1.8 5.3-3 7.8-5.7 9.7 1.4 3.8 8.2 6.6 5.1 0.9 7.6 6.9-0.9 6.6 4.9-3 11.4 4 5.9 7.7 3.3 4.4 13.5 5.3 13.8 8.8 8.7 9.7 7.8 11.4 4.8 9.5-3.1 0.1-8.8 6.3 0.2 5.9-5.6 5.5-0.5 4.6 2.4 6.2 3.1 1.5 21.5 12.3 11.5 12.8 6.3 5.4 12.1-1.7 9.3 1.6 9.6 5.3 9.7 3.3 9.1z" id="HTAR" name="L'Artibonite">
  </path>
  <path d="M502.6 586.1l1.8 3.8 0.2 4-5 8.4 0.8 9 7.9 0.4 5.5 5.5 2.4 8.2 5 6.3-1.3 10-4.1 9.5 0.1 7.4 0.6 7.3-8.1-11.1-2.6-14.6-10.2-9.5-12.1-9.9-7.7-2.1-7.3 2.2-8-0.9-8.4-1.1-16.9 0.4-16.6-2.3-10 4-11.4 3-10.1-0.3-10.1 1-20.3 3.2-16.2-4.1 3.2-7.2 2.9-5.8-7.1-3.6-4.6-5.7-5.6-4.8-8.7-0.8-10.3 1.4-7.2 6.1-5.4-1.8-6.4-3.2-10.6 0.5-10.3-1.5 5.7-12.9 7.1-8.1-5.2-2.4-1.6-4.7 5.6-6.4 2.6-5.5 3.3-2.4 1.3-0.7 0.4-0.8 4-5 2.2-1.1 2.5-0.1 2.6 0.2 2.5-0.1 14.5-4.2 4.1-0.6 11.4 2.9 0.2 5.8-6.5 4.3-8.4-1.3 0 2.1-6.9-2.3-6.2-0.8-6.1 0.7-7 2.4 2.1 1.5 5.3 2.8 5.3 1.3 0.3 1.9-0.1 2.6 1.4 2.6 5.6 2.6 10.2-1.5 5 2.5 11.2-6.8 13.7-1.7 50.4 3.9 6.5 1.5 12.7 6.4 7.1 1.5 25.5-0.9 12.5 1.1 11.2 4.2 6 3.4 4.8 1.9 5.4 0.3 8-1.4z" id="HTNI" name="Nippes">
  </path>
 </g>
 <g id="points">
  <circle class="18.129138359699617|-74.3466630783678" cx="90.9" cy="696.7" id="0">
  </circle>
  <circle class="18.95467552646449|-72.92163561231797" cx="545.5" cy="419" id="1">
  </circle>
  <circle class="19.986596984920585|-71.78161363947811" cx="909.1" cy="69.9" id="2">
  </circle>
 </g>
 <g id="label_points">
  <circle class="Nord-Est" cx="874.5" cy="230" id="HTNE">
  </circle>
  <circle class="Centre" cx="831.4" cy="375.4" id="HTCE">
  </circle>
  <circle class="Ouest" cx="784.6" cy="559.8" id="HTOU">
  </circle>
  <circle class="Sud-Est" cx="690.3" cy="636.1" id="HTSE">
  </circle>
  <circle class="Sud" cx="266.6" cy="641.6" id="HTSD">
  </circle>
  <circle class="Grand'Anse" cx="137" cy="562" id="HTGA">
  </circle>
  <circle class="Nord-Ouest" cx="474.2" cy="130.1" id="HTNO">
  </circle>
  <circle class="Nord" cx="765.5" cy="193.8" id="HTND">
  </circle>
  <circle class="L'Artibonite" cx="684.9" cy="305.3" id="HTAR">
  </circle>
  <circle class="Nippes" cx="394.9" cy="595.7" id="HTNI">
  </circle>
 </g>
</svg>