<?xml version="1.0"?>
    
<!--********* Copyright (c) 2024 Pareto Softare, LLC DBA Simplemaps.com ***************************************
************* Free for Commercial Use, full terms at  https://simplemaps.com/resources/svg-license ************
************* Attribution is appreciated! https://simplemaps.com *******************************************-->

<svg baseprofile="tiny" fill="#6f9c76" height="1000" stroke="#ffffff" stroke-linecap="round" stroke-linejoin="round" stroke-width=".5" version="1.2" viewbox="0 0 1000 1000" width="1000" xmlns="http://www.w3.org/2000/svg">
 <g id="features">
  <path d="M316.2 408.8l1.3 0.5 0.4 0.7 1.9 3.1 2.8 3.1 1.1 1.7 0.3 1.1 0.4 0.9 0.7 1 0.9 0.8 0.6 0.3 0.6 0 0.5-0.4 1.1-1.2 0.5-0.3 0.5-0.1 0.9 0.1 7.9 1.6 0.5 0.4 0.3 0.8 0.5 4.9 0.4 0.9 0.3 0.6 2.2 1.4 0.4 1.6 0.2 0.4 0.4 0.6 0.8 0.6 6.8 4.5 2.8 1.4 1.2 0.1 1.2-0.4 0.9-0.1 0.9 0.2 0.9 0.5 0.7 0.2 0.6-0.2 1-0.8 0.6-0.4 1-0.3 0.4-0.4 0.1-0.5-0.1-0.5-0.7-1.4-0.1-0.2-0.2-0.3-0.1-0.3-0.1-0.3-0.1-0.3 0-0.6 0.2-2.8 0.2-0.7 0.3-0.5 1-0.7 1.6 0.2 0.5 0.3 0.6 0.6 0.7 1.1 0.7 1.2 0.1 0.3 0.2 0.4 0.4 0.9 0.1 0.8 0.2 0.5 0.4 0.3 1.2 0.1 0.8 0.2 0.7 0.5 1.1 1.1 0.5 0.8 0 5.9 0.4 0.8 0.6 0.3 1.9 0.3 0.7 0.3 0.8 0.6 0.5 0.7 0.5 0.9 0.2 0.4 5.9 9.9 0.6 1.4 1.1 3.3 0.6 1.2 2.2 2.7-0.1 3 0.2 0.8 0.3 0.8 0.9 0.7 0.1 0.1 1.4 1.4 0.8 1 0.3 0.8 0.1 0.7-0.2 0.7-0.4 1.5-0.3 1.3 0 0.7 0.2 0.7 1.9 4.2 1.8 8.3 0.9 5.2 0.5 1 4.2 6.1 1.1 2 0.2 0.9-0.1 0.4-0.3 0.2-0.4 0-0.4 0.6 0 1.1 0.7 2.8 0.4 1.2 0.6 0.7 0.6 0.2 0.8 0.2 1.5 0.8 2.1 2.4 1.7 3.9 0.7 1 0.6 0 1.9 2.6 0.3 0.6 0.4 1 0 0.6-0.3 0.5-0.6 0.4-0.8 0.2-1.4 0.2-0.6 0.3-0.1 0.3 0 0.4 0.2 0.2 0.2 0.3 1.9 1.8 0.9 1.5 0 0.6-0.2 0.6-1.4 1.4-0.6 0.9 0.2 0.9 1.2 2.5 0.1 0.9-0.1 0.7-0.2 0.6-0.3 1.1 0 0.5 0 0.4 2.1 3.7 0.6 0.8 0.7 0.7 1.9 3.9 0.5 1.9 0.1 2.7-0.8 3.8 0 4.9-0.7 2-0.1 0.7 0.1 0.7 0.2 0.5 0.1 0.3 0.4 0.6 1.3 2.3 0 0.8-0.1 0.9-0.5 1.5-0.3 2.6-0.7 1.6-2.3 2.6-0.4 0.9-0.1 0.8 0 1.4-0.2 1.8-0.1 3.5-0.6 1.7-1.5 2.8-0.4 0.3-0.4-0.2-0.3-0.2-0.7-0.7-0.8-0.6-0.8-0.2-1.1-0.1-0.9-0.4-3.1-2.2 0-0.7 0.1-0.8 0-0.6-0.1-0.6-0.4-0.7-0.1-0.2-0.1-0.3 0-0.6 0.3-1.2 0.7 0.2 1 0.9 0.8 0.6-0.3-0.7-0.8-1.6 0-0.5 0.2-0.5-0.3-0.5-0.7-0.8-0.5-0.9-0.3-1-0.1-2.2-0.5-1-1.9-1.8-0.4-1.5-0.1-2.8-0.3-1.2-1.7-3.5-0.1-0.7 0.3-0.6 1.4-0.7 0.5-0.5 0.1-1.1-0.2-1.1-0.4-1-0.9-1.4-0.1-0.5 0-0.5-0.1-0.6-0.2-0.4-0.6-0.6-0.2-0.3-0.3-1.9-0.3-1-0.7-0.4-2.1 0.3-0.9-0.1-0.6-0.5-0.1-0.5 0-0.6 0.1-0.7 0.1-0.4 0.4-0.1 0.5 0.6 0.7-0.2 0.6 0.5 0.5 0.1 0.3-0.3 0.6-0.8 0.3-0.3-0.5-0.8-0.2-0.8-0.5-0.7-1.1-0.3-0.7-0.3-0.3-0.8-0.2-0.9-0.4-0.8-2.3-2.6-1-1.3-0.6-1.5 0.6 0.2 0.2-0.5-0.4-4-0.2-0.5-4.6-4.4 0-0.4 0.4 0 0.8 0.7 1.7-0.1 3.1-0.6-0.7-0.3-0.5-0.3-1.2 0.8-0.7-0.3-1.3-2.1-1.4-1.8-0.2-0.9 0-1.3-0.5 0.4-0.2 0.6 0 0.7 0.1 0.6-0.7 0.2-1-0.3-0.9-0.5-0.5-0.8-0.4 0.3-0.2 0.1-0.7-0.9-0.3-1.4 0.2-1.4 0.8-0.9-0.6-1.7-0.1-0.6 0.1-0.7 0.5-0.8 0.1-0.3 0.4-0.9 0.2-0.1-0.1-0.4-0.1-0.3-0.1-0.3 1.2-0.9 0.3-0.3-0.6 0-1.1 0.3-0.4 0-0.8-0.3 0-0.4 0.2-0.5 0.2-0.8 0-0.4-0.3-1.1 0-0.7 0.3-0.6 0.6-1.3 0.1-0.6-0.4-4.1 0.2-0.7 0.5-0.5 0.4-1 0.2-1.1-0.3-0.7-0.5 1.2-1.2 2.3-0.2 1.4 0.4 2.5 0 1.5-0.5 0.6-0.6 0.5-0.7 1.1-1 0.6-1.2-0.7-0.2-0.5 0-1.2-0.2-0.4-0.5-0.3-0.5 0.3-0.2 0.6-0.1 0.7 0.3 0.4 1.4 1.4 0.4 0.6 0 0.4-0.1 0.4-0.1 0.6 0.1 3.2 0.2 0.9 0.3 0.6 0.8 1 0.1 0.6 0 0.5-0.2 0.7-0.1 0.4-0.1 0.5-1.1 1.4-0.1 0-0.4 0.2-0.1 0.1 0 0.2 0.1 0.4 0.1 0.3 0.1 0.1-0.6 0.4-0.5-0.4-0.6-0.7-1.9-0.6-2.3-2.4-0.9-0.5-2-0.7-0.7-0.6-0.4-0.5-0.3-0.4-0.2-0.5-0.5-0.4-0.5-0.1-0.4 0.1-0.3 0-0.4-0.6-0.1-0.6 0.2-1.1-0.3-0.5-0.2-0.4-0.3-0.6-0.2-0.5 0-0.5-0.3-0.7-1.6-1.4-0.6-0.7-1.3-2.6-0.5-0.4-2.6-3.6-0.5-1-0.2-0.8 0-2 0.4-0.7 0.7-0.8 1-0.4 1.1 0.1 0.3 0.3 0.2 0.4 0.2 0.4 0.4 0.2 1.5 0 0.9 1.5 0.3 1.1-0.7 0.7 2 1.4 1 0.4 1.4 0.2 0.2 1.2 1.5 1 1.9 0.6 1.7-0.2 1.4-0.7 3-2.2 0.9-1 0-0.3-0.1-0.6 0.1-0.2 0.1 0 0.4-0.2 0.1-0.1 0.8-1.1 0.3-0.7 0-0.9-0.2-1.6 0.3-0.6 0-0.3-0.3-0.4-0.2 0-1.5 0.3-1-0.2-0.4-0.5 0.2-0.5 0.8-0.4-0.5-0.3-0.5-0.1-1.1 0.1-0.4-0.2-1.2-1.2-1.9-1.3-0.9-0.8-0.4-1-0.4-0.6-1.7-0.7-0.4-0.7 0.3-0.9 0.8-0.5 1.1-0.1 0.9 0.3-0.2-0.8 0.4-0.7 0.6-0.7 0.5-0.8-0.7-1-0.3-0.3-0.3 1.4-0.7 1.3-1 0.7-1.4-0.1-0.5-0.4-0.3-0.6-0.2-0.7 0.1-0.9 0.3-0.6 1.1-0.5 0.4-0.6-1.3-0.1-0.6 0.7-0.3 1-0.4 0.4-2.1 0-0.5-0.5-0.1-1.2-0.5 1.3-0.4 0.5-0.6 0.2 0-3.1 0.2-0.6 2.5-3.6 0.9-0.7 1.1 0 1.5 0.1-0.4-0.6-0.2-0.5 0.3-0.5 0.6-0.1-0.2-0.4-0.3-0.3-0.3-0.2-0.4-0.1-0.3 0.2 0 0.7-0.2 0.1-2.3 0.1-0.5 0.1-0.3 0.1-0.4 0.1-0.9-0.1-0.1 0.2-0.3 0.9-0.3 0.3-0.7 0-0.6-0.2-0.5-0.4-0.4-0.4 0.2-0.1 0.4-0.4 0.3-0.2-1.7-0.6-0.5-0.5 0.6-0.5-0.7-0.4-0.2-0.6 0.2-0.5 0.7-0.2-0.1-0.3-0.2-0.4-0.5 0.3-0.5 0.4-0.3 0.4-0.2 0.6-0.2-0.3-0.6-0.4-0.2-0.3-0.3 1.1-0.3 0.4-0.5 0.2-0.5-0.2-0.5-0.5-0.5-0.6-0.1-0.6-0.3-1.1-0.9-2.5-0.1-1.2-0.3 0 0 1.8-0.2 1-0.4 0.2-0.3-0.6-0.7-3.1-0.3 0-0.3 1.1-0.7 0.7-0.8 0.6-1 0.3-1.3-0.1-1.3-0.5-1.1-0.2-0.7 0.5-0.7-0.3-0.6-0.5-0.5-0.6-0.4-0.6 0.1 1 0.3 0.7 0.9 1.6 0.9 3.4 2.7 5.3 0.1 1.3-0.9-0.8-0.7-1.3-1.2-2.6-0.7-2.4-0.6-1.3-0.7-0.6-1 0.6-0.4 1.4 0.2 1.7 0.9 1.7 0.2 1.6 0.2 0.6 0.6 0.8 0.2 0.1 0.2 0.1 0.1 0.2 0.5 0.7 0 0.1-0.9-1-0.5-0.2-0.2-0.1-0.4-0.6-0.6-1.3-2.4-3.7-0.3-0.9-0.2-1.3-0.5-0.8-1.2-1.4-0.9-1.3-0.5-0.5-0.2-0.5-0.1-1.4-0.2-0.6 0.9 0.2 2.4-0.2 0.6-0.2 0.4-0.6 0.7-1.2 0.2 0.3 0.1 0.2 0 0.2 0 0.3 0.4 0 0.9-2.5 0.3-0.5 0-0.3-1.4 0.4-2 2-1.3 0.9-1.2-0.2-0.2-1.6 0.6-2.5 0.8-0.9 1.1-3.6 0.6-0.9 1.2-0.4 0.4-1.1 0.5-2.4-0.9 0.6-0.4 2-0.6 0.7-0.7-0.1-0.5-1-0.1-1.2 0.1-1 1.7-3.2 0.7-1.8-0.6-1-0.2 0.9-0.4 1.1-0.5 1-0.6 0.8-0.6 1.1-0.1 1.4 0.2 2.7-0.4 2.1-0.9 1.9-2.7 3.6-1.7 3.7-0.2 0.1-0.3 0.3-0.4 0.2-0.5 0.1-0.4-0.2-0.2-0.2-0.4-0.7-2.9-2.2-0.5-0.6 0.1-0.7 0.2-0.7 0.4-0.7 0.6-0.7 2.9-2 1.7-0.4 1.9-0.6-0.4-0.2-0.4-0.1-0.9 0-0.6-0.1-0.1-0.2-0.1-0.3-0.3-0.5-1.1-0.9-0.5-0.4-0.3-0.6-0.4-4.4-0.2-0.7-0.5-0.5-1.1-0.1 0.2 1.1-0.5 1-0.7 0.4-0.5-0.8 0.7-0.3 0.2 0-1.3-1-0.4-1.5-0.2-1.7-0.7-1.4-1-1.3-1.7-2.9-1.2-0.9 1.1 2.2 2 3.1 0.2 0.5 0.4 3.8 0.9 2.7 0.1 0.8-0.4 2.2 0.4 5-0.4 1-0.3-0.6-0.8-1-0.4-0.8-2-5.3-1-1.4-4.2-3.9-0.5-0.8-0.4-2.3-0.6-0.9-1.6-1.7-0.4-0.5-0.1-0.4-0.3-0.3-0.7-0.1-0.4-0.2-1-0.6-0.4-0.2-0.8-0.4-0.5-1.1-0.4-2.2-2.6-7.3-0.7-1.3-0.4-0.8-0.4-4.3-0.3-0.6-1.9-1.6-0.2-0.8-0.3-0.6 0-0.1-0.6-0.6-0.5-0.4-0.3-0.7-0.1 0-0.2-0.8 0.1-0.5 0.1-0.3 0.2-1.4 0.1-1-0.4-1.9 0-1 0.3-0.8 1.3-1.9 0.6-2.1 0.5-0.9 0.7-0.2 0.8 0.1 0.7 0 0.4-0.5 1.3-1.6 0.9 0.3 0.6 0.2 0.6 0.8 0.2 0.8 0.1 0.8 0.3 0.8 0.4 0.5 0.5 0.2 1 0.4 1.9 0.2 0.9-0.2 0.6-0.2 0.6 0.2 0.6 0.1 0.9 2 0.4 1.9 0.3 1.1 0.5 0.6 0.9-0.1 0.2-0.1 0.9-0.6 0.9-0.9 0.4-0.8-0.1-0.5z m50.3 121.7l0.2 0.5 0.4 1.1 0.1 0.5-0.2 1.2-0.4 1-0.7 1-0.9 0.6-0.8 0.1-1.2 0-1-0.2-0.5-0.4-0.2-0.6-0.5-0.6-1.1-0.9-4.4-5.3-0.2-0.4-0.5-1.3 4.3-0.3 1-0.4 0.5-0.7 0.5-0.3 0.9 1.1 1 0.7 0.5 0.2 0.4 0 1.1 0.1 1.6-0.2 0.3 0.3 0.1 1.2-0.2 1.4-0.1 0.6z m10.3-29.8l0.1 0.7 0 1-0.3 0.9-0.5 0.4-0.7 0.3-1 1.5-0.8 0.6-0.1 0.1-0.1 0.1-0.3 0.1-0.3-0.1-0.1-0.3-0.1-0.2-0.1-0.1-0.6 0.3 0 0.4 0.2 0.4-0.1 0.4-0.4 0.2-0.5 0-1 0-0.9 0.1-0.3-0.1-0.5-0.4-0.6-0.6-1-1.7-0.3-0.5-0.1-0.5-0.4-0.6-0.1-0.6-0.1-0.1-0.1-0.1-0.1-0.1 0-0.3 0.1-0.2 0.2 0 0.3 0 0-0.3-0.3-0.8-0.7-0.4-1.5-0.5-0.6-0.4-0.5-0.5-0.8-1.7 0.5-0.1 0.2-0.2 0-0.3-0.3-0.4 1.7-2.3 0.4 0 0.4 0.1 0.9 0.1 0.3 0.1 0.4 0.3 0.2 0.4 0.2 0.4 0.3 0.4 2.2 1.7 0.7 0.8 0.8-0.4 1-0.2 1 0.2 0.9 0.6 0.8 0.6 1.8 1.1 0.6 0.7z m-21.2-18.9l0.5 1.5 0.1 0.7-0.3 0.8-2.5-2.1-0.7-1-1.6-5.4-0.2-1.5 0.9 0.1 1 0.6 0.4 0.5 0.4 0.4 0.1 0.3 0.3 0.4 0.7 0.4 0.6 0.5 0.3 0.7-0.2 2.3 0.2 0.8z m-24.7-11.1l0.2 0.7 2.2 5.7 0.3 1.7 0.1 2-0.3 0-0.2-0.9-0.2-2.1-0.4-0.8-0.6-0.9-2.8-5.2-0.1-0.9-0.2-0.2-0.2-0.2-0.2-0.3-0.1-0.4 0.2-0.5 0.2-0.2 0.3 0 0.3 0.4 0.7 0.5 0.3 0.3 0.3 0.4 0.2 0.5 0 0.4z" id="MM16" name="Rakhine">
  </path>
  <path d="M373.8 438.4l-0.5-0.8-1.1-1.1-0.7-0.5-0.8-0.2-1.2-0.1-0.4-0.3-0.2-0.5-0.1-0.8-0.4-0.9-0.2-0.4-0.1-0.3-0.7-1.2-0.7-1.1-0.6-0.6-0.5-0.3-1.6-0.2-1 0.7-0.3 0.5-0.2 0.7-0.2 2.8 0 0.6 0.1 0.3 0.1 0.3 0.1 0.3 0.2 0.3 0.1 0.2 0.7 1.4 0.1 0.5-0.1 0.5-0.4 0.4-1 0.3-0.6 0.4-1 0.8-0.6 0.2-0.7-0.2-0.9-0.5-0.9-0.2-0.9 0.1-1.2 0.4-1.2-0.1-2.8-1.4-6.8-4.5-0.8-0.6-0.4-0.6-0.2-0.4-0.4-1.6-2.2-1.4-0.3-0.6-0.4-0.9-0.5-4.9-0.3-0.8-0.5-0.4-7.9-1.6-0.9-0.1-0.5 0.1-0.5 0.3-1.1 1.2-0.5 0.4-0.6 0-0.6-0.3-0.9-0.8-0.7-1-0.4-0.9-0.3-1.1-1.1-1.7-2.8-3.1-1.9-3.1-0.4-0.7-1.3-0.5 0-0.5-1.7-5-0.5-2.4-0.1-1.3-0.6-11.7 0.7-7.5-0.1-1.5-0.6-2.9 0.3-0.2 0.4-0.1 0.3-0.3 0.2-0.3 0.2-0.2 0.4-0.5 0.5-0.1 0.6-0.1 0.5-0.3 0.3-0.6 0-0.7-0.1-0.7 0-0.7 0.3-1 0.1 0.1 0.2 0 0.2-0.1 0.1-0.5-0.2-1.4 0.1-0.7 0.5-0.3 1.1 0.3 2.9 2.2 2.9 2.8 0.8 1.1 0.4 1.4 0.2 1.4 0.5 0.5 0.5-0.5 0.5-1.4 0.3-1.1 0.7-0.2 0.7 0.4 0.6 0.9 0.3 0.3 0.2 0.1 0.3 0 0.3-0.2 0.1-0.1 0.1-0.1 0.1-0.3 0-0.4-0.1-0.3-0.2-0.4-0.3-0.6-0.1-0.7 0.1-0.6 0.8-1.6 0.5-0.4 0.5-0.1 0.8-0.4-0.1-0.4 0.1-3.3-0.1-0.4 0.1-0.2 0.5-0.3 0.5 0 1.2 0.2 0.8 0.3 0.6 0.5 0.7 0.3 1-0.3-0.8-1.6 0-0.6 0.1 0 0.2 0 1-0.5 0.4 0 0.4-0.3 0.2-0.6 0-0.5-0.4-5.7-0.5-2.1-1.6-1.7-0.4-0.8-0.5-1.6 0-1.2 0.5-1.9 0-1.1-0.3-1-1-1.8-0.3-0.9-0.2-1.1 0.4-3.9 1.5-1.3 0.2 0 0.4-1.1 1.6-2 0.7-1 0.1-0.9-0.3-1-0.9-1.8-0.4-1-0.2-1.4 0.1-1.3 0.5-0.9 1.2-0.4 0.8 0.2 0.8 0.7 0.6 1 0.9 0.7 1.2 0 1.2-0.6 0.9-0.8 0.7-0.9 1.9-3.9 0-0.6-0.1-0.6 0-0.7 0.3-3.4-0.2-2.1 0.1-0.8 0.3-0.9 0.9-1.2 0.1-0.4 0.1-0.5-0.1-0.6-0.3-2.9 0-1.3 1.5-9.7-0.1-1.6-0.2-0.5-0.6-0.9-0.3-0.5-1.4-1-0.8-5.8 0.1-1.8-0.2-0.8-0.2-0.3-0.2-0.3-0.4-0.4-1-1.7-0.4-0.8-0.2-0.9-0.1-1 0.1-1 0-0.3 0.3-1.1 0.6-0.8 1.2-0.5 0.9 0.6 1.3 2 0.4 0.6 1.5 1.5 0.3 0.7 0.1 0.6 0.4 0.5 0.8 0.1 1-0.1 1.4-0.8 0.7-0.3 0.3 0.2 0.3 0.3 0.3 0.3 0.4-0.1 0.3-0.3 0.2-0.3 0.2-0.4 0.1-0.4 1.1-0.7 2.2-0.1 2.3 0.3 1.4 0.5 1.9 2.5 0.9 0.5 3.6-0.5 1.4 0.3 1.2 0.5 1.6 0.4 1.1 0.2 2.6 1.5 0.7 0.6 0.6 0.9 0.7 0.7 0.8 0.1 0.5-0.6 0.3 0.5 0.2 3.2 0.3 0.9 0.8 2 0.3 1.3-0.6 4.7-0.3 1.3-0.4 3.7 0 0.1-0.1 0.3-0.2 0.3-0.3 0.3-0.2 0.2-0.4-0.1-0.7-0.2-1.5-0.9-0.3-0.1-0.3 0-0.2 0.1-0.2 0.4 0 1.5 0.3 1.2 0.1 0.7-0.2 3.7-0.2 0.4-0.4 0.2-1.2-0.1-0.4 0.4 0.4 1.7 0.1 0.9-0.6 2.3 0 0.6 0.1 2.6 0.8 4.7 0.1 1-0.2 2-1 3.9-0.1 0.6 0.3 0.6 0.1 0.6 0.4 0.7 0.2 3.3-0.4 1.8-0.2 0.4-0.3 1.4 0.6 3.2 0.4 2.7 0.4 1.6 0.1 0.9-0.2 1.8 0.6 5.1-0.1 0.7-0.5 1.1 0.1 0.4 0.6 0.1 0.4 0.2 0.2 0.4-0.2 0.7-1 1.7-0.2 0.6 0 0.9 1.3 6.6 0 1-0.1 1.2-1 2.2-0.2 1.1 1 3.3 0.4 0.9 0.1 0.2 0 0.3-0.2 0.4-0.7 0.4-0.5 0.3-0.3 0.4-0.4 1.5-0.2 3.1 0.2 1.9 0.6 1.7 1.8 3.3 2.1 3.6 0.9 1.4 0.2 0.6 0 0.9-0.2 0.8-2.3 5-0.8 5.7-1.4 2.7 1.1 1.1 1.9 1.1 0.6 0.6 0.3 0.6 0.1 0.9 0.2 3.2-0.1 1.2-0.4 1.1-2.8 5.2-0.4 2 0.1 0.5 1.5 3.1 0.4 1.2 0.4 2.1 0.2 0.7 0.4 0.7 1.3 1.7 0.1 0.3 0.1 0.2 0 0.4-0.3 0.5-1 0.5-3.9 1-1.3 0-0.8-0.2-3.3-2.2z" id="MM14" name="Chin">
  </path>
  <path d="M517.5 119.7l0.4-0.2 0.5 0 0.5 0.2 0.4 0.3 0.4 0.2 0.6-0.2 0.1-0.4 0.5-1.3 0.1-0.4-0.3-0.5-0.4-0.3-0.4-0.3-0.3-0.4-0.1-0.4-0.1-1-0.2-0.4-1.3-1.3-7.4-9.8-1.1-1.8-0.2-1 0.6-1.5 0-0.8-0.2-0.4-0.2-1 0-0.5-0.2-0.4-0.5-0.8-0.2-0.5 0.1-1.1 0.3-1 0.6-0.9 0.8-0.7 1.8-1.3 0.8-0.7 1.5-2 0.6-0.4 1.5-0.4 0.6-0.2 0.3 0 0.2-0.2 0.1-0.6 0.1-0.6 0.3-0.3 0.9-0.3 0.3-0.3 0.4-0.7 0.3-0.2 0.4-0.2 0.4-0.2 2.3-2.1 0.8-0.8 0.5-0.8 0.6-0.6 0.8-0.4 0.9-0.2 0.7 0.1 0.6 0.6 0 0.7 0.2 0.4 1-0.4 0.8-0.5 0.2-0.4 0-0.6-0.1-1.1 0.2-0.9 0.8-1.4 0.2-0.8-0.3-1.4-2.2-2.4-0.6-1.4 0.3-1.7 1.3-3.2-0.2-1.4 0.1-0.1 0.1 0 0.1 0.1 0.7 0.5 0-0.4 0.1-0.5 0.1-0.8 0.2-0.1 0.6 0 0.1 0 0.1 0.2 0.4 0 0.7-0.1 0.4-0.4 0.2-0.1 0.2-0.1 0-0.1-0.1-0.4-0.5-0.5 0-0.5 0.2-0.3 0.5 0.1 0.9 0 0.2 0.2 0.1 0 0.2-0.3 1.1 0.4 0.1-0.1 0.2-0.1-0.2-0.3-0.3-0.4 0.2-0.2 0.5-0.2 0.3 0.2 0 0.3 0.3-0.1 0.3-0.7 0.2 0-0.1-0.2-0.1 0 0-0.6 0.3-0.5 0-0.3-0.2-0.1-0.3-0.2 0-0.6-0.3-0.3 0.2-0.4 0.3-0.1 0.5-0.4 0-0.6 0.3-0.4-0.2-0.3-0.2 0.1-0.3-0.1 0.3-0.6 0.1-0.5 0.5-0.3-0.5-0.7-0.1-0.2-0.1-0.3-0.2-0.4 0-0.2 0.1-0.4-0.1-0.2 0.5-0.7 0.1 0 0.2 0.1 0.1-0.2-0.1-0.2 0-0.2 0.1-0.1 0.5-0.1 0.2-0.3-0.2-0.4 0.2-0.1 0.3-0.2 0.3-0.2 0.1-0.1 0.6 0.4 1 1.6 1.1 0.6 1.2-0.8 1.4-0.7 1.3 1.2 1.9 5.5 1.1 1.5 1.5 0.5 0-0.1 0.6 0.6 0.3 0 0.1 0 0.2 0.2 0.6 0 0.2 0.1 0.3-0.4-0.2-0.6 0-0.2 0.7-0.3 0-0.2 0.4-0.3 1.3 0.6 2.2 2.9 1.5 1 0.7 0.6 0 0.8-0.4 1.5 0.3 0.5 1.5 0.2 0.4 1 0.1 0 0.4 0 0.4 0 0-0.2-0.2-0.2 3 2.8 0.2 0.2 0.4 0.8 0 1-0.2 4.7-0.2 1-0.5 1.1 0.3 0.6 1.6 0.9 0.8 0.8 0.5 0.8-0.1 0.8-0.9 0.5-0.7 0.5 0.2 0.9 0.8 1 1.6 1 0.1 0.5-0.1 0.6 0 1.1 0.2 0.4 0.3 0.3 0.1 0.3-0.4 1.2 0.1 0.5 1.5 2.4 0.8 1.7 1 4 0.8 1.7 1.6 0.7 1.1-0.3 0.3 0.2 1.5 0.1 0.3-0.7 0.1-0.3 0.4-0.3 0.8-0.2 0.2-0.3 0.1-0.5 0-0.3-0.1-0.7-0.1-0.2 0-0.2 0.2-0.5 0-0.3-0.2-0.2 0.4-0.7 0-0.4-0.3-0.3 0.1-0.5-0.2-0.3 0.1-0.5 0.5-0.1 0.1 0 0 0.1 0.3 0.3 0.3 0.1 1.1 0.5 0.6 0.2 1.9 0.8 0-0.4 0.3-0.1 0.9 1.9 0.6 0.6 1.2-0.1 0.2-0.1 0.4 0.9 0.2-0.1 0.5 0.3 1-0.3 0.1-0.3 0.2-0.1 0.2-0.1 0.2 0 0.2 0.1 0 0.1 0.2 0.4 0.2 1.1-0.5 2.1-0.2 2.1 0.3 4.5 0.2 0.6 0.2 0.1 0.4 0 0.3 0.2 0.4 1.6-0.1 1.7-1.1 3.5-0.3 1.5-0.1 1.6 0.5 3.4 0.4 0.9 0.5 0.3 0.6 0.2 0.7 0.7 0.3 1-0.3 0.9-0.5 0.9-0.3 1 1 4.5 0 0.4-0.1 0.5-0.7 0.8-0.1 0.6 0.1 1 1.1 1.6 0.4 0.9-0.1 1.1-0.6 1.9-0.2 1 0.7 1.7 0 0.4 0 0.5 0 0.4 0.2 0.5 0.2 1.1-0.3 0.9-0.9 1.7-0.3 1.7-0.2 6.7-0.2 1-0.3 0.9-0.4 0.9-1.8 2.1-0.4 1.1-0.2 0.9-0.1 0.9 0.2 0.5 0.9-0.2 0.4 0.5 1.2 2.4 0.1 0.9-0.2 0.4-0.4 0.3-0.2 0.3 0 1.1-0.3 0.4-1 0.8 0.1 0 0.2-0.2 0.1-0.5-0.3-0.4 0.1-0.2-0.4-0.5-0.3-0.2-0.2 0-0.5-0.1-0.3 0.1 0 0.2-0.3-0.1-0.8 0.3-0.2 0.1-0.3-0.3-0.3-0.1-0.1 0.2 0.2 0.2 0 0.1-1.1 0.3-0.5 0.5-0.2 0.8 0 0.9 0.3 0.8 0.9 1.8 0.2 1-0.1 1.1 0.3 0.6 0.5 0.1 0.5-0.1 0.6 0.2 0.4 0.5 1.5 2.2 0.4 1 0.2 0.2 0.6 0.2 0.2 0.3 0.1 0.7-0.1 0.6-0.2 0.7-0.3 0.5-2.3 1.8-0.2-0.1-0.3 0-0.1 0-0.2-0.3-0.3 0.1-0.6-0.6-0.3-0.1-0.2 0-0.1-0.2 0-0.2-0.1-0.3-0.4-0.1-0.2-0.3-0.4 0.1 0 0.1-0.2 0.1-0.1-0.1-0.7 0.2-0.1 0-0.1 0.1-0.8 0-0.5 0.4-1.1 1.3-0.6 0.5-0.4 0.9-0.6 1.7-0.3 0.4-0.4 0.3-0.2 0.3-0.1 0.6 0 0.6-0.2 0.4-1.7 2.2-0.3 0.6-0.5 2.2-0.5 0.8-0.6 0.5-0.4 0.2-0.1 0.1-0.5 0.2-0.4 0.2-0.1-0.3-0.2-0.2 0-0.2 0.1-0.1-0.2-0.4-0.2 0-0.4-0.2-0.2-0.6-0.4-0.1-0.1-0.3-0.4-0.1-0.4-0.1-0.3-0.4-0.2 0.2-0.6-0.1-0.3 0-0.1-0.3-0.4-0.2-0.2 0.3-0.5 0-0.3-0.6-0.2 0 0.1 0.7-0.1 0.5-1.4-0.5-0.4 0.1-0.1 0.6 0 2.5-0.2 0.8-0.5 0.6-0.8 0.8-0.3 0.3 0 0.4 0.3 1.3 0.2 0.4 0.1 0.5-0.1 1.9 0.1 0.8-0.1 0.2-0.1-0.1-0.1 0-0.2 0.1 0 0.2-0.5 0.1-0.7 0.5-0.6 1.1-0.8 2.1-0.3 0.4-0.3-0.1-0.3 0.1-0.1 0.4-1.4 0.7-0.7 0.5-2.1 2.7-0.3 0.2-0.2 0.1-0.7-0.3-0.4-0.8-0.2-0.4-0.3-0.2-0.2-0.4-0.2-0.4-0.2-0.1-0.1 0.3-0.3 0.8-0.1-0.1-1.6-0.9-1.1 1.3-1.1 3.9-1 2.3-0.8 1.2-0.7 0.5-0.8 0.3-0.2 0.4 0.3 1.9-0.1 3.4 0.2 1.7 0.7 1.5 1.7 1.3 0.6 0.8-0.4 1-0.7 0.4-0.5-0.2-0.2 0.1-0.1-0.1-0.1-0.1-0.7-0.1-0.3-0.2-0.2-0.4-0.2 0.6-0.1 0.2-0.5-0.1-1 0.2-1 0.6-1.7 1.5-3.1 2.1-0.2 1.1 0.3 6.3-1.2 6.8 0 1.2 0.3 0.4 3.1-0.5 0.2 0.1 0-0.1 0.4-0.1 0.2 0 0.1 0.1 0.2-0.1 0.4 0 0.2 0 0.7 0.1 0.3 0.4 0.3 0.5 0.1 0.5 0.1 0.5 0.2 0.6 0.9 0.6 0.3 0.5 0.1 1.1-0.7 0.3-1 0.1-0.7 0.5 0.3 1.3 3.4 1.2 0.2 1.8-0.2 0.4-0.4 0.3-0.3 0.3-0.1 0.6 0.1 0.5 0.7 0.9 0.2 0.5-0.2 1.2-0.5 1.1-8.7 9.1 0.7 1 1.8 0.8 1.7 1.2 0.3 0.4 0.2 0.5 0.2 0.9 0.6-0.8 0.4-0.3 0.1 0.9-0.4 0.9-0.3 0.4-0.7 0.4-1.4 0.5-4.7 0.9-0.6 0.2-2.3 1.7-1.1 0.2-0.5-0.1-0.2-0.1-0.2 0-0.4 0.3-1.1 1.2-0.4-0.2-0.2 0-0.3 0-0.2 0.3-0.2 0.2-0.1 0.2 0 0.1-0.2 0.2-0.2 0-0.7-0.2-0.2 0-0.8 0.2-0.3 0.1-0.3 0.1-0.4 0.3-0.5 0.6-0.2 0.1-0.1 0-0.3 0.1-0.3 0-1.4 0-0.5 0.1-3.4 1.5-1.7 0-0.9 0.1-0.4 0-0.6-0.1-0.3-0.2-0.1-0.1-0.2-0.3-0.1-0.5 0-0.3 0-1.1 0-0.2-0.4-0.4-1.6-0.5-2.2-0.4-0.7 0-0.6 0.2-0.2 0-4.3-1.3 0-0.1-0.2-0.3-0.1-0.3 0-0.3 0.1-0.2 0.3-0.2 3.8-1.4 0.6-0.4 0.5-0.5 0.5-1 0.5-1.5 0-1.6-0.2-1.1-0.3-1.1-0.3-1.2-0.3-0.6-0.3-0.2-0.3 0-0.5 0.2-0.5 0.4-0.2 0.4-0.4 0.2-0.5 0-0.5-0.2-0.8-0.5-3.4-2.4-0.9-1.2-0.5-0.9-0.1-2.4-1-1.2-1-1.9-0.7-0.6-0.8-0.9-0.4-0.9-0.2-1.1 0.1-5.3 0.1-0.5 0.4-0.5 1.3-1 0.4-1.1-1.6-0.9-0.5-0.2-0.9-0.1-0.9-0.3-6.7-2.7-1.4 0-2.3 0.7-2.9 0.4-0.5 0.2-0.3 0.3-0.3 0.3-0.5 0.3-0.4 0-0.5-0.6-0.3-0.5-0.4-0.5-1.9-1.5-1.3-1.4-0.1-0.3-1.5-4.2-1-0.5-4.3-1-0.8-0.3-0.5-0.3-0.5-0.5-0.5-1-2.3-7.7-2.1-5.1 1-0.7 1.6-0.6 1.5-0.5 1.8-0.6 0.8-0.4 0.5-0.4 0.4-0.5 0.2-0.5 0.2-0.3 0.3-0.1 0.2 0 0.2 0.2 0.1 0.2 0 0.4-0.1 0.4-0.3 1.2-0.2 0.5-0.3 0.8 0 0.5 0.1 0.4 0.2 0.3 0.4 0.1 0.5 0 0.4-0.3 0.3-0.3 0.3-0.3 0.3-0.6 0.4-2 0-1-0.2-1.6-0.6-1.4-1-1.8-2.3-2.9-0.5-2.1-0.6-9.5 0.2-4.4 0.5-2 0.5-0.6 0.4-0.1 0.3 0.2 0.4 0.3 0.4 0.4 0.2 0.4 0.4 0.3 0.3 0.2 0.5 0 0.3-0.2 0.3-0.4 0.4-0.5 0.6-0.8 2.7-2.1 0.9-0.9 0.5-1 0.2-1-0.5-1.6-2.5-2.9-0.3-0.9-0.6-2.3-0.8-1.9-0.1-0.6 0.1-0.8 2.3-5.7 0.1-0.1 0.3-0.2 0.4-0.3 0.4-0.4 0.3-0.5 0.3-1.8-0.7-3.9-1-1.5-0.3-0.8-0.3-1.3-0.7-1.1-0.7-0.9-0.2-0.5-0.1-1.3-0.2-0.8-0.4-0.8-2.5-3.5-0.2-0.4-0.1-0.6 0-0.5 0.6-0.9 2.5-0.7 1.2-0.4 1.2-0.6 0.8-0.8 0.2-0.5 0.1-0.2-0.4-2.5-0.2-0.8-0.3-0.8-0.5-0.7-0.7-0.8-1-0.7-1.3-1.5-0.4-0.7 0.2-0.7 0.8-0.8 5.9-3.6 0.2-0.4 0.1-0.3 0-2.3 0.3-0.4 0.6-0.3 1.3-0.3 0.6-0.3 0.4-0.4 0-0.9 0.2-0.8 0.4-0.7 0.2-0.6-0.2-0.4-1.6-1-0.6-0.4 0-0.4 0.6-0.2 4.1 0 2.6 0.6 0.6 0.3 0.8 0.1 0.8 0.1 8-1.2 2.4 0 1.2-0.2 2.8-1 5-0.3 3.5 0.2 0.6 0 0.6-0.2 0.4-0.3 0.2-0.1 0.6-0.7 2.5-3.9z" id="MM11" name="Kachin">
  </path>
  <path d="M517.5 119.7l-2.5 3.9-0.6 0.7-0.2 0.1-0.4 0.3-0.6 0.2-0.6 0-3.5-0.2-5 0.3-2.8 1-1.2 0.2-2.4 0-8 1.2-0.8-0.1-0.8-0.1-0.6-0.3-2.6-0.6-4.1 0-0.6 0.2 0 0.4 0.6 0.4 1.6 1 0.2 0.4-0.2 0.6-0.4 0.7-0.2 0.8 0 0.9-0.4 0.4-0.6 0.3-1.3 0.3-0.6 0.3-0.3 0.4 0 2.3-0.1 0.3-0.2 0.4-5.9 3.6-0.8 0.8-0.2 0.7 0.4 0.7 1.3 1.5 1 0.7 0.7 0.8 0.5 0.7 0.3 0.8 0.2 0.8 0.4 2.5-0.1 0.2-0.2 0.5-0.8 0.8-1.2 0.6-1.2 0.4-2.5 0.7-0.6 0.9 0 0.5 0.1 0.6 0.2 0.4 2.5 3.5 0.4 0.8 0.2 0.8 0.1 1.3 0.2 0.5 0.7 0.9 0.7 1.1 0.3 1.3 0.3 0.8 1 1.5 0.7 3.9-0.3 1.8-0.3 0.5-0.4 0.4-0.4 0.3-0.3 0.2-0.1 0.1-2.3 5.7-0.1 0.8 0.1 0.6 0.8 1.9 0.6 2.3 0.3 0.9 2.5 2.9 0.5 1.6-0.2 1-0.5 1-0.9 0.9-2.7 2.1-0.6 0.8-0.4 0.5-0.3 0.4-0.3 0.2-0.5 0-0.3-0.2-0.4-0.3-0.2-0.4-0.4-0.4-0.4-0.3-0.3-0.2-0.4 0.1-0.5 0.6-0.5 2-0.2 4.4 0.6 9.5 0.5 2.1 2.3 2.9 1 1.8 0.6 1.4 0.2 1.6 0 1-0.4 2-0.3 0.6-0.3 0.3-0.3 0.3-0.4 0.3-0.5 0-0.4-0.1-0.2-0.3-0.1-0.4 0-0.5 0.3-0.8 0.2-0.5 0.3-1.2 0.1-0.4 0-0.4-0.1-0.2-0.2-0.2-0.2 0-0.3 0.1-0.2 0.3-0.2 0.5-0.4 0.5-0.5 0.4-0.8 0.4-1.8 0.6-1.5 0.5-1.6 0.6-1 0.7 2.1 5.1 2.3 7.7 0.5 1 0.5 0.5 0.5 0.3 0.8 0.3 4.3 1 1 0.5 1.5 4.2 0.1 0.3 1.3 1.4 1.9 1.5 0.4 0.5 0.3 0.5 0.5 0.6 0.4 0 0.5-0.3 0.3-0.3 0.3-0.3 0.5-0.2 2.9-0.4 2.3-0.7 1.4 0 6.7 2.7 0.9 0.3 0.9 0.1 0.5 0.2 1.6 0.9-0.4 1.1-1.3 1-0.4 0.5-0.1 0.5-0.1 5.3 0.2 1.1 0.4 0.9 0.8 0.9 0.7 0.6 1 1.9-1.9 0.3-1.9 0.5-8 3.7-0.7 0.6-0.5 0.6-0.1 0.7 0.1 0.6 0.5 0.8 0.5 0.1 0.3 0 0.4-0.5 0.5-0.8 0.6-0.5 0.2-0.1 0.5-0.2 0.3 0 0.3 0 0.3 0 0.3 0.1 0.2 0.1 0.1 0.1 0.1 0.1 0.3 0.3 0.1 0.4 0.1 2.6 0.1 0.3 0.4 0.7 0 0.3 0.3 1.1 0.1 0.3 0.2 0.2 0.6 0.7 0.2 0.2 0.1 0.2 0.1 0.3 0.1 0.4 0 0.4-0.2 0.5-1.4 2.7-0.2 0.5-0.9 1.7-0.2 0.2-0.2 0.2-0.8 0.3-0.5 0.4-1.1 1.5 0 0.4 0 0.3-0.2 0.5-0.1 0.2 0 0.4 0 0.4-0.1 0.3-0.3 0.7-0.1 0.3-0.1 0.4-0.2 0.5-0.9 1.3-0.6 0.7-0.7 0.6-1.3 1.5-0.8 0.5-1.4-1.2-0.5 0-0.7 0.2-2.1 1.1-1.1 0.3-1-0.3-1.5-0.7-0.4-0.4-0.3-0.5 0-0.6 0.1-0.6 0.3-0.8 0.1-0.6 0-0.6-0.4-1-0.6-0.4-0.3-0.1-1.1 0.1-1.1 1.1-1 1.1-0.7 1.5-0.1 0.7-0.5 1-2.8 3.5-1 1.5-0.4 1-0.3 1.1 0 1 0.1 0.7 1.2 4.1 0.2 0.6 0.1 0.1 0.1 0.2 0.2 0.3 0.3 0.9 0.5 2 0.3 1.2-0.4 19.1-0.2 0.5-0.3 0.4-0.5 0.3-1.1 0.1-0.4 0.1-0.4 1.6 0.7 2.3 3.1 5.5 0.2 1-0.3 1-0.6 0.9-0.2 0.9-0.1 4 0.3 0.9 0.9 1 1.1 1.1 0 0.4-0.3 0.7-0.3 0.3-0.2 0.2-0.3 0.3-0.2 0.5 0 0.6 0.1 2.6 0.6 2.9 0.3 3.4 0.8 1.5 1.1 3.2 0.1 1.8-0.5 1.6-0.9 1.4-1.2 0.9-0.9 0.5-0.9 0.3-0.8 0.2-1.1 0-0.8-0.2-0.5 0.5-0.7 1.3-1.5 5.9-0.7 1.2-2.2 2.6-0.3-0.3-1-0.2-3.9 0.5-2.9-4-1.5-1.5-0.7-0.3-1.1 0-5.8 1.3-0.7 0.5-0.5 2.1-0.6 1.4 0 0.3-0.3 0.5-0.3 0.6-1.9-0.6-0.8-0.5-0.9-1.1-0.7-0.4-0.1-0.7 0-1.1-0.1-0.7-0.4-0.4-0.8-0.6-0.5-0.6-0.8-1.7-1.3-1.5-0.4-0.6-1.1-0.4-0.7-0.1-1.5 0.3-1.2 0.8-6-0.2-3.5-0.7-2 0.1-0.9 0.3-1.9 0.2-1.8 0.3-0.7 0.1-0.7-0.2-0.9-0.2-1.3-0.2-0.8 0-2.4 0.9-0.9 0.4-1.1 1-0.3 0.2-0.4 0.1-0.8-0.1-0.9-0.3-1.2-0.7-0.8-0.7-0.4-0.4-0.2-0.6 0.9-8.1 0-1.4-0.2-1-0.3-0.9-0.3-0.3-0.5-0.2-0.6-0.3-0.4-0.3-0.7-1.6-0.9 0-1.4 0.4-0.5 0-0.4-0.1-0.4-0.5-0.4-0.6-0.3-0.9-0.6-5.7 0.1-0.7 0.1-0.4 0.3-0.8 1.7-3.7 0.2-0.7-0.1-0.9-0.1-0.7-1.3-2.7-2.1-3.9-1.9-2.4-0.8-0.7-0.4-0.5-0.5-0.8 0-0.1-0.1-0.5-0.1-0.1-0.1-0.1-0.5-0.4 0-0.2 0.1-0.2 0-0.4-0.1-0.4-0.3-0.7-0.4-0.2-0.3 0-0.4 0.6-0.2 0.3-0.3 0.2-0.6 0.3-0.7 0.1-0.6 0-1.3 0.2-0.6-3.2 0.3-1.4 0.2-0.4 0.4-1.8-0.2-3.3-0.4-0.7-0.1-0.6-0.3-0.6 0.1-0.6 1-3.9 0.2-2-0.1-1-0.8-4.7-0.1-2.6 0-0.6 0.6-2.3-0.1-0.9-0.4-1.7 0.4-0.4 1.2 0.1 0.4-0.2 0.2-0.4 0.2-3.7-0.1-0.7-0.3-1.2 0-1.5 0.2-0.4 0.2-0.1 0.3 0 0.3 0.1 1.5 0.9 0.7 0.2 0.4 0.1 0.2-0.2 0.3-0.3 0.2-0.3 0.1-0.3 0-0.1 0.4-3.7 0.3-1.3 0.6-4.7-0.3-1.3-0.8-2-0.3-0.9-0.2-3.2-0.3-0.5 0.2-0.2 0.1-1-0.1-1.1 0.1-1 0.5-1 2-2.8 0.2-0.7 0.2-1.9 0.2-0.5 0.5-0.6 0.2-0.8 0.2-1.8 0.5-1.9 2.2-5.3 0.2-0.9 0.2-1.6 0.2-0.8 0.3-0.4 1-0.7 0.3-0.4 0.1-0.5-0.2-0.8 0-0.3 0.5-0.6 0.6-0.4 0.4-0.6 0.1-2 0.3-0.6 0.5-0.4 0.7-0.5 0.7-2.5 0.3-0.7 0.6-0.6 2-1.3 0.5-1.1 1-3.5 0.4-0.8 0.6-0.1 0.6 0 0.6-0.1 0.6-0.3 0.5-0.7 0.4-0.9 0.2-0.9 0-0.9 0.2-1.5 1.9-2.5 0.7-1.3 0.8-4.3 0.8-1 0.8-1.6 0.3-2.1-0.3-2.1-0.9-1.5-1.6-0.7-1.8-0.4-1.7-0.6-1-1.6-0.2-2 2.7-7.6 1-1.6 0.9-1 0.4-0.4 1.5-1.1 0.9-0.3 1.5-0.2 0.9-0.3 0.8-0.6 1.2-1.9 0.6-0.9 0.4-0.1 0.9 0 0.4-0.3 0.1-0.2-0.4-0.5 0-0.2 0.2-0.2 0.5-0.3 0.2-0.1 4.1-6.1 0.3-0.4 0.4-0.2 1-0.1 0.4-0.3 0.3-0.9-0.1-1.1-0.9-5.2 0-1 0.3-1.1 0.6-0.5 1.7-0.6 0.7-0.5 1.9-2.1 1.5-1.8 0.5-1-0.1-1.1-0.5-0.6-1.7-0.5-0.6-0.5-0.4-3.5 0.2-0.4 0.3-0.4 0.2-0.4-0.2-0.4-0.3-0.2-0.4 0-0.4-0.2-0.3-0.3-0.6-1.6-0.2-2 0.1-2 0.3-1.6 0.6-1.7 0.1-0.8-0.2-0.9-0.8-1.7-0.1-0.8 0.6-1 0.7-0.6 1.3-1.5 0.5-0.8 0.2-0.6 0.1-0.3 0-0.3 0.1-1.5 0.2-0.4 0.5-0.4 0.4-0.2 1-0.3 0.4-0.2 0.4-0.4 0.6-1 0.4-0.3 0.9-0.1 0.7 1 0.4 0 0.6 0.1 0.8-0.3 1.7-0.8 3.5-1.1 0.8-0.5 1.4-1.8 1-2.1 1.2-1.7 1.9-0.5 1.1 0.2 0.9 0 0.8-0.4 0.5-1 0.5-1.2 0.5-0.7 0.7-0.3 2.1-0.2 0.6-0.3 0.4-0.6 1.2-2 2-2.4 1.2-0.5 2.6-0.5 1.2-0.7 1.3-1.2 1-1.5 1.6-3.2 1.8-2.4 2.8-2 3.1-1.5 12.1-2 3 0.1 0.7 0.2 1-0.1 0.9-0.3 0.7-0.4 0.9-1.1 0.4-0.9 0.5-0.4 1.3 0.3 0.4 0.2 0.2 0.3 0.4 0.1 0.5 0 0.5-0.3 0.8-0.8 0.5-0.2 0.8 0 0.9 0.3 1.5 0.7 0.8 0.6 0.6 0.6 1 1.7 0.5 0.6 1.5 1.3 0.2 0.4-0.3 1-0.5 0.9 0.1 0.8 1 0.8 6.3 3 0.4 0.3 0.3 0.5 0.4 0.3 0.5 0.3 0.4-0.1 0.5-0.2z" id="MM01" name="Sagaing">
  </path>
  <path d="M500 268.8l1 1.2 0.1 2.4 0.5 0.9 0.9 1.2 3.4 2.4 0.8 0.5 0.5 0.2 0.5 0 0.4-0.2 0.2-0.4 0.5-0.4 0.5-0.2 0.3 0 0.3 0.2 0.3 0.6 0.3 1.2 0.3 1.1 0.2 1.1 0 1.6-0.5 1.5-0.5 1-0.5 0.5-0.6 0.4-3.8 1.4-0.3 0.2-0.1 0.2 0 0.3 0.1 0.3 0.2 0.3 0 0.1 4.3 1.3 0.2 0 0.6-0.2 0.7 0 2.2 0.4 1.6 0.5 0.4 0.4 0 0.2 0 1.1 0 0.3 0.1 0.5 0.2 0.3 0.1 0.1 0.3 0.2 0.6 0.1 0.4 0 0.9-0.1 1.7 0 3.4-1.5 0.5-0.1 1.4 0 0.3 0 0.3-0.1 0.1 0 0.2-0.1 0.5-0.6 0.4-0.3 0.3-0.1 0.3-0.1 0.8-0.2 0.2 0 0.7 0.2 0.2 0 0.2-0.2 0-0.1 0.1-0.2 0.2-0.2 0.2-0.3 0.3 0 0.2 0 0.4 0.2 1.1-1.2 0.4-0.3 0.2 0 0.2 0.1 0.5 0.1 1.1-0.2 2.3-1.7 0.6-0.2 4.7-0.9 1.4-0.5 0.7-0.4 0.3-0.4 0.4-0.9-0.1-0.9 0.3-0.1 0.2 0.2 0-0.1 0.1-0.1 0.1 0.1 0 0.1 0.1 0.4 0.1 0.2 0.1-0.1 0.1-0.3 0.2-0.1 0.2 0.2 0.1-0.3-0.1-0.2 0.2-0.5 0.2-0.1 0.2 0.1-0.1 0.3 0 0.1 0.4 0.2 0.4 0 0.3-0.1 0.1-0.2-0.2-0.1-0.3 0-0.1-0.2 0-0.1 0.2-0.1 0.6 0.1 0.1-0.2 0.1-0.2 0-0.2 0.1-0.2 0.5-0.2 0.2 0 0.1 0.1 0.1-0.2 0.1-0.1 0.1-0.2 0.3 0 0.1 0 0.2 0 0.1-0.1 0-0.5-0.1-0.4 0.2-0.2 0.2-0.1 0.2 0 0.7-0.3 0-0.3 0-0.2 0.4 0 0.1 0 0.1 0 0.1-0.1 0.3-0.1 0 0.1-0.2 0.1-0.1 0.1 0.1 0.3 0.1 0 0.1-0.1 0-0.2 0-0.1 0.5-0.2 0.1-0.2-0.1-0.2 0.1-0.1 0.1 0.1 0.2 0.2 0.3-0.1-0.1-0.6 0.2 0 0.1 0.2 0.1-0.1 0.4-0.4 0.2 0 0.3 0.3 0.5 0 0.5 0 0.2-0.1 0.1-0.1 0-0.2-0.1 0-0.3-0.1-0.2-0.5 0.5-0.5 0-0.3 0.3-0.3 1-0.3 0.8 0.2 0.5-0.3 0.4-0.1 0.2-0.2 0.9-0.1 0.2-0.3 0.3-0.4 0.2-0.2 0.2 0 0.4-0.1 0.3-0.2 0.5-0.5 0.4-0.3 0.4-0.1 0.2 0.1 0.2-0.3 0.5-0.1 0.2 0 0.2 0.2 0.3-0.3 0.2-0.2 0.1 0 0.4 0 0.2-0.1 0.4-0.3 0.6 0.1 0.7-0.1 0.3 0 0.1-0.1 0.7-0.2 0.4 0.1-0.2-0.1-0.1-0.2 1.4 0.2 0.3-0.1 0.1-0.3 0.2-0.1 0.2 0 0.1-0.2 0.2 0 0.3 0 0.2 0.1 0.4 0.1 2.4 0.6 1.7 0 0.3-0.1 0.3 0.1 0.4-0.3 0.1 0.1-0.1 0.2 0.1 0.1 0.2-0.1 0.1-0.2 0-0.3 0.5-0.3 0.8 0 0.8-0.3 0.6 0 0.1-0.1 0.6 0 0.6-0.1 0.5-0.1 1 0.1 0.2 0 0.7 0.2 1.8 1.4 1.3 0.6 0.7 0.3 0.5-0.4 0.7-0.2 1.3-0.6 1.2-0.3 0.1 0.1 0.5 0.1 0.5-0.3 0.2 0 0.3-0.3 0.1-0.1 0.5-0.3 4.7-0.4 1.7-0.5 0.2-0.2 0.3 0 0.3 1.5-0.8 1.5-4.1 2.8-2.2 2-0.8 0.3-0.9 0.3-0.8 0.3-0.2 0.4 0.3 0.4 0.4 0.8 0 0.5-0.4 1.2 0 0.6 0.3 3.7-0.2 0.4-0.2 0.3 0 0.3 0.6 0.5 0.4 0.1 1.1 0 1.3 0.5 1.8 0.3 0.7 0.5 0.3 0.8 0.1 2.5 0.3 0.8 1.9 3.1 0.3 0.2 0.1 0.3-0.4 0.7-0.3 0.3-2.1 1.3-0.6 0.5-0.1 0.7 0.8 2.6 0.5 0.4 0.9-0.3 0.3 0 0 0.1 0.4-0.2 0.2 0 0.7 0.7 0.5 1 0.6 2 0.1 1 0 0.9-0.4 0.9-0.4 0.3-0.5 0.2-0.4 0.3 0 0.5 0.3 0.1 1.6-0.1 0.7 1.3-2.3 4.2-0.1 1.7 3.4 0.3 1.7 0.5 0.9 0.1 0.9-0.1 0.8 0.1 0.3 0.7 0.2 1 0.8 0.8 0.9 0.4 0.8 0 1.7-0.2 0.4 0.1 1.1 0.3 0.7 0.1 0.2 0 0.1 0.1 0.4-0.1 0.2 0.2 0.1 0.9 0.1 0.3 0.3 0.3 0.3 0.2 0.4 0 0.5-0.2 1-0.9 0.4-0.2 0.8-0.2 0.5-0.4 0.1-0.4 0.2 0.1 0.1 0 0.1-0.1 0.2-0.1 0.5-0.2 0.1-0.1 0.1-0.2-0.2-0.2 0.2-0.3 0-0.1 0.4-0.1 0.7 0.6 1.4 1.8 1 0.7 3.4 0.1 0.7 0.4 0.1 0.7-0.1 0.8-0.1 0.8 0.4 0.8 1.6 2.3 0.2 1.1-1.1 0.9-0.6-0.1-0.3-0.1-0.4-0.2-0.1-0.3-0.5-0.3-0.4 0.3 0 0.1-1.6-0.8-0.7 0.3-0.1 0.6 0.3 2.2-0.2 0.8-0.5 0.8-1.1 1.4-0.9 1.9-0.4 0.3-0.5 0.2-0.5 0.2-0.5 0.3-0.4 0.5 0 1.2 2.1 5.5 0.1 1.1-0.4 1.6-0.2 1 0.2 0.5 0.4 0.9 0.1 0.5-0.2 0.6-0.4 0.5-2.9 3-1.8 0.9-0.2 0.7 0.1 0.3 0.3 0.4 0.1 0.6-0.2 0.6-0.9 1-0.3 0.5-0.5 2.4-0.4 0.8-1.5 2-0.3 1 0.7 0.8-1.4 0.7 1 1.1 2.1 1 1.9 0.4 3.5 0.4 1.6-0.2 0.7-0.3 0.1 0.1 0.1 0 0.7-0.1 0.6 0 0-0.2 0.5 0 0.1 0 0.1 0.2 0.2 0 0.1-0.3 0.3-0.1 0.1 0 0.3-0.1 0.2-0.1 1.6 0.7 0.7 0 1.1-0.1 0 0.1 0.1-0.1 0.3-0.1 4.3 1.1 0.4 0.3 0.4 0.3 0.4 0.9 0.2 0.3 0.9 0.5 0.5-0.4 0.4-0.7 0.2-0.1 0.1 0.2 0.5 0.5 0-0.1 0-0.3-0.1-0.2 0.1-0.3 0.3-0.1 0.1 0 0.4 0.1 2.8 1.4 0.3 0.4 0.3 0.3 0.4 0.3 0.5-0.1 0.4-0.4 0-0.8 0.9 0.8 0.2 0 0-0.3 0.1-0.2 0.5 0 0-0.2-0.3-0.1-0.2-0.1-0.1-0.2-0.1-0.3 0.2-0.1 3.4 0.6-0.3 0.7-0.1 0.7 0.3 0.6 0.5 0.5 0.7 1.6-0.5 1.9-1.6 3.5-0.1 1.2 0.2 0.8 0.7 1.7 0.6 2.8 0.4 0.8 1.7 0.9 1.6 0 0 0.4 0.1 0.1 0.4-0.1 0.1 0.4 0.2 0.1-0.1-0.3 0.4-0.4 0.2-0.2 1 0.1 1.7 0.5 0.7 0.6 0.3 0.3 0.2 0.3-0.1 0.4-0.4 0.2-0.4 0.1-0.5 0.3-0.5 0.6-0.5 0.9-0.2 0.8-0.2 0.7 0 0.8 0.2 1.1 0.4 1 0.4 0.6 1 0.7 1.5 2.2 1.1 0.4 0.5-0.2 1.5-1.2 0.6-0.4 0.9-0.3 0.1 0 0.2 0 0-0.1 0.3-0.1 0.5-0.3 0.2 0.1 0.3 0 0.2-0.3 0-0.2 0.2-0.1 0.4-0.1 0.1-0.2 0.2-0.2 0.1-0.1 0.2-0.2 0.4-0.5 0.3-0.5 0.2-0.1 0.2 0 0.8 0.1 0.1-0.1 0.4 0.1 0 0.1 0.1-0.1 0.7 0.5 1.4 1.1 0.2 0.9 0.4 0.7 0.6 0.4 0.8-0.1 1.1-0.2 2.2 0.4 1.2-0.1 0.1 0.2 0.3-0.1 0.2 0 0.1-0.2 0.2-0.2 0.9-0.2 0.4-0.2 1.1-0.5 0.2-0.2 0.3 0.1 0.5 0.1 0.2-0.1 0.2-0.1 0.2-0.2 0.2-0.8 0.4-0.3 0.2-0.1 0.4-0.1 0.3 0.2 0.5-0.1 0.4-0.5 0.2-0.4 0.2-0.2 0.2-0.6 0.3-0.3 0.3-0.3 0.3-0.1 0.3-0.5 0.3 0.1 0.7-0.1 0-0.5 0.3-0.6-0.1-0.1 0.1-0.4 0.3-0.3 0.3-0.4 0.3-0.4 0.3-0.2 0-0.1 0.1 0 0.2-0.2 0.6 0 0.1-0.4 0.3-0.5 0.1-0.1 0.2-0.2 0.1-0.3 0.1-0.2 0.1-0.1 0.4-0.2 1.5-0.4 0.1 0 0.4-0.2 0.2 0 0.3-0.1 1.4-0.4 0.6 0 0.2-0.2 0.7 0 0.1-0.2 0.3-0.1 0.2 0.1 0.2-0.1 0-0.2 0.1-0.2 0.1-0.2 0.3-0.1 0.2-0.1 0.5-0.3 0.1-0.4 0.2-0.1 0.3-0.2 0.2-0.3 0.3-0.2 0.2-0.2 0.4-0.2 0.2-0.1 0.1 0 1.6 0.4 0.3 0.7 0.1 2.4 0.4 0.6 0.6 0.3 0.5 0.9 0.4 1.1-0.1 0.7 0.3 0.5-0.3 0.6-0.4 0.7-0.2 0.9 0.1 0.2 0.1 0.5 0.1 0.9 0 0.1-0.1 0.4-0.1 0.2-0.5 0.3-0.1 0.1-0.2 0.1-0.6 0.5-2.3 1.9-1.8 1.5-1.5 1.2-1.5 0.8-1.7 0.9-1 0.6-0.7 0.2-0.2 0.2-0.7 0.8-0.6 0.6-0.5 0.4-1.7 0.7-1 0.1-0.9-0.3-0.3-0.3-0.4-0.1-0.4-0.1-0.4 0-0.1 0-0.5 0.1-0.2 0.4 0 0.6 0 0.5-1.1 4.5-0.2 0.8-0.2 0.7-2.2 4.1-0.1 0.2-0.3 0.5-0.3 0.3-0.8 0.5-0.1 0-2 0.4-0.8 0.4 0 0.1 0.5 1.3 0.1 0.3-0.2 0.4-0.9 0.5-0.2 0.3-0.1 1-0.4 2-0.1 1 0.9 0.6 1.8-0.3 2.2-0.4 1.1 0.2 0.2 0.1 0 0.3-1.1 1.1-0.7 0.5-0.2 0.2-0.4 0.3-1.4 0.7-1.4 0.5-1.1 0.1-1.9-0.6-3.6-0.6-0.4 0-0.9 0.1-0.6 0.7-0.4 0.7-0.6 0.7-0.5 0.1-1.3 0.4-0.7 0.7-1.1 1.4-0.4 0.4-0.5 0.4-0.3 0.3-0.1 0.1 0 0.1-0.1 0-0.1 0.1-0.1 0.2-0.1 0 0 0.2-0.1 0.1-0.1 0.6-0.3 0.6-1 1.5-0.3 0.8 0 0.6-0.4 0.8-0.2 0.5-0.1 0.4 0 0.1-0.2 0.5-0.2 0.7 0 0.4-0.6 3.9-0.4 1.5-0.1 1.1-0.2 0.8-0.4 0.7-0.5 0.6-0.2 0.7 0.1 0.6 0 0.9-0.1-0.1-1.9-1.2-0.3-0.6-0.2-0.4-0.3-0.4-0.6-0.4-0.7-0.1-0.5 0-0.5-0.2-0.6-0.7-0.4-0.3-0.2-0.5-0.1-0.5-0.3-0.4-0.4-0.4-0.2 0-0.3 0.1-2.4 0.4-1.1 0.3-0.8 0.6-0.5 0.7-0.6 1.8-0.4 0.8-0.8 0.7-0.8 0.3-1.8-0.1-1 0.2-1.7 0.7-0.8 0.2-0.5-0.1-0.7-0.5-0.4-0.2-0.5 0-0.8 0.1-0.4 0-3.5-1.2-2.3-1.5-0.6-0.3-0.9 0.4 0.4 0.8 1.7 1.8 0.4 0.9 0.5 2.8 1.5 1.6 0.3 0.8-0.2 1.2-0.5 0.8-0.1 0.1-0.4 0.3-0.5 0.2-0.6 0.7-1.5 1.3-5.5 1.7-1.2 0.2-0.9-0.5-1.8-1.5-0.8-0.4-1.8-0.5-0.9-0.1-1.9 0.3-2 0.8-1.7 1.2-0.9 1.7-0.5 3.3 0.1 0.5 0.2 0.9 0.1 0.4-0.1 0.3-0.3 0.2-0.2 0.4-0.1 0.5 0.2 1.1 0.2 0.9 0.1 1-0.4 1.2-0.6 1-0.6 0.6-1.8 0.7-1.6 1.2-0.7 0.1-0.9-1.3-0.6-0.5-0.6-0.5-1.4-0.6-2.7 2.1-0.8 0.3-4.1 0.5-0.8 0.4-0.4 0.4-0.7 1-0.4 0.2-1 0.2-0.9 0.4-0.5 0.4-0.1 0.3-0.1 0.1-0.8-0.4-0.5-0.4-0.3-0.4-0.4-0.3-0.5 0.1-0.2 0-1.6 0.8-2 0.1-2.2-0.2-1.8 0-2 1-1.2 0.2-0.8-0.6-0.1-0.5 0-1-0.2-0.4-0.3-0.2-1.6-0.5-1.8-1.7-0.9-0.5-1.2 0.2-0.6-0.2-0.5-0.8-0.7-0.7-1 0.2-0.3 0.7-0.6 3.2 0.1 0.9 0.3 1.7 0 0.9-0.2 0.6-0.4 0.1-0.4 0-0.5 0.2-0.4 0.3-0.7 0.8-0.4 0.3-2.8 1.5-0.8 0.1-0.5-1.9 0-0.7-0.2-0.5-0.3-0.4-0.3-0.2-0.4-0.1-0.3-0.1-0.3 0.1-0.4 0-0.6-0.2-0.9-0.5-0.4-0.2-0.4-0.1-0.3 0-0.2 0.2-0.2 0.3-0.3 0.1-0.5 0-3.4-0.9-1.2-0.2-0.6-0.3-0.2-0.3-0.5-0.9-0.3-0.4-0.4-0.3-0.6-0.3-0.2-0.3-0.1-0.2 0-0.3 0.1-0.5 0.2-0.7 0.7-1.9 0.1-0.3 0-0.4-0.1-0.3-0.2-0.1-0.5 0-0.3-0.2-0.3-0.2-0.7-0.9-0.7-1.5-0.2-0.3-0.3-0.2-0.2 0.1-0.1 0-0.2 0.1-0.1 0.1-0.2 0.2-0.2 0.2-0.3 0.2-0.3 0.1-0.3 0.1-0.5 0-0.6-0.1-2.4-2.8-0.1-0.6-1.1 0.3-0.6 0.8-0.2 0.7-0.3 0.6-0.2 0.2-0.2 0.1-0.2-0.1-0.3 0-0.3 0.1-1.7 0.3-0.4 0-0.4-0.1-0.3-0.1-0.6-0.4-0.2-0.2-0.1-0.3-0.1-0.6-0.1-0.3 0.1-0.3 0-0.3 0-0.3 0-0.3-0.2-0.5-0.2-0.3-0.3-0.3-1-0.4-0.4-0.1-0.9 0-0.3 1 0.2 1.5-0.4 2.7-0.2 0.3-0.4 0.5-0.1 5.2-0.3 1.5-4.9 2.9-2.5 2.1-1.6 1.9-1.1 1.7-0.7 1.7-0.1 0.5 0 0.2 0 0.2 0.1 0.4 0.2 0.4 0.7 1.1 0.4 1 0 1.5-1.2 2.4-1.6 2.1-1.2 1 0 0.1 0-0.1 0-0.6 0.1-0.8 0-0.2 0.2-0.2 0.1-0.2 0-0.2-0.1-0.1 0-0.2-0.1-0.1-0.6-1.1-0.1-0.2-0.1-0.3-0.2-0.2-0.3-0.3-1.2-0.7-2-1.4-0.6-0.3-0.4-0.2-0.6-0.1-0.1 0-0.2-0.1-0.1-0.2-0.3-0.8-1-1.4 0.3-1.1 0-0.3-0.1-0.5-0.6-1.2-0.3-0.4-0.4-0.2-0.3 0-0.3 0.1-0.2 0-0.5-0.1-0.3 0-0.2 0-0.5-0.2-0.5-0.2-0.3-0.1-0.8-0.5-0.2-0.3-0.1-0.3 0.1-0.3 0.1-0.2 0.2-0.2 0.3-0.2 0.3-0.1 0.2 0 0.3 0 0.3-0.1 0.2-0.2 0.6-0.2 0.2-0.1 0.3-0.3 0.1-0.4 0.2-0.4 0.2-0.2 0.7-0.3 0.2-0.3 0.3-0.5 0-0.4-0.1-0.3-0.2-0.3-0.2-0.2-0.2-0.2-0.3-0.2-0.3-0.2-0.6-0.4-0.6-1-1.8-2.2-0.3-0.5-0.6-1.3-0.3-0.4-0.2-0.2-0.4-0.2-0.6-0.1-0.2 0-0.3 0.1-0.9 0.3-0.2 0-0.3-0.1-0.6-0.2-0.2-0.2-0.2-0.2 0-0.1 0-0.2 0.1-0.2 0.1-0.4 0-0.1-0.2-0.9-2.4-3.1-0.9-1.8-0.1-0.3 0-0.4 0.1-0.2 0.1-0.1 0.2 0 0.2 0 0.1 0.1 0.2 0.1 0.1 0 0.3-0.3 0.2-0.1 0.2-0.1 0.2 0.1 0.2 0.1 0.3 0.2 0.2 0 0.3 0 0.4-0.3 0.2-0.3 0.2-0.3 0.2-0.4 0.2-0.3 0.4-0.4 0.1-0.3 0.1-0.2 0-0.2-0.1-0.1-0.1-0.2-0.1-0.1-0.1 0-0.4-0.2-0.1-0.1 0-0.2 0-0.5-0.1-0.4-0.1-0.4-0.1-0.3 0-0.2 0.1-0.2 0.1-0.1 0.1-0.1 0.9-0.5 0.3-0.3 0.1-0.2 0.4-0.6 0.1-0.1 0.2-0.2 0.4-0.2 1.2-1.1 0.4-0.5 0-0.4 0-0.2 0-0.2-0.2-0.3-0.3-0.5-1.6-4 0-0.1-0.1-0.2-0.2-0.3-0.3-1.1-0.5-2.3 0-0.4 0.1-0.8 0.1-0.7 0.1-0.2 0.1-0.2 0.1-0.1 0.2-0.2 0.2-0.2 0.1-0.2 0-0.3 0-0.2-0.3-0.7 0.2-0.4 1.6-0.1 0.3-0.1 0.4-0.2 0.1-0.2 0-0.2 0-0.2-0.1-0.8-0.1-0.4 0.1-1.2 0-0.3 0-0.2-0.1-0.2-0.1-0.1-0.1 0-0.4 0.2-0.2 0-0.2-0.2-0.1-0.3-0.2-0.1-0.1-0.1-0.2 0-0.2-0.1-0.1-0.1-0.1-0.1-0.1-0.2-0.2-0.6-0.6-1.1-0.1-0.1-0.1-0.1-0.1-0.1-0.5-0.3-0.2-0.2-0.2-0.4 0-0.3 0-0.2 0.1-0.2 0.2-0.6-0.2-1.1 1.2-1 0.3-0.2 0-0.1 0.2-0.5 0.3-0.2 0.2-0.1 0.3-0.1 0.4 0 0.8 0.1 1.4-0.1 0.2-1-0.1-1.2 0.2-0.4 0.3-0.3 0.2-0.3 0.1-0.2 0-0.3-0.1-0.2-0.1-0.4-0.2-0.3-0.6-0.8-0.1-0.1-0.1 0-0.2-0.1-0.2 0-0.1 0-0.2 0-0.2 0.1-0.2-0.2-0.4-0.2-0.5-0.8-0.4-0.3-0.2-0.1-0.1 0-0.3 0.3-0.4 0.4-0.1 0.1-0.2 0-0.2 0-0.4-0.2-1.7-1.3-0.4-0.1-0.1 0.1-0.5 0.2-0.2 0-0.2 0-0.3 0-0.8-0.4-0.4-0.1-2-1-1.3-0.4-0.8-0.2-0.9-0.3-0.4-0.3-1.5-1.3-0.2-2.6 0.1-0.6 0.1-0.1 0.2-0.2 0.1-0.2 0.3-0.4 0-0.3 0-0.2-0.3-1.3 0.1-0.3 0.1-0.2 0.6-0.6 1.2-0.6 1-0.2 0.3 0 0.1 0.1 0.2 0.1 0.7 0.1 0.6-0.1 0.3 0 0.3 0 0.7 0.1 0.2 0 0.2-0.1 0.2-0.2 0.1-0.2 0-0.2-0.1-0.1-0.1-0.2 0-0.1-0.1-0.4-0.1-0.2-0.2-0.4-0.2-0.6-0.3-0.6-0.3-0.4-0.3-0.2-0.1-0.3-0.1-0.1-0.7-3.4-0.2-0.6 0-0.7-0.1-0.1 0-0.2-0.1-0.1-0.1-0.2-0.1-0.2 0-0.5-0.6-2.9-0.1-1.4 2-1.2 0.3-0.5-0.4-0.5 0-0.3 0-0.4 0.3-0.7 0.2-0.2 0.2-0.2 1.4-0.1 2.4-0.5 0.5 0 0.2 0.1 0.8-0.1 3.3-1.8 0.5-0.1 0.1 0.1 0.3 0 0.3 0 0.7-0.2 0.3-0.1 0.2-0.2 0.1-0.1 0.1-0.1 1.5-1.2 0.2-0.2 0.1-0.2 0.1-0.4 0.1-0.1 0.1-0.2 0.4-0.2 1-1.3 0.2-0.4 0.5-0.5 0.6-0.4 0.4-0.4 0.3-0.2 0.2 0 0.2 0 0.1 0.1 0.1 0.1 0.1 0.2 0.5 0 2.3-0.9 0.6-0.8 0.2-0.4 0.2-0.2 0.2 0 0.2 0.1 0.4 0.3 0.3 0.3 0.2 0.2 0.1 0.1 0.3 0.1 1.1 0.2 0.3 0 0.3-0.1 0.1-0.1 0-0.2 0.1-0.2 0-0.7-0.1-0.4-0.1-0.2 0-0.2-0.2-0.2-0.1-0.2-0.1-0.1 0-0.3 0.1-0.3-0.1-0.3 0-0.2-0.1-0.3-0.1-0.1-0.2-0.1-0.1-0.1-0.5-0.2-0.1-0.1-0.1-0.2 0-0.3 0.1-0.7 0-0.3-0.1-0.3-0.1-0.5-0.1-0.1-1.3-1.6-0.1-0.2-0.2-0.5-0.6-1.4-0.2-0.2-1.1-1.3-0.2-0.3-0.1-0.2-0.4-1.4-0.3-2.2-0.5-0.6-0.5-0.4-0.2 0-0.6-0.2-1.2 0-0.2 0-0.8-0.2-1.5-0.8-1.8-0.6-0.7-0.1-1.2-0.8-2.3-0.7-0.5-0.3-0.2-0.2-0.1-0.2 0-0.2 0-0.2 0.2-0.6 0-0.1 0-1-0.1-0.5 0-0.1-0.7-1.8-0.5-0.6-0.7-0.6-0.2-1.9-0.1-0.3-0.2-0.4-0.2-0.3-0.4-0.6-0.3-0.3-0.2-0.2-0.2 0-0.4 0-0.6 0-1.7-0.2-0.5-0.1-0.1-0.1-0.2-0.2-0.2-1 0.4-1.3 0-1.4 0.1-0.5 0.2-0.7 0.1-0.3 0-0.2-0.4-0.9-0.1-0.2-0.1-0.1-0.1-0.1-0.2 0-0.2 0-0.2-0.1-0.2-0.2-0.3-0.4 0-0.4 0.1-1-0.1-0.4 0-0.3-0.2-0.3-1.5-1.9-0.4-0.5-0.4-0.9-0.1-0.3 0-0.2 0-1.8 0-0.2-0.1 0-0.3 0.1-0.2 0.1-0.2-0.1-0.1-0.2 0-0.8-0.1-0.3-0.6-1.1 1.8-1.1 1.1-0.9 0.3 0 0.3-0.1 0.4 0.2 0.7 0.2 1.7 0.1 0.5 0 0.3-0.1 0.2-0.2 0.6-0.3 0.4 0 0.5-0.2 0.3-0.2 0.2-0.1 0.2 0.1 0.1 0.1 0.4 0.3 0.4 0.2 1.8-0.1 0.6-0.2 0.2-0.1 1.2-0.7 1-0.6 0.4-0.2 0.2 0 1.3 0.1 1 0.4 0.3 0 0.2-0.1 0.5-0.4 0.3 0 0.3 0 0.2-0.1 0.8-0.8 0.2-0.2 0.1-0.8 0-0.2 0.1-0.3 0.2-0.3 0.1-0.1 0.3-0.6 0.1-0.1 0.6-0.8 0.3-0.4 0.1-0.2 0.4-0.4 0.2-0.2 0.1-0.2 0-0.1-0.1-0.4 0-0.2-0.1-0.2-0.3-0.2-1.3-0.7-0.8-0.1-1.4-0.1-0.4 0-0.4-0.2-1.2-0.8-0.2-0.2 0-0.1 0.1-0.2 0.1-0.1 0-0.2 0-0.4 0-0.1 0-0.2 0.1-0.2 0-0.1 0-0.3-0.2 0-0.1 0-0.3 0.2-0.1 0.1-0.3 0.1-0.3 0-0.3-0.1-0.1-0.1-0.2-0.2-0.3-0.3-0.6-0.5-0.4-0.2-0.2-0.1-0.2 0-0.6 0.3 0 0.1-0.4 0.5-0.1 0.1-0.1 0.1-0.2 0-0.8 0-0.2 0-0.7 0.3-0.2 0-0.6 0-3.5 0.7-3.9-0.3-2.2-1.3-0.4-0.6 0-0.1 0.1-0.2 0.1-0.1 0-0.3-0.1-0.4-0.4-0.8-0.3-0.4-1-1-0.3-0.4-0.1-0.4-0.1-0.7 0-0.2 0-0.2 0.1-0.1 0.1-0.1 0.4-0.3 0.1-0.1 0.1-0.2 0.1-0.4 0-0.1 0.1-0.2 0.3-0.3 0.2-0.3 0.1-0.2 0-0.1 0-0.4 0-0.3 0-0.2 0.1-1.1 0-1 0.1-0.7 0.3-0.6 0-0.3 0-0.2-0.1-0.1-0.2-0.2-0.2-0.3-0.2-0.6 0-0.3 0-0.3 0.2-0.1 0.1-0.1 0.2 0 0.2 0 0.1 0.1 0.2 0 0.2 0.3 0.1 0.1 0.2 0.1 0.1 0 0.2-0.1 0.2-0.1 0.2-0.2 0.1-0.2-0.1-0.2 0-0.2-0.1-0.4 0-0.2 0.2-0.2 0.4-0.7 0.1-0.1 0.2-0.1 0.4-0.3 0.9-1 0.2-0.1 0.4-0.1 0.3-0.1 0.1-0.1 0.1-0.2-0.1-0.2-0.2-0.4-0.1-0.2 0-0.7 0-0.3 0.2-0.2 0.6-0.4 0.1-0.3 0.1-0.2 0-0.8 0.8-0.5 1.3-1.5 0.7-0.6 0.6-0.7 0.9-1.3 0.2-0.5 0.1-0.4 0.1-0.3 0.3-0.7 0.1-0.3 0-0.4 0-0.4 0.1-0.2 0.2-0.5 0-0.3 0-0.4 1.1-1.5 0.5-0.4 0.8-0.3 0.2-0.2 0.2-0.2 0.9-1.7 0.2-0.5 1.4-2.7 0.2-0.5 0-0.4-0.1-0.4-0.1-0.3-0.1-0.2-0.2-0.2-0.6-0.7-0.2-0.2-0.1-0.3-0.3-1.1 0-0.3-0.4-0.7-0.1-0.3-0.1-2.6-0.1-0.4-0.3-0.3-0.1-0.1-0.1-0.1-0.2-0.1-0.3-0.1-0.3 0-0.3 0-0.3 0-0.5 0.2-0.2 0.1-0.6 0.5-0.5 0.8-0.4 0.5-0.3 0-0.5-0.1-0.5-0.8-0.1-0.6 0.1-0.7 0.5-0.6 0.7-0.6 8-3.7 1.9-0.5 1.9-0.3z" id="MM17" name="Shan">
  </path>
  <path d="M507.5 506.9l0-0.1 1.2-1 1.6-2.1 1.2-2.4 0-1.5-0.4-1-0.7-1.1-0.2-0.4-0.1-0.4 0-0.2 0-0.2 0.1-0.5 0.7-1.7 1.1-1.7 1.6-1.9 2.5-2.1 4.9-2.9 0.3-1.5 0.1-5.2 0.4-0.5 0.2-0.3 0.4-2.7-0.2-1.5 0.3-1 0.9 0 0.4 0.1 1 0.4 0.3 0.3 0.2 0.3 0.2 0.5 0 0.3 0 0.3 0 0.3-0.1 0.3 0.1 0.3 0.1 0.6 0.1 0.3 0.2 0.2 0.6 0.4 0.3 0.1 0.4 0.1 0.4 0 1.7-0.3 0.3-0.1 0.3 0 0.2 0.1 0.2-0.1 0.2-0.2 0.3-0.6 0.2-0.7 0.6-0.8 1.1-0.3 0.1 0.6 2.4 2.8 0.6 0.1 0.5 0 0.3-0.1 0.3-0.1 0.3-0.2 0.2-0.2 0.2-0.2 0.1-0.1 0.2-0.1 0.1 0 0.2-0.1 0.3 0.2 0.2 0.3 0.7 1.5 0.7 0.9 0.3 0.2 0.3 0.2 0.5 0 0.2 0.1 0.1 0.3 0 0.4-0.1 0.3-0.7 1.9-0.2 0.7-0.1 0.5 0 0.3 0.1 0.2 0.2 0.3 0.6 0.3 0.4 0.3 0.3 0.4 0.5 0.9 0.2 0.3 0.6 0.3 1.2 0.2 3.4 0.9 0.5 0 0.3-0.1 0.2-0.3 0.2-0.2 0.3 0 0.4 0.1 0.4 0.2 0.9 0.5 0.6 0.2 0.4 0 0.3-0.1 0.3 0.1 0.4 0.1 0.3 0.2 0.3 0.4 0.2 0.5 0 0.7 0.5 1.9-0.9 0.1-0.4 0.6 0 0.9 0.1 1 0.1 0.6 0.2 0.2 0 0.3-0.3 0.7-0.4 0.5-1.5 1.4-1.5 2 0 0.4 0.4 0.9 0 0.5 0.3 1.2 0.6 0.9 0.5 0.8-0.4 1-0.4 0.1-0.6 0-0.4 0.1-0.2 0.5 0.3 0.4 1.2 1 0.4 0.5 0.4 0.9 0.1 0.8-0.2 3.8-0.3 0.7-0.7 0.7-2.8 2.2-0.5 0.9-0.3 1.9-0.3 0.7-0.7 0.7-0.9 0.7-0.5 0.5 0.2 0.6 1 1 1.1 0.8 0.5 0.5 0.2 0.7-0.2 1.2 0.1 0.4 0.5 1.8 0.2 0.9 0 1 0.2 1.8 0.5 1.9 0.3 2-0.3 1.9-0.3 0.6-0.1 0.1-0.2-0.1-2.2 0.6-2.4-0.1-0.9 0.3-3.2 2.1-1.8 0.9-2.1-0.1-1.1 0.3-0.5-0.1-0.5-0.3-0.2-0.4-0.1-0.4-0.9-1.4-0.4-0.3-0.4-0.1-0.6-1.6-0.5-2-0.1-0.1-0.1-0.3-0.4-0.5-0.2-0.4-0.3-0.7-0.2-0.4-0.2-0.2-0.2-0.1-0.5-0.1-4 0.1-1.6-0.2-1.4-0.3-0.2 0-0.5 0.1-0.2 0-0.2 0-0.3-0.5-2.7-5.2-0.1-0.9-1-1.7-0.5-0.4-0.2-0.1-0.1 0-0.1-0.1-0.1-0.2 0-0.2 0.1-0.6 0.1-0.3 0-0.2-0.1-0.3-0.6-0.7-0.3-0.3-0.4-0.4-0.4-0.7-0.3-1-0.2-0.5 0-0.9 0-0.3-0.2-0.9-0.2-1.2 0.1-0.5 0-0.2-0.1-0.3-0.3-0.3-0.2-0.3-0.1-0.3-0.2-0.6-0.3-0.6-0.7-1.1-0.4-0.4-0.4-0.2-0.2 0-0.1 0-0.2-0.1-0.3-0.3-0.2-0.1-0.4-0.2-0.2-0.2-0.1-0.5-0.1-1-0.4-1-0.1-0.2-0.4-1-0.1-0.5 0.1-1.4z" id="MM12" name="Kayah">
  </path>
  <path d="M499.9 496.9l1 1.4 0.3 0.8 0.1 0.2 0.2 0.1 0.1 0 0.6 0.1 0.4 0.2 0.6 0.3 2 1.4 1.2 0.7 0.3 0.3 0.2 0.2 0.1 0.3 0.1 0.2 0.6 1.1 0.1 0.1 0 0.2 0.1 0.1 0 0.2-0.1 0.2-0.2 0.2 0 0.2-0.1 0.8 0 0.6 0 0.1-0.1 1.4 0.1 0.5 0.4 1 0.1 0.2 0.4 1 0.1 1 0.1 0.5 0.2 0.2 0.4 0.2 0.2 0.1 0.3 0.3 0.2 0.1 0.1 0 0.2 0 0.4 0.2 0.4 0.4 0.7 1.1 0.3 0.6 0.2 0.6 0.1 0.3 0.2 0.3 0.3 0.3 0.1 0.3 0 0.2-0.1 0.5 0.2 1.2 0.2 0.9 0 0.3 0 0.9 0.2 0.5 0.3 1 0.4 0.7 0.4 0.4 0.3 0.3 0.6 0.7 0.1 0.3 0 0.2-0.1 0.3-0.1 0.6 0 0.2 0.1 0.2 0.1 0.1 0.1 0 0.2 0.1 0.5 0.4 1 1.7 0.1 0.9 2.7 5.2 0.3 0.5 0.2 0 0.2 0 0.5-0.1 0.2 0 1.4 0.3 1.6 0.2 4-0.1 0.5 0.1 0.2 0.1 0.2 0.2 0.2 0.4 0.3 0.7 0.2 0.4 0.4 0.5 0.1 0.3 0.1 0.1 0.5 2 0.6 1.6-1-0.1 0.3 0.6 1 0.9 0.5 0.9 0.2 0.7 1.1 2.2 1.1 1.8 0.2 1.1 0 1.1 0.3 1.2 0.6 1 0.9 1 1 0.7 0.9 0.6 0.4-0.4 0.2-0.4 0.9-2.3 0.1-0.1 0.5-0.1 2.3 0.9 0.6 0.4 0.3 0.7-0.1 0.9-0.3 0.7-0.7 0.3-0.1 0.5 0.5 1 2.3 3.3 0.2 0.3 0.1 0.3 0 0.4 0.1 0.5 0.4 0.9 0.1 0.5-0.1 0.3-0.2 0.5 0 0.2 0.1 0.4 0.1 0.1 0.2-0.1 0.2 0.1 0.6 0.3 0.1 0.2 0.2 0.6 0.6 1.6 0.2 0.3 0.2 0.2 0.2 0.6 0.1 0.6-0.2 0.2-0.1 0.1-1.3 0.9-1.2 2.3-0.3 0.7 0.6 2.3-1.1 0.1 0.4 0.7 0.6 0.4 0.4 0.6 0.2 0.6 0.3 0.6 1.1 0.9 0.4 0.5 0.1 0.5 0 0.6 0 0.6 0.3 0.6 0.5 0.6 6.3 6 1.2 1.1 0.7 0.4 1 0.5 0.5 0.3 0.4 0.5 0.2 0.7 1 1.6 0.5 1.4 0.3 0.6 0.6 0.7 0.6 0.3 0.7 0.2 0.5 0.4 0.3 0.6 0 0.6-0.2 1 0.1 0.7 0.4 0.4 3.9 3.8 0.7 0.4 0.9 0.7 1.6 2.3 1 0.7-0.4 0.5-0.2 0.5 0.1 0.4 1.2 0 0.1 0.4-0.3 0.4-0.2 0.2 0.6 1.1 0.7 0.6 0.8 0.2 2.2 0.1 0.9 0.2 0.8 0.6 0.9 0.8 0.4 0.7 0.8 1.6 0.5 0.6 0.3 0.6 0 0.8 0.2 0.7 0.7 0.4 0.4 0.3 0.3 0.6 0.4 1.4-0.6-0.5-0.5-0.1-0.4 0.2-0.1 0.7 0.2 0.6 0.4 0.2 0.5 0.2 0.3 0.4-0.1 0.5-0.6 0.6-0.7 0.5-0.7 0.2-0.5 0.8-0.4 0.9 0.1 0.8 1.4 1.1 0.2 0.5 0.3 1.3 0.6 0.9 1.6 1.1 0.7 0.9 0.2 0.5 0.1 0.4-0.1 0.5-0.1 0.5 0 0.5 0.3 0.5 2.8 3.7 0.3 0.8 0 0.5-0.5 1 0.1 0.6 0.6 1.3 0.6 3.5 0.3 0.7 0.9 0.6 0.7-0.6 1.4-2 2.7-2.2 0.6-1.1 0.4-2 0.4-0.8 0.9-0.8 0.2 1.7 0.9 0.8 1 0.7 0.8 1.2 0.1 0.8-0.5 2.1-0.2 2.1-0.2 0.8-1.3 1.5-0.6 0.9-0.3 0.9-0.1 1 0.1 1.1-0.3 0.4-1 1.2-0.4 0.3-0.7 0.1-0.3-0.2-0.3-0.3-0.5-0.3-2.8-0.4-0.8 0.1-1 0.5-0.4 0.7-0.3 1-0.6 0.9-0.5 0.4-0.3 0.2-0.4 0.1-0.6 0-0.5-0.1-0.5-0.3-0.6-0.1-0.4 0.4 0.2 0.6 1.2 1.8 0.3 1-0.1 0.8-0.6 1.8 0 1.2 0.4 2-0.1 0.8-1.5 4.8-0.1 1.1 0.2 1.8 0.1 0.7-0.1 2.7 1 7.1 0.1 2.4-0.4 2.2-1.2 1.4-0.1-1.1-0.7-0.7-1-0.5-0.9-0.5-0.9 0.5-0.7 0.3-1.6 0.3-0.3 0.3-0.1 0.3 0.2 0.8 0 0.5-0.3 0.2-0.4 0.2 0 0.1-0.1 0.2-0.1 0.2-0.1 0.3 0.1 0.1 0.3 0.1 0.3 0.3 0.1 0.2 0 0.7-0.1 0.4-0.4 0.1-0.6-0.3-1.6-1-0.8-0.3-1.1-0.2-0.5 0.2-1.6 2.3-0.7 0.6-0.8 0.4-0.3 0-0.1-0.4 0.1-1-0.1-0.6-0.4-1.2-0.4-0.7-0.2-0.2-0.9-0.6-0.1-0.1-0.3-0.3-0.4-0.4-0.9-1.1-0.4-0.8-0.3-0.8-0.7-1.2-0.3-0.2-0.5-0.3-0.1-0.3-1.6-3.2-0.1-0.2-0.7-0.7-0.4-0.5-0.3-0.4-0.4-0.9-0.1-0.2-0.1-0.2-0.1-0.1-0.5-0.4-0.5-0.4-0.8-0.7-0.1-0.2-0.1-0.2 0-0.7 0-0.3-0.1-0.2-0.1-0.2-0.1-0.1-0.1 0-0.4-0.2-0.2 0-1-0.9-1.3-0.4-0.3-0.5-0.1-0.3 0-0.3 0.1-0.2 0.1-0.3 0-0.3 0.1-0.2 0.1-0.1 0.3-0.2 0.1-0.2 0.1-0.2-0.1-0.2-0.1-0.2-0.3-0.5-0.1-0.3 0-0.5 0-0.3-0.1-0.2-0.4-0.5 0-0.3 0.1-0.3 0-0.2-0.1-0.3-0.6-1.3-0.4-0.7-0.1-0.4-0.2-1.6 0-0.8 0.1-0.1 0.1-0.3 0-0.4-0.1-1.5 0-0.2 0.1-0.2 0.1-0.1 0.1-0.1 0-0.1 0.1-0.2 0-0.3 0-0.6 0.1-0.2 0-0.1 0.1-0.1 0.1-0.2 0.1-0.1 0.1-0.2 0.2-0.2 0.1-0.5 0-0.2 0-0.3-0.1-0.1-0.4-0.6-0.2-0.9-0.1-0.3-1-1.5-0.1-0.4 0.1-0.4 1.9-0.3 2.5 0 0.4 0 0.2-0.2 1.4-0.3 1.9-0.1 0.3 0.1 0.9 0.6 0.1 0.1 0.2 0.1 0.4 0 0.1 0.1 0.4 0.2 0.5 0.2 0.2 0 0.2-0.1 0.2-0.2 0.1-0.3 0.1-0.2 0.2-0.1 0.1-0.1 0.4-0.1 0.2-0.1 0.6-0.4 0.5-0.3 0.2-0.2 0-0.2 0-0.9-0.1-0.1 0-0.1-0.1-0.1-0.6-0.5-0.7-0.6-0.1-0.2-0.1-0.1-0.1-0.3-0.1-0.1-0.1-0.1-0.1-0.1-0.2-0.1-0.1-0.1 0-0.2 0.1-0.3 0-0.3 0-0.2-0.1-0.3-0.1-0.2 0-0.1-0.1-0.2-0.1-0.1-0.1-0.1-0.3-0.1-0.2-0.1-0.1-0.1-0.6-0.9-0.4-0.5-0.1-0.1-0.5-0.2-0.3-0.1-0.2 0-0.1-0.1-0.2-0.1-0.1-0.1-0.1-0.1 0-0.2-0.1-0.3-0.2-1.7-0.3-1-0.1-0.5-0.1-0.3-0.1-0.2-0.1 0-0.1 0-0.4 0.2-0.2 0-0.2 0.1-1.2-0.1-0.3-0.1-0.2-0.1-0.1 0-0.2-0.1-0.1-0.1-0.1-0.2 0-0.1-0.3-0.8-0.1-0.2-0.1-0.2-0.1-0.1-0.3-0.3-0.2-0.1-0.2-0.1-0.8-0.3-0.2 0-0.1-0.1-0.1-0.1-0.1-0.2 0-0.3-0.2-0.2-0.1-0.6 0.2-1-0.5-0.2-1.8 0.8-0.5 0.2-0.4 0-0.1-0.1-1.5-1.5-0.4-0.4-0.3-0.3-0.2-0.3-0.4-0.2-0.4-0.2-0.4 0.3-0.1-1-0.1-0.2-0.2-0.1-0.1 0-0.1 0-0.5 0.1-0.2 0.1-0.2 0-0.5-0.1-0.2-0.2-0.2-0.2-0.6-0.8 0-0.2 0.1-0.2 0-0.2-0.1-0.4-0.1-0.2-0.2-0.1-0.8-0.3-0.9-1-1.4-1.9-0.3-0.4 0-0.3-0.1-0.8-0.1-0.7 0.1-0.5-0.1-0.7-0.7-1-0.1-0.2 0-0.3 0-0.2 0-0.4 0-0.2-0.1-0.1-0.5-0.4-0.3-0.3-0.2-0.4-0.2-0.3-0.4-0.4-0.1-0.3 0-0.2 0.1-0.3 0.1-0.2-0.1-1 0.1-0.6 0-0.3 0-0.2-0.1-0.1-0.9-1.2-0.1-0.2-0.1-0.2-0.2-1.6 0-0.4 0.1-0.3 0.2 0 0.1 0 0.2 0 0.1 0 0.2-0.1 0.1-0.2 0.1-0.2 0-0.4 0-0.3-0.1-0.2-0.2-0.3 0-0.3 0-0.1 0.1-0.1 0.3-0.2 0.2-0.1 0.1-0.1 0.1-0.3 0.1-0.2 0.1-0.2 0.1-0.1 0.1-0.1 0.2-0.1 0.2-0.1 0.3-0.6 0.1-0.3 0-0.2 0-0.2-0.3-0.4-0.7-2.1 0.6-0.8 0-0.4-0.1-0.5-0.2-0.6-0.1-0.2-0.4-1.2 0-0.3 0-0.3 0.1-0.1 0.3-0.2 0.2-0.2 0.2-0.4 0-0.3-0.1-0.3-0.4-0.8-0.1-0.2-0.1-0.1-0.1-0.1-0.2-0.3-0.1-0.1-0.2-0.2-0.5-1.1-0.2-0.2-0.1-0.1-0.1-0.3-0.5-1.6-0.2-1-0.2-0.6-0.1-0.3-0.2-0.3-0.1-0.2 0-0.2 0.6-2.7 0-0.2-0.1-0.2-0.1-0.1-0.3-0.3-0.3-0.2-0.5-0.2-0.1-0.1-0.5-0.4-0.2-0.2-0.1-0.3-1.1-2.6-0.1-0.3 0-0.3 0-0.2 0.4-1 0.1-0.2 1-0.8 0.3-0.4 0-0.2 0-0.2-0.1-0.2-0.1-0.2-0.1-0.1-0.1 0.1-0.1 0.1-0.2 0.2-0.1 0.1-0.1 0-0.2 0-0.1-0.1-0.2-0.1-0.1 0-0.2 0-0.2 0-0.2 0.2 0 0.1-0.1 0.2 0 0.2 0.1 0.5 0 0.2-0.1 0.1-0.4 0.2-0.2 0.2-0.2 0.2-0.6 1.1 0 0.2-0.1 0.2 0 0.2 0 0.2 0 0.2-0.1 0.3-0.4 0.8-0.2 0.2-0.2 0-1.1-0.4-0.2-0.1-0.2 0-0.2 0.1-0.7 0.8-0.4 0.2-0.3 0.2-0.1 0.2 0 0.1-0.1 0.2 0 0.5 0 0.2-0.2 0.1-0.1 0.1-0.4-0.1-1-0.7 0-0.5 0.1-0.3 0.1-0.2 0.1-1.9-1.5-3.9-0.3-1-0.1-0.7 0.2-0.3 0.5-0.8 0.2-0.2 0.2-0.9 0.1-1.1 0-0.6-0.2-0.4-0.2-0.1-0.3-0.2-0.2-0.1-0.2-0.4 0-0.4-0.1-0.4-0.1-0.3-1.9-4.2-0.1-0.5 0-0.3 0.2-0.6 0.2-0.3 0.1-0.2 0.4-0.4 0.2-0.2 0.1-0.2 0.2-0.6 0.2-0.3 0.2-0.2 0.2-0.2 0.5-1.3 0.1-0.3 0.1-1.2 0-0.2 0.1-0.3 0.4-0.7 0.2-0.6 0-0.5-0.1-0.3-0.2-0.3-0.2-0.2-1.8-1.3-0.7-0.8 0-0.8 0.1-0.6 0-1.2-0.2-0.9-0.4-1.2-0.3-0.5-0.3-0.2-0.3 0.1-0.3 0.2-0.2 0.2-0.1 0.2-0.1 0.5-0.2 0.2-0.3 0-0.5-0.2-0.2-0.2-0.2-0.3 0-0.3 0.1-0.7 0-0.4-0.2-0.3-0.7-0.6-0.2-0.2-0.3-0.2-0.8-0.3-0.5-0.3-0.3-0.4-0.4-0.5-0.6-1.2-0.3-0.6 0-0.5 0.3-0.6 0.1-0.3 0.1-0.3 0-0.5 0-0.2 0-0.3 0.4-1.6-0.1-1-0.2-1.1-0.1-0.4 0.1-0.4-0.1-0.4-0.1-0.5-0.2-0.4-0.3-0.2-0.5-0.4-0.1-0.3-0.1-0.4-0.1-0.3-0.3-0.2-0.2-0.1-0.4 0-2.2 0.7-2.3 1.3-0.5 0.2-0.4 0-0.7-0.3-0.7-0.1-0.5-0.1-0.4-0.1-0.6-0.4-0.4-0.2-0.3 0-0.3 0.1-0.3 0.3-0.3 0.2-0.5 0.4-0.3-0.1-0.3-0.1-0.2-0.3-0.1-0.7-0.2-0.2-0.8-1-0.3-0.7-0.5-1.6-1.3-2.2 0.1-0.8 1.2-1.4-0.1-0.7-0.7-0.9-0.4-0.8-0.1-0.7 0.2-0.5 0.3-0.4 0.6-0.4 1.8-1.2 0.3-0.6-0.1-0.2-0.2-0.3-0.4-0.3-0.2-0.3-0.2-0.6-0.2-0.3-0.2-0.3-1.4-1.2-1.5-1.1-1.7-1.7-1-1.3-0.2-0.5-0.2-0.5-0.1-0.3-0.1-0.5-0.1-0.2-0.4-0.2-0.2-0.7 0.1-0.1 0.1-0.2 0.6-0.4 0.9-0.9 0-0.3-0.1-0.3-0.3-0.2-0.3-0.1-0.2-0.2-0.2-0.5-0.3-1.1-0.2-0.5-0.2-0.4-0.1-0.1-0.2-0.3-0.3-0.4-0.2-0.8-0.3-0.4-0.3-0.4-0.3-0.3 0-0.3 0.2-0.8 0-0.9-0.1-0.5-0.2-0.3-0.2-0.2-0.5-0.4-0.3-0.3-0.3-0.3-0.3-0.7-0.1-0.3 0-0.4 0.1-0.3 0-0.5 0-0.3-0.3-0.4-0.2-0.2-0.7-1 4.9-0.4 0.9 0.1 0.9 0.4 1 0.2 0.8 0.2 0.1 0.2 0 0.1-0.1 0.2 0 0.1-0.1 0.2 0.1 0.2 0.2 0.3 0.2 0.1 0.1 0 0.4-0.3 0.1-0.1 0.5-0.1 0.6-0.3 0.2-0.1 0.1-0.1 0.1-0.3 0.1-0.1 0.4-0.5 0.5-0.4 0.1-0.1 0.2-0.3 0.2-0.4z" id="MM13" name="Kayin">
  </path>
  <path d="M548.6 637.6l0.4 0.4 1.5 1.5 0.1 0.1 0.4 0 0.5-0.2 1.8-0.8 0.5 0.2-0.2 1 0.1 0.6 0.2 0.2 0 0.3 0.1 0.2 0.1 0.1 0.1 0.1 0.2 0 0.8 0.3 0.2 0.1 0.2 0.1 0.3 0.3 0.1 0.1 0.1 0.2 0.1 0.2 0.3 0.8 0 0.1 0.1 0.2 0.1 0.1 0.2 0.1 0.1 0 0.2 0.1 0.3 0.1 1.2 0.1 0.2-0.1 0.2 0 0.4-0.2 0.1 0 0.1 0 0.1 0.2 0.1 0.3 0.1 0.5 0.3 1 0.2 1.7 0.1 0.3 0 0.2 0.1 0.1 0.1 0.1 0.2 0.1 0.1 0.1 0.2 0 0.3 0.1 0.5 0.2 0.1 0.1 0.4 0.5 0.6 0.9 0.1 0.1 0.2 0.1 0.3 0.1 0.1 0.1 0.1 0.1 0.1 0.2 0 0.1 0.1 0.2 0.1 0.3 0 0.2 0 0.3-0.1 0.3 0 0.2 0.1 0.1 0.2 0.1 0.1 0.1 0.1 0.1 0.1 0.1 0.1 0.3 0.1 0.1 0.1 0.2 0.7 0.6 0.6 0.5 0.1 0.1 0 0.1 0.1 0.1 0 0.9 0 0.2-0.2 0.2-0.5 0.3-0.6 0.4-0.2 0.1-0.4 0.1-0.1 0.1-0.2 0.1-0.1 0.2-0.1 0.3-0.2 0.2-0.2 0.1-0.2 0-0.5-0.2-0.4-0.2-0.1-0.1-0.4 0-0.2-0.1-0.1-0.1-0.9-0.6-0.3-0.1-1.9 0.1-1.4 0.3-0.2 0.2-0.4 0-2.5 0-1.9 0.3-0.1 0.4 0.1 0.4 1 1.5 0.1 0.3 0.2 0.9 0.4 0.6 0.1 0.1 0 0.3 0 0.2-0.1 0.5-0.2 0.2-0.1 0.2-0.1 0.1-0.1 0.2-0.1 0.1 0 0.1-0.1 0.2 0 0.6 0 0.3-0.1 0.2 0 0.1-0.1 0.1-0.1 0.1-0.1 0.2 0 0.2 0.1 1.5 0 0.4-0.1 0.3-0.1 0.1 0 0.8 0.2 1.6 0.1 0.4 0.4 0.7 0.6 1.3 0.1 0.3 0 0.2-0.1 0.3 0 0.3 0.4 0.5 0.1 0.2 0 0.3 0 0.5 0.1 0.3 0.3 0.5 0.1 0.2 0.1 0.2-0.1 0.2-0.1 0.2-0.3 0.2-0.1 0.1-0.1 0.2 0 0.3-0.1 0.3-0.1 0.2 0 0.3 0.1 0.3 0.3 0.5 1.3 0.4 1 0.9 0.2 0 0.4 0.2 0.1 0 0.1 0.1 0.1 0.2 0.1 0.2 0 0.3 0 0.7 0.1 0.2 0.1 0.2 0.8 0.7 0.5 0.4 0.5 0.4 0.1 0.1 0.1 0.2 0.1 0.2 0.4 0.9 0.3 0.4 0.4 0.5 0.7 0.7 0.1 0.2 1.6 3.2 0.1 0.3 0.5 0.3 0.3 0.2 0.7 1.2 0.3 0.8 0.4 0.8 0.9 1.1 0.4 0.4 0.3 0.3 0.1 0.1 0.9 0.6 0.2 0.2 0.4 0.7 0.4 1.2 0.1 0.6-0.1 1 0.1 0.4-1.4-0.1 0 0.6 0.3 0.7 0.3 0.7-0.2 0.9-1 1.6-0.2 0.9 0.4 1.1 1.4 1.5 0.2 1.1-0.1 0.4-0.3 0.4-0.2 0.5 0 0.4-2.5 0-0.8 0-0.5-0.2-0.3-0.1-0.2-0.1-0.4-0.5-0.6-0.6-1.7-3-0.4-0.4-0.4-0.1-0.3 0-1.2 0.5-0.8 0.1-1.6 0.2-0.6 0-0.9 0.1-0.2 0.3-0.2 0.4-0.3 1.7-0.3 1.3-0.4 1.1-0.7 1.5-0.9 1.5-0.7 0.7-1.1 0.8 0 0.1-0.1 0 0.3-0.5 0.1-0.5 0-1.1 0.1-0.5 0.4-0.7 0.1-0.4-0.1-1.2-0.4-0.7-0.6-0.5-0.8-0.4 0.3-0.4 0.3-0.2 0.4-0.1 0.6 0.1-0.2-0.4-0.3-0.6-0.2-0.3 0.6-0.8 0.1-0.9-0.1-3.8 0.2-0.8 0.5-0.8-1.2 0-0.7-0.1-0.5-0.6-1.2-2-0.1-0.5 0-0.7 0-1.3-0.1-0.5-0.6-0.5 0.2-0.4 0.2-0.3 0.3-0.2 0.4-0.1 0.5-1.6 0.3 0.3 0.4-0.2 0.8-0.7-0.3-0.6-1.2-3.3 0-0.7 0.6-1.3-0.3-0.5-1.1-2.9 0-0.3 0.2-0.3 0-0.4-0.1-0.4-0.2-0.3 0.2-0.5-0.1-0.7-0.2-0.7-0.4-0.6-0.2-0.4 0.1-0.4 0.2-0.4 0.1-0.4-0.2-0.3-0.6-0.8-0.2-0.3 0.1-0.3 0.4-0.4 0.1-0.3 0.1-3.1-0.3-0.6-0.7-0.2 0.3-1.3-1-1.2-2.4-1.7-1.3-1.7-1.2-1.2-0.3-0.4 0-0.2-0.3-1.9 0-0.5 0.1-0.3 0.2-0.3 0.4 0 0.7-0.3 0.5-0.7 0.4-0.9 0.8-5.3 0.5-1 0.1-0.6-0.1-0.6-0.1-0.4-0.4-0.9-0.5-1.9-0.2-2.1 0.2-2 0.5-1.9 0.6-1.4 1-1.3 1.4-0.8 1.7-0.4z m-23.1-47l0.4 0.1 0.1-0.1 0.2-0.1 0-0.2 0-0.5 0.1-0.2 0-0.1 0.1-0.2 0.3-0.2 0.4-0.2 0.7-0.8 0.2-0.1 0.2 0 0.2 0.1 1.1 0.4 0.2 0 0.2-0.2 0.4-0.8 0.1-0.3 0-0.2 0-0.2 0-0.2 0.1-0.2 0-0.2 0.6-1.1 0.2-0.2 0.2-0.2 0.4-0.2 0.1-0.1 0-0.2-0.1-0.5 0-0.2 0.1-0.2 0-0.1 0.2-0.2 0.2 0 0.2 0 0.1 0 0.2 0.1 0.1 0.1 0.2 0 0.1 0 0.1-0.1 0.2-0.2 0.1-0.1 0.1-0.1 0.1 0.1 0.1 0.2 0.1 0.2 0 0.2 0 0.2-0.3 0.4-1 0.8-0.1 0.2-0.4 1 0 0.2 0 0.3 0.1 0.3 1.1 2.6 0.1 0.3 0.2 0.2 0.5 0.4 0.1 0.1 0.5 0.2 0.3 0.2 0.3 0.3 0.1 0.1 0.1 0.2 0 0.2-0.6 2.7 0 0.2 0.1 0.2 0.2 0.3 0.1 0.3 0.2 0.6 0.2 1 0.5 1.6 0.1 0.3 0.1 0.1 0.2 0.2 0.5 1.1 0.2 0.2 0.1 0.1 0.2 0.3 0.1 0.1 0.1 0.1 0.1 0.2 0.4 0.8 0.1 0.3 0 0.3-0.2 0.4-0.2 0.2-0.3 0.2-0.1 0.1 0 0.3 0 0.3 0.4 1.2 0.1 0.2 0.2 0.6 0.1 0.5 0 0.4-0.6 0.8 0.7 2.1 0.3 0.4 0 0.2 0 0.2-0.1 0.3-0.3 0.6-0.2 0.1-0.2 0.1-0.1 0.1-0.1 0.1-0.1 0.2-0.1 0.2-0.1 0.3-0.1 0.1-0.2 0.1-0.3 0.2-0.1 0.1 0 0.1 0 0.3 0.2 0.3 0.1 0.2 0 0.3 0 0.4-0.1 0.2-0.1 0.2-0.2 0.1-0.1 0-0.2 0-0.1 0-0.2 0-0.1 0.3 0 0.4 0.2 1.6 0.1 0.2 0.1 0.2 0.9 1.2 0.1 0.1 0 0.2 0 0.3-0.1 0.6 0.1 1-0.1 0.2-0.1 0.3 0 0.2 0.1 0.3 0.4 0.4 0.2 0.3 0.2 0.4 0.3 0.3 0.5 0.4 0.1 0.1 0 0.2 0 0.4 0 0.2 0 0.3 0.1 0.2 0.7 1 0.1 0.7-0.1 0.5 0.1 0.7 0.1 0.8 0 0.3 0.3 0.4 1.4 1.9 0.9 1 0.8 0.3 0.2 0.1 0.1 0.2 0.1 0.4 0 0.2-0.1 0.2 0 0.2 0.6 0.8 0.2 0.2 0.2 0.2 0.5 0.1 0.2 0 0.2-0.1 0.5-0.1 0.1 0 0.1 0 0.2 0.1 0.1 0.2 0.1 1-2.3 1.6-1 0.4-0.8 0.1-3-0.4-1.1 0.1-1.1 0.2-0.3 0.2-0.2 0.2-0.2 0.2-0.4 0.1-0.2-0.1-0.6-0.2-0.3 0-1.3 0-0.9 0.3-0.8 0.7-0.7 0.9-1.5-7 0-1.2-0.3-1.1-0.9 1.3-1.1-0.3-1.4-1.9-0.7-1.6-0.5-1.8 0-1.3 0.7-1-0.4-0.5-0.1-0.5 0-0.5 0.3-1.2-0.3 0-0.4 1-0.2 0.6-0.1 0.7-0.4-0.3-0.2-0.6 0-0.7 0-0.7 0.6-1.3-0.3-0.3-0.4 0.1-0.5 0.2-0.4-0.9 0.1-1.2 0.6-2.4 0-0.8-0.2-0.4-0.7-0.8-0.3-0.4-0.4-0.6-0.2-0.7-0.1-0.6 0.8-1.2 1.3 0.3 1.4 0.5 1.2-0.6-1.7-0.8-0.9-0.3-1-0.1-1.1 0.2-0.4 0.6-0.3 0.8-0.5 1-0.8-1-0.6-1.6-0.2-1.6 0.6-0.8 0-0.3-0.9-0.2-0.3-0.8-0.2-1-0.4-0.9-0.9-0.5-1.2-0.3-0.7-0.5 0.2-1-4.9-3.7-0.4-0.4-0.3-0.5-0.1-0.8 0-1.5-0.2-0.7 0-5.3 0.4-1.6 0.4-0.2 0.4-0.2 0.3-0.1 0.2 0 0.5 0.2 0.6 0 0.2 0 0.1-0.1 0.2-0.1 0.1-0.1 0.1-0.1 0.3 0.1 0.3 0.1 0.7 0.2 0.5 0.1 0.1 0 0.2 0.1 0.3 0.3 1 1.3 0.2 0.2 0.2 0.1 0.9 0.4 0.4 0 0.3 0.2 0.4 0.2 0.6 0.5 0.3 0.4 0.2 0.5 0 0.6 0 0.1 0 0.2 0.1 0.1 0.1 0.6 0.2 0.1 0.1 0.1 0.9-0.2 2.6-1.2 0.8-0.6 0.6-0.5 0.2-0.6z m19.6 94.1l0.3 0.8 0.1 0.8-0.2 0.7-0.2 0.6-0.3-0.9-0.3-3.2 0.2 0.3 0.2 0.2 0.1 0.3 0.1 0.4z m-3.4-40.2l-0.1 0.7 0.2 1.8-0.1 1-0.3 0.6-0.3 0.3-0.2 0.5-0.1 0.6 0 0.4-0.2 1.7 0.3 1.5-1.1 1.1-1.4-0.5-0.3-2.1-0.5-0.7-1.8-1.5 0.4-1.5 0.6-0.5 0.1-1-0.2-1.2-0.3-0.9-0.6-0.8-0.2-0.6-0.2-0.6 0.2-0.3 0.3-0.2 0.2-0.3-0.3-0.5 0.4-0.6 0.8-0.5 0.8-0.3 0.7-0.2 1.9 0.9 1.1 0.3 1 0.1 0.1 0.9 0.1 0.9-1 1.5z" id="MM15" name="Mon">
  </path>
  <path d="M551.1 717.1l0-0.1 1.1-0.8 0.7-0.7 0.9-1.5 0.7-1.5 0.4-1.1 0.3-1.3 0.3-1.7 0.2-0.4 0.2-0.3 0.9-0.1 0.6 0 1.6-0.2 0.8-0.1 1.2-0.5 0.3 0 0.4 0.1 0.4 0.4 1.7 3 0.6 0.6 0.4 0.5 0.2 0.1 0.3 0.1 0.5 0.2 0.8 0 2.5 0 0 0.2 0.2 0.5 0.9 1.6 0.3 1.1-0.1 1.7 0.1 0.9 0.2 0.3 0.4 0.4 0.2 0.3 0 0.2-0.2 0.7 0.4 0.9 2.4 4 5.5 5.3 0.6 1 0.4 1 0.3 1.1 0.3 0.7 0.6 0.2 0.6 0.3 3.2 6.6 2 2.6 0.4 0.4 0.6 0.4 0.3 0.1 0.7 0.2 0.3 0.1 0.3 0.3 0.6 0.8 0.3 0.2 0.7 0 0.6-0.1 0.4 0 1.1 2.2 1 1.1 5.4 4.1 1 0.5 1.1 0.3 0.8 0.5 0.5 0.8 0.1 1 0.2 0.9 1.5 1.7 0.5 0.9 0.5 1.1 0.4 0.5 1.4 1.1 0.2 0.3 0.3 0.7 0.1 0.3 0.3 0.1 0.6 0.2 0.2 0.1 0.3 0.4 0.1 0.3-0.1 0.4-0.1 0.5 0 0.8 0.6 2.3 0.3 0.7 1.5 1.5 0.2 0.4 0.3 0.4 0 1.2-0.1 1.1 0.1 3.9 1.6 7.3 0.1 0.9-0.3 2.3 0.2 0.9 0 0.5-0.2 0.5-0.3 0.3-0.2 0.5 0.1 0.6 0.5 1.8 0.2 0.9-0.1 0.8 0 0.1-0.7 0.5-1.8 0.2-0.8 0.4-0.6 0.7 0 1 0.2 1-0.2 1.2-0.4 1.1-0.2 1 0.2 1 1 0.8 0.8 0.4 0.8 0.8 0.7 0.9 0.1 0.9-0.2 0.6-0.2 0.4-0.2 0.4-0.1 0.6 0.1 0.4 0.6 1.4 0.2 1.5 0.1 0.5 0.4 0.5 0.9 0.8 0.4 0.6 0.1 0.9 0 0.9 0 0.9 0.5 0.8 0.4 0.2 1 0.1 0.5 0.4 0.2 0.4 0.1 0.9 0.2 0.4 0.4 0.3 1.1 0.3 0.3 0.3 0.3 0.5 0.4 0.5 0.6 0.4 2.2 1.2 0.4 0.7 0.1 0.4 0.1 0.7 0 1-0.1 1-0.2 0.5-0.5 1-0.1 0.5 0.2 1 1 1.8 0.3 1.1 0.1 2.6 0.2 0.8 0.2 0.6 0.8 0.9 0.3 0.5 0.1 0.5-0.1 0.8 0 0.5 0.2 0.5 0.5 0.9 0.1 0.5 0 0.6-0.4 0.5-0.5 0.3-0.2 0.5 0.2 0.8 0.6 0.2 2.6-0.9 0.4 0 0.4 0.2 0.2 0.4-0.1 0.4-0.2 0.5 0 0.5-0.8 2.2-0.1 1.3 0.7 0.7 0.9 0.3 0.6 0.5 0.3 0.8 0 1-0.7 1.9-0.2 0.9 0.3 1.1 0.6 0.7 0.8 0.7 0.9 0.5 0.8 0.3 0.1 0.4-0.7 3.1-0.4 1.1-2.9 4-0.6 0.4-1.9 0.1-1 0.2-0.8 0.5-0.4 0.8 0 1.1 0.1 1.8-0.2 0.8-0.4 0.9-0.6 0.8-1.3 1.4-0.4 0.7-0.3 1.1-0.1 0.9-0.2 0.7-1.8 1.9-0.5 0.7-0.7 1.9-0.5 1-1.5 1.8-0.6 1.1-1.3 4.1-0.3 0.4-1 0.3-0.5 0.3-0.3 0.4-0.4 1-0.3 0.4-0.5 0.4-0.4 0.3-1.8 0.9-0.7 0.8-0.2 0.4-0.4 1.4-0.4 0.6-0.5 0-0.5-0.3-0.5-0.2-0.6 0-0.2-0.2-0.2 0.1-0.4 0.4-0.3 0.4-0.1 0.5-0.1 0.5-0.1 0.5 0.1 0.6 0.4 0.9 0 0.7-0.2 0.9-0.2 0.4-0.3 0.4-0.2 0-1.6 0.8-0.5-0.1-0.4-0.2-0.5-0.1-0.6 0.3-0.3 0.4-0.2 0.6-0.2 0.4-0.3 0.4-0.4 0.1-1 0.1-0.4 0.1-0.9 0.8-2 2.7-0.4 1-0.4 2 0.1 0.6 0.9 0.8 0.3 0.5 0.6 2.9 0 0.9-0.6 1.8-0.5 2.3-0.9 2.8-0.3 0.2-0.2 0.2-0.2 0.3-0.5 1.1-0.8 2.3-0.3 1.8-0.4 0.7-1 1.1-1 1.4-2.4 5.2-1.4 1.9-0.8 0.6-0.3-0.4-0.1-0.4-0.4-0.7-0.2-0.4 0-0.4 0.1-1-0.1-0.4-0.2-1.5-0.1-2.1-0.9-1.5-0.2-0.6 0-0.3 0.1-0.3 0.7-1.9 0.2-0.7 0.3-2.2 0.5-1.6 0-1-0.8-2.7-0.8-1.4 0-0.9 0.3-2-0.2-1.9-1.5-3.4-0.2-2 0-2 0.2-0.6 0.6-0.3 1 0.2 0.6 0.4 0.8 1.4 0.4-0.6 0-0.6-0.3-0.6-0.5-0.5 0.6-0.2 0.5 0.1 0.4 0.3 0.5 0.5 0.3-0.8 0.3-1.2 0.3-0.6 0.7-1 0.2-0.7-0.3-0.8 0.4 0 0.5-0.1 0.3-0.2 0.3-0.3-0.5-0.2-1.1-0.1-0.4-0.2-0.2-0.3-0.1-0.4 0.1-0.3 1.5-0.4 0.5-0.5 0.4-0.6 0.6-0.2 0.2 0.1 0.5 0.4 0.5 0.1 0.1-0.1 0.6-0.3 0.7-0.1 0.1 0.2 0.3-0.6 0.2-0.8 0-0.8-0.2-0.7 0.3-0.3-0.3-0.4-0.8-0.6-0.1-0.3 0.1-0.5 0.2-0.2 0.4-0.2 0.3-0.2 0.3-0.6-0.2-0.6-0.3-0.8-0.2-1-0.8 0.2-0.6-0.3-0.8-1.5 2-0.5 1-0.6 0.4-0.9 0-1.5 0.6-1.3 0.2-1 0.3-0.3 0.1-0.3-0.6-0.7-0.9-2.3-0.2-0.7 0-0.8 0.2-0.9-1.1 0.3-0.2-0.4 0.4-1.6 0.4-1 0.9-0.3 1.8-0.1-0.4-0.7-0.1-1.8-0.4-0.7-0.4-0.2-0.8 0.4-0.4-0.2-0.1-0.5 0.4-0.7-0.3-0.5 0.6-0.7 0.1-0.7-0.1-1.7 0.1-0.8 0.3-1.1 0.5-0.8 0.7 0.1 0.5-0.3 0.4 0.2 0.3 0.3 0.5 0.1 0.5-0.1 0.1-0.5 0-0.5 0.2-0.5 0.6-0.1 0.8 0.2 0.9 0.3 0.5 0.3 0.3 0-0.7-1.4-3.2-0.6-1-0.9 0.3-1.1 1-1.1 0.6-1.1-0.7-1.1 0.3 0.8-0.3 0.5-0.4 0.4-0.5 0.5-1 1.9-0.3 0.1-0.8-0.1-0.2 0.2-0.1 0.1-0.5 0.5-0.1 0.2-0.6 0.2-0.1 0.6 0 0.6-0.3 0.6-0.4 0.5-0.4 0.2-0.5-0.1-1.2-0.7-1.4-1.1-0.3-0.4-0.1-0.4-0.2-0.6 0-0.4 0.1-0.3 0.5-1 0.3-0.1 0.3 0 0.1 0-0.1-0.5-1.2 0 0.7-1.1 0.2-0.2 0.4 0 0.4-0.1 0.4 0.1 0.1 0 0.4-0.7 0.3-0.8 0.6-0.7 1.2 0-0.6-0.7-0.9 0.1-2 0.6-3.7 0 0.4-1 0.9-0.3 2.3 0 0.8-0.2 0.9-0.5 0.6-0.5 0.6-1 0.5-0.3 0.6-0.1 0.2-0.1 0.1-1.6-0.1-0.5-0.3-0.7-0.4-0.6-0.1-0.5 0.5-0.7-2.2 0.1-0.3-0.3-0.6-0.5-0.5-0.6 0-0.5 0.3-0.6-0.2-0.4-0.3-0.4 0-0.7 0.4-0.2 0.5-0.2 1.1-0.2 0-0.3-0.7 0 0.4-0.5 1.3-0.8 0.6-0.5 0.2-0.5-0.1-0.6-0.4-0.4-0.3-0.2-1.5 0.2-1 0.6-0.9 0.7-1.1 0.7-0.4-0.2-0.8-0.3-0.3-0.1-0.8-0.8-0.3-0.8 0-0.9 0.5-0.9 0.8-0.5 0.9-0.3 4-0.9 1-0.6 0.4-0.9-0.3-0.7-0.7-0.5-1.5-0.5-1.1-1.2-0.3-0.2-0.6-0.2-0.1-0.5 0.2-1 0-1 0.3-0.6 0.5-0.3 1.1-0.2 1.7 0 0.6-0.1 0.3-0.3 0-0.4-0.3-0.1-0.3-0.1-0.7-0.4-0.3-0.2-0.5 0-0.6 0-0.4-0.1-0.5-0.2-0.3-1 0.4-1 0.6-1 0.3-1 0.1-0.1 0.4 0 0.3 0 0.2 0-0.1-0.3-0.3-0.7 0.1-1.3 0.3-0.6 0.3-0.5 0.3-0.2 0.2-0.4 0.1-0.7-0.2-0.1-1.3 0.3-0.6-0.1-0.3-0.2 0-0.3 0.2-0.4 0.3-0.1 0.5 0 0.5-0.1 0.2-0.4-0.4-0.3-1.9 0.3-0.5-0.5 0-0.5 0.1 0.1 0.2-0.1 0.5-0.2 0.3-0.1 0.3-0.1 0.2-0.6-0.8-3.8-0.4-0.2-1.1-1.3-0.5-0.4 0.4-1 0.3-0.4 0.4-0.2-0.2-0.2-0.6-1.7-0.5-1-0.1-0.5-0.2-1.8 0.1-0.5 0.4-0.4-0.3-1.4-0.2-3.4-0.6-0.7-0.6-0.3-2.4-1.9-0.2-1.7-0.3-0.6-0.4 0.7-0.3-0.4-0.1-0.5 0-0.5 0.1-0.5-0.6-1.5 0-0.6 0.6-0.5-0.1-0.3 0-0.4 0.1-0.9-0.5 0.3-0.2 0.3-0.3 1 0.1-0.8-0.2-0.7-0.2-0.6-0.3-0.5-0.2-0.2-0.3-0.1-0.3-0.2-0.1-0.4 0-0.4 0.5-0.4 0.1-0.3-0.3-0.6-1-1.5-0.5-0.9-0.4-0.5-0.6-0.3-0.6-0.2 0.1-0.6-0.2-0.4-0.9-0.7 0-1-1.7-2.4-0.5-1.1 0.4 0.3 0.3-0.6-1.2-0.3-0.9 0.1-0.6-0.4-0.1-1.5 0.5-1.7 0.1-0.7-0.1-0.7-0.2-0.6 0-0.6 0.3-0.6-0.3-0.6-0.7-2.5 0-2.1-0.1-0.5-0.1-0.4-0.1-0.4 0.3-0.3 0-0.3-0.5-0.5-0.6-0.8-0.5-0.9-0.2-0.7-0.3 0-0.1 0.5-0.2 1-0.1 0.6 0.2 0.2 0.6 0.8 0.2 0.2-0.1 1.4-0.2 0.6-0.5 0.6-0.1 0.6 0.7 1.8 0.2 0.8-0.1 0.9-0.4 1.7-0.4 3.9 0.6 2.1 0.1 0.9-0.1 0.8-0.3 0.8-0.2 0.3-0.2 0.2-0.1 0.3-0.2 0.5-0.1 0.6 0 0.4 0.1 1 0.6 0.5 0.1 0.4-0.4 0.3-0.3 0-0.3-0.3-0.6-0.6-0.1 0.3-0.2 0.3 0 0.3-0.1-0.5 0-0.6-0.1-0.6-0.3-0.2-0.2-0.2 0.2-0.4 0.4-0.5 0.4-0.2-0.2-0.2-0.3-0.5-0.1-0.3 0.6-0.1 0.3-0.6 0-0.8-0.3-0.7 0.7 0 0.1-0.3-0.4-0.5-0.6-0.2-1.1 0.1-0.3-0.1-0.6-0.3 0.2-0.2 0.3-0.8 0.1-0.3-1.1-0.5-0.4-1.4 0.2-1.2 1 0.2-0.3-2 0-2 0.3-0.7 0-0.5-0.1-0.2-0.3-0.1-0.4-0.2-0.3-0.2-0.2-0.3-0.1-1.2-0.6-1.9-0.2-1 0.2-1 1-1.5 0.4-0.7 0-0.6 0.5-0.9 0.1-0.6-0.1-0.4-0.5-1.7 0.6 0-0.2-0.6-0.2-0.5-0.3-0.1-0.2 0.6-2.2-2.9-1.2-2.7-1-1.4-0.3-1.1-0.3-1.1 0-1 0.1-1 0.6-1.4 0.2-0.9-0.4 0.4-0.3 0.5-0.4 0.3-0.4-0.3-0.2-0.4-0.5-2.1-1.4-2.6-0.3-1.4 0.5-1.2-1.2-0.8-0.6-1.2 0-1.4 0.8-1.1 1.8-0.6 1.2 1.2 1.1 1.5 1.6 0.8-1.6-2.2-0.5-1 0.8-0.4-0.7-0.2-0.6-0.4-0.3-0.5 0.4-0.8-0.4-0.3-0.3-0.4-0.2-0.4-0.1-0.4-0.1-0.2-0.2 0.2-0.3 0.5 0.1 0.1 0.1 0.3 0.1 0.3 0 0.3-0.6 0.5-0.7-0.3-0.5-0.8-0.1-1-0.3 0-0.1 0.8 0.3 2-0.3 0.4-0.3 0.1-0.2 0.3-0.4 0.2-0.5 0-0.4-0.1-0.2-0.2-0.2-0.3-0.2-0.3-1.2-5.4-0.9-1.4z m11.9 237.2l-0.9 0.2-0.9-0.1-0.4-0.6 0.3-0.9 0.7-0.3 0.7 0.2 0.5 0.7 0 0.8z m7.8-33.5l-0.3 1-0.7 0.7-0.6 0-0.4-0.8 0.2-0.7 0.6-0.4 0.7-0.2 0.7 0 0 0.1-0.1 0.2-0.1 0.1z m9.2-21.2l0.1-0.8 0.5-0.4 0.4 0 0 0.8-0.2 0.5-0.3 0.4-0.4 0.1-0.1-0.6z m-44-37.4l-0.2-0.2-0.7-0.7 0.8 0.1 0.7 0.5 0.1 0.5-0.7-0.2z m17-46.2l-0.1-1 0.3-0.6 0.5 0 0.5 0.8 0.2 0.7-0.2 0.4-0.5 0-0.7-0.3z m20.9 126.6l-0.7-0.1-0.3 0.1 0 0.3 0 0.3 0.3 0.4 0.4 0.1 0.2 0.3-0.3 0.5-0.8 0.2-0.5 0.8-0.4 0.8-0.3 0.4-0.7 0.3-1.6 1-0.7 0-0.1 0.5-0.2 0.4-0.1 0.4 0.1 0.3-1.2 1.9-0.5 0.5-0.1-0.9-0.5 0.2-0.2-1 0.1-1.2 0.1-0.7 0.2-0.4 0.1-1.3 0.6-0.1 0.3-0.4 0.2-0.3 0.1-0.1 0.3-0.2 0.2-0.4 0.1-0.4 0.2-0.3 0.3-0.3 1.3-0.7 1.3-1.1 0.9-0.4 0.9 0.3 0.2-0.1 0.2-0.1 0.6 0.2 0 0.3z m-5-3.3l-0.1-0.3-0.5-0.6-0.1-0.4 0.2-0.5 0.3-0.4 0.1-0.4-0.3-0.4 0-0.4 0.8 0 1.2 0.7 0.9 0.3 0 0.2-0.1 0.1-0.1 0-0.2 0-0.1 0.3-0.1 0.2 0 0.2 0.2 0.3-0.7 0.4-0.4 0.3-0.3 0.5-0.3 2.2-0.4 1.3 0-3.6z m-12.5-17.3l-0.4 0.7 0.2 0.2 0.5 0.1 0.3-0.1 0.2 0.3 0.2 0.3 0.4 0.8-0.2 0.3-0.2 0.2-0.3 0.1-0.5-0.1 0.5 0.8 0.2 0.2-1 0.5-0.7-0.2-0.2-0.7 0.6-0.9-0.3-0.6-0.2-0.8 0.2-0.8 0.7-0.3z m26.5-18.4l1.1 0.5 1.1 0.9 0.5 1.3-0.5 1.7-0.7 0.4-0.8 0-0.5-0.3 0.3-0.6 0.4-0.1 0.3 0 0.3-0.1 0.1-0.4-0.2-0.3-0.3-0.2-0.4 0.1-0.4 0.2 0-0.6-0.3-0.7-0.1-0.7 0-0.6 0.1-0.5z m-27.5 0.3l0.3-1.3 0.7-0.6 0.9 0.1 0.9 0.2-0.5 1.3-0.6 0.9-0.8 0.7-1.2 0.5 0.3-0.4 0.2-0.5 0-0.4-0.2-0.5z m17.2 2.2l0.1 0.8 0 1 0.3 0.6 0.9 0.1-0.4 0.6-0.2 0.6 0.1 0.6 0.5 0.4-0.3 0 0 0.1 0 0.1-0.1 0.2-0.5 1-0.4 0.4-0.8 0.2-0.6-0.2-0.2-0.5 0-1.6 0.2 0.2 0.2 0.1 0.6-0.5-0.1-0.5-0.9-0.5 0.1-0.7 0.3-1.5 0-0.7-0.2-0.2-0.6-0.1-0.2-0.2 0-0.4 0-0.3-0.1-0.2-0.8-1-1-0.8-0.1 0.2-0.1 0.3-0.1 0.2-0.3-1.6-0.4-0.2-0.4-0.1-0.3 0.2-0.1 0.5-0.3 0.3-1.4 1-0.5 0.2-0.6-0.5 0.4-0.7 1.1-1.2 0.1-0.2 0.7-0.4 0.2-0.2 0.1-0.3 0.1-0.8 0.2-0.3 0.6-0.2 0.8 0.1 0.9 0.4 0.7 0.5 0.4 0.7 0.3 0.8 0.2 0.9 0 0.9 0.3 0.8 0.5 0.6 0.6 0.4 0.5 0.6z m11.9-6.4l-0.5 0.2-0.3 0.2-0.1 0.4-0.1 0.5-1-0.4-0.4-0.9 0.1-0.9 0.4-0.7 0.7-0.6 0.3-0.3 0.2-0.3 0.1-0.5-0.1-0.8 0-0.3 0.5-0.8 0.3 0.1 0.3 0.7 0.3 1.8 0 0.7-0.1 1.3 0 1.3 0 0.3-0.4 0.1-0.2-0.3 0-0.4 0-0.4z m-11.6-12.7l0.3 0.1 0.4-0.1 0.4 0 0.2 0.3-0.4 0.5-0.7 0.4-1.4 0.4 0-0.6-0.2-0.8-0.5-0.5-0.5-0.3-0.1-0.4 0.6-0.2 0.9-0.1 1.3 0-0.3 0.9 0 0.4z m0.2-25.6l0.6 0 0.7 1 0.5 1.3 0.2 0.8-0.1 0.5-0.3 0.1-0.3 0.1-0.2 0.1-0.1 0.5 0.1 1.4-0.6 2-0.1 0.9 0.4 1-0.6 1.1 0 2.7-0.4 1.3-0.3-0.4-0.1 0.3-0.1 0.2-0.1 0.2 0 0.3-0.4-0.4-0.7-0.8-0.2-0.4-0.3 0.4-0.1 0.2 0 0.3 0.1 0.4-0.7 0.1-0.4 0.3 0.1 0.3 0.7 0.3-0.4 0.2-0.5 0.1-0.6 0-0.5-0.1-0.5-0.2 0-0.3 0-0.7 0.5 0.2 0.4-0.1 0.4-0.3 0.3-0.5-0.2-0.4-0.1-0.9-0.2-0.4-0.1-0.4 0.4-0.4 0.6-0.2 0.2-0.3-0.1-0.4-0.2-0.1-0.2-0.2-0.1-0.5 0.1-0.4 0.7-0.5 0.3-0.9 0.3-0.1 0.3-0.1 0.2-0.1 0-0.5-0.3-0.9-0.1-0.5 0.3-1 1.3-2.5 0.2-2.1 0.3-0.6z m11.7-0.2l0.4 0.2 0.2 0.3 0.2 0.5 0.1 0.6 0 0.5 0 1.4-0.4 1.3 0.1 3.6-0.1 0.6-0.7 0.8-0.1 0.6 0 0.6 0.2 1.1 0.1 0.6-0.5-0.3-0.7-0.9-0.4-0.3-0.5-0.2-0.6-0.2-0.5-0.2-0.3-0.4-0.8 0.9-0.4-0.1-0.1-0.8 0.1-1-0.4 0.3-0.2 0-0.2-0.3-0.1-0.3 0.3-1-0.4-0.6-0.6-0.4-0.3-0.4-0.5-1.3 0.1-0.6 1.1-0.2-0.3-0.4-0.8-0.7-0.2-0.3 0.1-0.6 0.3-0.2 0.3-0.1 0.2-0.2 0.2-0.1 0.4-0.2 0.1-0.2-0.5-0.1-0.5 0-0.4 0-0.3-0.2-0.2-0.5 1-0.2 2.1 0.3 0.6-0.1-0.1-0.1-0.1-0.2-0.1-0.3 0.6 0 1.3 0.3 0.5-0.1 1.1-0.3 0.6 0.1z m-21.9 4.7l0.4 0.2 0.2 0.3 0 0.4-0.3 0.4 0.8 0.9 0.3 0.5 0.2 0.5-1.1-0.6-0.4-0.3-0.1-0.3-0.3-0.3-0.6-1-0.8-0.5-0.3-0.3 0.6-0.2 0.2-0.4 0-0.9-0.3-0.9-0.7-0.3 0.2-1.2-0.5-2.5 0.6-1.1-0.1 1.8 0.1 0.5 0.3 0.3 1.1 0.9 0.4 0.7 0 1.2 0.2 0.9 1.1-0.2 0 0.5-0.3 0.5-0.4 0.3-0.5 0.2z m-17.8-9.5l0.5 0.4 0.1 0.5-0.1 0.4-0.3 0.5-0.1 0.2 0.2 1.2-0.1 0-0.8-0.3-0.4-1.1 0.1-0.6 0.9-1.2z m26.9 2.2l0-1.2 0.1-0.8 0.4-0.3 0.9 0.6 0.2 0.6-0.3 0.8-0.4 0.6-0.6-0.1-0.3-0.2z m0.6-3.5l-0.3 0.4-0.3 0.1-0.4-0.1-0.9-1.3 0.4-0.7 0.8-0.3 0.4 0.2 0.1 0.4 0.2 0.9 0 0.4z m15.3-1.6l1.8 0.5 0.7 0.4 0 0.7 0-0.3-1.2 0.4-2.7 0-1 0.4-0.7 0.7-0.9 0.6-0.9 0.3-0.8-0.1-0.7-1.4-0.2-0.6 0-0.6 0.1-0.4 0.5-0.7 0.1-0.3-0.1-0.5-0.3-0.2-0.3-0.2-0.5-0.5-0.2-0.2-0.1-0.2-0.1-0.5 0-1.4-0.4-1.4 0-0.7 0.4-0.5 0.3 0.5 1.3 1.1 0.9 1.3 0.7 1.6 0.5 0.4 1 0.6 0.8-0.3 0.7 0.4 1.3 1.1z m-23.1-10.2l0.4-0.2 0.6-0.3 0.6 0 0.3 0.4 0.1 1.9-0.1 0.5-0.4-0.7-0.6-0.6-0.7-0.1-0.9 0.4-0.2-0.1-0.1-0.1-0.1-0.1-0.6-1-0.9-0.9-0.2-0.7 0.1-0.8 0.4-1.1 0.6-0.9 0.6-0.4 0.9 0.1 0.7 0.2 0.5 0.4 0.2 0.7 0 0.5-0.1 0.9-0.2 0.4-0.2 0.4-0.4 0.3-0.2 0.3-0.1 0.6z m-1.4-8.3l-0.1 0.3-0.7 1.3-0.4 0.4-0.5 0.3-0.4 0.2-0.4 0.1-0.1 0.2-0.4 1.7-0.4-0.8-0.2-0.2-0.2-0.7-0.6-0.1-0.7 0.1-0.4-0.2 0.1-0.7 0.6-0.5 0.5-0.4-0.2-0.7-0.6 0.5-0.2 0.2-0.2 0.3-0.3 0 0.1-1.3 0.6-0.6 1-0.3 1.4-0.8 0.5 0 0.3 0.1-0.3 0.5-0.4 0.4-0.2 0.3 0 0.3 0.4 0.4 0.6-0.1 0.3 0 0.4 0.1 0-0.5 0-0.5 0.2-0.4 0.8-0.4 0.3-0.6 0.1-0.5 0.2-0.3 0.6 0.2 0.5 0.9 0.2 1-0.4 0.8-0.4 0.3-0.3-0.1-0.3-0.1-0.4-0.1z m20.4-6.1l0.1 0.8-0.1 2.6-0.2 0.6-0.6 0.2-0.6-0.2-0.4-0.7 0.7-3.2 0.5-0.9 0.6 0.8z m-11.8-3.3l0.1-0.3 0.3 0.2 0.2 0.4 0 0.2 1 1.4-0.3 1-1 0.4-1.1-0.5-0.3-0.5 0-0.5 0.1-1.2 0.2-0.1 0.3-0.1 0.3-0.1 0.2-0.3z m-19.7-1l0.2-0.1 0.4-0.2 0.5-0.2 0.2 0.2 0.1 0.8 0.3 0.4 0.1 0.4-0.5 1.1-0.1-0.2 0-0.2-0.2-0.1-0.1-0.1-0.1-0.3 0-0.1-0.2 0-0.3 0.1 0-0.4 0.2-0.3-0.1-0.1-0.2-0.2-0.2-0.5z m29.3 0.2l0.2 1.3 0 1.8-0.2 1.7-0.4 1.1-3 4.5-1.9 1.6-2.1-0.5 0.4-1 0.2-0.3 0.1-1 0.7-1.9 0.1-1.1-0.1-0.4-0.4-0.7-0.2-0.6-0.2-0.1 0-0.3 0.2-0.2 0.3-0.3 0.3-0.3 0-0.3-0.9-1.6-0.5-2.1 0-2.2 0.6-1.9 0.8 0.7 2.4 0.7 0.9 0.8 0 0.5-0.4 1.9 0.2 0.8 1.1 1.9 0.2-1.2 0.4-1.5 0.5-0.7 0.7 0.9z m-7.7-23.4l0.3 0.1 0.3-0.3 0.4-0.1 0.5 0.3 0.3 0.5-0.1 0.3-0.5 0.5-0.3 0.4-0.2 0.2-0.2 0.2-0.2 0.5-0.1 0.4 0.1 1.5 0.5 2 0 0.9-0.5 0.6-0.1-0.9-0.6-1.1 0-0.9-0.3-0.9-0.6-2.9-1-2.9-0.2-1-0.1-0.9 0.1-2.1 0.3-0.5 0.6 0 0.3 0.8 1 4.6 0.3 0.7z m-16.6-36.3l0.3 0.4-0.3 0.5-0.2 0.9-0.1 1.8-0.4 0-0.1-0.8 0-1.3 0.2-1.2 0.6-0.3z" id="MM05" name="Tanintharyi">
  </path>
  <path d="M404 594.6l3.1 2.2 0.9 0.4 1.1 0.1 0.8 0.2 0.8 0.6 0.7 0.7 0.3 0.2 0.4 0.2 0.4-0.3 1.5-2.8 0.6-1.7 0.1-3.5 0.2-1.8 0-1.4 0.1-0.8 0.4-0.9 2.3-2.6 0.7-1.6 0.3-2.6 0.5-1.5 0.1-0.9 0-0.8-1.3-2.3-0.4-0.6-0.1-0.3-0.2-0.5-0.1-0.7 0.1-0.7 0.7-2 0-4.9 0.8-3.8-0.1-2.7-0.5-1.9-1.9-3.9 0.7-0.6 1.4-1.2 1.2-0.8 1.2-0.3 1.3 0.3 1.2 0.9 0.9 1 1.2 0.6 1.3 0 0.9-0.8 0.3-0.9 0.4-1.2 0-1.1 0.4-0.7 0.9-0.5 0.8-0.1 0.3 0 0.4 0.3 0.8 0.8 0.8 0.8 2.9 3.7 0.5 0.8 0.5 0.4 0.2 0.4 1.1 1 2 2.3 0.3 0.2 0.7 0.6 0.2 0.2 0.3 0.5 0.3 1.2 0.2 0.5 0.2 0.4 0 1.1 0.1 0.4 0.3 0.5 1.7 4.9 0.2 1.7-0.4 1.9 1.1 0.9 0.8 0.9 0.2 0.3 0 0.3-0.1 0.2-0.2 1.2 0 2-0.2 0.7-0.8 0.9-0.6 0.6 0 1 0.4 2.1 0.7 1.9 0.9 1.5 0.4 0.4 0.6 0.6 0.8 0.4 0.8 0.2 0.7 0.3 0.7 0.4 3.1 1.2 1.1 0.7 0.9 1.2 2.4 3.8-0.5 2.1-1.3 2.8-0.3 0.9-0.4 1.9 0 1.4 0.7 3.1 0.8 0.6 0.3 0.3 0.2 0.5 0.2 0.4 0.5 0.6 0.9 0.7 1.2 1.1 0.3 0.6 0.5 1 0.7 1.2 0.6 0.6 0.3 0.7 0 0.9 0.1 0.4-0.1 0.4 0.1 0.4 0.4 0.6 0.9 0.9 1 1.2 0.1 1.3-1 1.8-0.1 0.1 0 0.2-0.3 0.8 0 1.2 0.4 1 0.8 1.3 0.3 1.3-0.3 1.9-0.6 1.5-0.5 0.5-0.6 0.4 0.5 0.9 0.2 0.2 0.2 0.4 0 0.3-0.1 2 0.3 0.4 0.1 0.3 0 0.2-0.2 0.4-0.3 0.5-1.6 1.6-0.2 0.3-0.3 0.7 0.5 0.5 0.7 0.4 0.2 0.3 0.1 0.2 0.1 0.7 0.7 0.8 1 0.6 0.3 0.1 0.9 0.2 2.3 0 0.5 0.2 0.2 0.1 0.5 0.5 0.4 0.2 0.1 0 2.2 2 0.1 1.2-2.3 2.6-1.7 1.6-0.9 0.3-0.9-0.1 0-0.4 0.3-0.6 0.2-0.9-0.8 0.7-0.6 0.9-0.6 0.6-1.2 0.1 0.2-0.4 0.2-1.2-3.3 3.2-0.9 1.5-1 0.2-1-0.2-0.4-0.6-0.1-0.8-0.1-1-0.3-0.8-0.5-0.5 0.4 4.5-0.3 1-1.3 1.9-0.3 0.9 0 2.2-0.2 0.6-1 1.9-6.4 6.9-2.9 2-1.3 1.3-0.7 0.5-0.9 0.3-1 0.1-2.9-0.4-0.8-0.2-0.3-0.6-0.2-4.7 0.3-0.4 0.6-0.2 0.5-0.7 0.2-0.8-0.2-0.8 1.1-1 0.8-1.4 0.4-1.6 0.2-1.6 0-1-0.2-0.7-0.7-1.5-0.1-0.9 0.1-0.6 0.4-0.6 0.2-0.9-0.3 0-0.3 0.5-0.5 0.4-0.3 0.5-0.2 0.6 0.2 0.7 0.7 1.5 0.1 0.9-0.1 2.1-0.2 0.6-1.4 1.8-0.7 2.1-1 1.2-1 0.4-0.6-1.2 0.3-1 0.8-1.2 0.6-1.4-0.2-1.6-1.5 2.5-0.7 1.5-0.3 1.6 0.3 3.6-0.5 1.1-1.8 0.4-1.3-0.5-0.9-1.4-0.4-1.8 0-1.8 1-5.4-0.4-1.5-1 2.6-0.4-1.9 0.5-2 1.3-1.6 1.6-0.6 1.6 0.1 0.4-0.1 0.4-0.3-0.2-0.2-0.4-0.1-0.5-0.1-0.4-0.1-0.2-0.4-0.2-0.1-0.3 0-0.7 0.3-0.3 0-0.3 0.1-0.3-0.1-0.3-0.7-0.3 0-0.3 0.8-1.3 1.8-1.1 0.9-0.1 1.3 0.3 2.4-0.1 1.3-0.8 5.9-0.4 1.1-0.5 0.8-0.5 0.1-0.6 0.2-0.6 0.2-0.2 0.3-0.1 0.3-0.2 0.4-0.3 0.3-0.2 0.1-1.2 0.1-0.5-0.1-1.6-0.6-2-0.2-0.6-0.4 0.6-0.9 0.5-0.3 0.5-0.2 0.4-0.3 0.3-0.6 0-0.4-0.2-0.4-0.2-0.4-0.2-0.1-0.9 1-0.5 0.2-0.2-1.1 0.1-1.5-0.1-0.6-0.6-1.3 0-0.6 0.2-0.6 0.5-0.8 0.6-0.6 0.4-0.3 0.8-0.1 0.8-0.3 0.6-0.6 0.2-1-1.6 1-0.2-0.8-0.2-2.1-0.8-1.6 0-0.7 0.2-0.7 0.9-1.3 0.6-0.7 0.7-0.4 1.1-0.1 0.9-0.3 0.7-0.6 0.5-0.8 0.3-0.9-0.2 0.3-0.6 0.6-0.2 0.2-0.2 0.3-1.1 0.2-0.8 0.4-1-0.1-0.5 0.2-1.1 1.5-0.1 0.3-0.5 0.4-0.2 0.9-0.1 2.1 0.1 0.5 0.4 1 0.1 0.4 0.1 0.3 0.2 0.2 0.1 0.2-0.6 1.1-0.1 0.2-0.4 0.7-2.7 1.8-0.6 0.8-1.3 3-0.5 0.6-0.6 0.6-0.8 0.3-0.9 0.1-1.1-0.3-0.5-0.7-0.2-0.9-0.4-1-0.1 0.9-0.5-0.1-0.5-0.6-0.5-0.8 1.3-0.9 1.7-0.8 1.7-1.2 1.3-1.7 0.4-2.3 0.4-0.4 0.4-0.4 0.3-0.5 0.2-0.4 0.1-0.4 0.1-0.9 0.1-0.2 0.4-0.3 0.4-0.3 0-0.7-0.8 0.5-0.5 0.6-0.6 1.5-1.2 2-0.3 0.9-0.6 1.2-0.7 0.6-0.9 0.5-2.5 2.5-1.2 0.6-1-0.2-0.2-1.2 1.2-1.7 2.4-2.3 1-1.6 0.7-2 0.3-2.1-0.1-2.1-0.7-1.5-0.1-0.8 0.3-0.8 0.6-0.8 0.9-2.9 0.2-0.3 0.5-0.1 0.5 0.1 0-0.4-0.5-0.5-0.7-4.5 0-0.5 0.2-0.6 0.3-0.3 0.4-0.1 0.3-0.2 0-0.7-1.6 0.7-0.6-0.1-0.3-1-0.3 1.1 0.6 4.1 0 2.8-0.2 0.7-1.1 1.3-0.2 0.6-0.3 1.2-0.7 1.1-1 0.8-1 0.3-0.1-0.3 0.5-0.7 1-1.3 0.9-1.9-0.3-0.9-0.5 0.1-0.5 0.8-0.4 1.5-0.3 0.5-0.4 0.4-0.4 0.2-0.5-0.1-0.4-0.3-0.3-0.3-0.4-0.3-0.8-0.2-0.3 0.4 0.2 1.9-0.1 1.1-0.2 0.9-0.3 0.8-2.3 4-1.2 1.4-1.5 0.8-0.9 0.1-0.7 0.3-0.4 0.7-0.2 1.3-0.4 0.5-0.8 0.3-0.9 0.1-0.7-0.4-0.9 1-0.7 0.4-0.5-0.4-1.2-1.8-0.2-0.7 0-0.7 0.2-5.4 1.1-5.5-0.1-3.6 0.1-0.5 0.2-0.3 0.5-0.6 0.2-0.4 0.7-3.8-0.2-2.9 0.2-0.5 1.6 0.5 1 0 0.5-1 0.3-1.4-0.1-0.7-0.8-0.3 0-0.3 1.1-0.6 0.4-0.8 0.1-2.4 0.1-0.7 0.4-1.4 0.1-0.5 0.1-0.7 0.9-1 0.2-0.6-0.1-2-0.2-0.8-0.6-1.2-0.2-0.7 0.2-0.7 0.3-0.2 0.5 0.1 0.5 0.2 0.5-0.1 0.6-0.4 1.3-1.9-0.9 0 0.4-0.7 0.2-0.8 0-3.3 0-0.4 0.2-0.5 0.7-1.1 0.3-0.6 0.2-0.9-0.1-0.8-1.3-0.6-0.2-0.6 0.1-0.6 0.4-0.5 2.1 1 0.4-0.2 0.2-0.2 0.3-0.2 0.4-0.3 0-0.4-0.2-0.4-0.4-0.2-0.4-0.2-0.2-0.2-0.2-0.6 0.2-2.2 0.3-0.6 0.6-0.1 0.6-0.3 0-1.1 0.6 0.2 0.6 0.2 0.6 0.4 0.4 0.5-0.8-3.1-0.4-5z m-53.4 157.3l0.2 2.1-0.2 0.9-0.9 0.6 0.4-3.5 0.1-0.6 0.2-0.1 0.2 0.6z m12.8-33.8l0.5-0.6 0.3-0.8 0.5-0.7 0.9-0.5 0 0.3-0.4 0.8-0.5 0.9-0.7 0.6-0.6 0z m52.5-50.7l0.1 0.7 0.4 1.3 0.1 0.6-0.2 0.6-0.8 1.4-0.7 1.8-1.2 0.2-1.4-0.3-1-0.6 0-0.4 0.9-0.6 0.6-0.9 1-2 1.2-1.8 0.8-0.7 0.2 0.7z m-7.6-13.8l0.3 2.4-0.6 2.4-1.2 2.2-2.2 2.9-0.5 0.4-0.7 0.4-2.5 0.8-0.7 0.4-0.3 0.3 0 0.3 0.1 0.5-0.1 0.3-0.4 0.6-1 0.8-0.5 0.6 0.2 0.7-0.3 0.7-1.1 1.5-0.3 0 0-0.4 0.7-1.2-0.4-1.7-1.2-2.9 0.3-1.5 1.3-0.8 1.6-0.7 1.5-1.2 0.4-0.8 0.7-1.5 0.4-0.6 1.4-1.4 2.8-3.5 1.4-1.1 0.9 1.1z" id="MM07" name="Ayeyarwady">
  </path>
  <path d="M470.1 646.2l-0.1 0-0.4-0.2-0.5-0.5-0.2-0.1-0.5-0.2-2.3 0-0.9-0.2-0.3-0.1-1-0.6-0.7-0.8-0.1-0.7-0.1-0.2-0.2-0.3-0.7-0.4-0.5-0.5 0.3-0.7 0.2-0.3 1.6-1.6 0.3-0.5 0.2-0.4 0-0.2-0.1-0.3-0.3-0.4 0.1-2 0-0.3-0.2-0.4-0.2-0.2-0.5-0.9 0.6-0.4 0.5-0.5 0.6-1.5 0.3-1.9-0.3-1.3-0.8-1.3-0.4-1 0-1.2 0.3-0.8 0-0.2 0.1-0.1 1-1.8-0.1-1.3-1-1.2-0.9-0.9-0.4-0.6-0.1-0.4 0.1-0.4-0.1-0.4 0-0.9-0.3-0.7-0.6-0.6-0.7-1.2-0.5-1-0.3-0.6-1.2-1.1-0.9-0.7-0.5-0.6-0.2-0.4-0.2-0.5-0.3-0.3-0.8-0.6-0.7-3.1 0-1.4 0.4-1.9 0.3-0.9 1.3-2.8 0.5-2.1 1.3-2.4 0.8-1 1.1-0.5 1.5-1.2 0.7-0.9 1.2-2.2 0.5-0.6 2.7-1.5 0.7-0.5 0.6-0.5 0.6-0.9 1.1-1.5 0.6-0.4 0.5-0.2 0.4 0.2 0.3 0.2 0.3 0.5 1.5 3.4 8.2 14.4 0.4 0.8 1.6 7 0.2 0.7 0.4 0.5 0.6 0.9 0.9 1.3 0.5 1.2 0.4 1.8 0 0.6-0.2 2.2 0.1 1.2 2.3 0.1 5.9-0.4 4 0.4 2.4 0.5 0.6 0.2 0.4 0.2 0.4 0.3 1.4 1.7 1.7 1.4 0.7 0.3 0.3 0.2 0.4 0.5 0.2 0.7-0.1 0.7-0.6 1.1-0.3 1.1-0.7 1.6-0.6 0.2-0.4 0.3 0.1 0.4 0.5 0.4-0.8 1.2-0.8 0.8-1.9 1.3-0.4 0.5-0.8 1.4-0.9 2.6-1.8 1.4-1.1 1.3-2.6 1-2.8 0.6-2.8 0.3-1.6-1.3-1-0.2-1-0.4-3-2.3-0.8-0.8-0.3-0.7-0.1-1.2-0.1-0.9-0.3-0.7-0.9-2-0.3-1-0.1-0.9 0-1.1 0.4-0.7 1.8-1.3 0.6-0.5-1.4-0.1-2.3 1.8-1.6 0.3 0.2 0.5 0.8 0.9 0.2 0.4 0.3 1.8 0.5 0.8 1.1 1.4 0.3 0.9-0.1 0.6-0.5 1-0.1 0.5 0.2 0.5 0.5 1 2.2 3 0.7 1.3 0.8 0.5 0.4 0.7-0.7 1.2-0.7 0.4-0.9 1.9-2.9 1-2.6 0.6-1 0.4-1.1 0.1-1-0.3-0.4-1-0.5-0.6-3.2-1.2 0.5 0.4z" id="MM06" name="Yangon">
  </path>
  <path d="M487.4 498.1l0.7 1 0.2 0.2 0.3 0.4 0 0.3 0 0.5-0.1 0.3 0 0.4 0.1 0.3 0.3 0.7 0.3 0.3 0.3 0.3 0.5 0.4 0.2 0.2 0.2 0.3 0.1 0.5 0 0.9-0.2 0.8 0 0.3 0.3 0.3 0.3 0.4 0.3 0.4 0.2 0.8 0.3 0.4 0.2 0.3 0.1 0.1 0.2 0.4 0.2 0.5 0.3 1.1 0.2 0.5 0.2 0.2 0.3 0.1 0.3 0.2 0.1 0.3 0 0.3-0.9 0.9-0.6 0.4-0.1 0.2-0.1 0.1 0.2 0.7 0.4 0.2 0.1 0.2 0.1 0.5 0.1 0.3 0.2 0.5 0.2 0.5 1 1.3 1.7 1.7 1.5 1.1 1.4 1.2 0.2 0.3 0.2 0.3 0.2 0.6 0.2 0.3 0.4 0.3 0.2 0.3 0.1 0.2-0.3 0.6-1.8 1.2-0.6 0.4-0.3 0.4-0.2 0.5 0.1 0.7 0.4 0.8 0.7 0.9 0.1 0.7-1.2 1.4-0.1 0.8 1.3 2.2 0.5 1.6 0.3 0.7 0.8 1 0.2 0.2 0.1 0.7 0.2 0.3 0.3 0.1 0.3 0.1 0.5-0.4 0.3-0.2 0.3-0.3 0.3-0.1 0.3 0 0.4 0.2 0.6 0.4 0.4 0.1 0.5 0.1 0.7 0.1 0.7 0.3 0.4 0 0.5-0.2 2.3-1.3 2.2-0.7 0.4 0 0.2 0.1 0.3 0.2 0.1 0.3 0.1 0.4 0.1 0.3 0.5 0.4 0.3 0.2 0.2 0.4 0.1 0.5 0.1 0.4-0.1 0.4 0.1 0.4 0.2 1.1 0.1 1-0.4 1.6 0 0.3 0 0.2 0 0.5-0.1 0.3-0.1 0.3-0.3 0.6 0 0.5 0.3 0.6 0.6 1.2 0.4 0.5 0.3 0.4 0.5 0.3 0.8 0.3 0.3 0.2 0.2 0.2 0.7 0.6 0.2 0.3 0 0.4-0.1 0.7 0 0.3 0.2 0.3 0.2 0.2 0.5 0.2 0.3 0 0.2-0.2 0.1-0.5 0.1-0.2 0.2-0.2 0.3-0.2 0.3-0.1 0.3 0.2 0.3 0.5 0.4 1.2 0.2 0.9 0 1.2-0.1 0.6 0 0.8 0.7 0.8 1.8 1.3 0.2 0.2 0.2 0.3 0.1 0.3 0 0.5-0.2 0.6-0.4 0.7-0.1 0.3 0 0.2-0.1 1.2-0.1 0.3-0.5 1.3-0.2 0.2-0.2 0.2-0.2 0.3-0.2 0.6-0.1 0.2-0.2 0.2-0.4 0.4-0.1 0.2-0.2 0.3-0.2 0.6 0 0.3 0.1 0.5 1.9 4.2 0.1 0.3 0.1 0.4 0 0.4 0.2 0.4 0.2 0.1 0.3 0.2 0.2 0.1 0.2 0.4 0 0.6-0.1 1.1-0.2 0.9-0.2 0.2-0.5 0.8-0.2 0.3 0.1 0.7 0.3 1 1.5 3.9-0.1 1.9-0.1 0.2-0.1 0.3 0 0.5 1 0.7-0.2 0.6-0.6 0.5-0.8 0.6-2.6 1.2-0.9 0.2-0.1-0.1-0.2-0.1-0.1-0.6-0.1-0.1 0-0.2 0-0.1 0-0.6-0.2-0.5-0.3-0.4-0.6-0.5-0.4-0.2-0.3-0.2-0.4 0-0.9-0.4-0.2-0.1-0.2-0.2-1-1.3-0.3-0.3-0.2-0.1-0.1 0-0.5-0.1-0.7-0.2-0.3-0.1-0.3-0.1-0.1 0.1-0.1 0.1-0.2 0.1-0.1 0.1-0.2 0-0.6 0-0.5-0.2-0.2 0-0.3 0.1-0.4 0.2-0.4 0.2-0.4 1.6 0 5.3-0.5 0.8-0.4 1.8-0.3 0.7-0.2-0.2-0.4-0.5-0.1-0.3-0.3 0.2-0.2 0.2-0.2 0.1-0.2 0.2 0.3 0.3 1.1 1.4 1.5 1 1.2 1 0 1.6-1 1.1-1.1 1-0.7 1.3 0.3 2.1 1.8 3.2 0.6 1.7 0.1 2-0.3 0.6-0.8 1.5-0.4 2.2-0.5 0.3-1.5-0.4 0.2 0.4 0.2 0.5 0.2 0.4 0.4 0.3-0.6 0-1-0.3-0.6 0 0 0.3 0.6 0.4 0.3 0.2-0.7-0.3-1.7-1.4-1.4-1.7-0.4-0.3-0.4-0.2-0.6-0.2-2.4-0.5-4-0.4-5.9 0.4-2.3-0.1-0.1-1.2 0.2-2.2 0-0.6-0.4-1.8-0.5-1.2-0.9-1.3-0.6-0.9-0.4-0.5-0.2-0.7-1.6-7-0.4-0.8-8.2-14.4-1.5-3.4-0.3-0.5-0.3-0.2-0.4-0.2-0.5 0.2-0.6 0.4-1.1 1.5-0.6 0.9-0.6 0.5-0.7 0.5-2.7 1.5-0.5 0.6-1.2 2.2-0.7 0.9-1.5 1.2-1.1 0.5-0.8 1-1.3 2.4-2.4-3.8-0.9-1.2-1.1-0.7-3.1-1.2-0.7-0.4-0.7-0.3-0.8-0.2-0.8-0.4-0.6-0.6-0.4-0.4-0.9-1.5-0.7-1.9-0.4-2.1 0-1 0.6-0.6 0.8-0.9 0.2-0.7 0-2 0.2-1.2 0.1-0.2 0-0.3-0.2-0.3-0.8-0.9-1.1-0.9 0.4-1.9-0.2-1.7-1.7-4.9-0.3-0.5-0.1-0.4 0-1.1-0.2-0.4-0.2-0.5-0.3-1.2-0.3-0.5-0.2-0.2-0.7-0.6-0.3-0.2-2-2.3-1.1-1-0.2-0.4-0.5-0.4-0.5-0.8-2.9-3.7-0.8-0.8-0.8-0.8-0.4-0.3-3.1-2.5-0.8-1-0.2-0.9 0.1-0.8 0.4-1.1 0.1-2.1 0.1-1 0.7-0.6 0.2-0.7 0.1-0.2 0.2-0.1 0.6 0.1 0.2 0 1.4-0.6 0.4-0.3 1.1-1 0.8-1.5 0.4-1.8-0.4-2.1-0.5-0.8-0.4-0.4 0-0.7 0-0.2 0.2-0.4 1.1-1 2.4-1.5 0.6-0.6 0.3-0.6 0.1-0.4 0.1-0.4 0-1.9 0.8-1 3.3-0.7 2.4-3 1.4-0.7 2.8-0.8 0.9-0.1 2.8 0 6-0.8 1.3 0 0.7 0 0.4 0.1 1.2 0.8 0.3-0.2 0-0.1 0.1-0.1 0.1-0.2 0-0.2 0-1.1 0-0.3 0.1-0.3 0.1-0.1 0.2-0.3 0.6-0.5 0.1-0.1 0.1-0.2 0.2-1.8 0-1.3-0.1-0.8-0.1-0.5-0.3-0.5-1.1-1.5-0.1-0.3-0.1-0.4 0-0.8-0.4-1.5-0.4-0.9 0-0.5 1.2 0.2 0.5 0.3 0.1 0.1 0.3 0.1 0.3 0.2 0.3 0 1.1-0.1 0.4-0.2 0.2-0.3 0-0.3 0.1-0.2 0.1-0.1 0.1-0.1 0.1-0.1 0.3-0.1 1-0.2 0.2-0.1 0.3 0 0.3 0 0.5 0.2 0.5 0.1 0.1 0.1 0.7 0.3 0.1 0.1 0.4 0.3 0.4 0.2 0.5 0.1 1.9 0.3 0.3 0.1 0.1 0.1 0.1 0.1 0.2 0.2 0.2 0.2 0.3 0.2 0.1 0.1 0.2 0.2 0.2 0.1 0.5 0.2 0.2 0 0.3-0.1 0.4-0.3 0.5-0.5 0.1-0.1 0.8-0.3 0.1-0.2 0.1-0.2 0.1-0.6 0.1-0.3 0.1-0.2 0.1-0.3 0-0.2 0.2-0.1 0.1 0 0.3 0.2 0.4 0.1 2.6 0 0.8 0.2 0.3 0.1 0.2 0.1 0.3-0.1 0.7-0.1 1.2 0 3 0.2z" id="MM02" name="Bago">
  </path>
  <path d="M416.3 551.7l-0.7-0.7-0.6-0.8-2.1-3.7 0-0.4 0-0.5 0.3-1.1 0.2-0.6 0.1-0.7-0.1-0.9-1.2-2.5-0.2-0.9 0.6-0.9 1.4-1.4 0.2-0.6 0-0.6-0.9-1.5-1.9-1.8-0.2-0.3-0.2-0.2 0-0.4 0.1-0.3 0.6-0.3 1.4-0.2 0.8-0.2 0.6-0.4 0.3-0.5 0-0.6-0.4-1-0.3-0.6-1.9-2.6-0.6 0-0.7-1-1.7-3.9-2.1-2.4-1.5-0.8-0.8-0.2-0.6-0.2-0.6-0.7-0.4-1.2-0.7-2.8 0-1.1 0.4-0.6 0.4 0 0.3-0.2 0.1-0.4-0.2-0.9-1.1-2-4.2-6.1-0.5-1-0.9-5.2-1.8-8.3-1.9-4.2-0.2-0.7 0-0.7 0.3-1.3 0.4-1.5 0.2-0.7-0.1-0.7-0.3-0.8-0.8-1-1.4-1.4-0.1-0.1-0.9-0.7-0.3-0.8-0.2-0.8 0.1-3-2.2-2.7-0.6-1.2-1.1-3.3-0.6-1.4-5.9-9.9-0.2-0.4-0.5-0.9-0.5-0.7-0.8-0.6-0.7-0.3-1.9-0.3-0.6-0.3-0.4-0.8 0-5.9 3.3 2.2 0.8 0.2 1.3 0 3.9-1 1-0.5 0.3-0.5 0-0.4-0.1-0.2-0.1-0.3-1.3-1.7-0.4-0.7-0.2-0.7-0.4-2.1-0.4-1.2-1.5-3.1-0.1-0.5 0.4-2 2.8-5.2 0.4-1.1 0.1-1.2-0.2-3.2-0.1-0.9-0.3-0.6-0.6-0.6-1.9-1.1-1.1-1.1 1.4-2.7 0.8-5.7 2.3-5 0.2-0.8 0-0.9-0.2-0.6-0.9-1.4-2.1-3.6-1.8-3.3-0.6-1.7-0.2-1.9 0.2-3.1 0.4-1.5 0.3-0.4 0.5-0.3 0.7-0.4 0.2-0.4 0-0.3-0.1-0.2-0.4-0.9-1-3.3 0.2-1.1 1-2.2 0.1-1.2 0-1-1.3-6.6 0-0.9 0.2-0.6 1-1.7 0.2-0.7-0.2-0.4-0.4-0.2-0.6-0.1-0.1-0.4 0.5-1.1 0.1-0.7-0.6-5.1 0.2-1.8-0.1-0.9-0.4-1.6-0.4-2.7 1.3-0.2 0.6 0 0.7-0.1 0.6-0.3 0.3-0.2 0.2-0.3 0.4-0.6 0.3 0 0.4 0.2 0.3 0.7 0.1 0.4 0 0.4-0.1 0.2 0 0.2 0.5 0.4 0.1 0.1 0.1 0.1 0.1 0.5 0 0.1 0.5 0.8 0.4 0.5 0.8 0.7 1.9 2.4 2.1 3.9 1.3 2.7 0.1 0.7 0.1 0.9-0.2 0.7-1.7 3.7-0.3 0.8-0.1 0.4-0.1 0.7 0.6 5.7 0.3 0.9 0.4 0.6 0.4 0.5 0.4 0.1 0.5 0 1.4-0.4 0.9 0 0.7 1.6 0.4 0.3 0.6 0.3 0.5 0.2 0.3 0.3 0.3 0.9 0.2 1 0 1.4-0.9 8.1 0.2 0.6 0.4 0.4 0.8 0.7 1.2 0.7 0.9 0.3 0.8 0.1 0.4-0.1 0.3-0.2 1.1-1 0.9-0.4 2.4-0.9 0.8 0 1.3 0.2 0.9 0.2 0.7 0.2 0.7-0.1 1.8-0.3 1.9-0.2 0.9-0.3 2-0.1 3.5 0.7 6 0.2 1.2-0.8 1.5-0.3 0.7 0.1 1.1 0.4 0.4 0.6 1.3 1.5 0.8 1.7 0.5 0.6 0.8 0.6 0.4 0.4 0.1 0.7 0 1.1 0.1 0.7 0.7 0.4 0.9 1.1 0.8 0.5 1.9 0.6-0.2 0.6-0.5 2.5-0.1 0.4 0.3 3.6-0.4-0.1-0.4 0.7-0.4 0-0.4-0.1-0.4 0.1-0.3 0.1-0.2 0.2-0.2 0.2-0.1 0.1-0.6 0.9-3 2.5-1.5 1.9-0.7 0.8-1.1 0.3-1.9 0.3-0.3-0.1-0.6-0.4-0.4-0.1-1.2 0.1-0.9 0.8-0.6 1-0.1 1.2-0.5 0.3-3 0.9-2.1 0-0.2 0-0.2-0.1-0.3 0.1-0.2 0.2-0.5 0.4-0.6 0.5-0.5 0.9-0.3 1.1-0.1 0.9 0 2.2 0.8 4.1 0.1 2.1-0.2 0.9 1.1 0.4-0.1 0.6 1.2 1.1 1.8 1 1.1 0.4 1 0.2 2.3-0.1 0.1 0 2.2 1 1.1 1 0.3 0.5 0.1 0.2 0.1 0.3-0.1 0.5-0.1 0.8-0.2 0.4-0.2 0.3-0.4 0.9-0.2 0.5 0.1 0.6 0.5 3 0 0.5-0.2 0.8-0.2 0.7 0 1.2 0.2 1 1.2 2.2 0.3 0.4 0.4 0.2 0.3-0.1 0.3-0.2 0.3-0.7 0.5-2.1 0.4-0.5 1.7-1.5 0.6-0.3 1.3-0.4 0.6 0 1.2 0.1 0.7-0.2 0.4-0.2 1.8-1.6 1.1-0.5 2.1-0.6 1.8-0.6 0.5-0.5 1-1 0.5-0.3 0.7-0.1 0.4-0.1 1.7 0.1 1.9 0.3 0.7 0.3 0.2 0.1 0.1 0.2 0.5 0.6 0.1 0.5 0.2 1.7 0.3 2.1 3.8 7.1 0.5 1.5 0.4 2 0.2 0.8 0.3 0.5 0.4 1.2 0 0.2-0.1 0.4-0.4 0.6-0.2 0.3-0.2 0.2-0.1 0.2 0.2 0.7 0.6 2.1 0.3 0.5 0.1 0.1 0.2 0.3 0.2 0.4 0.1 0.1 0.2 1.1 0.1 0.3 0.1 0.2 0.1 0.1 0.2 0.5 0.2 0.3 0.1 0.1 0.1 0.2 0.2 1.5 0.1 0.2 0.1 0.2 0.2 0.2 0.2 0.2 0.6 0.3 0.1 0.1 0.1 0.3-0.1 0.5-0.2 0.3-0.8 1-0.1 0.6 0 0.5-0.1 0.2-0.1 0.2-0.9 0.7 0.3 1.3 0 0.2-0.1 0.4-0.2 0.4-0.1 0.1-0.6 0.9-0.1 0.2 0.1 0.2 0.3 0.3 0.4 0.2 0.1 0.2 0.3 0.9 0.1 1.7 0.3 0.3 0.2 0.3 0.2 0.3 0 0.1 0 0.2 0.1 1.1 0 0.2 0.1 0.2 0.1 0.3 0.1 0.2 0 0.2-0.1 0.2-0.4 0.4-0.2 0.1-0.3 0-0.2 0.2 0 0.3-0.2 0.7-0.1 0.4-0.7 1.3-0.1 0.3 0.1 0.4 0.1 0.2 0.1 0.1 0.1 0.2 0.1 0.1 0 0.2 0 0.3-0.1 0.5-0.3 0.9-0.3 0.4-0.4 0.3-0.2 0.3-0.5 1.1-0.5 1.9 0.3 3.5 0.3 1.5 0.2 0.4 0.4 0.4 1.1 0.9 1.1 0.4 0 0.5 0.4 0.9 0.4 1.5 0 0.8 0.1 0.4 0.1 0.3 1.1 1.5 0.3 0.5 0.1 0.5 0.1 0.8 0 1.3-0.2 1.8-0.1 0.2-0.1 0.1-0.6 0.5-0.2 0.3-0.1 0.1-0.1 0.3 0 0.3 0 1.1 0 0.2-0.1 0.2-0.1 0.1 0 0.1-0.3 0.2-1.2-0.8-0.4-0.1-0.7 0-1.3 0-6 0.8-2.8 0-0.9 0.1-2.8 0.8-1.4 0.7-2.4 3-3.3 0.7-0.8 1 0 1.9-0.1 0.4-0.1 0.4-0.3 0.6-0.6 0.6-2.4 1.5-1.1 1-0.2 0.4 0 0.2 0 0.7 0.4 0.4 0.5 0.8 0.4 2.1-0.4 1.8-0.8 1.5-1.1 1-0.4 0.3-1.4 0.6-0.2 0-0.6-0.1-0.2 0.1-0.1 0.2-0.2 0.7-0.7 0.6-0.1 1-0.1 2.1-0.4 1.1-0.1 0.8 0.2 0.9 0.8 1 3.1 2.5-0.3 0-0.8 0.1-0.9 0.5-0.4 0.7 0 1.1-0.4 1.2-0.3 0.9-0.9 0.8-1.3 0-1.2-0.6-0.9-1-1.2-0.9-1.3-0.3-1.2 0.3-1.2 0.8-1.4 1.2-0.7 0.6z" id="MM03" name="Magway">
  </path>
  <path d="M439.3 394.1l0.3-0.6 0.3-0.5 0-0.3 0.6-1.4 0.5-2.1 0.7-0.5 5.8-1.3 1.1 0 0.7 0.3 1.5 1.5 2.9 4 3.9-0.5 1 0.2 0.3 0.3 2.2-2.6 0.7-1.2 1.5-5.9 0.7-1.3 0.5-0.5 0.8 0.2 1.1 0 0.8-0.2 0.9-0.3 0.9-0.5 1.2-0.9 0.9-1.4 0.5-1.6-0.1-1.8-1.1-3.2-0.8-1.5-0.3-3.4-0.6-2.9-0.1-2.6 0-0.6 0.2-0.5 0.3-0.3 0.2-0.2 0.3-0.3 0.3-0.7 0-0.4-1.1-1.1-0.9-1-0.3-0.9 0.1-4 0.2-0.9 0.6-0.9 0.3-1-0.2-1-3.1-5.5-0.7-2.3 0.4-1.6 0.4-0.1 1.1-0.1 0.5-0.3 0.3-0.4 0.2-0.5 0.4-19.1-0.3-1.2-0.5-2-0.3-0.9-0.2-0.3-0.1-0.2-0.1-0.1-0.2-0.6-1.2-4.1-0.1-0.7 0-1 0.3-1.1 0.4-1 1-1.5 2.8-3.5 0.5-1 0.1-0.7 0.7-1.5 1-1.1 1.1-1.1 1.1-0.1 0.3 0.1 0.6 0.4 0.4 1 0 0.6-0.1 0.6-0.3 0.8-0.1 0.6 0 0.6 0.3 0.5 0.4 0.4 1.5 0.7 1 0.3 1.1-0.3 2.1-1.1 0.7-0.2 0.5 0 1.4 1.2 0 0.8-0.1 0.2-0.1 0.3-0.6 0.4-0.2 0.2 0 0.3 0 0.7 0.1 0.2 0.2 0.4 0.1 0.2-0.1 0.2-0.1 0.1-0.3 0.1-0.4 0.1-0.2 0.1-0.9 1-0.4 0.3-0.2 0.1-0.1 0.1-0.4 0.7-0.2 0.2 0 0.2 0.1 0.4 0 0.2 0.1 0.2-0.1 0.2-0.2 0.2-0.2 0.1-0.2 0.1-0.1 0-0.2-0.1-0.1-0.1-0.2-0.3-0.2 0-0.1-0.1-0.2 0-0.2 0-0.1 0.1-0.2 0.1 0 0.3 0 0.3 0.2 0.6 0.2 0.3 0.2 0.2 0.1 0.1 0 0.2 0 0.3-0.3 0.6-0.1 0.7 0 1-0.1 1.1 0 0.2 0 0.3 0 0.4 0 0.1-0.1 0.2-0.2 0.3-0.3 0.3-0.1 0.2 0 0.1-0.1 0.4-0.1 0.2-0.1 0.1-0.4 0.3-0.1 0.1-0.1 0.1 0 0.2 0 0.2 0.1 0.7 0.1 0.4 0.3 0.4 1 1 0.3 0.4 0.4 0.8 0.1 0.4 0 0.3-0.1 0.1-0.1 0.2 0 0.1 0.4 0.6 2.2 1.3 3.9 0.3 3.5-0.7 0.6 0 0.2 0 0.7-0.3 0.2 0 0.8 0 0.2 0 0.1-0.1 0.1-0.1 0.4-0.5 0-0.1 0.6-0.3 0.2 0 0.2 0.1 0.4 0.2 0.6 0.5 0.3 0.3 0.2 0.2 0.1 0.1 0.3 0.1 0.3 0 0.3-0.1 0.1-0.1 0.3-0.2 0.1 0 0.2 0 0 0.3 0 0.1-0.1 0.2 0 0.2 0 0.1 0 0.4 0 0.2-0.1 0.1-0.1 0.2 0 0.1 0.2 0.2 1.2 0.8 0.4 0.2 0.4 0 1.4 0.1 0.8 0.1 1.3 0.7 0.3 0.2 0.1 0.2 0 0.2 0.1 0.4 0 0.1-0.1 0.2-0.2 0.2-0.4 0.4-0.1 0.2-0.3 0.4-0.6 0.8-0.1 0.1-0.3 0.6-0.1 0.1-0.2 0.3-0.1 0.3 0 0.2-0.1 0.8-0.2 0.2-0.8 0.8-0.2 0.1-0.3 0-0.3 0-0.5 0.4-0.2 0.1-0.3 0-1-0.4-1.3-0.1-0.2 0-0.4 0.2-1 0.6-1.2 0.7-0.2 0.1-0.6 0.2-1.8 0.1-0.4-0.2-0.4-0.3-0.1-0.1-0.2-0.1-0.2 0.1-0.3 0.2-0.5 0.2-0.4 0-0.6 0.3-0.2 0.2-0.3 0.1-0.5 0-1.7-0.1-0.7-0.2-0.4-0.2-0.3 0.1-0.3 0-1.1 0.9-1.8 1.1 0.6 1.1 0.1 0.3 0 0.8 0.1 0.2 0.2 0.1 0.2-0.1 0.3-0.1 0.1 0 0 0.2 0 1.8 0 0.2 0.1 0.3 0.4 0.9 0.4 0.5 1.5 1.9 0.2 0.3 0 0.3 0.1 0.4-0.1 1 0 0.4 0.3 0.4 0.2 0.2 0.2 0.1 0.2 0 0.2 0 0.1 0.1 0.1 0.1 0.1 0.2 0.4 0.9 0 0.2-0.1 0.3-0.2 0.7-0.1 0.5 0 1.4-0.4 1.3 0.2 1 0.2 0.2 0.1 0.1 0.5 0.1 1.7 0.2 0.6 0 0.4 0 0.2 0 0.2 0.2 0.3 0.3 0.4 0.6 0.2 0.3 0.2 0.4 0.1 0.3 0.2 1.9 0.7 0.6 0.5 0.6 0.7 1.8 0 0.1 0.1 0.5 0 1 0 0.1-0.2 0.6 0 0.2 0 0.2 0.1 0.2 0.2 0.2 0.5 0.3 2.3 0.7 1.2 0.8 0.7 0.1 1.8 0.6 1.5 0.8 0.8 0.2 0.2 0 1.2 0 0.6 0.2 0.2 0 0.5 0.4 0.5 0.6 0.3 2.2 0.4 1.4 0.1 0.2 0.2 0.3 1.1 1.3 0.2 0.2 0.6 1.4 0.2 0.5 0.1 0.2 1.3 1.6 0.1 0.1 0.1 0.5 0.1 0.3 0 0.3-0.1 0.7 0 0.3 0.1 0.2 0.1 0.1 0.5 0.2 0.1 0.1 0.2 0.1 0.1 0.1 0.1 0.3 0 0.2 0.1 0.3-0.1 0.3 0 0.3 0.1 0.1 0.1 0.2 0.2 0.2 0 0.2 0.1 0.2 0.1 0.4 0 0.7-0.1 0.2 0 0.2-0.1 0.1-0.3 0.1-0.3 0-1.1-0.2-0.3-0.1-0.1-0.1-0.2-0.2-0.3-0.3-0.4-0.3-0.2-0.1-0.2 0-0.2 0.2-0.2 0.4-0.6 0.8-2.3 0.9-0.5 0-0.1-0.2-0.1-0.1-0.1-0.1-0.2 0-0.2 0-0.3 0.2-0.4 0.4-0.6 0.4-0.5 0.5-0.2 0.4-1 1.3-0.4 0.2-0.1 0.2-0.1 0.1-0.1 0.4-0.1 0.2-0.2 0.2-1.5 1.2-0.1 0.1-0.1 0.1-0.2 0.2-0.3 0.1-0.7 0.2-0.3 0-0.3 0-0.1-0.1-0.5 0.1-3.3 1.8-0.8 0.1-0.2-0.1-0.5 0-2.4 0.5-1.4 0.1-0.2 0.2-0.2 0.2-0.3 0.7 0 0.4 0 0.3 0.4 0.5-0.3 0.5-2 1.2 0.1 1.4 0.6 2.9 0 0.5 0.1 0.2 0.1 0.2 0.1 0.1 0 0.2 0.1 0.1 0 0.7 0.2 0.6 0.7 3.4 0.1 0.1 0.1 0.3 0.3 0.2 0.3 0.4 0.3 0.6 0.2 0.6 0.2 0.4 0.1 0.2 0.1 0.4 0 0.1 0.1 0.2 0.1 0.1 0 0.2-0.1 0.2-0.2 0.2-0.2 0.1-0.2 0-0.7-0.1-0.3 0-0.3 0-0.6 0.1-0.7-0.1-0.2-0.1-0.1-0.1-0.3 0-1 0.2-1.2 0.6-0.6 0.6-0.1 0.2-0.1 0.3 0.3 1.3 0 0.2 0 0.3-0.3 0.4-0.1 0.2-0.2 0.2-0.1 0.1-0.1 0.6 0.2 2.6 1.5 1.3 0.4 0.3 0.9 0.3 0.8 0.2 1.3 0.4 2 1 0.4 0.1 0.8 0.4 0.3 0 0.2 0 0.2 0 0.5-0.2 0.1-0.1 0.4 0.1 1.7 1.3 0.4 0.2 0.2 0 0.2 0 0.1-0.1 0.4-0.4 0.3-0.3 0.1 0 0.2 0.1 0.4 0.3 0.5 0.8 0.4 0.2 0.2 0.2 0.2-0.1 0.2 0 0.1 0 0.2 0 0.2 0.1 0.1 0 0.1 0.1 0.6 0.8 0.2 0.3 0.1 0.4 0.1 0.2 0 0.3-0.1 0.2-0.2 0.3-0.3 0.3-0.2 0.4 0.1 1.2-0.2 1-1.4 0.1-0.8-0.1-0.4 0-0.3 0.1-0.2 0.1-0.3 0.2-0.2 0.5 0 0.1-0.3 0.2-1.2 1 0.2 1.1-0.2 0.6-0.1 0.2 0 0.2 0 0.3 0.2 0.4 0.2 0.2 0.5 0.3 0.1 0.1 0.1 0.1 0.1 0.1 0.6 1.1 0.2 0.6 0.1 0.2 0.1 0.1 0.1 0.1 0.2 0.1 0.2 0 0.1 0.1 0.2 0.1 0.1 0.3 0.2 0.2 0.2 0 0.4-0.2 0.1 0 0.1 0.1 0.1 0.2 0 0.2 0 0.3-0.1 1.2 0.1 0.4 0.1 0.8 0 0.2 0 0.2-0.1 0.2-0.4 0.2-0.3 0.1-1.6 0.1-0.2 0.4 0.3 0.7 0 0.2 0 0.3-0.1 0.2-0.2 0.2-0.2 0.2-0.1 0.1-0.1 0.2-0.1 0.2-0.1 0.7-0.1 0.8 0 0.4 0.5 2.3 0.3 1.1 0.2 0.3 0.1 0.2 0 0.1 1.6 4 0.3 0.5 0.2 0.3 0 0.2 0 0.2 0 0.4-0.4 0.5-1.2 1.1-0.4 0.2-0.2 0.2-0.1 0.1-0.4 0.6-0.1 0.2-0.3 0.3-0.9 0.5-0.1 0.1-0.1 0.1-0.1 0.2 0 0.2 0.1 0.3 0.1 0.4 0.1 0.4 0 0.5 0 0.2 0.1 0.1 0.4 0.2 0.1 0 0.1 0.1 0.1 0.2 0.1 0.1 0 0.2-0.1 0.2-0.1 0.3-0.4 0.4-0.2 0.3-0.2 0.4-0.2 0.3-0.2 0.3-0.4 0.3-0.3 0-0.2 0-0.3-0.2-0.2-0.1-0.2-0.1-0.2 0.1-0.2 0.1-0.3 0.3-0.1 0-0.2-0.1-0.1-0.1-0.2 0-0.2 0-0.1 0.1-0.1 0.2 0 0.4 0.1 0.3 0.9 1.8 2.4 3.1 0.2 0.9 0 0.1-0.1 0.4-0.1 0.2 0 0.2 0 0.1 0.2 0.2 0.2 0.2 0.6 0.2 0.3 0.1 0.2 0 0.9-0.3 0.3-0.1 0.2 0 0.6 0.1 0.4 0.2 0.2 0.2 0.3 0.4 0.6 1.3 0.3 0.5 1.8 2.2 0.6 1 0.6 0.4 0.3 0.2 0.3 0.2 0.2 0.2 0.2 0.2 0.2 0.3 0.1 0.3 0 0.4-0.3 0.5-0.2 0.3-0.7 0.3-0.2 0.2-0.2 0.4-0.1 0.4-0.3 0.3-0.2 0.1-0.6 0.2-0.2 0.2-0.3 0.1-0.3 0-0.2 0-0.3 0.1-0.3 0.2-0.2 0.2-0.1 0.2-0.1 0.3 0.1 0.3 0.2 0.3 0.8 0.5 0.3 0.1 0.5 0.2 0.5 0.2 0.2 0 0.3 0 0.5 0.1 0.2 0 0.3-0.1 0.3 0 0.4 0.2 0.3 0.4 0.6 1.2 0.1 0.5 0 0.3-0.3 1.1-0.2 0.4-0.2 0.3-0.1 0.1-0.5 0.4-0.4 0.5-0.1 0.1-0.1 0.3-0.1 0.1-0.2 0.1-0.6 0.3-0.5 0.1-0.1 0.1-0.4 0.3-0.1 0-0.2-0.1-0.2-0.3-0.1-0.2 0.1-0.2 0-0.1 0.1-0.2 0-0.1-0.1-0.2-0.8-0.2-1-0.2-0.9-0.4-0.9-0.1-4.9 0.4-3-0.2-1.2 0-0.7 0.1-0.3 0.1-0.2-0.1-0.3-0.1-0.8-0.2-2.6 0-0.4-0.1-0.3-0.2-0.1 0-0.2 0.1 0 0.2-0.1 0.3-0.1 0.2-0.1 0.3-0.1 0.6-0.1 0.2-0.1 0.2-0.8 0.3-0.1 0.1-0.5 0.5-0.4 0.3-0.3 0.1-0.2 0-0.5-0.2-0.2-0.1-0.2-0.2-0.1-0.1-0.3-0.2-0.2-0.2-0.2-0.2-0.1-0.1-0.1-0.1-0.3-0.1-1.9-0.3-0.5-0.1-0.4-0.2-0.4-0.3-0.1-0.1-0.7-0.3-0.1-0.1-0.5-0.1-0.5-0.2-0.3 0-0.3 0-0.2 0.1-1 0.2-0.3 0.1-0.1 0.1-0.1 0.1-0.1 0.1-0.1 0.2 0 0.3-0.2 0.3-0.4 0.2-1.1 0.1-0.3 0-0.3-0.2-0.3-0.1-0.1-0.1-0.5-0.3-1.2-0.2-1.1-0.4-1.1-0.9-0.4-0.4-0.2-0.4-0.3-1.5-0.3-3.5 0.5-1.9 0.5-1.1 0.2-0.3 0.4-0.3 0.3-0.4 0.3-0.9 0.1-0.5 0-0.3 0-0.2-0.1-0.1-0.1-0.2-0.1-0.1-0.1-0.2-0.1-0.4 0.1-0.3 0.7-1.3 0.1-0.4 0.2-0.7 0-0.3 0.2-0.2 0.3 0 0.2-0.1 0.4-0.4 0.1-0.2 0-0.2-0.1-0.2-0.1-0.3-0.1-0.2 0-0.2-0.1-1.1 0-0.2 0-0.1-0.2-0.3-0.2-0.3-0.3-0.3-0.1-1.7-0.3-0.9-0.1-0.2-0.4-0.2-0.3-0.3-0.1-0.2 0.1-0.2 0.6-0.9 0.1-0.1 0.2-0.4 0.1-0.4 0-0.2-0.3-1.3 0.9-0.7 0.1-0.2 0.1-0.2 0-0.5 0.1-0.6 0.8-1 0.2-0.3 0.1-0.5-0.1-0.3-0.1-0.1-0.6-0.3-0.2-0.2-0.2-0.2-0.1-0.2-0.1-0.2-0.2-1.5-0.1-0.2-0.1-0.1-0.2-0.3-0.2-0.5-0.1-0.1-0.1-0.2-0.1-0.3-0.2-1.1-0.1-0.1-0.2-0.4-0.2-0.3-0.1-0.1-0.3-0.5-0.6-2.1-0.2-0.7 0.1-0.2 0.2-0.2 0.2-0.3 0.4-0.6 0.1-0.4 0-0.2-0.4-1.2-0.3-0.5-0.2-0.8-0.4-2-0.5-1.5-3.8-7.1-0.3-2.1-0.2-1.7-0.1-0.5-0.5-0.6-0.1-0.2-0.2-0.1-0.7-0.3-1.9-0.3-1.7-0.1-0.4 0.1-0.7 0.1-0.5 0.3-1 1-0.5 0.5-1.8 0.6-2.1 0.6-1.1 0.5-1.8 1.6-0.4 0.2-0.7 0.2-1.2-0.1-0.6 0-1.3 0.4-0.6 0.3-1.7 1.5-0.4 0.5-0.5 2.1-0.3 0.7-0.3 0.2-0.3 0.1-0.4-0.2-0.3-0.4-1.2-2.2-0.2-1 0-1.2 0.2-0.7 0.2-0.8 0-0.5-0.5-3-0.1-0.6 0.2-0.5 0.4-0.9 0.2-0.3 0.2-0.4 0.1-0.8 0.1-0.5-0.1-0.3-0.1-0.2-0.3-0.5-1.1-1-2.2-1-0.1 0-2.3 0.1-1-0.2-1.1-0.4-1.8-1-1.2-1.1 0.1-0.6-1.1-0.4 0.2-0.9-0.1-2.1-0.8-4.1 0-2.2 0.1-0.9 0.3-1.1 0.5-0.9 0.6-0.5 0.5-0.4 0.2-0.2 0.3-0.1 0.2 0.1 0.2 0 2.1 0 3-0.9 0.5-0.3 0.1-1.2 0.6-1 0.9-0.8 1.2-0.1 0.4 0.1 0.6 0.4 0.3 0.1 1.9-0.3 1.1-0.3 0.7-0.8 1.5-1.9 3-2.5 0.6-0.9 0.1-0.1 0.2-0.2 0.2-0.2 0.3-0.1 0.4-0.1 0.4 0.1 0.4 0 0.4-0.7 0.4 0.1-0.3-3.6 0.1-0.4 0.5-2.5 0.2-0.6z" id="MM04" name="Mandalay">
  </path>
 </g>
 <g id="points">
  <circle class="10.727855885115584|92.62491688702599" cx="315.5" cy="911.2" id="0">
  </circle>
  <circle class="18.224967137232905|97.12435800420504" cx="520.5" cy="558.1" id="1">
  </circle>
  <circle class="27.596356202379557|100.72391089794827" cx="684.5" cy="93.8" id="2">
  </circle>
 </g>
 <g id="label_points">
  <circle class="Rakhine" cx="365.6" cy="458.6" id="MM16">
  </circle>
  <circle class="Chin" cx="355" cy="383.9" id="MM14">
  </circle>
  <circle class="Kachin" cx="525.4" cy="172.5" id="MM11">
  </circle>
  <circle class="Sagaing" cx="433.8" cy="273.3" id="MM01">
  </circle>
  <circle class="Shan" cx="567.5" cy="412.1" id="MM17">
  </circle>
  <circle class="Kayah" cx="531.3" cy="509.8" id="MM12">
  </circle>
  <circle class="Kayin" cx="556.2" cy="619.1" id="MM13">
  </circle>
  <circle class="Mon" cx="559.4" cy="698.4" id="MM15">
  </circle>
  <circle class="Tanintharyi" cx="609.6" cy="843.4" id="MM05">
  </circle>
  <circle class="Ayeyarwady" cx="432.8" cy="621.7" id="MM07">
  </circle>
  <circle class="Yangon" cx="475" cy="615.1" id="MM06">
  </circle>
  <circle class="Bago" cx="470.9" cy="549.4" id="MM02">
  </circle>
  <circle class="Magway" cx="424.7" cy="477.9" id="MM03">
  </circle>
  <circle class="Mandalay" cx="460.4" cy="414.1" id="MM04">
  </circle>
 </g>
</svg>