<?xml version="1.0"?>
    
<!--********* Copyright (c) 2024 Pareto Softare, LLC DBA Simplemaps.com ***************************************
************* Free for Commercial Use, full terms at  https://simplemaps.com/resources/svg-license ************
************* Attribution is appreciated! https://simplemaps.com *******************************************-->

<svg baseprofile="tiny" fill="#6f9c76" height="893" stroke="#ffffff" stroke-linecap="round" stroke-linejoin="round" stroke-width=".5" version="1.2" viewbox="0 0 1000 893" width="1000" xmlns="http://www.w3.org/2000/svg">
 <g id="features">
  <path d="M558.8 808.8l-10.4-6-15.7-5.4-24.6-9.1-9-3.8-16.4-6.1-7.5-6.8 43.9-90.6 3.3-5.7 0.5-0.6 0.8-0.7 2.8-1.4 3.7-2.6 1.6-0.9 1.2-0.5 0.9 0.3 0.4 0.2 0.9-0.1 3.4-1.3 1.1-0.7 0.6-0.4 0.6-1.1 0.9-1.1 1.3-1.4 0.2-0.3 0.2-0.4 0.3-0.4 0.7-0.9 0.4-0.5 0.2-0.8 0-0.2 0.5-1.2 2.7-4.3 7.9-1.7 4.6-3 12.1-11.2 0.6-0.9 0.8-0.3 1-0.1 13.5 0.1 3.7-0.6 0.8 0 1.6 0.4 0.7 0.1 2.8-0.3 0.6 0.1 0.7 0.1 0.9 0.4 2 0.4 7.1 0.3 3.7 12.9 2.7 5 1.5 1.3 1.2 1.2 0.4 1.2-0.2 2.3 0.3 4.8 1.9 4.8 1.9 5.8-0.1 1.6-0.3 2-1.8 4.3-2.6 9-0.6 3.6 0 2.5 1.3 7.2 0.7 7.2 12.2 4.5 5.3 3.3 14.6 9.1 2.8 2.9 1.1 2.5 0.2 2.3 0.3 2.4 1.4 2.9 1.7 1.7 1.7 1.2 8.6 4.5 7.2 5.2 5.2 5.2 1.6 2.1 3.7 6.2 1 1.1 0.7 0.5 0.6 0 0.6 0.1 0.7 0.3 1.2 0.7 0.5 0.2 1 0.3 1.4 0.5 0.5 0.1 0.5 0 1.8-0.2 1.2 0 0.5 0 1.2 0.3 3 1.2 2.3 0.8 5.8-0.8 1.2 0.1 0.6 0.4-0.2 1 0 0.6 0.1 0.4 0.2 0.4 2 2.1 1.8 1.5 1 0.5 0.7 0.1 1.6-0.8 1.2-0.3 0.4-0.1 0.8-0.5 0.4-0.3 0.9-0.5 0.7-0.2 1.3-0.3 1.1 0.2 1.8 0.7 0.8 0.1 0.7 0 0.4-0.3 0.5-0.1 0.4-0.2 0.4-0.3 1.5-0.6 1.7-0.2 0.9-0.2 2.6-1.3 0.5 0.2 0.3 0.3 0.1 0.6-0.3 3.4 0 0.6 0.2 1 0.2 0.5 0.6 0.8 0.6 0.6 0.3 0.4 0.2 0.4 0 0.6 0.1 1.2 0.1 0.7 0.3 0.8 0.8 0.9 0.6 0.4 0.6 0 0.4-0.2 0.4-0.2 0.4-0.3 1.3 0 2.1 0.2 7.2 1.4 1.4 0.4 0.4 0.3 0.6 0.6 3.4 4.4 2.6 4.4 4.8 5.1 3.1 2.5 1.5 4 3.2-0.6-0.7-2 1.4 0.4 1.5 3.2 0.4 0.2 0.3 1.1-0.5 2.5 1.8 1 0.1 4.1 1.7 6.6-0.5 5.1-6.5 3.3-12 2.9-1 0.2-12.1 4.6-3.8 4.5-0.7 0.4-5-1-1.2 0.4-2.6 1.8-1.7 0.3-1.8-0.2-1.2-0.6-11-8.8-0.9-3.2-2-1.4-2.5 0.5-2.1 2.1-3.2-0.7-4.5 2.9-2.2-2.2-1.3 0-2.1 1.6-2.1-0.8-3.4-3.3-2.2 0.4-1.6-0.3-1.3-0.2-2.9 0-2 1.5-1-1.3-4-3.2-0.4-0.7-0.8-0.8-0.3-1 0.8-1.5 0.7-0.5 2.6-1.3-0.7-4.5-3.2-2.7-3.5-1.8-1.6-1.8-1.9-1.3-8.6-3.3-1.9-1.8-0.5-1.3-2.4-3.1-0.9-1.4-0.3-2.3 0-1.9-0.4-1.4-1.8-0.9-1.5 1-9.9 6.4-1.7 0.8-2-0.2-2-0.8-1.6-0.9-1.6-1.4-4.2-5.2-0.7-0.5-0.9-0.5-1-0.4-1-0.3-9.1-4-4.2-1.4-4 0.2-3.2-0.4-6.9-5.1-3.3-1.4-5.7 1.4-13.6 9-18.9 12.5z" id="NISJ" name="Rio San Juan">
  </path>
  <path d="M807.2 418.1l-3.4 0.5-9.2-0.6-7.4 0.3-3.4-1.1-18-10.5-13.8-10.1-0.8-0.8-0.5-0.8-0.2-1 0.1-1.1 0.4-1.1 0.7-1 3.4-4.3 0.7-1.1 0.4-1.1 0.1-1.1-0.7-0.8-1.4-0.8-3.1-0.8-1.9-0.8-1.5-0.9-1.8-0.8-3.6-0.5-14.8-0.6-2.8-0.3-0.7-0.5-2-0.3 1.1 2.2 0.2 1.9-0.7 0.8-1.7-1.1-1.3 0-1.6 1-0.9-0.1-1.2-0.9-1.5 4-2.2 0.5-2.8-1.1-3.5-0.7 0.9 1 1 1.9 0.6 0.9-2.9-0.6-4.4 1.3-1.6-0.7-1.2-0.3-1-1.2-0.7-1.3-3.6-11.2-0.5-0.9-1.4-0.4-2.5 0.4-11 3.1-1.8 0-2.2-0.6-1.2-0.8-1.2-0.6-1-0.2-1.3-0.2-1.2 0.1-1.4 0.4-1.9 1.3-2.3 2.5-2.3 0.8-3.6 0.5-25.6 0.1-47.3 5.8-3.4-5.1-18.3-23.3-1.1-1.9-0.6-0.7-0.8-0.2-16.6 15.5-1.6 0.7-2.9 0.3-12.1-0.3-6.1 0.6-4.7 2.8-2.4 3.3-1.5 3.4-2.1 6.6-2.3 4.7-1.6 1.9-1.8 1.3-5.2 2.5-4.8 1.2-2-0.3-5.6-2.4-1.3-1.8-2.2-0.3-0.3-0.4-0.3-1.7-0.3-0.6-0.7-0.4-2.5-1.3-1.4-1-0.8-0.2-0.6 0-1 0.3-1.1 0.1-0.6 0-0.5-0.1-0.5-0.2-0.4-0.2-5.2-4.9-1-0.8-0.9-0.5-2.5-1-3.6-3.6-9.3-12.6-3.9-8.6 0.1-6.7 1-2.4 5.7-5.1 9.9-6.5 2.1-1.7 0.6-1.4 0.2-1.8-0.1-0.9 0.1-3.4 1.9-5.9-0.2-1.8-0.9-2.5-1.3-2.1-1.4-3.2-0.2-1.7 0.3-1.2 1.9-1.2 1.3-1.5 1.5-2.3 1.6-4.5 0.9-1.7 0.9-1.1 14.7-2 0.4-0.1 22.4-14 0.7-0.2 17.5 8.1 0.8-0.4 0.9-0.9 23.3-37.4 11.1-18.8 1.7-3.7 0.4-2.2-1.7-6.9 0.6-8.8 4-21.6 0.3-4.6-0.5-2.6-16.4-1.1-1.3-0.3-0.9-0.6-2.7-3.2-3-2.9-3.5-4.5-0.5-1.4-0.1-1.2 0.4-1.3 1.4-2.6 0.2-0.9-0.2-4.1 0.3-1.2 2-3.6 0.4-1.8-0.3-1.5-0.7-1.2-0.8-0.7-2.7-1.5-2.5-2-0.3-0.4-0.1-0.6 0.1-1.8-0.1-1.6 0.1-1.1 0.4-2 0-0.8 0-1.1 0.3-1.2 1-2.7-0.1-1.2-0.3-1.2-0.4-0.8-0.4-0.7-0.6-0.5-0.5-0.3-1.3-0.3-0.9-0.1 0.2-0.6-4.7 0 1.1-1.5 4-3.8-5.2-3.7-1-1.8 2.9-0.8 1-0.5 0.6-1.1 0.9-7 1.6-3 2.5-2.4 0.4-0.2 2.9-1.9 3.3-2.4 8.4-8.2 3-1.7 10.9-2 4.9-0.2 4.7 1.4 4 3 2.7 4.5-0.5 0.5-1.5 1.9-0.1 0.4 3.7 0.4 0.5 2.3-0.2 2.5 3.7 2.6 2 3.2 2.7 6.5 3.4-2.1 3.5 0.4 7.1 3.1 4.1 0.9 13.4 0.4-0.7 1.3-0.5 3.7 2.8-0.9 1.9 1.1 1.9 1.7 2.8 0.8 2.1-0.6 4.7-2.6 6.8-2.5 3.4-4.1 2.6-4.8 2.4-3.6 1.8 1.8 1.3 4.9 1.4 1.1 2.8 0.2 4.4 1 2 0.2 3.8-2 0.9-4.2-0.9-8.9 1-2.2 2.3-0.2 2.5 0.9 1.7 0.9 1.4 1.2 4.3 4.7 2.3 0.9 2.7-0.2 4.4-1.3 1.1-0.6 0.8-0.9 0.9-0.8 1.7-0.4 1.5 0.3 0.9 0.4 0.7 0.1 1.3-0.8 0-1.4-1.6-1.6-1.3-1.7-2.1-4.5 2-1.6 1.3-0.1 4.2 2.6 0.5 0.9 0.7 0.7 1.9 0.2 3.1-0.1 1 0.6 0.3 1.4 3.2 0.4 18.1-1-1-1.5 0.1-1.8 0.9-4.3 2.2 1.2 3 3.2 2.3 0.6-0.2-0.8-0.9-1.7 1.3 0.5 0.7 0.2 0.7 0.5 1 1.3 2.2-2 3.3-1.8 3.6-1.2 3.4 0-1.4-1-0.9-0.9-1.3-2.2 10.2-0.7 3.8-1.4-0.4-3 2.4-0.1 1.8 0.2 1.4 0.9 0.7 1.6 1.4 0-1.8-5.4 0.7-2.2 3.4-1.6 3.7-0.5 4 0.2 3.4 1 1.6 2 1.3 0 0.8-2.3 0.4-2.5 0.9-2.1 4.5-1.7 4.6-3.7 2.6-0.7-0.3-0.7-0.5-1.4-0.4-0.5 2.7 0.8 1 0.5-0.6-2.6 0.3-2.2 1-0.8 1.8 1.7 0.1-2.9 0.3-1.2 1-1.2-1.3-1.9 0.7-0.9 1.8-0.2 2.4 0.4 1 0.9 2.2 3.5 1.7 0.9 4.3-0.5 3.7-2.2 2.9-3.2 1.7-3.3 2.3 1.8 2.4 1 1.9 1.2 0.9 2.5 2.8-1.9 3.2-0.2 8 0.9-2.1 1.1-0.2 1 1.4 0.9 2.2 0.9 0.7-0.1 8.2 0.1 4.8-2.2 2.6-0.5 6.1 0.3 2.5-0.4-1.4 2-3.3 1.6-1.7 1.7-2.7-3.2-2.2 2.3-1.8 4-1.3 2.1-2.4 1.2-2.2 2.7-1.6 3.2-0.7 2.6-0.5 0.9-2.3 2.3-1 1.4-0.4 1.8-0.4 4.1-0.4 1.8-1.5 2.4-2.2 1.7-6.3 2.5 0.4-1.1 0.5-0.9 1.6-1.9 0 1.5 0.6-1.1 0.4-0.9 0.1-0.9 0-1.3-1.4 0.9-0.6 0.2-1.6-1.1 0-1.1 2.2-1.1 2.1-0.2 1.8 0.6 1.4 1.8-0.1-3.5-2-4.9-0.5-3.9-1.2-3.8-2.6-0.6-2.9 1.1-2.2 1.4-3.6 3.4-8.1 10.5-2 4.5 1.8-1.9 0.6-0.9 2.6 2.1 2 7.7 1.2 1.8 2.4 1.4 2.6 2.6 2.8 0.9 2.8-3.5-1.3-1.2-3.4-2.1-1.5-0.6 2-1.2 2.2 0.7 1.9 1.8 1.5 2.6-0.1-4.3 1.3-1.4 1.6 1.7 7.2 33.2 0.4 1 1.7 3.6 1.5 9 8.9 25.9 1 7.5-0.9 6.4-5 12-15.2 24.6-6.6 8-0.9 3.2-1.3 2.3-8.7 6.1-3.7 5.2-2.6 6.1-4.4 17.5-7 23.8-4.4 21.5 0.3 9.3-0.8 4.5 0 3.6-3.8 9.3-3.3 12.5-2 24.2 0.3 4.6 1.3 2.6-1.3 1.2 1 2.3 6.1 37.2z m139.7-260.6l3-1.5 2.4 0 1.6 1.6 0.6 3.1-1.2 5.2-3.4 1.6-9.7-0.9-0.8-0.1 0.7 0 0.1 0 0.4-0.1 0.2-0.4 0-0.8 2.9-1.6 1.2-2.2 0.7-2.1 1.3-1.8z" id="NIAN" name="Atlántico Norte">
  </path>
  <path d="M533.4 121.8l0.9 0.1 1.3 0.3 0.5 0.3 0.6 0.5 0.4 0.7 0.4 0.8 0.3 1.2 0.1 1.2-1 2.7-0.3 1.2 0 1.1 0 0.8-0.4 2-0.1 1.1 0.1 1.6-0.1 1.8 0.1 0.6 0.3 0.4 2.5 2 2.7 1.5 0.8 0.7 0.7 1.2 0.3 1.5-0.4 1.8-2 3.6-0.3 1.2 0.2 4.1-0.2 0.9-1.4 2.6-0.4 1.3 0.1 1.2 0.5 1.4 3.5 4.5 3 2.9 2.7 3.2 0.9 0.6 1.3 0.3 16.4 1.1 0.5 2.6-0.3 4.6-4 21.6-0.6 8.8 1.7 6.9-0.4 2.2-1.7 3.7-11.1 18.8-23.3 37.4-0.9 0.9-0.8 0.4-17.5-8.1-0.7 0.2-22.4 14-0.4 0.1-14.7 2-0.9 1.1-0.9 1.7-1.6 4.5-1.5 2.3-1.3 1.5-1.9 1.2-0.3 1.2 0.2 1.7 1.4 3.2 1.3 2.1 0.9 2.5 0.2 1.8-1.9 5.9-0.1 3.4 0.1 0.9-0.2 1.8-0.6 1.4-2.1 1.7-9.9 6.5-5.7 5.1-1 2.4-0.1 6.7-10.2 6.7-3.6 1.4-4.3 0-3.8 2.6-2.6 3-2.7 4.3-3.2 5.5-13.3 15.8-6.9 6-2 1.1-8.5 7.4-10.4 9.8-4 2.9-1.8 0.6-2.4 0.3-6.6-0.2-2.2 0.3-0.9 0.5-2.4 2.9-6.3-4.8-2.9-2.9-2.6-1.6-1.7-0.7-2.5 0.1-0.9-0.1-2.9-3.5-8-4.7-13.8-13.9-1.3-2-1.2-2.6 2.1-3.6 0.6-3.1-0.5-2.4 2.7-7.8-1.7-8.1 0.1-4 0.5-3.2 1-2.9 1.6-2.8 6.7-7.2 3-2.7 2.9-0.5 2.6-0.1 2.3 1 1.7-2.1 7.1-5.7 1.8-2.1 1.8-2.2 2-0.8 1.9 2.4 1.8-0.8 9.6-0.8 3.2 0.2 2 1.2 1.6 1.4 1.7 0.9 2.4-0.3 1.3-0.9 3.1-4.4 4.1-3.1 3.3-1.7 2.1-2.4-0.4-11.2 0.6-4.7 1.7-4.4 5.3-9.1 0.8-2.3 0.5-2.5 0.3-8.9 1.1-3.1 1.8-2.2 4.4-2.7 0.1 0.1 0.4-0.4 1.3-1.2 1.5-3 0.4-2.9-1-2.2-2.8-0.9-0.7-1.6 0.8-3.7 1.8-5.6 0.2-4.2 0.9-1 1.9 0.4 3.3 0.3 2.3-1.1 3.7-3.3 1.6 0.5 1.1 0-0.1-0.9 0.3-0.2 0.5 0 0.6-0.2-0.6-2 6.4-2 1.8-1.8 1.7-2.6 4-1.4 1.6-0.3 3-0.5 3.4-1.1 1.8-2.6 0.4-3 1-2.5 6.6-1.9 3.1-1.8 4.8-3.7 2.1-2.7 2-3.6 1.5-3.6 1.4-4.8 1.7-3 2.1-2.8 1.8-1.7 0.8-0.1 2 0.3 0.7-0.2 0.5-0.6 0.6-1.4 1.3-1.6 0.7-1.2 1-1.1 1.7-0.4 4.4-2.2 1.9-0.4 6.9 0 4.6-0.8 4.6-1.5 3.7-2.3 2.1-3.2-0.1-4.3-2.4-3.7-3.3-3-2.9-2 5-3.9 0.2-1.2-0.4-2.9 0.2-1.2 4.2-4.5 0.7-1.2 0.4-9.6 0.7-5.2 1.5-2.7 3.3 0.8 3 3.3 3.1 2.3 3.9-1.8 6.5-6.6 1.1-2.6z" id="NIJI" name="Jinotega">
  </path>
  <path d="M401.5 269l-4.4 2.7-1.8 2.2-1.1 3.1-0.3 8.9-0.5 2.5-0.8 2.3-5.3 9.1-1.7 4.4-0.6 4.7 0.4 11.2-2.1 2.4-3.3 1.7-4.1 3.1-3.1 4.4-1.3 0.9-2.4 0.3-1.7-0.9-1.6-1.4-2-1.2-3.2-0.2-9.6 0.8-1.8 0.8-1.9-2.4-2 0.8-1.8 2.2-5.5-6.7-4.1-7.2-1.8-2.3-1.5-1.5-6.3-5.2-3.6 1.2-4 1.6-0.5 0.9-0.6 1.2-1.1 5.4-1.7 2-5.5-2.5-3.6-2.2-2.8-0.8-2.2-0.3-7.6 1-5.9 0.1-10.2-3.4-13.2-0.2-1.8 0.2-4.1 1.1-1.9 1.8-2.9 1.4-2.2-2-2.1-1.2-3.1-1.2-2-1.4-1.7-1.8-0.8-1.6-3.6-5.4-12.8-2.4-4.1-0.1-0.8 0.7-0.6 0.6-1.4 1.9-1.5 1.1-0.8-0.5-0.7-1-0.3-1.7 0.5-10.1 0.2-3.2 0.4-2.7 0.3-1.1 0.9-0.8 2.1-1.5 4.1-2.1 3.9-0.3 8 1 14.9-2.9 7.3-0.4 6 3.4 3.3 0.9 2.6-0.9 2.5-1.3 2.7-0.3 2.9 2.9 1.1 0.8 1.7 0.6 1.3 0.2 9.4-0.6 3.4-0.9 2.7-1.3 2.2-2.4 1-2.9 1.5-5.6 2.9-4.6 12-12.9 6.3-10 1.9-1.2 2.2-0.9 2.2-1.1 2.1-2.3 1.4-2.4 0.7-1.8 0.9-1.7 2.1-1.8 2.5-1.3 14-2.1 0 2.1-2 4 0.5 5 13 9.5 3.9 5.2 1.3 1.2 2.5 0.9 1.7-0.4 1.7-0.7 2.5-0.1 4 1.7 2.1 3.3 1.8 3.9 3 3.5 4 1.5 4.3-0.2 3.7 0.3 2.5 2.8 0.3 0.1z" id="NINS" name="Nueva Segovia">
  </path>
  <path d="M220.1 373.7l0.2 0.4 3.5 0.7 1.1 0.8 0.5 1.6 0.2 1.4-0.1 1.1-0.2 1.1-0.2 0.4-1.7 5.4-1.9 1.7-0.2 0.2-0.5 1.7-0.6 5.9 2.1 11.2 1.8 6.4 3.9 9 2.5 4 2.3 5.3 1.7 22.7-0.6 5.9-2.3 5.3-3.2 2-1.5 0.6-2.6 0.6-13.2 1.8-2 1.1-1.3 1.3-2.6 4.9-3.5 4.3-3.6 1.6-4.5 4.9-4.6 5.1-3.6 3.4-0.7 1.2-1.4 3.7-3.7 6-9.5 9.9-1.8 1.1-3.1 1.8-3.1 1.4-9 1-4.1 2.4-0.3-0.3-2.4-1.9-2.5-0.8-1.6-1.2-4.1-7.9-1.2 0 1.9 7-3-2.6-4.8-6.1-3.5-3.4-2.3-1-11.4-8.9-1.5-1.6-0.9-1.9-1-3.3-0.5 1.1-1.4 1.7-0.6 1-20.1-23.5-2.4-4.9 0.8 0.9 0.8 0.5 2.2 1.2 0-1.2-0.9-0.3-1.6-1.1 0-1.1-0.5-1.9-3.1-2.6-4.1-2.3-3.7-0.9 0 1.1 4.9 3.2 2.5 2.4 0.1 2.1-1.9-0.2-2.7-2.1-4-4-21.5-12.9-4.5-4-2.7-4.7 0-5.5 3.4-6.5 5.2-4.5 5.3-3.4 3.8-4.1 0.9-7.3 1.2 0-0.5 4.1-0.7 1.1 2.1 0 2.5 0.3 2.1 0.7 0.9 0.9 0.8 0.5 4.7 4 1.1 0.7 3.4 4.4 0.8 0.7 2.3 1.4 0.6 0.5 0.2 1.2-0.4 2.9 0.2 1.2 6 6 7.8 1.7 18.9-1.2 0-1.4-9.6 0.2-4.8-0.5-2-1.7 1.8-3 8.9-4.4 1.2-0.9 42-2.7 2.7 0.3 4.3 2.6 2.1 0.2 1-3.1 3.8-1.9 4.7-2.9 2.1-2.3 4.3-6.7 1-0.9 2.7-1.3 1-1 0.5-1.8-0.8-0.7-1-0.5-0.4-1.1 1.5-9.9-0.3-0.5-1.4-3-0.3-1.1 0.3-0.5 1.3-5.3 1.3-2.6 1.5-1.8 8.8-7.6 2.4-1.7 3-0.8 3.1 0.2 10.6 5.3 1.7 0.5 1.7-0.5 1.3-0.9z" id="NICI" name="Chinandega">
  </path>
  <path d="M343.5 331.4l-1.8 2.1-7.1 5.7-1.7 2.1-2.3-1-2.6 0.1-2.9 0.5-3 2.7-6.7 7.2-1.5-2.5-1.8-4.2-0.7-1.2-3.5-1.1-10.2 0.5-14 4.5-7.8 1.3-7.8-3.7-2.7-1.3-1.9-0.6-4.9 0.7-7.3 6.4-7.5 13.2-1.6 3.3-3.4 4.9-15.4 15.6 1.7-5.4 0.2-0.4 0.2-1.1 0.1-1.1-0.2-1.4-0.5-1.6-1.1-0.8-3.5-0.7-0.2-0.4 1.4-0.9 2.5-2.3 1.4-2.5 0.4-2.9-1.1-5.4-0.4-1.1-1.3-2.4-1.2-1.1-1.2-0.3-1.1-0.5-0.7-1.9 0.3-2.7 2.3-5.2 0.3-3-5.9-22.6-0.1-3.2 1.1-6-0.1-3-0.7-1.2-1.6-1.3 1.5-1.1 1.4-1.9 0.6-0.6 0.8-0.7 4.1 0.1 12.8 2.4 3.6 5.4 0.8 1.6 1.7 1.8 2 1.4 3.1 1.2 2.1 1.2 2.2 2 2.9-1.4 1.9-1.8 4.1-1.1 1.8-0.2 13.2 0.2 10.2 3.4 5.9-0.1 7.6-1 2.2 0.3 2.8 0.8 3.6 2.2 5.5 2.5 1.7-2 1.1-5.4 0.6-1.2 0.5-0.9 4-1.6 3.6-1.2 6.3 5.2 1.5 1.5 1.8 2.3 4.1 7.2 5.5 6.7z" id="NIMD" name="Madriz">
  </path>
  <path d="M558.8 808.8l-4.3 1.6-4.2-0.5-29.6-11-26.3-9.8-6.6-2.4-24.8-9.2-18.5-6.9-5.9-3.4-5.2-4.6-5.3-2.8-6.1 2.6-5.1 7-3.4 7.3-4.4 7.2-0.1 0-9.2-3.8-3.5-0.6-2.6-1.4-1.5-3.3-1.7-6.8-3.3-5-19.6-22-1.6-1.2-0.8-0.4-2.9-2-0.6-0.8-6.3-1.8-2.9-2.6-6.1-7.5-4.9-2.6-6.3-6.6-7.9-4.6-2.7-2.4-0.7-1.5-1.6-5 0-0.1 5.3-9.7 1.2-2.3 0.6-0.7 6.4-4.3 4.3 1.1 1.4-0.2 0.6-0.6 5.1-2.6 0.7-0.5 2-3.3 2.9-6.2 0.5-0.5 0.5-0.3 0.5-0.1 0.3 0.1 0.9 0.2 0.8 0.5 0.7 0.7 1.8 1.9 0.9 0.3 8.1-2.1 6-1.8 68.1 0.3 77.2 9.2-43.9 90.6 7.5 6.8 16.4 6.1 9 3.8 24.6 9.1 15.7 5.4 10.4 6z" id="NIRI" name="Rivas">
  </path>
  <path d="M772.6 809.5l-3.1-2.5-4.8-5.1-2.6-4.4-3.4-4.4-0.6-0.6-0.4-0.3-1.4-0.4-7.2-1.4-2.1-0.2-1.3 0-0.4 0.3-0.4 0.2-0.4 0.2-0.6 0-0.6-0.4-0.8-0.9-0.3-0.8-0.1-0.7-0.1-1.2 0-0.6-0.2-0.4-0.3-0.4-0.6-0.6-0.6-0.8-0.2-0.5-0.2-1 0-0.6 0.3-3.4-0.1-0.6-0.3-0.3-0.5-0.2-2.6 1.3-0.9 0.2-1.7 0.2-1.5 0.6-0.4 0.3-0.4 0.2-0.5 0.1-0.4 0.3-0.7 0-0.8-0.1-1.8-0.7-1.1-0.2-1.3 0.3-0.7 0.2-0.9 0.5-0.4 0.3-0.8 0.5-0.4 0.1-1.2 0.3-1.6 0.8-0.7-0.1-1-0.5-1.8-1.5-2-2.1-0.2-0.4-0.1-0.4 0-0.6 0.2-1-0.6-0.4-1.2-0.1-5.8 0.8-2.3-0.8-3-1.2-1.2-0.3-0.5 0-1.2 0-1.8 0.2-0.5 0-0.5-0.1-1.4-0.5-1-0.3-0.5-0.2-1.2-0.7-0.7-0.3-0.6-0.1-0.6 0-0.7-0.5-1-1.1-3.7-6.2-1.6-2.1-5.2-5.2-7.2-5.2-8.6-4.5-1.7-1.2-1.7-1.7-1.4-2.9-0.3-2.4-0.2-2.3-1.1-2.5-2.8-2.9-14.6-9.1-5.3-3.3-12.2-4.5-0.7-7.2-1.3-7.2 0-2.5 0.6-3.6 2.6-9 1.8-4.3 0.3-2 0.1-1.6-1.9-5.8-1.9-4.8-0.3-4.8 0.2-2.3-0.4-1.2-1.2-1.2-1.5-1.3-2.7-5-3.7-12.9-1-3.2-1.3-2.4-0.2-0.6-0.1-0.8 1.4-1.3 7.2-3-23.4-11.3-1.3-1.9-11.6-29.4-2.5-11.2-0.2-6.2 1.1-4.2-0.5-2.8-6.5-11.6-1.1-1.2-1.3-1.1-1.3-1.4-1.3-2.2-1-3.1-0.8-6.1 0.3-3.1 0.5-2.4 1-2.5 0.3-1.1-0.4-1.3-1.2-1.9-2.4-2.4-3.8-5.8-4-9-1.1-1.8-5.3-4.9-4.4-6.4-1-1-2.1-1.1-0.2-0.6-0.1-0.9 0.6-2.9-0.3-3.4-0.8-2.4-1.6-3-1.1-1.3-1.1-1-1.6-0.9-1.5-2.3-0.9-0.4-5.3-4.1-3.4-1.8-3.5 0.1-3.5 3.1-0.9 2.3-0.7 5.2-0.8 2.8-0.5-0.1-1.5 1-1.3 1.1 0 0.6-0.6 0.3-2.4 2.4 1.8 3 0.2 2.8-1.4 1.4-3.1-0.9-4.8-10.3-1.4-6.3-0.8-2.1-1.8-3.6-0.2-1.8 0.4-1.8 0.7-1.5 1.2-1.2 1.6-0.9 2.7-0.2 2 0.3 2.2 0.1 1.8-0.6 2.1-1.9 0.6-1.8 0-3 0.6-0.9 1.9-0.3 1.5 0.4 3.3 0.9 2 0.3 2.2-0.1 2.6-0.5 5-1.5 1.8-0.2 10.9 1.9 2.4 0.7 0.7-0.8 2.2-1.5 1.2-1 1.8-2.9 1.3-3.1 3.7 0.7 4.2-2.8 3.8-3.7 2.7-1.9 2.2-0.2 3.5-1 2.5-0.1 2.3 0.6 1.1 0.8 1 0.1 1.9-1.5 1.1-0.4 0.7 0.2 0.6-0.2 0.3-2.8 0.8-1.9 0.2-0.6 0.2-2.7 1.2-6.3 0.7-1.6 3.9-4.3 0.1-0.1 1.2-0.9 0.7-0.5 0.1-0.1-0.5-0.1-0.4 0.1-0.6 0.1-0.4 0.2-2 1.2-0.6 0.1-0.5 0.1-0.6 0-0.6-0.1-0.5-0.2-0.4-0.2-0.4-0.3-0.6-0.7-0.5-0.7-2.6-5.5-1.2-3.7-0.2-0.4-1.4-1.9-0.8-0.6-0.4-0.2-0.4-0.2-0.5-0.1-0.5-0.2-0.4-0.3-1.3-1.2-0.4-0.2-0.4-0.2 0.6-1.3 0.6-1 7.9-10.6 47.3-5.8 25.6-0.1 3.6-0.5 2.3-0.8 2.3-2.5 1.9-1.3 1.4-0.4 1.2-0.1 1.3 0.2 1 0.2 1.2 0.6 1.2 0.8 2.2 0.6 1.8 0 11-3.1 2.5-0.4 1.4 0.4 0.5 0.9 3.6 11.2 0.7 1.3 1 1.2 1.2 0.3 1.6 0.7 4.4-1.3 2.9 0.6-0.6-0.9-1-1.9-0.9-1 3.5 0.7 2.8 1.1 2.2-0.5 1.5-4 1.2 0.9 0.9 0.1 1.6-1 1.3 0 1.7 1.1 0.7-0.8-0.2-1.9-1.1-2.2 2 0.3 0.7 0.5 2.8 0.3 14.8 0.6 3.6 0.5 1.8 0.8 1.5 0.9 1.9 0.8 3.1 0.8 1.4 0.8 0.7 0.8-0.1 1.1-0.4 1.1-0.7 1.1-3.4 4.3-0.7 1-0.4 1.1-0.1 1.1 0.2 1 0.5 0.8 0.8 0.8 13.8 10.1 18 10.5 3.4 1.1 7.4-0.3 9.2 0.6 3.4-0.5 4 24.5-6.1 49.5 0 11 0.6 1.8 2.6 5.4 1.8 6 5.1 7.2 1.2 4.6-0.4 5.8-2 3-3.7 1.3-5.9 0.2-4.5 0.9-4.5 1.7-4.3 0.7-3.7-2 1.4-1.4 3.8-2.7 1.1-1.2 0.1-2.2-0.7-2.9-1.1-2.6-4-3.6 0.3-12.3-0.9-4.7 0.7-0.3 0.2-0.1 0.1-0.1 0.4-0.7 1.1 0 6.5 2.1 4.5-5.8 1.6-8.5-2.4-5.7 0-1.4 1.5-1.8 0.7-2.5 0.3-10.5 0.3-0.4 0.7-0.6 0.9-1 0.6-1.3-0.7-5-3.5-3-4.9-1.2-4.7 0.4-3.8 2.2-1.6 3.5 0.1 3.8 1.4 3.3 4.1 2.2 0.4 0.3-0.1 0.7 0.4 3.2 0.2 1.3 0.8 1.3 0.9 0.5 0.7 0.7 0.2 2 0 3.1-0.4 1.3-0.9 1.5 0.7 0.9 1.9 2.9-5.7 3.4-9.8 8.2-5.9 2.5-7.9 0.9-3.3 1.1-1.4 2.4 0 9.8 0.2 0.2 0.7-0.4 1.6 0.1 2.2 0.5 1.5-0.1 1.2 0.4 1.5 1.8 1.2 8.4-0.7 4-1.3 3.8-0.6 3.5 1.4 3.5 3.4 1.6 5.7-1.2 1 2.9-0.2 1.9-1 3.6-0.2 2.2 0.4 1.1 0.9-1.7 2.9-9.6 1.1-2.4 1.6-1 3.6 0.5 0.8 1.5-8.6 17.2-4 22.2 1.3 24 1.4 4.1-1.3 0.7-1.3 0.5 0.7-3.8-1.3-3.2-4.6-5.7-1.9-4.8 1.6-2 2.7-1.8 1.4-4.4-0.9-3.1-2.4-3.7-3.3-3.2-3.4-1.6-5.6 0.6 0.3 2.8 2.9 1.7 2.4-2.5 1.4 0 3.1 3.2 1.2 2 0.5 2.5-0.6 3.1-2.8 4.1-0.3 3-1 3.6-3.3 0.1-7.6-2.3-1 0.6 2.3 1.4 4.5 1.8 1 1.5 0.8 2 0.4 2.3 0.1 2.5-0.3 1.7-1.7 3.4-0.3 1.4 0.3 1 0.6 1.1 0.4 1.2-0.2 1.2-1 1.2-1 0.5-1 0.4-0.6 0.5-3.4 4.4-1.1 0.7-1.6 0.6-1.8 1.3-1.5 1.7-0.8 1.6 2.4 1.7 3 2.6 2.5 2.9 1.5 3.6 1.4 1 1.8 0.7 1.8 0.2 2.7-0.3 0.2-0.9-0.7-1.2-0.3-1.4 1.2-3.7 1-1.9 1.7-0.7 3-0.1 1.8 1.5 8.5 34.2 0.4 6.6-0.1 2.4-0.2 1.4-0.7 1.2-1.5 1.4-0.3-0.6-2.6 0.6-2.6 0.8-0.2 0.4-1.4 0.7-1.8 2.7-1.7 0.6-2.2 0-1.8 0.3-1.5 0.7-1.5 1.4-1.9 5.8-1.8 8.8-2.4 6.6-3.9-0.6-1.2 0-5.8 7.4-1.7 2.9-0.9 3.2 0 18.9 5.6 24.5 4 9.8 5.5 8.5 1.8 4.6 4.3 7.1 1.6 1.4 3.3 2.1 1.3 3.6z m-1.4-174.8l-1.4-5-0.4-6.8 1.3-5.9 3.7-2.6 0.3 0 0.2 0.2 0.1 0.3-0.1 0.6-1.2 2-1.3 3-0.9 3.4-0.3 3.1 1 6.8 0.1 2.5-1.1-1.6z m123.2-49.7l-0.4-4.1 1.8-3.3 2.5-1.4 2.1 1.7-0.7 1.3-5.3 5.8z" id="NIAS" name="Atlántico Sur">
  </path>
  <path d="M149 526l4.1-2.4 9-1 3.1-1.4 3.1-1.8 1.8-1.1 9.5-9.9 3.7-6 1.4-3.7 0.7-1.2 3.6-3.4 4.6-5.1 4.5-4.9 3.6-1.6 3.5-4.3 2.6-4.9 1.3-1.3 2-1.1 13.2-1.8 2.6-0.6 1.5-0.6 3.2-2 2.3-5.3 0.6-5.9-1.7-22.7-2.3-5.3-2.5-4-3.9-9-1.8-6.4 3.2-1.3 1.8-0.1 2.4 0 2.9 1 3.6 1.8 2.1-0.2 3.8-0.8 12.1-4.1 10.2-2.2 2.2 0.6 1.4 0.7 3.3 3.4 4.9 8 1.8 2.6 1 1.6 1.3 4.7-0.4 5.9-4.1 7.2-0.2 2.1 0 1.6 1.9 3.3 6.1 3.1 22.5 6.6-0.6 4.6-2.1 18.7-1.9 16.5-7.2 4.5-2.7 2.5-1.5 2.1-0.5 1.1-0.2 0.9 0 0.7-0.3 1.9 0 0.7 0.1 0.5 0 0.9-0.3 1.2-1.1 3.3-0.2 0.9 0.1 0.5 0.4 0.9 0.2 0.5 1.7 2.5 0.1 0.1 1 0.9 0.3 0.4 0.1 0.5 0 1.1 0.1 0.7 0.3 0.7-0.3 0.5-0.7 0.9-17.9 17.7-12.2 12.4-2.6 3.6-0.3 2.9 0 13.3 0.3 1.3 0.5 1.1 0.7 0.6 0.9 0.6 1.2 1.4 0.3 3.3-2.4 5.2-3.5 4.2-6.9 5.3-1.1 0.5-0.5 0-2.6-0.5-2.6-1-0.4-0.1-0.4 0-0.5 0.1-0.5 0.1-2.8 1-1.3 0.3-0.6 0.3-0.5 0.3-0.3 0.4-0.2 0.4 0 0.6 0.1 0.5 0.3 1 1.2 2.6 0.9 1.1 0.2 0.4 0.2 0.6 0 0.5-0.1 0.5-0.8 1.4-0.6 0.7-4.6 3.3-3.5-4.4-6.9-12-6.5-17.7-1.8-2.8-4.5-4-37.6-23-2.3-2.9-10.3-6-5.6-6-12.7-5.8-0.5-4.3 2.1 2.8 3.6 2.4 4.2 1.7 4 0.8-4.2-4.7z" id="NILE" name="León">
  </path>
  <path d="M231.5 611.9l4.6-3.3 0.6-0.7 0.8-1.4 0.1-0.5 0-0.5-0.2-0.6-0.2-0.4-0.9-1.1-1.2-2.6-0.3-1-0.1-0.5 0-0.6 0.2-0.4 0.3-0.4 0.5-0.3 0.6-0.3 1.3-0.3 2.8-1 0.5-0.1 0.5-0.1 0.4 0 0.4 0.1 2.6 1 2.6 0.5 0.5 0 1.1-0.5 6.9-5.3 3.5-4.2 2.4-5.2-0.3-3.3-1.2-1.4-0.9-0.6-0.7-0.6-0.5-1.1-0.3-1.3 0-13.3 0.3-2.9 2.6-3.6 12.2-12.4 17.9-17.7 0.7-0.9 0.3-0.5-0.3-0.7-0.1-0.7 0-1.1-0.1-0.5-0.3-0.4-1-0.9-0.1-0.1-1.7-2.5-0.2-0.5-0.4-0.9-0.1-0.5 0.2-0.9 1.1-3.3 0.3-1.2 0-0.9-0.1-0.5 0-0.7 0.3-1.9 0-0.7 0.2-0.9 0.5-1.1 1.5-2.1 2.7-2.5 7.2-4.5 31.1 6.9 3.3 1.1 2.7 2.5 2.8 3.2 2 1.6 1.8 1.2 11.3 4.4 3 0.6-1.1 3.3 0.7 6.3 0.9 2.7 1.2 2.1 2.4 3.1 4.6 5.1 0.6 1 0.2 1.2-0.3 3.7-0.1 3.1 0.3 1.4 0.6 0.9 16.1 15.2 0.3 0.7-0.3 1.1-3 4.6-1 5.2-3.2-1.4-1.4 0-1.5 0.5-5.8 4.2-15.4 7-3.2-0.9-1-0.5-0.4-0.2-0.5 0-3.2 0.4-6.2 2.6-5.4 0.9-3.3 2.5-11.1 11 0.6 2.4 2.6 2.8 1 1.4 0.5 1.1-0.2 4.2-2.1 3.3-1 1.2-1.1 1.1-1.5 0.8-1.7 0.4-1.4 0.2-2.2-0.6-1.3-0.6-5-3.9-4.3 5.4-2.2 3.3-11.5 9.4-3.5 5.8-1.4 1.3-4.9 3.7-1.9 2.8-2.3 2.2-0.7 0.4-1 0.3-2.1 0.6-1.1 0.1-1.5 0.1-1.8 1.1-4.6 4.5-2.5-3.1-4.9-11.1-2-1.6-1.8-1-4.8-4.9-2.9-4.1-3.1-5.9-0.6-2.8-0.9-2.6-2.1-2.2-4.5-3.5-0.8-1z" id="NIMN" name="Managua">
  </path>
  <path d="M335.8 684.9l-6.4 4.3-0.6 0.7-1.2 2.3-5.3 9.7 0 0.1-0.2-0.6-5.6-2.5-6.9-6.7-16.8-7.4-2.9-2.1-2.4-2.9-2.1-5.9-21.9-16.8-1.1-1.4 4.6-4.5 1.8-1.1 1.5-0.1 1.1-0.1 2.1-0.6 1-0.3 0.7-0.4 2.3-2.2 1.9-2.8 4.9-3.7 1.4-1.3 3.5-5.8 11.5-9.4 2.2-3.3 2 2.4 16.7 6.7 5.4 2.6 2.4 3.3 0.4 0.5 9.8 2.9 1.5 0.5-0.8 1.9-3.8 6.9-1 4.7 0.6 4.6 0.8 3.2 0 2.1-0.4 1.7-2.2 3-1.7 3.5-0.8 5.8 0.3 2.7 0.4 1.7 3.3 4.1z" id="NICA" name="Carazo">
  </path>
  <path d="M444.9 354.5l3.9 8.6 9.3 12.6 3.6 3.6 2.5 1 0.9 0.5 1 0.8 5.2 4.9 0.4 0.2 0.5 0.2 0.5 0.1 0.6 0 1.1-0.1 1-0.3 0.6 0 0.8 0.2 1.4 1 2.5 1.3 0.7 0.4 0.3 0.6 0.3 1.7 0.3 0.4 2.2 0.3 1.3 1.8 5.6 2.4 2 0.3 4.8-1.2 5.2-2.5 1.8-1.3 1.6-1.9 2.3-4.7 2.1-6.6 1.5-3.4 2.4-3.3 4.7-2.8 6.1-0.6 12.1 0.3 2.9-0.3 1.6-0.7 16.6-15.5 0.8 0.2 0.6 0.7 1.1 1.9 18.3 23.3 3.4 5.1-7.9 10.6-0.6 1-0.6 1.3 0.4 0.2 0.4 0.2 1.3 1.2 0.4 0.3 0.5 0.2 0.5 0.1 0.4 0.2 0.4 0.2 0.8 0.6 1.4 1.9 0.2 0.4 1.2 3.7 2.6 5.5 0.5 0.7 0.6 0.7 0.4 0.3 0.4 0.2 0.5 0.2 0.6 0.1 0.6 0 0.5-0.1 0.6-0.1 2-1.2 0.4-0.2 0.6-0.1 0.4-0.1 0.5 0.1-0.1 0.1-0.7 0.5-1.2 0.9-0.1 0.1-3.9 4.3-0.7 1.6-1.2 6.3-0.2 2.7-0.2 0.6-0.8 1.9-0.3 2.8-0.6 0.2-0.7-0.2-1.1 0.4-1.9 1.5-1-0.1-1.1-0.8-2.3-0.6-2.5 0.1-3.5 1-2.2 0.2-2.7 1.9-3.8 3.7-4.2 2.8-3.7-0.7-1.3 3.1-1.8 2.9-1.2 1-2.2 1.5-0.7 0.8-2.4-0.7-10.9-1.9-1.8 0.2-5 1.5-2.6 0.5-2.2 0.1-2-0.3-3.3-0.9-1.5-0.4-1.9 0.3-0.6 0.9 0 3-0.6 1.8-2.1 1.9-1.8 0.6-2.2-0.1-2-0.3-2.7 0.2-1.6 0.9-1.2 1.2-0.7 1.5-0.4 1.8 0.2 1.8 1.8 3.6 0.8 2.1 1.4 6.3 4.8 10.3 0.1 2-0.2 1.8-0.5 1.5-0.7 1.2-1.2 0-0.9-0.8-1.7-1.2-1.7-0.6-0.7 0.7-0.6 1.8-1.2-0.3-5.7-6.5-2-0.3-3.2 2.1-1.2 0 1-4.8 0.2-0.5-1.3-1-2.9-0.2-3.5-1.9-6-2.1-1.3-0.6-0.6-1.8-1.6-1.9-1.8-1.5-1.6-0.5-1.1-0.3-1.4 1.1-0.3 0.4-0.3 0.7-0.4 0.9-0.6 0.7-0.3 0.3-0.8 0.5-0.8 0.4-1.5 0.5-0.4 0.2-0.4 0.3-0.2 0.5-1 0.3-1.8 0.2-11.8-0.6-0.6 0.1-0.5 0.2-0.3 0.3-0.3 0.4-2.4 4.8-0.5 0.7-0.7 0.3-1.1 0.2-3.6 0-0.8 0.2-1.7 0.8-3.7 0.7-2.2 0.5-2.2 1.8-0.7 0.4-0.6 0-1-0.6-3-0.6-2.4-0.6-31.8 6.6-3 1.6-3.2 6.7-8.8 4.9-1 0.8-5.4 5-3-0.6-11.3-4.4-1.8-1.2-2-1.6-2.8-3.2-2.7-2.5-3.3-1.1-31.1-6.9 1.9-16.5 2.1-18.7 0.6-4.6 1-6.8 2.9-6.1 0.6-0.8 1.5-1.3 4-2.4 2.2-0.7 4.7-1 2.3-0.9 1.5-1 0.8-1 0.5-1.1 1.2-4.8 6.9-9.5 0.9 0.1 2.5-0.1 1.7 0.7 2.6 1.6 2.9 2.9 6.3 4.8 2.4-2.9 0.9-0.5 2.2-0.3 6.6 0.2 2.4-0.3 1.8-0.6 4-2.9 10.4-9.8 8.5-7.4 2-1.1 6.9-6 13.3-15.8 3.2-5.5 2.7-4.3 2.6-3 3.8-2.6 4.3 0 3.6-1.4 10.2-6.7z" id="NIMT" name="Matagalpa">
  </path>
  <path d="M504.9 488.2l3.1 0.9 1.4-1.4-0.2-2.8-1.8-3 2.4-2.4 0.6-0.3 0-0.6 1.3-1.1 1.5-1 0.5 0.1 0.8-2.8 0.7-5.2 0.9-2.3 3.5-3.1 3.5-0.1 3.4 1.8 5.3 4.1 0.9 0.4 1.5 2.3 1.6 0.9 1.1 1 1.1 1.3 1.6 3 0.8 2.4 0.3 3.4-0.6 2.9 0.1 0.9 0.2 0.6 2.1 1.1 1 1-2.3 4.7-7 10.3-0.7 1.4-0.5 1.6-0.3 2.1-0.1 6.9-0.5 2.1-0.9 2.1-3.1 3.9-2 2-2.7 2-5.4 2.7-2.6 0.4-1.1 0.1-1.9-0.3-1.9 0.5-2.8 1.1-10.7 7.4-2.2 1.2-7.5 2.6-9.9 1.1-13.2 2.4-7.8-0.4-5.4-0.1-4.5-0.7-2-0.1-2.6 0.8-6.9 3.4-4.8 3.5-0.8 0.8-1.5 2.1-0.4 0.9-0.2 1.2 0.1 4.5 0.4 3.4 0 1.3-0.4 1.3-3.7 8.5-0.2 0.3-0.2 0.3-0.3 0.4-1.7 2.8-0.9 1.8-3 18.8-13.8 1-9.8-13.8-5-4.4-2.9-1.1-1.6-1.2-0.9-1.2-0.3-1.4-0.3-2.8-1.2-3.6 1-5.2 3-4.6 0.3-1.1-0.3-0.7-16.1-15.2-0.6-0.9-0.3-1.4 0.1-3.1 0.3-3.7-0.2-1.2-0.6-1-4.6-5.1-2.4-3.1-1.2-2.1-0.9-2.7-0.7-6.3 1.1-3.3 5.4-5 1-0.8 8.8-4.9 3.2-6.7 3-1.6 31.8-6.6 2.4 0.6 3 0.6 1 0.6 0.6 0 0.7-0.4 2.2-1.8 2.2-0.5 3.7-0.7 1.7-0.8 0.8-0.2 3.6 0 1.1-0.2 0.7-0.3 0.5-0.7 2.4-4.8 0.3-0.4 0.3-0.3 0.5-0.2 0.6-0.1 11.8 0.6 1.8-0.2 1-0.3 0.2-0.5 0.4-0.3 0.4-0.2 1.5-0.5 0.8-0.4 0.8-0.5 0.3-0.3 0.6-0.7 0.4-0.9 0.3-0.7 0.3-0.4 1.4-1.1 1.1 0.3 1.6 0.5 1.8 1.5 1.6 1.9 0.6 1.8 1.3 0.6 6 2.1 3.5 1.9 2.9 0.2 1.3 1-0.2 0.5-1 4.8 1.2 0 3.2-2.1 2 0.3 5.7 6.5 1.2 0.3 0.6-1.8 0.7-0.7 1.7 0.6 1.7 1.2 0.9 0.8 1.2 0 0.7-1.2 0.5-1.5 0.2-1.8-0.1-2z" id="NIBO" name="Boaco">
  </path>
  <path d="M609.7 637.8l-7.1-0.3-2-0.4-0.9-0.4-0.7-0.1-0.6-0.1-2.8 0.3-0.7-0.1-1.6-0.4-0.8 0-3.7 0.6-13.5-0.1-1 0.1-0.8 0.3-0.6 0.9-12.1 11.2-4.6 3-7.9 1.7-2.7 4.3-0.5 1.2 0 0.2-0.2 0.8-0.4 0.5-0.7 0.9-0.3 0.4-0.2 0.4-0.2 0.3-1.3 1.4-0.9 1.1-0.6 1.1-0.6 0.4-1.1 0.7-3.4 1.3-0.9 0.1-0.4-0.2-0.9-0.3-1.2 0.5-1.6 0.9-3.7 2.6-2.8 1.4-0.8 0.7-0.5 0.6-3.3 5.7-77.2-9.2-24.5-68.5 3-18.8 0.9-1.8 1.7-2.8 0.3-0.4 0.2-0.3 0.2-0.3 3.7-8.5 0.4-1.3 0-1.3-0.4-3.4-0.1-4.5 0.2-1.2 0.4-0.9 1.5-2.1 0.8-0.8 4.8-3.5 6.9-3.4 2.6-0.8 2 0.1 4.5 0.7 5.4 0.1 7.8 0.4 13.2-2.4 9.9-1.1 7.5-2.6 2.2-1.2 10.7-7.4 2.8-1.1 1.9-0.5 1.9 0.3 1.1-0.1 2.6-0.4 5.4-2.7 2.7-2 2-2 3.1-3.9 0.9-2.1 0.5-2.1 0.1-6.9 0.3-2.1 0.5-1.6 0.7-1.4 7-10.3 2.3-4.7 4.4 6.4 5.3 4.9 1.1 1.8 4 9 3.8 5.8 2.4 2.4 1.2 1.9 0.4 1.3-0.3 1.1-1 2.5-0.5 2.4-0.3 3.1 0.8 6.1 1 3.1 1.3 2.2 1.3 1.4 1.3 1.1 1.1 1.2 6.5 11.6 0.5 2.8-1.1 4.2 0.2 6.2 2.5 11.2 11.6 29.4 1.3 1.9 23.4 11.3-7.2 3-1.4 1.3 0.1 0.8 0.2 0.6 1.3 2.4 1 3.2z" id="NICO" name="Chontales">
  </path>
  <path d="M315.4 350.8l-1.6 2.8-1 2.9-0.5 3.2-0.1 4 1.7 8.1-2.7 7.8 0.5 2.4-0.6 3.1-2.1 3.6 1.2 2.6 1.3 2 13.8 13.9 8 4.7 2.9 3.5-6.9 9.5-1.2 4.8-0.5 1.1-0.8 1-1.5 1-2.3 0.9-4.7 1-2.2 0.7-4 2.4-1.5 1.3-0.6 0.8-2.9 6.1-1 6.8-22.5-6.6-6.1-3.1-1.9-3.3 0-1.6 0.2-2.1 4.1-7.2 0.4-5.9-1.3-4.7-1-1.6-1.8-2.6-4.9-8-3.3-3.4-1.4-0.7-2.2-0.6-10.2 2.2-12.1 4.1-3.8 0.8-2.1 0.2-3.6-1.8-2.9-1-2.4 0-1.8 0.1-3.2 1.3-2.1-11.2 0.6-5.9 0.5-1.7 0.2-0.2 1.9-1.7 15.4-15.6 3.4-4.9 1.6-3.3 7.5-13.2 7.3-6.4 4.9-0.7 1.9 0.6 2.7 1.3 7.8 3.7 7.8-1.3 14-4.5 10.2-0.5 3.5 1.1 0.7 1.2 1.8 4.2 1.5 2.5z" id="NIES" name="Estelí">
  </path>
  <path d="M441.9 671.8l-68.1-0.3-6 1.8-8.1 2.1-0.9-0.3-1.8-1.9-0.7-0.7-0.8-0.5-0.9-0.2-0.3-0.1-0.5 0.1-0.5 0.3-0.5 0.5-2.9 6.2-2 3.3-0.7 0.5-5.1 2.6-0.6 0.6-1.4 0.2-4.3-1.1-3.3-4.1-0.4-1.7-0.3-2.7 0.8-5.8 1.7-3.5 2.2-3 0.4-1.7 0-2.1-0.8-3.2-0.6-4.6 1-4.7 3.8-6.9 0.8-1.9 3.6-7.8 1.7-3.9 0.6-1.4 6.6-14.7 7.4-16.3-0.6-2.9-6.1-6.9 15.4-7 5.8-4.2 1.5-0.5 1.4 0 3.2 1.4 1.2 3.6 0.3 2.8 0.3 1.4 0.9 1.2 1.6 1.2 2.9 1.1 5 4.4 9.8 13.8 13.8-1 24.5 68.5z" id="NIGR" name="Granada">
  </path>
  <path d="M302.9 620.1l4.3-5.4 5 3.9 1.3 0.6 2.2 0.6 1.4-0.2 1.7-0.4 1.5-0.8 1.1-1.1 1-1.2 2.1-3.3 0.2-4.2-0.5-1.1-1-1.4-2.6-2.8-0.6-2.4 11.1-11 3.3-2.5 5.4-0.9 6.2-2.6 3.2-0.4 0.5 0 0.4 0.2 1 0.5 3.2 0.9 6.1 6.9 0.6 2.9-7.4 16.3-6.6 14.7-0.6 1.4-1.7 3.9-3.6 7.8-1.5-0.5-9.8-2.9-0.4-0.5-2.4-3.3-5.4-2.6-16.7-6.7-2-2.4z" id="NIMS" name="Masaya">
  </path>
 </g>
 <g id="points">
  <circle class="10.92935595703375|-87.43781491982097" cx="90.9" cy="812.2" id="0">
  </circle>
  <circle class="12.656351322464445|-84.95775306068707" cx="545.5" cy="488.9" id="1">
  </circle>
  <circle class="14.815095529252815|-82.97370357337995" cx="909.1" cy="81.5" id="2">
  </circle>
 </g>
 <g id="label_points">
  <circle class="Rio San Juan" cx="560.7" cy="735.6" id="NISJ">
  </circle>
  <circle class="Atlántico Norte" cx="684.4" cy="236" id="NIAN">
  </circle>
  <circle class="Jinotega" cx="501.4" cy="230.1" id="NIJI">
  </circle>
  <circle class="Nueva Segovia" cx="339.9" cy="277" id="NINS">
  </circle>
  <circle class="Chinandega" cx="149.2" cy="471.4" id="NICI">
  </circle>
  <circle class="Madriz" cx="240.2" cy="333.3" id="NIMD">
  </circle>
  <circle class="Rivas" cx="428.1" cy="715.8" id="NIRI">
  </circle>
  <circle class="Atlántico Sur" cx="669.8" cy="540.2" id="NIAS">
  </circle>
  <circle class="León" cx="237.6" cy="514.5" id="NILE">
  </circle>
  <circle class="Managua" cx="305.6" cy="562.3" id="NIMN">
  </circle>
  <circle class="Carazo" cx="307.8" cy="657.5" id="NICA">
  </circle>
  <circle class="Matagalpa" cx="441" cy="424.8" id="NIMT">
  </circle>
  <circle class="Boaco" cx="452.8" cy="513.8" id="NIBO">
  </circle>
  <circle class="Chontales" cx="505.3" cy="607.5" id="NICO">
  </circle>
  <circle class="Estelí" cx="282.5" cy="377.4" id="NIES">
  </circle>
  <circle class="Granada" cx="382.7" cy="635.1" id="NIGR">
  </circle>
  <circle class="Masaya" cx="339" cy="608.4" id="NIMS">
  </circle>
 </g>
</svg>