<?xml version="1.0"?>
    
<!--********* Copyright (c) 2024 Pareto Softare, LLC DBA Simplemaps.com ***************************************
************* Free for Commercial Use, full terms at  https://simplemaps.com/resources/svg-license ************
************* Attribution is appreciated! https://simplemaps.com *******************************************-->

<svg baseprofile="tiny" fill="#6f9c76" height="1000" stroke="#ffffff" stroke-linecap="round" stroke-linejoin="round" stroke-width=".5" version="1.2" viewbox="0 0 1000 1000" width="1000" xmlns="http://www.w3.org/2000/svg">
 <g id="features">
  <path d="M450.4 905.1l0.6 0.1 0.9 0.8 0.8 1.1 0.3 0.9-0.6 1.2-1 0.1-1.6-0.5-0.3-0.2-0.6-0.6-0.5-0.7-0.2-0.5 0.2-0.6 0.6-0.5 0.7-0.4 0.7-0.2z m55.8-24.8l1.5-0.6 0.6 0 0.1 0.6-0.3 0.3-1.3 0.7-2.4 0.9-0.6-0.2-2.8-1.8-1.1-1.2-0.4-1 0.9 0.1 2.8 1.8 1.3 0.5 1.7-0.1z m-70.4-18.7l0.4 0.3 0.2 0.4 0.2 0.6 0.1 0.4-0.1 1.1-1.1 3.7-0.3 0.5-0.4 0.4-0.6 0.3-0.7 0-2.1-0.3-0.6-0.3-0.4-0.6 0.2-0.4 0.5-0.2 0.7 0 0.4-0.3 0.4-0.6 0.4-0.7 0.1-0.5 0.2-0.4 0.8-1.2 0.3-1.2 0.4-0.5 0.5-0.4 0.5-0.1z m33.7 30.2l0.7 0.3 0.2 0.3-0.2 0.5-0.3 0.1-1.5-0.1-1.9 0.7-0.8-0.1-0.6-0.9 0-0.8 0.4-0.7 0.5-0.5 0.6-0.2 0.9 0 0.8 0.4 0.7 0.5 0.5 0.5z m8.8-9.9l1.2 0.3 0.9 0.7 0.4 0.9-0.5 1.2-0.5 0.2-0.5 0-0.5 0.2-0.1 0.7 0 0.9-0.2-0.1-2 0.3-0.4 0.2-0.5 0.4-1.5 1.6-0.6 0.4-0.6 0-0.5-0.3-0.5-0.4-0.5-0.8 0-0.6 0-0.5 0-0.5-1.3-1.4-2.1 0.1-4.4 2-1 0.6-0.4 0.2-0.4-0.1-0.4-0.2-0.6-1-0.3-0.2-2.2-0.4-0.5 0.2-1.9 1.2-1.1 0.6-0.5 0-0.6-0.2-0.3-0.2 0-0.3 0-0.4-0.1-0.2-0.3-0.2-0.7-0.1-0.3-0.2-0.8-1.2-0.2-1 0.2-1 0.7-1.1 0.9-0.8 2-0.9 1.5-1 1.2-0.2 0.4-0.2 1.2-1.7 0.5-0.4 0.5-0.1 1.9 0.1 1 0 1 0 0.6 0.3 1.2 0.7 0.6 0.1 1 0.6 1.3 2.8 0.8 0.7 1-0.2 0.9-0.8 1-0.5 2.4 1.1 1.2 0.1 2.3 0z m-28 16.2l1.1 0.5 0.2 0.5-0.5 0.1-0.8 0.4-1.1 0.4-1 0.1-0.6 0.2-0.5-0.2-0.2-0.6 0.6-0.9 1.4-0.6 0.8 0 0.6 0.1z m2.4-3l0.7 0.4 0.7 1-0.3 1.2-0.8 0.6-1-0.5 0.1-1.7 0.6-1z" id="PHSLU" name="Sulu">
  </path>
  <path d="M687.8 796l11.4 0.2-0.3 18.1 0.2 0.8 1.2 0.3 5.3-0.1 0.7-0.5 0.8-0.9 0.8-0.5 0.7 0.5-0.5 0.4-0.6 1.1-0.1 1.2 0.2 3.5 0 1.1-0.2 0.5-0.5 0.7-0.1 0.5-0.2 0.5-2 1.9-1.5 0.8-1.8 0.4-1.7 0.9-11.1-0.1 0.3-0.2 0.1 0 0.3-0.4-0.1-0.2-0.2-0.2-0.2-0.7-0.2-3.1-0.3-0.9-0.7-0.7-1.9-1.1-0.7-0.7-0.7-0.8 0.1-0.3 0.6-1.4 0.6-0.9 0.2-0.4 0.1-1-0.4-2.4-0.1-1.9-0.3-1.4 0-0.8 0.4-2.8 1.7-5.7 0.1-0.7-0.2-0.6-0.5-0.6 0.1-0.5 0.4 0 0.4-0.2 0.2-0.3 0.2-0.4z" id="PHDAV" name="Davao del Norte">
  </path>
  <path d="M563.6 807.5l-1.1-0.2-0.4-0.2 0.3 0.9 0.1 0.6-0.1 0.4-0.4 0.3-0.3 0.1-0.4-0.1-0.3 0.1-1.6 1.1-0.6 0.4-0.5 0.1-0.7 0.1-0.3 0.1-0.2 0.2-0.3 0.7-0.2 0.2-0.8 0.2-0.6-0.2-0.4-0.6-0.4-0.8-0.3-1.4-0.1-2 0.5-1.9 1.4-0.7 0.8 0.5 0.6 0.8 0.6 0.6 0.9-0.1 0.4-0.5 0-0.7 0.2-0.6 0.6-0.4 1 0.4 1.1 0.8 0.9 0.9 0.6 0.9z m6.6-17.9l-0.6 1-1.5 1.5-0.3 0.7 0 0.5 0.2 0.6-0.1 0.7-0.2 0.2-0.7 0.5-0.2 0.2 0.1 0.3 0.2 0.3 0.1 0.2 0 0.5-0.3 0.9-0.8 1.2-0.4 0.8-0.1 0.8 0.1 1.6-0.3 0.6-0.6 0.2-0.3-0.1-0.3-0.3-0.5-0.2 0-0.1-1.3-0.3-0.4-0.7-0.8-2.1-0.6-0.5-0.6 0.2-0.7 0.7-0.6 0.7-0.3 0.6 0 0.8 0.1 0.5-0.1 0.4-0.7 0.5-0.6 0.3-0.8 0.1-0.8 0-0.8-0.4 0.4-0.6-0.2-0.5-0.3-0.2-0.2 0-0.1 0.2-0.3 0.1-0.2 0-0.2-0.1 0-0.3 0.1-0.2 0.2-0.2 0.1 0-0.1-1.2 0.3-0.7 0.6-0.2 1.1 0.6 0.1-1.2-0.4-0.8-0.6-0.7-0.3-0.8-0.4-3.4-0.3-0.9 0.4-0.7 0.4-1.1 0.2-1.1 0.1-1-0.5-0.8-1.3-0.1-2.2 0.3-0.5-0.3-0.8-1.1-0.6-0.4-2.4 0-0.4 0.1-1.1 0.5-0.7 0.2-1.2 0.6-4.5 3.6-1.4 1.6-2.2 3.1-0.6 1 0 0.6 1 0.3 1.1-0.3 0.7 0 0 1.4-0.4 0.7-0.6 0.9-0.7 0.9-0.6 0.4 0.5-1.9-0.1-0.3-0.6-0.1-0.6 0.5-0.4 0.7-0.2 0.5-0.6 0.6-2.4 1.4-5.4 0.1 0.6-1.5 1.2-4.2 0.6-1.2 0.6-0.7 1.3-1.1 0.5-0.7 0.4-1 0.4-2 0.4-0.8 0.8-0.6 1.9-0.8 0.8-0.6 5.5-5.7 1.2-0.8 0.6-0.4 7.5-3 2.1-0.4 2.1-0.1 2.2 0.3 4.1 1.1 0.4 0 0 0.1-0.1 2.6 0.4 2.1 2.3 0 2.7 0.6 2.1-0.1 1.7 0.7 0.5 5.1z" id="PHZSI" name="Zamboanga Sibugay">
  </path>
  <path d="M331.3 691.6l-13.8-7.4 1-0.8 0.4-0.2 0.4-0.1 0.2-0.2 0.3-0.9 0.2-0.1 0.4-0.1 0.3-0.3 0.5-0.5 4.3-3.2 0.3-0.5 0.6-1.5 2.5-2.5 0.6-0.9 0.1-0.6 0.3-0.8 0.4-0.9 1.9-2.6 0.6-0.5-0.6-1.2 0.9-0.9 2.6-1.3 0.4-0.5 1.9-4.1 0.4-0.6 0.2 1.8 0 0.8-0.4 0.4-0.3 0.4 0.9 0.7 1.2 0.4 0.5-0.6 0.2-0.4 0.3-0.4 0.4-0.3 0.2-0.2 0.3-0.6 0.1-0.3-0.1-0.1-1.1-1.9-0.2-0.8-0.1-1.1 0.2-0.9 0.4-0.3 1.1 0.1 0.7-0.2 1-0.8 0.9-0.2 1.4 0.3 0.9-0.1 0.8-0.5 0.5-0.9 0.1-0.9-0.2-0.9-0.4-0.7 0.4-0.2 0.1-0.1 0.2 0.1 0.4 0.2 0.5-0.6 0.8-0.4 5.1 5.3-0.3 2.1 6 5.9-1.9 0.8-2.5 0.7-0.6 0.2-1.1 0.7-0.5 0.2-0.6 0.1-1.3-0.1-0.7 0-0.5 0.3-1 0.6-0.6 0.2-0.6 0.2-1.2 0.2-2.6 0.1-1.5 0.4-1.4 0.7-1.6 1.1-1.2-0.4-1.2 0.6-0.9 1.2-0.4 1.4 0.3 1.7 1.1 2.3 0.5 1.4-0.4 2.9-0.7 0.3-0.8-0.2-0.8-0.6-0.3-0.8 0.3-0.9-0.3-0.3-0.9-0.1-0.6 0.4 0 0.8 0.2 1-0.2 0.8 0.6 0.3 0.4 0.4 0.1 0.6-0.3 0.6 1.4-0.2 0.9 0.7-0.1 0.8-1.5 0.2 0.1 0.8-0.3 1-0.5 1-0.6 0.7-0.2 0.5-0.1 0.4-0.2 0.3-1.1 0.2-0.3 0.3-1.6 2.6z" id="PHPLW" name="Palawan">
  </path>
  <path d="M725.4 682.7l0.6 0.4-0.2 1.2-1 2.1 0.3 0.6 0 0.9-0.3 0.8-0.5 0.3-0.9 0.2-0.3 0 0.3-0.9-0.4-0.3-0.6-0.1-0.5 0 0-0.4 0.5 0 0.2 0 0-0.4-1.1-0.7 0 0.4-0.1-0.5 0-0.6 0.5-1.2 0.2-0.3 0.2-0.2 0.2-0.1 0.1-0.5 0-0.5 0-0.6 0-0.4-0.5-0.8-0.1-1.3 0.4-1.2 1-0.4 0.3 0.3 0.1 0.3-0.1 0.5 0.5-0.2 0.2-0.2 0.1 0.9 0 1.3 0.1 1.1 0.8 0.5z m-28.2 13.1l-0.1-0.8-1.2-3.1-0.1-0.5-0.2-1.1-1.9-7.4-0.1-1 0.2-1 0.3-0.8 2.6-4.4 0.2-0.5 0.7 0.8 0.9 0.8 1 0.7 1.8 0.5 1.5 0.8 1.1 0.1-0.3 1.3 0.5 1.6 0.6 1.5 0.3 1.4 0.5 1 1.3 1 1.5 0.6 1.1-0.2-0.1 0.2 0 0.2-0.1 0.2-0.2 0.2 0.7 0 0.4 0.2 0.4 0.5 0.5 0.1 1.2-0.1 0.5 0 1 1.2 0.5 0.3 0.5 0.2 3.1 0.4 1 0.6 1.8 1.6 0.5 0.2 0.7 0 0.6 0.1-11 9.7 0.6-1.6 0.2-0.9-0.4-0.6-0.3-0.8-0.3-0.4-1.3-1.5-0.5-0.5-0.8-0.4-0.7-0.4-2.3-0.6-2-0.4-1.8-0.1-1.8 0.2-2.8 0.9z m37.6-20.9l0.4 0.6 0.4 0.9-0.1 0.7-1.3 0.5-0.9 0.7-0.4 0.3-0.6 0.1-1.4-0.1-2.1-0.8-0.7 0 0.4 1.1-0.8-0.6-0.8-0.9-1.3-1.8 0-0.3 0.1-0.2 0-0.3-0.1-0.3-0.3-0.2-0.5 0-0.4-0.1-0.3-0.5 0.7 0.1 0.7-0.1 0.7-0.2 0.5-0.6-0.6-0.2-0.8-0.5-0.5-0.5 0.2-0.8 3.3-5.3 0.2-0.5 0-0.5-0.1-0.5-0.1-0.5 0.4-0.5 1-0.8 0.5 0.2 2.5 5.5 0.6 2.9 0 0.6-0.3 0.6-0.8 0.7-0.4 0.5 1.1 0.2 0.7 0.2 0.5 0.5 0.7 0.7z m-23.9-4.5l0.1 0.9-0.4 0.7-0.8 0.4-1.1-0.2-0.8-0.6-0.2-0.8 0.1-0.9-0.2-1-0.5-0.5-1.5-0.4-0.6-0.6 0.5 0 0.2 0-0.4-0.3-0.2-0.3 0-0.3 0.3-0.3 0-0.3-1.3 0-0.5-0.9 0.1-1.3 0.6-1.2 0.2 0.5 0.4 0.2 0.3-0.2 0.2-0.7-0.2-0.2-0.7-0.9-0.2-0.5-0.4 0-0.3 0.6-0.3 0.1-0.5-0.2-0.5-0.2-0.4 0.3-0.4 0.5-0.5 0.4-0.8 0-0.4-0.6 0-0.8-0.1-0.6-0.8-0.3-0.1-0.3 0.1-1.4-0.1-0.5 0.8-0.4 0.4-1 0.1-1.1-0.2-0.9 0.4-0.2 0.4 0 0.3 0.2 0.3 0.4-0.1-0.9-0.4-0.7-0.1-0.7 0.6-0.7-0.2-0.1-0.1-0.2-0.1-0.2-0.3-0.3 0.2-0.8-0.4-1-0.1-0.8 1.2-0.3 0.7-0.1 0.2-0.4 0-1.2-0.1-0.4-0.2-0.3 0-0.2 0.3-0.5 0.3-0.1 0.4 0 0.3 0.1 0.3 0.6 0.5 0.2 0.4-0.1 0.4-0.2 0.3-0.6 0.1-2.1 0.4-1.3 0.2-0.6 0.5-0.3 0.6-0.1 0.4 0.3 0.8 1.3 0.7 1.8 0 1.9-1.1 3.7-0.1 1.4-0.2 0.5-0.2-0.1-0.5-0.1-0.4 0.2 0 0.7 0.4 0.5 0.8 0.6 0.4 0.8-0.5 0.8 0.3 0.4-0.6 0.3 0.2 0.6 0.6 0.3 0.9-0.1-0.4 1.5 0 0.9 0.3 0.8 0.8 1 0.4 0.7 0.1 0.7-0.2 0.7-0.4 0.8-0.4 0.8-0.3 0.3 0.1 0.4 0.4 2.2-0.6 0.8 0.5 0.9 0.9 0.9 0.7 0.8z" id="PHSUN" name="Surigao del Norte">
  </path>
  <path d="M711.4 702.9l11-9.7 0.2 0.4 0.1 0.5 0.5 0.7 0.2 0.5 0.5-1 0.2-0.5 0.3 0 0 0.9 0 0.6-0.2 0.3-0.5 0.5-0.6 0.2-1.5 0.4-0.4 0.5-0.1 0.7 0.3 0.5 0.6 0.4 0.6 0.2 0.9 0.2 0.6-0.2 1.5-0.7-0.1 2.2 0.2 1.8 0.8 1.7 2.5 2.6 0.4 0.2 0.6 0.1 0.7-0.1 1.1-0.5 1.8-0.6 1.9-1.9 1.1-0.6 1.1 0.1 0.2 0.8-0.2 1-1.1 1.8-0.3 1.3-0.4 2.4 0 1.8-0.4 2.5 0.2 0.6 0.6 0.2 0.7 0.1 0.5 0.2 0.4 0.4 0.5 1.4 0.4 0.6 3.9 3.9 0.5 1.1 0.1 0.7 0.6 2.1-0.2 0.8 0 0.5 0.7 0.4-0.1 0.4-0.3 0.4-0.1 0.1-0.4 1.3-0.6 1.3-0.9 1.1-1.2 0.4-2 1.4-0.3 0.1 0 0.8 0.4 0.4 1 0.7 0 0.3-0.2 0.1 0 0.1-0.1 0.2-0.7-0.3-0.6-0.1-1.1 0-0.7 0.2-1.3 1.1-1.9 0.8-1 1.3-0.5 1.2 1.1 1.2 0.9 2.4 0.6 0.7 0.5 0.1 1.7-0.1 1.1 0.4 0.5 0 0.6-0.4-1.1-0.7-0.3-0.4 0.3-0.4 0.6 0.1 0.7 0.3 0.7 0.1 0.6-0.5 1.2 0.6 3.5 0.6 0-0.1 0.2-0.2 0.2-0.1 0.3 0 0 0.1 0.2 0.5 0.4 0.7 1.1 0.8 0.2 0.5-0.4 0.8 0.3 0.1 0.2 0.3 0.3 0.3-1.5-0.1-0.5 0.2-0.3 0.4-0.1 1.3 0.1 0.3 0.8-0.3 0.2 0.9-0.4 1.1-1.3 1.7-0.2 0.1-0.6 0.4-0.5 0.4 0.4 0.2 0.2 0.3 0.7 1.4 0.5 0.4 0.8 0.2 0.4 0.5-0.6 1.3-1.7 2-0.3 0.9 0.4 1 0.8 0.5 0.8-0.2 0.9-0.5 1.6-0.6 1.9-1.6 0.2 0.6-0.3 4.6-0.2 0.8 0.1 0.8 0.6 1.1-1.3 0.7-0.6 2 0.2 2.1 1 1.4-1 1-2.1 1.5-0.6 1.2 0 0.7-1.1-0.4-1.5-0.7-1.2-1.1-0.7-1.5-0.5-1.5-0.7-3.2-3.2-5.4-0.7-3.3 1-5.6-0.1-1.7-0.9-0.5-5.6-0.8-1.2-0.4-0.5-0.5-0.5-2-0.2-0.5-2.1-3.2-1-2-0.4-2 0.8-1.7 0.9-1.2 0.5-1.2 0.1-1.2-0.5-1.2-1.8-1.9-2.1-1.7-0.3-0.5 0.1-0.7 0.3-0.7-0.1-0.6-0.5-0.5-0.6-0.3-0.6-0.4-0.8-1.4-0.5-0.5-0.6-0.5-0.6-0.6-0.4-1-0.5-1.9-0.4-1-0.5-0.4-0.7 0.1-0.7 0-0.6-0.6 0-0.4 0.4-1.4-0.1-3.1-0.3-2.9-0.7-2.8-1.2-2.7-1-1.1-0.6-1-0.4-1.1-0.1-1.4 0.1-0.9z" id="PHSUR" name="Surigao del Sur">
  </path>
  <path d="M700 719.1l10.3 0-0.9 3.1-1.6 4.4 0.5 2.4 0.1 1.7-8.6 0.2-2.7-4.3-1.2-5.6 1.2-0.3 2.9-1.6z" id="PHAGN" name="Agusan del Norte">
  </path>
  <path d="M700 719.1l10.3 0-0.9 3.1-1.6 4.4 0.5 2.4 0.1 1.7-8.6 0.2-2.7-4.3-1.2-5.6 1.2-0.3 2.9-1.6z" id="PHAGN" name="Butuan">
  </path>
  <path d="M659.1 743.7l3.8 2.5 0.2 4.5-0.4 1.1-1.9 0.5-8.9-0.6-1.6 7.2-0.9 2.4-0.8-0.1-0.6-0.3-0.4-0.6-0.6-1.5-0.4-0.4-4.5-3.2 3.5-3.6 1.9-1.2 0.2-1.7-1.7-0.4 3.3-2.8 0.6 0.4 0.9 0.3 3.1 0.1-0.5 0.9-0.4 1.1-0.2 1.2 0 1.2 0.4 0 0.4-1.4 0.6-0.9 1.1-0.4 1.6 0.5 0.2-0.4 0.9-0.7 0.2-0.1 0.7-0.2 0.2-0.1 0-0.3-0.2-0.3-0.1-0.3-0.1-0.2 0.2-1.7 0.2-0.5z" id="PHMSR" name="Misamis Oriental">
  </path>
  <path d="M659.1 743.7l3.8 2.5 0.2 4.5-0.4 1.1-1.9 0.5-8.9-0.6-1.6 7.2-0.9 2.4-0.8-0.1-0.6-0.3-0.4-0.6-0.6-1.5-0.4-0.4-4.5-3.2 3.5-3.6 1.9-1.2 0.2-1.7-1.7-0.4 3.3-2.8 0.6 0.4 0.9 0.3 3.1 0.1-0.5 0.9-0.4 1.1-0.2 1.2 0 1.2 0.4 0 0.4-1.4 0.6-0.9 1.1-0.4 1.6 0.5 0.2-0.4 0.9-0.7 0.2-0.1 0.7-0.2 0.2-0.1 0-0.3-0.2-0.3-0.1-0.3-0.1-0.2 0.2-1.7 0.2-0.5z" id="PHMSR" name="Cagayan de Oro">
  </path>
  <path d="M631.1 762.6l1.7 0.8 1.9-0.9-0.4 1.7 0.3 3.9-0.4 1.5-1.2 1.5-0.5 0.4-0.2 0.4 0.1 0.2-0.1 0.2-0.6 0.1-2.3 0-0.7 0.2-1.3 0.6-0.5 0.7-0.2 0.9-1.2 3-0.4 0.7-0.6 0.5-0.6 0.2-2.1 0.1-0.2 0.5 0.2 2.7-0.5 1.5-2.3 2.7-0.2 1.8-0.5 1.8-2-0.2-4.6-1.9-0.4 2-2.4-0.1-1.3-0.3-0.8-0.7-2.9-3.9-1.1-0.8-1.2-0.3-1.3-0.1-2.3-0.9 0.7-0.8 2.5-1.4 1.1-0.9 0.5-1-0.1-1-0.4-1-0.3-1.1 0-0.1 0.6-0.4 0.3-0.2 1.9-1.1 7.1-5.7 0.7-0.2 1.1-0.2 0.8-0.5 1.2-1.5 1.3-1 1.7-0.7 1.9-0.5 6.4 0 2.3-0.3 1.8-0.9z" id="PHLAN" name="Iligan">
  </path>
  <path d="M631.1 762.6l1.7 0.8 1.9-0.9-0.4 1.7 0.3 3.9-0.4 1.5-1.2 1.5-0.5 0.4-0.2 0.4 0.1 0.2-0.1 0.2-0.6 0.1-2.3 0-0.7 0.2-1.3 0.6-0.5 0.7-0.2 0.9-1.2 3-0.4 0.7-0.6 0.5-0.6 0.2-2.1 0.1-0.2 0.5 0.2 2.7-0.5 1.5-2.3 2.7-0.2 1.8-0.5 1.8-2-0.2-4.6-1.9-0.4 2-2.4-0.1-1.3-0.3-0.8-0.7-2.9-3.9-1.1-0.8-1.2-0.3-1.3-0.1-2.3-0.9 0.7-0.8 2.5-1.4 1.1-0.9 0.5-1-0.1-1-0.4-1-0.3-1.1 0-0.1 0.6-0.4 0.3-0.2 1.9-1.1 7.1-5.7 0.7-0.2 1.1-0.2 0.8-0.5 1.2-1.5 1.3-1 1.7-0.7 1.9-0.5 6.4 0 2.3-0.3 1.8-0.9z" id="PHLAN" name="Lanao del Norte">
  </path>
  <path d="M570.2 789.6l-0.5-5.1-1.7-0.7-2.1 0.1-2.7-0.6-2.3 0-0.4-2.1 0.1-2.6 0-0.1 1.6 0.2 2-0.7 1.2-1 0.8-1.1 1-1 1.4-0.8 1.6-0.3 1.6 0.1 1.6 0.4 1.6 0.5 0-0.5-0.1-0.4-0.2-0.4-0.1-0.5-0.3-1.1 0-9.2 0.2-0.8 0.7-0.3 19.7 0-0.3 5.5 0.2 3.2 0.9 1.6 2.2 0.4 0.6 0.2 0.4 0.4 0.2 0.4 0.4 0.3 0.9 0.1 1-0.1-0.1 0.5-0.2 1.1-0.1 0.6 0.1 0.1 0.2 0.2 0.7-0.3 0 0.1 0.3 1.1 0.4 1 0.1 1-0.5 1-1.1 0.9-2.5 1.4-0.7 0.8-0.3-0.1-1.2-0.2-3.4 0.2-1 0.2-1.3 0.5-1.2 0.6-0.7 0.6 0.2 1.9 1.5 1.4 1.2 1.7-0.7 2.4-0.5 0.6-0.5 0.5-0.6 0.4-0.6 0.3-1.9 0.4-0.5 0.2-0.2 0.4 0 0.6 0 1.2-0.2 0.2-1.1-0.7-0.5 0-0.5 0.9 0.7 1.1 1.1 1 0.5 0.9 0.4 1.3 0.8 0.7 0.9 0.6 0.9 0.8 0.4 1.2-0.1 1.2-0.3 1.1-0.6 0.9-0.5 0.2-0.6-0.2-1.7-1.3-1.7-0.8-0.8-0.5-1.5-1.7-0.5-0.9-0.8-0.5-0.2-0.3 0-1.2-0.1-0.4-0.2-0.4-0.9-0.3-1.1 0.1-0.9 0.4-0.4 0.7-0.3 0.8-0.7 0.4-0.9 0-0.7-0.3-1.6-1.4-0.7-1-0.3-1.1 0.3-1.1 0.8-0.4 0.9-0.2 1-0.3 0.5-0.9 0-1.1-0.6-1-1.2-0.4-0.7-0.5-0.3-1.4-0.1-1.5-0.2-1-0.6-0.5-0.6 0.5-0.6 1z" id="PHZAS" name="Zamboanga del Sur">
  </path>
  <path d="M601.4 773.6l-1 0.1-0.9-0.1-0.4-0.3-0.2-0.4-0.4-0.4-0.6-0.2-2.2-0.4-0.9-1.6-0.2-3.2 0.3-5.5-0.4-21 0.7 0.3 0.3 0.2 0.2 0.3 0.5 1.1 0.6-0.5 0-0.5 0-0.6 0.2-0.6 0.3-0.4 0.8-1.1-0.7-0.6 0.7-0.4 0.9 0.1-0.2 0.9 4.3 1 0.7 0.3 0.5 0.5 0.4 0.9 0.4 0 0.4-0.4 0.2 0.1 0.5 1-0.1 0 0.6 1.7 0.2 0.3 0.3 0.8 2.3 2.8 0.9 1.8 0.6 2.4 0.5 2.4 0.2 6.5 0.8 3.2-0.1 1.1-0.5 0.6-5.7 5.1-1.1 0.6-2.4 0.1-0.9 0.5-0.4 1.4 0 0.1z" id="PHMSC" name="Misamis Occidental">
  </path>
  <path d="M525.4 802.7l5.4-0.1-0.7 1.1 0.3 1.2 0.8 1.1 0.6 1-0.4 1.1-0.4 0.5-1 1.7-0.7 0.4-0.5 0-0.6 0-0.7 0.2-1 1.4-0.8 2.4-0.7 4.6-0.2 2.5-0.3 1-2.2 3.1-1.9 4.9-0.7 1.3-1 0.7-0.6 0.8-0.3 0.2-1.2-0.1-0.5-0.1-2.6-0.9-4.1-2.2-1.3-1.2-2.1-4.2 0-4.5 0.3-0.7 0.3 0 10.3 0.7 1.1-0.6 1.3-1.6 1.1-1.9 0.5-1.5 0.1-0.8 0.5-1.4 0-0.9-0.1-1.3 0-1.1 0.3-1 0.7-1.1 3-4.7z" id="PHZAN" name="Zamboanga del Norte">
  </path>
  <path d="M525.4 802.7l5.4-0.1-0.7 1.1 0.3 1.2 0.8 1.1 0.6 1-0.4 1.1-0.4 0.5-1 1.7-0.7 0.4-0.5 0-0.6 0-0.7 0.2-1 1.4-0.8 2.4-0.7 4.6-0.2 2.5-0.3 1-2.2 3.1-1.9 4.9-0.7 1.3-1 0.7-0.6 0.8-0.3 0.2-1.2-0.1-0.5-0.1-2.6-0.9-4.1-2.2-1.3-1.2-2.1-4.2 0-4.5 0.3-0.7 0.3 0 10.3 0.7 1.1-0.6 1.3-1.6 1.1-1.9 0.5-1.5 0.1-0.8 0.5-1.4 0-0.9-0.1-1.3 0-1.1 0.3-1 0.7-1.1 3-4.7z" id="PHZAN" name="Zamboanga">
  </path>
  <path d="M634.7 762.5l0.1-0.1 0.5-0.4 0.9-0.1 1.7 0 0.4 0.3 0.2 0.6 0.1 0.7 0.2 0.5 1.1 1 4.4 2.2 2 1.6 3.9 3.8 2.2 1.1 1.4 1.2 0.6 0.7 0.3 0.7-0.3 1.2-0.7 0.3-0.9-0.1-0.7 0-0.5 0.3-0.5 0.4 0 0.6 1 1.4 0.1 0.5 0 0.5 0.1 0.5 0.2 0.6 0.4 0.3 0.9 0.3 0.3 0.2 2.4 2.9 1.7 3 0.3 1.5 0.2 0.4 0.6 0.9 0.3 0.6 0.1 0.4 0.3 0.3 1.1 0.8 0.4 0.3 0.3 0.3 0.2 0.5-1-0.1-3.4-0.9-1.5 0-2.7 0.4-1.5 0-0.9 0-0.6-0.2-0.5-0.3-0.8-0.5-0.5-0.6-0.6-1-0.3-0.5-1-0.6-0.9 0-2.2 1.1-4.4 2.7-11.5 10.2-0.3-0.5-0.5-0.2-0.6-0.9-2.5-5.4-1.6-2.3-2.4-1.6-0.4-0.1-2.9-2.1-2.6-1.4-0.4 0.4-0.9-0.4-1.3-0.2 0.4-2 4.6 1.9 2 0.2 0.5-1.8 0.2-1.8 2.3-2.7 0.5-1.5-0.2-2.7 0.2-0.5 2.1-0.1 0.6-0.2 0.6-0.5 0.4-0.7 1.2-3 0.2-0.9 0.5-0.7 1.3-0.6 0.7-0.2 2.3 0 0.6-0.1 0.1-0.2-0.1-0.2 0.2-0.4 0.5-0.4 1.2-1.5 0.4-1.5-0.3-3.9 0.4-1.7z" id="PHLAS" name="Lanao del Sur">
  </path>
  <path d="M627.7 804.9l11.5-10.2 4.4-2.7-0.9 7 0.4 1.9 1.5 1.9 0.5 1.1 0 0.9-8.6 12.6-0.4 1.3 0.8 0.3 0.4 0.2 1-0.1 0.6-0.2 0.2-0.1 0.4-0.3 0.7-0.8 1.1-1.6 0.7-0.6 0.9-0.2 1.4 0.2 0.7 0.4 0.1 0.8-0.5 1.3-1.9 4.5 0 0.4 0.6 0.9 0.7 0.7 0.7 0.4 0.7 0.3 1 0.1 0.9 0.2 1.1 0.9 0.3 0 0 1.1 0 0.4 0.1 0.3 0.2 0.4 0.9 0.6 0.7 0.3 1.7 0.3 0.7 0.3 0.7 0.5 0.7 0.3 0.8 0 0-0.1 0.6-0.4 0.8-1.5 0.7-0.5-0.3-0.2-0.3-0.3 0.2-0.8-0.3-0.8-0.6-0.8-0.7-0.4-0.9-1.2 1-0.9 1.5-0.8 0.5-0.4 0-0.3-0.7-0.6-0.6-0.6-0.3-1 0.3-0.6 1.3-1.4 0.8 1 0.2 0.3 0.1 0.1 2 3.3 1 2.2-0.3 1-0.3 0.4-0.3 0.9-0.1 0.9 0 0.8 0.3 1 0.5 0.4 2-0.1 0.3 11.2 0.4 0.5 2.7 1.6-0.9 1.4-0.1 1.1 0.5 1 1.2 1.4-2.2 0.1-1.7-0.3-1.5-0.8-1.6-1.3-1-1.5-1-1.9-1.1-1.5-1.4-0.3 0.9-3.7-3.9 0.1 0.2-0.9-2.2 0.7-1.2 0.4-0.6 0.6 0.4 1.5 0.1 0.5-1 2.1-2.1 1.1-2.5 0.4-11-0.1-1-0.1 0-0.5 0.2-0.5-0.3-0.5-1.3-0.2-9.8 0.1-0.1 0 0.1-1.1-0.2-1.1-1-0.4-0.2 0.1-0.5 0.8-0.4 0.3-0.1-0.1-0.1-0.3-0.2-0.1-0.4-0.1-0.4-0.4-0.3-0.5-0.2-0.4 0-0.6 0.3-1 0.1-0.5 0.1-5.7 0.8-2.7 2.2-5.4 1.1-1.2 0.9-0.2 1.3-0.7 2-1.3 2-1.7 0.9-0.9 2.5 2.4 2.7 0.9 1.4-3.1-1.4-2.4-1.6-2.6-1.7-0.3 0.1-1.4 0.3-1.1 1.1-2-0.8-0.6-0.7-0.1-1.7 0.3-0.6-0.3-0.4-0.8z" id="PHMAG" name="Maguindanao">
  </path>
  <path d="M643.6 792l2.2-1.1 0.9 0 1 0.6 0.3 0.5 0.6 1 0.5 0.6 0.8 0.5 0.5 0.3 0.6 0.2 0.9 0 1.5 0 2.7-0.4 1.5 0 3.4 0.9 1 0.1 0.2 0.5 0.2 1.1 0.1 0.5 0.5 0.7 0.5 0.4 0.5 0.3 0.6 0.6 0.3 0.6 0.2 0.7 0.4 1.3 0.1 2.1 0.1 0.6 0.3 0.5 0.4 0.6 0.5 0.4 0.5-0.5 0.4-0.4 0.1 0 0.4-0.1 0.4 0.1 1.1 0.4 0.7 0.8 0.9 0.6 0.6 0.1 0.3-0.2 0.1 0 0.2-0.4 0.3-0.3 1.2-0.3 0.1-0.2 0.7-0.2 0.6-0.2 0-0.1 0.4-0.6 0.2-1.4 0.2-0.5 0.7-0.4 1.8-0.7 0.9-0.4 1.1-0.8 2.3-2.8 0.1 0.1 0.4-0.2 0.4-0.2 0.1 0 0.1-0.1 0.1-0.3 0.1-0.2 0.2-0.1 0.4 0 1.1 0.3 0.5 0-0.1 0.5 0.5 0.6 0.2 0.6-0.1 0.7-1.7 5.7-0.4 2.8 0 0.8 0.3 1.4 0.1 1.9 0.4 2.4-0.1 1-0.2 0.4-0.6 0.9-0.6 1.4-0.1 0.3 0.7 0.8 0.7 0.7 1.9 1.1 0.7 0.7 0.3 0.9 0.2 3.1 0.2 0.7 0.2 0.2 0.1 0.2-0.3 0.4-0.1 0-0.3 0.2-1.3 0.4-0.3 0.2-0.2 0.2 0 2.5-5.5 6-0.9 3.4-13.6 2.8-2.7-1.6-0.4-0.5-0.3-11.2-2 0.1-0.5-0.4-0.3-1 0-0.8 0.1-0.9 0.3-0.9 0.3-0.4 0.3-1-1-2.2-2-3.3-0.1-0.1-0.2-0.3-0.8-1-1.3 1.4-0.3 0.6 0.3 1 0.6 0.6 0.7 0.6 0 0.3-0.5 0.4-1.5 0.8-1 0.9 0.9 1.2 0.7 0.4 0.6 0.8 0.3 0.8-0.2 0.8 0.3 0.3 0.3 0.2-0.7 0.5-0.8 1.5-0.6 0.4 0 0.1-0.8 0-0.7-0.3-0.7-0.5-0.7-0.3-1.7-0.3-0.7-0.3-0.9-0.6-0.2-0.4-0.1-0.3 0-0.4 0-1.1-0.3 0-1.1-0.9-0.9-0.2-1-0.1-0.7-0.3-0.7-0.4-0.7-0.7-0.6-0.9 0-0.4 1.9-4.5 0.5-1.3-0.1-0.8-0.7-0.4-1.4-0.2-0.9 0.2-0.7 0.6-1.1 1.6-0.7 0.8-0.4 0.3-0.2 0.1-0.6 0.2-1 0.1-0.4-0.2-0.8-0.3 0.4-1.3 8.6-12.6 0-0.9-0.5-1.1-1.5-1.9-0.4-1.9 0.9-7z" id="PHNCO" name="Cotabato">
  </path>
  <path d="M620.7 841.2l0.1 0 9.8-0.1 1.3 0.2 0.3 0.5-0.2 0.5 0 0.5 1 0.1 11 0.1 2.5-0.4 2.1-1.1 1-2.1-0.1-0.5-0.4-1.5 0.6-0.6 1.2-0.4 2.2-0.7-0.2 0.9 3.9-0.1-0.9 3.7 1.4 0.3 1.1 1.5 1 1.9 1 1.5 1.6 1.3 1.5 0.8 1.7 0.3 2.2-0.1-1.2-1.4-0.5-1 0.1-1.1 0.9-1.4 13.6-2.8 0.3 2.5 0.3 0.7 1.3 1.5 0.4 0.9 0.1 0.8-0.9 5.4-9-0.4-4.5 0.5-3.7 1.6-1.4-0.3-2.9-4.2-1.3-1.2-0.8 0.3-2.6 2.2-0.8 0-0.8-0.7-1.3-1.9-0.1 1.6-0.3 1.5-1 3.1-0.1 0.7 0.2 0.5 0.3 0.5 0.2 0.4 0 0.4-0.1 0.3 0 0.3 0.3 0.3 0.1 0.1 0.5 0.7 0.1 0.2 0 0.7-0.4 1.6 0.1 0.8 0.5 0.9 0.4 1 0.1 1-0.4 2.1-0.3 0.1-20.8-0.1 0.1 0 1.5 2.1 1.7 1.8 3.9 3.1-0.3 0.6-0.2 0.5-0.2 0.5-6.6-2.9-1-0.6-1.4-1.3-0.7-1-0.7-2-0.6-0.9-3.6-3.8-1.4-2-0.9-1.9-0.6-2.8-0.1-1.1-0.4-1.2-0.1-0.6 0.3-0.3 0.8 0 0.2-0.3-0.1-0.3 0-4.7-0.1-1.2-1-3.4 0.2-1.5z" id="PHSUK" name="Sultan Kudarat">
  </path>
  <path d="M638.5 875l0.2-0.5 0.2-0.5 0.3-0.6 0.5-1.7 0-0.5 0.2-0.5 4.9 1.9 7.8 4.9 3.9 1.6 4.5 2.4 2.1 0.4 9.2 0.2 2.6-0.2 0.2 2.5 1.2 0.2 1.4 0 0.6 0.1-1.3 3.7-1 1.2-1 0-2.6-0.5-2.1 0.7-1.3-0.3-5.4-2.6-1.4-0.4-2.4-1-0.6 0-0.7 0.1-0.5-0.1-1.4-0.5-3.4-2-0.4 0.3-1.6-0.7-0.6-0.4-0.2-0.3-0.1-0.5-0.2-0.5-0.4-0.2-0.9-0.2-7.5-4.3-2.8-1.2z m50.2 29.6l-0.2-0.5-0.1-4.2-0.3-1.1-0.4-0.8-0.5-0.6-0.7-0.3-1.2-0.1-0.3-0.2-0.3-0.4-0.2-0.6-0.1-0.5-0.3-0.6-0.5-0.3-0.6-0.1-0.4-0.2-0.6-1.1 0.2-0.8 0.5-0.8 0.2-0.9 0.2-0.8 0.4-0.9 0.9-1.4 2-2.5 0.8-1.6 0.1-2.2-0.2-0.9-0.7-1.9-0.2-0.7-0.5-0.5-0.5 0-0.1-0.2-0.2-1 0.1-1-0.1-1.3 0.3-1.6 0.8-1.3 0.7-1.2 0.1-0.8 0.1-0.9-1.3-0.8-5.9-2.1-3.4-1.2 1.1-2.6 1.6-1.7 0.8-0.7 0.1 0.2 0.2 0.1 0.4 0.1 0.5 0.2 0.3 0.2 0 0.3 0 1.1 0.5 0.3 1.3 0.7 0.7 0.5 1.8 1.8 0.8 0.5 0.7 0.2 0.5 0.1 1.4-0.2 2.5 0.4 1.2-0.1 0.5 0.3 0.4 0.3 1-0.5 0.5-0.1 0.6 0 0.5 0.1 1 0.9 1.3 2.5 1.2 1.9 0 0.6-0.3 0.7-0.1 0.7 0 0.6 0.1 1.1 0 0.6 0 0.4 0.4 0.6 0.4 0.5 0.3 0.4 0.2 0.5 0 0.7-0.3 1.5-0.1 0.4-0.2 0.3-0.2 0.3-0.3 0.2 0 1-1.7 5.2-0.1 0.5 0.1 2.8 0.1 0.5 0 0.4-0.3 0.1-0.4 0-0.2 0.2-4.6 10.6-0.7 0.9-0.1 0-0.8 0.6-1.9 1-0.3 0.2z" id="PHSAR" name="Sarangani">
  </path>
  <path d="M639.2 873.4l-3.9-3.1-1.7-1.8-1.5-2.1-0.1 0 20.8 0.1 0.3-0.1 0.4-2.1-0.1-1-0.4-1-0.5-0.9-0.1-0.8 0.4-1.6 0-0.7-0.1-0.2-0.5-0.7-0.1-0.1-0.3-0.3 0-0.3 0.1-0.3 0-0.4-0.2-0.4-0.3-0.5-0.2-0.5 0.1-0.7 1-3.1 0.3-1.5 0.1-1.6 1.3 1.9 0.8 0.7 0.8 0 2.6-2.2 0.8-0.3 1.3 1.2 2.9 4.2 1.4 0.3 3.7-1.6 4.5-0.5 9 0.4-0.5 1.2-0.2 2.8-0.3 1.3-0.4 0.5-0.4 0.3-0.2 0.4 0 0.4-0.8 0.7-1.6 1.7-1.1 2.6 3.4 1.2-1.9 3.7 0.9 3.3-4.5-0.3 0 7.1 0.7 3.2-2.6 0.2-9.2-0.2-2.1-0.4-4.5-2.4-3.9-1.6-7.8-4.9-4.9-1.9-0.2 0.5 0 0.5-0.5 1.7z" id="PHSCO" name="General Santos">
  </path>
  <path d="M681.8 851.8l0.9-5.4-0.1-0.8-0.4-0.9-1.3-1.5-0.3-0.7-0.3-2.5 0.9-3.4 5.5-6 0-2.5 0.2-0.2 0.3-0.2 1.3-0.4 11.1 0.1-1.2 1.9-0.1 2.4-0.2 1.2-0.6 0.5-2.4 2.9-1.2 2.1-0.8 2.3-0.4 2.5-0.2 2.6 0.2 0.9 0.7 2.1 0.2 1.1 0.4 0.5 0.9 0.4 0.7-0.4-0.1-1.5 1.7 1.2 2.3 3 1.4 1.4 1.1-0.6 1 0.4 0.9 0.9 0.4 1 0 2.1 0.2 0.8 1.6 3.3 0.6 0.8 0.2 0.4 0 0.6-0.1 1.2 0.1 0.6 0.2 0.4 0.5 0.7 2.6 7 0.2 0.9 0 1.2-0.2 1.1-0.6 1-0.2 0.6 0.4 1.1-0.2 0.5-0.2 0.5-0.4 1.6-0.9 2.2-3.9 4.8-5.2 7.3-3.3 5.9-0.8 1-1 0.9-0.8 0.4-0.9 0.1-2.6-0.2-0.8-0.2-0.1-0.2 0.3-0.2 1.9-1 0.8-0.6 0.1 0 0.7-0.9 4.6-10.6 0.2-0.2 0.4 0 0.3-0.1 0-0.4-0.1-0.5-0.1-2.8 0.1-0.5 1.7-5.2 0-1 0.3-0.2 0.2-0.3 0.2-0.3 0.1-0.4 0.3-1.5 0-0.7-0.2-0.5-0.3-0.4-0.4-0.5-0.4-0.6 0-0.4 0-0.6-0.1-1.1 0-0.6 0.1-0.7 0.3-0.7 0-0.6-1.2-1.9-1.3-2.5-1-0.9-0.5-0.1-0.6 0-0.5 0.1-1 0.5-0.4-0.3-0.5-0.3-1.2 0.1-2.5-0.4-1.4 0.2-0.5-0.1-0.7-0.2-0.8-0.5-1.8-1.8-0.7-0.5-1.3-0.7-0.5-0.3 0-1.1 0-0.3-0.3-0.2-0.5-0.2-0.4-0.1-0.2-0.1-0.1-0.2 0-0.4 0.2-0.4 0.4-0.3 0.4-0.5 0.3-1.3 0.2-2.8 0.5-1.2z m12.9 61.3l0.2 0.3 0.2 0.7-0.1 1.6-0.3 0.5-0.3 0-0.7-0.2-1 0.1-0.9 0.2-0.7-0.3-0.4-0.5-0.5-0.3 0-0.3 0.4-0.4 0.9-1.2 1-0.5 1.5 0 0.7 0.3z" id="PHDAS" name="Davao del Sur">
  </path>
  <path d="M687.8 796l11.4 0.2-0.3 18.1 0.2 0.8 1.2 0.3 5.3-0.1 0.7-0.5 0.8-0.9 0.8-0.5 0.7 0.5-0.5 0.4-0.6 1.1-0.1 1.2 0.2 3.5 0 1.1-0.2 0.5-0.5 0.7-0.1 0.5-0.2 0.5-2 1.9-1.5 0.8-1.8 0.4-1.7 0.9-11.1-0.1 0.3-0.2 0.1 0 0.3-0.4-0.1-0.2-0.2-0.2-0.2-0.7-0.2-3.1-0.3-0.9-0.7-0.7-1.9-1.1-0.7-0.7-0.7-0.8 0.1-0.3 0.6-1.4 0.6-0.9 0.2-0.4 0.1-1-0.4-2.4-0.1-1.9-0.3-1.4 0-0.8 0.4-2.8 1.7-5.7 0.1-0.7-0.2-0.6-0.5-0.6 0.1-0.5 0.4 0 0.4-0.2 0.2-0.3 0.2-0.4z" id="PHDAV" name="Davao">
  </path>
  <path d="M716.8 809.1l0.1-0.5 0-0.7-0.1-0.7 0.5-1 0.1-0.8-0.8-0.6 0.4-1.2 0.8-0.7 0.9-0.6 1-0.3-0.8-0.9-0.9-1.4 3.4-0.8 0.4-1.1 0.6-3.5-0.5-1.9-0.6-0.6-0.5-0.8 0.4-0.7 0.6-0.7 0.6-1.1 0.5-1.2-1.3-3.8-2.1 2.4-1.9 2.6-1.5 2.8-2.1 1.4 0.1-2.2-1.1-1.8-1.1-0.9-1.1-1.3-0.5-0.6-0.3-0.6-1.5-11 27.2 0.1-0.7 3.8 0.4 4.1 3.4 13.7 0.2 2.1-1.4 5.5 0.3 1.5 2.2 3.4 1.1 2 0.4 1.6-0.8 1.6-1.9 1.5-8.9 5.5-3.9 3.4-1.3 0.9-1.3 0.6-2.2-2-0.6-0.9-0.3-0.8-0.3-2.2-2.2-5.2 0-2.2 0.1-1.2 0-1.1-0.4-0.7-0.8-0.2z" id="PHCOM" name="Compostela Valley">
  </path>
  <path d="M741.5 774.4l0.5 1.5 0.7 1.5 1.2 1.1 1.5 0.7 1.1 0.4-0.1 0.7 0.5 1.5 0.8 1.4 1 0.9 1.6 1 0.2 0.3 0.2 0.6 1.3 1.8 1.3 0.8 2.7 0.3 1.2 0.4-0.4 1.2-0.2 1.2-0.2 2.6 0.3 1.3 1 2.7 0.4 2.5 0.4 1.2 0 1.1-0.6 1.1-0.6 0.4-0.6 0.2-0.4 0.4-0.2 0.8 0.2 0.2 1.2 0.9-0.4 1.3-0.1 2.5-0.6 1 0.5 0.3 1.7 1 0.4 0-0.3 1.1-1.3 1.6-0.2 1-0.2 0.4-0.4 0.2-0.5 0.1-0.4 0.2-0.3 0.5-1.1 2.9-0.3 0.6-1.8 1.6-0.8 1.2-0.4 1.5-0.1 1.9-0.8 1.1-1.8 0.2-2.1-0.4-1.6-0.7-1.3 1.2-0.8 1.6-0.3 1.6-0.1 1.4 0.3 0.6 1.4 1.2 0.5 0.5 0.2 0.9 0.1 1.1-0.1 1-0.4 0.4-1.6-0.6-1-1.5-1.2-3.5-1.4-1.5-1.6-0.8-1.1 0.4 0 2.3-0.3 0-0.2-0.3-0.6-0.8-0.2 1.1 0.6 1.2 0.7 1.1 0.8 1.9 1 0.9 1 0.7 0.6 0.5 0.1 1.2-0.7 2.2-0.8 4.7-0.1 8-0.9 4.2-0.2 4.9-0.4 0.9-0.7-0.2-0.2-0.8-0.3-2.7-0.1-0.6-1.8-1.3-0.2-0.5-0.1-0.6 0.1-0.7 0-0.6-1.3-2.5-0.7-0.9-0.3-1.1-0.7-6.7 0.1-1.3 0.7-3.4-0.1-1.1-0.5-2-0.2-1.1 0-1.5-0.2-0.6-0.6-0.3-1.4-0.4-1-0.6-2.1-2.9-0.3-1 0.4-2.5 0.1-1.1-0.6-1.2-1.1-1.1 1.3-0.6 1.3-0.9 3.9-3.4 8.9-5.5 1.9-1.5 0.8-1.6-0.4-1.6-1.1-2-2.2-3.4-0.3-1.5 1.4-5.5-0.2-2.1-3.4-13.7-0.4-4.1 0.7-3.8 5.8 0z" id="PHDAO" name="Davao Oriental">
  </path>
  <path d="M688.1 667.2l0.6 1.8-0.1 0.2-0.4 0.2-0.3 0.4-0.3 0.3-0.6-0.1-0.4-0.3-0.1-0.4-0.1-0.4-0.2-0.4-1.2-1.5-2.1-3.4-1.8-1.1-1-0.8-0.4-0.9-0.7-2.3 0-1.2 0.7-0.8 0.6 0 0.5 0.3 0.9 0.8 2.2 0.9 0.7 0.5 0.5 0.9 0.8 3.7 0.5 0.7 0.7 0.8 0.7 0.9 0.3 1.2z m-6.8-35.5l0.1 0.1 0.3 0.5 1 0.4 0.1 1.1-0.6 2.8 0.1 0.6 0.5 1.3 0.1 0.7-0.1 2 0.1 0.8 0.4 0.8 0.7 1.1 0.7 0.6 0.4-0.6 0.4 0 0.7 0.8 0.4 0.8 0.2 1 0.2 1.5 0.1 1.2-0.2 1.2-0.7 0.9-1.6 0.4-3.8-1.5-1 0.2-0.3 1.1 0.1 1.6 0.4 1.5 0.4 0.9-1.8-0.7-1.6-1.7-1-2.1-0.4-1.7-0.8-1.1-0.1-0.2-0.2-0.3 0-2-0.6-0.6-1-0.4-1.1 0.1-0.6 0.9 0.7 1.6 0.4 7.4 1.3 3.5 0.3 2.2 0.7 2.5-0.1 1.1-0.5 0.5-0.9-0.4-2.8-2.2-0.2-0.3-0.3-0.7-0.6-0.3-0.8-0.2-0.5-0.1-0.9-0.9-0.4-0.7-0.6-0.5-1.2-0.2-2.4 0-1.1-0.2-0.8-0.5-0.8-1.8 1.5-1.1 2.3-1.2 0.5-0.4 0.5-1 0.4-0.5 0.5-0.2 1.2-0.2 0.5-0.4 0.2-1.4-1.2-7.2 0.1-1 0.5-1.1 0.8-1.1 0.7-0.7 1-0.5 1.2-0.3 3.9-0.3 1.3-0.3 1-0.7 0.9-1.2 0.6-1 0.6-0.8 0.9-0.5 1.2-0.3 0.5-0.4z" id="PHSLE" name="Southern Leyte">
  </path>
  <path d="M648.1 611.9l-3.3-4.5 0.6-2.3 3.2-0.2 2.5-2.4 3.5 5-2.6 3.4-1-0.1-1.1 0.2-1.1 0.3-0.7 0.6z" id="PHLEY" name="Leyte">
  </path>
  <path d="M716.4 625.5l0.5 0.8-0.3 0.6-0.7 0.4-0.8 0.1-1 0.1-0.6-0.1-0.4-0.3-0.6-0.6-0.5-0.4-2-0.9-1-0.7-0.3-1.4 0.4-1.4 1.2-0.7 1.2 0.5 0.7 2.7 0.9 1 0.8 0.1 1.7-0.1 0.8 0.3z m-27.2-85.7l0 0.3 1.6-1 0.6-0.2-0.1 0.5 0 0.4 0 0.3-0.3 0.3 0.6 0.3 0.6-0.2 1-0.8-0.3 1 0.5 0.2 2.1-0.1 1 0.5 1.8 1.5 0.8-0.1 0.3 0.6 1.2 1.5 0.5 1.5 0 0.6-0.9-0.5-0.4 0.4-1.3 0.2-0.5 0.2 0.5 0.2 0.4 0.2 0.3 0.3 0.3 0.4-1.5 0.4-0.7 0.2-0.4 0.5-0.1 1.1 0.6 0.2 1.7-0.1-0.1 0.2-0.1 0.4-0.1 0.1 0.4 0.4 0.7 0.7 0.5 0.8 0 0.6-1.8 1.5-0.5 0.6-0.6 1.1-1 1.3-0.3 0.9-0.1 1.1 0.1 1.2 0.1 0.3 0.6 1.6-0.1 1.7 0.1 0.5 0.3 0.4 1.4 1.3 0.2 0.5-0.2 0.5-0.4 0.3-1.4-0.5-0.5 0.9 0.1 1 1.1-0.4 0.6 0 0.5 1.1 0.5 2-0.1 1.4-0.5 0.3-0.6 0.1-0.6 0.8 0.7 0.3-0.2 0.6-0.4 0.6-0.1 0.8 0.2 0.5 0.3 0.1 0.4 0.1 0.4 0.2 0.2 0.4 0 1.3 0.2 0.9 0.2 0.5 1.2 1.7 0.4 0.9 0 0.8-0.6 0.9 0.5 0 0.2 0.1 0.4 0 0.4-0.1 0.3 1.3 0.2 0.6 0.4 0.3 0.6 0.2 1 0.8 0.6 0.1 0.1 0.3 0.6 0.7 0.7 0.6 0.3 0.1 0 1.4-0.2 0.9-0.4 0.7-3.3 2.5-0.6 1.1 0 2 0.9 1 1.5 0.2 1.7-0.6-0.8-1 0-0.8 0.7-0.2 2.5 1.8 1 0.6 0.7 0.8 0.3 1.6 0.9 1.7 1.7 1.8 1 1.8-1 1.6-0.5-0.4-1.2-0.7-0.5-0.4-0.5-1.8-0.1-0.1-0.1-0.2 0-0.3 0-1-0.1-0.2-0.3-0.1-0.8-0.4-0.2-0.3-0.8-0.6-0.8-0.4-0.4 0.4-1.8 1.1-0.5 0.2-0.7-0.2-0.2-0.6-0.1-0.6-0.4-0.5-0.6-0.2-0.3 0.1-0.4 0.3-0.6 0.2-0.2 0.4-0.2 1.9-0.2 0.7-1.5-1.4-0.9-0.6-0.7-0.1-1 1.2-0.6 0.5-0.8 0.4-0.1-0.9-0.4-0.5-0.5-0.1-0.5 0.7-1.3-1.1-0.5-0.4-2-0.3-0.3-0.2-0.2-0.4-0.6 0.1-1.6 0.6-0.3 0.4-0.2 0.5-0.7 1-0.1 0.4-0.3 0.1-0.3-0.1 1.4-5.8 1-3.1 2.6-4.8 0.7-1.9 0.1-1.9-0.6-1.9-2.7-4.6-0.4-1.5-1.4-20.1-0.6-2.2-0.9-1.8-0.6-0.6-0.6-0.2-4.3 0.9-0.9-4.8 0-2.4 1.9-3.4 0.5-2.3 0.6-4.5 0.5-1.5 0.9-1.3 1.1-0.5 1.2 0.7 1.3 3.1 0.9 1.2 1.4-0.3 0.9-0.6z" id="PHEAS" name="Eastern Samar">
  </path>
  <path d="M650.8 580.2l1.2 0.6 0.2 1.1-0.5 1.9-0.4 0.6-0.9 0.3-3.2 0-1.3-0.4-1.1 0-0.2 0.5-0.2 0.3-0.4 0-0.3-0.2-0.2-0.3-0.1-0.4-0.1-0.2-1.8-1.9-0.7-0.9-1.4-3.8-0.3-1.2-0.2-0.5-1.2-1.4-0.3-0.5 1 0.1 2.7-0.8 0.7-0.1 2 0.2 1.5-0.2 0.5 0.1 0.9 0.4 1 0.6 0.8 0.8 0.6 2 1.3 2.7 0.4 0.6z" id="PHBIL" name="Biliran">
  </path>
  <path d="M662.4 576.5l0.3 0.6 0.4 0.4 0.6 0.3 0.9 0.2-0.2 0.5-0.1 0.6-0.1 1.3-0.2 0.6-0.3 0.5-0.4 0.2-1.3-1.5 0.1-0.2-0.1-0.5-0.3-0.3-0.8 0.7-0.7-1.9 0.3 0.1 0.4 0.2-0.1-0.9-0.5-0.8-0.7-0.6-0.7-0.3-0.5-0.2-0.3-0.6-0.1-0.7-0.2-0.5-0.4-0.6 0-0.4 0.6-1.1 0.3 0 0.1 0.1 0.6 0.6 1.8 1.1 0.2 0.2 0.2 0.2 0.1 0.3 0.1 0.4 0.1 0.3 0.8 0.4 0.2 0.5-0.1 0.8z m18.6-37.5l-0.6 4.5-0.5 2.3-1.9 3.4 0 2.4 0.9 4.8 4.3-0.9 0.6 0.2 0.6 0.6 0.9 1.8 0.6 2.2 1.4 20.1 0.4 1.5 2.7 4.6 0.6 1.9-0.1 1.9-0.7 1.9-2.6 4.8-1 3.1-1.4 5.8-0.4-0.2-0.4-0.4-0.4-0.7-0.2-0.8-0.3-2.9-0.6-2.3-1.4-2.1-2.1-0.9-2.4-0.2-2.5 0.2-2.2-0.4-0.5-1.5 0.5-4.5 0-0.4 0-0.4 0.1-0.3 0.3-0.4-0.4-0.2-1.1-0.9-0.4-0.2-0.7 0-0.4-0.2-0.7-0.5-0.7-0.6-0.4-0.7-0.4-0.8-0.8 1.7-0.4 0.3-1-0.1-0.7-0.3-0.6-0.5-0.5-0.6-0.4-0.9 0.8-0.4 0.5-0.5 0.4-0.5 0.5-0.4 0.9-0.3 0.7-0.1 0.2-0.3-0.7-0.8 3.1 0 0.7-0.4 0.9-0.9 0.8-1 0.4-0.7 0-0.9-0.3-0.8-0.2-0.8 0.3-0.7 1.2-1.3 0.8-1.2 0.3 0.3 0.9 0.5-0.1-1.3-0.6-1.1-0.9-0.7-1.2-0.3-0.9 0.3-2.2 1.3-1 0.3-1.9-1.1-3.1-4.6-2.1-0.7 0-0.4 0.3 0 0.4 0-0.5-0.2-0.2-0.1 0.7-1.5 0.2 0.1 0.3 0.1 0.3 0.2 0.3 0.3-0.2-1.1-0.8-0.6-0.8 0-0.9 1-0.9-0.2-0.5-0.5 0.8-0.5-0.3-0.5-0.3-0.2-0.4 0-0.5 0.4-0.1-1.5-0.2-0.8-0.2-0.6-2.7-2.8-2.1-0.9-2.1-0.5-1.7 0.2-1.5-0.8-2.6-1.7-2.5-3.1-1.1-1.1 0.1-0.1 0.2-0.3-1.3-0.7-0.9-1.5-1.1-3.8 0.1 0 3-0.1 0.9-0.4 0.7-1 0.7-0.7 0.9 0 8.7 4.4 1.6 1.1 0.7 0 1-0.4 1.1-0.8 0.6-0.2 0.6-0.1 1.3 0.3 1.1 0.8 1.2 0.6 1.3 0 1.2-0.7 0.9-0.6 0.8-0.4 1.4 0 4.1 0.2 1.5-0.1 0.6-0.1 0.4-0.4 0.6-0.9 0.5-0.3 0.6-0.2 1.1 0 1.7-0.4 0.9-0.4 0.7-0.6z m-51.3 12.9l1.2 0.4 0.1 0.5-1.1 0.2-0.6 0.4-1.1 0.8-0.7 0.1-0.8-0.4-0.2-0.5 0.4-0.6 0.6-0.6 0.9-0.3 1.3 0z" id="PHWSA" name="Samar">
  </path>
  <path d="M524.6 306.7l-0.3 0.4-0.3 0.5-0.1 0.5 0 1.1-0.2 0.3-0.9 0.7-0.4 0.8 0.1 0.6 0.6 1.6 0.4-0.7 0-0.4 0.4 0-0.4 1.9-1.8 3.5 0.3 1.5 1-0.9 0.9-0.6-0.2 0.8-1.3 2.2 0 0.4 0.1 0.8-0.1 0.4-0.3 0.1-0.9 0.1-0.2 0.1-1.5 2-1.9 1.4-1.6 1.8-0.2 0.1-0.2 0.2-0.2 0.3-0.1 0.4 0 0.4 0.1 0.4 0 0.3-0.8 1.2-2.3 1.5-1 1.1-0.3-0.4 1.1-1.5 0.5-1 0.2-1.1 0.5-0.8 2.5-1.7 0.4-0.9 0.2-1.3 0.5-1.1 1.7-1 0.4-1.1-0.3-0.9-1.5-0.2-1.1 0.5-0.5 0.8-0.2 1 0 1-0.4 0.9-0.8 0.5-2.1 0.6-3.1 1.7-0.7 0.2-2 0.3-1.9 0.5-0.7 0.6-0.6 0.6-0.8 0.5-1.6 0.4-0.6 0.4-0.6 0.2-0.4-0.2-0.5-0.2-0.4 0.2-3.7 3.1-0.3 0.6-1.9 2.3-2.6 1.3-0.9 0.7-0.5 1-0.4 1.1-0.4 2.4 0.1 1.3 0.8 2 0.2 1 0.6 0.5 1.3 0.2 1.2 0.3 0.6 1.1-0.3 0.8-2.3 2.7 0.9 0.2 0.5 0.2 0.5 0.3-2.1 1.2-0.9 0.7-0.4 1-0.3 1-0.6 0.9-2.9 2.4-0.4 0.7-0.5 3.5-0.3 1.1-0.5 0.9-2 2.6-0.9-0.2-0.6-0.3-0.5 0.3-0.4 1.4-0.1 2.5 0.6 2.3 1.2 1.9 1.6 1.3 0.2 0.1-0.5 0-0.9-0.1-0.6 0.4-0.3 0.7-0.3 1-0.1 0-0.2 0.1-0.3 0.1-0.1 0.4 0 0.2 0.3 0 0.2-0.1 0.1-0.1 0.4 1.3 0 0.5-0.5 1.4-1.1 1.3-1 1.3 0.1 1.5-0.4 0-0.4 0-0.3-0.1-0.4-0.1-1.4-1.5-0.5-0.8 0-0.9 0.8-2.4 0-1.1-0.3-1.6 1.6-8.1 1.8-6 0.1-2-0.4-2-5-15 9.6-8.2 19.4-16.4 3.4-3.6 8.9-12.6 11.1-0.2z" id="PHAUR" name="Aurora">
  </path>
  <path d="M487.3 453l-2.7-4.4 4.4-2.1 3 4.8-0.8 0.9-0.5 0-0.9-0.3-0.3 0.1-0.7 0.5-1.5 0.5z" id="PHQUE" name="Quezon">
  </path>
  <path d="M555.2 446.6l-18-8.7-1.1-0.1-1.3 0.3-0.8 0.5-0.9 0.7-1.4 1.4-1.1 0.7-1.5 0.6-1.1-0.2 0.1-0.8 0.4-0.3 0.9-0.7 0.6-1 0.1-1.2-0.2-0.4-0.7-1.1-0.2-0.4 0.2-0.7 0.4-0.4 0.3 0 0.2 0.7 0.4 0 0.1-0.5-0.1-0.5-0.1-0.3-0.3-0.2 1 0 0.6-0.4 0-0.6-0.7-0.7 0.1-0.5 0.8-1.7 0.4-0.7 0.3 0.8 0.5-0.3 0.5-0.7 0.2-0.9 0.8 0.4 0.7-0.4 0.7-0.6 0.7-0.6 0.7 0 0.6 0.3 1.3 0.9-0.2-0.3-0.6-0.9 1.3-0.1 2.5 1.1 1.4 0.2-0.1 0.8 0.3 0.5 0.5 0.1 0.4-0.6 0.2 0.8 0.5 0.6 0.5 0 0.3-0.7 1.5 0.2 0.7 0.2-0.9-1.4-0.1-1.3 0.4-0.6 1 0.7 0.3-0.5 0.4 1 0.5 0.7 0.8 0.1 0.9-1 0.3 0.4 0.2 0.2 0.4 0.1 0.8 0.1 0.1 0.2-0.1 0.2 0.1 0.3 0.9 1 0.4 0.1 0.8 0.1 1.5 0.3 1.1 0.7 1.6 2 0.1 0.3-0.1 0.4 0 0.3 0.2 0.1 0.7 0.1 0.3 0.1 0.3 0.2 1.2 1.9 0.6 0.5 2 2.2 0.5 0.7 0.5-0.3 0.6 0.2 0.5 0.6 0.3 0.7-0.2 0.8-0.4 0.7-0.3 0.8 0.1 1.1 1.1 1.1 1.4 0.8 0.1 0 0.2 0.8-0.2 2.5 0.4 1.5 0 0.5-0.3 0.5-0.4 0.1-0.4 0.1-0.4 0.4-0.2 0.6-0.4 2.2-0.4-0.3-0.6-0.9-1-1.8-0.8-1-2.7-2.5-0.5-0.6-0.3-0.4-0.4-0.4-0.8-0.3-5-1.3z" id="PHCAN" name="Camarines Norte">
  </path>
  <path d="M577.6 470.1l-5-2.8 4.6-1.6 3.6-0.8 4 2.4-7.2 2.8z" id="PHCAS" name="Camarines Sur">
  </path>
  <path d="M580.7 487.9l0.5-0.2 7.8-7.1 0.5 0 0.5 0.4 0.9 0.3 0.4-0.1 0.2-0.3 0.1-0.3 0.2-0.1 2.3 0.5 0.6 0.3 0.6-0.1 0.8-0.6 0.6-1.1 0.2-1.3-0.1-1.3-0.4-1.2-0.5-0.6-0.7-0.4-0.7-0.4-0.2-0.7 0.3-0.8 0.8-0.4 1-0.2 0.5 0 0.2 0.4 0.4 0.4 3.3 1.7 0.7 0.8 1.4 2.4 0.2 0.2 0.7 0.4 0.2 0.3 0 0.6 0 0.5 0.3 1.5 0.6 1.3 0.9 0.9 0.9 0.3 1 0.5 0.6 1.2 0.8 2.4 0.2-0.9 0.6 0.2 0.6 0.8 0.4 0.7-3.5-0.2-1.2 0.5-0.4 1.4-0.2 0.9-0.2 0.8-0.1 0.7 0.1 0.8 1 1.6-0.2 0.7-1.1 0.3 0 0.5 0.2 0.3 0 0.3-0.2 0.5 1.1 0.6 0.4 0.1 0.7 0 0.5-0.2 0.8-0.7 0.3-0.2 2-2.6 0.3-0.5 0.2-0.5 0.4-0.4 0.6-0.1 0.6 0.1 0.6 0.8 0.5 0.2 0.5 0 0.4 0.2 0.2 0.2-0.6 1.2-0.3 1.3-0.6 1-1.3 0.4-1.8 0.2-3.3 0.7-1.8-0.2-1.9-0.4-1.6-0.2-1.7 0.1-5.6 1.4-1.8 0.9-1.2 1.4 0 0.1-0.5-0.6-1-0.6-1-1.8-0.5-0.4-1.2-0.2-0.9-0.2-0.9 0-1.2 0.4-1.7 1-1.1 0.3-0.5-0.4-0.3-0.9-0.4-1-0.2-0.9 0.5-0.7-0.8-2 1.4-4.3-0.2-2.1-0.5-0.5z m45.9 3.3l-0.6-0.2-1.2 0-0.9-0.2-1.5-0.6-0.2-0.4 1-0.3 1.6-0.6 0.5-0.3 0.8-0.1 2.2 0.6 1 0.6 0.6 0.9 0 1-0.7 0.3-1.8-0.4-0.8-0.3z m-3.3-4.1l-0.7 0.3-0.3 0.2-0.3 0.3-0.3 0.5-0.5 0.5-0.4 0.1-0.8 0.2-0.4-0.1-1-0.3-1.2-0.4-1 0-1-0.4-0.9-0.8-0.4-0.7 0-0.5-0.1-0.3 0-0.2 0.1 0 0-0.1 2.6 0.2 1.3 0.6 0.4-0.1 0.4-0.2 0.7 0.1 0.1 0 0 0.1 0.5 0.4 0.3 0.2 0.3-0.1 0-0.3 0.1-0.2 0.4 0 0.5 0.1 0.7 0.2 0.8 0.3 0.1 0.2 0 0.2z m-10.5-0.8l0.3 0.9 0.4 0.6-0.1 0.5-0.9 0.5-0.6 0-0.5-0.9-0.3-0.3-0.7-1.1-0.1-0.6 0.3-1 0.1-1-0.2-0.7-0.6-0.8 0.2-0.2 0.5-0.3 0.5 0 2.2 0.8 0.3 0.2 0.4 0.2 0.5 0.1 0 0.6-1.4 1.5-0.3 1z m-4.8-5l-1.4-1.5-0.2-0.6 0.9 0.2 0.9 0.4 0.9 0.7 0.3 0.4 0.3 0 0.6 0 0.1 0.3-0.6 0.6-0.6 0.2-1.2-0.7z" id="PHALB" name="Albay">
  </path>
  <path d="M591.7 502.8l0-0.1 1.2-1.4 1.8-0.9 5.6-1.4 1.7-0.1 1.6 0.2 1.9 0.4 1.8 0.2 3.3-0.7 1.8-0.2 1.3-0.4 0.6-1 0.3-1.3 0.6-1.2 0.1 0 0 0.5 0.4 0.1 1.9 0.5 0.7 0.4 0.8 0.6 0.7 0.7 0.3 0.7 2.4 2.1 0.6 0.4 0.5-0.5 1.1-2.3 0.2-0.8 0.6-0.2 1.2 0.3 1.3 0.5 0.6 0.4 0.2 0.9-0.2 1.1-0.4 0.6-0.7-0.4-0.6 0.8-0.4 0.7-0.5 1.5-0.9 2-0.2 0.5 0.2 0.9 0.7 1.2 0.5 3.5 0.1 1-0.8 6.6-0.3 0.8-1.5 1-0.4 0.8 0.2 0.9 0.2 0.6 0 0.4-0.7 0.6 0.2 0.3 0.5 1.2-0.7 0.2-0.8 0.6-0.7 0.2-0.7 0.1-1.7-0.1-1.4-0.5-1.3-1.2-1.5-2.3 0.1-0.6-0.2-0.1-0.3 0.1-0.5 0.2-0.8-1-1.1-0.5-0.5-0.8-0.4-1.1-1.1-2 0.1-1.1 0.2-1.1 0.1-1.1-0.4-1.4-0.6-0.5-0.9-0.4-1.1-0.7 1.4 0 1-0.5 0.8-0.7 0.5-1.1 0.6 0.3 0.9 0.9 0.4 0.3 0.5 0.2 0.3 0 0.3-0.1 0.5-0.1 0.7-0.1 0.2-0.5 0-0.5 0.2-0.5 0.6-0.3 0.5 0.1 0.6 0.2 0.3 0.1 0.9-0.4 0.8-0.7 0.7-1 0.2-1.1-0.5-1.3-1.1-0.4-2.4 0.4-1-0.1-1.6-0.8-0.9-0.2-0.7 0.5-0.4 1-0.3 1.1-0.3 0.8-1.2 1.4-0.9 0.6-1.3 0.3-0.5 0.3-0.3 0-0.3-0.1-0.5-0.5-0.3-0.1-0.3 0.2-0.6 0.9-0.4 0.4-0.2 0-0.3 0.3-0.2 0-0.3-0.7-0.5-0.8 0.6-0.2 0.5-0.4 0-0.3-0.5-0.2-1.4 0.1-0.3 0.1 0.2 0.4 0.2 0.4 0 0.5-1.1-1 0.5-1.2 0.9-1.2-0.3-0.2-0.4 0.2-0.5 0-0.7 0.2-0.3 0.4-0.1 0.5-0.2 0.4-0.4 0.5 0 0.3-0.2 0-0.7 0-0.9-0.2-0.6-0.2-0.4-0.2-1.4-1.7-0.7-0.6-1-0.5-0.6-0.2-0.4-0.1-0.4-0.2-0.6-0.5-0.3-0.5z" id="PHSOR" name="Sorsogon">
  </path>
  <path d="M487.3 453l-2.7-4.4 4.4-2.1 3 4.8-0.8 0.9-0.5 0-0.9-0.3-0.3 0.1-0.7 0.5-1.5 0.5z" id="PHQUE" name="Lucena">
  </path>
  <path d="M472 448.4l0.5 0.7 1.3 0.9 0.5 0.6 0.3 0.8 0.4 0.5 1.2 0.8 2.8 2.3 0.8 0.3 0.8 0 0.8 0.2 0.6 0.5 0.2 0.3-1.1 1.2 0.4 3.9-0.3 1.4 0.5 0 0.4 0.1 0.6 0.2-1.6 1.7-0.2 0.4-2.2-0.5-0.8-0.1-1 0.6-3.1 2.3-1 1.1-0.8-0.2-0.8-0.5-0.2-0.2-1.5-0.6-0.7-0.2-0.9 0-0.5-0.1-0.5-0.4-0.5-0.2-0.9-0.1-1.8 0.4-0.8 0.4-0.7 0.4-0.6-0.2-1.2-0.2-0.5-0.4-0.2-0.5 0.1-0.2 0.4-0.4 0.1-0.6 0.2-1.3 0.2-1 0-0.9-0.7-2-0.2-0.2-1.1-0.7-0.7-0.3-0.6-0.2-0.6 0.2-4.2 4.8-0.4 0.3-0.4-0.3-0.3-0.6-0.1-0.7 0.3-0.3 0.4-0.3 0.3-0.6 0.2-0.6 0.2-0.3 0.7-0.1 0.4-0.3 0.1-0.4 0-0.8-0.8-0.9-0.2-0.2 0-0.7 0.2-1.1 0.1-0.7 0-0.9-0.2-0.9-0.3-0.8-0.6-0.6-1-0.3-4.8-0.6-2.2-0.6-1.2 0-1 0.4-0.4 0.7 0.2 1 0.7 1.1 0.5 1.2-1.1 0.2-2.2-0.5-0.5 0.8 0.2 1 0.5 1.2 0.2 1-0.3 0.7-0.7-0.5-1.2-1.5-0.4-2-0.1-4.6-0.9-2.1 0.8-0.2 0.7-0.5 0.3-0.6-0.2-0.2-0.6-0.4-0.2-0.8 0.3-3.3-0.2-1.5-0.6-1.1-1.5-0.5 0-0.4 0.9-0.4 0.1-0.5-0.5-0.5-0.8-0.5 0.5 0 0.3-0.1 0.7-0.3 0-0.3-0.8-0.7 0.5-1 0.8 0.5 0.7 0 0.5-0.3 0.9-0.1 0.7 0.2 0.8 0.5 0.4 0.6 0 0.8 0.1 0.5 0.3 0.6 0.7 0.6 0.6 0.5 0.5 0.1 1 0.1 0.4 0.1 0.6 0.3 0.9 0.7 0.4 0.3 0.4 0 0.8 0 0.2 0 1.6 1.3 0.9 0.5 0.4 0.1 1.6-0.2 1.9-0.4 2.7-1 2.1-1.2 0.5-1 2.2-0.3 3 0 2.7 0.6 1.4 1.5 0.9 5.8 0.6 0.6 0.9 0.2 0.7 0.4 0 1.3z m-9.4 23.8l-0.9-0.3-1.5-1.4 0-0.4 0.4 0 0.4 0.2 0.4-0.1 0.6-0.3 0.4 0.1 0.3 0.4 0.2 1.4-0.3 0.4z m-9.6-7.1l0.9 0.1 0.5 0.3 0 0.8-0.7 0.4-0.7 0.1-1.8-0.4-1.9-1.1-0.2-0.3-0.5-1.3-0.1-0.2 0.1-0.1 0.6 0.7 0.4 0.3 1.9 0.7 1.5 0z" id="PHBTG" name="Batangas">
  </path>
  <path d="M459.6 438.3l-0.5 1-2.1 1.2-2.7 1-1.9 0.4-1.6 0.2-0.4-0.1-0.9-0.5-1.6-1.3-0.2 0-0.8 0-0.4 0-0.4-0.3-0.9-0.7-0.6-0.3-0.4-0.1-1-0.1-0.5-0.1-0.6-0.5-0.7-0.6-0.3-0.6-0.1-0.5 0-0.8-0.4-0.6-0.8-0.5-0.7-0.2-0.9 0.1-0.5 0.3-0.7 0-0.8-0.5 0.9-1 0.4-0.9 0.4-0.9 0.8-0.4 2.2-0.4 0.7-0.3 0.9-0.5 0.6-0.6 0.3-0.7 0.3-0.3 1.3-0.6 0.4-0.2 1.2-1.9 4.7-4.6 0.4-0.2 0.6 0 1.2 0 0.4-0.1 0.9-1 0.9-0.7 0.7 1 0.1 1.5 0.7 0.5 1.3 2.2 0.1 0.2 0.2 0.6-0.2 1.5 0 1.3 0 0.4 0.6 0.3 0.6-0.1 0.6-0.2 0.8 0.1 0.6 0.6-0.2 0.9-0.7 1.1-0.5 1.2 0.5 1-1.5 3.7 0.2 1.6z" id="PHCAV" name="Cavite">
  </path>
  <path d="M459.8 413.7l-0.3-0.5 0.2-0.5 0.5 0.2 0.3 0.2 0.1-0.2 0.6 0.1 0.1 0.1 0.3 0 0.1 0.3-0.5 0-0.3 0.3-0.7 0.2-0.4-0.2z" id="PHMNL" name="Las Pinas">
  </path>
  <path d="M459.8 413.7l-0.3-0.5 0.2-0.5 0.5 0.2 0.3 0.2 0.1-0.2 0.6 0.1 0.1 0.1 0.3 0 0.1 0.3-0.5 0-0.3 0.3-0.7 0.2-0.4-0.2z" id="PHMNL" name="Paranaque">
  </path>
  <path d="M459.8 413.7l-0.3-0.5 0.2-0.5 0.5 0.2 0.3 0.2 0.1-0.2 0.6 0.1 0.1 0.1 0.3 0 0.1 0.3-0.5 0-0.3 0.3-0.7 0.2-0.4-0.2z" id="PHMNL" name="Pasay">
  </path>
  <path d="M459.8 413.7l-0.3-0.5 0.2-0.5 0.5 0.2 0.3 0.2 0.1-0.2 0.6 0.1 0.1 0.1 0.3 0 0.1 0.3-0.5 0-0.3 0.3-0.7 0.2-0.4-0.2z" id="PHMNL" name="Manila">
  </path>
  <path d="M459.8 413.7l-0.3-0.5 0.2-0.5 0.5 0.2 0.3 0.2 0.1-0.2 0.6 0.1 0.1 0.1 0.3 0 0.1 0.3-0.5 0-0.3 0.3-0.7 0.2-0.4-0.2z" id="PHMNL" name="Navotas">
  </path>
  <path d="M474.1 380.8l0.3 1.6 0 1.1-0.8 2.4 0 0.9 0.5 0.8 1.4 1.5 0.4 1.9 0.3 6-1.8 0-1.2 1-1 1.3-1.3 0.8-2 0.4-1 1.5-1.1 1.4-0.7 0.9-1.3-0.2-0.4 0.5-0.3 0-0.4 0.1-2.7-0.9-1 0.2-0.5 0.8-1.2 0.5-0.6 0.3-0.4 1.1-1.2 0.4-0.8-0.7-1.1 0 1.1 1.7 0.1 0.6-1.1-0.8-0.7-0.5-0.2 0.4-0.5-0.6-0.3-0.7-0.4-0.4-2.5-1-0.2-0.3 0-0.3-0.2-0.4-0.6-0.1-5.2-0.2-3.4-0.5-0.3-0.1 0.2-0.3 0.3-0.3 0.3-0.3 2.1-4.8 0.5-0.7 1.6-1 3.9-1.4 1.3-1.4 0.3-0.4 0.9-0.5 0.4-0.4 0.1-0.4-0.2-0.3-0.2-0.2-0.1 0 0.3-0.3 0.9-0.2 0.4-0.2 0.4-0.8 1.5-4.5 0-0.9-0.1-1-0.2-0.2-0.7-0.6-0.2-0.4 0.1-0.8 0.2-0.8 0.7-1.5 7.4-2 2.3-0.1 2.4 0.8 4.8 3.5 2.7 0z" id="PHBUL" name="Bulacan">
  </path>
  <path d="M436 385.2l-2.1-1.8-2.2-0.6 3-1.7 3.7-0.1 0 3.4-2.4 0.8z" id="PHPAM" name="Pampanga">
  </path>
  <path d="M428.9 394.1l0.5 0.9 0.3 2 0.4 1 0.8 0.8 1.9 1.2 0.7 0.5 0 2.2-0.5 3.6 0.1 1.1 2.1 2.4 0.2 0.6-0.2 0.6-0.1 0.9 1 3.9 0.2 2.5-0.5 2.1-1.3 1.5-2.1 0.3-0.5-0.1-0.3-0.2-0.4-0.1-0.6 0-0.2 0.3-0.1 0.4-0.3 0.3-0.7 0.2-0.2-0.2-0.2-0.4-0.2-0.4-2.5-0.7-0.4-0.2-1.1-1.4-0.3-1.5 0.3-3.4-0.2-1.8-0.6-1.1-2.2-1.5-0.6 0.4-0.5 0-0.5-0.2-0.2-0.5-0.4 0-1.7-2.5-0.6-1.7 1-0.8 0.6-0.2-0.4-0.4-1.1-0.7 0.2-0.6 0.4-0.5 0.5-0.4 0.4-0.5 0.3 0 0.3-0.1 0.7 0.2 1.3-1.3 1.2-0.9 1.3-0.6 1.7-0.2 1.3-0.5 1-1.2 0.7-1.5 0.3-1.6z" id="PHBAN" name="Bataan">
  </path>
  <path d="M424.6 381.5l-0.6 0.7-0.4 0.7-0.1 0.7 0.2 0.9 0.4 1.1 0.7 0.6 0.9 0.6 0.8 0.7 0.6 0.9 0.1 0.9-0.1 0.9 0.1 1 0.3 0.8 1.4 2.1-0.3 1.6-5.6 0-3.8-1.1-3.7 3-0.8 0.7 0.3 1.3-0.2 1.9-0.5 1.9-0.7 1-0.7 0-1-0.2-0.8-0.4-0.4-0.4-0.3-0.6-1.3-0.5-0.6-0.5 0.5-0.2 0.2-0.3 0.2-0.3 0.2-0.4-0.2 0.1-0.9 0.3-1.2-4.2-0.4-2.1 0.4-5-0.2-2.3-1.9-7.9-0.5-0.6-0.3-0.2-0.1-0.5 0.2-1 0-1.3-0.2-0.4-1.1-1.7-0.9-1.8-0.6-0.9-3-3-0.5-1 0.2-0.5 0.8-0.5 0.1-0.3 0-0.6-0.1-0.3-0.2-0.8 1 0.6 1.1-0.2 0.8-0.9 0.4-1.3-0.1-0.4-0.3-0.4-0.3-0.3-0.2-0.2-0.2-0.3-0.1-0.6-0.2-0.6-0.5-0.4 0 0.2-0.3 0.5-1-2.1-0.1-0.7 0.1-0.6 0.7-1.5 0.3-0.8-0.2-1.6-0.9-0.8-1.1-0.7-0.8-1.4 1.2-0.3 0.3-0.9-0.3-2.1 0.2 0.1 1.5 0.1 1.3-0.2 1.2-0.5 2.2-2.3 1.3 0.1 2.7 1.5 0.8 0.1 1.5-0.1 0.7 0.1 0.6 0.6 0.3 0.9 0.3 1.7 1 2.1 2.8 4.1 0.8 2.2-4.2 7.4-1.4 4.1 1.1 3.5 1.7 1.3 4.2 1.5 1.9 1.1 1.2 1.2 1 1.5 1.6 3.1z" id="PHZMB" name="Olongapo">
  </path>
  <path d="M424.6 381.5l-0.6 0.7-0.4 0.7-0.1 0.7 0.2 0.9 0.4 1.1 0.7 0.6 0.9 0.6 0.8 0.7 0.6 0.9 0.1 0.9-0.1 0.9 0.1 1 0.3 0.8 1.4 2.1-0.3 1.6-5.6 0-3.8-1.1-3.7 3-0.8 0.7 0.3 1.3-0.2 1.9-0.5 1.9-0.7 1-0.7 0-1-0.2-0.8-0.4-0.4-0.4-0.3-0.6-1.3-0.5-0.6-0.5 0.5-0.2 0.2-0.3 0.2-0.3 0.2-0.4-0.2 0.1-0.9 0.3-1.2-4.2-0.4-2.1 0.4-5-0.2-2.3-1.9-7.9-0.5-0.6-0.3-0.2-0.1-0.5 0.2-1 0-1.3-0.2-0.4-1.1-1.7-0.9-1.8-0.6-0.9-3-3-0.5-1 0.2-0.5 0.8-0.5 0.1-0.3 0-0.6-0.1-0.3-0.2-0.8 1 0.6 1.1-0.2 0.8-0.9 0.4-1.3-0.1-0.4-0.3-0.4-0.3-0.3-0.2-0.2-0.2-0.3-0.1-0.6-0.2-0.6-0.5-0.4 0 0.2-0.3 0.5-1-2.1-0.1-0.7 0.1-0.6 0.7-1.5 0.3-0.8-0.2-1.6-0.9-0.8-1.1-0.7-0.8-1.4 1.2-0.3 0.3-0.9-0.3-2.1 0.2 0.1 1.5 0.1 1.3-0.2 1.2-0.5 2.2-2.3 1.3 0.1 2.7 1.5 0.8 0.1 1.5-0.1 0.7 0.1 0.6 0.6 0.3 0.9 0.3 1.7 1 2.1 2.8 4.1 0.8 2.2-4.2 7.4-1.4 4.1 1.1 3.5 1.7 1.3 4.2 1.5 1.9 1.1 1.2 1.2 1 1.5 1.6 3.1z" id="PHZMB" name="Zambales">
  </path>
  <path d="M423.8 329.2l1.6 2 0.4 1.7-3.3 2.7-2.4 0.6-2.1-3.8 1.9-0.2 0.8 0.6-0.4 1.5 0.6-0.5 0.6-1.2 0.6-0.6 0.4 0.2 0.6 0.1 0.6-0.1 0.2-0.6-0.3-0.4-0.7 0.1-0.7 0.3-0.5 0 0.2-0.8 1.9-1.6z" id="PHPAN" name="Pangasinan">
  </path>
  <path d="M423.8 329.2l1.6 2 0.4 1.7-3.3 2.7-2.4 0.6-2.1-3.8 1.9-0.2 0.8 0.6-0.4 1.5 0.6-0.5 0.6-1.2 0.6-0.6 0.4 0.2 0.6 0.1 0.6-0.1 0.2-0.6-0.3-0.4-0.7 0.1-0.7 0.3-0.5 0 0.2-0.8 1.9-1.6z" id="PHPAN" name="Dagupan">
  </path>
  <path d="M432.4 322.3l-0.9 1.2-1.5 0.4-3.3-0.2-0.9-0.1-0.3-1.1-0.6-1.3-1.7-2.2 0 1.1-0.3-0.4-0.3-0.4-0.3-0.3-1.3-9.2-0.7-2.1 0.4-2.9-0.5-1.3-0.7-1.4-0.5-1 0.5-0.5 0 0.2 0.2 0.1 0.4 0.1 0.6 0 0-0.4-0.3-0.7 0.1-1.2 0.2-1.3 1-2-0.1-1.1-0.4-1.3-0.2-1.2 0-1.2 0.2-0.6 0.2-0.5 0.3-0.7 0.4-0.3 0.4-0.3 0.5-0.5 2.6-3.8 0.7 0.3 1 0.3 0.8 0 1.8-0.3 0.8 0.2 0.4-0.1 0.4-0.2 0.4-0.1 0.4 0.3 0.1 0.7-0.5 2.1-0.1 0.8 0.4 0.9 0.5 0.6 0.2 0.6-0.2 0.9 0.7 0.3 0.3 0.8 0 2.3-0.1 1 0 0.4 0.3 0.7 0.4 0.6 1.8 1.8-4.3 4.8-1.7 2.8-0.6 3 0.9 6.7 0.9 3.3 1.1 2.9z" id="PHLUN" name="La Union">
  </path>
  <path d="M436.1 298.8l-1.8-1.8-0.4-0.6-0.3-0.7 0-0.4 0.1-1 0-2.3-0.3-0.8-0.7-0.3 0.2-0.9-0.2-0.6-0.5-0.6-0.4-0.9 0.1-0.8 0.5-2.1-0.1-0.7-0.4-0.3-0.4 0.1-0.4 0.2-0.4 0.1-0.8-0.2-1.8 0.3-0.8 0-1-0.3-0.7-0.3 1.5-2.4 0.4-1.2 0.1-1.4-1-9.6-0.2-0.3-0.5-0.8-0.1-0.4 0-0.9 0.5-2.4-0.2-3.3 0.2-0.3 1-1.1 0.4-0.6 0.2-0.5 0.1-0.5 0-0.7-0.4-1.9-1.8-4.2 0-1.2-2.4-0.6-0.9-0.5-0.4-1 1.1-6.8 0.5-0.5 1.2-0.2 0.9-0.4 0.5-0.9 0.3-1 0-0.8-0.5-0.8-0.6-0.7-0.3-0.6 0.4-0.8 1.3-1.5 0.3-0.8 0.1-1.3-0.2-1.9 1-0.1 1.5-0.1 1.5 0 1.3 0.5 0.8 1.3-0.3 2.2-1 2.7-0.3 2.6 1.5 1.6-1.1 1.9-1.1 2.3-0.8 2.3-0.8 5 0.5 0.3 1.6-0.4 1-0.1 1.3 0.2 1.2 0.4 0.7 0.7 0 1.6-0.9 1.7-1.2 1.6-0.7 1.4 0.1 1.7 0.8 1.1 1.2 0.7 1.6 0.2 0.5 0.1 0.3 0.5 0.2 0.5 0.4 0.5 0.6 0.2 1.4 0.1 0.5 0.4 0.4 1.2 0 1.1 0.2 1.2 0.7 1.2 1.7 1.2 1.3-0.1 1-1.1 1.2-1.6 0.9-0.3 1.2 0.4 2.1 1.2-2 0.7-1.4 1.6-1 2-0.6 2 0 2.1 0.3 2 0.1 2.2-0.8 2.1-1.8 0.9-2.2 0-2 0.5-1.3 2-1 9.3-1.3 2.3z" id="PHILS" name="Ilocos Sur">
  </path>
  <path d="M433.1 239.8l-1.5-1.6 0.3-2.6 1-2.7 0.3-2.2-0.8-1.3-1.3-0.5-1.5 0-1.5 0.1-1 0.1-0.1-0.5 0.2-0.8 1.2-1.8 1.2-2.4 0.2-0.7 0.1-1-0.1-1.2-0.2-1.2-0.3-0.7 0.1-0.8 3-6.4-0.1 0.1-0.2-0.2-0.1-0.3 0-0.3 0.2-0.2 0.2 0 0.2-0.2 0.1-0.2 0.3-0.7 1.6-3 0.7-1.8 0.4-2.2-0.1-2.4-0.6-2.1-0.6-1.5-0.1-0.9 0.5-0.9 1.1-1.1 1.1-1 0.9-0.1 2.2 0.5 1.2-0.1 2.4-0.9 1-0.2 0.9-0.5 0.2-1.1 0-1.3 0.2-1 0.7-0.8 1.1-0.5 1.2 0 0.8 0.4 0.9 1 1.3 2.3 1 0.7 0.9 0.1 1.1-0.4 0.9-0.5 0.4-0.5 0.4-0.5 0.9-0.4-0.7 0.9-0.5 2-0.9 6.1-0.1 1.3-0.5 2.7 0.2 1.3 0.2 1.1 0.2 1.2-0.1 1.2-0.6 1.1-0.6 0.5-0.6 0.2-0.5 0.3-0.1 0.8 0.4 1 1 0.6 1.1 0.5 0.8 0.5 0.4 0.7 0.2 0.6-0.2 0.6-1.2 1.6-0.5 0.9-0.3 1-0.1 1.3 0.4 3 0 1.4-0.7 0.8 0 0.3 0.2 0.6-1.1 1-1.5 0.2-1.8-0.1-1.5 0.2-3 1.8-1.5 1.1-2.4 2.6-1.4 0.5-1.4 0.2-1.5 0.8-1.2 1.3-1.2 1.8-1.1 1.8-0.8 1.6z" id="PHILN" name="Ilocos Norte">
  </path>
  <path d="M455.5 197.9l0.9-6.1 0.5-2 0.7-0.9 1.2-0.6 0.8-0.3 0.5 0 1.1 0.1 0.6-0.1 0.5-0.3 0.6-0.5 0.7-0.4 0.6 0.3 0.4 0.2 0.6 0.2 1.2 0.1 0.6 0.2 0.4 0.4 0.2 0.6 0.4 0.4 2.7 1.3 1.4 1.3 5.3 2.7 0.7 0.7 0.8 0.5 1.7 0.5 4 2.7 0.4 0.2 0.7 0 0.4 0.2 0.3 0.4 0.3 0.5 0.4 0.4 2.5 0.8 1.1 1.5 0.9 1.5 1.1 1 0-0.3-0.8-0.8 0-1.2 0.5-0.8 0.8 0.2 0.7 0.6 9.7 3.8 2.3 0.5 1.1 0 3.1-0.4 0.7-0.3 2.8-1.6 2.1-3.4 0.7-0.5 1-0.2 0.5-0.6 0.1-1.9 1.3-4 0.4-0.7 2.4-0.2 1.2 0 0.8 0.4 0.4 0.9 0.2 2.3 0.3 0.9 0.4 0.6 1.5 1.3 0.5 0.3 1.1 1.5 0.4 2.3-0.3 2.5-0.7 2.4-1 1.8-1.4 1.8-0.8 0.8-1.8 1.3-1.8 1.6-0.3 0.4-0.2 0.8-0.1 0.7 0.2 0.5 0.2 0.4 0.1 0.5 0 1.9 0.3 1.8 0 0.7-2.3 10.5 0 0.6 0.1 1.3 0 0.4-0.3 0.7-0.1 0.4 0.3 0.4 0.7 0.9 0.1 0.4 0.1 5 0.3 1.4 1.2 3-16-0.1-0.9 0.1-1.8 0.8-0.9 0.1-6.3 0-2.7 0.4-0.8-0.7-0.8-0.5-0.9-0.4-0.9-0.4-1.2-0.6-0.9-0.9-1.7-2.2-3.7-4.1-1.1-1.5-0.4-0.9-0.6-2.2-0.5-0.8-0.7-0.8-0.7-0.1-0.7 0-1-0.2-1.3-0.9 0-1.1 0.7-1.1 1.1-1.1 0.4-0.8 0.9-2.6 4.6-8.8 0.8-2.4 0.4-2.6 0.1-2.5-0.4-2.2-1.2-1.8-9.5-6.2-2.7-1.3-5.5-1.8-1.4-1-0.3-0.9-0.2-0.9-0.2-0.8-0.7-0.3-0.8 0.2-0.5 0.7-0.4 0.7-0.5 0.6-1 0.8-0.8 0.8-0.9 0.7-1.4 0.5z m23.2-25.8l1.5-0.3 0.7 0.1 0.7 0.6 0.4 0.4 0.4 0.3 0.5 0.1 0.6 0-1.3 0.9-1.2 0.6-1.3 0.3-4.8 0.4-1.2-0.2-0.9-0.9-0.2-0.8 0.3-0.2 1-0.1 2.9-1 1.9-0.2z m31.2-4.6l0.7 0.5 0.4 0.8-0.1 0.7-1.4 0.6-1.1 1.6-0.7 0.8-1.9 1.6-0.7 1-0.3 1.1-0.5 0.5-1-0.1-0.7-0.6 0.3-0.8 0-1.1 1.1-0.9 0.7-1-1.1-1.3 0.6-0.6 0.4-0.9 0.1-0.8-0.1-0.4 0.4-0.2 0.7-1.2 0.5-0.5 0.3 0 0.4 0.3 0.3 0.1 0.2-0.2 0.1-0.1 0.8-0.4 0.3-0.1 0.5 0.2 0.2 0.4 0.3 0.6 0.3 0.4z m-40.7-10.9l0.4 0.3 0.4 0.3 0.2 0.4 0.4 2.3 0.8 2.1 0.3 2-0.7 1.6-1.9-1.9-0.7-0.8-0.4-1.3 0.2-1.3 0.8-2.4 0.2-1.3z m16.9-8.2l0.6 0.8 0.1 0.2 0 0.2 0.2 0.2 0.1 0.3 0.1 0.4-0.2 0.3-0.5 0-0.5-0.1-0.3 0.1-0.4 0.2-0.1 0.4-0.2 0.3-0.4 0.2-1.5-0.6-0.3-0.3-2.1-1.2-0.3-0.1-0.4 0-0.4 0-0.4-0.3-0.3-0.5-0.6-1.3-1.7-2 0.1-0.3 0.9-0.2 0.6-0.3 0.9-1.1 3 1.1 1 0.1 1-0.2 0.8-0.4 0.6 0 0.6 0.6 0 2.7-0.1 0.2 0 0.2 0.1 0.4z m24.1-14.6l0.3 0.1 0.5 0.3 0.3 0.3 0 0.3-0.3 0.7-0.2 2-0.5 0.8-0.9 0.4-0.8-0.3-1.2-1.3-1-0.6-0.4-0.4-0.1-0.5 0-0.6 0.2-0.2 0.3 0.1 1.1-0.3 0.8 0.2 0.5 0 0.4-0.2 0.6-0.7 0.4-0.1z" id="PHCAG" name="Cagayan">
  </path>
  <path d="M483.5 288.8l6.9 6.6-0.2 3.9-1.8 1.9-1.6-1.1-2.8 0 0.8-2.8-1.4-2.4-4.6 1.6-0.6-1.1-2.4-2.8 0.3-0.6 0.1-0.3-0.1-0.1 0.3-0.2 0.2 0 0.1 0.1 0.1 0 0.6 0 0.4-0.2 0.1-0.5 1.5-0.3 0.4-0.2 0.4-0.4 0.2-0.5 0.2-0.4 0.1-0.2 0.6-0.1 1.5 0.2 0.7-0.1z" id="PHISA" name="Isabela">
  </path>
  <path d="M417.7 921.7l0.1 0.8-0.8 3.3-0.3 2.1-0.3 1.2-0.6 0.7-0.7-0.2-0.6-0.4-0.4-0.5-0.1-0.9 0.4-1.6 0-0.8-0.4-0.4-0.3 0.1-0.2 0.4-0.1 0.4-0.1 0.3-0.3 0-1 0-0.4-0.3-0.4-0.5-0.3-0.6-0.2-0.5-0.5 0.8-0.2 1.7-0.4 0.8-0.8 0.3-0.8-0.2-0.7-0.3-0.6-0.2-1.1 0.2-0.4 0.4-0.2 0.6-0.5 0.7-0.4 0.1-0.5 0-0.4 0-0.2 0.4-0.4 1.7-0.8 0.7-0.6-0.2-0.5-0.4-0.6-0.1-0.5 0.3-0.7 1-0.5 0.2-1.7 0-0.7 0.3-0.4 0.3-0.5 0-0.6-0.6-0.1-0.7 0.1-1.8-0.3-0.9 0.5-0.4 0.4-0.2 1.9-0.7 1.6-0.8 0.4-0.3 0.3-0.1 1.9-1.1 0.7-1.3 0.4-0.5 1.7-0.2 1.3-0.5 0.5-0.1 0.4-0.2 0.9-0.9 0.5-0.1 0.4 0.2 0.4 0.1 0.5-0.2 0.1-0.3 0.2-1 0.3-0.4 1.4-0.8 0.5-0.7 0.7-0.3 1.2-0.5 1-0.7 0.6-0.2 0.5 0.1 0.3 0.4 0.1 0.6 0 2.8 0.2 0.4 0.4 0.1 0.5-0.2 0.4-0.1 0.4 0.4z m-41.2 22.3l0.2 1 0.8 1.8 0.2 0.9-0.1 1-0.1 0.9-0.3 0.8-1.5 3.6-0.6 0.5 0-3.3 0.3-3.1-0.3-3.6-0.4-1.7-0.7-1.5 0.6-0.2 0.6 0.2 0.6 0.4 0.3 0.6 0.2 0.4 0.1 0.4 0.1 0.5 0 0.4z m18.7 1.7l1.2 0.6 0.2 0.6-0.4 0.1-0.9 0-0.8-0.4-0.3-0.7 1-0.2z m0.3-2.3l-0.9 0-1.2-0.9-0.4-1.4 0.1-0.9 0.6-0.3 0.7 0.3 0.3 0.4 1.1 0.5 0.4 1 0 0.7-0.4 0.5-0.3 0.1z m-2.2-10.5l-0.2 0.1-0.1 0.2-0.2 0.3-0.6 0.3-1.3 0.3-0.3-0.4 0.2-1.1 1.1-1.8 0.7-0.8 0.8-0.5 0.4 0.1 0 0.8 0.1 0.6 0.2 0.6 0.1 0.7-0.3 0.6-0.3 0.2-0.3-0.2z" id="PHTAW" name="Tawi-Tawi">
  </path>
  <path d="M514.1 842.3l0.9-0.1 0.5 0.1 0.5 0.2 0.7 0.7 0.4 0.4 0.6 0.2 1.3 0.3 0.7 0.1 0.1 0.2 0.3 0.5 0.4 0.5 0.6 0.2 2.4 0.4 0.6 0.2 0.3 0.3 0.3 0.3 0.3 0.3 0.5 0.2 1.4 0.5 0.5 0.2 1.7 1.1 0.3 0.5-0.7 0.8-1.1 0.4-2.5 0-1 0.6-0.6 0.7-0.5 0.7-0.4 0.8-0.2 0.9-0.3 2.4-0.5 0.9-1.2 0.4-1.2 0.1-1.2 0.2-3.5 1.3-1 0.2-2.3 0-1.8 0.3-0.2-0.1-0.1-1.1-0.1-0.5-0.2-0.4-3.8-3.2 0-2.8-0.2-1-1.1-0.5-1.2-0.1-1-0.4-0.4-1.4 0.2-1.4 0.6-0.9 0.9-0.4 4.4-0.4 0.5 1.8 1 0.2 0.9 3.2 7.2-0.4-2.3-4.6-0.4-2.4 0-1.2z m-22.5 4.4l0 3.7-0.3 1.2-0.4 0.3-0.3-0.5-0.2-1.1-0.3-0.8-0.6-0.8-0.4-0.6 0.4-0.3 0.5-0.5 0.4-0.9 0.5-0.5 0.7 0.8z" id="PHBAS" name="Basilan">
  </path>
  <path d="M660.7 709.1l0.5 0.4 0.5 0.9 0.3 1-0.4 1.5 0.1 0.9-0.1 0.9-0.7 0.7-0.4 0.2-0.5 0.1-0.4-0.1-0.3-0.7-0.4-0.1-0.5 0-0.4-0.1-3.3-1.6-1.3-1.3-0.6-1.8 0.6-2 1.4-1.2 1.9-0.5 2 0.6 0.9 1.4 0.5 0.5 0.6 0.3z" id="PHCAM" name="Camiguin">
  </path>
  <path d="M602.5 711l0.2 0 0.7 0.4 0.4 0.4-0.4 0.2-0.6 0.9-0.3 0.3-0.5 0.1-1.5-0.1-0.4 0-0.3 0.2-0.2 0.3 0 0.4-0.2 0.5-0.4 0-0.9-0.3-1.1 0-0.9-0.2-0.9-0.4-4.4-3.1-0.5-0.8 0.2-0.6 1.4-1.2 0.9 0.5 1.3-0.2 1.3-0.7 1.6-1.3 0.4-0.3 0.2-0.3 0.1-0.9 0.3-0.6 0.7-0.2 0.8 0 0.7 0.2 0.5 0.8 0.8 1.6 0.4 0.3 0.9 0.4-0.2 0.7-0.5 0.7-0.4 0.4 0 0.6 0.2 0.4 0.6 0.9z" id="PHSIG" name="Siquijor">
  </path>
  <path d="M649 672.6l-0.8 0.5 1 1.1 2.9 2.1-1.3 2.9-0.2 0.7-0.5 0.2-1.4 0-1.3-0.2-0.8-0.2-0.2-0.5 0-0.5-0.1-0.5-0.8 0-0.4 0.3-1.6 1.7-0.5 0.3-0.7 0.2-0.6 0.4-0.2 0.6-0.1 0.8-0.1 0.5-0.2 0.6-0.4 0.5-1.5 1.2-2.4 1-2.3 0.7-1.9 0.1-2-0.1-8.4 0.6-6.9-1.2-2.4-0.8-1.1-0.7-0.5-0.9 0.2-1.2 0.4-1.1 0-1-0.6-0.7-0.9-0.1-1.1 0-0.9-0.2-0.4-1 0.1-1.2 0.3-1.2 1.1-2.2 0.7-0.8 1.8-1.6 0.4-0.8 0.2-0.7 0.4-0.1 0.7 0.3 0.5-0.2 0.3-0.4 0.2-0.5 0.3-0.4 1.7-0.7 2.5-0.5 2.2-1 1-1.8 0-1.1 0.3-0.9 0.6-0.5 1.6-0.4 0-0.4-0.1-0.4 0.1-0.5 0.4-0.4 0.7-0.5 0.4-0.2 0.8-1.2 0.4-0.3 1-0.4 2-0.4 2.2 0 3.6-0.5 1 0.5 0.4 2.3 0.6-0.5 0.8-1.4 0.8-0.4 0.1 0.7 0.5 1 0.5 0.7 0.7-0.1 2.4 2.1 0.7 0.5 1.7-0.1 0.5 0.2 1 0.6 1.5 0.8 0.6 0.6-0.2 1.3 0 1-0.2 0.5-0.6-0.9-0.2 1.1 0 0.8-0.1 0.5-0.4 1 0.8 0.7 0.7 1 0 0.9-1 0.4z m-38.8 12.4l1 0.7 0.4 0.5-0.3 0.7-1 1-2.1 1.6-1 0.4-1.1 0.1-0.8-0.2-0.7-1.3-0.6-0.5 0.1-0.2 0.6-0.2 0.5-0.2 0.3-0.4 0.6-0.4 0.9-0.6 2.1-0.8 1.1-0.2z m41-27.1l-0.6 0.9 0 0.9 0.1 0.7-0.4 0.5-0.8-0.3-0.7 0.3-0.6 0.9-0.5 0.4-0.6-0.4-0.3-0.5 0-0.5-0.1-0.6 0-0.7 0.3-0.3 0.4 0.1 0.4-0.1 0.2-0.3 0.3-0.2 0.3 0 0.5-0.1 0.7-0.5 0.3-0.3 0.4-0.1 0.7-0.2 0 0.4z" id="PHBOH" name="Bohol">
  </path>
  <path d="M549.6 625.5l1.4 2.2 0 3-0.9 3-1.8 4.3-1.2 1.9-1.6 1.5-2.1 0.6 0.5-1.5-0.6 0-0.9 0.7-0.3 0.4-0.3 0.2-1 0.7-0.6 0.2-0.3-0.2-0.2-0.5-0.4-1.1 0-0.3 0-0.6 0-0.3-0.3-0.1-0.6-0.2-0.2 0-0.2-0.2-0.5-0.5-0.2-0.6 0.7-0.2 0.6 0 0.6-0.1 0.3-0.2 0.2-0.7 0.1-0.4 0.9-0.4 0.4-0.5-1-0.2-0.4-0.9 0.1-1.2 0.4-0.8 0.6-0.8 0.9-1.7 0.6-0.7 0.8-0.5 1-0.2 0.8-0.3 0.5-2.1 0.6-0.8 0.8-0.6 0.6-0.8 1.6 1.2 0.6 0.3z" id="PHGUI" name="Guimaras">
  </path>
  <path d="M560.8 631.9l0.7-1.7 0.1-0.5 2-3.4 0.2-1.2 4.9 3.4-2.3 4.8-5.6-1.4z" id="PHBCD" name="Bacolod">
  </path>
  <path d="M560.8 631.9l5.6 1.4 2.3-4.8-4.9-3.4-0.2-3.5-0.2-0.3-0.8-0.5-0.2-0.3 0.1-1.2 0.1-0.4 0.2-0.5 0.5-0.6 1.4-1.7 0.5-0.3 2.4-0.1 1.1-0.2 1.1-0.4 4.4-2.8 2.3-1.1 2.5 0.1 0.1 0.2 0.2 0.4 0.2 0.4 0.4 0.1 1 0 0.3 0 0.6 0.4 0.9 0.9 0.7 0.3 0.6-0.1 1.4-0.6 0.6-0.1 0.7 0.4-0.1 0.4-0.4 0.5 0.1 0.6 0.5 0.3 0.4-0.2 0.4-0.5 0.6-0.4 0.8-0.1 0.6 0.1 0.5 0.2 1.9 0.5 1 0.4 0.8 0.8 0.3 2.2 0.3 0.5 0.7 1 0.2 0.1 0.2 0 0.2 0.1 0.2 0.2 0 0.3-0.2 2.5-0.5 1-1.5 2.2-0.9 2.1-1.7 7.2-0.6 1.3-4.5 4.8-0.6 0.9-0.7 1.6-1-0.1-3.1-0.6-1.3-0.5-0.3 0-0.2-0.1-0.1-0.4-0.1-0.3-0.1-0.3-0.1-0.2-0.3-0.2-1.3-0.2-1.3 0.5-1.4 0.5-1.3 0.3 1.7 6.5 0 1.7-0.7 1.7-8.1 15-22.2 28.6-0.4-0.7-1.1-1.3-1-0.8-1.1-2.6-0.8-0.6-0.6-0.2-0.4-0.5-1.6-3.4-0.5-0.7 0.4-0.5-0.2-0.5-1-0.9-0.2 0.2-0.6 0.3-0.3 0.2 0.1-0.7 0.4-1.4-0.1-0.9-0.3 0.2-0.8 0.4-0.4 0.2 0.1-2.1 0.3-2 0-1.8-0.8-1.5 0-0.4 0.6-0.6 2.1-3.7 0.9-2.4 0.7-0.4 1.1-0.2 2.3-0.5 1.2-0.1 3.5 0.7 0.9 0.5 0.8-0.5 2.7-0.6 1.1-0.6 2.9-3 1.3-0.9 1.1 0.6 1-0.5 1.4-1.8 0.4-1-0.2-1.3-0.7-2.3-0.4-2.4 0.8-6.6-0.6-2.4-2-4.3-0.4-2.3 0.5-1 1-0.4 1-0.3 0.5-0.3 0.3-0.6 1.9-1.9 0.5-1.1z" id="PHNEC" name="Negros Occidental">
  </path>
  <path d="M543.5 696.1l22.2-28.6 8.1-15 0.7-1.7 0-1.7-1.7-6.5 1.3-0.3 1.4-0.5 1.3-0.5 1.3 0.2 0.3 0.2 0.1 0.2 0.1 0.3 0.1 0.3 0.1 0.4 0.2 0.1 0.3 0 1.3 0.5 3.1 0.6 1 0.1-1.1 2.4-0.2 1.2-0.1 3.6-0.2 1.1-1.7 3.3-0.2 1.3-0.1 1.3-0.1 1.1-0.4 1-2.4 3.6-0.5 1.4-0.4 0.3-0.4 0.4-0.1 0.2-0.8 2.5-1.5 1.7-0.7 0.9-0.3 1.3 0.7 9.3-0.3 1.3-0.1 0.6-0.1 0.7-0.4 0.1-0.5-0.2-0.4 0.3-0.1 1.4 2.3 1.6-0.4 1.4-0.5-1.1-0.9 0.6-0.5 1.1 1 0.6 1.5 0.2 0.5 0.6 0 0.9 0.4 1.3 0.7 0.7 1.1 0.8 1.1 0.8 0.8 2.5 0.9 1 1.1 0.9 0.9 1.1 0.4 2.2-0.6 2.5-1 2.2-3 4.3-0.2 0.9-0.5 0.7-3.7 2.3-0.7 0.2-1.9 0-0.7 0.1-1 0.5-1.2 0.2-0.8 0.5-0.6 0.1-2.2-0.7-1.8-1.8-1.3-2.2-2.2-5.4-0.3-3.6-0.3-1-0.6-0.9-1.3-1.3-1-0.7-0.9-0.2-3.5-0.2-1.1-0.2-2.4-1.3-0.7-0.2-0.5-0.2-0.4-0.4-0.4-0.6-0.3-0.3-0.7-0.2-0.7 0-0.6-0.2-0.1-0.3z" id="PHNER" name="Negros Oriental">
  </path>
  <path d="M615.2 643.7l-1.5-1.9-1.8 1.5-1.9 3 0.5 2.3 1.1 3.4-0.6 0.4-1.3 0.1-1.3 0.2-0.8 0.5-1.1 1.5-2.9 2.3-0.4 0.9-0.1 1.1-0.2 0.8-0.5 0.6-0.7 0.6-0.4 0.3-0.7 0.2-0.3 0.3-0.2 0.3-0.3 0.4-0.2 0.5 0 0.4 0 4.3-0.7 2.9-0.1 1.1-0.2 0.4-0.5 0.3-0.5 0.2-0.3 0.2-4.9 11.6-0.3 2.1-0.9 2.6-0.4 1-0.5 0.5-0.9 0.6-0.5 0.4-0.5 0.6-0.7 1.2-2.8 3.4-0.6 0.5-0.9 0.5-0.8 0-0.3-1.2-0.4-3.1 0-1.2 2.7-15.1 2.2-5 0.2-1.1 0.1-1.3-0.2-0.3-1.1-0.5-0.2-0.3 0.2-1.7 0.2-0.4 0.4-0.2 0.3 0.2 0.2 0.3 0.2 0.1 0.2-0.4 0.1-0.5 0-1.2 0.3-1.4 0.7-0.9 2-1.6 1.9-2.1 0.7-1.2 0.7-2.5 2.5-3.5 0.9-3.4 0.4-0.9 1-0.9 4.5-6.1 0.2-0.9 0.1-0.2 0.3-0.3 0.2-0.4 0.2-0.5-0.4-1.8 0-0.7 0.6-1.1 1.3-1.6 0.6-2.2 0.7-1.2 0.8-1.2 2-2.3 1-1.5 3.6-10.2 1-1.7-0.3-1.2-0.6-1.9 0.3-1 0.6-0.7 0.5-0.8 0-1.3 0.4 0 0.2 0.4 0.2 0.3 0.7 0.4-0.6-2.9-0.3-0.6-0.2-0.8 0.4-1.1 0.6-1 2.6-3.5 1.4-1 1.6 0.4-0.1 0.4-0.3 1.6-0.6 1.5-0.3 1.1-0.2 2-0.3 1-1.6 2-0.6 0.9 0.5 0.2 0.2 0.4 0 0.4 0.2 0.2 1.1-0.1 0.5-0.1 0.4-0.2-0.1 1.1 0.5 3.2-0.1 1.2-0.4 1.7 0.1 1 0.7 1.3 0.1 0.6-0.2 0.5-0.8 1.3-0.2 0.6-0.2 1.3-0.9 2.2-0.3 1.2 0.2 2.2 1.4 4.4 0.2 2-0.1 0-0.4 0.2-0.4 0.3-0.2 0.2 0 0.3 0.3 0.2 0.1 0.3-0.1 4.3-0.2 0.9-1.4 3.5 0 0.4 0.5 0.8-0.2 0.5-1.2 0.8-0.1-0.6-0.3-0.4-0.3-0.1-2.4-1.3z m-7.2-42.5l0.6 0.8 0.3 0.6-0.1 0.3-3.5 0.4-0.2 0.2-0.7-0.9-1.3-3.5-0.2-1.2 0.2-0.7 0.3-0.6 1-1.1 0.7-0.4 0.4 0.1 0.4 0.6 1.5 4.4 0.6 1z" id="PHCEB" name="Cebu">
  </path>
  <path d="M615.2 648.7l-1.1-2 1.1-3 2.4 1.3-0.4 0.4-0.1 0.4 0.1 2-0.6 0.2-1.4 0.7z" id="PHMDE" name="Mandaue">
  </path>
  <path d="M615.2 643.7l-1.5-1.9-1.8 1.5-1.9 3 0.5 2.3 1.1 3.4-0.6 0.4-1.3 0.1-1.3 0.2-0.8 0.5-1.1 1.5-2.9 2.3-0.4 0.9-0.1 1.1-0.2 0.8-0.5 0.6-0.7 0.6-0.4 0.3-0.7 0.2-0.3 0.3-0.2 0.3-0.3 0.4-0.2 0.5 0 0.4 0 4.3-0.7 2.9-0.1 1.1-0.2 0.4-0.5 0.3-0.5 0.2-0.3 0.2-4.9 11.6-0.3 2.1-0.9 2.6-0.4 1-0.5 0.5-0.9 0.6-0.5 0.4-0.5 0.6-0.7 1.2-2.8 3.4-0.6 0.5-0.9 0.5-0.8 0-0.3-1.2-0.4-3.1 0-1.2 2.7-15.1 2.2-5 0.2-1.1 0.1-1.3-0.2-0.3-1.1-0.5-0.2-0.3 0.2-1.7 0.2-0.4 0.4-0.2 0.3 0.2 0.2 0.3 0.2 0.1 0.2-0.4 0.1-0.5 0-1.2 0.3-1.4 0.7-0.9 2-1.6 1.9-2.1 0.7-1.2 0.7-2.5 2.5-3.5 0.9-3.4 0.4-0.9 1-0.9 4.5-6.1 0.2-0.9 0.1-0.2 0.3-0.3 0.2-0.4 0.2-0.5-0.4-1.8 0-0.7 0.6-1.1 1.3-1.6 0.6-2.2 0.7-1.2 0.8-1.2 2-2.3 1-1.5 3.6-10.2 1-1.7-0.3-1.2-0.6-1.9 0.3-1 0.6-0.7 0.5-0.8 0-1.3 0.4 0 0.2 0.4 0.2 0.3 0.7 0.4-0.6-2.9-0.3-0.6-0.2-0.8 0.4-1.1 0.6-1 2.6-3.5 1.4-1 1.6 0.4-0.1 0.4-0.3 1.6-0.6 1.5-0.3 1.1-0.2 2-0.3 1-1.6 2-0.6 0.9 0.5 0.2 0.2 0.4 0 0.4 0.2 0.2 1.1-0.1 0.5-0.1 0.4-0.2-0.1 1.1 0.5 3.2-0.1 1.2-0.4 1.7 0.1 1 0.7 1.3 0.1 0.6-0.2 0.5-0.8 1.3-0.2 0.6-0.2 1.3-0.9 2.2-0.3 1.2 0.2 2.2 1.4 4.4 0.2 2-0.1 0-0.4 0.2-0.4 0.3-0.2 0.2 0 0.3 0.3 0.2 0.1 0.3-0.1 4.3-0.2 0.9-1.4 3.5 0 0.4 0.5 0.8-0.2 0.5-1.2 0.8-0.1-0.6-0.3-0.4-0.3-0.1-2.4-1.3z m-7.2-42.5l0.6 0.8 0.3 0.6-0.1 0.3-3.5 0.4-0.2 0.2-0.7-0.9-1.3-3.5-0.2-1.2 0.2-0.7 0.3-0.6 1-1.1 0.7-0.4 0.4 0.1 0.4 0.6 1.5 4.4 0.6 1z" id="PHCEB" name="Cebu">
  </path>
  <path d="M331.3 691.6l-13.8-7.4 1-0.8 0.4-0.2 0.4-0.1 0.2-0.2 0.3-0.9 0.2-0.1 0.4-0.1 0.3-0.3 0.5-0.5 4.3-3.2 0.3-0.5 0.6-1.5 2.5-2.5 0.6-0.9 0.1-0.6 0.3-0.8 0.4-0.9 1.9-2.6 0.6-0.5-0.6-1.2 0.9-0.9 2.6-1.3 0.4-0.5 1.9-4.1 0.4-0.6 0.2 1.8 0 0.8-0.4 0.4-0.3 0.4 0.9 0.7 1.2 0.4 0.5-0.6 0.2-0.4 0.3-0.4 0.4-0.3 0.2-0.2 0.3-0.6 0.1-0.3-0.1-0.1-1.1-1.9-0.2-0.8-0.1-1.1 0.2-0.9 0.4-0.3 1.1 0.1 0.7-0.2 1-0.8 0.9-0.2 1.4 0.3 0.9-0.1 0.8-0.5 0.5-0.9 0.1-0.9-0.2-0.9-0.4-0.7 0.4-0.2 0.1-0.1 0.2 0.1 0.4 0.2 0.5-0.6 0.8-0.4 5.1 5.3-0.3 2.1 6 5.9-1.9 0.8-2.5 0.7-0.6 0.2-1.1 0.7-0.5 0.2-0.6 0.1-1.3-0.1-0.7 0-0.5 0.3-1 0.6-0.6 0.2-0.6 0.2-1.2 0.2-2.6 0.1-1.5 0.4-1.4 0.7-1.6 1.1-1.2-0.4-1.2 0.6-0.9 1.2-0.4 1.4 0.3 1.7 1.1 2.3 0.5 1.4-0.4 2.9-0.7 0.3-0.8-0.2-0.8-0.6-0.3-0.8 0.3-0.9-0.3-0.3-0.9-0.1-0.6 0.4 0 0.8 0.2 1-0.2 0.8 0.6 0.3 0.4 0.4 0.1 0.6-0.3 0.6 1.4-0.2 0.9 0.7-0.1 0.8-1.5 0.2 0.1 0.8-0.3 1-0.5 1-0.6 0.7-0.2 0.5-0.1 0.4-0.2 0.3-1.1 0.2-0.3 0.3-1.6 2.6z" id="PHPLW" name="Puerto Princesa">
  </path>
  <path d="M648.1 611.9l-3.3-4.5 0.6-2.3 3.2-0.2 2.5-2.4 3.5 5-2.6 3.4-1-0.1-1.1 0.2-1.1 0.3-0.7 0.6z" id="PHLEY" name="Tacloban">
  </path>
  <path d="M648.1 611.9l-3.3-4.5 0.6-2.3 3.2-0.2 2.5-2.4 3.5 5-2.6 3.4-1-0.1-1.1 0.2-1.1 0.3-0.7 0.6z" id="PHLEY" name="Ormoc">
  </path>
  <path d="M503.6 569l0.1-0.2 0-0.4 0.6-0.8 0.6-0.6 0.4-0.3 0.2-0.5 0.1-1.1 0.1-1.1-0.2-0.6 0.2-0.8 0.2-0.5 0.5-0.2 0.8 0 0.3-0.3 0.7-1 0.4-0.2 0.4-0.1 0.3-0.3 0.2-0.1 0.5 0.2 0.2 0.4 0.2 0.3 0.2 0.3 1.9 0.5 0.6 0.4 1.2 1.6 1 1 1.2 0.8 1.3 0.6 5.9 1.3 2 0.8 1.8 1.3 1.2 1 0.8 0.4 2.2 0.1 0.6 0.4 2.1 3.2 0.7 0.6 0.7 0.2 0.6 0.5 2.5 2.5 3.2 1.3 0.9 0.6 0.2 0.5-0.4 0.4-0.3 0.8-0.5 0.6-0.6 0.5-0.9 0.4-0.5 0.5-0.6 1.4-0.4 0.5-1.4 0.4-2 0-3.5-0.3-0.5 0.8-0.3 2-0.7 2.2-1.3 1.3-4.1 1-2.1 0.3-2 0-0.3-0.6 0.1-0.4 0.2-0.4 0.1-0.5 0.1-1.1-0.1-0.4-0.1-0.3-0.3-0.2-0.3-0.1-0.1-0.1-0.1-0.3 0-0.2 0.1-0.1 0.1-0.3 0.2-0.5-0.2-0.1-0.3-0.1-0.2-0.3-0.4-0.9-1.1-1.2-0.4-0.7 0.1-0.5 0.5-1.9 0.1-0.2 0.6-0.4 0.1-0.2-0.1-0.2-0.5-0.7-0.1-0.3-0.1-0.6 0.2-0.5 0.2-0.5 0.2-0.5-0.1-1-0.2-0.9-0.2-0.9 0.2-1 0.8-1.3 0.4-0.9-0.1-1-0.8-1.4-1.1-1-2.7-1.2-2.1-1.5-1.5-0.4-1.5-0.1-1.3 0.2-1.5 0.6-2.3 1.8-1.7 0.8z" id="PHAKL" name="Aklan">
  </path>
  <path d="M503.6 569l1.7-0.8 2.3-1.8 1.5-0.6 1.3-0.2 1.5 0.1 1.5 0.4 2.1 1.5 2.7 1.2 1.1 1 0.8 1.4 0.1 1-0.4 0.9-0.8 1.3-0.2 1 0.2 0.9 0.2 0.9 0.1 1-0.2 0.5-0.2 0.5-0.2 0.5 0.1 0.6 0.1 0.3 0.5 0.7 0.1 0.2-0.1 0.2-0.6 0.4-0.1 0.2-0.5 1.9-0.1 0.5 0.4 0.7 1.1 1.2 0.4 0.9 0.2 0.3 0.3 0.1 0.2 0.1-0.2 0.5-0.1 0.3-0.1 0.1 0 0.2 0.1 0.3 0.1 0.1 0.3 0.1 0.3 0.2 0.1 0.3 0.1 0.4-0.1 1.1-0.1 0.5-0.2 0.4-0.1 0.4 0.3 0.6 0.5 1.1 0.1 1.3-0.1 1.4 0.1 1.3 0.4 1.3 0.5 0.9 0.7 0.8 1 0.9 2.9 2.7 1.4 1.6 0.6 1.4-0.7 2.8-0.3 0.4-0.9 0.5-0.3 0.3-0.1 0.6 0.1 1-0.2 0.5-0.4 0.5-1.3 1-0.6 0.5-0.7 1.1-1.2 2.6-0.9 2.5-0.7 1.1-0.8 1-0.8 0.9-1.3 0.9-2.6 1.6-1.1 1-1.1 1.8-0.6 1.7-0.4 3.9-0.5 2.3 0.2 1.1 1 0.6 0.2 0.1-0.9 0.8-1.8 0.8-1.7-0.1-1.1-1.9 0.1-2.3 2.2-4 0.6-2.3 0-1.2-0.3-3.4-0.4-0.9-1.4-1.5-0.4-1.2 0.1-1 0.8-1.6 0.3-1.7 1-2.8 3.6-6.1 0.4-2.5 0-9.3-0.1-1.2-0.4-1.2-0.1-1.3 0.4-1.1 0.6-1 0.3-1.1 0.4-6.5 0.1-0.2 0.3-0.3 0.3-0.4 1.1-8.9-0.3-2-0.9-1.7-1.3-0.5-1.7 0-2-0.4-1.8-0.8-0.9-0.2-1.1-0.1-2.1 0-0.9-0.1-0.6-0.3z m-24-16.1l0.4 0.8 0.2 1-0.2 0.8-0.6 0.7-1 0.1-0.6-0.6-0.4-0.9-0.2-0.8 0-0.4 0.4-1.2-0.2-0.5-0.3-0.4-0.2-0.3 0.3-0.6-0.1-0.4 0-0.2 0.5 0.3 2 2.6z m3.7 10.7l1.9 0.6 0.8 0.5-0.4 0.5-1.2 0.6-1.2 0-0.9-0.3-0.6-0.2-0.3 0-0.2-0.2-0.3-0.2-0.2 0.1-0.4 0.2-0.3-0.1 0.1-0.5 0.6-0.7 0.9-0.3 0.5-0.1 1.2 0.1z" id="PHANT" name="Antique">
  </path>
  <path d="M536.8 628.1l0.9-4.6 2.3-1.5 4.4 2.1-0.2 0.3-0.5 0.8 0.1 0.1 0.1 0.3 0 0.3-0.5 0.4-0.3 1.2-2.4 0.5-3.9 0.1z" id="PHILI" name="Iloilo">
  </path>
  <path d="M536.8 628.1l0.9-4.6 2.3-1.5 4.4 2.1-0.2 0.3-0.5 0.8 0.1 0.1 0.1 0.3 0 0.3-0.5 0.4-0.3 1.2-2.4 0.5-3.9 0.1z" id="PHILI" name="Iloilo">
  </path>
  <path d="M521.1 593.5l2 0 2.1-0.3 4.1-1 1.3-1.3 0.7-2.2 0.3-2 0.5-0.8 3.5 0.3 2 0 1.4-0.4 0.4-0.5 0.6-1.4 0.5-0.5 0.9-0.4 0.6-0.5 0.5-0.6 0.3-0.8 0.4-0.4 0.1 0.3 0.2 1 0.3 0.8 1 0.4 0.3-0.1 0.7-0.5 0.7-0.3 0-0.5-0.1-0.5-0.1-0.3 0.2-0.9 0.4-0.2 0.7 0.5 0.6 0.8 0.4 0.2 0.6 0-0.5-0.7 0.1-0.4 0.4-0.2 0.4-0.2 1-1.2 0.2-0.5-0.2-0.2-0.1-0.2-0.2-0.2 1.7-0.1 2 0.1 2 0.3 1.3 0.8 0.4 0.8 0.3 0.9 0.4 0.7 0.6 0.3 0.7 0.1 2.4 1-2.7 1.9-1 1.2 0 1 1.3 0.5 1.5-0.7 1.5-1.1 1.4-0.5 1.4-0.4 1.9-1.6 2.5-0.7-0.2 0.1-1.1 2.4-1.2 1.8-0.1 2.3-0.5 0.8-1.5 1.3-0.8 0.4-1 0.3-1 0.4-0.4 0.9 0.2 1 0.4 1-2 0.4-0.9 0.3-0.8 0.8-0.1 0.5 0.1 1.7 0 0.8-0.5 0.9-0.8 0.3-1-0.1-0.9-0.4-0.3 0.1-1.6 0.7-0.5-1.6-2-0.2-4 0.6-1.6-0.4-1.4-0.7-1.5-0.4-1.4 0.2-0.1 1-0.4 0.7-0.7 0.5-0.9 0.4-0.9 0.1-0.8-0.1-0.8-0.3-1-0.1-0.7 0-1.5 0.3-0.6-0.1-3.3-1.5-1.4 0-1.5 0.8-2.6 2.5-1-0.9-0.7-0.8-0.5-0.9-0.4-1.3-0.1-1.3 0.1-1.4-0.1-1.3-0.5-1.1z" id="PHCAP" name="Capiz">
  </path>
  <path d="M548.3 534.2l0 0.8-0.9 3.9-0.6 0.7-0.9 0.7-0.9 0.6-0.7 0.3-0.3-0.2-0.8-1.1-0.5-0.3-1.1-0.3-0.5-0.4-1.3-2.2-0.9-1.1-1.3-0.4-1.2-0.2-1-0.4-0.8-0.8-0.5-0.9 0-2 1.2-1.1 2-0.5 6 0 2 0.4 0.7 0.3 0.3 0.4 0.3 1.1 0.3 0.7 0.4 0.7 1 1.3z m-21.9-11.1l1 1.7 0.7 2.1 0 1.9-1.7 1.5-0.8-1-0.5-1-0.2-1 0.1-1.2-0.1-0.2-0.1-0.2-0.2-0.4 0-0.3 0.2-0.3 0.4-0.1 0.2-0.3 0.3-1.2 0.3-0.4 0.4-0.3 0 0.7z m-8.8-3.3l1.7 0.4 0.5 0.5 0 0.9-0.2 0.3-0.9-0.2-0.3 0.3 0 0.5 0.3 3.1-0.3 1.7-1.2 3.8-0.4 4-1 3.9-1.6 4-0.4 0.6-0.4 1 0.6 0.7 0.7 0.7 0 0.8-0.7-0.7-0.3 0.4-1 0.9-0.2 0.4 0 2.8-0.4 0-1.1-1.3-0.3-0.8 0.3-0.9-1.4-0.1-0.3-0.9 0.2-2.8 0.5 1.3 0.8 0.3 0.6-0.6 0.3-1.2-0.1-0.7-0.5-0.2-0.6-0.2-0.6-0.2-2.2-2.2-0.5-0.4 0.2-2 0.5-2.2 0.7-1.1 1.7-0.7 0.8-1.6 0.2-2 0-1.9-0.3-3.2 0.2-1.2 1.3-1 3-0.9 1.6-0.8 0.5-1.3z m-20.9-13.7l-0.2 0.1-0.2 0.1 0.1 0.2 0.2 0.2-0.3 0.2-0.3 0-0.3-0.3-0.2 0.1-0.2-0.1-0.4-0.5-0.3-0.3-0.1-0.2-0.1-0.6 0.4-0.7 0.6-0.1 0.7 0.1 0.3 0 0.4 0.4 0.3 0.6-0.2 0.6-0.2 0.2z" id="PHROM" name="Romblon">
  </path>
  <path d="M689.2 539.8l-0.9 0.6-1.4 0.3-0.9-1.2-1.3-3.1-1.2-0.7-1.1 0.5-0.9 1.3-0.5 1.5-0.7 0.6-0.9 0.4-1.7 0.4-1.1 0-0.6 0.2-0.5 0.3-0.6 0.9-0.4 0.4-0.6 0.1-1.5 0.1-4.1-0.2-1.4 0-0.8 0.4-0.9 0.6-1.2 0.7-1.3 0-1.2-0.6-1.1-0.8-1.3-0.3-0.6 0.1-0.6 0.2-1.1 0.8-1 0.4-0.7 0-1.6-1.1-8.7-4.4-0.9 0-0.7 0.7-0.7 1-0.9 0.4-3 0.1-0.1 0-1.5-5.2-3.5-8.1-0.1-0.8 0.1-0.6 0.4-0.7 0.5-0.5 0.6-0.2 0.4 0.2 2.5 1.9 0.2 0.1 0.6 0 1.4-0.6 0.4-0.1 0.3 0.1 1.4 0.6 0.8 0.3 3.4 0 0.2 0.1 0.6 0.4 0.1 0.1 0.2 0.3 0.2-0.1 0.3-0.2 0.2-0.1 1.3 0.1 1.1 0.2 4.5 0.4 10.1-0.8 0.5-0.1 0.5-0.4 0.5-0.8-0.3-0.5-0.5-0.5-0.2-0.6 0-0.4 1 0.3 0.7 0.6 0.5 0.7 0.5 0.3 0.8-0.4 0.9-0.5 0.8-0.2 0.3 0.9 0.5-0.1 1.2 0.5 0.9 0.6 0.2 0.2 0.3 0.1 0.3 0.2 0.3 0.2 0.7 0 0.4-0.2 0.7-0.4 0.5-0.4 0.3-0.4 0.1-1.1 0.5-0.3 1.6 0.5 0.5-0.1 0.5-0.2 0.5-0.1 0.5 0.2 1.2 1.3 2.7 1.7 1.3 1.1 0.1 1 0.6 0.6 1.1 0.7 0.5 0.6 0.6 1.4 0.4 0.5 0.8 0.7-1 0.6-0.9 1.2-0.3 1.4 1.1 1-0.3 0.2-0.2 0.3-0.2 0.7z m-61.5-5.3l-1-0.9-0.7-1.3-0.1-1.2-0.1-0.6 0.5 0.1 1 0.7 0.8 1.3 0.3 1.4-0.7 0.5z" id="PHNSA" name="Northern Samar">
  </path>
  <path d="M621.6 567.3l0.2 0.9 0.5 1 0.3 1.1-0.2 0.9-0.8 0.2-0.7-1-1.1-2.2-0.7-0.7-1.8-1.6-1.5-0.6-1.2-1.3-1.8-0.6-0.8-0.7-1.1-1.6-0.7 0.4-0.9-0.2-2-0.9-1.3 0.5-1.1-0.6-1-1-0.7-0.5 0.3-0.7 0.3-0.5 0.5-0.2 0.8 0-0.8-1.5-0.3 0.5 0 0.2-0.4 0-0.4-0.7-0.7-0.7-0.7-0.6-1.4-0.6-0.4-0.8 0.1-0.7 0.9-0.1-1.1-0.3-1.1 0.1-0.8-0.2-0.6-2.2-0.6-0.9-1.7-1.7-0.7-1.2-0.4-0.3-1.5-0.7-0.5-0.2-0.9-0.4-1.3 0.1-1.2 0.4-0.8 0.4-0.6 0.7-1.7 2.4-0.4 1.4-0.5 0.7-0.5 0.6-0.5 0.2-0.6 0.1-0.3 0.2-0.4 0.8-3 3.5-4.5 4.2-1.2 0.7-0.5-0.6 0.1-1.2 0.3-1.3 0.4-1.1 0.5-0.4 0.6-0.2 0.3-0.3 0-0.5 0-0.7 0.1-0.7 0.3-0.6 0.4-0.5 0.3-0.6-0.1-2.1 0.3-1 0.9 0.4 0.3-0.7 0.4-0.6 0.5-0.4 0.8-0.1 0.4-0.3-0.2-0.6-0.7-1 0.7-0.5 0.7-0.3 0.5-0.5-0.1-1-1.8-0.1-1.2 0.1-1 0.4 0-0.4-0.1-1.6 0.1-0.2 0.1-0.1 1.5-2 0.2-0.8 0.2-1.6 0.8-2.7 0.1-1.3-0.1-0.9-0.3-0.4-0.5-0.4-0.7-0.6-0.6-6.3 0.2-0.7 0.4-0.1 0.5 0.1 0.5 0.4 0.8 0.3 1.6 0.3 0.8 0.2 0.5 0.4 0.4 0.4 0.5 0.3 0.5 0.1-0.1 0.1 0.1 0.2-1-0.2 0.1 0.9 0.9 1.9-0.3 0.5-0.7 0.4-0.6 0.7-0.3 0.9 0.3 0.7 0.6-0.4 1-1.3 0.1 0 0.5 0 0.3-0.1 0.1-0.3-0.1-0.5 0.1-0.2-0.1 0 0.3-0.7 0.4-0.6 0.2 0 0.4-0.4 0.9-0.1 1 0.2 0.8 0.3 1.7 1.7 0.8 0.7 1 0.4 1.8 0 0.3 0.3 0.6 0.9 0.4 0.4 0.5 1.1 0.7 1 0.8 0.5 0 0.3-0.6 0.1-0.4 0.3-0.2 0.5 0.1 0.7 1.8-1 0.8-0.1 0.4 0.9 0.2 0.3 0.5 0.1 0.6 0 0.5 0.1 0.6 0.4 0.4 0.4 0.4 0.5 3.4 5.9 1.4 1.5-0.3-2.5 0.4-0.8 1.2 0.8 1.7 1.7 0.7-0.1 0.6-0.4 0.5-0.1 0.4 0.6 0-0.4 0.5 1.1 2.8 4.6 0.3 0.2 0.8 0.3 0.4 0.2 0.2 0.5 0.5 1.8 0.3 0.5 2.2 2.9 0.6 0.9 0.2 0.9-0.9-0.5-1.1-1.7-0.9-0.7 0.1 0.5 0.3 0.4 0.7 0.9-0.6 0.5 0.2 0.6 1.1 1.6 1.3 2.8 0.2 0.7 0 1.3-0.3 1.5-0.1 0.6z m-14.3-31.6l0.3 1.1 0.1 0.7-0.2 0.3-0.5-0.2-0.4-0.4-0.3-0.6-0.1-0.5-0.3-0.5-1.6-1.6-8-11.9-0.1-0.5 0-0.7 0.4 0 0.5 0.2 0.2-0.7 0.2-1.1 0.2-0.7 0.5 0 0.6 0.5 0.9 1.2 2.7 1.5 0.5 0.2-0.1 0.4-0.2 0.2-0.5 0.2 0.8 0 0.6 0.1 0.5 0.4 0.3 0.6-0.2 0.9 0.4 1.1 0.6 1.1 0.3 0.8 0.2 0.9 0.8 1.8 0.6 2.9 0.1 0.2 0.3 0.3 0 0.6-0.1 1.2z m-27.2-26.9l0.3 2.8 4 4.3 0.8 2.4-1.8-1.4-3.7-5.1-1.1-1.2-0.7-0.5-2.1-0.4-0.8-0.5-4-3.6-0.5-0.8-0.2 0-0.9-1-0.2-0.3-0.4-0.2-0.2-0.3-0.1-0.5-0.2-0.5-1.3-0.8-3.3-0.8-1.3-1.4-0.3-3.1 0-0.6 0.7-0.5 1-0.1 0.7-0.4 0.2-1.3 0.6 0.1 0.7 0.4 1.2 0.9 0.5 0.5 0.5 0.6 0.8 1.3 1.1 2.2 1.3 1.1 0.2 0.2 0.2 0.7 0.7 1.3 0.2 0.7 0.1 0.1 0.9 1.7 0.9 0.9 1.3 0.9 1.3 0.4 1.1-0.4 0.8 0.4 0.4 0.6 0.2 0.6 0.4 0.6z" id="PHMAS" name="Masbate">
  </path>
  <path d="M452.1 473.6l1.2-0.6 0.7 0.6 0.5-0.1 0.4-0.3 0.3-1 0.7 0.2 0.3 0 0.4-0.2 0.1 0.2 0.3 0.2-0.2 0.5-0.4 0.3-0.3 0.3-0.6 0 0.4 0.5 0.5 0.6 0.6 0.6 0.6 0.2 0.5 0.5 1.2 2.1 0.8 0.5 3.6-0.2 0.9 0.6-0.2 1.8 0.3 0 0.1-0.3 0.2-0.9 0.1-0.3 0.2-0.3 0.1-0.1 0.4-0.3 0.6-0.3 0.6-0.2 0.7-0.4 0.3-0.7 0.4 0 1.1 2.1 6.2 5.1 2.3 3.6 0.9 0.5 1.1 0.2 0.9 0.5 0.6 0.8 0.1 1.2-0.1 0.5-0.3 0.6-0.2 0.6 0.2 0.6 0.6 0.4 0.7-0.1 0.6-0.2 0.5-0.1 1.3 0 1.2 0.3 0.9 0.5 0.5 1.1-0.2 1.1-0.7 0.8-1.9 1.2-0.6 1-0.4 1.2 0 1.3 0.5 3.4 0 0.9-0.5 2.2 0.1 0.8-0.3 0 0.3 1.5 0.1 3.4 0.5 1.3 1.5 1.9 0.2 0.4 0 0.6 0.2 0.9 0.3 0.9 0.5 0.9 0.1 0.4-0.1 1.4-0.2 0.1-0.2 0-0.3 0.2-2.1 3.1-0.6 0.6-1.4 0.8-0.4 0.2-0.3-0.1-0.3 0-0.1 0.5 0.1 0.9 0.1 0.4 0.2 0.4-0.4 0.4-0.3-0.4-0.2 0.4-0.1 0.2 0.1 0.4 0.2 0.5-1 0.6 0.1 1.6 0.6 1.6 1 1.1 0 0.4-2.1-0.7-1.1 0.1-0.1 1 0.3 0.3 0.1 0.5-0.1 0.5-0.3 0.5 0.5 0.3 0.2 0.3 0.1 0.4 0 0.5-1.6-1-0.6-0.9-0.8 0.5-1.3 1.1-0.7 0.1-0.6 0.4-1 1-1.4 2.7 0-44.6-0.8-1.4-2-1.2-22.3-9.7 6-8.2 0.4-1.1 0.1-1.4-0.3-2.7-0.1-0.4z" id="PHMDR" name="Mindoro Oriental">
  </path>
  <path d="M452.1 473.6l0.1 0.4 0.3 2.7-0.1 1.4-0.4 1.1-6 8.2 22.3 9.7 2 1.2 0.8 1.4 0 44.6-0.1 0.3-0.8 0-1.2-1.2-0.8-0.3-3.3 0-1-0.6-0.7-1.2-0.4-1.6 0.5-1.5 0.3 0.9 0.5 0.5 0.6 0.1 0.8-0.4-0.4-0.2-0.4 0.1-0.3 0.1-0.4-0.9 0-0.2-1.1-0.8-0.4 0.1 0 1.1-0.8-0.5-1.1-0.9-1-1.1-0.7-1.2-1.3-1.3-0.5-0.1-0.3-0.4-2.2-3.9-0.7-0.4-0.5-0.6 0.1-1.3 0.5-2.3 0-1.1-0.3-1-0.5-1-1.5-1.7-0.9-1.9-0.8-0.8-1.2-0.5-1 0-0.8-0.3-0.3-1.3 0-0.6-0.3-1-0.1-0.7-0.1-0.6-0.9-1.4 0-0.5 0.3-0.4 0.2-0.3 0.2-0.3 0-0.5-0.1-2.7-0.5-1.7-0.5-3-0.9-1.7-2.4-3.3-1.7-3.5-1.2-1.5-2.6-0.9-1-1.2-0.9-0.4-1.8 0.2-0.6-0.3 0.6-1-1.4-1.3-1-1.6-0.7-1.8-0.4-3.8-0.4-0.9-0.7-0.4-0.4 0-0.9 0.2-0.4 0.2-0.4 0.3-0.2 0.3-0.2 0.3-0.3 0.2-1 0.9-0.7 0.2-0.8-0.4-0.7-0.5-0.6-0.8-0.4-0.9-0.1-1 0.2-1.2 0.6-1.2 0.8-0.9 1.1-0.7 1.2-0.5 1.2 0 3.7 0.8 3.2 0.2 0.7-0.1 0.6-0.2 0.5 0 1.1 0.7 0.6 0.1 1 0.2 2.1 0 1.2 0.2 0.7 0.6 0.9-0.5 0.7 0.3 1 0.9 0.9 0.1 0.8-0.2 1.6-0.6 4.8-1.1 0.2-0.2z m-33.9-11.4l0.5 0.2 0.4 0.1 0.3 0.2 0.1 0.6-0.9 0.7-0.2 0.3-0.3-0.5-0.4-0.6-0.4-0.6-0.5-0.2-0.8-0.2-0.3-0.4-0.2-0.5-0.4-0.4-0.5-0.4-0.6-0.2-0.6-0.2-0.7 0-0.3-0.2-0.6-0.7-1.8-0.6-0.8-1-0.5-1.3-0.2-1.3 0.1-0.6 0.2-0.4 0.4-0.3 0.6 0 0.8 0.3 1.3 0.6 1.1 0.8 0.3 0.6 0.8-0.3 1 0.3 1 0.5 0.9 0.6 1.8 2.8-0.3 0.7-0.5 0.4-0.2 0.5 0.4 0.7z m45.9 83.3l0.6 1.2 0.2 0.6-0.2 0.3-0.5 0.1-0.5-0.3-0.5-0.4-0.5-0.2-0.4-0.5-0.2-0.8-0.5-0.8-1-0.5-0.6-1.7 1.1-1.4 1.5 0.6 0.5 1.2 0.4 1.8 0.2 0.5 0.3 0.2 0.1 0.1z" id="PHMDC" name="Mindoro Occidental">
  </path>
  <path d="M516.9 478.5l0.2 0.4 1 0.7 0.3 0.5-0.5 1.7-3.1 3.2-1.2 1.6 0.5 1.1-0.5 1-1.7 1.4-0.8 0.2-0.9-0.6-0.7-0.8-0.5-0.5-0.6-0.2-1.8-1.6-0.5-0.2-0.9 0-0.4-0.2-0.6-0.4-0.9-1.5-1.6-1.7-0.2-0.6 0.2-1.3 0-0.4-0.2-0.8 0-2.9 0.2-0.8 0.3-0.5 1.5-2.6 0.1-0.5 0.1-1.6 0.2-0.3 0.8-0.2 0.7 0.8 1.2 1.7 0.2-0.3 0.6-0.6 0.3-0.3 0.8 0.9 1.2 0.3 1.2-0.4 0.4-1.1 0.7 0.4 0.5 0.5 0.2 0.6-0.2 0.8 0.8-0.3 0.6 0.3 0.2 0.5-0.5 0.6 0.2 0.2 0.6 0.4 0.3 0.1 0.8-0.5 1.1 0.3 1 0.8 0.4 1-0.2 0.2-0.4 0.1-0.5 0 0 0.4 0 1z" id="PHMAD" name="Marinduque">
  </path>
  <path d="M641.1 453.3l0 0.4-0.8 0.5-0.7 0.6 0.7 0.4 0.4 0.7 0.1 0.8 0.3 0.7-1 0.4-0.5 0.1 0.4 0.5 0.1 0.5-0.2 1.6-0.3 1.1 0 0.6 0.9 1.5 0.1 0.9-1.2 0.4-1.1 0-0.6 0.1-0.2 0.4-0.1 1-0.8 3.4 0 0.8-0.8-0.6-0.7-1.1-0.7-0.9-0.7 0.3-0.6-0.2-0.9 0.2-0.9 0.4-0.7 0.6-0.4 0.7-0.4 1.1-0.4 1-0.7 0.4-0.9-0.4-2.9-2.6-1.6-1.2-0.9-0.4-1.2 0 0.2-0.7-0.1-0.8-0.5-0.7-0.5-0.6-0.2-0.7 0.5-0.6 1.4-0.8 1.4-1.2 1-1.6 0.8-1.9 0.4-2.1-0.4-3.2 0.2-0.8 0.6-0.9-0.1-1-0.8-2.1-0.2-1 0-0.4 0.3-0.3 0.4-0.4 0.4-0.5-0.2-0.5-0.4-0.8 0-0.9 0.2-0.8 0.4-0.8 0.7 0.9 0.8-0.2 1.1-1 0.5-0.3 0.4-0.1 0.3 0 0.4 0.3 1.1 1 0.9 1.2 0.7 1.3 0.5 1.5 0.1 2.2 0.6 0.2 0.4 0.4 0.7 0.9-0.4 0.5 0.3 0.3 0 0.2 0.1 0.2 0.4 0 0.8-1.4 1.5 0.7 3.2 2.6z" id="PHCAT" name="Catanduanes">
  </path>
  <path d="M503 90l0.9-0.1 1.1 0.8 0.7 1.1 0 0.9-1.2 1.3-0.5 0.1-0.5 0-0.7-2.7 0-0.7 0-0.4 0.2-0.3z m9-8.2l0.5 0.1 0.4 0.3 0.3 0.5 0 0.5-0.3 0.5-1.9 1.3-1.2 1.1-0.3 0.4 0.1 0.7 0.3 0.5 0.2 0.4-0.2 0.6-0.7 0.7-1 0.4-0.9-0.3-0.3-1.3 0.3-0.9 2.2-3.4 0.1-0.5 0.8-0.7 0.9-0.6 0.7-0.3z m-7.1-16.1l-0.5 1.5-0.9 1.4-1.2 1.2-1.4 0.4-0.9-0.7 0.3-1.5 0.7-1.7 1-1.6 0.8-1.9 0.4-0.6 0.5-0.4 0.6 0 0.4 0.6 0.3 0.8 0.1 0.8-0.1 0.9-0.1 0.8z m3.2-17l-0.4 0.1 0.3-0.5 0.1 0.4z m0.5-2.9l0.2-0.3 0.2 0.2-0.3 0.6-0.1-0.5z" id="PHBTN" name="Batanes">
  </path>
  <path d="M618.2 647.9l1 0.7 0.6-0.3 1-0.7 0.2 0.3-0.9 1-1.1 1-0.9 1.1-0.7 0.7-1 0.1-0.6 0.4-0.7-0.5 0.1-1 0-0.9 0.7-0.9 1.7-0.8 0.6-0.2z" id="PHLAP" name="Lapu-Lapu">
  </path>
  <path d="M708.5 774.3l-16.1-0.1-0.5-1.5-0.3-5.3-0.4-1.2-1.3-2.3-0.2-1.3 0.1-1.1 0.2-0.9 0.1-0.9-0.3-1.1-0.7-2-0.1-1.9 0.1-1.9-0.5-2.6 0.9-8 4.5 0.1 1.4-0.5 1.3-1.3 1.8-3 2.5-1.3 6.8 0.7 0.3-0.2 1.9-1.2 0.2-0.8-0.8-2.4-1-1.6-0.1-1.7-0.5-2.4 1.6-4.4 0.9-3.1 3.1-10.7 1.2 2.7 0.7 2.8 0.3 2.9 0.1 3.1-0.4 1.4 0 0.4 0.6 0.6 0.7 0 0.7-0.1 0.5 0.4 0.4 1 0.5 1.9 0.4 1 0.6 0.6 0.6 0.5 0.5 0.5 0.8 1.4 0.6 0.4 0.6 0.3 0.5 0.5 0.1 0.6-0.3 0.7-0.1 0.7 0.3 0.5 2.1 1.7 1.8 1.9 0.5 1.2-0.1 1.2-0.5 1.2-0.9 1.2-0.8 1.7 0.4 2 1 2 2.1 3.2 0.2 0.5 0.5 2 0.5 0.5 1.2 0.4 5.6 0.8 0.9 0.5 0.1 1.7-1 5.6 0.7 3.3 3.2 5.4 0.7 3.2-5.8 0-27.2-0.1z" id="PHAGS" name="Agusan del Sur">
  </path>
  <path d="M692.4 774.2l0 0.1 1.9 4.4 0.4 1.6 0.3 1.8 0.2 0.8 0.7 1.8 0.2 0.7 0 0.7-0.1 2.1-0.4 1.7-0.7 1.5-1.1 0.8-0.7-0.1-1.5-0.4-0.6-0.1-0.6 0-0.6 0.1-0.5 0.1-0.7-0.3 0.1 1.3-0.3 1-0.4 1-0.2 1.2-0.2 0.4-0.2 0.3-0.4 0.2-0.4 0-0.5 0-1.1-0.3-0.4 0-0.2 0.1-0.1 0.2-0.1 0.3-0.1 0.1-0.1 0-0.4 0.2-0.4 0.2-0.1-0.1-2.3 2.8-1.1 0.8-0.9 0.4-1.8 0.7-0.7 0.4-0.2 0.5-0.2 1.4-0.4 0.6 0 0.1-0.6 0.2-0.7 0.2-0.1 0.2-1.2 0.3-0.3 0.3-0.2 0.4-0.1 0-0.3 0.2-0.6-0.1-0.9-0.6-0.7-0.8-1.1-0.4-0.4-0.1-0.4 0.1-0.1 0-0.4 0.4-0.5 0.5-0.5-0.4-0.4-0.6-0.3-0.5-0.1-0.6-0.1-2.1-0.4-1.3-0.2-0.7-0.3-0.6-0.6-0.6-0.5-0.3-0.5-0.4-0.5-0.7-0.1-0.5-0.2-1.1-0.2-0.5-0.2-0.5-0.3-0.3-0.4-0.3-1.1-0.8-0.3-0.3-0.1-0.4-0.3-0.6-0.6-0.9-0.2-0.4-0.3-1.5-1.7-3-2.4-2.9-0.3-0.2-0.9-0.3-0.4-0.3-0.2-0.6-0.1-0.5 0-0.5-0.1-0.5-1-1.4 0-0.6 0.5-0.4 0.5-0.3 0.7 0 0.9 0.1 0.7-0.3 0.3-1.2-0.3-0.7-0.6-0.7-1.4-1.2-0.7-1.6-2.4-2.8-0.6-1.6 0-1 0.6-1.7 0.2-0.9-0.1-0.6-0.2-0.7-0.1-0.7 0.3-0.8 0.9-2.4 1.6-7.2 8.9 0.6 1.9-0.5 0.4-1.1-0.2-4.5 0.4-1 0.7-1 0.9-0.9 0.8-0.6 1.4-0.7 1.4-0.2 16.2 0.3 4.8 0.1-0.9 8 0.5 2.6-0.1 1.9 0.1 1.9 0.7 2 0.3 1.1-0.1 0.9-0.2 0.9-0.1 1.1 0.2 1.3 1.3 2.3 0.4 1.2 0.3 5.3 0.5 1.5z" id="PHBUK" name="Bukidnon">
  </path>
  <path d="M643.6 792l2.2-1.1 0.9 0 1 0.6 0.3 0.5 0.6 1 0.5 0.6 0.8 0.5 0.5 0.3 0.6 0.2 0.9 0 1.5 0 2.7-0.4 1.5 0 3.4 0.9 1 0.1 0.2 0.5 0.2 1.1 0.1 0.5 0.5 0.7 0.5 0.4 0.5 0.3 0.6 0.6 0.3 0.6 0.2 0.7 0.4 1.3 0.1 2.1 0.1 0.6 0.3 0.5 0.4 0.6 0.5 0.4 0.5-0.5 0.4-0.4 0.1 0 0.4-0.1 0.4 0.1 1.1 0.4 0.7 0.8 0.9 0.6 0.6 0.1 0.3-0.2 0.1 0 0.2-0.4 0.3-0.3 1.2-0.3 0.1-0.2 0.7-0.2 0.6-0.2 0-0.1 0.4-0.6 0.2-1.4 0.2-0.5 0.7-0.4 1.8-0.7 0.9-0.4 1.1-0.8 2.3-2.8 0.1 0.1 0.4-0.2 0.4-0.2 0.1 0 0.1-0.1 0.1-0.3 0.1-0.2 0.2-0.1 0.4 0 1.1 0.3 0.5 0-0.1 0.5 0.5 0.6 0.2 0.6-0.1 0.7-1.7 5.7-0.4 2.8 0 0.8 0.3 1.4 0.1 1.9 0.4 2.4-0.1 1-0.2 0.4-0.6 0.9-0.6 1.4-0.1 0.3 0.7 0.8 0.7 0.7 1.9 1.1 0.7 0.7 0.3 0.9 0.2 3.1 0.2 0.7 0.2 0.2 0.1 0.2-0.3 0.4-0.1 0-0.3 0.2-1.3 0.4-0.3 0.2-0.2 0.2 0 2.5-5.5 6-0.9 3.4-13.6 2.8-2.7-1.6-0.4-0.5-0.3-11.2-2 0.1-0.5-0.4-0.3-1 0-0.8 0.1-0.9 0.3-0.9 0.3-0.4 0.3-1-1-2.2-2-3.3-0.1-0.1-0.2-0.3-0.8-1-1.3 1.4-0.3 0.6 0.3 1 0.6 0.6 0.7 0.6 0 0.3-0.5 0.4-1.5 0.8-1 0.9 0.9 1.2 0.7 0.4 0.6 0.8 0.3 0.8-0.2 0.8 0.3 0.3 0.3 0.2-0.7 0.5-0.8 1.5-0.6 0.4 0 0.1-0.8 0-0.7-0.3-0.7-0.5-0.7-0.3-1.7-0.3-0.7-0.3-0.9-0.6-0.2-0.4-0.1-0.3 0-0.4 0-1.1-0.3 0-1.1-0.9-0.9-0.2-1-0.1-0.7-0.3-0.7-0.4-0.7-0.7-0.6-0.9 0-0.4 1.9-4.5 0.5-1.3-0.1-0.8-0.7-0.4-1.4-0.2-0.9 0.2-0.7 0.6-1.1 1.6-0.7 0.8-0.4 0.3-0.2 0.1-0.6 0.2-1 0.1-0.4-0.2-0.8-0.3 0.4-1.3 8.6-12.6 0-0.9-0.5-1.1-1.5-1.9-0.4-1.9 0.9-7z" id="PHNCO" name="Cotabato">
  </path>
  <path d="M639.2 873.4l-3.9-3.1-1.7-1.8-1.5-2.1-0.1 0 20.8 0.1 0.3-0.1 0.4-2.1-0.1-1-0.4-1-0.5-0.9-0.1-0.8 0.4-1.6 0-0.7-0.1-0.2-0.5-0.7-0.1-0.1-0.3-0.3 0-0.3 0.1-0.3 0-0.4-0.2-0.4-0.3-0.5-0.2-0.5 0.1-0.7 1-3.1 0.3-1.5 0.1-1.6 1.3 1.9 0.8 0.7 0.8 0 2.6-2.2 0.8-0.3 1.3 1.2 2.9 4.2 1.4 0.3 3.7-1.6 4.5-0.5 9 0.4-0.5 1.2-0.2 2.8-0.3 1.3-0.4 0.5-0.4 0.3-0.2 0.4 0 0.4-0.8 0.7-1.6 1.7-1.1 2.6 3.4 1.2-1.9 3.7 0.9 3.3-4.5-0.3 0 7.1 0.7 3.2-2.6 0.2-9.2-0.2-2.1-0.4-4.5-2.4-3.9-1.6-7.8-4.9-4.9-1.9-0.2 0.5 0 0.5-0.5 1.7z" id="PHSCO" name="South Cotabato">
  </path>
  <path d="M459.8 413.7l-0.3-0.5 0.2-0.5 0.5 0.2 0.3 0.2 0.1-0.2 0.6 0.1 0.1 0.1 0.3 0 0.1 0.3-0.5 0-0.3 0.3-0.7 0.2-0.4-0.2z" id="PHMNL" name="Muntinlupa">
  </path>
  <path d="M459.8 413.7l-0.3-0.5 0.2-0.5 0.5 0.2 0.3 0.2 0.1-0.2 0.6 0.1 0.1 0.1 0.3 0 0.1 0.3-0.5 0-0.3 0.3-0.7 0.2-0.4-0.2z" id="PHMNL" name="Caloocan">
  </path>
  <path d="M459.8 413.7l-0.3-0.5 0.2-0.5 0.5 0.2 0.3 0.2 0.1-0.2 0.6 0.1 0.1 0.1 0.3 0 0.1 0.3-0.5 0-0.3 0.3-0.7 0.2-0.4-0.2z" id="PHMNL" name="Malabon">
  </path>
  <path d="M459.8 413.7l-0.3-0.5 0.2-0.5 0.5 0.2 0.3 0.2 0.1-0.2 0.6 0.1 0.1 0.1 0.3 0 0.1 0.3-0.5 0-0.3 0.3-0.7 0.2-0.4-0.2z" id="PHMNL" name="Valenzuela">
  </path>
  <path d="M459.8 413.7l-0.3-0.5 0.2-0.5 0.5 0.2 0.3 0.2 0.1-0.2 0.6 0.1 0.1 0.1 0.3 0 0.1 0.3-0.5 0-0.3 0.3-0.7 0.2-0.4-0.2z" id="PHMNL" name="Quezon City">
  </path>
  <path d="M472.2 347.7l5 15 0.4 2-0.1 2-1.8 6-1.6 8.1-2.7 0-4.8-3.5-2.4-0.8-2.3 0.1-7.4 2-0.5 0.2-0.7 0.1-0.5 0.3-0.5 1.3-0.8 0.8-1.1 0.4-0.8 0-0.3-0.4 0-0.9-0.1-0.4-0.4-0.3-1-0.1-0.4-0.2-0.8-0.5-0.6-0.5-0.3-0.8 0.2-1.1 0.3-1.6-0.3-0.8-0.6-0.5-0.8-0.8-0.4-0.8 0-0.9 0.1-0.9 0.5-2.3 0-0.7-0.3-1.5 0-1.9-0.1-0.7-0.2-0.7-0.3-0.7-0.3-0.7 0-0.8 0.4-0.8 0.7-0.8 0.5-0.9 0-0.8-0.6-0.3-2.2-0.1-0.8-0.2-1.8-2-1-2.9-0.8-6 5.9-1.5 1.6 0 0.8 0.5 0.6 0.8 1 1.6 0.6 0.2 0.8-0.8 0.7-1.2 0.4-0.8 0.9-2.5 0.4-0.8 0.6-0.6 0.4-0.3 0.5-0.4 0.4-0.8 0.4-2.3-0.5-2.3-1.6-4.6 1.2-1.1 1.9-0.7 1.9-0.2 1.8 0.1 4.3 1 2.3 0.9 1.6 1.1 1 1.8 0.3 1.9 0.2 4.1 0.7 2.4 2.3 4.4 0.9 2.4z" id="PHNUE" name="Nueva Ecija">
  </path>
  <path d="M482.5 414.7l0.3 0.4 1.7 2.5 1.3 2.6 3.7 8.8 0.4 1.7 0.1 1.8-0.3 1.6-0.7 1.2-0.9 1-0.8 1.3-0.9 2.5-0.7 1.1-0.8 1-1.2 0.5-2.4 0.2-1.1 0.6-3.9 2.7-4.3 2.2 0-1.3-0.7-0.4-0.9-0.2-0.6-0.6-0.9-5.8-1.4-1.5-2.7-0.6-3 0-2.2 0.3-0.2-1.6 1.5-3.7-0.5-1 0.5-1.2 0.7-1.1 0.2-0.9-0.6-0.6-0.8-0.1-0.6 0.2-0.6 0.1-0.6-0.3 0-0.4 0-1.3 0.7-0.2 0.6-0.5 0.8-0.5 0.2 0.2 0.2-0.1 0.3-0.3 4.1-0.2-0.4-3.6-0.5-4 0.2-0.1 0.5 0 0.7 0.4 1.1 1 1.8 4.5 0.5 2.1 0.6 3.5 0.8 1 0.5-0.8 0.2-1.1 0.4-0.8-0.5-0.6-0.8-1.8-0.2-2.1 0-2 0.7-1.9 0.7-0.7 0.9 0.3 0.5 1.1 0.4 0.3 0.5 0.2 0.6 0.4 0.5 0.4 0.4 0.6 0.2 0.7 0.2 1.4-0.2 1.5-0.7 2.5-0.8 1.4 0.1 1.6 2-1.6 2.3-1.4-0.9-1.3 0.1-1.6-0.8-3.8 0.4-2 1-1.7 2.3-1.3 1.7-0.8z" id="PHLAG" name="Laguna">
  </path>
  <path d="M476.2 397l0.2 5.4 0.5 2.5 1 2.4 4.6 7.4-1.7 0.8-2.3 1.3-1 1.7-0.4 2 0.8 3.8-0.1 1.6 0.9 1.3-2.3 1.4-2 1.6-0.1-1.6 0.8-1.4 0.7-2.5 0.2-1.5-0.2-1.4-0.2-0.7-0.4-0.6-0.5-0.4-0.6-0.4-0.5-0.2-0.4-0.3-0.5-1.1-0.9-0.3-0.7 0.7-0.7 1.9 0 2 0.2 2.1 0.8 1.8 0.5 0.6-0.4 0.8-0.2 1.1-0.5 0.8-0.8-1-0.6-3.5-0.5-2.1-1.8-4.5-1.1-1-0.7-0.4-0.5 0-0.2 0.1-0.4-1.3 0.3-0.4-0.3-0.5 0.3-0.5 0.1-1.1-0.4-0.8 0.2-0.7 0.5-0.4 0.8 0.2 0.3-1.2-0.1-0.5-1.3-0.4 0.2-1.4 0.9-1.7-0.5-0.4 0-0.7 0.3-0.2 0.6-0.9 0.7-0.9 1.1-1.4 1-1.5 2-0.4 1.3-0.8 1-1.3 1.2-1 1.8 0z" id="PHRIZ" name="Rizal">
  </path>
  <path d="M459.8 413.7l-0.3-0.5 0.2-0.5 0.5 0.2 0.3 0.2 0.1-0.2 0.6 0.1 0.1 0.1 0.3 0 0.1 0.3-0.5 0-0.3 0.3-0.7 0.2-0.4-0.2z" id="PHMNL" name="Taguig">
  </path>
  <path d="M459.8 413.7l-0.3-0.5 0.2-0.5 0.5 0.2 0.3 0.2 0.1-0.2 0.6 0.1 0.1 0.1 0.3 0 0.1 0.3-0.5 0-0.3 0.3-0.7 0.2-0.4-0.2z" id="PHMNL" name="Marikina">
  </path>
  <path d="M459.8 413.7l-0.3-0.5 0.2-0.5 0.5 0.2 0.3 0.2 0.1-0.2 0.6 0.1 0.1 0.1 0.3 0 0.1 0.3-0.5 0-0.3 0.3-0.7 0.2-0.4-0.2z" id="PHMNL" name="Pasig">
  </path>
  <path d="M513.5 306.9l-8.9 12.6-3.4 3.6-19.4 16.4-5.9-8.5-0.8-1.7-0.6-1.7-1.2-6.8 0.2-0.5 6.4-3.7 0.6-0.7 0.2-1 0.2-2.1-1 0-1.2-0.3-1-0.6-0.7-0.8 0-0.8 2.3-11.4 1.5 0.9 2 0.3 1.2 0 2.8 0 1.6 1.1 9 11.5 0.8 0.5 0.7-0.1 14.6-6.2z" id="PHQUI" name="Quirino">
  </path>
  <path d="M483.5 288.8l6.9 6.6-0.2 3.9-1.8 1.9-1.6-1.1-2.8 0 0.8-2.8-1.4-2.4-4.6 1.6-0.6-1.1-2.4-2.8 0.3-0.6 0.1-0.3-0.1-0.1 0.3-0.2 0.2 0 0.1 0.1 0.1 0 0.6 0 0.4-0.2 0.1-0.5 1.5-0.3 0.4-0.2 0.4-0.4 0.2-0.5 0.2-0.4 0.1-0.2 0.6-0.1 1.5 0.2 0.7-0.1z" id="PHISA" name="Santiago">
  </path>
  <path d="M481.8 339.5l-9.6 8.2-0.9-2.4-2.3-4.4-0.7-2.4-0.2-4.1-0.3-1.9-1-1.8-1.6-1.1-2.3-0.9-4.3-1-1.8-0.1-1.9 0.2-1.9 0.7-1.2 1.1-0.7-2.4-0.6-1.1-0.9-0.6-4.8-1.4-0.1-1.7 0.4-1.8 0.8-1.6 1.2-1.2 0.8-0.4 1.4 0.2 0.9-0.5 0.9-1.4 0.9-2.2 0.7-2.3 0.1-1.7-0.2-1.9 0-5.7 17.9-3.1 2.4-0.7 0.6-0.5 0.6-1.2 0.1 0 0.6-0.5 0.2-0.2 0.2-0.3 0.2-0.8 0.5-0.8 0.1-0.5-0.1-0.4-0.1-0.3 2.4 2.8 0.6 1.1 0.3 0.6 0.2 1.8-2.3 11.4 0 0.8 0.7 0.8 1 0.6 1.2 0.3 1 0-0.2 2.1-0.2 1-0.6 0.7-6.4 3.7-0.2 0.5 1.2 6.8 0.6 1.7 0.8 1.7 5.9 8.5z" id="PHNUV" name="Nueva Vizcaya">
  </path>
  <path d="M439.2 315.5l-3.6-0.3-1.1-4.2 4.3 0.1 0.4 4.4z" id="PHBEN" name="Benguet">
  </path>
  <path d="M488.1 274.5l0 1 0.6 2.1 0.1 1.1-0.3 5.6-0.3 0.4-0.4 0.2-0.5 0.5-0.8 2-0.5 0.6-0.6 0.4-0.6 0.2-1.3 0.2-0.7 0.1-1.5-0.2-0.6 0.1-0.1 0.2-0.2 0.4-0.2 0.5-0.4 0.4-0.4 0.2-1.5 0.3-0.1 0.5-0.4 0.2-0.6 0-0.1 0-0.1-0.1-0.2 0-0.3 0.2 0.1 0.1-0.1 0.3-0.3 0.6 0.1 0.3 0.1 0.4-0.1 0.5-0.5 0.8-0.2 0.8-0.2 0.3-0.2 0.2-0.6 0.5-0.1 0-0.6 1.2-0.6 0.5-2.4 0.7-17.9 3.1-0.5-3.3-0.2-4.1-0.5-3.9-1.5-2.6 0.9-0.4 1.8 0.5 0.9-0.1 0.9-0.6 0.5-0.9 0.5-2.1 1.1-2.3 1.9-1.8 2.3-1.2 2.4-0.6 5.2 0.4 1.6-0.1 1.2-0.4 3.4-1.8 3.5-1.4 3.2-0.7 3.2-0.2 3.7 0.2z" id="PHIFU" name="Ifugao">
  </path>
  <path d="M445.7 283.8l0.8-2.1-0.1-2.2-0.3-2 0-2.1 0.6-2 1-2 1.4-1.6 2-0.7 1.2-0.3 0.6-0.9 0.4-2.5 9.6 3.6 5.4 0.9 4-1.3 3.8-3.7 2.4-1.6 2.1-0.7 0.8 0.2 2.2 1 3.7 1 1.1 0.5 0 6.9-0.3 2.3-3.7-0.2-3.2 0.2-3.2 0.7-3.5 1.4-3.4 1.8-1.2 0.4-1.6 0.1-5.2-0.4-2.4 0.6-2.3 1.2-1.9 1.8-1.1 2.3-0.5 2.1-0.5 0.9-0.9 0.6-0.9 0.1-1.8-0.5-0.9 0.4-2.3-1.9-1-1-0.9-1.3z" id="PHMOU" name="Mountain Province">
  </path>
  <path d="M445.9 376.5l-0.7 0-0.4-0.3-0.2-0.3-0.3-0.2-0.9 0.1-1.9 0.5-5.1 0.4-1.2-0.1-1.1 0.2-3.9 1.3-1 0.5-2.1 2-1.3 0.8-1.2 0.1-1.6-3.1-1-1.5-1.2-1.2-1.9-1.1-4.2-1.5-1.7-1.3-1.1-3.5 1.4-4.1 4.2-7.4 3.2-1.7 1.3-1.2 1.4-2.9 0.9-1.2 1.1-0.8 1.2 0.2 2.5 1.2 0.7 0.5 0.7 0.2 0.9-0.4 1.6-1.1 1.4-1.4 0.8-1.8 0.6-2 0.7-1.9 0.4 0.6 0.4 0.8 0.6 1.5 0.8 6 1 2.9 1.8 2 0.8 0.2 2.2 0.1 0.6 0.3 0 0.8-0.5 0.9-0.7 0.8-0.4 0.8 0 0.8 0.3 0.7 0.3 0.7 0.2 0.7 0.1 0.7 0 1.9 0.3 1.5 0 0.7-0.5 2.3-0.1 0.9 0 0.9 0.4 0.8 0.8 0.8 0.6 0.5 0.3 0.8-0.3 1.6z" id="PHTAR" name="Tarlac">
  </path>
  <path d="M454.5 225l-0.2-0.6 0-0.3 0.7-0.8 0-1.4-0.4-3 0.1-1.3 0.3-1 0.5-0.9 1.2-1.6 0.2-0.6-0.2-0.6-0.4-0.7-0.8-0.5-1.1-0.5-1-0.6-0.4-1 0.1-0.8 0.5-0.3 0.6-0.2 0.6-0.5 0.6-1.1 0.1-1.2-0.2-1.2-0.2-1.1-0.2-1.3 0.5-2.7 0.1-1.3 1.4-0.5 0.9-0.7 0.8-0.8 1-0.8 0.5-0.6 0.4-0.7 0.5-0.7 0.8-0.2 0.7 0.3 0.2 0.8 0.2 0.9 0.3 0.9 1.4 1 5.5 1.8 2.7 1.3 9.5 6.2 1.2 1.8 0.4 2.2-0.1 2.5-0.4 2.6-0.8 2.4-4.6 8.8-0.9 2.6-0.4 0.8-1.1 1.1-0.7 1.1 0 1.1 1.3 0.9 1 0.2 0.7 0 0.7 0.1 0.7 0.8 0.5 0.8 0.6 2.2 0.4 0.9-7.1 0.9-4.1 1.1-5 0 0.1-0.9-0.7-4.7-0.2-1-0.4-0.9-0.6-0.8-0.4-0.3-2.2-0.1-0.6 0.1-0.4-0.2-0.6-0.7-0.5-0.7-0.2-0.6-0.5-2.9-0.6-1.1-0.9-0.8-1.4-0.4z" id="PHAPA" name="Apayao">
  </path>
  <path d="M480.8 239l1.1 1.5 3.7 4.1 1.7 2.2 0.9 0.9 1.2 0.6 0.9 0.4 0.9 0.4 0.8 0.5 0.8 0.7 1 1.6-0.7 1.4-2.4 2.5-0.5 1.2-0.5 4-1.2 3.1-0.1 1.2-1.1-0.5-3.7-1-2.2-1-0.8-0.2-2.1 0.7-2.4 1.6-3.8 3.7-4 1.3-5.4-0.9-9.6-3.6 0.6-1.9 3-4.7 0.5-1.7 0.3-3.7 0.6-1.6 1.1-0.9 2.8-1.3 1.2-0.9 0.7-1.7-0.3-1.5-0.6-1.5 0-1.8 0.3-0.3 0.8-0.5 0.3-0.4 5 0 4.1-1.1 7.1-0.9z" id="PHKAL" name="Kalinga">
  </path>
  <path d="M451.1 269.1l-2.1-1.2-1.2-0.4-0.9 0.3-1.2 1.6-1 1.1-1.3 0.1-1.7-1.2-0.7-1.2-0.2-1.2 0-1.1-0.4-1.2-0.5-0.4-1.4-0.1-0.6-0.2-0.4-0.5-0.2-0.5-0.3-0.5-0.5-0.1-1.6-0.2-1.2-0.7-0.8-1.1-0.1-1.7 0.7-1.4 1.2-1.6 0.9-1.7 0-1.6-0.7-0.7-1.2-0.4-1.3-0.2-1 0.1-1.6 0.4-0.5-0.3 0.8-5 0.8-2.3 1.1-2.3 1.1-1.9 0.8-1.6 1.1-1.8 1.2-1.8 1.2-1.3 1.5-0.8 1.4-0.2 1.4-0.5 2.4-2.6 1.5-1.1 3-1.8 1.5-0.2 1.8 0.1 1.5-0.2 1.1-1 1.4 0.4 0.9 0.8 0.6 1.1 0.5 2.9 0.2 0.6 0.5 0.7 0.6 0.7 0.4 0.2 0.6-0.1 2.2 0.1 0.4 0.3 0.6 0.8 0.4 0.9 0.2 1 0.7 4.7-0.1 0.9-0.3 0.4-0.8 0.5-0.3 0.3 0 1.8 0.6 1.5 0.3 1.5-0.7 1.7-1.2 0.9-2.8 1.3-1.1 0.9-0.6 1.6-0.3 3.7-0.5 1.7-3 4.7-0.6 1.9-0.4 2.5-0.6 0.9-1.2 0.3z" id="PHABR" name="Abra">
  </path>
  <path d="M577.6 470.1l-5-2.8 4.6-1.6 3.6-0.8 4 2.4-7.2 2.8z" id="PHCAS" name="Naga">
  </path>
  <path d="M436 385.2l-2.1-1.8-2.2-0.6 3-1.7 3.7-0.1 0 3.4-2.4 0.8z" id="PHPAM" name="Angeles">
  </path>
  <path d="M439.2 315.5l-3.6-0.3-1.1-4.2 4.3 0.1 0.4 4.4z" id="PHBEN" name="Baguio">
  </path>
  <path d="M459.8 413.7l-0.3-0.5 0.2-0.5 0.5 0.2 0.3 0.2 0.1-0.2 0.6 0.1 0.1 0.1 0.3 0 0.1 0.3-0.5 0-0.3 0.3-0.7 0.2-0.4-0.2z" id="PHMNL" name="Makati">
  </path>
  <path d="M459.8 413.7l-0.3-0.5 0.2-0.5 0.5 0.2 0.3 0.2 0.1-0.2 0.6 0.1 0.1 0.1 0.3 0 0.1 0.3-0.5 0-0.3 0.3-0.7 0.2-0.4-0.2z" id="PHMNL" name="Pateros">
  </path>
  <path d="M459.8 413.7l-0.3-0.5 0.2-0.5 0.5 0.2 0.3 0.2 0.1-0.2 0.6 0.1 0.1 0.1 0.3 0 0.1 0.3-0.5 0-0.3 0.3-0.7 0.2-0.4-0.2z" id="PHMNL" name="Mandaluyong City">
  </path>
  <path d="M459.8 413.7l-0.3-0.5 0.2-0.5 0.5 0.2 0.3 0.2 0.1-0.2 0.6 0.1 0.1 0.1 0.3 0 0.1 0.3-0.5 0-0.3 0.3-0.7 0.2-0.4-0.2z" id="PHMNL" name="San Juan">
  </path>
 </g>
 <g id="points">
  <circle class="5.479040784343548|117.43806399941874" cx="266.9" cy="910.2" id="0">
  </circle>
  <circle class="12.065710738147937|122.26944421015901" cx="525.9" cy="552.7" id="1">
  </circle>
  <circle class="20.299048180403425|126.13454837875122" cx="733.1" cy="92.6" id="2">
  </circle>
 </g>
 <g id="label_points">
  <circle class="Sulu" cx="463.3" cy="882.3" id="PHSLU">
  </circle>
  <circle class="Davao del Norte" cx="706.4" cy="793.7" id="PHDAV">
  </circle>
  <circle class="Zamboanga Sibugay" cx="560.9" cy="791.9" id="PHZSI">
  </circle>
  <circle class="Palawan" cx="292.9" cy="717.3" id="PHPLW">
  </circle>
  <circle class="Surigao del Norte" cx="701.4" cy="689.1" id="PHSUN">
  </circle>
  <circle class="Surigao del Sur" cx="732.1" cy="726.1" id="PHSUR">
  </circle>
  <circle class="Agusan del Norte" cx="693.9" cy="732.7" id="PHAGN">
  </circle>
  <circle class="Butuan" cx="702.5" cy="724.6" id="PHAGN">
  </circle>
  <circle class="Misamis Oriental" cx="671.1" cy="733.8" id="PHMSR">
  </circle>
  <circle class="Cagayan de Oro" cx="647.8" cy="754.2" id="PHMSR">
  </circle>
  <circle class="Iligan" cx="642.5" cy="760.9" id="PHLAN">
  </circle>
  <circle class="Lanao del Norte" cx="613.3" cy="778.5" id="PHLAN">
  </circle>
  <circle class="Zamboanga del Sur" cx="582.5" cy="779.2" id="PHZAS">
  </circle>
  <circle class="Misamis Occidental" cx="603.1" cy="756.2" id="PHMSC">
  </circle>
  <circle class="Zamboanga del Norte" cx="560.7" cy="772.3" id="PHZAN">
  </circle>
  <circle class="Zamboanga" cx="515.5" cy="827" id="PHZAN">
  </circle>
  <circle class="Lanao del Sur" cx="636.9" cy="782.8" id="PHLAS">
  </circle>
  <circle class="Maguindanao" cx="634.5" cy="830.3" id="PHMAG">
  </circle>
  <circle class="Cotabato" cx="631.9" cy="815.7" id="PHNCO">
  </circle>
  <circle class="Sultan Kudarat" cx="639.3" cy="854.7" id="PHSUK">
  </circle>
  <circle class="Sarangani" cx="693.1" cy="877.4" id="PHSAR">
  </circle>
  <circle class="General Santos" cx="677.6" cy="875.3" id="PHSCO">
  </circle>
  <circle class="Davao del Sur" cx="693.8" cy="857.8" id="PHDAS">
  </circle>
  <circle class="Davao" cx="692.3" cy="813.1" id="PHDAV">
  </circle>
  <circle class="Compostela Valley" cx="730.3" cy="798.2" id="PHCOM">
  </circle>
  <circle class="Davao Oriental" cx="748.2" cy="800" id="PHDAO">
  </circle>
  <circle class="Southern Leyte" cx="677.7" cy="641.6" id="PHSLE">
  </circle>
  <circle class="Leyte" cx="664.3" cy="609.1" id="PHLEY">
  </circle>
  <circle class="Eastern Samar" cx="688.7" cy="549.2" id="PHEAS">
  </circle>
  <circle class="Biliran" cx="645" cy="579.1" id="PHBIL">
  </circle>
  <circle class="Samar" cx="668.5" cy="553.9" id="PHWSA">
  </circle>
  <circle class="Aurora" cx="483.3" cy="352.2" id="PHAUR">
  </circle>
  <circle class="Quezon" cx="527.9" cy="459.3" id="PHQUE">
  </circle>
  <circle class="Camarines Norte" cx="550.8" cy="436.7" id="PHCAN">
  </circle>
  <circle class="Camarines Sur" cx="588.6" cy="458.6" id="PHCAS">
  </circle>
  <circle class="Albay" cx="595.7" cy="490.6" id="PHALB">
  </circle>
  <circle class="Sorsogon" cx="619" cy="515.6" id="PHSOR">
  </circle>
  <circle class="Lucena" cx="488.3" cy="449.9" id="PHQUE">
  </circle>
  <circle class="Batangas" cx="461.4" cy="449.2" id="PHBTG">
  </circle>
  <circle class="Cavite" cx="451.2" cy="432.7" id="PHCAV">
  </circle>
  <circle class="Las Pinas" cx="457.5" cy="420.9" id="PHMNL">
  </circle>
  <circle class="Paranaque" cx="459.5" cy="419.7" id="PHMNL">
  </circle>
  <circle class="Pasay" cx="457.7" cy="416.1" id="PHMNL">
  </circle>
  <circle class="Manila" cx="457.4" cy="413.6" id="PHMNL">
  </circle>
  <circle class="Navotas" cx="455.4" cy="411" id="PHMNL">
  </circle>
  <circle class="Bulacan" cx="463.3" cy="391.4" id="PHBUL">
  </circle>
  <circle class="Pampanga" cx="440.6" cy="390.8" id="PHPAM">
  </circle>
  <circle class="Bataan" cx="426.5" cy="405.5" id="PHBAN">
  </circle>
  <circle class="Olongapo" cx="420.7" cy="397.9" id="PHZMB">
  </circle>
  <circle class="Zambales" cx="415.1" cy="382.6" id="PHZMB">
  </circle>
  <circle class="Pangasinan" cx="435.1" cy="333.4" id="PHPAN">
  </circle>
  <circle class="Dagupan" cx="422.4" cy="333.9" id="PHPAN">
  </circle>
  <circle class="La Union" cx="427.1" cy="299" id="PHLUN">
  </circle>
  <circle class="Ilocos Sur" cx="436.3" cy="276.3" id="PHILS">
  </circle>
  <circle class="Ilocos Norte" cx="443.2" cy="215.6" id="PHILN">
  </circle>
  <circle class="Cagayan" cx="499.5" cy="227.6" id="PHCAG">
  </circle>
  <circle class="Isabela" cx="512.5" cy="280.8" id="PHISA">
  </circle>
  <circle class="Tawi-Tawi" cx="407.4" cy="924.8" id="PHTAW">
  </circle>
  <circle class="Basilan" cx="513.3" cy="855.4" id="PHBAS">
  </circle>
  <circle class="Camiguin" cx="657.2" cy="710.7" id="PHCAM">
  </circle>
  <circle class="Siquijor" cx="598.1" cy="710.2" id="PHSIG">
  </circle>
  <circle class="Bohol" cx="631" cy="674.2" id="PHBOH">
  </circle>
  <circle class="Guimaras" cx="545.2" cy="633.4" id="PHGUI">
  </circle>
  <circle class="Bacolod" cx="564.8" cy="629.7" id="PHBCD">
  </circle>
  <circle class="Negros Occidental" cx="578.7" cy="623.9" id="PHNEC">
  </circle>
  <circle class="Negros Oriental" cx="561.1" cy="691" id="PHNER">
  </circle>
  <circle class="Cebu" cx="612.1" cy="646.7" id="PHCEB">
  </circle>
  <circle class="Mandaue" cx="615.8" cy="646.3" id="PHMDE">
  </circle>
  <circle class="Cebu" cx="612.6" cy="634.5" id="PHCEB">
  </circle>
  <circle class="Puerto Princesa" cx="347.8" cy="660.1" id="PHPLW">
  </circle>
  <circle class="Tacloban" cx="670.9" cy="597.9" id="PHLEY">
  </circle>
  <circle class="Ormoc" cx="650" cy="607.7" id="PHLEY">
  </circle>
  <circle class="Aklan" cx="527.4" cy="579.1" id="PHAKL">
  </circle>
  <circle class="Antique" cx="521.1" cy="609.1" id="PHANT">
  </circle>
  <circle class="Iloilo" cx="543.3" cy="610.9" id="PHILI">
  </circle>
  <circle class="Iloilo" cx="540.3" cy="625.3" id="PHILI">
  </circle>
  <circle class="Capiz" cx="545.9" cy="590.9" id="PHCAP">
  </circle>
  <circle class="Romblon" cx="511.7" cy="537.8" id="PHROM">
  </circle>
  <circle class="Northern Samar" cx="662.6" cy="535.6" id="PHNSA">
  </circle>
  <circle class="Masbate" cx="588.4" cy="537.6" id="PHMAS">
  </circle>
  <circle class="Mindoro Oriental" cx="471.5" cy="490.9" id="PHMDR">
  </circle>
  <circle class="Mindoro Occidental" cx="458.1" cy="506.3" id="PHMDC">
  </circle>
  <circle class="Marinduque" cx="509.2" cy="480.1" id="PHMAD">
  </circle>
  <circle class="Catanduanes" cx="632.6" cy="459.4" id="PHCAT">
  </circle>
  <circle class="Batanes" cx="508.4" cy="88.1" id="PHBTN">
  </circle>
  <circle class="Lapu-Lapu" cx="616.9" cy="650.1" id="PHLAP">
  </circle>
  <circle class="Agusan del Sur" cx="710.2" cy="755.5" id="PHAGS">
  </circle>
  <circle class="Bukidnon" cx="672.9" cy="771.3" id="PHBUK">
  </circle>
  <circle class="Cotabato" cx="671.2" cy="818.4" id="PHNCO">
  </circle>
  <circle class="South Cotabato" cx="664.7" cy="865.4" id="PHSCO">
  </circle>
  <circle class="Muntinlupa" cx="462.5" cy="422.7" id="PHMNL">
  </circle>
  <circle class="Caloocan" cx="460.8" cy="405" id="PHMNL">
  </circle>
  <circle class="Malabon" cx="455.8" cy="409.5" id="PHMNL">
  </circle>
  <circle class="Valenzuela" cx="457.3" cy="408.1" id="PHMNL">
  </circle>
  <circle class="Quezon City" cx="462.1" cy="408.4" id="PHMNL">
  </circle>
  <circle class="Nueva Ecija" cx="459.5" cy="357.3" id="PHNUE">
  </circle>
  <circle class="Laguna" cx="477.8" cy="436.4" id="PHLAG">
  </circle>
  <circle class="Rizal" cx="472.5" cy="411.1" id="PHRIZ">
  </circle>
  <circle class="Taguig" cx="462.8" cy="418.5" id="PHMNL">
  </circle>
  <circle class="Marikina" cx="464.2" cy="410.9" id="PHMNL">
  </circle>
  <circle class="Pasig" cx="463.2" cy="415" id="PHMNL">
  </circle>
  <circle class="Quirino" cx="489.8" cy="318.8" id="PHQUI">
  </circle>
  <circle class="Santiago" cx="482.2" cy="292" id="PHISA">
  </circle>
  <circle class="Nueva Vizcaya" cx="464.3" cy="312.8" id="PHNUV">
  </circle>
  <circle class="Benguet" cx="443.8" cy="303.4" id="PHBEN">
  </circle>
  <circle class="Ifugao" cx="465.6" cy="289.2" id="PHIFU">
  </circle>
  <circle class="Mountain Province" cx="458.1" cy="273.8" id="PHMOU">
  </circle>
  <circle class="Tarlac" cx="429.5" cy="364.6" id="PHTAR">
  </circle>
  <circle class="Apayao" cx="469.4" cy="215.1" id="PHAPA">
  </circle>
  <circle class="Kalinga" cx="473" cy="254" id="PHKAL">
  </circle>
  <circle class="Abra" cx="447.1" cy="245.3" id="PHABR">
  </circle>
  <circle class="Naga" cx="578.8" cy="467.5" id="PHCAS">
  </circle>
  <circle class="Angeles" cx="436.2" cy="382.9" id="PHPAM">
  </circle>
  <circle class="Baguio" cx="437.1" cy="313.2" id="PHBEN">
  </circle>
  <circle class="Makati" cx="459.7" cy="416" id="PHMNL">
  </circle>
  <circle class="Pateros" cx="462.3" cy="416.3" id="PHMNL">
  </circle>
  <circle class="Mandaluyong City" cx="460.7" cy="414.4" id="PHMNL">
  </circle>
  <circle class="San Juan" cx="460.2" cy="413.4" id="PHMNL">
  </circle>
 </g>
</svg>