<?xml version="1.0"?>
    
<!--********* Copyright (c) 2024 Pareto Softare, LLC DBA Simplemaps.com ***************************************
************* Free for Commercial Use, full terms at  https://simplemaps.com/resources/svg-license ************
************* Attribution is appreciated! https://simplemaps.com *******************************************-->

<svg baseprofile="tiny" fill="#6f9c76" height="873" stroke="#ffffff" stroke-linecap="round" stroke-linejoin="round" stroke-width=".5" version="1.2" viewbox="0 0 1000 873" width="1000" xmlns="http://www.w3.org/2000/svg">
 <g id="features">
  <path d="M536.9 608.9l1.1-1.3 0.6-1.2 0.5-1.1 1.1-8.7 1.6-8.4 0.1-0.8 0.3-0.7 5.3-15.6 2.5-22-0.7-14.9 4.8-9.3 6.6-7.4 3-5.4 0.1-5.2 0-8.1 0.5-4.4 2.1-1.7 4.3-1.9 2.8-1.5 2.3-2.5 3.2-0.9 1.6 2 2.1 2.7 3.9 0.4 2.7-0.3 1.3-0.4 1.5-0.4 2.7-0.5 2.9-0.6 2.6-0.9 4-0.8 3.6-0.3 1.3-0.1 1.6-0.3 1.1-1.6 2.6-2.3 3.2-2.3 2.6-1.4 4.7-2.1 5.5-1.9 5.5 1.6 4.7 6.2 3.1 4.7 3.4 4.2 2.9 4.1 3-4.3 3.6-8.2 2.9-16.1 1.4-16.2 0.3-5.2 2.4-2.8 6.5-2.7 6.1-3 2.1-3.8 0.1-8.8-0.9-7.3-2.6-2.7-2.8-3.4 0.3-6.2-1.7-6.5-3.1-4.3-0.6-2.4 1.8-1.3 3.2-3.4 3.9-2.6 2.5-1.5-0.1-6.9-3.5-13.8-4.6-15.4-1.6-9.4 1.7-5 1.5-5.1-2.7-6-6.4-7-8.7-10.8-8.1-10.6-5.9-6.1-4.4-8-3.4-9.2-1.9-10 2.3-7.5 3.6-3.2 0.2-2.1-2.5-1.3-4.3 0-5.4 1.9-4 1.2-0.4-4.1-1.1-6.9-1.9-4.3-3.9-8.4-3.9-7.3-5-7.6-5.7-9.4-2.9-2.4-2.5-3.4-1.4-4.5-2.5-2-1.3-0.4-1.9-0.9 2.1-1.2 7.7-4.1 3.5-1.8 18.3-7.2 4.8-4.5 2.4-6.8 2.7-17.4 3.2-6.2 1.8-1 1.7-1 3.6-0.6 2.7-0.3 0.8 0 3.4-1 6.9-4.1 20-19 5.8-7.5 4.8-8.1 0.9-3 1-6.4 1.1-2.4 0.2-0.3 1.5-1.3 1.6-1.3 7.6-3.4 2.7-2.3 2.3-6.8 2.9-18.5 3.8-6.4 6.8-2.5 1.9 0.3 1.2 0.2 4.4 0.6 2.2 0.7 5.4 1.5 2.2 0.3 0.2 0.1 5.2 0.6 7-1.7 2.3-1.1 2.5-1.1 1.1-0.5 6.1-0.8 6.8 2.1 4.9 1.5-3.5 3.8-3.5 4.9-1.4 5 1.5 4.8 6.5 4.5 1.5 6.2-0.9 2.6-1.7 2.6-1.2 2.6 0.7 2.7 3.9 2.7 3.6-0.6 2.9-1.6 1.9-0.5 2.3 1.7-0.8 1.4 0.9-0.1 1.6 0.8 1.2 1.2 1.1 0.9 0.4 1-0.1 1.4 0.6 1.4 0.8 1.4 0.2 0.8 1 6.5 2.7 6.5 8.2 13.6 2.6 9.1 4.2 5.4 0.9 3.7-0.5 1.4-1 1.9-1 2.7-0.5 3.3 2.4 7.2 5 3.8 0 0.1 0.1 2.2 0.2 1.2 1 0.6 1.2 0 1.6-0.5 0.8 0.5 0.6 1.2 0 0.1 0.8 0.9 0.9 0.6 0.7 0.2 0.9-0.1 0.9 0.1 1.1 0.8 0.5 0.7 0.4 0.1 0.7 0.2 1.7 0.1 1.9-0.9 0.9 0 1.8 1.3 1.1 1-0.1 0.4 0.8 1.2 1.2 1.1 1.4 1.1 0.9 1.2 0.4 1 0.2 0.7 0.1 1.1-1.6 0.9-0.4 0.8 0.5 1.2 1 1 1.2 0 0.8 0 0.2 0.9 0 0.4 0.7 0.3 1.2 0.5 1.1 0.4 0.4-0.3 1.7-0.7 2.4-0.1 1.6 0 0.1 0 1.3 0.6 1.9 0.2 2.6 0.3 1.1 0.4 1.1 1.3 1 0.4 1.6-0.3 0.2 0 0.8-0.2 0.2 0.7 0 1.3 0.3 1 0.8 0.3 0 0.5 0 0.8 1.1 0 0.7 0.3 0.2 0.1 0.3 0.3 0.8 0.2 0.9 0.3 0.9-0.1 0.3-0.8 1.6-0.5 2.5 0 0.5 0 0.8 0 0.1 1.6 0.5 1.5 1 0.7 1.1 0.5 1.5 0.2 2-0.8 1.1-2.2 0.2-0.4 0.2-0.6 0.5-0.4 1.7 0.4 0.3 0.2 0.9 0.8 0.1 0.2 1.1 1.1 0.6 0.6 1.1-0.3 0.1-0.1 3.5 2.2 1.3 6-0.6 0.7-0.9 2.4-0.1 4.1 0.2 2.5 0.9 2.4 0.9 2.2 0.2 0.6-0.1 1.8-0.3 0.8 0 0.9 0 1.3-0.7 1.4-0.2 1.9 0.3 1.5-0.6 1-0.1 0.1-1 0.7-0.1 0.2-0.2 0.9-0.1 0.3-0.1 1.3-0.7 0.2-1.4 0.5-0.1 0-0.5 0.5-0.6 0.5-0.5 1.2-0.5 1.6 0.1 1.3 1.4 1.5 0.8 2.2 0.9 1.7 2.4 0.4 1.3 0.3 0.2 0.1 0.7 0.4 1.3 0.7 1 0.6 1.9-0.3 2 1 0.8 0.4 0.5 0.4 0.8 1.7 1.9 1.2 1.4 0.6 0 0.1-0.1 1 0.7 0.7 0.8 0.2 0.4 0.7 0.2 0.8 0.1 1-0.1 0-1.7 1.1 0.7 0.8 1.5 2.1 0.6 1.2-0.6 0.7 0 1.3 1 2 1.4 1.7 0.4 0.4 0.9 3.1 0.6 1.4-1.6 0.1-0.5 0.6-0.3 0.4-0.8 1-1.1 1.3 0.7 1.8 1.9 1.9 1.9 1.8 2.1 0.7 1.6 1 0.5 0.6 1.1-0.2 0.1 0 1 0.1 1.1 1 0.2-0.1 2.1 1.6 0.1 0.2 0.3 0.2 0.4 0.2 0.1 0 1 0.5 0.8 0 0.9 1.3 0.8 1.8 1.2 1.4 1.4 0 1.4 0.1 1.1 0.2 0.5-0.4 0.4-0.4 0.9-1 1.4-0.2 1.2 0 0.7 2.1-0.3 11.6-0.5 3-0.2 0.5 0.1 0.2-1 5.9-0.1 0-0.3-0.9-0.4 0 0.1 1.8-0.9 1.5-1.3 0.4-0.1 0.1-0.2 0.4-0.2 0.6-0.6 1 0.4 1-0.5 0.9-0.8 0.2-0.5 1.1 0.4 0.9 0.3 1.2 0.2 1.8 0.3 1.6-0.2 0.9 0 1.5 0 1.9 0.1 1.1-0.8 1.1-1 1.4 0 0.3 0 0.2 0.1 0.3 1 0.4 1.1 0.8-0.3 2.3-0.4 0.2-0.8 0.6-0.3-0.1-1.3-0.4-1.1 0-1 0.9-0.9 1.7-0.5 1.1 0.6 0.9 0.6 0.3 1.1 0.4 2.5 2.4 0.8 1.5 0.9 1.7 0.5 1 1 2 0.1 0.4 0.2 3.2 0 0.1-0.7 2.1-0.1 0.2-0.1 2.2-0.1 0.2-1.5 1.8-0.1 1.2-0.2 1.8 0.9 1.7 0.3 4 0.3 0.6 0.5 0.7-0.3 2.5 1 2.2 0.4 2.2 0 0.4-0.2 1.1-0.7 1.3 0.3 1.6 1 0.8-1.2 1.4-0.5 1.5-1.3 0.4-1.2 1-0.4 0.7 0.2 0.5 0.2 0.6 1.2 0.7 1-0.1 0.9-0.4-0.1 0.7-0.2 0.7 0.7 0 1-0.3 0.8 0.4-0.5 0.7-0.3 1.1 1.1 0.8 0.2 0.5-0.8 2.6-3.9 5.7-0.6 0.8-1.7 1.2-1 0.4 0.2 2 0 0.2 0.2 0.5-0.5 0.9-0.3 0.5-0.1 0.4 0.1 0.5 0.1 0.4 0.2 1.1 0 0.1-0.9 1.3-1.1 0.7-1.2 0.4-0.3 1 0.4 0.9-1 0.3-2.1 5.2-1.6 0.3-0.8-0.2-1.1 0.7-0.6 1-1.3 2.8-1.5 1.3-2.3 0.9-1 1.2-0.1 1.8-0.1 0.6-0.2 1-1.4 1-0.1 0 0 0.4 0 0.4 1.4-0.1 0.2-0.1 1-0.5 0 0.1 0.5 0.6 0.9 0.2 0.4 0.1-0.1-0.2-0.2-0.5-0.2-0.9 0.6-0.6 0.3-1.5 1.2-0.5 1.4 0.1 1.4-0.2 1-0.3 0.3 0 0.6-0.2 0.9 0.5 0.3 0.2 0.9 0.5 0.3 0.2 0.3 0.8 1 0 0.4 0.3 0.6 0.3 0.9 1.3 0.1 1.1 0 0.1-0.4 1.4-0.6 1.1 1.1 1.2 1.4 1.1 0.4 1.1-0.7 0.9 0.4 1.2 0.8 0.2 0.4 1.8 0.9 1 0.5 0.7-0.5 1-0.3 0.9-0.9 0.9-1.1 0.5-0.1 0.9-1.4 0.8-1.3 0.5-0.8 1.3-1.3 0.6 0 0.3 0 0.8 0.7 0.9-0.1 0.9-0.4 1.6 0.9 1 0.3 1.4 0.2 1.5-0.5 1.6 0.6 1.4 0.2 1.2-0.2 1.3-0.1 0.5-0.3 0.7 0 1.8 0.4 1.5 1.5 0.3 1.2 0 0.7-0.9 1.5-0.7 0.3-0.9 7.2-1.5 7.2 3.6 0.4 0.8 0.5 0.8 0.5 1 0.1 0 0.9 0.5 0.6 0.3 0 0.1 0.9 0.8 1.4 0.7 0.2 0.1 2.2 2.2 1.9 2.6-0.4 1.5 0.7 0.7 1.1 0.2 0.6 0.3 0.9 1.2 3.7 13-1.5 5-1 0.1-0.3 1.3 0.4 1.7-0.7 2.2-0.8 1-4.1 6.3-0.1 0.6 0.4 0.6 0.7 1.3 0.4 1.5 0 0.1-1.3 4-0.8 0.8-0.5 1.4 0.1 1.1-0.5 1.9-0.1 0.5-1.5 5.1-0.3 0.4 0.1 0.2-2 6.3-1.1 0.9-0.7 1.5-0.9 2.6 0 1.2-1.6 1.6-1.1 1.8-0.2 1.2 0.2 1.1 0.1 0.8-0.7 0.6 0.3 1.2 0.5 1.2 0 1.3-0.5 1.3-0.8 0.6 0 1.5-0.4 2.5-0.3 2 0.7 1.9 0.7 1.9 0.1 0 0.3 5.8-1.2 0.1-4 0-4 0.4 0.2 2.1-0.2 4.5 0.2 3.9-0.2 7.2-0.9 6.2 0.7 5 0.9 3.6-0.1 1.2-0.4 1.2 0.9 0.1 0.2 0.6-0.6 0.6-1.7 0.9-0.8 1 0.3 0.8-0.6 2-1.7 1.7-2 2.3-0.4 0.9-1.7 0.7-0.5 0.1-2.5 0.1-2.5 0.7-0.9 2-0.4 0.9-1.5 0.8-6.3 1.6-3.2 1.8-2.8 0.8-0.3-0.4-2 0.1-0.5 0-0.5-0.4-1.9-0.5-0.4-0.4-0.1 0.1-1.3-0.4-1.8-1.1-1.4-0.8-0.3-0.1-0.9-1-0.8-1.1-0.2-0.2 0-0.1-0.4-0.7-0.5-1-0.9-1-1.4-0.3-1.3-0.5-1.3-0.7-1.3-1.5-1.2-0.2-0.8 0.3-1.1 0.3-1 0.3-0.8 0.9-0.3 0.1-3.7-1.8-4.8-1.5-5.8 0.8-5.1 4-6.4 12.1-5.1 4.2-1.6 0.1-0.1-0.1-1.9-0.3-1.4-0.9-1.2-0.7-1.9 0.1-0.9 0.4-0.2 0.2 0-0.1-1 0.6-0.9-0.1-1.3-0.7-1.2-0.7-1.6 0.3-0.8 0.5-3.1-0.9-9.5-1.2-8.7 5.1-14.8-0.6-4.9-2.3-10-4.7-24.3-20-2.6-3.5-1.2-3.2-1.1-3.1-2.2-2.5-1.5 0.6-0.8-0.2-3.4-0.8-10-2.4-2.2-1.1-7.2 2.1-4.4 4.1-1.8 2.5-2.1 2.7-5.7 5.3-6.5 3.3-8.4 2.7-8.6 1.8-7.2 0.3-5.6-1.2-14-6.8-5.2-0.6-1.6 3.1-0.2 4.2-1 3.1-20.2 25.5-7.7 5.3-10 0.3-0.8-0.3-9.5-3.7-9.4-6.2-7.3-6.5-13.9-16.5-5.5-4.2-4.8-1.7-0.2 0-0.8-0.1-3.6-0.1-3.8 0.3-3.5-0.5-7.9-6.8-0.4-0.3-0.4-0.3z" id="RW02" name="Eastern">
  </path>
  <path d="M564.3 494.4l-0.5 4.4 0 8.1-0.1 5.2-3 5.4-6.6 7.4-4.8 9.3 0.7 14.9-2.5 22-5.3 15.6-0.3 0.7-0.1 0.8-1.6 8.4-1.1 8.7-0.5 1.1-0.6 1.2-1.1 1.3-3-2.7-3.6-2-4.6 0.1-1.3 2.5 0 4.2-2.9 23 3.2 34.5-9.7 33.9-1.9 46.1-0.2 5-2.4 9.8-4.3 9.8-5.4 9.3-6 8.1-9.2 9.4-8.4 4.9-5.1 1-4 0.8-11.1-0.4-3.6-1-6.4-2-5.2 0.1-3.3 4.1-1.5 9.5-2 4.1-4.3 2.7-9.7 1.2-0.4 0-1.7-0.2-0.2-0.1-6.5-1-7.9-2.6-10.8-3.5-0.3-0.1-4.5-1.5-3.2-0.2-13.3 4.8-3.4 2.1-3.5 1.4-4.7-0.2-9.8 1.3-8.4 5.3-4.2 1.4-4.3 1.5-10.4-5.9-16.3-3-6.4-1.2-0.1 0-2.1-0.4-8.1 0.9-19.3 8.4-1.2 0.1-9.9 0.9-3.9-8.5-0.6-5.7-4.1-9.3-1.1-5.2 1.6-4.7 6.2-7.6 1-5.1-2.8-5.6-9.7-9.1-0.1-0.4 8.5-4.5 1.7-0.5 0.5-0.2 4.1-2.1 6.3-11.3 1.5-16.2-5.2-7.7-2.3-3.4-0.6-3.1 0.6-4.2 0.8-4.4-1.8-2.8-2.3-4.4-3.3-4.5-2.7-5.6-1-6.8-3.7-5-6-2.7-8.4-2.7-5.4-2.9-0.4-3 2-5.9 3.9-5.7 9.5-5.1 9.2-5 1.8-4.1-1.3-5.1-1.4-4.2 3.8-6.1 4.5-7.1 0.4-4.1-3.1-6.3-3-7.3 1.3-6.1 4.5-5.5 6.8-3.4 6.6-1.1 5.1 1.6 5.7-2.6 8.3-6.3 9.1-1.5 7.8-0.2 5.3-0.2 2.7 0.4 6.6-6.8 11.1-8.7 6-3.4 4.9-4.3 5.7-3.5 2.6-2.8 1.8-2.6 2.5 0.8 2.8 1.1 3.3-1.3 3.6-1 3.1-1.8 4.8-2.9 3.7-1.9-0.2-6.2-1.6-6.2-1.4-2.8 0.5-4.5 4.1-7.6 2.6-6.2 0-3.3 1.6-2.8 1.2-2.2 2.2-3.2 3.1-4.8 0.7-4.1 0.3-3.9 0.6-3.8-1.4-3-1.5-5 0.4-9.5-1.6-9.9-2-4.5 4.6 0 6.7 0.3 5.2-1.7 4.1-3.7 1-4.7-2-3.6-1.7-5-0.1-5 1.7-3.5 2.4-5.8-1.3-11.9-2.1-11 0.1-5.4 1.5-5.2 1.2-12.5-1.5-15.1-1.7-8.2-1.3-4.5-1.1-1.6 2.6-0.8 5.1-0.8 5.1 1 7.3 4.9 8.4 3 5.6-1 3.5 0.6 1.6 4.1 4.6 7.2 6 8.9 5.3 8.2 6.2 5.9 2.3 6.5 8.5 5.4 12.3 4.2 8.6-0.1 8.9-1.7 7.8 0.2 5.5 1.6 3 2.3 3.6 1.8 3.3 2.3 2.9 2.6 3.6 3.7 4.3 4.7 4.4 2.9 3.6 0.7 1.1 0.8-0.2 0.6 0.9 1.5 1.4 3.8 1.2 3.4 0.9 1.5 1.3 1.8 1.3 2.8 1.4 3.3 1.3 3.3-0.8 2-0.1 0.8-0.1 1.7-0.3 2.9-0.9 2.8-1.5 2.3 4.2 6.7 2.9 6.9-2 3.4-1.6 1.8-3.6 1.4-3.3 3.4-0.9 4.3 2.8 5.4 3.8 2.4 2 0.3 2.5 0.8 2.9 0.9 1 0.8z" id="RW05" name="Southern">
  </path>
  <path d="M402.8 342.3l1.1 1.6 1.3 4.5 1.7 8.2 1.5 15.1-1.2 12.5-1.5 5.2-0.1 5.4 2.1 11 1.3 11.9-2.4 5.8-1.7 3.5 0.1 5 1.7 5 2 3.6-1 4.7-4.1 3.7-5.2 1.7-6.7-0.3-4.6 0 2 4.5 1.6 9.9-0.4 9.5 1.5 5 1.4 3-0.6 3.8-0.3 3.9-0.7 4.1-3.1 4.8-2.2 3.2-1.2 2.2-1.6 2.8 0 3.3-2.6 6.2-4.1 7.6-0.5 4.5 1.4 2.8 1.6 6.2 0.2 6.2-3.7 1.9-4.8 2.9-3.1 1.8-3.6 1-3.3 1.3-2.8-1.1-2.5-0.8-1.8 2.6-2.6 2.8-5.7 3.5-4.9 4.3-6 3.4-11.1 8.7-6.6 6.8-2.7-0.4-5.3 0.2-7.8 0.2-9.1 1.5-8.3 6.3-5.7 2.6-5.1-1.6-6.6 1.1-6.8 3.4-4.5 5.5-1.3 6.1 3 7.3 3.1 6.3-0.4 4.1-4.5 7.1-3.8 6.1 1.4 4.2 1.3 5.1-1.8 4.1-9.2 5-9.5 5.1-3.9 5.7-2 5.9 0.4 3 5.4 2.9 8.4 2.7 6 2.7 3.7 5 1 6.8 2.7 5.6 3.3 4.5 2.3 4.4 1.8 2.8-0.8 4.4-0.6 4.2 0.6 3.1 2.3 3.4 5.2 7.7-1.5 16.2-6.3 11.3-4.1 2.1-0.5 0.2-1.7 0.5-8.5 4.5-1.6-6.1 0.6-5.3-0.3-2.1-5.5-4.1-8.2-4.6-9.5-2.3-14.6-1.8-0.3-0.1-0.5 0-0.2-0.1-3.3-0.4-10-3.1-22.8-9.9-4.5-1.9-7.3-1.1-1.8 0.1-1.2 0.1-3.2 0.2-0.9 0.1-0.6 0-8.2 0.6-10.2 0.6-10.1 10-7.5 43.4-0.3-0.3-0.3-0.3 0-0.3-0.3-0.1-0.4-0.3-0.4-0.3-0.2-0.1-0.3-0.3-0.2-0.3-0.2-0.4-0.2-0.3-0.1-0.2-0.2-0.3-0.6-0.6-0.2-0.2-0.2-0.2-0.4-0.2-0.2-0.1-0.2-0.4-0.5-0.4-0.3 0-0.4 0.1-0.4 0-0.6-0.6-1.3-0.7-0.2-0.4-0.2-0.4-0.4-0.4-0.3-0.1-0.4-0.1-0.2 0-0.4-0.1-0.3 0-0.1-0.2-0.1 0.1-0.1 0.2 0 0.1-2.6-1.3-0.2-0.3-0.3-0.3-0.4-0.1-0.3-0.3-0.2 0-0.4 0.1-0.8-0.4-13.4-1.4-4.2-1.7 0.1-0.1 0-0.4-0.1-0.4-0.1-0.2-0.2-0.1-0.3-0.2-0.4-0.3-0.3-0.2-0.3 0-0.3-0.2-0.2-0.2-0.2-0.1-0.2 0-0.3 0.1-0.3 0.1-0.1 0.3-0.2 0.1-0.1-0.2-0.4-0.1-0.1-0.1-0.1 0-9.5-6.2 0-0.2 0-0.2 0.1-0.2 0-0.4-0.2-0.2-0.3-0.1-0.2-0.1-0.3-0.2-0.1 0-0.3 0-0.2 0-0.2 0.3-0.1 0.1-1-0.6-0.1-0.2-0.2-0.3-0.1-0.2-0.3 0-0.2 0-1.2-0.7-1.4-1.5-0.1-0.4 0-0.2-0.2-0.2-0.1-0.1-0.1-0.3 0.1-0.3 0.1-0.1 0-0.5 0.3-0.2 0.3-0.1 0.4-0.1 0.7-0.2 0.6-0.3 0.4-0.1 0.4 0.1 0.3-0.2 0.2-0.2 0.3-0.1 0.4-0.5 0.2-0.2 0-0.3 0-0.4 0.1-0.1 0-0.4-0.1-0.5 0-0.8 0-0.4 0-0.3-0.1-0.1-0.1-0.2-0.1-0.1 0-0.3 0-0.2-0.2-0.2-0.1-0.2-0.2-0.2-0.1-0.1 0-0.1-0.1-0.2-0.1-0.1 0-0.2-0.1-0.1 0-0.1 0.1-0.2 0-0.2-0.1-0.2 0.1-0.2 0.1 0.1 0.1 0.4 0.1 0 0.2 0 0-0.1-0.1-0.3 0.2-0.2 0.2-0.3-0.1-0.3-0.2-0.1-0.1-0.2-0.1-0.3-0.1-0.1 0-0.3 0-0.3 0.2-0.3 0.2-0.3-0.1-0.6-0.2-0.3-0.1-0.1-0.1 0-0.1-0.2-0.1-0.2-0.2-0.2 0.1 0.3 0.2 0.4 0 0.5-0.1 0.4-0.2 0.1-0.1 0-0.2 0-0.2-0.1-0.1-0.1-0.1-0.1 0.1-0.2 0-0.3-0.2-0.1-0.2-0.1-0.1-0.3-0.1-0.3-0.1-0.1-0.1-0.1 0-0.2 0.1-0.4-0.1-0.2-0.2-0.2-0.1-0.3 0.1-0.2 0.2-0.2 0-0.3 0-0.2-0.2-0.1 0.1-0.2 0.1-0.1 0.2 0 0.1-0.2 0-0.2 0-0.1 0.1-0.1 0.1-0.1 0-0.3 0.1-0.1 0-0.3 0-0.4 0.1-0.3 0.1-0.2 0.3-0.2-0.1-0.3 0-0.5 0-0.1 0-0.2 0-0.2 0.1-0.3 0-0.1 0.2-0.1 0-0.2 0-0.1 0-0.1 0-0.3-0.1-0.2-0.2-0.2-0.1-0.2-0.1-0.3-0.2-0.2-0.2-0.1 0-0.1 0-0.3 0.1-0.2 0-0.3-0.1-0.2-0.1 0-0.2-0.1-0.3 0-0.1-0.3 0-0.2 0-0.1-0.2-0.2-0.2 0-0.1-0.2 0-0.2 0-0.2 0.2-0.2-0.2-0.2 0-0.1 0-0.3 0-0.2 0.1-0.2 0-0.2 0-0.2 0-0.1 0-0.2 0.2-0.7 0-0.3 0.1-0.4 0.2 0 0.3-0.1 0-0.1 0-0.3-0.1-0.6 0-0.2 0.1-0.2 0.2-0.3 0-0.3 0-0.2-0.1-0.2 0-0.2 0.2-0.3-0.3-0.3-0.1 0-0.3-0.1 0-0.2 0-0.6 0-0.3-0.1-0.2-0.2-0.2 0.1-1.9-3-10.5-4.6-4.6-5-2.5-3.6-2.4 0-0.1 0-0.1 0-0.1 0-0.1 0-0.1 0-0.1-0.1-0.1 0-0.1 0-0.1 0-0.1-0.1 0 0-0.1-0.1 0 0-0.1 0-0.1 0-0.1 0-0.1 0-0.1 0-0.1 0.1 0 0-0.1 0.1-0.1 0-0.2-0.1-0.1 0-0.1 0-0.1 0-0.1 0-0.1 0-0.1 0-0.1 0-0.1 0-0.1 0.1-0.1 0-0.1-0.1-0.1 0-0.1 0-0.1 0.1 0 0-0.1 0-0.1 0-0.2 0-0.1 0-0.1 0.1-0.1 0.1 0 0-0.1 0-0.1 0.1-0.1 0-0.1 0.1 0 0-0.1 0-0.1 0.1 0 0-0.1 0.1 0 0.1-0.1 0-0.1 0.1 0 0-0.1 0-0.1 0.1 0 0-0.1 0.1 0 0-0.1 0-0.1 0.1-0.1 0-0.1 0.1 0 0.1 0 0.1-0.1 0-0.1 0.1 0-0.1-0.1 0-0.1 0-0.1 0.1 0 0-0.1 0.1 0 0-0.1 0.1 0 0-0.1 0.1-0.1 0-0.1 0-0.1 0.1 0 0-0.1 0-0.1 0.1 0 0-0.1 0.1 0 0.1 0 0-0.1 0.1 0 0.1 0 0.1 0 0.1 0 0.1-0.1 0.1 0 0.1 0 0-0.1 0.1-0.1 0-0.1 0.1 0 0.1-0.1 0-0.1 0.1 0 0.1-0.1 0.1 0 0.1-0.1 0.1 0 0-0.1 0.1 0 0.1-0.1 0.1-0.1 0.1 0 0-0.1 0.1 0 0.1-0.1 0.1-0.1 0.1-0.1 0-0.1 0.1-0.1 0.1-0.1 0.2-0.2 0.1-0.1 0-0.1 0.1-0.1 0.1 0 0.1-0.1 0.1-0.1 0-0.1 0-0.1 0.1 0 0.1-0.1 0.1-0.1 0.1 0 0.1 0 0.1 0 0-0.1 0.1 0 0.1 0 0-0.1 0.1 0 0-0.1 0.1 0 0-0.1 0.1 0 0.1 0 0.1 0 0-0.1 0.1 0 0.1 0 0.1 0 0.1 0 0.1 0 0.1-0.1 0.1 0 0.1 0 0 0.1 0 0.1 0 0.1 0.1 0 0.1 0 0.1 0 0-0.1 0.1 0 0-0.1 0.1 0 0.1 0 0-0.1 0.1 0-0.1 0 0.1-0.1 0.1 0 0-0.1 0.1-0.1 0-0.1 0.1 0 0.1 0 0.1-0.1 0.1 0.1 0-0.1 0.1-0.1 0.1 0 0.1 0 0.1 0 0.1 0 0.1-0.1 0.1 0 0.1 0 0.1 0 0.1 0 0 0.1 0.1 0 0-0.1 0.1 0 0.1 0 0.1 0 0.1 0 0.1 0 0.1 0 0.1 0 0.1 0 0-0.1 0.2 0 0-0.1 0.1-0.1 0.1 0 0-0.1 0.1 0 0.1 0 0-0.1 0.1 0 0.1 0 0.1 0 0-0.1 0.1 0 0-0.1 0.1 0 0.2 0 0-0.1 0.1-0.1 0-0.2 0-0.1 0-0.1 0-0.1 0-0.1 0.1-0.1 0-0.1 0-0.1 0.1-0.1-0.1 0 0-0.1 0-0.1 0-0.1 0.1 0 0-0.1 0-0.1 0-0.1 0.1 0 0-0.1 0-0.1 0.1-0.1 0-0.1 0-0.1 0-0.1 0.1 0 0-0.1 0-0.1 0.1 0 0.1 0 0-0.1 0-0.1 0-0.1 0-0.1 0-0.1 0.1-0.1-0.1-0.1 0-0.1 0-0.1 0-0.1 0.1 0 0-0.1 0-0.1 0.1-0.1 0-0.1 0-0.1 0.1-0.1 0-0.1 0.1-0.1 0-0.1 0.1-0.1 0-0.1 0.1-0.1 0-0.1 0.1-0.1 0-0.1 0.1 0 0-0.1 0-0.1 0.1-0.1 0-0.1 0-0.1 0-0.1 0-0.1 0.1 0 0-0.1 0.1-0.1 0.1-0.1 0-0.1 0-0.1 0-0.1 0-0.2-0.1-0.8-0.3-1.4-0.7-2.8-1.6-2.9-5.7-5.6-1.3-6.4 0.4-8.5 4.3-13.8 4.9-6.1 6.3-4.4 2.8-0.8 3.8 0.7 4.1-0.1 2.2 0 1.1 0.6 0.4 0.8-0.3 0.9-1 0.9-1.8 0.3-1 0.8-0.7 1.5-0.4 1.7-0.2 1.1 0.3 1.2 0.7 0.7 0.4 0.3 1.2-0.3 1-0.4 2.6-2.6 3.3-3 5.5-3.2 5.8-5.8 7.8-8.1 7-12.6 2.2-5.5 0.4-2.9 2.3-2.8 4.6-1.3 7.7 0.6 7.4 3.6 8.7-1.4 8.6-4.7 4.2-6.2 5.2-9.5 7.7-15.3 4.9-8.2 5.5-15.6 2-9.9 3.6-14.7-0.1-8.1 0-23.6-1.4-10.4-0.3-16.5-0.2-8.4-0.9-6.2-0.6-7.1 0.2-11 0.4-7.9 2.2-9 2.7-10.7 3.7-13.3 4-8 8.5-16.4 12.9-24.7-0.1-1.3-0.1-0.4 0.6-3.6 2.2-4.9 1.8-8.1 1.6-1.5 2.6-7.1 9.4-2.7 3.8-3 10.1-17.7 5.5-4.9 4.4-10.3 6-4.9 12.9-8.2 11.6 0.6 17.8 0.3 5.9-3.3 1.8-1.7 3 4.1 10.8 12.7 9.7 3.3 8.4 2.7 3.7-0.1 3-1.2 1.8 1.1 2.3 0.8 7.3 3.4 8.3 4.1 9.1-0.5 8.8 0.6 1.9 13.6 0.6 18.4-0.2 13-0.6 9.8 5.6 6.7 4.9 3.7z" id="RW04" name="Western">
  </path>
  <path d="M585.9 187l1.9 0.9 1.3 0.4 2.5 2 1.4 4.5 2.5 3.4 2.9 2.4 5.7 9.4 5 7.6 3.9 7.3 3.9 8.4 1.9 4.3 1.1 6.9 0.4 4.1 4-1.2 5.4-1.9 4.3 0 2.5 1.3-0.2 2.1-3.6 3.2-2.3 7.5 1.9 10 3.4 9.2 4.4 8 5.9 6.1 8.1 10.6 8.7 10.8 6.4 7 2.7 6-1.5 5.1-1.7 5 1.6 9.4 4.6 15.4 3.5 13.8 0.1 6.9-2.5 1.5-3.9 2.6-3.2 3.4-1.8 1.3-3.2-0.5-7.4-2.4-14-10-14.8-9.8-7.4-4.4-3.5-1.5-2.3 5.8-3.1 7.7-2.4 3.1-4.3-0.6-11 1.9-9.1 4.1-2.5 3.3-4.8 5.6-5.9 3.5-5.6-3.7-5.9-3.9-4.3 1.4-3.5 5.5-3.6 6.1-2 4.5 2.4 6.9 1.8 5.3-1.7 1.3-1.2 0.5-1.1-0.8-3.6-0.7-4.4-2.9-4.3-4.7-3.6-3.7-2.9-2.6-3.3-2.3-3.6-1.8-3-2.3-5.5-1.6-7.8-0.2-8.9 1.7-8.6 0.1-12.3-4.2-8.5-5.4-2.3-6.5-6.2-5.9-5.3-8.2-6-8.9-4.6-7.2-1.6-4.1-3.5-0.6-5.6 1-8.4-3-7.3-4.9-5.1-1-5.1 0.8-2.6 0.8-4.9-3.7-5.6-6.7 0.6-9.8 0.2-13-0.6-18.4-1.9-13.6-8.8-0.6-9.1 0.5-8.3-4.1-7.3-3.4-2.3-0.8-1.8-1.1-3 1.2-3.7 0.1-8.4-2.7-9.7-3.3-10.8-12.7-3-4.1 2.6-2.3 8.7-16.6 11.6-13 5.1-9 3.2-3 7.2 0 2.9 0.3 5.5-5.9 4.5-4.8 6.4-1.2 2.9 0 2.3-1.8 0-0.4 0-0.2 7.7 0.4 9.4-0.7 8.4-2.3 0.2-0.1 9-5.1 4.6-3.3 2.4-1.7 7.5-3.9 10.9-1.9 5.3 1.2 9.5 5.8 3.1 1.1 0.4-0.2 3.4-2 2.6-8.9 4.1-4.8 4.1-2.6 3.9-1.1 0.8 0.1 3.2 0.5 0.1 0 4.9 2.5 12.6 18.3 2 9.4 1.1 18.5 4.3 9.5 7.7 7.2 4 1.1 4.8 1.4 5.2-0.6 4.2-0.5 9.9-3.6 4.8-2.7 3.4-1.9 3.7-2 2.8-1.6 15.7-8.7 4-0.8 0.7-0.2 4-9.8 5.9-6 2.3-1.2z" id="RW03" name="Northern">
  </path>
  <path d="M667.1 391.7l0.6 2.4 3.1 4.3 1.7 6.5-0.3 6.2 2.8 3.4 2.6 2.7 0.9 7.3-0.1 8.8-2.1 3.8-6.1 3-6.5 2.7-2.4 2.8-0.3 5.2-1.4 16.2-2.9 16.1-3.6 8.2-3 4.3-2.9-4.1-3.4-4.2-3.1-4.7-4.7-6.2-5.5-1.6-5.5 1.9-4.7 2.1-2.6 1.4-3.2 2.3-2.6 2.3-1.1 1.6-1.6 0.3-1.3 0.1-3.6 0.3-4 0.8-2.6 0.9-2.9 0.6-2.7 0.5-1.5 0.4-1.3 0.4-2.7 0.3-3.9-0.4-2.1-2.7-1.6-2-3.2 0.9-2.3 2.5-2.8 1.5-4.3 1.9-2.1 1.7-1-0.8-2.9-0.9-2.5-0.8-2-0.3-3.8-2.4-2.8-5.4 0.9-4.3 3.3-3.4 3.6-1.4 1.6-1.8 2-3.4-2.9-6.9-4.2-6.7 1.5-2.3 0.9-2.8 0.3-2.9 0.1-1.7 0.1-0.8 0.8-2-1.3-3.3-1.4-3.3-1.3-2.8-1.3-1.8-0.9-1.5-1.2-3.4-1.4-3.8-0.9-1.5 0.2-0.6 1.2-0.5 1.7-1.3-1.8-5.3-2.4-6.9 2-4.5 3.6-6.1 3.5-5.5 4.3-1.4 5.9 3.9 5.6 3.7 5.9-3.5 4.8-5.6 2.5-3.3 9.1-4.1 11-1.9 4.3 0.6 2.4-3.1 3.1-7.7 2.3-5.8 3.5 1.5 7.4 4.4 14.8 9.8 14 10 7.4 2.4 3.2 0.5z" id="RW01" name="Kigali City">
  </path>
 </g>
 <g id="points">
  <circle class="-2.738446853902339|28.962439621933807" cx="90.9" cy="793.6" id="0">
  </circle>
  <circle class="-2.0311824871793687|29.97579207618848" cx="545.5" cy="476.1" id="1">
  </circle>
  <circle class="-1.1471020287756544|30.786474039592218" cx="909.1" cy="79.3" id="2">
  </circle>
 </g>
 <g id="label_points">
  <circle class="Eastern" cx="798.7" cy="370.3" id="RW02">
  </circle>
  <circle class="Southern" cx="400.2" cy="665.5" id="RW05">
  </circle>
  <circle class="Western" cx="281.5" cy="487.2" id="RW04">
  </circle>
  <circle class="Northern" cx="517.8" cy="312.9" id="RW03">
  </circle>
  <circle class="Kigali City" cx="611.9" cy="430" id="RW01">
  </circle>
 </g>
</svg>