<?xml version="1.0"?>
    
<!--********* Copyright (c) 2024 Pareto Softare, LLC DBA Simplemaps.com ***************************************
************* Free for Commercial Use, full terms at  https://simplemaps.com/resources/svg-license ************
************* Attribution is appreciated! https://simplemaps.com *******************************************-->

<svg baseprofile="tiny" fill="#6f9c76" height="421" stroke="#ffffff" stroke-linecap="round" stroke-linejoin="round" stroke-width=".5" version="1.2" viewbox="0 0 1000 421" width="1000" xmlns="http://www.w3.org/2000/svg">
 <g id="features">
  <path d="M161.9 311.9l0.3 5.7-4.2 15.5-1.3 9.8-1.1 2.4-0.8 1.2-1.1 0.9-5.3 7-8.3 7.1-2.6 1.4-1.2 0-1 0.6-1.8 2.9-0.7 8.3-1 2.2-2.7 3.8-1 2.1 0.1 1.9 1.2 4.9-0.2 2.6-2.5 3.9-3.7 2.4-4.7 1.2-5.3 0.5-3.4 0.8-1.2 1-0.2-0.6-0.9-3.6 0-1.6 1-5 0.1-2.1-0.9-4.7-2-4.8-2.7-4.6-3.1-3.8-4.2-3.6-3.7-1.6-3.8 0.2-4.6 1.9-3.7 3.2-5.5 7.7-3.5 2.1-8.6-1.5-7.6-6.6-9-15.7 5-1.4 22.4-9 4.9-0.6 3.5-1.8 6-8.7 2.7-2.9 8.4-3.9 18.4-5.7 27.1-5.2 3.1-1.7 2.4-3.1 5.5-1 6.9-0.4 0.1 0z" id="TLOE" name="Ambeno">
  </path>
  <path d="M356.3 309.3l-0.4-1.7-1.2-2.9-0.5-2.6 4.7-17.7 0.1-6-2.3-5.6-4.1-4.5-5-3.6-5.2-3-2-1.8-1-1.7-1.3-0.7-2.9 1.3-1 1.6-1.2 5.4-0.9 2.1-3.7 3.3-13.1 5.7-7.1 4.6-3.6 1.5-5 0.4-4.1-1.2-3.3-2.5-2.3-3.6-1.4-4.2 0.4-4.9 3.7-9.5-0.9-6.8 9.5-5.4 5.8-5.8 13.5-20.5 1.2-4.3 2.5-2.5 12.5-4.6 4-3.5 1.1-4.9 0.7-10.6 0.1 0 5.4 2.1 5.4 2.3 8.3 0 2-0.5 1.9 4.9 10.3 2.1 4.4 2.2 3.4 5.6 7.8 15.2 7.7 15.9 1.5 5.5 0.8 8.4 2.9 6.7 17.3-0.7 6.7-1.9-0.2 7.5-0.5 7-7.2 1.7-6.6 5.6-1.3 7.3-1 10.4-2.9 5.5-9-0.4-4.8 1.1 7.5 9.5-2.2 8.5-15.6 2.2-10.2-0.9-1.3-3.7-1.9-2.9-4-2.2-9.4-2.9-1.5-0.4z" id="TLBO" name="Bobonaro">
  </path>
  <path d="M356.3 309.3l1.5 0.4 9.4 2.9 4 2.2 1.9 2.9 1.3 3.7 10.2 0.9 15.6-2.2 2.2-8.5-7.5-9.5 4.8-1.1 9 0.4 2.9-5.5 1-10.4 1.3-7.3 6.6-5.6 7.2-1.7 0.4-0.1 3.6 4.2 1.9 4.2 3.9 1.8 2.9 7 1 10.9 3.6 4.4 6.1 1.6 4.5 2.6-4.5 13.7-2 7.7-30.2 11.3-10 6.1-14.2 11.9-7.7 3.4-3.3 4-5.2 7.7-3 3.4-3 2.4-4 1.4-13 1-5.3 1.5-4.7 3-4.8 4.7-9.6 6.9-3-17.1-1.3-4.2-6.2-9.8-0.3-2 0.6-4.4-0.4-1.8-1.5-1.9-5.9-3.7-6.6-5.9-1.9-3.2-1.6-4.8-1.7-9.7 1.1-8.3 4.6-5.6 9-1.7 5.7 0.1 1.9 0.5 1.9 1.4 3.3 3.8 1.8 1.1 3.9 0.2 2.4-1.6 2.5-2.5 4.2-2.3 3.1-0.3 6.8 0.5 2.2-1.1 0.9-2.7-0.3-1.3z" id="TLCO" name="Cova Lima">
  </path>
  <path d="M427.7 270.9l0.5-7 0.2-7.5 8.2-2.4 0.2-6.8 2.6-3.7 3.3-3.7 1.9-4.8 5-4.5 0.9-7.1-1.4-2.5 1.2-0.2 13-1.8 9.1-3.3 5.6-6.9 1.8-5.1 6-1.4 3.4-2.3 3.4-2.3 8.2-1.3 4.7 0.8-0.9 6.7-0.1 0.5-2.2 10.9-1.2 6.9-0.2 5.2-0.8 7.9-4.3 2.7-9.1-0.1-6.4 3.4-0.9 5.3-2.3 5.3-2.3 4-0.5 5.3 0.8 9.3 3.8 6.5 8.2 3.6 6.9 3.3 4.1 3.9 2.3 6.3-1.6 4.3-2 5 2 10.3 0.8 1.9-2.8 0.1-14-2-4.6 0.9-5.6 4.5-5.7 3.3-17.8 6.6 2-7.7 4.5-13.7-4.5-2.6-6.1-1.6-3.6-4.4-1-10.9-2.9-7-3.9-1.8-1.9-4.2-3.6-4.2-0.4 0.1z" id="TLAN" name="Ainaro">
  </path>
  <path d="M499.6 315.5l-0.8-1.9-2-10.3 2-5 1.6-4.3-2.3-6.3-4.1-3.9-6.9-3.3-8.2-3.6-3.8-6.5-0.8-9.3 0.5-5.3 2.3-4 2.3-5.3 0.9-5.3 6.4-3.4 9.1 0.1 4.3-2.7 0.8-7.9 0.2-5.2 1.2-6.9 2.2-10.9 0.1-0.5 5.4-0.6 10.1-5.1 5-5 4.6-1.5 7.3 0.6 0.1 0.8-1.9 15.7 3.2 12.5 8.5 7 8.5 4.6 9.5 4.7 6.5 7.8 4.3 6.8 12.2 7.1 11.9 8.5 3.7 6.4 0.6 3.3-27.8 19.2-5.2 1.7-16.3-2.6-5.5 0.5-3 1.6-6.1 5.1-3.2 1.1-11.5 0-5.8 1.5-17.8 10-2.3 0z" id="TLMF" name="Manufahi">
  </path>
  <path d="M604.1 277.4l-0.6-3.3-3.7-6.4-11.9-8.5-12.2-7.1-4.3-6.8-6.5-7.8-9.5-4.7-8.5-4.6-8.5-7-3.2-12.5 1.9-15.7-0.1-0.8-1.1-13.4-4.3-9.9-3.9-5.9-3.9-8.9 1.7-9.6 7-2 6-7.5 5.4-4.1 4.4-5.8-4.9-6.4 6.2-2 13-0.7 28.9 5.1 11.1 5.4 7.5 0.8 6-1.2 11.8-3.7 2.3-0.3 5.3 4.2 2.9 5.5 0.8 6.5 0.8 8.5 0.5 9.1-1.8 6.2-3.2 4.5-5.8 5.4-2.4-0.9-5.5-0.8-5.4 3.6-3.3 8.9-3.1 7.2-5.2 3.4-3.6 4.8-1 5.4 6.6 10.1 5.8 10.8 0.2 6 1.2 6 3 8.4 4.8 6.9 7.2 9.2 0.1 0.3-4.4 1.9-20.6 14.2z" id="TLMT" name="Manatuto">
  </path>
  <path d="M629.1 261.3l-0.1-0.3-7.2-9.2-4.8-6.9-3-8.4-1.2-6-0.2-6-5.8-10.8-6.6-10.1 1-5.4 3.6-4.8 5.2-3.4 3.1-7.2 3.3-8.9 5.4-3.6 5.5 0.8 2.4 0.9 11.3 3.8 14.8 0.3 13.1-4.9 13.7-0.8 12 2.7 8.8 3.1 7.2 2.9 4.7-3.6-1-8.5 0.8-8.4 1.9-7.3 5.4 5.3 4.7 12.3 7.5 3.7 11.3-1.9 7.3 1 4.6 2.7 3.6-1.7 3.2-6.6 6.6-3.2 9 2.7 6.4 1.8 5 3.8 3.9 5.1-0.9 1.3-2 7 0 9.8-9.5 0.7-6 1.4-3.3 1.6-8.1 6-2 0.9-2.4 0.5-6 0.4-2.9 1-10.8 12.5-10.1 17.2-9.8 8.7-11.7 3.3-73.2 9.5-7.7 3.2z" id="TLVI" name="Viqueque">
  </path>
  <path d="M792.6 194.4l0-9.8 2-7 0.9-1.3 3.5-4.6 5.7-8.4 7.5-5.5 3.5-2.9-2.1-4.5-7.7-7.9-9.7-8.8-4.2-4.1 2.4-3.8 0.7-4.7-4.4-2.7-3-3.2-2-7-4.2-6.2 1.3-0.4 5.3-3.7 2.2-1 3.1 0 4.7 1.4 2 0.3 12.1-2.5 11.9-5.3 28.4-20.3 6.2-2.7 4.7 1.1 4.2 3.2 19.5 9.3 5.3 1.4 6.9 0.7 6.7-0.7 4.9-2.3 8.5-6.1 1.9-0.8 3.6 0.8 1.3 1.8 0.8 2.5 1.8 2.7 5.9 3.5 12.5 3.5 5.3 3.5 2 5.6-2.7 4.8-20.3 15.2-12.6 12.8-25.4 19.8-17.9 17.5-1.9 2.9-3.3 0.3-19.4 4.3-17.8 13-8 3.9-32.6 2.4z" id="TLLA" name="Lautém">
  </path>
  <path d="M629.7 172l5.8-5.4 3.2-4.5 1.8-6.2-0.5-9.1-0.8-8.5-0.8-6.5-2.9-5.5-5.3-4.2 3.6-0.5 12.5-0.2 11.1-1.6 5.8-2.9 12.2-8.6 8.8-2.6 9.2-5.2 3.1-0.5 5.5-0.1 2.9-1.3 5 3.7 5.9 2.4 6.4 1.3 6.4 0.4 4.1 1.5 10.2 9.7 11.4-3.9 21.3-10.1 5.9-1.6 4.2 6.2 2 7 3 3.2 4.4 2.7-0.7 4.7-2.4 3.8 4.2 4.1 9.7 8.8 7.7 7.9 2.1 4.5-3.5 2.9-7.5 5.5-5.7 8.4-3.5 4.6-3.9-5.1-5-3.8-6.4-1.8-9-2.7-6.6 3.2-3.2 6.6-3.6 1.7-4.6-2.7-7.3-1-11.3 1.9-7.5-3.7-4.7-12.3-5.4-5.3-1.9 7.3-0.8 8.4 1 8.5-4.7 3.6-7.2-2.9-8.8-3.1-12-2.7-13.7 0.8-13.1 4.9-14.8-0.3-11.3-3.8z" id="TLBA" name="Baucau">
  </path>
  <path d="M543.4 118.7l4.9 6.4-4.4 5.8-5.4 4.1-6 7.5-7 2-0.6 0.1-7.5-4.4-10.7-0.7-12.7 6.2-9.4 5.2-6.6 1.3-8.8 3-10.9 1.6-2.5-1.9-4-2.9-1.7-9.1-0.4-2.5 14.3-6.5 6.7-0.8 7.2 2.1 3.2-0.2 7.6-7.7 5.1 2.2 8.2 0.3 15-2.5 26.4-8.6z m-71.7-82.4l3-4.9 6.9-7.2 7.6-5.1 5 2.2-2.4 8.9-10.7 26.4-1.9 8.5-1.2 2.2-2.5 2-2.7 0.8-1.1-1.2-1.8-1-9-2.7-3.6-2.1-2.9-3.3-0.9-2.7 0.7-2.7 2.2-3.7 3.4-3.4 9.8-7.4 2.1-3.6z" id="TLDI" name="Dili">
  </path>
  <path d="M363.7 192.5l-2 0.5-8.3 0-5.4-2.3-5.4-2.1-0.1 0 1-14.5 2.4-6.4 3.6-5.7 4.5-3.9 5.5-1.9 12.7-1.9 5.3-2.9 2.2-0.6 10.2 1.5 3.1-0.8 8.2-4.9 18.3-5.3 5.6-0.6 18.2 1.2 5.7-1.2 0.7-0.3 0.4 2.5 1.7 9.1 4 2.9-3 5.2-1.8 3.1-7.3-0.3-10 3.4-7.4 5.8-5 3.9-11.1 2.1-13.4 2.6-7.2 3.9-12.7 5.1-13.2 2.8z" id="TLLI" name="Liquica">
  </path>
  <path d="M428.4 256.4l-6.7 1.9-17.3 0.7-2.9-6.7-0.8-8.4-1.5-5.5-7.7-15.9-7.8-15.2-3.4-5.6-4.4-2.2-10.3-2.1-1.9-4.9 13.2-2.8 12.7-5.1 7.2-3.9 13.4-2.6 11.1-2.1 5-3.9 7.4-5.8 10-3.4 7.3 0.3 1.3 0.1 2.8 5.6-3.2 8.6-6 3.4-8.9 3.1-0.7 3.4 4.4 4.5-2.1 6.2-4.5 5.5 4.1 4.2 7.4 3.7 1.3 5.1 2.2 4.3 1.4 2.5-0.9 7.1-5 4.5-1.9 4.8-3.3 3.7-2.6 3.7-0.2 6.8-8.2 2.4z" id="TLER" name="Ermera">
  </path>
  <path d="M504.6 203.8l0.9-6.7-4.7-0.8-8.2 1.3-3.4 2.3-3.4 2.3-6 1.4-1.8 5.1-5.6 6.9-9.1 3.3-13 1.8-1.2 0.2-2.2-4.3-1.3-5.1-7.4-3.7-4.1-4.2 4.5-5.5 2.1-6.2-4.4-4.5 0.7-3.4 8.9-3.1 6-3.4 3.2-8.6-2.8-5.6-1.3-0.1 1.8-3.1 3-5.2 2.5 1.9 10.9-1.6 8.8-3 6.6-1.3 9.4-5.2 12.7-6.2 10.7 0.7 7.5 4.4 0.6-0.1-1.7 9.6 3.9 8.9 3.9 5.9 4.3 9.9 1.1 13.4-7.3-0.6-4.6 1.5-5 5-10.1 5.1-5.4 0.6z" id="TLAL" name="Aileu">
  </path>
 </g>
 <g id="points">
  <circle class="-9.432917539642093|124.19420006654333" cx="90.9" cy="382.8" id="0">
  </circle>
  <circle class="-8.88643589074348|125.83580163099141" cx="545.5" cy="229.5" id="1">
  </circle>
  <circle class="-8.203333829620213|127.14908288254988" cx="909.1" cy="38.2" id="2">
  </circle>
 </g>
 <g id="label_points">
  <circle class="Ambeno" cx="115" cy="351.2" id="TLOE">
  </circle>
  <circle class="Bobonaro" cx="367.9" cy="242.5" id="TLBO">
  </circle>
  <circle class="Cova Lima" cx="354.6" cy="347.8" id="TLCO">
  </circle>
  <circle class="Ainaro" cx="454.1" cy="267" id="TLAN">
  </circle>
  <circle class="Manufahi" cx="530.9" cy="262.8" id="TLMF">
  </circle>
  <circle class="Manatuto" cx="574.8" cy="164.2" id="TLMT">
  </circle>
  <circle class="Viqueque" cx="680.5" cy="211.5" id="TLVI">
  </circle>
  <circle class="Lautém" cx="859.3" cy="120.6" id="TLLA">
  </circle>
  <circle class="Baucau" cx="690" cy="137.2" id="TLBA">
  </circle>
  <circle class="Dili" cx="491.1" cy="137.8" id="TLDI">
  </circle>
  <circle class="Liquica" cx="380.8" cy="169.5" id="TLLI">
  </circle>
  <circle class="Ermera" cx="412.4" cy="211.9" id="TLER">
  </circle>
  <circle class="Aileu" cx="481.2" cy="177.4" id="TLAL">
  </circle>
 </g>
</svg>